<?xml version="1.0" encoding="UTF-8" standalone="no"?>
<!DOCTYPE svg PUBLIC "-//W3C//DTD SVG 1.1//EN"
 "http://www.w3.org/Graphics/SVG/1.1/DTD/svg11.dtd">
<!-- Generated by graphviz version 2.36.0 (20140111.2315)
 -->
<!-- Title: org.lightjason.trafficsimulation.simulation.stationary.trafficlight.TestCTrafficLightPedestrian Pages: 1 -->
<!--zoomable 1388 -->
<svg id="main" version="1.1" xmlns="http://www.w3.org/2000/svg" xmlns:xlink="http://www.w3.org/1999/xlink" xml:space="preserve" onload="init(evt)">
<style type="text/css"><![CDATA[
.edge:hover path { stroke: red; }
.edge:hover polygon { stroke: red; fill: red; }
]]></style>
<script type="text/javascript"><![CDATA[
var edges = document.getElementsByTagName('g');
if (edges && edges.length) {
  for (var i=0;i<edges.length;i++) {
    if (edges[i].id.substr(0,4)=='edge') {
      edges[i].setAttribute('class','edge');
    }
  }
}
]]></script>
        <defs>
                <circle id="rim" cx="0" cy="0" r="7"/>
                <circle id="rim2" cx="0" cy="0" r="3.5"/>
                <g id="zoomPlus">
                        <use xlink:href="#rim" fill="#404040">
                                <set attributeName="fill" to="#808080" begin="zoomplus.mouseover" end="zoomplus.mouseout"/>
                        </use>
                        <path d="M-4,0h8M0,-4v8" fill="none" stroke="white" stroke-width="1.5" pointer-events="none"/>
                </g>
                <g id="zoomMin">
                        <use xlink:href="#rim" fill="#404040">
                                <set attributeName="fill" to="#808080" begin="zoomminus.mouseover" end="zoomminus.mouseout"/>
                        </use>
                        <path d="M-4,0h8" fill="none" stroke="white" stroke-width="1.5" pointer-events="none"/>
                </g>
                <g id="dirArrow">
                        <path fill="none" stroke="white" stroke-width="1.5" d="M0,-3.0v7 M-2.5,-0.5L0,-3.0L2.5,-0.5"/>
                </g>
               <g id="resetDef">
                       <use xlink:href="#rim2" fill="#404040">
                               <set attributeName="fill" to="#808080" begin="reset.mouseover" end="reset.mouseout"/>
                       </use>
               </g>
        </defs>

<script type="text/javascript">
var viewWidth = 736;
var viewHeight = 1388;
var sectionId = 'dynsection-1';
</script>
<script xlink:href="../../svgpan.js"/>
<svg id="graph" class="graph">
<g id="viewport">
<title>org.lightjason.trafficsimulation.simulation.stationary.trafficlight.TestCTrafficLightPedestrian</title>
<!-- Node2 -->
<g id="node1" class="node"><title>Node2</title>
<polygon fill="#bfbfbf" stroke="black" points="396,-1 396,-85 664,-85 664,-1 396,-1"/>
<text text-anchor="start" x="404" y="-73.8" font-family="Helvetica,sans-Serif" font-size="9.00">org.lightjason.trafficsimulation.simulation.stationary.trafficlight.</text>
<text text-anchor="middle" x="530" y="-63.8" font-family="Helvetica,sans-Serif" font-size="9.00">TestCTrafficLightPedestrian</text>
<polyline fill="none" stroke="black" points="396,-57 664,-57 "/>
<text text-anchor="middle" x="530" y="-45.8" font-family="Helvetica,sans-Serif" font-size="9.00"> </text>
<polyline fill="none" stroke="black" points="396,-39 664,-39 "/>
<text text-anchor="start" x="404" y="-27.8" font-family="Helvetica,sans-Serif" font-size="9.00">+ initialize()</text>
<text text-anchor="start" x="404" y="-17.8" font-family="Helvetica,sans-Serif" font-size="9.00">+ test()</text>
<text text-anchor="start" x="404" y="-7.8" font-family="Helvetica,sans-Serif" font-size="9.00">+ main()</text>
</g>
<!-- Node3 -->
<g id="node2" class="node"><title>Node3</title>
<g id="a_node2"><a xlink:href="../../dd/d4d/classorg_1_1lightjason_1_1trafficsimulation_1_1IBaseTest.htm" target="_top" xlink:title="base test ">
<polygon fill="none" stroke="black" points="528,-573 528,-747 668,-747 668,-573 528,-573"/>
<text text-anchor="start" x="536" y="-735.8" font-family="Helvetica,sans-Serif" font-size="9.00">org.lightjason.trafficsimulation.</text>
<text text-anchor="middle" x="598" y="-725.8" font-family="Helvetica,sans-Serif" font-size="9.00">IBaseTest</text>
<polyline fill="none" stroke="black" points="528,-719 668,-719 "/>
<text text-anchor="start" x="536" y="-707.8" font-family="Helvetica,sans-Serif" font-size="9.00">&#45; m_actions</text>
<text text-anchor="start" x="536" y="-697.8" font-family="Helvetica,sans-Serif" font-size="9.00">&#45; m_agents</text>
<polyline fill="none" stroke="black" points="528,-691 668,-691 "/>
<text text-anchor="start" x="536" y="-679.8" font-family="Helvetica,sans-Serif" font-size="9.00">+ loadconfiguration()</text>
<text text-anchor="start" x="536" y="-669.8" font-family="Helvetica,sans-Serif" font-size="9.00">~ [static initializer]()</text>
<text text-anchor="start" x="536" y="-659.8" font-family="Helvetica,sans-Serif" font-size="9.00"># generate()</text>
<text text-anchor="start" x="536" y="-649.8" font-family="Helvetica,sans-Serif" font-size="9.00"># generatemultiple()</text>
<text text-anchor="start" x="536" y="-639.8" font-family="Helvetica,sans-Serif" font-size="9.00"># initializeenvironment()</text>
<text text-anchor="start" x="536" y="-629.8" font-family="Helvetica,sans-Serif" font-size="9.00"># invoketest()</text>
<text text-anchor="start" x="536" y="-619.8" font-family="Helvetica,sans-Serif" font-size="9.00"># executeagent()</text>
<text text-anchor="start" x="536" y="-609.8" font-family="Helvetica,sans-Serif" font-size="9.00"># executeagent()</text>
<text text-anchor="start" x="536" y="-599.8" font-family="Helvetica,sans-Serif" font-size="9.00">&#45; before()</text>
<text text-anchor="start" x="536" y="-589.8" font-family="Helvetica,sans-Serif" font-size="9.00">&#45; execute()</text>
<text text-anchor="start" x="536" y="-579.8" font-family="Helvetica,sans-Serif" font-size="9.00">&#45; invoke()</text>
</a>
</g>
</g>
<!-- Node3&#45;&gt;Node2 -->
<g id="edge1" class="edge"><title>Node3&#45;&gt;Node2</title>
<path fill="none" stroke="midnightblue" d="M595.724,-562.681C594.824,-516.756 594,-461.042 594,-411 594,-411 594,-411 594,-179 594,-145.151 577.369,-110.731 561.063,-85.118"/>
<polygon fill="none" stroke="midnightblue" points="592.23,-562.998 595.93,-572.926 599.229,-562.858 592.23,-562.998"/>
</g>
<!-- Node4 -->
<g id="node3" class="node"><title>Node4</title>
<g id="a_node3"><a xlink:href="../../d5/d10/interfaceorg_1_1lightjason_1_1trafficsimulation_1_1simulation_1_1environment_1_1IEnvironment.htm" target="_top" xlink:title="environment interface ">
<polygon fill="none" stroke="black" points="490,-989 490,-1103 728,-1103 728,-989 490,-989"/>
<text text-anchor="start" x="498" y="-1091.8" font-family="Helvetica,sans-Serif" font-size="9.00">org.lightjason.trafficsimulation.simulation.environment.</text>
<text text-anchor="middle" x="609" y="-1081.8" font-family="Helvetica,sans-Serif" font-size="9.00">IEnvironment</text>
<polyline fill="none" stroke="black" points="490,-1075 728,-1075 "/>
<text text-anchor="middle" x="609" y="-1063.8" font-family="Helvetica,sans-Serif" font-size="9.00"> </text>
<polyline fill="none" stroke="black" points="490,-1057 728,-1057 "/>
<text text-anchor="start" x="498" y="-1045.8" font-family="Helvetica,sans-Serif" font-size="9.00">+ empty()</text>
<text text-anchor="start" x="498" y="-1035.8" font-family="Helvetica,sans-Serif" font-size="9.00">+ get()</text>
<text text-anchor="start" x="498" y="-1025.8" font-family="Helvetica,sans-Serif" font-size="9.00">+ move()</text>
<text text-anchor="start" x="498" y="-1015.8" font-family="Helvetica,sans-Serif" font-size="9.00">+ remove()</text>
<text text-anchor="start" x="498" y="-1005.8" font-family="Helvetica,sans-Serif" font-size="9.00">+ route()</text>
<text text-anchor="start" x="498" y="-995.8" font-family="Helvetica,sans-Serif" font-size="9.00">+ routestimatedtime()</text>
</a>
</g>
</g>
<!-- Node4&#45;&gt;Node3 -->
<g id="edge2" class="edge"><title>Node4&#45;&gt;Node3</title>
<path fill="none" stroke="#404040" d="M607.389,-988.752C605.668,-928.689 602.908,-832.339 600.825,-759.616"/>
<polygon fill="none" stroke="#404040" points="600.814,-759.239 596.644,-753.356 600.471,-747.243 604.641,-753.126 600.814,-759.239"/>
<text text-anchor="middle" x="643" y="-962.8" font-family="Helvetica,sans-Serif" font-size="9.00"> #m_environment</text>
</g>
<!-- Node9 -->
<g id="node8" class="node"><title>Node9</title>
<g id="a_node8"><a xlink:href="../../d5/d6f/classorg_1_1lightjason_1_1trafficsimulation_1_1simulation_1_1IBaseObject.htm" target="_top" xlink:title="base agent object ">
<polygon fill="none" stroke="black" points="358.5,-767 358.5,-941 501.5,-941 501.5,-767 358.5,-767"/>
<text text-anchor="start" x="366.5" y="-929.8" font-family="Helvetica,sans-Serif" font-size="9.00">org::lightjason::trafficsimulation</text>
<text text-anchor="middle" x="430" y="-919.8" font-family="Helvetica,sans-Serif" font-size="9.00">::simulation::IBaseObject&lt; T &gt;</text>
<polyline fill="none" stroke="black" points="358.5,-913 501.5,-913 "/>
<text text-anchor="start" x="366.5" y="-901.8" font-family="Helvetica,sans-Serif" font-size="9.00"># m_position</text>
<text text-anchor="start" x="366.5" y="-891.8" font-family="Helvetica,sans-Serif" font-size="9.00">&#45; m_external</text>
<text text-anchor="start" x="366.5" y="-881.8" font-family="Helvetica,sans-Serif" font-size="9.00">&#45; m_functor</text>
<text text-anchor="start" x="366.5" y="-871.8" font-family="Helvetica,sans-Serif" font-size="9.00">&#45; m_name</text>
<text text-anchor="start" x="366.5" y="-861.8" font-family="Helvetica,sans-Serif" font-size="9.00">&#45; serialVersionUID</text>
<polyline fill="none" stroke="black" points="358.5,-855 501.5,-855 "/>
<text text-anchor="start" x="366.5" y="-843.8" font-family="Helvetica,sans-Serif" font-size="9.00">+ equals()</text>
<text text-anchor="start" x="366.5" y="-833.8" font-family="Helvetica,sans-Serif" font-size="9.00">+ hashCode()</text>
<text text-anchor="start" x="366.5" y="-823.8" font-family="Helvetica,sans-Serif" font-size="9.00">+ literal()</text>
<text text-anchor="start" x="366.5" y="-813.8" font-family="Helvetica,sans-Serif" font-size="9.00">+ literal()</text>
<text text-anchor="start" x="366.5" y="-803.8" font-family="Helvetica,sans-Serif" font-size="9.00">+ name()</text>
<text text-anchor="start" x="366.5" y="-793.8" font-family="Helvetica,sans-Serif" font-size="9.00">+ position()</text>
<text text-anchor="start" x="366.5" y="-783.8" font-family="Helvetica,sans-Serif" font-size="9.00"># IBaseObject()</text>
<text text-anchor="start" x="366.5" y="-773.8" font-family="Helvetica,sans-Serif" font-size="9.00"># individualliteral()</text>
</a>
</g>
</g>
<!-- Node4&#45;&gt;Node9 -->
<g id="edge10" class="edge"><title>Node4&#45;&gt;Node9</title>
<path fill="none" stroke="#404040" d="M531.97,-988.901C524.974,-982.791 518.198,-976.443 512,-970 506.098,-963.865 500.288,-957.278 494.655,-950.476"/>
<polygon fill="none" stroke="#404040" points="494.62,-950.432 487.741,-948.27 487.09,-941.089 493.97,-943.251 494.62,-950.432"/>
<text text-anchor="middle" x="548" y="-962.8" font-family="Helvetica,sans-Serif" font-size="9.00"> #m_environment</text>
</g>
<!-- Node5 -->
<g id="node4" class="node"><title>Node5</title>
<g id="a_node4"><a xlink:href="../../d5/dea/interfaceorg_1_1lightjason_1_1trafficsimulation_1_1simulation_1_1IObject.htm" target="_top" xlink:title="object interface ">
<polygon fill="none" stroke="black" points="526.5,-1151 526.5,-1245 691.5,-1245 691.5,-1151 526.5,-1151"/>
<text text-anchor="start" x="534.5" y="-1233.8" font-family="Helvetica,sans-Serif" font-size="9.00">org::lightjason::trafficsimulation</text>
<text text-anchor="middle" x="609" y="-1223.8" font-family="Helvetica,sans-Serif" font-size="9.00">::simulation::IObject&lt; IEnvironment &gt;</text>
<polyline fill="none" stroke="black" points="526.5,-1217 691.5,-1217 "/>
<text text-anchor="middle" x="609" y="-1205.8" font-family="Helvetica,sans-Serif" font-size="9.00"> </text>
<polyline fill="none" stroke="black" points="526.5,-1199 691.5,-1199 "/>
<text text-anchor="start" x="534.5" y="-1187.8" font-family="Helvetica,sans-Serif" font-size="9.00">+ literal()</text>
<text text-anchor="start" x="534.5" y="-1177.8" font-family="Helvetica,sans-Serif" font-size="9.00">+ literal()</text>
<text text-anchor="start" x="534.5" y="-1167.8" font-family="Helvetica,sans-Serif" font-size="9.00">+ name()</text>
<text text-anchor="start" x="534.5" y="-1157.8" font-family="Helvetica,sans-Serif" font-size="9.00">+ position()</text>
</a>
</g>
</g>
<!-- Node5&#45;&gt;Node4 -->
<g id="edge3" class="edge"><title>Node5&#45;&gt;Node4</title>
<path fill="none" stroke="midnightblue" d="M609,-1140.65C609,-1128.37 609,-1115.38 609,-1103.11"/>
<polygon fill="none" stroke="midnightblue" points="605.5,-1140.77 609,-1150.77 612.5,-1140.77 605.5,-1140.77"/>
</g>
<!-- Node6 -->
<g id="node5" class="node"><title>Node6</title>
<g id="a_node5"><a xlink:href="../../d2/d17/classorg_1_1lightjason_1_1trafficsimulation_1_1simulation_1_1stationary_1_1trafficlight_1_1CTrafficLightPedestrian.htm" target="_top" xlink:title="pedestrian traffic light class ">
<polygon fill="none" stroke="black" points="298,-133 298,-227 566,-227 566,-133 298,-133"/>
<text text-anchor="start" x="306" y="-215.8" font-family="Helvetica,sans-Serif" font-size="9.00">org.lightjason.trafficsimulation.simulation.stationary.trafficlight.</text>
<text text-anchor="middle" x="432" y="-205.8" font-family="Helvetica,sans-Serif" font-size="9.00">CTrafficLightPedestrian</text>
<polyline fill="none" stroke="black" points="298,-199 566,-199 "/>
<text text-anchor="start" x="306" y="-187.8" font-family="Helvetica,sans-Serif" font-size="9.00">&#45; COUNTER</text>
<text text-anchor="start" x="306" y="-177.8" font-family="Helvetica,sans-Serif" font-size="9.00">&#45; FUNCTOR</text>
<text text-anchor="start" x="306" y="-167.8" font-family="Helvetica,sans-Serif" font-size="9.00">&#45; serialVersionUID</text>
<polyline fill="none" stroke="black" points="298,-161 566,-161 "/>
<text text-anchor="start" x="306" y="-149.8" font-family="Helvetica,sans-Serif" font-size="9.00"># individualliteral()</text>
<text text-anchor="start" x="306" y="-139.8" font-family="Helvetica,sans-Serif" font-size="9.00">&#45; CTrafficLightPedestrian()</text>
</a>
</g>
</g>
<!-- Node6&#45;&gt;Node2 -->
<g id="edge4" class="edge"><title>Node6&#45;&gt;Node2</title>
<path fill="none" stroke="#404040" d="M465.452,-132.918C474.29,-120.743 483.881,-107.531 492.899,-95.108"/>
<polygon fill="none" stroke="#404040" points="492.934,-95.0597 493.222,-87.8543 499.984,-85.3486 499.696,-92.554 492.934,-95.0597"/>
<text text-anchor="middle" x="523.5" y="-106.8" font-family="Helvetica,sans-Serif" font-size="9.00"> &#45;m_pedestrianlight</text>
</g>
<!-- Node7 -->
<g id="node6" class="node"><title>Node7</title>
<g id="a_node6"><a xlink:href="../../d7/df3/classorg_1_1lightjason_1_1trafficsimulation_1_1simulation_1_1stationary_1_1trafficlight_1_1IBaseTrafficLight.htm" target="_top" xlink:title="{org.lightjason.trafficsimulation.simulation.stationary.trafficlight.\lIBaseTrafficLight\&lt; CTrafficLightPedestrian,\l ELightColorPedestrian \&gt;\n|# GROUP\l&#45; m_color\l&#45; m_rotation\l&#45; serialVersionUID\l|# IBaseTrafficLight()\l&#45; nextstate()\l}">
<polygon fill="none" stroke="black" points="298,-267 298,-381 566,-381 566,-267 298,-267"/>
<text text-anchor="start" x="306" y="-369.8" font-family="Helvetica,sans-Serif" font-size="9.00">org.lightjason.trafficsimulation.simulation.stationary.trafficlight.</text>
<text text-anchor="start" x="306" y="-359.8" font-family="Helvetica,sans-Serif" font-size="9.00">IBaseTrafficLight&lt; CTrafficLightPedestrian,</text>
<text text-anchor="middle" x="432" y="-349.8" font-family="Helvetica,sans-Serif" font-size="9.00"> ELightColorPedestrian &gt;</text>
<polyline fill="none" stroke="black" points="298,-343 566,-343 "/>
<text text-anchor="start" x="306" y="-331.8" font-family="Helvetica,sans-Serif" font-size="9.00"># GROUP</text>
<text text-anchor="start" x="306" y="-321.8" font-family="Helvetica,sans-Serif" font-size="9.00">&#45; m_color</text>
<text text-anchor="start" x="306" y="-311.8" font-family="Helvetica,sans-Serif" font-size="9.00">&#45; m_rotation</text>
<text text-anchor="start" x="306" y="-301.8" font-family="Helvetica,sans-Serif" font-size="9.00">&#45; serialVersionUID</text>
<polyline fill="none" stroke="black" points="298,-295 566,-295 "/>
<text text-anchor="start" x="306" y="-283.8" font-family="Helvetica,sans-Serif" font-size="9.00"># IBaseTrafficLight()</text>
<text text-anchor="start" x="306" y="-273.8" font-family="Helvetica,sans-Serif" font-size="9.00">&#45; nextstate()</text>
</a>
</g>
</g>
<!-- Node7&#45;&gt;Node6 -->
<g id="edge5" class="edge"><title>Node7&#45;&gt;Node6</title>
<path fill="none" stroke="midnightblue" d="M432,-256.575C432,-246.615 432,-236.535 432,-227.122"/>
<polygon fill="none" stroke="midnightblue" points="428.5,-256.878 432,-266.878 435.5,-256.878 428.5,-256.878"/>
</g>
<!-- Node8 -->
<g id="node7" class="node"><title>Node8</title>
<g id="a_node7"><a xlink:href="../../d7/df3/classorg_1_1lightjason_1_1trafficsimulation_1_1simulation_1_1stationary_1_1trafficlight_1_1IBaseTrafficLight.htm" target="_top" xlink:title="traffic light abstract class ">
<polygon fill="none" stroke="black" points="296,-439 296,-553 564,-553 564,-439 296,-439"/>
<text text-anchor="start" x="304" y="-541.8" font-family="Helvetica,sans-Serif" font-size="9.00">org.lightjason.trafficsimulation.simulation.stationary.trafficlight.</text>
<text text-anchor="start" x="304" y="-531.8" font-family="Helvetica,sans-Serif" font-size="9.00">IBaseTrafficLight&lt; T extends IBaseTrafficLight</text>
<text text-anchor="middle" x="430" y="-521.8" font-family="Helvetica,sans-Serif" font-size="9.00">&lt;?, ?, L extends Enum&lt;?, &gt;</text>
<polyline fill="none" stroke="black" points="296,-515 564,-515 "/>
<text text-anchor="start" x="304" y="-503.8" font-family="Helvetica,sans-Serif" font-size="9.00"># GROUP</text>
<text text-anchor="start" x="304" y="-493.8" font-family="Helvetica,sans-Serif" font-size="9.00">&#45; m_color</text>
<text text-anchor="start" x="304" y="-483.8" font-family="Helvetica,sans-Serif" font-size="9.00">&#45; m_rotation</text>
<text text-anchor="start" x="304" y="-473.8" font-family="Helvetica,sans-Serif" font-size="9.00">&#45; serialVersionUID</text>
<polyline fill="none" stroke="black" points="296,-467 564,-467 "/>
<text text-anchor="start" x="304" y="-455.8" font-family="Helvetica,sans-Serif" font-size="9.00"># IBaseTrafficLight()</text>
<text text-anchor="start" x="304" y="-445.8" font-family="Helvetica,sans-Serif" font-size="9.00">&#45; nextstate()</text>
</a>
</g>
</g>
<!-- Node8&#45;&gt;Node7 -->
<g id="edge6" class="edge"><title>Node8&#45;&gt;Node7</title>
<path fill="none" stroke="orange" d="M430.78,-428.677C430.965,-412.94 431.161,-396.305 431.34,-381.077"/>
<polygon fill="orange" stroke="orange" points="427.278,-428.824 430.66,-438.865 434.278,-428.906 427.278,-428.824"/>
<text text-anchor="start" x="432" y="-412.8" font-family="Helvetica,sans-Serif" font-size="9.00"> &lt; CTrafficLightPedestrian,</text>
<text text-anchor="middle" x="486.5" y="-402.8" font-family="Helvetica,sans-Serif" font-size="9.00"> ELightColorPedestrian &gt;</text>
</g>
<!-- Node9&#45;&gt;Node8 -->
<g id="edge7" class="edge"><title>Node9&#45;&gt;Node8</title>
<path fill="none" stroke="midnightblue" d="M430,-756.538C430,-691.42 430,-607.73 430,-553.253"/>
<polygon fill="none" stroke="midnightblue" points="426.5,-756.822 430,-766.822 433.5,-756.822 426.5,-756.822"/>
</g>
<!-- Node10 -->
<g id="node9" class="node"><title>Node10</title>
<g id="a_node9"><a xlink:href="../../d5/dea/interfaceorg_1_1lightjason_1_1trafficsimulation_1_1simulation_1_1IObject.htm" target="_top" xlink:title="{org.lightjason.trafficsimulation.simulation.\lIObject\&lt; T \&gt;\n||+ literal()\l+ literal()\l+ name()\l+ position()\l}">
<polygon fill="none" stroke="black" points="286.5,-999 286.5,-1093 471.5,-1093 471.5,-999 286.5,-999"/>
<text text-anchor="start" x="294.5" y="-1081.8" font-family="Helvetica,sans-Serif" font-size="9.00">org.lightjason.trafficsimulation.simulation.</text>
<text text-anchor="middle" x="379" y="-1071.8" font-family="Helvetica,sans-Serif" font-size="9.00">IObject&lt; T &gt;</text>
<polyline fill="none" stroke="black" points="286.5,-1065 471.5,-1065 "/>
<text text-anchor="middle" x="379" y="-1053.8" font-family="Helvetica,sans-Serif" font-size="9.00"> </text>
<polyline fill="none" stroke="black" points="286.5,-1047 471.5,-1047 "/>
<text text-anchor="start" x="294.5" y="-1035.8" font-family="Helvetica,sans-Serif" font-size="9.00">+ literal()</text>
<text text-anchor="start" x="294.5" y="-1025.8" font-family="Helvetica,sans-Serif" font-size="9.00">+ literal()</text>
<text text-anchor="start" x="294.5" y="-1015.8" font-family="Helvetica,sans-Serif" font-size="9.00">+ name()</text>
<text text-anchor="start" x="294.5" y="-1005.8" font-family="Helvetica,sans-Serif" font-size="9.00">+ position()</text>
</a>
</g>
</g>
<!-- Node10&#45;&gt;Node9 -->
<g id="edge8" class="edge"><title>Node10&#45;&gt;Node9</title>
<path fill="none" stroke="midnightblue" d="M394.174,-988.468C398.175,-973.564 402.584,-957.14 406.9,-941.06"/>
<polygon fill="none" stroke="midnightblue" points="390.688,-987.955 391.476,-998.521 397.449,-989.77 390.688,-987.955"/>
</g>
<!-- Node11 -->
<g id="node10" class="node"><title>Node11</title>
<g id="a_node10"><a xlink:href="../../d5/dea/interfaceorg_1_1lightjason_1_1trafficsimulation_1_1simulation_1_1IObject.htm" target="_top" xlink:title="object interface ">
<polygon fill="none" stroke="black" points="286.5,-1151 286.5,-1245 471.5,-1245 471.5,-1151 286.5,-1151"/>
<text text-anchor="start" x="294.5" y="-1233.8" font-family="Helvetica,sans-Serif" font-size="9.00">org.lightjason.trafficsimulation.simulation.</text>
<text text-anchor="middle" x="379" y="-1223.8" font-family="Helvetica,sans-Serif" font-size="9.00">IObject&lt; T extends IAgent&lt;?&gt;</text>
<polyline fill="none" stroke="black" points="286.5,-1217 471.5,-1217 "/>
<text text-anchor="middle" x="379" y="-1205.8" font-family="Helvetica,sans-Serif" font-size="9.00"> </text>
<polyline fill="none" stroke="black" points="286.5,-1199 471.5,-1199 "/>
<text text-anchor="start" x="294.5" y="-1187.8" font-family="Helvetica,sans-Serif" font-size="9.00">+ literal()</text>
<text text-anchor="start" x="294.5" y="-1177.8" font-family="Helvetica,sans-Serif" font-size="9.00">+ literal()</text>
<text text-anchor="start" x="294.5" y="-1167.8" font-family="Helvetica,sans-Serif" font-size="9.00">+ name()</text>
<text text-anchor="start" x="294.5" y="-1157.8" font-family="Helvetica,sans-Serif" font-size="9.00">+ position()</text>
</a>
</g>
</g>
<!-- Node11&#45;&gt;Node10 -->
<g id="edge9" class="edge"><title>Node11&#45;&gt;Node10</title>
<path fill="none" stroke="orange" d="M379,-1140.66C379,-1124.96 379,-1108.1 379,-1093.08"/>
<polygon fill="orange" stroke="orange" points="375.5,-1140.77 379,-1150.77 382.5,-1140.77 375.5,-1140.77"/>
<text text-anchor="middle" x="390.5" y="-1124.8" font-family="Helvetica,sans-Serif" font-size="9.00"> &lt; T &gt;</text>
</g>
<!-- Node12 -->
<g id="node11" class="node"><title>Node12</title>
<g id="a_node11"><a xlink:href="../../da/da0/interfaceorg_1_1lightjason_1_1trafficsimulation_1_1simulation_1_1stationary_1_1trafficlight_1_1ITrafficLight.htm" target="_top" xlink:title="{org.lightjason.trafficsimulation.simulation.stationary.trafficlight.\lITrafficLight\&lt; T \&gt;\n||}">
<polygon fill="none" stroke="black" points="58,-822 58,-886 326,-886 326,-822 58,-822"/>
<text text-anchor="start" x="66" y="-874.8" font-family="Helvetica,sans-Serif" font-size="9.00">org.lightjason.trafficsimulation.simulation.stationary.trafficlight.</text>
<text text-anchor="middle" x="192" y="-864.8" font-family="Helvetica,sans-Serif" font-size="9.00">ITrafficLight&lt; T &gt;</text>
<polyline fill="none" stroke="black" points="58,-858 326,-858 "/>
<text text-anchor="middle" x="192" y="-846.8" font-family="Helvetica,sans-Serif" font-size="9.00"> </text>
<polyline fill="none" stroke="black" points="58,-840 326,-840 "/>
<text text-anchor="middle" x="192" y="-828.8" font-family="Helvetica,sans-Serif" font-size="9.00"> </text>
</a>
</g>
</g>
<!-- Node12&#45;&gt;Node8 -->
<g id="edge11" class="edge"><title>Node12&#45;&gt;Node8</title>
<path fill="none" stroke="midnightblue" d="M218.617,-813.187C261.007,-749.779 344,-625.639 392.426,-553.203"/>
<polygon fill="none" stroke="midnightblue" points="215.56,-811.461 212.912,-821.719 221.38,-815.351 215.56,-811.461"/>
</g>
<!-- Node13 -->
<g id="node12" class="node"><title>Node13</title>
<g id="a_node12"><a xlink:href="../../da/da0/interfaceorg_1_1lightjason_1_1trafficsimulation_1_1simulation_1_1stationary_1_1trafficlight_1_1ITrafficLight.htm" target="_top" xlink:title="traffic light interface ">
<polygon fill="none" stroke="black" points="0,-1014 0,-1078 268,-1078 268,-1014 0,-1014"/>
<text text-anchor="start" x="8" y="-1066.8" font-family="Helvetica,sans-Serif" font-size="9.00">org.lightjason.trafficsimulation.simulation.stationary.trafficlight.</text>
<text text-anchor="middle" x="134" y="-1056.8" font-family="Helvetica,sans-Serif" font-size="9.00">ITrafficLight&lt; T extends ITrafficLight&lt;?&gt;</text>
<polyline fill="none" stroke="black" points="0,-1050 268,-1050 "/>
<text text-anchor="middle" x="134" y="-1038.8" font-family="Helvetica,sans-Serif" font-size="9.00"> </text>
<polyline fill="none" stroke="black" points="0,-1032 268,-1032 "/>
<text text-anchor="middle" x="134" y="-1020.8" font-family="Helvetica,sans-Serif" font-size="9.00"> </text>
</a>
</g>
</g>
<!-- Node13&#45;&gt;Node12 -->
<g id="edge12" class="edge"><title>Node13&#45;&gt;Node12</title>
<path fill="none" stroke="orange" d="M146.633,-1003.61C157.43,-968.248 172.725,-918.142 182.505,-886.105"/>
<polygon fill="orange" stroke="orange" points="143.15,-1003.04 143.578,-1013.63 149.845,-1005.08 143.15,-1003.04"/>
<text text-anchor="middle" x="171.5" y="-962.8" font-family="Helvetica,sans-Serif" font-size="9.00"> &lt; T &gt;</text>
</g>
<!-- Node14 -->
<g id="node13" class="node"><title>Node14</title>
<g id="a_node13"><a xlink:href="../../db/db5/interfaceorg_1_1lightjason_1_1trafficsimulation_1_1simulation_1_1stationary_1_1IStationary.htm" target="_top" xlink:title="static interface ">
<polygon fill="none" stroke="black" points="46,-1166 46,-1230 222,-1230 222,-1166 46,-1166"/>
<text text-anchor="start" x="54" y="-1218.8" font-family="Helvetica,sans-Serif" font-size="9.00">org::lightjason::trafficsimulation</text>
<text text-anchor="middle" x="134" y="-1208.8" font-family="Helvetica,sans-Serif" font-size="9.00">::simulation::stationary::IStationary&lt; T &gt;</text>
<polyline fill="none" stroke="black" points="46,-1202 222,-1202 "/>
<text text-anchor="middle" x="134" y="-1190.8" font-family="Helvetica,sans-Serif" font-size="9.00"> </text>
<polyline fill="none" stroke="black" points="46,-1184 222,-1184 "/>
<text text-anchor="middle" x="134" y="-1172.8" font-family="Helvetica,sans-Serif" font-size="9.00"> </text>
</a>
</g>
</g>
<!-- Node14&#45;&gt;Node13 -->
<g id="edge13" class="edge"><title>Node14&#45;&gt;Node13</title>
<path fill="none" stroke="midnightblue" d="M134,-1155.81C134,-1131.24 134,-1100.56 134,-1078.04"/>
<polygon fill="none" stroke="midnightblue" points="130.5,-1155.92 134,-1165.92 137.5,-1155.92 130.5,-1155.92"/>
</g>
<!-- Node15 -->
<g id="node14" class="node"><title>Node15</title>
<g id="a_node14"><a xlink:href="../../d5/dea/interfaceorg_1_1lightjason_1_1trafficsimulation_1_1simulation_1_1IObject.htm" target="_top" xlink:title="object interface ">
<polygon fill="none" stroke="black" points="62.5,-1285 62.5,-1379 205.5,-1379 205.5,-1285 62.5,-1285"/>
<text text-anchor="start" x="70.5" y="-1367.8" font-family="Helvetica,sans-Serif" font-size="9.00">org::lightjason::trafficsimulation</text>
<text text-anchor="middle" x="134" y="-1357.8" font-family="Helvetica,sans-Serif" font-size="9.00">::simulation::IObject&lt; T &gt;</text>
<polyline fill="none" stroke="black" points="62.5,-1351 205.5,-1351 "/>
<text text-anchor="middle" x="134" y="-1339.8" font-family="Helvetica,sans-Serif" font-size="9.00"> </text>
<polyline fill="none" stroke="black" points="62.5,-1333 205.5,-1333 "/>
<text text-anchor="start" x="70.5" y="-1321.8" font-family="Helvetica,sans-Serif" font-size="9.00">+ literal()</text>
<text text-anchor="start" x="70.5" y="-1311.8" font-family="Helvetica,sans-Serif" font-size="9.00">+ literal()</text>
<text text-anchor="start" x="70.5" y="-1301.8" font-family="Helvetica,sans-Serif" font-size="9.00">+ name()</text>
<text text-anchor="start" x="70.5" y="-1291.8" font-family="Helvetica,sans-Serif" font-size="9.00">+ position()</text>
</a>
</g>
</g>
<!-- Node15&#45;&gt;Node14 -->
<g id="edge14" class="edge"><title>Node15&#45;&gt;Node14</title>
<path fill="none" stroke="midnightblue" d="M134,-1274.44C134,-1259.2 134,-1243.29 134,-1230.02"/>
<polygon fill="none" stroke="midnightblue" points="130.5,-1274.83 134,-1284.83 137.5,-1274.83 130.5,-1274.83"/>
</g>
</g>
</svg>
        <g id="navigator" transform="translate(0 0)" fill="#404254">
                <rect fill="#f2f5e9" fill-opacity="0.5" stroke="#606060" stroke-width=".5" x="0" y="0" width="60" height="60"/>
                <use id="zoomplus" xlink:href="#zoomPlus" x="17" y="9" onmousedown="handleZoom(evt,'in')"/>
                <use id="zoomminus" xlink:href="#zoomMin" x="42" y="9" onmousedown="handleZoom(evt,'out')"/>
                <use id="reset" xlink:href="#resetDef" x="30" y="36" onmousedown="handleReset()"/>
                <g id="arrowUp" xlink:href="#dirArrow" transform="translate(30 24)" onmousedown="handlePan(0,-1)">
                  <use xlink:href="#rim" fill="#404040">
                        <set attributeName="fill" to="#808080" begin="arrowUp.mouseover" end="arrowUp.mouseout"/>
                  </use>
                  <path fill="none" stroke="white" stroke-width="1.5" d="M0,-3.0v7 M-2.5,-0.5L0,-3.0L2.5,-0.5"/>
                </g>
                <g id="arrowRight" xlink:href="#dirArrow" transform="rotate(90) translate(36 -43)" onmousedown="handlePan(1,0)">
                  <use xlink:href="#rim" fill="#404040">
                        <set attributeName="fill" to="#808080" begin="arrowRight.mouseover" end="arrowRight.mouseout"/>
                  </use>
                  <path fill="none" stroke="white" stroke-width="1.5" d="M0,-3.0v7 M-2.5,-0.5L0,-3.0L2.5,-0.5"/>
                </g>
                <g id="arrowDown" xlink:href="#dirArrow" transform="rotate(180) translate(-30 -48)" onmousedown="handlePan(0,1)">
                  <use xlink:href="#rim" fill="#404040">
                        <set attributeName="fill" to="#808080" begin="arrowDown.mouseover" end="arrowDown.mouseout"/>
                  </use>
                  <path fill="none" stroke="white" stroke-width="1.5" d="M0,-3.0v7 M-2.5,-0.5L0,-3.0L2.5,-0.5"/>
                </g>
                <g id="arrowLeft" xlink:href="#dirArrow" transform="rotate(270) translate(-36 17)" onmousedown="handlePan(-1,0)">
                  <use xlink:href="#rim" fill="#404040">
                        <set attributeName="fill" to="#808080" begin="arrowLeft.mouseover" end="arrowLeft.mouseout"/>
                  </use>
                  <path fill="none" stroke="white" stroke-width="1.5" d="M0,-3.0v7 M-2.5,-0.5L0,-3.0L2.5,-0.5"/>
                </g>
        </g>
        <svg viewBox="0 0 15 15" width="100%" height="30px" preserveAspectRatio="xMaxYMin meet">
         <g id="arrow_out" transform="scale(0.3 0.3)">
          <a xlink:href="classorg_1_1lightjason_1_1trafficsimulation_1_1simulation_1_1stationary_1_1trafficlight_1_1TestC1aee5db816d1f4e40437ba24642aa75c_org.svg" target="_base">
           <rect id="button" ry="5" rx="5" y="6" x="6" height="38" width="38"
                fill="#f2f5e9" fill-opacity="0.5" stroke="#606060" stroke-width="1.0"/>
           <path id="arrow"
             d="M 11.500037,31.436501 C 11.940474,20.09759 22.043105,11.32322 32.158766,21.979434 L 37.068811,17.246167 C 37.068811,17.246167 37.088388,32 37.088388,32 L 22.160133,31.978069 C 22.160133,31.978069 26.997745,27.140456 26.997745,27.140456 C 18.528582,18.264221 13.291696,25.230495 11.500037,31.436501 z"
             style="fill:#404040;"/>
          </a>
         </g>
        </svg>
</svg>
