<?xml version="1.0" encoding="UTF-8" standalone="no"?>
<!DOCTYPE svg PUBLIC "-//W3C//DTD SVG 1.1//EN"
 "http://www.w3.org/Graphics/SVG/1.1/DTD/svg11.dtd">
<!-- Generated by graphviz version 2.36.0 (20140111.2315)
 -->
<!-- Title: org.lightjason.trafficsimulation.simulation.environment.IBaseEnvironmentGenerator.generatesingle Pages: 1 -->
<svg width="520pt" height="83pt"
 viewBox="0.00 0.00 520.00 83.00" xmlns="http://www.w3.org/2000/svg" xmlns:xlink="http://www.w3.org/1999/xlink">
<g id="graph0" class="graph" transform="scale(1 1) rotate(0) translate(4 79)">
<title>org.lightjason.trafficsimulation.simulation.environment.IBaseEnvironmentGenerator.generatesingle</title>
<!-- Node5 -->
<g id="node1" class="node"><title>Node5</title>
<polygon fill="#bfbfbf" stroke="black" points="0,-23 0,-51 238,-51 238,-23 0,-23"/>
<text text-anchor="start" x="8" y="-39.8" font-family="Helvetica,sans-Serif" font-size="9.00">org.lightjason.trafficsimulation.simulation.environment.</text>
<text text-anchor="middle" x="119" y="-29.8" font-family="Helvetica,sans-Serif" font-size="9.00">IBaseEnvironmentGenerator.generatesingle</text>
</g>
<!-- Node6 -->
<g id="node2" class="node"><title>Node6</title>
<g id="a_node2"><a xlink:href="../../dc/dea/classorg_1_1lightjason_1_1trafficsimulation_1_1simulation_1_1environment_1_1IBaseEnvironmentGenerator.htm#af7e253527e1bf00f6715276472510d5b" target="_top" xlink:title="generate ">
<polygon fill="none" stroke="black" points="274,-47 274,-75 512,-75 512,-47 274,-47"/>
<text text-anchor="start" x="282" y="-63.8" font-family="Helvetica,sans-Serif" font-size="9.00">org.lightjason.trafficsimulation.simulation.environment.</text>
<text text-anchor="middle" x="393" y="-53.8" font-family="Helvetica,sans-Serif" font-size="9.00">IBaseEnvironmentGenerator.generate</text>
</a>
</g>
</g>
<!-- Node5&#45;&gt;Node6 -->
<g id="edge1" class="edge"><title>Node5&#45;&gt;Node6</title>
<path fill="none" stroke="midnightblue" d="M238.116,-47.422C246.474,-48.1595 254.924,-48.9051 263.336,-49.6473"/>
<polygon fill="midnightblue" stroke="midnightblue" points="263.301,-53.1577 273.57,-50.5503 263.916,-46.1848 263.301,-53.1577"/>
</g>
<!-- Node7 -->
<g id="node3" class="node"><title>Node7</title>
<g id="a_node3"><a xlink:href="../../d9/d27/classorg_1_1lightjason_1_1trafficsimulation_1_1ui_1_1CHTTPServer.htm#ae82ee33938aca956996c6dffa7a40a89" target="_top" xlink:title="register agent if server is started ">
<polygon fill="none" stroke="black" points="318,-0 318,-28 468,-28 468,-0 318,-0"/>
<text text-anchor="start" x="326" y="-16.8" font-family="Helvetica,sans-Serif" font-size="9.00">org.lightjason.trafficsimulation.ui.</text>
<text text-anchor="middle" x="393" y="-6.8" font-family="Helvetica,sans-Serif" font-size="9.00">CHTTPServer.register</text>
</a>
</g>
</g>
<!-- Node5&#45;&gt;Node7 -->
<g id="edge2" class="edge"><title>Node5&#45;&gt;Node7</title>
<path fill="none" stroke="midnightblue" d="M238.116,-27.0122C261.614,-25.0252 285.837,-22.977 307.913,-21.1103"/>
<polygon fill="midnightblue" stroke="midnightblue" points="308.225,-24.5965 317.895,-20.2663 307.635,-17.6214 308.225,-24.5965"/>
</g>
</g>
</svg>
