<?xml version="1.0" encoding="UTF-8" standalone="no"?>
<!DOCTYPE svg PUBLIC "-//W3C//DTD SVG 1.1//EN"
 "http://www.w3.org/Graphics/SVG/1.1/DTD/svg11.dtd">
<!-- Generated by graphviz version 2.36.0 (20140111.2315)
 -->
<!-- Title: org.lightjason.trafficsimulation.simulation.IObject.name Pages: 1 -->
<svg width="402pt" height="83pt"
 viewBox="0.00 0.00 402.00 83.00" xmlns="http://www.w3.org/2000/svg" xmlns:xlink="http://www.w3.org/1999/xlink">
<g id="graph0" class="graph" transform="scale(1 1) rotate(0) translate(4 79)">
<title>org.lightjason.trafficsimulation.simulation.IObject.name</title>
<!-- Node6 -->
<g id="node1" class="node"><title>Node6</title>
<polygon fill="#bfbfbf" stroke="black" points="0.5,-23 0.5,-51 185.5,-51 185.5,-23 0.5,-23"/>
<text text-anchor="start" x="8.5" y="-39.8" font-family="Helvetica,sans-Serif" font-size="9.00">org.lightjason.trafficsimulation.simulation.</text>
<text text-anchor="middle" x="93" y="-29.8" font-family="Helvetica,sans-Serif" font-size="9.00">IObject.name</text>
</g>
<!-- Node7 -->
<g id="node2" class="node"><title>Node7</title>
<g id="a_node2"><a xlink:href="../../d2/d94/classorg_1_1lightjason_1_1trafficsimulation_1_1actions_1_1CSend.htm#a0440dc00efe1e29f0e800a38d553ba54" target="_top" xlink:title="org.lightjason.trafficsimulation.actions.\lCSend.execute">
<polygon fill="none" stroke="black" points="222,-47 222,-75 394,-75 394,-47 222,-47"/>
<text text-anchor="start" x="230" y="-63.8" font-family="Helvetica,sans-Serif" font-size="9.00">org.lightjason.trafficsimulation.actions.</text>
<text text-anchor="middle" x="308" y="-53.8" font-family="Helvetica,sans-Serif" font-size="9.00">CSend.execute</text>
</a>
</g>
</g>
<!-- Node6&#45;&gt;Node7 -->
<g id="edge1" class="edge"><title>Node6&#45;&gt;Node7</title>
<path fill="none" stroke="midnightblue" d="M195.51,-48.4377C204.345,-49.4332 213.225,-50.4338 221.908,-51.4122"/>
<polygon fill="midnightblue" stroke="midnightblue" points="195.896,-44.9592 185.567,-47.3174 195.113,-51.9152 195.896,-44.9592"/>
</g>
<!-- Node8 -->
<g id="node3" class="node"><title>Node8</title>
<g id="a_node3"><a xlink:href="../../d6/d7a/classorg_1_1lightjason_1_1trafficsimulation_1_1actions_1_1CBroadcast.htm#aa00e0c6313f8b6f3872956bc7456cb6e" target="_top" xlink:title="org.lightjason.trafficsimulation.actions.\lCBroadcast.execute">
<polygon fill="none" stroke="black" points="222,-0 222,-28 394,-28 394,-0 222,-0"/>
<text text-anchor="start" x="230" y="-16.8" font-family="Helvetica,sans-Serif" font-size="9.00">org.lightjason.trafficsimulation.actions.</text>
<text text-anchor="middle" x="308" y="-6.8" font-family="Helvetica,sans-Serif" font-size="9.00">CBroadcast.execute</text>
</a>
</g>
</g>
<!-- Node6&#45;&gt;Node8 -->
<g id="edge2" class="edge"><title>Node6&#45;&gt;Node8</title>
<path fill="none" stroke="midnightblue" d="M195.51,-26.0389C204.345,-25.0849 213.225,-24.1259 221.908,-23.1883"/>
<polygon fill="midnightblue" stroke="midnightblue" points="195.134,-22.559 185.567,-27.1124 195.885,-29.5186 195.134,-22.559"/>
</g>
</g>
</svg>
