<?xml version="1.0" encoding="UTF-8" standalone="no"?>
<!DOCTYPE svg PUBLIC "-//W3C//DTD SVG 1.1//EN"
 "http://www.w3.org/Graphics/SVG/1.1/DTD/svg11.dtd">
<!-- Generated by graphviz version 2.36.0 (20140111.2315)
 -->
<!-- Title: org.lightjason.trafficsimulation.simulation.virtual .IVirtual&lt; T extends IVirtual&lt;?&gt; Pages: 1 -->
<svg width="216pt" height="350pt"
 viewBox="0.00 0.00 216.00 350.00" xmlns="http://www.w3.org/2000/svg" xmlns:xlink="http://www.w3.org/1999/xlink">
<g id="graph0" class="graph" transform="scale(1 1) rotate(0) translate(4 346)">
<title>org.lightjason.trafficsimulation.simulation.virtual .IVirtual&lt; T extends IVirtual&lt;?&gt;</title>
<!-- Node5 -->
<g id="node1" class="node"><title>Node5</title>
<polygon fill="#bfbfbf" stroke="black" points="-0.5,-1 -0.5,-65 208.5,-65 208.5,-1 -0.5,-1"/>
<text text-anchor="start" x="7.5" y="-53.8" font-family="Helvetica,sans-Serif" font-size="9.00">org.lightjason.trafficsimulation.simulation.virtual</text>
<text text-anchor="middle" x="104" y="-43.8" font-family="Helvetica,sans-Serif" font-size="9.00"> .IVirtual&lt; T extends IVirtual&lt;?&gt;</text>
<polyline fill="none" stroke="black" points="-0.5,-37 208.5,-37 "/>
<text text-anchor="middle" x="104" y="-25.8" font-family="Helvetica,sans-Serif" font-size="9.00"> </text>
<polyline fill="none" stroke="black" points="-0.5,-19 208.5,-19 "/>
<text text-anchor="middle" x="104" y="-7.8" font-family="Helvetica,sans-Serif" font-size="9.00"> </text>
</g>
<!-- Node6 -->
<g id="node2" class="node"><title>Node6</title>
<g id="a_node2"><a xlink:href="../../d5/dea/interfaceorg_1_1lightjason_1_1trafficsimulation_1_1simulation_1_1IObject.htm" target="_top" xlink:title="{org.lightjason.trafficsimulation.simulation.\lIObject\&lt; T \&gt;\n||+ literal()\l+ literal()\l+ name()\l+ position()\l}">
<polygon fill="none" stroke="black" points="11.5,-105 11.5,-199 196.5,-199 196.5,-105 11.5,-105"/>
<text text-anchor="start" x="19.5" y="-187.8" font-family="Helvetica,sans-Serif" font-size="9.00">org.lightjason.trafficsimulation.simulation.</text>
<text text-anchor="middle" x="104" y="-177.8" font-family="Helvetica,sans-Serif" font-size="9.00">IObject&lt; T &gt;</text>
<polyline fill="none" stroke="black" points="11.5,-171 196.5,-171 "/>
<text text-anchor="middle" x="104" y="-159.8" font-family="Helvetica,sans-Serif" font-size="9.00"> </text>
<polyline fill="none" stroke="black" points="11.5,-153 196.5,-153 "/>
<text text-anchor="start" x="19.5" y="-141.8" font-family="Helvetica,sans-Serif" font-size="9.00">+ literal()</text>
<text text-anchor="start" x="19.5" y="-131.8" font-family="Helvetica,sans-Serif" font-size="9.00">+ literal()</text>
<text text-anchor="start" x="19.5" y="-121.8" font-family="Helvetica,sans-Serif" font-size="9.00">+ name()</text>
<text text-anchor="start" x="19.5" y="-111.8" font-family="Helvetica,sans-Serif" font-size="9.00">+ position()</text>
</a>
</g>
</g>
<!-- Node6&#45;&gt;Node5 -->
<g id="edge1" class="edge"><title>Node6&#45;&gt;Node5</title>
<path fill="none" stroke="midnightblue" d="M104,-94.674C104,-84.5149 104,-74.2682 104,-65.1618"/>
<polygon fill="none" stroke="midnightblue" points="100.5,-94.7585 104,-104.759 107.5,-94.7585 100.5,-94.7585"/>
</g>
<!-- Node7 -->
<g id="node3" class="node"><title>Node7</title>
<g id="a_node3"><a xlink:href="../../d5/dea/interfaceorg_1_1lightjason_1_1trafficsimulation_1_1simulation_1_1IObject.htm" target="_top" xlink:title="object interface ">
<polygon fill="none" stroke="black" points="11.5,-247 11.5,-341 196.5,-341 196.5,-247 11.5,-247"/>
<text text-anchor="start" x="19.5" y="-329.8" font-family="Helvetica,sans-Serif" font-size="9.00">org.lightjason.trafficsimulation.simulation.</text>
<text text-anchor="middle" x="104" y="-319.8" font-family="Helvetica,sans-Serif" font-size="9.00">IObject&lt; T extends IAgent&lt;?&gt;</text>
<polyline fill="none" stroke="black" points="11.5,-313 196.5,-313 "/>
<text text-anchor="middle" x="104" y="-301.8" font-family="Helvetica,sans-Serif" font-size="9.00"> </text>
<polyline fill="none" stroke="black" points="11.5,-295 196.5,-295 "/>
<text text-anchor="start" x="19.5" y="-283.8" font-family="Helvetica,sans-Serif" font-size="9.00">+ literal()</text>
<text text-anchor="start" x="19.5" y="-273.8" font-family="Helvetica,sans-Serif" font-size="9.00">+ literal()</text>
<text text-anchor="start" x="19.5" y="-263.8" font-family="Helvetica,sans-Serif" font-size="9.00">+ name()</text>
<text text-anchor="start" x="19.5" y="-253.8" font-family="Helvetica,sans-Serif" font-size="9.00">+ position()</text>
</a>
</g>
</g>
<!-- Node7&#45;&gt;Node6 -->
<g id="edge2" class="edge"><title>Node7&#45;&gt;Node6</title>
<path fill="none" stroke="orange" d="M104,-236.525C104,-224.119 104,-211.125 104,-199.181"/>
<polygon fill="orange" stroke="orange" points="100.5,-236.771 104,-246.771 107.5,-236.771 100.5,-236.771"/>
<text text-anchor="middle" x="115.5" y="-220.8" font-family="Helvetica,sans-Serif" font-size="9.00"> &lt; T &gt;</text>
</g>
</g>
</svg>
