<?xml version="1.0" encoding="UTF-8" standalone="no"?>
<!DOCTYPE svg PUBLIC "-//W3C//DTD SVG 1.1//EN"
 "http://www.w3.org/Graphics/SVG/1.1/DTD/svg11.dtd">
<!-- Generated by graphviz version 2.36.0 (20140111.2315)
 -->
<!-- Title: org.lightjason.trafficsimulation.simulation.EObjectFactory.generate Pages: 1 -->
<svg width="674pt" height="224pt"
 viewBox="0.00 0.00 674.00 224.00" xmlns="http://www.w3.org/2000/svg" xmlns:xlink="http://www.w3.org/1999/xlink">
<g id="graph0" class="graph" transform="scale(1 1) rotate(0) translate(4 220)">
<title>org.lightjason.trafficsimulation.simulation.EObjectFactory.generate</title>
<!-- Node1 -->
<g id="node1" class="node"><title>Node1</title>
<polygon fill="#bfbfbf" stroke="black" points="0.5,-70 0.5,-98 185.5,-98 185.5,-70 0.5,-70"/>
<text text-anchor="start" x="8.5" y="-86.8" font-family="Helvetica,sans-Serif" font-size="9.00">org.lightjason.trafficsimulation.simulation.</text>
<text text-anchor="middle" x="93" y="-76.8" font-family="Helvetica,sans-Serif" font-size="9.00">EObjectFactory.generate</text>
</g>
<!-- Node2 -->
<g id="node2" class="node"><title>Node2</title>
<g id="a_node2"><a xlink:href="../../dd/d4d/classorg_1_1lightjason_1_1trafficsimulation_1_1IBaseTest.htm#a26710acb5a3cbd91313269e982d38579" target="_top" xlink:title="runs the object generation proecess ">
<polygon fill="none" stroke="black" points="222,-94 222,-122 362,-122 362,-94 222,-94"/>
<text text-anchor="start" x="230" y="-110.8" font-family="Helvetica,sans-Serif" font-size="9.00">org.lightjason.trafficsimulation.</text>
<text text-anchor="middle" x="292" y="-100.8" font-family="Helvetica,sans-Serif" font-size="9.00">IBaseTest.generate</text>
</a>
</g>
</g>
<!-- Node1&#45;&gt;Node2 -->
<g id="edge1" class="edge"><title>Node1&#45;&gt;Node2</title>
<path fill="none" stroke="midnightblue" d="M195.569,-96.3739C204.418,-97.452 213.234,-98.526 221.731,-99.5612"/>
<polygon fill="midnightblue" stroke="midnightblue" points="195.929,-92.892 185.579,-95.1569 195.083,-99.8406 195.929,-92.892"/>
</g>
<!-- Node8 -->
<g id="node8" class="node"><title>Node8</title>
<g id="a_node8"><a xlink:href="../../dd/d4d/classorg_1_1lightjason_1_1trafficsimulation_1_1IBaseTest.htm#ad3781b587eb67a247ea16da5e748d921" target="_top" xlink:title="runs the object generation proecess ">
<polygon fill="none" stroke="black" points="222,-47 222,-75 362,-75 362,-47 222,-47"/>
<text text-anchor="start" x="230" y="-63.8" font-family="Helvetica,sans-Serif" font-size="9.00">org.lightjason.trafficsimulation.</text>
<text text-anchor="middle" x="292" y="-53.8" font-family="Helvetica,sans-Serif" font-size="9.00">IBaseTest.generatemultiple</text>
</a>
</g>
</g>
<!-- Node1&#45;&gt;Node8 -->
<g id="edge7" class="edge"><title>Node1&#45;&gt;Node8</title>
<path fill="none" stroke="midnightblue" d="M195.569,-72.1417C204.418,-71.1085 213.234,-70.0792 221.731,-69.0872"/>
<polygon fill="midnightblue" stroke="midnightblue" points="195.106,-68.6719 185.579,-73.308 195.918,-75.6247 195.106,-68.6719"/>
</g>
<!-- Node3 -->
<g id="node3" class="node"><title>Node3</title>
<g id="a_node3"><a xlink:href="../../d4/dfb/classorg_1_1lightjason_1_1trafficsimulation_1_1simulation_1_1stationary_1_1trafficlight_1_1TestCTrafficLightPedestrian.htm#ac8bd9ca0c2f39d4f3ccef89bb9c14a12" target="_top" xlink:title="initialize traffic light ">
<polygon fill="none" stroke="black" points="398,-188 398,-216 666,-216 666,-188 398,-188"/>
<text text-anchor="start" x="406" y="-204.8" font-family="Helvetica,sans-Serif" font-size="9.00">org.lightjason.trafficsimulation.simulation.stationary.trafficlight.</text>
<text text-anchor="middle" x="532" y="-194.8" font-family="Helvetica,sans-Serif" font-size="9.00">TestCTrafficLightPedestrian.initialize</text>
</a>
</g>
</g>
<!-- Node2&#45;&gt;Node3 -->
<g id="edge2" class="edge"><title>Node2&#45;&gt;Node3</title>
<path fill="none" stroke="midnightblue" d="M317.651,-128.714C337.943,-144.663 368.131,-165.957 398,-178 407.684,-181.904 418.019,-185.177 428.488,-187.919"/>
<polygon fill="midnightblue" stroke="midnightblue" points="319.581,-125.775 309.591,-122.249 315.201,-131.236 319.581,-125.775"/>
</g>
<!-- Node4 -->
<g id="node4" class="node"><title>Node4</title>
<g id="a_node4"><a xlink:href="../../d5/d41/classorg_1_1lightjason_1_1trafficsimulation_1_1simulation_1_1stationary_1_1trafficlight_1_1TestCTrafficLightVehicle.htm#a1aac29f9074106d96629a16efdb27f8c" target="_top" xlink:title="initialize vehicle light ">
<polygon fill="none" stroke="black" points="398,-141 398,-169 666,-169 666,-141 398,-141"/>
<text text-anchor="start" x="406" y="-157.8" font-family="Helvetica,sans-Serif" font-size="9.00">org.lightjason.trafficsimulation.simulation.stationary.trafficlight.</text>
<text text-anchor="middle" x="532" y="-147.8" font-family="Helvetica,sans-Serif" font-size="9.00">TestCTrafficLightVehicle.initialize</text>
</a>
</g>
</g>
<!-- Node2&#45;&gt;Node4 -->
<g id="edge3" class="edge"><title>Node2&#45;&gt;Node4</title>
<path fill="none" stroke="midnightblue" d="M365.119,-124.167C376.119,-126.526 387.352,-128.874 398,-131 414.912,-134.377 433.076,-137.793 450.379,-140.948"/>
<polygon fill="midnightblue" stroke="midnightblue" points="365.618,-120.694 355.104,-122.003 364.14,-127.536 365.618,-120.694"/>
</g>
<!-- Node5 -->
<g id="node5" class="node"><title>Node5</title>
<g id="a_node5"><a xlink:href="../../d8/d27/classorg_1_1lightjason_1_1trafficsimulation_1_1simulation_1_1movable_1_1TestCVehicle.htm#ae6b2423717b6f3100250b9162e92d8ba" target="_top" xlink:title="initialize vehicle ">
<polygon fill="none" stroke="black" points="421,-94 421,-122 643,-122 643,-94 421,-94"/>
<text text-anchor="start" x="429" y="-110.8" font-family="Helvetica,sans-Serif" font-size="9.00">org.lightjason.trafficsimulation.simulation.movable.</text>
<text text-anchor="middle" x="532" y="-100.8" font-family="Helvetica,sans-Serif" font-size="9.00">TestCVehicle.initialize</text>
</a>
</g>
</g>
<!-- Node2&#45;&gt;Node5 -->
<g id="edge4" class="edge"><title>Node2&#45;&gt;Node5</title>
<path fill="none" stroke="midnightblue" d="M372.248,-108C387.845,-108 404.472,-108 420.873,-108"/>
<polygon fill="midnightblue" stroke="midnightblue" points="372.159,-104.5 362.159,-108 372.159,-111.5 372.159,-104.5"/>
</g>
<!-- Node6 -->
<g id="node6" class="node"><title>Node6</title>
<g id="a_node6"><a xlink:href="../../de/dc3/classorg_1_1lightjason_1_1trafficsimulation_1_1simulation_1_1movable_1_1TestCPedestrian.htm#a6c1baa655732545e62037a5bb0d8bc6c" target="_top" xlink:title="initialize pedestrian ">
<polygon fill="none" stroke="black" points="421,-47 421,-75 643,-75 643,-47 421,-47"/>
<text text-anchor="start" x="429" y="-63.8" font-family="Helvetica,sans-Serif" font-size="9.00">org.lightjason.trafficsimulation.simulation.movable.</text>
<text text-anchor="middle" x="532" y="-53.8" font-family="Helvetica,sans-Serif" font-size="9.00">TestCPedestrian.initialize</text>
</a>
</g>
</g>
<!-- Node2&#45;&gt;Node6 -->
<g id="edge5" class="edge"><title>Node2&#45;&gt;Node6</title>
<path fill="none" stroke="midnightblue" d="M365.119,-91.8332C376.119,-89.4742 387.352,-87.1262 398,-85 414.912,-81.6231 433.076,-78.207 450.379,-75.0524"/>
<polygon fill="midnightblue" stroke="midnightblue" points="364.14,-88.4638 355.104,-93.9966 365.618,-95.3059 364.14,-88.4638"/>
</g>
<!-- Node7 -->
<g id="node7" class="node"><title>Node7</title>
<g id="a_node7"><a xlink:href="../../dd/d76/classorg_1_1lightjason_1_1trafficsimulation_1_1simulation_1_1movable_1_1TestCViewPedstrian.htm#a9550f8573d56bb6058cbf764284d4e9f" target="_top" xlink:title="initialize pedestrian ">
<polygon fill="none" stroke="black" points="421,-0 421,-28 643,-28 643,-0 421,-0"/>
<text text-anchor="start" x="429" y="-16.8" font-family="Helvetica,sans-Serif" font-size="9.00">org.lightjason.trafficsimulation.simulation.movable.</text>
<text text-anchor="middle" x="532" y="-6.8" font-family="Helvetica,sans-Serif" font-size="9.00">TestCViewPedstrian.initialize</text>
</a>
</g>
</g>
<!-- Node2&#45;&gt;Node7 -->
<g id="edge6" class="edge"><title>Node2&#45;&gt;Node7</title>
<path fill="none" stroke="midnightblue" d="M353.514,-89.337C356.468,-87.694 359.318,-85.918 362,-84 383.118,-68.9 375.768,-51.4062 398,-38 405.133,-33.6987 412.845,-30.1288 420.839,-27.1702"/>
<polygon fill="midnightblue" stroke="midnightblue" points="351.788,-86.2864 344.396,-93.8762 354.907,-92.5528 351.788,-86.2864"/>
</g>
</g>
</svg>
