<?xml version="1.0" encoding="UTF-8" standalone="no"?>
<!DOCTYPE svg PUBLIC "-//W3C//DTD SVG 1.1//EN"
 "http://www.w3.org/Graphics/SVG/1.1/DTD/svg11.dtd">
<!-- Generated by graphviz version 2.36.0 (20140111.2315)
 -->
<!-- Title: org.lightjason.trafficsimulation.simulation.EObjectFactory.resetcount Pages: 1 -->
<svg width="498pt" height="177pt"
 viewBox="0.00 0.00 498.00 177.00" xmlns="http://www.w3.org/2000/svg" xmlns:xlink="http://www.w3.org/1999/xlink">
<g id="graph0" class="graph" transform="scale(1 1) rotate(0) translate(4 173)">
<title>org.lightjason.trafficsimulation.simulation.EObjectFactory.resetcount</title>
<!-- Node11 -->
<g id="node1" class="node"><title>Node11</title>
<polygon fill="#bfbfbf" stroke="black" points="0.5,-70 0.5,-98 185.5,-98 185.5,-70 0.5,-70"/>
<text text-anchor="start" x="8.5" y="-86.8" font-family="Helvetica,sans-Serif" font-size="9.00">org.lightjason.trafficsimulation.simulation.</text>
<text text-anchor="middle" x="93" y="-76.8" font-family="Helvetica,sans-Serif" font-size="9.00">EObjectFactory.resetcount</text>
</g>
<!-- Node12 -->
<g id="node2" class="node"><title>Node12</title>
<g id="a_node2"><a xlink:href="../../d2/d46/classorg_1_1lightjason_1_1trafficsimulation_1_1simulation_1_1stationary_1_1trafficlight_1_1CTraf57597f79e966c65addca59c0281cfa21.htm#a9cb5acd5278f48a0bf24afcb7c778661" target="_top" xlink:title="reset the object counter ">
<polygon fill="none" stroke="black" points="222,-141 222,-169 490,-169 490,-141 222,-141"/>
<text text-anchor="start" x="230" y="-157.8" font-family="Helvetica,sans-Serif" font-size="9.00">org.lightjason.trafficsimulation.simulation.stationary.trafficlight.</text>
<text text-anchor="middle" x="356" y="-147.8" font-family="Helvetica,sans-Serif" font-size="9.00">CTrafficLightPedestrian.CGenerator.resetcount</text>
</a>
</g>
</g>
<!-- Node11&#45;&gt;Node12 -->
<g id="edge1" class="edge"><title>Node11&#45;&gt;Node12</title>
<path fill="none" stroke="midnightblue" d="M127.439,-98.0935C152.968,-108.406 189.217,-122.096 222,-131 232.683,-133.902 243.945,-136.549 255.211,-138.937"/>
<polygon fill="midnightblue" stroke="midnightblue" points="254.598,-142.384 265.098,-140.969 256.007,-135.527 254.598,-142.384"/>
</g>
<!-- Node13 -->
<g id="node3" class="node"><title>Node13</title>
<g id="a_node3"><a xlink:href="../../dc/dc5/classorg_1_1lightjason_1_1trafficsimulation_1_1simulation_1_1stationary_1_1trafficlight_1_1CTrafficLightVehicle_1_1CGenerator.htm#a53118678a262f98f8b8bfff7e5e1787e" target="_top" xlink:title="reset the object counter ">
<polygon fill="none" stroke="black" points="222,-94 222,-122 490,-122 490,-94 222,-94"/>
<text text-anchor="start" x="230" y="-110.8" font-family="Helvetica,sans-Serif" font-size="9.00">org.lightjason.trafficsimulation.simulation.stationary.trafficlight.</text>
<text text-anchor="middle" x="356" y="-100.8" font-family="Helvetica,sans-Serif" font-size="9.00">CTrafficLightVehicle.CGenerator.resetcount</text>
</a>
</g>
</g>
<!-- Node11&#45;&gt;Node13 -->
<g id="edge2" class="edge"><title>Node11&#45;&gt;Node13</title>
<path fill="none" stroke="midnightblue" d="M185.652,-92.4278C194.189,-93.2128 202.971,-94.0203 211.832,-94.8351"/>
<polygon fill="midnightblue" stroke="midnightblue" points="211.581,-98.3267 221.86,-95.7572 212.222,-91.3562 211.581,-98.3267"/>
</g>
<!-- Node14 -->
<g id="node4" class="node"><title>Node14</title>
<g id="a_node4"><a xlink:href="../../d4/dc2/classorg_1_1lightjason_1_1trafficsimulation_1_1simulation_1_1movable_1_1CPedestrian_1_1CGenerator.htm#a9c38d8ed869f316aad9e9d886bd195db" target="_top" xlink:title="reset the object counter ">
<polygon fill="none" stroke="black" points="245,-47 245,-75 467,-75 467,-47 245,-47"/>
<text text-anchor="start" x="253" y="-63.8" font-family="Helvetica,sans-Serif" font-size="9.00">org.lightjason.trafficsimulation.simulation.movable.</text>
<text text-anchor="middle" x="356" y="-53.8" font-family="Helvetica,sans-Serif" font-size="9.00">CPedestrian.CGenerator.resetcount</text>
</a>
</g>
</g>
<!-- Node11&#45;&gt;Node14 -->
<g id="edge3" class="edge"><title>Node11&#45;&gt;Node14</title>
<path fill="none" stroke="midnightblue" d="M185.652,-75.9234C201.465,-74.5299 218.115,-73.0627 234.551,-71.6142"/>
<polygon fill="midnightblue" stroke="midnightblue" points="235.094,-75.0801 244.748,-70.7157 234.48,-68.1071 235.094,-75.0801"/>
</g>
<!-- Node15 -->
<g id="node5" class="node"><title>Node15</title>
<g id="a_node5"><a xlink:href="../../d1/d80/classorg_1_1lightjason_1_1trafficsimulation_1_1simulation_1_1movable_1_1CVehicle_1_1CGenerator.htm#aea43b1103c9bcb45d342d90a39000eb2" target="_top" xlink:title="reset the object counter ">
<polygon fill="none" stroke="black" points="245,-0 245,-28 467,-28 467,-0 245,-0"/>
<text text-anchor="start" x="253" y="-16.8" font-family="Helvetica,sans-Serif" font-size="9.00">org.lightjason.trafficsimulation.simulation.movable.</text>
<text text-anchor="middle" x="356" y="-6.8" font-family="Helvetica,sans-Serif" font-size="9.00">CVehicle.CGenerator.resetcount</text>
</a>
</g>
</g>
<!-- Node11&#45;&gt;Node15 -->
<g id="edge4" class="edge"><title>Node11&#45;&gt;Node15</title>
<path fill="none" stroke="midnightblue" d="M128.273,-69.9207C153.771,-59.8816 189.611,-46.6775 222,-38 232.78,-35.1118 244.146,-32.4683 255.508,-30.0783"/>
<polygon fill="midnightblue" stroke="midnightblue" points="256.379,-33.4728 265.477,-28.0435 254.979,-26.6142 256.379,-33.4728"/>
</g>
</g>
</svg>
