<?xml version="1.0" encoding="UTF-8" standalone="no"?>
<!DOCTYPE svg PUBLIC "-//W3C//DTD SVG 1.1//EN"
 "http://www.w3.org/Graphics/SVG/1.1/DTD/svg11.dtd">
<!-- Generated by graphviz version 2.36.0 (20140111.2315)
 -->
<!-- Title: org.lightjason.trafficsimulation.simulation.IBaseObject&lt; T extends IObject&lt;?&gt;.IBaseGenerator&lt; T extends IObject&lt;?&gt; Pages: 1 -->
<svg width="246pt" height="410pt"
 viewBox="0.00 0.00 246.00 410.00" xmlns="http://www.w3.org/2000/svg" xmlns:xlink="http://www.w3.org/1999/xlink">
<g id="graph0" class="graph" transform="scale(1 1) rotate(0) translate(4 406)">
<title>org.lightjason.trafficsimulation.simulation.IBaseObject&lt; T extends IObject&lt;?&gt;.IBaseGenerator&lt; T extends IObject&lt;?&gt;</title>
<!-- Node1 -->
<g id="node1" class="node"><title>Node1</title>
<polygon fill="#bfbfbf" stroke="black" points="25,-1 25,-105 213,-105 213,-1 25,-1"/>
<text text-anchor="start" x="33" y="-93.8" font-family="Helvetica,sans-Serif" font-size="9.00">org.lightjason.trafficsimulation.simulation.</text>
<text text-anchor="start" x="33" y="-83.8" font-family="Helvetica,sans-Serif" font-size="9.00">IBaseObject&lt; T extends IObject&lt;</text>
<text text-anchor="middle" x="119" y="-73.8" font-family="Helvetica,sans-Serif" font-size="9.00">?&gt;.IBaseGenerator&lt; T extends IObject&lt;?&gt;</text>
<polyline fill="none" stroke="black" points="25,-67 213,-67 "/>
<text text-anchor="middle" x="119" y="-55.8" font-family="Helvetica,sans-Serif" font-size="9.00"> </text>
<polyline fill="none" stroke="black" points="25,-49 213,-49 "/>
<text text-anchor="start" x="33" y="-37.8" font-family="Helvetica,sans-Serif" font-size="9.00">+ generatesingle()</text>
<text text-anchor="start" x="33" y="-27.8" font-family="Helvetica,sans-Serif" font-size="9.00"># IBaseGenerator()</text>
<text text-anchor="start" x="33" y="-17.8" font-family="Helvetica,sans-Serif" font-size="9.00"># configuration()</text>
<text text-anchor="start" x="33" y="-7.8" font-family="Helvetica,sans-Serif" font-size="9.00"># generate()</text>
</g>
<!-- Node2 -->
<g id="node2" class="node"><title>Node2</title>
<g id="a_node2"><a xlink:href="../../d5/d10/interfaceorg_1_1lightjason_1_1trafficsimulation_1_1simulation_1_1environment_1_1IEnvironment.htm" target="_top" xlink:title="environment interface ">
<polygon fill="none" stroke="black" points="0,-153 0,-267 238,-267 238,-153 0,-153"/>
<text text-anchor="start" x="8" y="-255.8" font-family="Helvetica,sans-Serif" font-size="9.00">org.lightjason.trafficsimulation.simulation.environment.</text>
<text text-anchor="middle" x="119" y="-245.8" font-family="Helvetica,sans-Serif" font-size="9.00">IEnvironment</text>
<polyline fill="none" stroke="black" points="0,-239 238,-239 "/>
<text text-anchor="middle" x="119" y="-227.8" font-family="Helvetica,sans-Serif" font-size="9.00"> </text>
<polyline fill="none" stroke="black" points="0,-221 238,-221 "/>
<text text-anchor="start" x="8" y="-209.8" font-family="Helvetica,sans-Serif" font-size="9.00">+ empty()</text>
<text text-anchor="start" x="8" y="-199.8" font-family="Helvetica,sans-Serif" font-size="9.00">+ get()</text>
<text text-anchor="start" x="8" y="-189.8" font-family="Helvetica,sans-Serif" font-size="9.00">+ move()</text>
<text text-anchor="start" x="8" y="-179.8" font-family="Helvetica,sans-Serif" font-size="9.00">+ remove()</text>
<text text-anchor="start" x="8" y="-169.8" font-family="Helvetica,sans-Serif" font-size="9.00">+ route()</text>
<text text-anchor="start" x="8" y="-159.8" font-family="Helvetica,sans-Serif" font-size="9.00">+ routestimatedtime()</text>
</a>
</g>
</g>
<!-- Node2&#45;&gt;Node1 -->
<g id="edge1" class="edge"><title>Node2&#45;&gt;Node1</title>
<path fill="none" stroke="#404040" d="M119,-152.603C119,-141.103 119,-128.933 119,-117.214"/>
<polygon fill="none" stroke="#404040" points="119,-117.212 115,-111.212 119,-105.212 123,-111.212 119,-117.212"/>
<text text-anchor="middle" x="155" y="-126.8" font-family="Helvetica,sans-Serif" font-size="9.00"> #m_environment</text>
</g>
<!-- Node3 -->
<g id="node3" class="node"><title>Node3</title>
<g id="a_node3"><a xlink:href="../../d5/dea/interfaceorg_1_1lightjason_1_1trafficsimulation_1_1simulation_1_1IObject.htm" target="_top" xlink:title="object interface ">
<polygon fill="none" stroke="black" points="36.5,-307 36.5,-401 201.5,-401 201.5,-307 36.5,-307"/>
<text text-anchor="start" x="44.5" y="-389.8" font-family="Helvetica,sans-Serif" font-size="9.00">org::lightjason::trafficsimulation</text>
<text text-anchor="middle" x="119" y="-379.8" font-family="Helvetica,sans-Serif" font-size="9.00">::simulation::IObject&lt; IEnvironment &gt;</text>
<polyline fill="none" stroke="black" points="36.5,-373 201.5,-373 "/>
<text text-anchor="middle" x="119" y="-361.8" font-family="Helvetica,sans-Serif" font-size="9.00"> </text>
<polyline fill="none" stroke="black" points="36.5,-355 201.5,-355 "/>
<text text-anchor="start" x="44.5" y="-343.8" font-family="Helvetica,sans-Serif" font-size="9.00">+ literal()</text>
<text text-anchor="start" x="44.5" y="-333.8" font-family="Helvetica,sans-Serif" font-size="9.00">+ literal()</text>
<text text-anchor="start" x="44.5" y="-323.8" font-family="Helvetica,sans-Serif" font-size="9.00">+ name()</text>
<text text-anchor="start" x="44.5" y="-313.8" font-family="Helvetica,sans-Serif" font-size="9.00">+ position()</text>
</a>
</g>
</g>
<!-- Node3&#45;&gt;Node2 -->
<g id="edge2" class="edge"><title>Node3&#45;&gt;Node2</title>
<path fill="none" stroke="midnightblue" d="M119,-296.853C119,-287.046 119,-276.843 119,-267.039"/>
<polygon fill="none" stroke="midnightblue" points="115.5,-296.897 119,-306.897 122.5,-296.897 115.5,-296.897"/>
</g>
</g>
</svg>
