<?xml version="1.0" encoding="UTF-8" standalone="no"?>
<!DOCTYPE svg PUBLIC "-//W3C//DTD SVG 1.1//EN"
 "http://www.w3.org/Graphics/SVG/1.1/DTD/svg11.dtd">
<!-- Generated by graphviz version 2.36.0 (20140111.2315)
 -->
<!-- Title: org.lightjason.trafficsimulation.simulation.stationary.IStationary&lt; T extends IStationary&lt;?&gt; Pages: 1 -->
<svg width="234pt" height="206pt"
 viewBox="0.00 0.00 234.00 206.00" xmlns="http://www.w3.org/2000/svg" xmlns:xlink="http://www.w3.org/1999/xlink">
<g id="graph0" class="graph" transform="scale(1 1) rotate(0) translate(4 202)">
<title>org.lightjason.trafficsimulation.simulation.stationary.IStationary&lt; T extends IStationary&lt;?&gt;</title>
<!-- Node10 -->
<g id="node1" class="node"><title>Node10</title>
<polygon fill="#bfbfbf" stroke="black" points="-0.5,-1 -0.5,-65 226.5,-65 226.5,-1 -0.5,-1"/>
<text text-anchor="start" x="7.5" y="-53.8" font-family="Helvetica,sans-Serif" font-size="9.00">org.lightjason.trafficsimulation.simulation.stationary.</text>
<text text-anchor="middle" x="113" y="-43.8" font-family="Helvetica,sans-Serif" font-size="9.00">IStationary&lt; T extends IStationary&lt;?&gt;</text>
<polyline fill="none" stroke="black" points="-0.5,-37 226.5,-37 "/>
<text text-anchor="middle" x="113" y="-25.8" font-family="Helvetica,sans-Serif" font-size="9.00"> </text>
<polyline fill="none" stroke="black" points="-0.5,-19 226.5,-19 "/>
<text text-anchor="middle" x="113" y="-7.8" font-family="Helvetica,sans-Serif" font-size="9.00"> </text>
</g>
<!-- Node11 -->
<g id="node2" class="node"><title>Node11</title>
<g id="a_node2"><a xlink:href="../../d5/dea/interfaceorg_1_1lightjason_1_1trafficsimulation_1_1simulation_1_1IObject.htm" target="_top" xlink:title="object interface ">
<polygon fill="none" stroke="black" points="41.5,-103 41.5,-197 184.5,-197 184.5,-103 41.5,-103"/>
<text text-anchor="start" x="49.5" y="-185.8" font-family="Helvetica,sans-Serif" font-size="9.00">org::lightjason::trafficsimulation</text>
<text text-anchor="middle" x="113" y="-175.8" font-family="Helvetica,sans-Serif" font-size="9.00">::simulation::IObject&lt; T &gt;</text>
<polyline fill="none" stroke="black" points="41.5,-169 184.5,-169 "/>
<text text-anchor="middle" x="113" y="-157.8" font-family="Helvetica,sans-Serif" font-size="9.00"> </text>
<polyline fill="none" stroke="black" points="41.5,-151 184.5,-151 "/>
<text text-anchor="start" x="49.5" y="-139.8" font-family="Helvetica,sans-Serif" font-size="9.00">+ literal()</text>
<text text-anchor="start" x="49.5" y="-129.8" font-family="Helvetica,sans-Serif" font-size="9.00">+ literal()</text>
<text text-anchor="start" x="49.5" y="-119.8" font-family="Helvetica,sans-Serif" font-size="9.00">+ name()</text>
<text text-anchor="start" x="49.5" y="-109.8" font-family="Helvetica,sans-Serif" font-size="9.00">+ position()</text>
</a>
</g>
</g>
<!-- Node11&#45;&gt;Node10 -->
<g id="edge1" class="edge"><title>Node11&#45;&gt;Node10</title>
<path fill="none" stroke="midnightblue" d="M113,-92.7158C113,-83.2815 113,-73.8035 113,-65.2984"/>
<polygon fill="none" stroke="midnightblue" points="109.5,-92.8877 113,-102.888 116.5,-92.8878 109.5,-92.8877"/>
</g>
</g>
</svg>
