<?xml version="1.0" encoding="UTF-8" standalone="no"?>
<!DOCTYPE svg PUBLIC "-//W3C//DTD SVG 1.1//EN"
 "http://www.w3.org/Graphics/SVG/1.1/DTD/svg11.dtd">
<!-- Generated by graphviz version 2.36.0 (20140111.2315)
 -->
<!-- Title: org.lightjason.trafficsimulation.simulation.environment.CEnvironment Pages: 1 -->
<svg width="520pt" height="520pt"
 viewBox="0.00 0.00 520.00 520.00" xmlns="http://www.w3.org/2000/svg" xmlns:xlink="http://www.w3.org/1999/xlink">
<g id="graph0" class="graph" transform="scale(1 1) rotate(0) translate(4 516)">
<title>org.lightjason.trafficsimulation.simulation.environment.CEnvironment</title>
<!-- Node3 -->
<g id="node1" class="node"><title>Node3</title>
<polygon fill="#bfbfbf" stroke="black" points="198,-1 198,-215 436,-215 436,-1 198,-1"/>
<text text-anchor="start" x="206" y="-203.8" font-family="Helvetica,sans-Serif" font-size="9.00">org.lightjason.trafficsimulation.simulation.environment.</text>
<text text-anchor="middle" x="317" y="-193.8" font-family="Helvetica,sans-Serif" font-size="9.00">CEnvironment</text>
<polyline fill="none" stroke="black" points="198,-187 436,-187 "/>
<text text-anchor="start" x="206" y="-175.8" font-family="Helvetica,sans-Serif" font-size="9.00">&#45; m_areas</text>
<text text-anchor="start" x="206" y="-165.8" font-family="Helvetica,sans-Serif" font-size="9.00">&#45; m_objectgrid</text>
<text text-anchor="start" x="206" y="-155.8" font-family="Helvetica,sans-Serif" font-size="9.00">&#45; FUNCTOR</text>
<text text-anchor="start" x="206" y="-145.8" font-family="Helvetica,sans-Serif" font-size="9.00">&#45; serialVersionUID</text>
<polyline fill="none" stroke="black" points="198,-139 436,-139 "/>
<text text-anchor="start" x="206" y="-127.8" font-family="Helvetica,sans-Serif" font-size="9.00">+ empty()</text>
<text text-anchor="start" x="206" y="-117.8" font-family="Helvetica,sans-Serif" font-size="9.00">+ get()</text>
<text text-anchor="start" x="206" y="-107.8" font-family="Helvetica,sans-Serif" font-size="9.00">+ literal()</text>
<text text-anchor="start" x="206" y="-97.8" font-family="Helvetica,sans-Serif" font-size="9.00">+ literal()</text>
<text text-anchor="start" x="206" y="-87.8" font-family="Helvetica,sans-Serif" font-size="9.00">+ move()</text>
<text text-anchor="start" x="206" y="-77.8" font-family="Helvetica,sans-Serif" font-size="9.00">+ name()</text>
<text text-anchor="start" x="206" y="-67.8" font-family="Helvetica,sans-Serif" font-size="9.00">+ position()</text>
<text text-anchor="start" x="206" y="-57.8" font-family="Helvetica,sans-Serif" font-size="9.00">+ remove()</text>
<text text-anchor="start" x="206" y="-47.8" font-family="Helvetica,sans-Serif" font-size="9.00">+ route()</text>
<text text-anchor="start" x="206" y="-37.8" font-family="Helvetica,sans-Serif" font-size="9.00">+ routestimatedtime()</text>
<text text-anchor="start" x="206" y="-27.8" font-family="Helvetica,sans-Serif" font-size="9.00">&#45; CEnvironment()</text>
<text text-anchor="start" x="206" y="-17.8" font-family="Helvetica,sans-Serif" font-size="9.00">&#45; addarea()</text>
<text text-anchor="start" x="206" y="-7.8" font-family="Helvetica,sans-Serif" font-size="9.00">&#45; removearea()</text>
</g>
<!-- Node4 -->
<g id="node2" class="node"><title>Node4</title>
<g id="a_node2"><a xlink:href="../../d5/d10/interfaceorg_1_1lightjason_1_1trafficsimulation_1_1simulation_1_1environment_1_1IEnvironment.htm" target="_top" xlink:title="environment interface ">
<polygon fill="none" stroke="black" points="0,-263 0,-377 238,-377 238,-263 0,-263"/>
<text text-anchor="start" x="8" y="-365.8" font-family="Helvetica,sans-Serif" font-size="9.00">org.lightjason.trafficsimulation.simulation.environment.</text>
<text text-anchor="middle" x="119" y="-355.8" font-family="Helvetica,sans-Serif" font-size="9.00">IEnvironment</text>
<polyline fill="none" stroke="black" points="0,-349 238,-349 "/>
<text text-anchor="middle" x="119" y="-337.8" font-family="Helvetica,sans-Serif" font-size="9.00"> </text>
<polyline fill="none" stroke="black" points="0,-331 238,-331 "/>
<text text-anchor="start" x="8" y="-319.8" font-family="Helvetica,sans-Serif" font-size="9.00">+ empty()</text>
<text text-anchor="start" x="8" y="-309.8" font-family="Helvetica,sans-Serif" font-size="9.00">+ get()</text>
<text text-anchor="start" x="8" y="-299.8" font-family="Helvetica,sans-Serif" font-size="9.00">+ move()</text>
<text text-anchor="start" x="8" y="-289.8" font-family="Helvetica,sans-Serif" font-size="9.00">+ remove()</text>
<text text-anchor="start" x="8" y="-279.8" font-family="Helvetica,sans-Serif" font-size="9.00">+ route()</text>
<text text-anchor="start" x="8" y="-269.8" font-family="Helvetica,sans-Serif" font-size="9.00">+ routestimatedtime()</text>
</a>
</g>
</g>
<!-- Node4&#45;&gt;Node3 -->
<g id="edge1" class="edge"><title>Node4&#45;&gt;Node3</title>
<path fill="none" stroke="midnightblue" d="M178.8,-255.575C190.883,-242.76 203.895,-228.96 216.932,-215.133"/>
<polygon fill="none" stroke="midnightblue" points="176.114,-253.323 171.8,-263 181.207,-258.125 176.114,-253.323"/>
</g>
<!-- Node5 -->
<g id="node3" class="node"><title>Node5</title>
<g id="a_node3"><a xlink:href="../../d5/dea/interfaceorg_1_1lightjason_1_1trafficsimulation_1_1simulation_1_1IObject.htm" target="_top" xlink:title="object interface ">
<polygon fill="none" stroke="black" points="36.5,-417 36.5,-511 201.5,-511 201.5,-417 36.5,-417"/>
<text text-anchor="start" x="44.5" y="-499.8" font-family="Helvetica,sans-Serif" font-size="9.00">org::lightjason::trafficsimulation</text>
<text text-anchor="middle" x="119" y="-489.8" font-family="Helvetica,sans-Serif" font-size="9.00">::simulation::IObject&lt; IEnvironment &gt;</text>
<polyline fill="none" stroke="black" points="36.5,-483 201.5,-483 "/>
<text text-anchor="middle" x="119" y="-471.8" font-family="Helvetica,sans-Serif" font-size="9.00"> </text>
<polyline fill="none" stroke="black" points="36.5,-465 201.5,-465 "/>
<text text-anchor="start" x="44.5" y="-453.8" font-family="Helvetica,sans-Serif" font-size="9.00">+ literal()</text>
<text text-anchor="start" x="44.5" y="-443.8" font-family="Helvetica,sans-Serif" font-size="9.00">+ literal()</text>
<text text-anchor="start" x="44.5" y="-433.8" font-family="Helvetica,sans-Serif" font-size="9.00">+ name()</text>
<text text-anchor="start" x="44.5" y="-423.8" font-family="Helvetica,sans-Serif" font-size="9.00">+ position()</text>
</a>
</g>
</g>
<!-- Node5&#45;&gt;Node4 -->
<g id="edge2" class="edge"><title>Node5&#45;&gt;Node4</title>
<path fill="none" stroke="midnightblue" d="M119,-406.853C119,-397.046 119,-386.843 119,-377.039"/>
<polygon fill="none" stroke="midnightblue" points="115.5,-406.897 119,-416.897 122.5,-406.897 115.5,-406.897"/>
</g>
<!-- Node6 -->
<g id="node4" class="node"><title>Node6</title>
<g id="a_node4"><a xlink:href="../../d1/dd2/interfaceorg_1_1lightjason_1_1trafficsimulation_1_1simulation_1_1algorithm_1_1routing_1_1IRouting.htm" target="_top" xlink:title="routing interface ">
<polygon fill="none" stroke="black" points="256,-278 256,-362 512,-362 512,-278 256,-278"/>
<text text-anchor="start" x="264" y="-350.8" font-family="Helvetica,sans-Serif" font-size="9.00">org.lightjason.trafficsimulation.simulation.algorithm.routing.</text>
<text text-anchor="middle" x="384" y="-340.8" font-family="Helvetica,sans-Serif" font-size="9.00">IRouting</text>
<polyline fill="none" stroke="black" points="256,-334 512,-334 "/>
<text text-anchor="middle" x="384" y="-322.8" font-family="Helvetica,sans-Serif" font-size="9.00"> </text>
<polyline fill="none" stroke="black" points="256,-316 512,-316 "/>
<text text-anchor="start" x="264" y="-304.8" font-family="Helvetica,sans-Serif" font-size="9.00">+ estimatedtime()</text>
<text text-anchor="start" x="264" y="-294.8" font-family="Helvetica,sans-Serif" font-size="9.00">+ initialize()</text>
<text text-anchor="start" x="264" y="-284.8" font-family="Helvetica,sans-Serif" font-size="9.00">+ route()</text>
</a>
</g>
</g>
<!-- Node6&#45;&gt;Node3 -->
<g id="edge3" class="edge"><title>Node6&#45;&gt;Node3</title>
<path fill="none" stroke="#404040" d="M370.843,-277.761C366.046,-262.726 360.353,-244.883 354.495,-226.522"/>
<polygon fill="none" stroke="#404040" points="354.48,-226.475 348.846,-221.975 350.833,-215.043 356.467,-219.543 354.48,-226.475"/>
<text text-anchor="middle" x="381.5" y="-236.8" font-family="Helvetica,sans-Serif" font-size="9.00"> &#45;m_routing</text>
</g>
</g>
</svg>
