<?xml version="1.0" encoding="UTF-8" standalone="no"?>
<!DOCTYPE svg PUBLIC "-//W3C//DTD SVG 1.1//EN"
 "http://www.w3.org/Graphics/SVG/1.1/DTD/svg11.dtd">
<!-- Generated by graphviz version 2.36.0 (20140111.2315)
 -->
<!-- Title: org.lightjason.trafficsimulation.simulation.stationary.trafficlight.CTrafficLightPedestrian Pages: 1 -->
<svg width="735pt" height="1082pt"
 viewBox="0.00 0.00 735.00 1082.00" xmlns="http://www.w3.org/2000/svg" xmlns:xlink="http://www.w3.org/1999/xlink">
<g id="graph0" class="graph" transform="scale(1 1) rotate(0) translate(4 1078)">
<title>org.lightjason.trafficsimulation.simulation.stationary.trafficlight.CTrafficLightPedestrian</title>
<!-- Node10 -->
<g id="node1" class="node"><title>Node10</title>
<polygon fill="#bfbfbf" stroke="black" points="332,-1 332,-95 600,-95 600,-1 332,-1"/>
<text text-anchor="start" x="340" y="-83.8" font-family="Helvetica,sans-Serif" font-size="9.00">org.lightjason.trafficsimulation.simulation.stationary.trafficlight.</text>
<text text-anchor="middle" x="466" y="-73.8" font-family="Helvetica,sans-Serif" font-size="9.00">CTrafficLightPedestrian</text>
<polyline fill="none" stroke="black" points="332,-67 600,-67 "/>
<text text-anchor="start" x="340" y="-55.8" font-family="Helvetica,sans-Serif" font-size="9.00">&#45; COUNTER</text>
<text text-anchor="start" x="340" y="-45.8" font-family="Helvetica,sans-Serif" font-size="9.00">&#45; FUNCTOR</text>
<text text-anchor="start" x="340" y="-35.8" font-family="Helvetica,sans-Serif" font-size="9.00">&#45; serialVersionUID</text>
<polyline fill="none" stroke="black" points="332,-29 600,-29 "/>
<text text-anchor="start" x="340" y="-17.8" font-family="Helvetica,sans-Serif" font-size="9.00"># individualliteral()</text>
<text text-anchor="start" x="340" y="-7.8" font-family="Helvetica,sans-Serif" font-size="9.00">&#45; CTrafficLightPedestrian()</text>
</g>
<!-- Node11 -->
<g id="node2" class="node"><title>Node11</title>
<g id="a_node2"><a xlink:href="../../d7/df3/classorg_1_1lightjason_1_1trafficsimulation_1_1simulation_1_1stationary_1_1trafficlight_1_1IBaseTrafficLight.htm" target="_top" xlink:title="{org.lightjason.trafficsimulation.simulation.stationary.trafficlight.\lIBaseTrafficLight\&lt; CTrafficLightPedestrian,\l ELightColorPedestrian \&gt;\n|# GROUP\l&#45; m_color\l&#45; m_rotation\l&#45; serialVersionUID\l|# IBaseTrafficLight()\l&#45; nextstate()\l}">
<polygon fill="none" stroke="black" points="332,-135 332,-249 600,-249 600,-135 332,-135"/>
<text text-anchor="start" x="340" y="-237.8" font-family="Helvetica,sans-Serif" font-size="9.00">org.lightjason.trafficsimulation.simulation.stationary.trafficlight.</text>
<text text-anchor="start" x="340" y="-227.8" font-family="Helvetica,sans-Serif" font-size="9.00">IBaseTrafficLight&lt; CTrafficLightPedestrian,</text>
<text text-anchor="middle" x="466" y="-217.8" font-family="Helvetica,sans-Serif" font-size="9.00"> ELightColorPedestrian &gt;</text>
<polyline fill="none" stroke="black" points="332,-211 600,-211 "/>
<text text-anchor="start" x="340" y="-199.8" font-family="Helvetica,sans-Serif" font-size="9.00"># GROUP</text>
<text text-anchor="start" x="340" y="-189.8" font-family="Helvetica,sans-Serif" font-size="9.00">&#45; m_color</text>
<text text-anchor="start" x="340" y="-179.8" font-family="Helvetica,sans-Serif" font-size="9.00">&#45; m_rotation</text>
<text text-anchor="start" x="340" y="-169.8" font-family="Helvetica,sans-Serif" font-size="9.00">&#45; serialVersionUID</text>
<polyline fill="none" stroke="black" points="332,-163 600,-163 "/>
<text text-anchor="start" x="340" y="-151.8" font-family="Helvetica,sans-Serif" font-size="9.00"># IBaseTrafficLight()</text>
<text text-anchor="start" x="340" y="-141.8" font-family="Helvetica,sans-Serif" font-size="9.00">&#45; nextstate()</text>
</a>
</g>
</g>
<!-- Node11&#45;&gt;Node10 -->
<g id="edge1" class="edge"><title>Node11&#45;&gt;Node10</title>
<path fill="none" stroke="midnightblue" d="M466,-124.575C466,-114.615 466,-104.535 466,-95.1217"/>
<polygon fill="none" stroke="midnightblue" points="462.5,-124.878 466,-134.878 469.5,-124.878 462.5,-124.878"/>
</g>
<!-- Node12 -->
<g id="node3" class="node"><title>Node12</title>
<g id="a_node3"><a xlink:href="../../d7/df3/classorg_1_1lightjason_1_1trafficsimulation_1_1simulation_1_1stationary_1_1trafficlight_1_1IBaseTrafficLight.htm" target="_top" xlink:title="traffic light abstract class ">
<polygon fill="none" stroke="black" points="332,-307 332,-421 600,-421 600,-307 332,-307"/>
<text text-anchor="start" x="340" y="-409.8" font-family="Helvetica,sans-Serif" font-size="9.00">org.lightjason.trafficsimulation.simulation.stationary.trafficlight.</text>
<text text-anchor="start" x="340" y="-399.8" font-family="Helvetica,sans-Serif" font-size="9.00">IBaseTrafficLight&lt; T extends IBaseTrafficLight</text>
<text text-anchor="middle" x="466" y="-389.8" font-family="Helvetica,sans-Serif" font-size="9.00">&lt;?, ?, L extends Enum&lt;?, &gt;</text>
<polyline fill="none" stroke="black" points="332,-383 600,-383 "/>
<text text-anchor="start" x="340" y="-371.8" font-family="Helvetica,sans-Serif" font-size="9.00"># GROUP</text>
<text text-anchor="start" x="340" y="-361.8" font-family="Helvetica,sans-Serif" font-size="9.00">&#45; m_color</text>
<text text-anchor="start" x="340" y="-351.8" font-family="Helvetica,sans-Serif" font-size="9.00">&#45; m_rotation</text>
<text text-anchor="start" x="340" y="-341.8" font-family="Helvetica,sans-Serif" font-size="9.00">&#45; serialVersionUID</text>
<polyline fill="none" stroke="black" points="332,-335 600,-335 "/>
<text text-anchor="start" x="340" y="-323.8" font-family="Helvetica,sans-Serif" font-size="9.00"># IBaseTrafficLight()</text>
<text text-anchor="start" x="340" y="-313.8" font-family="Helvetica,sans-Serif" font-size="9.00">&#45; nextstate()</text>
</a>
</g>
</g>
<!-- Node12&#45;&gt;Node11 -->
<g id="edge2" class="edge"><title>Node12&#45;&gt;Node11</title>
<path fill="none" stroke="orange" d="M466,-296.677C466,-280.94 466,-264.305 466,-249.077"/>
<polygon fill="orange" stroke="orange" points="462.5,-296.864 466,-306.865 469.5,-296.865 462.5,-296.864"/>
<text text-anchor="start" x="466" y="-280.8" font-family="Helvetica,sans-Serif" font-size="9.00"> &lt; CTrafficLightPedestrian,</text>
<text text-anchor="middle" x="520.5" y="-270.8" font-family="Helvetica,sans-Serif" font-size="9.00"> ELightColorPedestrian &gt;</text>
</g>
<!-- Node13 -->
<g id="node4" class="node"><title>Node13</title>
<g id="a_node4"><a xlink:href="../../d5/d6f/classorg_1_1lightjason_1_1trafficsimulation_1_1simulation_1_1IBaseObject.htm" target="_top" xlink:title="base agent object ">
<polygon fill="none" stroke="black" points="250.5,-461 250.5,-635 393.5,-635 393.5,-461 250.5,-461"/>
<text text-anchor="start" x="258.5" y="-623.8" font-family="Helvetica,sans-Serif" font-size="9.00">org::lightjason::trafficsimulation</text>
<text text-anchor="middle" x="322" y="-613.8" font-family="Helvetica,sans-Serif" font-size="9.00">::simulation::IBaseObject&lt; T &gt;</text>
<polyline fill="none" stroke="black" points="250.5,-607 393.5,-607 "/>
<text text-anchor="start" x="258.5" y="-595.8" font-family="Helvetica,sans-Serif" font-size="9.00"># m_position</text>
<text text-anchor="start" x="258.5" y="-585.8" font-family="Helvetica,sans-Serif" font-size="9.00">&#45; m_external</text>
<text text-anchor="start" x="258.5" y="-575.8" font-family="Helvetica,sans-Serif" font-size="9.00">&#45; m_functor</text>
<text text-anchor="start" x="258.5" y="-565.8" font-family="Helvetica,sans-Serif" font-size="9.00">&#45; m_name</text>
<text text-anchor="start" x="258.5" y="-555.8" font-family="Helvetica,sans-Serif" font-size="9.00">&#45; serialVersionUID</text>
<polyline fill="none" stroke="black" points="250.5,-549 393.5,-549 "/>
<text text-anchor="start" x="258.5" y="-537.8" font-family="Helvetica,sans-Serif" font-size="9.00">+ equals()</text>
<text text-anchor="start" x="258.5" y="-527.8" font-family="Helvetica,sans-Serif" font-size="9.00">+ hashCode()</text>
<text text-anchor="start" x="258.5" y="-517.8" font-family="Helvetica,sans-Serif" font-size="9.00">+ literal()</text>
<text text-anchor="start" x="258.5" y="-507.8" font-family="Helvetica,sans-Serif" font-size="9.00">+ literal()</text>
<text text-anchor="start" x="258.5" y="-497.8" font-family="Helvetica,sans-Serif" font-size="9.00">+ name()</text>
<text text-anchor="start" x="258.5" y="-487.8" font-family="Helvetica,sans-Serif" font-size="9.00">+ position()</text>
<text text-anchor="start" x="258.5" y="-477.8" font-family="Helvetica,sans-Serif" font-size="9.00"># IBaseObject()</text>
<text text-anchor="start" x="258.5" y="-467.8" font-family="Helvetica,sans-Serif" font-size="9.00"># individualliteral()</text>
</a>
</g>
</g>
<!-- Node13&#45;&gt;Node12 -->
<g id="edge3" class="edge"><title>Node13&#45;&gt;Node12</title>
<path fill="none" stroke="midnightblue" d="M396.472,-452.876C405.077,-442 413.635,-431.184 421.653,-421.049"/>
<polygon fill="none" stroke="midnightblue" points="393.665,-450.783 390.205,-460.797 399.154,-455.126 393.665,-450.783"/>
</g>
<!-- Node14 -->
<g id="node5" class="node"><title>Node14</title>
<g id="a_node5"><a xlink:href="../../d5/dea/interfaceorg_1_1lightjason_1_1trafficsimulation_1_1simulation_1_1IObject.htm" target="_top" xlink:title="{org.lightjason.trafficsimulation.simulation.\lIObject\&lt; T \&gt;\n||+ literal()\l+ literal()\l+ name()\l+ position()\l}">
<polygon fill="none" stroke="black" points="-0.5,-693 -0.5,-787 184.5,-787 184.5,-693 -0.5,-693"/>
<text text-anchor="start" x="7.5" y="-775.8" font-family="Helvetica,sans-Serif" font-size="9.00">org.lightjason.trafficsimulation.simulation.</text>
<text text-anchor="middle" x="92" y="-765.8" font-family="Helvetica,sans-Serif" font-size="9.00">IObject&lt; T &gt;</text>
<polyline fill="none" stroke="black" points="-0.5,-759 184.5,-759 "/>
<text text-anchor="middle" x="92" y="-747.8" font-family="Helvetica,sans-Serif" font-size="9.00"> </text>
<polyline fill="none" stroke="black" points="-0.5,-741 184.5,-741 "/>
<text text-anchor="start" x="7.5" y="-729.8" font-family="Helvetica,sans-Serif" font-size="9.00">+ literal()</text>
<text text-anchor="start" x="7.5" y="-719.8" font-family="Helvetica,sans-Serif" font-size="9.00">+ literal()</text>
<text text-anchor="start" x="7.5" y="-709.8" font-family="Helvetica,sans-Serif" font-size="9.00">+ name()</text>
<text text-anchor="start" x="7.5" y="-699.8" font-family="Helvetica,sans-Serif" font-size="9.00">+ position()</text>
</a>
</g>
</g>
<!-- Node14&#45;&gt;Node13 -->
<g id="edge4" class="edge"><title>Node14&#45;&gt;Node13</title>
<path fill="none" stroke="midnightblue" d="M155.712,-686.369C185.118,-662.076 220.152,-633.135 250.463,-608.096"/>
<polygon fill="none" stroke="midnightblue" points="153.451,-683.697 147.97,-692.764 157.909,-689.093 153.451,-683.697"/>
</g>
<!-- Node15 -->
<g id="node6" class="node"><title>Node15</title>
<g id="a_node6"><a xlink:href="../../d5/dea/interfaceorg_1_1lightjason_1_1trafficsimulation_1_1simulation_1_1IObject.htm" target="_top" xlink:title="object interface ">
<polygon fill="none" stroke="black" points="-0.5,-845 -0.5,-939 184.5,-939 184.5,-845 -0.5,-845"/>
<text text-anchor="start" x="7.5" y="-927.8" font-family="Helvetica,sans-Serif" font-size="9.00">org.lightjason.trafficsimulation.simulation.</text>
<text text-anchor="middle" x="92" y="-917.8" font-family="Helvetica,sans-Serif" font-size="9.00">IObject&lt; T extends IAgent&lt;?&gt;</text>
<polyline fill="none" stroke="black" points="-0.5,-911 184.5,-911 "/>
<text text-anchor="middle" x="92" y="-899.8" font-family="Helvetica,sans-Serif" font-size="9.00"> </text>
<polyline fill="none" stroke="black" points="-0.5,-893 184.5,-893 "/>
<text text-anchor="start" x="7.5" y="-881.8" font-family="Helvetica,sans-Serif" font-size="9.00">+ literal()</text>
<text text-anchor="start" x="7.5" y="-871.8" font-family="Helvetica,sans-Serif" font-size="9.00">+ literal()</text>
<text text-anchor="start" x="7.5" y="-861.8" font-family="Helvetica,sans-Serif" font-size="9.00">+ name()</text>
<text text-anchor="start" x="7.5" y="-851.8" font-family="Helvetica,sans-Serif" font-size="9.00">+ position()</text>
</a>
</g>
</g>
<!-- Node15&#45;&gt;Node14 -->
<g id="edge5" class="edge"><title>Node15&#45;&gt;Node14</title>
<path fill="none" stroke="orange" d="M92,-834.657C92,-818.963 92,-802.105 92,-787.076"/>
<polygon fill="orange" stroke="orange" points="88.5001,-834.771 92,-844.771 95.5001,-834.771 88.5001,-834.771"/>
<text text-anchor="middle" x="103.5" y="-818.8" font-family="Helvetica,sans-Serif" font-size="9.00"> &lt; T &gt;</text>
</g>
<!-- Node16 -->
<g id="node7" class="node"><title>Node16</title>
<g id="a_node7"><a xlink:href="../../d5/d10/interfaceorg_1_1lightjason_1_1trafficsimulation_1_1simulation_1_1environment_1_1IEnvironment.htm" target="_top" xlink:title="environment interface ">
<polygon fill="none" stroke="black" points="203,-683 203,-797 441,-797 441,-683 203,-683"/>
<text text-anchor="start" x="211" y="-785.8" font-family="Helvetica,sans-Serif" font-size="9.00">org.lightjason.trafficsimulation.simulation.environment.</text>
<text text-anchor="middle" x="322" y="-775.8" font-family="Helvetica,sans-Serif" font-size="9.00">IEnvironment</text>
<polyline fill="none" stroke="black" points="203,-769 441,-769 "/>
<text text-anchor="middle" x="322" y="-757.8" font-family="Helvetica,sans-Serif" font-size="9.00"> </text>
<polyline fill="none" stroke="black" points="203,-751 441,-751 "/>
<text text-anchor="start" x="211" y="-739.8" font-family="Helvetica,sans-Serif" font-size="9.00">+ empty()</text>
<text text-anchor="start" x="211" y="-729.8" font-family="Helvetica,sans-Serif" font-size="9.00">+ get()</text>
<text text-anchor="start" x="211" y="-719.8" font-family="Helvetica,sans-Serif" font-size="9.00">+ move()</text>
<text text-anchor="start" x="211" y="-709.8" font-family="Helvetica,sans-Serif" font-size="9.00">+ remove()</text>
<text text-anchor="start" x="211" y="-699.8" font-family="Helvetica,sans-Serif" font-size="9.00">+ route()</text>
<text text-anchor="start" x="211" y="-689.8" font-family="Helvetica,sans-Serif" font-size="9.00">+ routestimatedtime()</text>
</a>
</g>
</g>
<!-- Node16&#45;&gt;Node13 -->
<g id="edge6" class="edge"><title>Node16&#45;&gt;Node13</title>
<path fill="none" stroke="#404040" d="M322,-682.765C322,-671.521 322,-659.403 322,-647.215"/>
<polygon fill="none" stroke="#404040" points="322,-647.032 318,-641.032 322,-635.032 326,-641.032 322,-647.032"/>
<text text-anchor="middle" x="358" y="-656.8" font-family="Helvetica,sans-Serif" font-size="9.00"> #m_environment</text>
</g>
<!-- Node17 -->
<g id="node8" class="node"><title>Node17</title>
<g id="a_node8"><a xlink:href="../../d5/dea/interfaceorg_1_1lightjason_1_1trafficsimulation_1_1simulation_1_1IObject.htm" target="_top" xlink:title="object interface ">
<polygon fill="none" stroke="black" points="239.5,-845 239.5,-939 404.5,-939 404.5,-845 239.5,-845"/>
<text text-anchor="start" x="247.5" y="-927.8" font-family="Helvetica,sans-Serif" font-size="9.00">org::lightjason::trafficsimulation</text>
<text text-anchor="middle" x="322" y="-917.8" font-family="Helvetica,sans-Serif" font-size="9.00">::simulation::IObject&lt; IEnvironment &gt;</text>
<polyline fill="none" stroke="black" points="239.5,-911 404.5,-911 "/>
<text text-anchor="middle" x="322" y="-899.8" font-family="Helvetica,sans-Serif" font-size="9.00"> </text>
<polyline fill="none" stroke="black" points="239.5,-893 404.5,-893 "/>
<text text-anchor="start" x="247.5" y="-881.8" font-family="Helvetica,sans-Serif" font-size="9.00">+ literal()</text>
<text text-anchor="start" x="247.5" y="-871.8" font-family="Helvetica,sans-Serif" font-size="9.00">+ literal()</text>
<text text-anchor="start" x="247.5" y="-861.8" font-family="Helvetica,sans-Serif" font-size="9.00">+ name()</text>
<text text-anchor="start" x="247.5" y="-851.8" font-family="Helvetica,sans-Serif" font-size="9.00">+ position()</text>
</a>
</g>
</g>
<!-- Node17&#45;&gt;Node16 -->
<g id="edge7" class="edge"><title>Node17&#45;&gt;Node16</title>
<path fill="none" stroke="midnightblue" d="M322,-834.655C322,-822.374 322,-809.381 322,-797.11"/>
<polygon fill="none" stroke="midnightblue" points="318.5,-834.771 322,-844.771 325.5,-834.771 318.5,-834.771"/>
</g>
<!-- Node18 -->
<g id="node9" class="node"><title>Node18</title>
<g id="a_node9"><a xlink:href="../../da/da0/interfaceorg_1_1lightjason_1_1trafficsimulation_1_1simulation_1_1stationary_1_1trafficlight_1_1ITrafficLight.htm" target="_top" xlink:title="{org.lightjason.trafficsimulation.simulation.stationary.trafficlight.\lITrafficLight\&lt; T \&gt;\n||}">
<polygon fill="none" stroke="black" points="424,-516 424,-580 692,-580 692,-516 424,-516"/>
<text text-anchor="start" x="432" y="-568.8" font-family="Helvetica,sans-Serif" font-size="9.00">org.lightjason.trafficsimulation.simulation.stationary.trafficlight.</text>
<text text-anchor="middle" x="558" y="-558.8" font-family="Helvetica,sans-Serif" font-size="9.00">ITrafficLight&lt; T &gt;</text>
<polyline fill="none" stroke="black" points="424,-552 692,-552 "/>
<text text-anchor="middle" x="558" y="-540.8" font-family="Helvetica,sans-Serif" font-size="9.00"> </text>
<polyline fill="none" stroke="black" points="424,-534 692,-534 "/>
<text text-anchor="middle" x="558" y="-522.8" font-family="Helvetica,sans-Serif" font-size="9.00"> </text>
</a>
</g>
</g>
<!-- Node18&#45;&gt;Node12 -->
<g id="edge8" class="edge"><title>Node18&#45;&gt;Node12</title>
<path fill="none" stroke="midnightblue" d="M537.52,-506.486C524.832,-481.386 508.354,-448.787 494.413,-421.208"/>
<polygon fill="none" stroke="midnightblue" points="534.55,-508.367 542.185,-515.713 540.797,-505.21 534.55,-508.367"/>
</g>
<!-- Node19 -->
<g id="node10" class="node"><title>Node19</title>
<g id="a_node10"><a xlink:href="../../da/da0/interfaceorg_1_1lightjason_1_1trafficsimulation_1_1simulation_1_1stationary_1_1trafficlight_1_1ITrafficLight.htm" target="_top" xlink:title="traffic light interface ">
<polygon fill="none" stroke="black" points="459,-708 459,-772 727,-772 727,-708 459,-708"/>
<text text-anchor="start" x="467" y="-760.8" font-family="Helvetica,sans-Serif" font-size="9.00">org.lightjason.trafficsimulation.simulation.stationary.trafficlight.</text>
<text text-anchor="middle" x="593" y="-750.8" font-family="Helvetica,sans-Serif" font-size="9.00">ITrafficLight&lt; T extends ITrafficLight&lt;?&gt;</text>
<polyline fill="none" stroke="black" points="459,-744 727,-744 "/>
<text text-anchor="middle" x="593" y="-732.8" font-family="Helvetica,sans-Serif" font-size="9.00"> </text>
<polyline fill="none" stroke="black" points="459,-726 727,-726 "/>
<text text-anchor="middle" x="593" y="-714.8" font-family="Helvetica,sans-Serif" font-size="9.00"> </text>
</a>
</g>
</g>
<!-- Node19&#45;&gt;Node18 -->
<g id="edge9" class="edge"><title>Node19&#45;&gt;Node18</title>
<path fill="none" stroke="orange" d="M585.376,-697.614C578.861,-662.248 569.631,-612.142 563.73,-580.105"/>
<polygon fill="orange" stroke="orange" points="581.967,-698.425 587.22,-707.625 588.851,-697.157 581.967,-698.425"/>
<text text-anchor="middle" x="589.5" y="-656.8" font-family="Helvetica,sans-Serif" font-size="9.00"> &lt; T &gt;</text>
</g>
<!-- Node20 -->
<g id="node11" class="node"><title>Node20</title>
<g id="a_node11"><a xlink:href="../../db/db5/interfaceorg_1_1lightjason_1_1trafficsimulation_1_1simulation_1_1stationary_1_1IStationary.htm" target="_top" xlink:title="static interface ">
<polygon fill="none" stroke="black" points="505,-860 505,-924 681,-924 681,-860 505,-860"/>
<text text-anchor="start" x="513" y="-912.8" font-family="Helvetica,sans-Serif" font-size="9.00">org::lightjason::trafficsimulation</text>
<text text-anchor="middle" x="593" y="-902.8" font-family="Helvetica,sans-Serif" font-size="9.00">::simulation::stationary::IStationary&lt; T &gt;</text>
<polyline fill="none" stroke="black" points="505,-896 681,-896 "/>
<text text-anchor="middle" x="593" y="-884.8" font-family="Helvetica,sans-Serif" font-size="9.00"> </text>
<polyline fill="none" stroke="black" points="505,-878 681,-878 "/>
<text text-anchor="middle" x="593" y="-866.8" font-family="Helvetica,sans-Serif" font-size="9.00"> </text>
</a>
</g>
</g>
<!-- Node20&#45;&gt;Node19 -->
<g id="edge10" class="edge"><title>Node20&#45;&gt;Node19</title>
<path fill="none" stroke="midnightblue" d="M593,-849.808C593,-825.242 593,-794.556 593,-772.04"/>
<polygon fill="none" stroke="midnightblue" points="589.5,-849.92 593,-859.92 596.5,-849.92 589.5,-849.92"/>
</g>
<!-- Node21 -->
<g id="node12" class="node"><title>Node21</title>
<g id="a_node12"><a xlink:href="../../d5/dea/interfaceorg_1_1lightjason_1_1trafficsimulation_1_1simulation_1_1IObject.htm" target="_top" xlink:title="object interface ">
<polygon fill="none" stroke="black" points="521.5,-979 521.5,-1073 664.5,-1073 664.5,-979 521.5,-979"/>
<text text-anchor="start" x="529.5" y="-1061.8" font-family="Helvetica,sans-Serif" font-size="9.00">org::lightjason::trafficsimulation</text>
<text text-anchor="middle" x="593" y="-1051.8" font-family="Helvetica,sans-Serif" font-size="9.00">::simulation::IObject&lt; T &gt;</text>
<polyline fill="none" stroke="black" points="521.5,-1045 664.5,-1045 "/>
<text text-anchor="middle" x="593" y="-1033.8" font-family="Helvetica,sans-Serif" font-size="9.00"> </text>
<polyline fill="none" stroke="black" points="521.5,-1027 664.5,-1027 "/>
<text text-anchor="start" x="529.5" y="-1015.8" font-family="Helvetica,sans-Serif" font-size="9.00">+ literal()</text>
<text text-anchor="start" x="529.5" y="-1005.8" font-family="Helvetica,sans-Serif" font-size="9.00">+ literal()</text>
<text text-anchor="start" x="529.5" y="-995.8" font-family="Helvetica,sans-Serif" font-size="9.00">+ name()</text>
<text text-anchor="start" x="529.5" y="-985.8" font-family="Helvetica,sans-Serif" font-size="9.00">+ position()</text>
</a>
</g>
</g>
<!-- Node21&#45;&gt;Node20 -->
<g id="edge11" class="edge"><title>Node21&#45;&gt;Node20</title>
<path fill="none" stroke="midnightblue" d="M593,-968.437C593,-953.205 593,-937.287 593,-924.021"/>
<polygon fill="none" stroke="midnightblue" points="589.5,-968.833 593,-978.833 596.5,-968.833 589.5,-968.833"/>
</g>
</g>
</svg>
