<?xml version="1.0" encoding="UTF-8" standalone="no"?>
<!DOCTYPE svg PUBLIC "-//W3C//DTD SVG 1.1//EN"
 "http://www.w3.org/Graphics/SVG/1.1/DTD/svg11.dtd">
<!-- Generated by graphviz version 2.36.0 (20140111.2315)
 -->
<!-- Title: org.lightjason.trafficsimulation.simulation.movable.TestCPedestrian Pages: 1 -->
<!--zoomable 1404 -->
<svg id="main" version="1.1" xmlns="http://www.w3.org/2000/svg" xmlns:xlink="http://www.w3.org/1999/xlink" xml:space="preserve" onload="init(evt)">
<style type="text/css"><![CDATA[
.edge:hover path { stroke: red; }
.edge:hover polygon { stroke: red; fill: red; }
]]></style>
<script type="text/javascript"><![CDATA[
var edges = document.getElementsByTagName('g');
if (edges && edges.length) {
  for (var i=0;i<edges.length;i++) {
    if (edges[i].id.substr(0,4)=='edge') {
      edges[i].setAttribute('class','edge');
    }
  }
}
]]></script>
        <defs>
                <circle id="rim" cx="0" cy="0" r="7"/>
                <circle id="rim2" cx="0" cy="0" r="3.5"/>
                <g id="zoomPlus">
                        <use xlink:href="#rim" fill="#404040">
                                <set attributeName="fill" to="#808080" begin="zoomplus.mouseover" end="zoomplus.mouseout"/>
                        </use>
                        <path d="M-4,0h8M0,-4v8" fill="none" stroke="white" stroke-width="1.5" pointer-events="none"/>
                </g>
                <g id="zoomMin">
                        <use xlink:href="#rim" fill="#404040">
                                <set attributeName="fill" to="#808080" begin="zoomminus.mouseover" end="zoomminus.mouseout"/>
                        </use>
                        <path d="M-4,0h8" fill="none" stroke="white" stroke-width="1.5" pointer-events="none"/>
                </g>
                <g id="dirArrow">
                        <path fill="none" stroke="white" stroke-width="1.5" d="M0,-3.0v7 M-2.5,-0.5L0,-3.0L2.5,-0.5"/>
                </g>
               <g id="resetDef">
                       <use xlink:href="#rim2" fill="#404040">
                               <set attributeName="fill" to="#808080" begin="reset.mouseover" end="reset.mouseout"/>
                       </use>
               </g>
        </defs>

<script type="text/javascript">
var viewWidth = 689;
var viewHeight = 1404;
var sectionId = 'dynsection-1';
</script>
<script xlink:href="../../svgpan.js"/>
<svg id="graph" class="graph">
<g id="viewport">
<title>org.lightjason.trafficsimulation.simulation.movable.TestCPedestrian</title>
<!-- Node2 -->
<g id="node1" class="node"><title>Node2</title>
<polygon fill="#bfbfbf" stroke="black" points="360,-1 360,-85 582,-85 582,-1 360,-1"/>
<text text-anchor="start" x="368" y="-73.8" font-family="Helvetica,sans-Serif" font-size="9.00">org.lightjason.trafficsimulation.simulation.movable.</text>
<text text-anchor="middle" x="471" y="-63.8" font-family="Helvetica,sans-Serif" font-size="9.00">TestCPedestrian</text>
<polyline fill="none" stroke="black" points="360,-57 582,-57 "/>
<text text-anchor="middle" x="471" y="-45.8" font-family="Helvetica,sans-Serif" font-size="9.00"> </text>
<polyline fill="none" stroke="black" points="360,-39 582,-39 "/>
<text text-anchor="start" x="368" y="-27.8" font-family="Helvetica,sans-Serif" font-size="9.00">+ initialize()</text>
<text text-anchor="start" x="368" y="-17.8" font-family="Helvetica,sans-Serif" font-size="9.00">+ testagentcall()</text>
<text text-anchor="start" x="368" y="-7.8" font-family="Helvetica,sans-Serif" font-size="9.00">+ main()</text>
</g>
<!-- Node3 -->
<g id="node2" class="node"><title>Node3</title>
<g id="a_node2"><a xlink:href="../../dd/d4d/classorg_1_1lightjason_1_1trafficsimulation_1_1IBaseTest.htm" target="_top" xlink:title="base test ">
<polygon fill="none" stroke="black" points="466,-723 466,-897 606,-897 606,-723 466,-723"/>
<text text-anchor="start" x="474" y="-885.8" font-family="Helvetica,sans-Serif" font-size="9.00">org.lightjason.trafficsimulation.</text>
<text text-anchor="middle" x="536" y="-875.8" font-family="Helvetica,sans-Serif" font-size="9.00">IBaseTest</text>
<polyline fill="none" stroke="black" points="466,-869 606,-869 "/>
<text text-anchor="start" x="474" y="-857.8" font-family="Helvetica,sans-Serif" font-size="9.00">&#45; m_actions</text>
<text text-anchor="start" x="474" y="-847.8" font-family="Helvetica,sans-Serif" font-size="9.00">&#45; m_agents</text>
<polyline fill="none" stroke="black" points="466,-841 606,-841 "/>
<text text-anchor="start" x="474" y="-829.8" font-family="Helvetica,sans-Serif" font-size="9.00">+ loadconfiguration()</text>
<text text-anchor="start" x="474" y="-819.8" font-family="Helvetica,sans-Serif" font-size="9.00">~ [static initializer]()</text>
<text text-anchor="start" x="474" y="-809.8" font-family="Helvetica,sans-Serif" font-size="9.00"># generate()</text>
<text text-anchor="start" x="474" y="-799.8" font-family="Helvetica,sans-Serif" font-size="9.00"># generatemultiple()</text>
<text text-anchor="start" x="474" y="-789.8" font-family="Helvetica,sans-Serif" font-size="9.00"># initializeenvironment()</text>
<text text-anchor="start" x="474" y="-779.8" font-family="Helvetica,sans-Serif" font-size="9.00"># invoketest()</text>
<text text-anchor="start" x="474" y="-769.8" font-family="Helvetica,sans-Serif" font-size="9.00"># executeagent()</text>
<text text-anchor="start" x="474" y="-759.8" font-family="Helvetica,sans-Serif" font-size="9.00"># executeagent()</text>
<text text-anchor="start" x="474" y="-749.8" font-family="Helvetica,sans-Serif" font-size="9.00">&#45; before()</text>
<text text-anchor="start" x="474" y="-739.8" font-family="Helvetica,sans-Serif" font-size="9.00">&#45; execute()</text>
<text text-anchor="start" x="474" y="-729.8" font-family="Helvetica,sans-Serif" font-size="9.00">&#45; invoke()</text>
</a>
</g>
</g>
<!-- Node3&#45;&gt;Node2 -->
<g id="edge1" class="edge"><title>Node3&#45;&gt;Node2</title>
<path fill="none" stroke="midnightblue" d="M531.013,-712.887C528.103,-648.667 525,-562.294 525,-486 525,-486 525,-486 525,-179 525,-145.806 510.752,-111.092 496.893,-85.1791"/>
<polygon fill="none" stroke="midnightblue" points="527.523,-713.17 531.478,-722.999 534.515,-712.849 527.523,-713.17"/>
</g>
<!-- Node4 -->
<g id="node3" class="node"><title>Node4</title>
<g id="a_node3"><a xlink:href="../../d5/d10/interfaceorg_1_1lightjason_1_1trafficsimulation_1_1simulation_1_1environment_1_1IEnvironment.htm" target="_top" xlink:title="environment interface ">
<polygon fill="none" stroke="black" points="443,-1139 443,-1253 681,-1253 681,-1139 443,-1139"/>
<text text-anchor="start" x="451" y="-1241.8" font-family="Helvetica,sans-Serif" font-size="9.00">org.lightjason.trafficsimulation.simulation.environment.</text>
<text text-anchor="middle" x="562" y="-1231.8" font-family="Helvetica,sans-Serif" font-size="9.00">IEnvironment</text>
<polyline fill="none" stroke="black" points="443,-1225 681,-1225 "/>
<text text-anchor="middle" x="562" y="-1213.8" font-family="Helvetica,sans-Serif" font-size="9.00"> </text>
<polyline fill="none" stroke="black" points="443,-1207 681,-1207 "/>
<text text-anchor="start" x="451" y="-1195.8" font-family="Helvetica,sans-Serif" font-size="9.00">+ empty()</text>
<text text-anchor="start" x="451" y="-1185.8" font-family="Helvetica,sans-Serif" font-size="9.00">+ get()</text>
<text text-anchor="start" x="451" y="-1175.8" font-family="Helvetica,sans-Serif" font-size="9.00">+ move()</text>
<text text-anchor="start" x="451" y="-1165.8" font-family="Helvetica,sans-Serif" font-size="9.00">+ remove()</text>
<text text-anchor="start" x="451" y="-1155.8" font-family="Helvetica,sans-Serif" font-size="9.00">+ route()</text>
<text text-anchor="start" x="451" y="-1145.8" font-family="Helvetica,sans-Serif" font-size="9.00">+ routestimatedtime()</text>
</a>
</g>
</g>
<!-- Node4&#45;&gt;Node3 -->
<g id="edge2" class="edge"><title>Node4&#45;&gt;Node3</title>
<path fill="none" stroke="#404040" d="M558.192,-1138.75C554.125,-1078.69 547.601,-982.339 542.677,-909.616"/>
<polygon fill="none" stroke="#404040" points="542.65,-909.216 538.254,-903.5 541.839,-897.243 546.236,-902.959 542.65,-909.216"/>
<text text-anchor="middle" x="593" y="-1112.8" font-family="Helvetica,sans-Serif" font-size="9.00"> #m_environment</text>
</g>
<!-- Node9 -->
<g id="node8" class="node"><title>Node9</title>
<g id="a_node8"><a xlink:href="../../d5/d6f/classorg_1_1lightjason_1_1trafficsimulation_1_1simulation_1_1IBaseObject.htm" target="_top" xlink:title="base agent object ">
<polygon fill="none" stroke="black" points="311.5,-917 311.5,-1091 454.5,-1091 454.5,-917 311.5,-917"/>
<text text-anchor="start" x="319.5" y="-1079.8" font-family="Helvetica,sans-Serif" font-size="9.00">org::lightjason::trafficsimulation</text>
<text text-anchor="middle" x="383" y="-1069.8" font-family="Helvetica,sans-Serif" font-size="9.00">::simulation::IBaseObject&lt; T &gt;</text>
<polyline fill="none" stroke="black" points="311.5,-1063 454.5,-1063 "/>
<text text-anchor="start" x="319.5" y="-1051.8" font-family="Helvetica,sans-Serif" font-size="9.00"># m_position</text>
<text text-anchor="start" x="319.5" y="-1041.8" font-family="Helvetica,sans-Serif" font-size="9.00">&#45; m_external</text>
<text text-anchor="start" x="319.5" y="-1031.8" font-family="Helvetica,sans-Serif" font-size="9.00">&#45; m_functor</text>
<text text-anchor="start" x="319.5" y="-1021.8" font-family="Helvetica,sans-Serif" font-size="9.00">&#45; m_name</text>
<text text-anchor="start" x="319.5" y="-1011.8" font-family="Helvetica,sans-Serif" font-size="9.00">&#45; serialVersionUID</text>
<polyline fill="none" stroke="black" points="311.5,-1005 454.5,-1005 "/>
<text text-anchor="start" x="319.5" y="-993.8" font-family="Helvetica,sans-Serif" font-size="9.00">+ equals()</text>
<text text-anchor="start" x="319.5" y="-983.8" font-family="Helvetica,sans-Serif" font-size="9.00">+ hashCode()</text>
<text text-anchor="start" x="319.5" y="-973.8" font-family="Helvetica,sans-Serif" font-size="9.00">+ literal()</text>
<text text-anchor="start" x="319.5" y="-963.8" font-family="Helvetica,sans-Serif" font-size="9.00">+ literal()</text>
<text text-anchor="start" x="319.5" y="-953.8" font-family="Helvetica,sans-Serif" font-size="9.00">+ name()</text>
<text text-anchor="start" x="319.5" y="-943.8" font-family="Helvetica,sans-Serif" font-size="9.00">+ position()</text>
<text text-anchor="start" x="319.5" y="-933.8" font-family="Helvetica,sans-Serif" font-size="9.00"># IBaseObject()</text>
<text text-anchor="start" x="319.5" y="-923.8" font-family="Helvetica,sans-Serif" font-size="9.00"># individualliteral()</text>
</a>
</g>
</g>
<!-- Node4&#45;&gt;Node9 -->
<g id="edge10" class="edge"><title>Node4&#45;&gt;Node9</title>
<path fill="none" stroke="#404040" d="M484.97,-1138.9C477.974,-1132.79 471.198,-1126.44 465,-1120 459.098,-1113.86 453.288,-1107.28 447.655,-1100.48"/>
<polygon fill="none" stroke="#404040" points="447.62,-1100.43 440.741,-1098.27 440.09,-1091.09 446.97,-1093.25 447.62,-1100.43"/>
<text text-anchor="middle" x="501" y="-1112.8" font-family="Helvetica,sans-Serif" font-size="9.00"> #m_environment</text>
</g>
<!-- Node5 -->
<g id="node4" class="node"><title>Node5</title>
<g id="a_node4"><a xlink:href="../../d5/dea/interfaceorg_1_1lightjason_1_1trafficsimulation_1_1simulation_1_1IObject.htm" target="_top" xlink:title="object interface ">
<polygon fill="none" stroke="black" points="479.5,-1301 479.5,-1395 644.5,-1395 644.5,-1301 479.5,-1301"/>
<text text-anchor="start" x="487.5" y="-1383.8" font-family="Helvetica,sans-Serif" font-size="9.00">org::lightjason::trafficsimulation</text>
<text text-anchor="middle" x="562" y="-1373.8" font-family="Helvetica,sans-Serif" font-size="9.00">::simulation::IObject&lt; IEnvironment &gt;</text>
<polyline fill="none" stroke="black" points="479.5,-1367 644.5,-1367 "/>
<text text-anchor="middle" x="562" y="-1355.8" font-family="Helvetica,sans-Serif" font-size="9.00"> </text>
<polyline fill="none" stroke="black" points="479.5,-1349 644.5,-1349 "/>
<text text-anchor="start" x="487.5" y="-1337.8" font-family="Helvetica,sans-Serif" font-size="9.00">+ literal()</text>
<text text-anchor="start" x="487.5" y="-1327.8" font-family="Helvetica,sans-Serif" font-size="9.00">+ literal()</text>
<text text-anchor="start" x="487.5" y="-1317.8" font-family="Helvetica,sans-Serif" font-size="9.00">+ name()</text>
<text text-anchor="start" x="487.5" y="-1307.8" font-family="Helvetica,sans-Serif" font-size="9.00">+ position()</text>
</a>
</g>
</g>
<!-- Node5&#45;&gt;Node4 -->
<g id="edge3" class="edge"><title>Node5&#45;&gt;Node4</title>
<path fill="none" stroke="midnightblue" d="M562,-1290.65C562,-1278.37 562,-1265.38 562,-1253.11"/>
<polygon fill="none" stroke="midnightblue" points="558.5,-1290.77 562,-1300.77 565.5,-1290.77 558.5,-1290.77"/>
</g>
<!-- Node6 -->
<g id="node5" class="node"><title>Node6</title>
<g id="a_node5"><a xlink:href="../../d3/dda/classorg_1_1lightjason_1_1trafficsimulation_1_1simulation_1_1movable_1_1CPedestrian.htm" target="_top" xlink:title="pedestrian class ">
<polygon fill="none" stroke="black" points="275,-133 275,-227 497,-227 497,-133 275,-133"/>
<text text-anchor="start" x="283" y="-215.8" font-family="Helvetica,sans-Serif" font-size="9.00">org.lightjason.trafficsimulation.simulation.movable.</text>
<text text-anchor="middle" x="386" y="-205.8" font-family="Helvetica,sans-Serif" font-size="9.00">CPedestrian</text>
<polyline fill="none" stroke="black" points="275,-199 497,-199 "/>
<text text-anchor="start" x="283" y="-187.8" font-family="Helvetica,sans-Serif" font-size="9.00">&#45; COUNTER</text>
<text text-anchor="start" x="283" y="-177.8" font-family="Helvetica,sans-Serif" font-size="9.00">&#45; FUNCTOR</text>
<text text-anchor="start" x="283" y="-167.8" font-family="Helvetica,sans-Serif" font-size="9.00">&#45; serialVersionUID</text>
<polyline fill="none" stroke="black" points="275,-161 497,-161 "/>
<text text-anchor="start" x="283" y="-149.8" font-family="Helvetica,sans-Serif" font-size="9.00"># individualliteral()</text>
<text text-anchor="start" x="283" y="-139.8" font-family="Helvetica,sans-Serif" font-size="9.00">&#45; CPedestrian()</text>
</a>
</g>
</g>
<!-- Node6&#45;&gt;Node2 -->
<g id="edge4" class="edge"><title>Node6&#45;&gt;Node2</title>
<path fill="none" stroke="#404040" d="M415.014,-132.918C422.528,-120.984 430.67,-108.054 438.356,-95.847"/>
<polygon fill="none" stroke="#404040" points="438.572,-95.5034 438.384,-88.2947 444.966,-85.3486 445.154,-92.5573 438.572,-95.5034"/>
<text text-anchor="middle" x="463" y="-106.8" font-family="Helvetica,sans-Serif" font-size="9.00"> &#45;m_pedestrian</text>
</g>
<!-- Node7 -->
<g id="node6" class="node"><title>Node7</title>
<g id="a_node6"><a xlink:href="../../d5/df4/classorg_1_1lightjason_1_1trafficsimulation_1_1simulation_1_1movable_1_1IBaseMoveable.htm" target="_top" xlink:title="{org.lightjason.trafficsimulation.simulation.movable.\lIBaseMoveable\&lt; CPedestrian \&gt;\n|# GROUP\l&#45; m_route\l&#45; m_speed\l&#45; serialVersionUID\l|+ move()\l+ moveable()\l# IBaseMoveable()\l&#45; cells()\l&#45; goal()\l&#45; route()\l&#45; routeatend()\l&#45; routeatstart()\l&#45; routeestimatedtime()\l&#45; routenext()\l&#45; routeskip()\l}">
<polygon fill="none" stroke="black" points="274,-267 274,-461 496,-461 496,-267 274,-267"/>
<text text-anchor="start" x="282" y="-449.8" font-family="Helvetica,sans-Serif" font-size="9.00">org.lightjason.trafficsimulation.simulation.movable.</text>
<text text-anchor="middle" x="385" y="-439.8" font-family="Helvetica,sans-Serif" font-size="9.00">IBaseMoveable&lt; CPedestrian &gt;</text>
<polyline fill="none" stroke="black" points="274,-433 496,-433 "/>
<text text-anchor="start" x="282" y="-421.8" font-family="Helvetica,sans-Serif" font-size="9.00"># GROUP</text>
<text text-anchor="start" x="282" y="-411.8" font-family="Helvetica,sans-Serif" font-size="9.00">&#45; m_route</text>
<text text-anchor="start" x="282" y="-401.8" font-family="Helvetica,sans-Serif" font-size="9.00">&#45; m_speed</text>
<text text-anchor="start" x="282" y="-391.8" font-family="Helvetica,sans-Serif" font-size="9.00">&#45; serialVersionUID</text>
<polyline fill="none" stroke="black" points="274,-385 496,-385 "/>
<text text-anchor="start" x="282" y="-373.8" font-family="Helvetica,sans-Serif" font-size="9.00">+ move()</text>
<text text-anchor="start" x="282" y="-363.8" font-family="Helvetica,sans-Serif" font-size="9.00">+ moveable()</text>
<text text-anchor="start" x="282" y="-353.8" font-family="Helvetica,sans-Serif" font-size="9.00"># IBaseMoveable()</text>
<text text-anchor="start" x="282" y="-343.8" font-family="Helvetica,sans-Serif" font-size="9.00">&#45; cells()</text>
<text text-anchor="start" x="282" y="-333.8" font-family="Helvetica,sans-Serif" font-size="9.00">&#45; goal()</text>
<text text-anchor="start" x="282" y="-323.8" font-family="Helvetica,sans-Serif" font-size="9.00">&#45; route()</text>
<text text-anchor="start" x="282" y="-313.8" font-family="Helvetica,sans-Serif" font-size="9.00">&#45; routeatend()</text>
<text text-anchor="start" x="282" y="-303.8" font-family="Helvetica,sans-Serif" font-size="9.00">&#45; routeatstart()</text>
<text text-anchor="start" x="282" y="-293.8" font-family="Helvetica,sans-Serif" font-size="9.00">&#45; routeestimatedtime()</text>
<text text-anchor="start" x="282" y="-283.8" font-family="Helvetica,sans-Serif" font-size="9.00">&#45; routenext()</text>
<text text-anchor="start" x="282" y="-273.8" font-family="Helvetica,sans-Serif" font-size="9.00">&#45; routeskip()</text>
</a>
</g>
</g>
<!-- Node7&#45;&gt;Node6 -->
<g id="edge5" class="edge"><title>Node7&#45;&gt;Node6</title>
<path fill="none" stroke="midnightblue" d="M385.583,-256.925C385.64,-246.549 385.695,-236.442 385.746,-227.164"/>
<polygon fill="none" stroke="midnightblue" points="382.083,-256.918 385.528,-266.937 389.083,-256.956 382.083,-256.918"/>
</g>
<!-- Node8 -->
<g id="node7" class="node"><title>Node8</title>
<g id="a_node7"><a xlink:href="../../d5/df4/classorg_1_1lightjason_1_1trafficsimulation_1_1simulation_1_1movable_1_1IBaseMoveable.htm" target="_top" xlink:title="moveable object ">
<polygon fill="none" stroke="black" points="272,-509 272,-703 494,-703 494,-509 272,-509"/>
<text text-anchor="start" x="280" y="-691.8" font-family="Helvetica,sans-Serif" font-size="9.00">org.lightjason.trafficsimulation.simulation.movable.</text>
<text text-anchor="middle" x="383" y="-681.8" font-family="Helvetica,sans-Serif" font-size="9.00">IBaseMoveable&lt; T extends IBaseMoveable&lt;?&gt;</text>
<polyline fill="none" stroke="black" points="272,-675 494,-675 "/>
<text text-anchor="start" x="280" y="-663.8" font-family="Helvetica,sans-Serif" font-size="9.00"># GROUP</text>
<text text-anchor="start" x="280" y="-653.8" font-family="Helvetica,sans-Serif" font-size="9.00">&#45; m_route</text>
<text text-anchor="start" x="280" y="-643.8" font-family="Helvetica,sans-Serif" font-size="9.00">&#45; m_speed</text>
<text text-anchor="start" x="280" y="-633.8" font-family="Helvetica,sans-Serif" font-size="9.00">&#45; serialVersionUID</text>
<polyline fill="none" stroke="black" points="272,-627 494,-627 "/>
<text text-anchor="start" x="280" y="-615.8" font-family="Helvetica,sans-Serif" font-size="9.00">+ move()</text>
<text text-anchor="start" x="280" y="-605.8" font-family="Helvetica,sans-Serif" font-size="9.00">+ moveable()</text>
<text text-anchor="start" x="280" y="-595.8" font-family="Helvetica,sans-Serif" font-size="9.00"># IBaseMoveable()</text>
<text text-anchor="start" x="280" y="-585.8" font-family="Helvetica,sans-Serif" font-size="9.00">&#45; cells()</text>
<text text-anchor="start" x="280" y="-575.8" font-family="Helvetica,sans-Serif" font-size="9.00">&#45; goal()</text>
<text text-anchor="start" x="280" y="-565.8" font-family="Helvetica,sans-Serif" font-size="9.00">&#45; route()</text>
<text text-anchor="start" x="280" y="-555.8" font-family="Helvetica,sans-Serif" font-size="9.00">&#45; routeatend()</text>
<text text-anchor="start" x="280" y="-545.8" font-family="Helvetica,sans-Serif" font-size="9.00">&#45; routeatstart()</text>
<text text-anchor="start" x="280" y="-535.8" font-family="Helvetica,sans-Serif" font-size="9.00">&#45; routeestimatedtime()</text>
<text text-anchor="start" x="280" y="-525.8" font-family="Helvetica,sans-Serif" font-size="9.00">&#45; routenext()</text>
<text text-anchor="start" x="280" y="-515.8" font-family="Helvetica,sans-Serif" font-size="9.00">&#45; routeskip()</text>
</a>
</g>
</g>
<!-- Node8&#45;&gt;Node7 -->
<g id="edge6" class="edge"><title>Node8&#45;&gt;Node7</title>
<path fill="none" stroke="orange" d="M383.888,-498.427C383.991,-486.051 384.096,-473.482 384.198,-461.256"/>
<polygon fill="orange" stroke="orange" points="380.386,-498.737 383.802,-508.766 387.385,-498.795 380.386,-498.737"/>
<text text-anchor="middle" x="418.5" y="-482.8" font-family="Helvetica,sans-Serif" font-size="9.00"> &lt; CPedestrian &gt;</text>
</g>
<!-- Node9&#45;&gt;Node8 -->
<g id="edge7" class="edge"><title>Node9&#45;&gt;Node8</title>
<path fill="none" stroke="midnightblue" d="M383,-906.451C383,-844.726 383,-764.978 383,-703.301"/>
<polygon fill="none" stroke="midnightblue" points="379.5,-906.585 383,-916.585 386.5,-906.585 379.5,-906.585"/>
</g>
<!-- Node10 -->
<g id="node9" class="node"><title>Node10</title>
<g id="a_node9"><a xlink:href="../../d5/dea/interfaceorg_1_1lightjason_1_1trafficsimulation_1_1simulation_1_1IObject.htm" target="_top" xlink:title="{org.lightjason.trafficsimulation.simulation.\lIObject\&lt; T \&gt;\n||+ literal()\l+ literal()\l+ name()\l+ position()\l}">
<polygon fill="none" stroke="black" points="239.5,-1149 239.5,-1243 424.5,-1243 424.5,-1149 239.5,-1149"/>
<text text-anchor="start" x="247.5" y="-1231.8" font-family="Helvetica,sans-Serif" font-size="9.00">org.lightjason.trafficsimulation.simulation.</text>
<text text-anchor="middle" x="332" y="-1221.8" font-family="Helvetica,sans-Serif" font-size="9.00">IObject&lt; T &gt;</text>
<polyline fill="none" stroke="black" points="239.5,-1215 424.5,-1215 "/>
<text text-anchor="middle" x="332" y="-1203.8" font-family="Helvetica,sans-Serif" font-size="9.00"> </text>
<polyline fill="none" stroke="black" points="239.5,-1197 424.5,-1197 "/>
<text text-anchor="start" x="247.5" y="-1185.8" font-family="Helvetica,sans-Serif" font-size="9.00">+ literal()</text>
<text text-anchor="start" x="247.5" y="-1175.8" font-family="Helvetica,sans-Serif" font-size="9.00">+ literal()</text>
<text text-anchor="start" x="247.5" y="-1165.8" font-family="Helvetica,sans-Serif" font-size="9.00">+ name()</text>
<text text-anchor="start" x="247.5" y="-1155.8" font-family="Helvetica,sans-Serif" font-size="9.00">+ position()</text>
</a>
</g>
</g>
<!-- Node10&#45;&gt;Node9 -->
<g id="edge8" class="edge"><title>Node10&#45;&gt;Node9</title>
<path fill="none" stroke="midnightblue" d="M347.174,-1138.47C351.175,-1123.56 355.584,-1107.14 359.9,-1091.06"/>
<polygon fill="none" stroke="midnightblue" points="343.688,-1137.96 344.476,-1148.52 350.449,-1139.77 343.688,-1137.96"/>
</g>
<!-- Node11 -->
<g id="node10" class="node"><title>Node11</title>
<g id="a_node10"><a xlink:href="../../d5/dea/interfaceorg_1_1lightjason_1_1trafficsimulation_1_1simulation_1_1IObject.htm" target="_top" xlink:title="object interface ">
<polygon fill="none" stroke="black" points="239.5,-1301 239.5,-1395 424.5,-1395 424.5,-1301 239.5,-1301"/>
<text text-anchor="start" x="247.5" y="-1383.8" font-family="Helvetica,sans-Serif" font-size="9.00">org.lightjason.trafficsimulation.simulation.</text>
<text text-anchor="middle" x="332" y="-1373.8" font-family="Helvetica,sans-Serif" font-size="9.00">IObject&lt; T extends IAgent&lt;?&gt;</text>
<polyline fill="none" stroke="black" points="239.5,-1367 424.5,-1367 "/>
<text text-anchor="middle" x="332" y="-1355.8" font-family="Helvetica,sans-Serif" font-size="9.00"> </text>
<polyline fill="none" stroke="black" points="239.5,-1349 424.5,-1349 "/>
<text text-anchor="start" x="247.5" y="-1337.8" font-family="Helvetica,sans-Serif" font-size="9.00">+ literal()</text>
<text text-anchor="start" x="247.5" y="-1327.8" font-family="Helvetica,sans-Serif" font-size="9.00">+ literal()</text>
<text text-anchor="start" x="247.5" y="-1317.8" font-family="Helvetica,sans-Serif" font-size="9.00">+ name()</text>
<text text-anchor="start" x="247.5" y="-1307.8" font-family="Helvetica,sans-Serif" font-size="9.00">+ position()</text>
</a>
</g>
</g>
<!-- Node11&#45;&gt;Node10 -->
<g id="edge9" class="edge"><title>Node11&#45;&gt;Node10</title>
<path fill="none" stroke="orange" d="M332,-1290.66C332,-1274.96 332,-1258.1 332,-1243.08"/>
<polygon fill="orange" stroke="orange" points="328.5,-1290.77 332,-1300.77 335.5,-1290.77 328.5,-1290.77"/>
<text text-anchor="middle" x="343.5" y="-1274.8" font-family="Helvetica,sans-Serif" font-size="9.00"> &lt; T &gt;</text>
</g>
<!-- Node12 -->
<g id="node11" class="node"><title>Node12</title>
<g id="a_node11"><a xlink:href="../../d6/d59/interfaceorg_1_1lightjason_1_1trafficsimulation_1_1simulation_1_1movable_1_1IMoveable.htm" target="_top" xlink:title="{org.lightjason.trafficsimulation.simulation.movable.\lIMoveable\&lt; T \&gt;\n||+ move()\l+ moveable()\l}">
<polygon fill="none" stroke="black" points="55,-967 55,-1041 277,-1041 277,-967 55,-967"/>
<text text-anchor="start" x="63" y="-1029.8" font-family="Helvetica,sans-Serif" font-size="9.00">org.lightjason.trafficsimulation.simulation.movable.</text>
<text text-anchor="middle" x="166" y="-1019.8" font-family="Helvetica,sans-Serif" font-size="9.00">IMoveable&lt; T &gt;</text>
<polyline fill="none" stroke="black" points="55,-1013 277,-1013 "/>
<text text-anchor="middle" x="166" y="-1001.8" font-family="Helvetica,sans-Serif" font-size="9.00"> </text>
<polyline fill="none" stroke="black" points="55,-995 277,-995 "/>
<text text-anchor="start" x="63" y="-983.8" font-family="Helvetica,sans-Serif" font-size="9.00">+ move()</text>
<text text-anchor="start" x="63" y="-973.8" font-family="Helvetica,sans-Serif" font-size="9.00">+ moveable()</text>
</a>
</g>
</g>
<!-- Node12&#45;&gt;Node8 -->
<g id="edge11" class="edge"><title>Node12&#45;&gt;Node8</title>
<path fill="none" stroke="midnightblue" d="M190.814,-957.718C224.612,-896.039 285.98,-784.05 330.292,-703.186"/>
<polygon fill="none" stroke="midnightblue" points="187.569,-956.356 185.833,-966.808 193.708,-959.72 187.569,-956.356"/>
</g>
<!-- Node13 -->
<g id="node12" class="node"><title>Node13</title>
<g id="a_node12"><a xlink:href="../../d6/d59/interfaceorg_1_1lightjason_1_1trafficsimulation_1_1simulation_1_1movable_1_1IMoveable.htm" target="_top" xlink:title="moveable interface ">
<polygon fill="none" stroke="black" points="0,-1159 0,-1233 222,-1233 222,-1159 0,-1159"/>
<text text-anchor="start" x="8" y="-1221.8" font-family="Helvetica,sans-Serif" font-size="9.00">org.lightjason.trafficsimulation.simulation.movable.</text>
<text text-anchor="middle" x="111" y="-1211.8" font-family="Helvetica,sans-Serif" font-size="9.00">IMoveable&lt; T extends IMoveable&lt;?&gt;</text>
<polyline fill="none" stroke="black" points="0,-1205 222,-1205 "/>
<text text-anchor="middle" x="111" y="-1193.8" font-family="Helvetica,sans-Serif" font-size="9.00"> </text>
<polyline fill="none" stroke="black" points="0,-1187 222,-1187 "/>
<text text-anchor="start" x="8" y="-1175.8" font-family="Helvetica,sans-Serif" font-size="9.00">+ move()</text>
<text text-anchor="start" x="8" y="-1165.8" font-family="Helvetica,sans-Serif" font-size="9.00">+ moveable()</text>
</a>
</g>
</g>
<!-- Node13&#45;&gt;Node12 -->
<g id="edge12" class="edge"><title>Node13&#45;&gt;Node12</title>
<path fill="none" stroke="orange" d="M124.344,-1148.9C133.944,-1115.74 146.707,-1071.65 155.564,-1041.05"/>
<polygon fill="orange" stroke="orange" points="120.893,-1148.24 121.475,-1158.82 127.617,-1150.18 120.893,-1148.24"/>
<text text-anchor="middle" x="147.5" y="-1112.8" font-family="Helvetica,sans-Serif" font-size="9.00"> &lt; T &gt;</text>
</g>
<!-- Node14 -->
<g id="node13" class="node"><title>Node14</title>
<g id="a_node13"><a xlink:href="../../d5/dea/interfaceorg_1_1lightjason_1_1trafficsimulation_1_1simulation_1_1IObject.htm" target="_top" xlink:title="object interface ">
<polygon fill="none" stroke="black" points="39.5,-1301 39.5,-1395 182.5,-1395 182.5,-1301 39.5,-1301"/>
<text text-anchor="start" x="47.5" y="-1383.8" font-family="Helvetica,sans-Serif" font-size="9.00">org::lightjason::trafficsimulation</text>
<text text-anchor="middle" x="111" y="-1373.8" font-family="Helvetica,sans-Serif" font-size="9.00">::simulation::IObject&lt; T &gt;</text>
<polyline fill="none" stroke="black" points="39.5,-1367 182.5,-1367 "/>
<text text-anchor="middle" x="111" y="-1355.8" font-family="Helvetica,sans-Serif" font-size="9.00"> </text>
<polyline fill="none" stroke="black" points="39.5,-1349 182.5,-1349 "/>
<text text-anchor="start" x="47.5" y="-1337.8" font-family="Helvetica,sans-Serif" font-size="9.00">+ literal()</text>
<text text-anchor="start" x="47.5" y="-1327.8" font-family="Helvetica,sans-Serif" font-size="9.00">+ literal()</text>
<text text-anchor="start" x="47.5" y="-1317.8" font-family="Helvetica,sans-Serif" font-size="9.00">+ name()</text>
<text text-anchor="start" x="47.5" y="-1307.8" font-family="Helvetica,sans-Serif" font-size="9.00">+ position()</text>
</a>
</g>
</g>
<!-- Node14&#45;&gt;Node13 -->
<g id="edge13" class="edge"><title>Node14&#45;&gt;Node13</title>
<path fill="none" stroke="midnightblue" d="M111,-1290.63C111,-1271.44 111,-1250.51 111,-1233.32"/>
<polygon fill="none" stroke="midnightblue" points="107.5,-1290.77 111,-1300.77 114.5,-1290.77 107.5,-1290.77"/>
</g>
</g>
</svg>
        <g id="navigator" transform="translate(0 0)" fill="#404254">
                <rect fill="#f2f5e9" fill-opacity="0.5" stroke="#606060" stroke-width=".5" x="0" y="0" width="60" height="60"/>
                <use id="zoomplus" xlink:href="#zoomPlus" x="17" y="9" onmousedown="handleZoom(evt,'in')"/>
                <use id="zoomminus" xlink:href="#zoomMin" x="42" y="9" onmousedown="handleZoom(evt,'out')"/>
                <use id="reset" xlink:href="#resetDef" x="30" y="36" onmousedown="handleReset()"/>
                <g id="arrowUp" xlink:href="#dirArrow" transform="translate(30 24)" onmousedown="handlePan(0,-1)">
                  <use xlink:href="#rim" fill="#404040">
                        <set attributeName="fill" to="#808080" begin="arrowUp.mouseover" end="arrowUp.mouseout"/>
                  </use>
                  <path fill="none" stroke="white" stroke-width="1.5" d="M0,-3.0v7 M-2.5,-0.5L0,-3.0L2.5,-0.5"/>
                </g>
                <g id="arrowRight" xlink:href="#dirArrow" transform="rotate(90) translate(36 -43)" onmousedown="handlePan(1,0)">
                  <use xlink:href="#rim" fill="#404040">
                        <set attributeName="fill" to="#808080" begin="arrowRight.mouseover" end="arrowRight.mouseout"/>
                  </use>
                  <path fill="none" stroke="white" stroke-width="1.5" d="M0,-3.0v7 M-2.5,-0.5L0,-3.0L2.5,-0.5"/>
                </g>
                <g id="arrowDown" xlink:href="#dirArrow" transform="rotate(180) translate(-30 -48)" onmousedown="handlePan(0,1)">
                  <use xlink:href="#rim" fill="#404040">
                        <set attributeName="fill" to="#808080" begin="arrowDown.mouseover" end="arrowDown.mouseout"/>
                  </use>
                  <path fill="none" stroke="white" stroke-width="1.5" d="M0,-3.0v7 M-2.5,-0.5L0,-3.0L2.5,-0.5"/>
                </g>
                <g id="arrowLeft" xlink:href="#dirArrow" transform="rotate(270) translate(-36 17)" onmousedown="handlePan(-1,0)">
                  <use xlink:href="#rim" fill="#404040">
                        <set attributeName="fill" to="#808080" begin="arrowLeft.mouseover" end="arrowLeft.mouseout"/>
                  </use>
                  <path fill="none" stroke="white" stroke-width="1.5" d="M0,-3.0v7 M-2.5,-0.5L0,-3.0L2.5,-0.5"/>
                </g>
        </g>
        <svg viewBox="0 0 15 15" width="100%" height="30px" preserveAspectRatio="xMaxYMin meet">
         <g id="arrow_out" transform="scale(0.3 0.3)">
          <a xlink:href="classorg_1_1lightjason_1_1trafficsimulation_1_1simulation_1_1movable_1_1TestCPedestrian__coll__graph_org.svg" target="_base">
           <rect id="button" ry="5" rx="5" y="6" x="6" height="38" width="38"
                fill="#f2f5e9" fill-opacity="0.5" stroke="#606060" stroke-width="1.0"/>
           <path id="arrow"
             d="M 11.500037,31.436501 C 11.940474,20.09759 22.043105,11.32322 32.158766,21.979434 L 37.068811,17.246167 C 37.068811,17.246167 37.088388,32 37.088388,32 L 22.160133,31.978069 C 22.160133,31.978069 26.997745,27.140456 26.997745,27.140456 C 18.528582,18.264221 13.291696,25.230495 11.500037,31.436501 z"
             style="fill:#404040;"/>
          </a>
         </g>
        </svg>
</svg>
