<?xml version="1.0" encoding="UTF-8" standalone="no"?>
<!DOCTYPE svg PUBLIC "-//W3C//DTD SVG 1.1//EN"
 "http://www.w3.org/Graphics/SVG/1.1/DTD/svg11.dtd">
<!-- Generated by graphviz version 2.36.0 (20140111.2315)
 -->
<!-- Title: org.lightjason.trafficsimulation.CMain.main Pages: 1 -->
<!--zoomable 177 -->
<svg id="main" version="1.1" xmlns="http://www.w3.org/2000/svg" xmlns:xlink="http://www.w3.org/1999/xlink" xml:space="preserve" onload="init(evt)">
<style type="text/css"><![CDATA[
.edge:hover path { stroke: red; }
.edge:hover polygon { stroke: red; fill: red; }
]]></style>
<script type="text/javascript"><![CDATA[
var edges = document.getElementsByTagName('g');
if (edges && edges.length) {
  for (var i=0;i<edges.length;i++) {
    if (edges[i].id.substr(0,4)=='edge') {
      edges[i].setAttribute('class','edge');
    }
  }
}
]]></script>
        <defs>
                <circle id="rim" cx="0" cy="0" r="7"/>
                <circle id="rim2" cx="0" cy="0" r="3.5"/>
                <g id="zoomPlus">
                        <use xlink:href="#rim" fill="#404040">
                                <set attributeName="fill" to="#808080" begin="zoomplus.mouseover" end="zoomplus.mouseout"/>
                        </use>
                        <path d="M-4,0h8M0,-4v8" fill="none" stroke="white" stroke-width="1.5" pointer-events="none"/>
                </g>
                <g id="zoomMin">
                        <use xlink:href="#rim" fill="#404040">
                                <set attributeName="fill" to="#808080" begin="zoomminus.mouseover" end="zoomminus.mouseout"/>
                        </use>
                        <path d="M-4,0h8" fill="none" stroke="white" stroke-width="1.5" pointer-events="none"/>
                </g>
                <g id="dirArrow">
                        <path fill="none" stroke="white" stroke-width="1.5" d="M0,-3.0v7 M-2.5,-0.5L0,-3.0L2.5,-0.5"/>
                </g>
               <g id="resetDef">
                       <use xlink:href="#rim2" fill="#404040">
                               <set attributeName="fill" to="#808080" begin="reset.mouseover" end="reset.mouseout"/>
                       </use>
               </g>
        </defs>

<script type="text/javascript">
var viewWidth = 510;
var viewHeight = 177;
var sectionId = 'dynsection-1';
</script>
<script xlink:href="../../svgpan.js"/>
<svg id="graph" class="graph">
<g id="viewport">
<title>org.lightjason.trafficsimulation.CMain.main</title>
<!-- Node4 -->
<g id="node1" class="node"><title>Node4</title>
<polygon fill="#bfbfbf" stroke="black" points="0,-70 0,-98 140,-98 140,-70 0,-70"/>
<text text-anchor="start" x="8" y="-86.8" font-family="Helvetica,sans-Serif" font-size="9.00">org.lightjason.trafficsimulation.</text>
<text text-anchor="middle" x="70" y="-76.8" font-family="Helvetica,sans-Serif" font-size="9.00">CMain.main</text>
</g>
<!-- Node5 -->
<g id="node2" class="node"><title>Node5</title>
<g id="a_node2"><a xlink:href="../../df/df4/classorg_1_1lightjason_1_1trafficsimulation_1_1CConfiguration.htm#aa3c4364f969782e9b41bd738175d09d0" target="_top" xlink:title="creates the default configuration ">
<polygon fill="none" stroke="black" points="181,-141 181,-169 321,-169 321,-141 181,-141"/>
<text text-anchor="start" x="189" y="-157.8" font-family="Helvetica,sans-Serif" font-size="9.00">org.lightjason.trafficsimulation.</text>
<text text-anchor="middle" x="251" y="-147.8" font-family="Helvetica,sans-Serif" font-size="9.00">CConfiguration.createdefault</text>
</a>
</g>
</g>
<!-- Node4&#45;&gt;Node5 -->
<g id="edge1" class="edge"><title>Node4&#45;&gt;Node5</title>
<path fill="none" stroke="midnightblue" d="M100.064,-98.0211C120.948,-107.846 149.904,-120.961 176,-131 181.873,-133.259 188.06,-135.491 194.252,-137.631"/>
<polygon fill="midnightblue" stroke="midnightblue" points="193.346,-141.02 203.941,-140.908 195.589,-134.389 193.346,-141.02"/>
</g>
<!-- Node6 -->
<g id="node3" class="node"><title>Node6</title>
<g id="a_node3"><a xlink:href="../../d9/d27/classorg_1_1lightjason_1_1trafficsimulation_1_1ui_1_1CHTTPServer.htm#a49de85360d651b577ba06723831e2f9e" target="_top" xlink:title="execute the server instance ">
<polygon fill="none" stroke="black" points="176,-94 176,-122 326,-122 326,-94 176,-94"/>
<text text-anchor="start" x="184" y="-110.8" font-family="Helvetica,sans-Serif" font-size="9.00">org.lightjason.trafficsimulation.ui.</text>
<text text-anchor="middle" x="251" y="-100.8" font-family="Helvetica,sans-Serif" font-size="9.00">CHTTPServer.execute</text>
</a>
</g>
</g>
<!-- Node4&#45;&gt;Node6 -->
<g id="edge2" class="edge"><title>Node4&#45;&gt;Node6</title>
<path fill="none" stroke="midnightblue" d="M140.206,-93.279C148.621,-94.4072 157.288,-95.5693 165.888,-96.7225"/>
<polygon fill="midnightblue" stroke="midnightblue" points="165.559,-100.209 175.935,-98.0695 166.489,-93.2716 165.559,-100.209"/>
</g>
<!-- Node7 -->
<g id="node4" class="node"><title>Node7</title>
<g id="a_node4"><a xlink:href="../../d9/d27/classorg_1_1lightjason_1_1trafficsimulation_1_1ui_1_1CHTTPServer.htm#a35eb3105635afd0234ccc85078ba548a" target="_top" xlink:title="run initialize without start&#45;up of the server ">
<polygon fill="none" stroke="black" points="176,-47 176,-75 326,-75 326,-47 176,-47"/>
<text text-anchor="start" x="184" y="-63.8" font-family="Helvetica,sans-Serif" font-size="9.00">org.lightjason.trafficsimulation.ui.</text>
<text text-anchor="middle" x="251" y="-53.8" font-family="Helvetica,sans-Serif" font-size="9.00">CHTTPServer.initialize</text>
</a>
</g>
</g>
<!-- Node4&#45;&gt;Node7 -->
<g id="edge3" class="edge"><title>Node4&#45;&gt;Node7</title>
<path fill="none" stroke="midnightblue" d="M140.206,-75.1076C148.621,-74.0264 157.288,-72.9127 165.888,-71.8076"/>
<polygon fill="midnightblue" stroke="midnightblue" points="166.463,-75.2627 175.935,-70.5167 165.571,-68.3198 166.463,-75.2627"/>
</g>
<!-- Node8 -->
<g id="node5" class="node"><title>Node8</title>
<g id="a_node5"><a xlink:href="../../df/df4/classorg_1_1lightjason_1_1trafficsimulation_1_1CConfiguration.htm#aca440795cab5c2fe246ffb7edc27d43d" target="_top" xlink:title="loads the configuration ">
<polygon fill="none" stroke="black" points="181,-0 181,-28 321,-28 321,-0 181,-0"/>
<text text-anchor="start" x="189" y="-16.8" font-family="Helvetica,sans-Serif" font-size="9.00">org.lightjason.trafficsimulation.</text>
<text text-anchor="middle" x="251" y="-6.8" font-family="Helvetica,sans-Serif" font-size="9.00">CConfiguration.loadfile</text>
</a>
</g>
</g>
<!-- Node4&#45;&gt;Node8 -->
<g id="edge4" class="edge"><title>Node4&#45;&gt;Node8</title>
<path fill="none" stroke="midnightblue" d="M100.997,-69.9101C121.822,-60.3635 150.328,-47.7589 176,-38 181.965,-35.7324 188.249,-33.4843 194.531,-31.3258"/>
<polygon fill="midnightblue" stroke="midnightblue" points="195.995,-34.526 204.355,-28.0175 193.761,-27.892 195.995,-34.526"/>
</g>
<!-- Node9 -->
<g id="node6" class="node"><title>Node9</title>
<g id="a_node6"><a xlink:href="../../df/df4/classorg_1_1lightjason_1_1trafficsimulation_1_1CConfiguration.htm#a102a5d6124bbf608128f89c4260e1ef9" target="_top" xlink:title="set default path ">
<polygon fill="none" stroke="black" points="362,-0 362,-28 502,-28 502,-0 362,-0"/>
<text text-anchor="start" x="370" y="-16.8" font-family="Helvetica,sans-Serif" font-size="9.00">org.lightjason.trafficsimulation.</text>
<text text-anchor="middle" x="432" y="-6.8" font-family="Helvetica,sans-Serif" font-size="9.00">CConfiguration.orDefaultPath</text>
</a>
</g>
</g>
<!-- Node8&#45;&gt;Node9 -->
<g id="edge5" class="edge"><title>Node8&#45;&gt;Node9</title>
<path fill="none" stroke="midnightblue" d="M321.206,-14C331.241,-14 341.635,-14 351.847,-14"/>
<polygon fill="midnightblue" stroke="midnightblue" points="351.978,-17.5001 361.978,-14 351.978,-10.5001 351.978,-17.5001"/>
</g>
</g>
</svg>
        <g id="navigator" transform="translate(0 0)" fill="#404254">
                <rect fill="#f2f5e9" fill-opacity="0.5" stroke="#606060" stroke-width=".5" x="0" y="0" width="60" height="60"/>
                <use id="zoomplus" xlink:href="#zoomPlus" x="17" y="9" onmousedown="handleZoom(evt,'in')"/>
                <use id="zoomminus" xlink:href="#zoomMin" x="42" y="9" onmousedown="handleZoom(evt,'out')"/>
                <use id="reset" xlink:href="#resetDef" x="30" y="36" onmousedown="handleReset()"/>
                <g id="arrowUp" xlink:href="#dirArrow" transform="translate(30 24)" onmousedown="handlePan(0,-1)">
                  <use xlink:href="#rim" fill="#404040">
                        <set attributeName="fill" to="#808080" begin="arrowUp.mouseover" end="arrowUp.mouseout"/>
                  </use>
                  <path fill="none" stroke="white" stroke-width="1.5" d="M0,-3.0v7 M-2.5,-0.5L0,-3.0L2.5,-0.5"/>
                </g>
                <g id="arrowRight" xlink:href="#dirArrow" transform="rotate(90) translate(36 -43)" onmousedown="handlePan(1,0)">
                  <use xlink:href="#rim" fill="#404040">
                        <set attributeName="fill" to="#808080" begin="arrowRight.mouseover" end="arrowRight.mouseout"/>
                  </use>
                  <path fill="none" stroke="white" stroke-width="1.5" d="M0,-3.0v7 M-2.5,-0.5L0,-3.0L2.5,-0.5"/>
                </g>
                <g id="arrowDown" xlink:href="#dirArrow" transform="rotate(180) translate(-30 -48)" onmousedown="handlePan(0,1)">
                  <use xlink:href="#rim" fill="#404040">
                        <set attributeName="fill" to="#808080" begin="arrowDown.mouseover" end="arrowDown.mouseout"/>
                  </use>
                  <path fill="none" stroke="white" stroke-width="1.5" d="M0,-3.0v7 M-2.5,-0.5L0,-3.0L2.5,-0.5"/>
                </g>
                <g id="arrowLeft" xlink:href="#dirArrow" transform="rotate(270) translate(-36 17)" onmousedown="handlePan(-1,0)">
                  <use xlink:href="#rim" fill="#404040">
                        <set attributeName="fill" to="#808080" begin="arrowLeft.mouseover" end="arrowLeft.mouseout"/>
                  </use>
                  <path fill="none" stroke="white" stroke-width="1.5" d="M0,-3.0v7 M-2.5,-0.5L0,-3.0L2.5,-0.5"/>
                </g>
        </g>
        <svg viewBox="0 0 15 15" width="100%" height="30px" preserveAspectRatio="xMaxYMin meet">
         <g id="arrow_out" transform="scale(0.3 0.3)">
          <a xlink:href="classorg_1_1lightjason_1_1trafficsimulation_1_1CMain_aaf6bdcdd91dd49017270a959901d8ec3_cgraph_org.svg" target="_base">
           <rect id="button" ry="5" rx="5" y="6" x="6" height="38" width="38"
                fill="#f2f5e9" fill-opacity="0.5" stroke="#606060" stroke-width="1.0"/>
           <path id="arrow"
             d="M 11.500037,31.436501 C 11.940474,20.09759 22.043105,11.32322 32.158766,21.979434 L 37.068811,17.246167 C 37.068811,17.246167 37.088388,32 37.088388,32 L 22.160133,31.978069 C 22.160133,31.978069 26.997745,27.140456 26.997745,27.140456 C 18.528582,18.264221 13.291696,25.230495 11.500037,31.436501 z"
             style="fill:#404040;"/>
          </a>
         </g>
        </svg>
</svg>
