<?xml version="1.0" encoding="UTF-8" standalone="no"?>
<!DOCTYPE svg PUBLIC "-//W3C//DTD SVG 1.1//EN"
 "http://www.w3.org/Graphics/SVG/1.1/DTD/svg11.dtd">
<!-- Generated by graphviz version 2.36.0 (20140111.2315)
 -->
<!-- Title: org.lightjason.trafficsimulation.IBaseViewTest Pages: 1 -->
<svg width="246pt" height="594pt"
 viewBox="0.00 0.00 246.00 594.00" xmlns="http://www.w3.org/2000/svg" xmlns:xlink="http://www.w3.org/1999/xlink">
<g id="graph0" class="graph" transform="scale(1 1) rotate(0) translate(4 590)">
<title>org.lightjason.trafficsimulation.IBaseViewTest</title>
<!-- Node3 -->
<g id="node1" class="node"><title>Node3</title>
<polygon fill="#bfbfbf" stroke="black" points="49,-1 49,-75 189,-75 189,-1 49,-1"/>
<text text-anchor="start" x="57" y="-63.8" font-family="Helvetica,sans-Serif" font-size="9.00">org.lightjason.trafficsimulation.</text>
<text text-anchor="middle" x="119" y="-53.8" font-family="Helvetica,sans-Serif" font-size="9.00">IBaseViewTest</text>
<polyline fill="none" stroke="black" points="49,-47 189,-47 "/>
<text text-anchor="middle" x="119" y="-35.8" font-family="Helvetica,sans-Serif" font-size="9.00"> </text>
<polyline fill="none" stroke="black" points="49,-29 189,-29 "/>
<text text-anchor="start" x="57" y="-17.8" font-family="Helvetica,sans-Serif" font-size="9.00"># screen()</text>
<text text-anchor="start" x="57" y="-7.8" font-family="Helvetica,sans-Serif" font-size="9.00"># screen()</text>
</g>
<!-- Node4 -->
<g id="node2" class="node"><title>Node4</title>
<g id="a_node2"><a xlink:href="../../dd/d4d/classorg_1_1lightjason_1_1trafficsimulation_1_1IBaseTest.htm" target="_top" xlink:title="base test ">
<polygon fill="none" stroke="black" points="49,-115 49,-289 189,-289 189,-115 49,-115"/>
<text text-anchor="start" x="57" y="-277.8" font-family="Helvetica,sans-Serif" font-size="9.00">org.lightjason.trafficsimulation.</text>
<text text-anchor="middle" x="119" y="-267.8" font-family="Helvetica,sans-Serif" font-size="9.00">IBaseTest</text>
<polyline fill="none" stroke="black" points="49,-261 189,-261 "/>
<text text-anchor="start" x="57" y="-249.8" font-family="Helvetica,sans-Serif" font-size="9.00">&#45; m_actions</text>
<text text-anchor="start" x="57" y="-239.8" font-family="Helvetica,sans-Serif" font-size="9.00">&#45; m_agents</text>
<polyline fill="none" stroke="black" points="49,-233 189,-233 "/>
<text text-anchor="start" x="57" y="-221.8" font-family="Helvetica,sans-Serif" font-size="9.00">+ loadconfiguration()</text>
<text text-anchor="start" x="57" y="-211.8" font-family="Helvetica,sans-Serif" font-size="9.00">~ [static initializer]()</text>
<text text-anchor="start" x="57" y="-201.8" font-family="Helvetica,sans-Serif" font-size="9.00"># generate()</text>
<text text-anchor="start" x="57" y="-191.8" font-family="Helvetica,sans-Serif" font-size="9.00"># generatemultiple()</text>
<text text-anchor="start" x="57" y="-181.8" font-family="Helvetica,sans-Serif" font-size="9.00"># initializeenvironment()</text>
<text text-anchor="start" x="57" y="-171.8" font-family="Helvetica,sans-Serif" font-size="9.00"># invoketest()</text>
<text text-anchor="start" x="57" y="-161.8" font-family="Helvetica,sans-Serif" font-size="9.00"># executeagent()</text>
<text text-anchor="start" x="57" y="-151.8" font-family="Helvetica,sans-Serif" font-size="9.00"># executeagent()</text>
<text text-anchor="start" x="57" y="-141.8" font-family="Helvetica,sans-Serif" font-size="9.00">&#45; before()</text>
<text text-anchor="start" x="57" y="-131.8" font-family="Helvetica,sans-Serif" font-size="9.00">&#45; execute()</text>
<text text-anchor="start" x="57" y="-121.8" font-family="Helvetica,sans-Serif" font-size="9.00">&#45; invoke()</text>
</a>
</g>
</g>
<!-- Node4&#45;&gt;Node3 -->
<g id="edge1" class="edge"><title>Node4&#45;&gt;Node3</title>
<path fill="none" stroke="midnightblue" d="M119,-104.74C119,-94.3528 119,-84.3127 119,-75.337"/>
<polygon fill="none" stroke="midnightblue" points="115.5,-104.782 119,-114.783 122.5,-104.783 115.5,-104.782"/>
</g>
<!-- Node5 -->
<g id="node3" class="node"><title>Node5</title>
<g id="a_node3"><a xlink:href="../../d5/d10/interfaceorg_1_1lightjason_1_1trafficsimulation_1_1simulation_1_1environment_1_1IEnvironment.htm" target="_top" xlink:title="environment interface ">
<polygon fill="none" stroke="black" points="0,-337 0,-451 238,-451 238,-337 0,-337"/>
<text text-anchor="start" x="8" y="-439.8" font-family="Helvetica,sans-Serif" font-size="9.00">org.lightjason.trafficsimulation.simulation.environment.</text>
<text text-anchor="middle" x="119" y="-429.8" font-family="Helvetica,sans-Serif" font-size="9.00">IEnvironment</text>
<polyline fill="none" stroke="black" points="0,-423 238,-423 "/>
<text text-anchor="middle" x="119" y="-411.8" font-family="Helvetica,sans-Serif" font-size="9.00"> </text>
<polyline fill="none" stroke="black" points="0,-405 238,-405 "/>
<text text-anchor="start" x="8" y="-393.8" font-family="Helvetica,sans-Serif" font-size="9.00">+ empty()</text>
<text text-anchor="start" x="8" y="-383.8" font-family="Helvetica,sans-Serif" font-size="9.00">+ get()</text>
<text text-anchor="start" x="8" y="-373.8" font-family="Helvetica,sans-Serif" font-size="9.00">+ move()</text>
<text text-anchor="start" x="8" y="-363.8" font-family="Helvetica,sans-Serif" font-size="9.00">+ remove()</text>
<text text-anchor="start" x="8" y="-353.8" font-family="Helvetica,sans-Serif" font-size="9.00">+ route()</text>
<text text-anchor="start" x="8" y="-343.8" font-family="Helvetica,sans-Serif" font-size="9.00">+ routestimatedtime()</text>
</a>
</g>
</g>
<!-- Node5&#45;&gt;Node4 -->
<g id="edge2" class="edge"><title>Node5&#45;&gt;Node4</title>
<path fill="none" stroke="#404040" d="M119,-336.765C119,-325.521 119,-313.403 119,-301.215"/>
<polygon fill="none" stroke="#404040" points="119,-301.032 115,-295.032 119,-289.032 123,-295.032 119,-301.032"/>
<text text-anchor="middle" x="155" y="-310.8" font-family="Helvetica,sans-Serif" font-size="9.00"> #m_environment</text>
</g>
<!-- Node6 -->
<g id="node4" class="node"><title>Node6</title>
<g id="a_node4"><a xlink:href="../../d5/dea/interfaceorg_1_1lightjason_1_1trafficsimulation_1_1simulation_1_1IObject.htm" target="_top" xlink:title="object interface ">
<polygon fill="none" stroke="black" points="36.5,-491 36.5,-585 201.5,-585 201.5,-491 36.5,-491"/>
<text text-anchor="start" x="44.5" y="-573.8" font-family="Helvetica,sans-Serif" font-size="9.00">org::lightjason::trafficsimulation</text>
<text text-anchor="middle" x="119" y="-563.8" font-family="Helvetica,sans-Serif" font-size="9.00">::simulation::IObject&lt; IEnvironment &gt;</text>
<polyline fill="none" stroke="black" points="36.5,-557 201.5,-557 "/>
<text text-anchor="middle" x="119" y="-545.8" font-family="Helvetica,sans-Serif" font-size="9.00"> </text>
<polyline fill="none" stroke="black" points="36.5,-539 201.5,-539 "/>
<text text-anchor="start" x="44.5" y="-527.8" font-family="Helvetica,sans-Serif" font-size="9.00">+ literal()</text>
<text text-anchor="start" x="44.5" y="-517.8" font-family="Helvetica,sans-Serif" font-size="9.00">+ literal()</text>
<text text-anchor="start" x="44.5" y="-507.8" font-family="Helvetica,sans-Serif" font-size="9.00">+ name()</text>
<text text-anchor="start" x="44.5" y="-497.8" font-family="Helvetica,sans-Serif" font-size="9.00">+ position()</text>
</a>
</g>
</g>
<!-- Node6&#45;&gt;Node5 -->
<g id="edge3" class="edge"><title>Node6&#45;&gt;Node5</title>
<path fill="none" stroke="midnightblue" d="M119,-480.853C119,-471.046 119,-460.843 119,-451.039"/>
<polygon fill="none" stroke="midnightblue" points="115.5,-480.897 119,-490.897 122.5,-480.897 115.5,-480.897"/>
</g>
</g>
</svg>
