<?xml version="1.0" encoding="UTF-8" standalone="no"?>
<!DOCTYPE svg PUBLIC "-//W3C//DTD SVG 1.1//EN"
 "http://www.w3.org/Graphics/SVG/1.1/DTD/svg11.dtd">
<!-- Generated by graphviz version 2.36.0 (20140111.2315)
 -->
<!-- Title: Graphical Class Hierarchy Pages: 1 -->
<svg width="394pt" height="160pt"
 viewBox="0.00 0.00 394.00 160.00" xmlns="http://www.w3.org/2000/svg" xmlns:xlink="http://www.w3.org/1999/xlink">
<g id="graph0" class="graph" transform="scale(1 1) rotate(0) translate(4 156)">
<title>Graphical Class Hierarchy</title>
<!-- Node49 -->
<g id="node1" class="node"><title>Node49</title>
<polygon fill="none" stroke="#bfbfbf" points="0.5,-62 0.5,-80 81.5,-80 81.5,-62 0.5,-62"/>
<text text-anchor="middle" x="41" y="-68.8" font-family="Helvetica,sans-Serif" font-size="9.00">IBaseGenerator</text>
</g>
<!-- Node0 -->
<g id="node2" class="node"><title>Node0</title>
<g id="a_node2"><a xlink:href="d7/d2f/classorg_1_1lightjason_1_1trafficsimulation_1_1simulation_1_1movable_1_1IBaseMoveable_1_1IGenerator.htm" target="_top" xlink:title="generator ">
<polygon fill="none" stroke="black" points="141,-114 141,-152 363,-152 363,-114 141,-114"/>
<text text-anchor="start" x="149" y="-140.8" font-family="Helvetica,sans-Serif" font-size="9.00">org.lightjason.trafficsimulation.simulation.movable.</text>
<text text-anchor="start" x="149" y="-130.8" font-family="Helvetica,sans-Serif" font-size="9.00">IBaseMoveable&lt; T extends IBaseMoveable</text>
<text text-anchor="middle" x="252" y="-120.8" font-family="Helvetica,sans-Serif" font-size="9.00">&lt;?&gt;.IGenerator&lt; T extends IMoveable&lt;?&gt;</text>
</a>
</g>
</g>
<!-- Node49&#45;&gt;Node0 -->
<g id="edge1" class="edge"><title>Node49&#45;&gt;Node0</title>
<path fill="none" stroke="midnightblue" d="M69.2729,-84.3823C83.5328,-90.9819 101.427,-98.6517 118,-104 129.245,-107.629 141.171,-110.947 153.084,-113.936"/>
<polygon fill="midnightblue" stroke="midnightblue" points="70.5796,-81.1288 60.0423,-80.026 67.592,-87.4593 70.5796,-81.1288"/>
</g>
<!-- Node51 -->
<g id="node3" class="node"><title>Node51</title>
<g id="a_node3"><a xlink:href="d5/dec/classorg_1_1lightjason_1_1trafficsimulation_1_1simulation_1_1stationary_1_1trafficlight_1_1IBaseTrafficLight_1_1IGenerator.htm" target="_top" xlink:title="abstract generator for traffic lights ">
<polygon fill="none" stroke="black" points="118,-47 118,-95 386,-95 386,-47 118,-47"/>
<text text-anchor="start" x="126" y="-83.8" font-family="Helvetica,sans-Serif" font-size="9.00">org.lightjason.trafficsimulation.simulation.stationary.trafficlight.</text>
<text text-anchor="start" x="126" y="-73.8" font-family="Helvetica,sans-Serif" font-size="9.00">IBaseTrafficLight&lt; T extends IBaseTrafficLight</text>
<text text-anchor="start" x="126" y="-63.8" font-family="Helvetica,sans-Serif" font-size="9.00">&lt;?, ?, L extends Enum&lt;?, &gt;.IGenerator&lt; T extends</text>
<text text-anchor="middle" x="252" y="-53.8" font-family="Helvetica,sans-Serif" font-size="9.00"> IBaseTrafficLight&lt;?, ?&gt;</text>
</a>
</g>
</g>
<!-- Node49&#45;&gt;Node51 -->
<g id="edge2" class="edge"><title>Node49&#45;&gt;Node51</title>
<path fill="none" stroke="midnightblue" d="M92.0515,-71C100.13,-71 108.811,-71 117.799,-71"/>
<polygon fill="midnightblue" stroke="midnightblue" points="91.8033,-67.5001 81.8032,-71 91.8032,-74.5001 91.8033,-67.5001"/>
</g>
<!-- Node52 -->
<g id="node4" class="node"><title>Node52</title>
<g id="a_node4"><a xlink:href="dc/d45/classorg_1_1lightjason_1_1trafficsimulation_1_1simulation_1_1virtual_01_1_1CArea_1_1CGenerator.htm" target="_top" xlink:title="generator class ">
<polygon fill="none" stroke="black" points="147.5,-0 147.5,-28 356.5,-28 356.5,-0 147.5,-0"/>
<text text-anchor="start" x="155.5" y="-16.8" font-family="Helvetica,sans-Serif" font-size="9.00">org.lightjason.trafficsimulation.simulation.virtual</text>
<text text-anchor="middle" x="252" y="-6.8" font-family="Helvetica,sans-Serif" font-size="9.00"> .CArea.CGenerator</text>
</a>
</g>
</g>
<!-- Node49&#45;&gt;Node52 -->
<g id="edge3" class="edge"><title>Node49&#45;&gt;Node52</title>
<path fill="none" stroke="midnightblue" d="M68.9084,-57.5014C83.1934,-50.8042 101.221,-43.0817 118,-38 130.688,-34.1573 144.253,-30.8418 157.691,-28.0079"/>
<polygon fill="midnightblue" stroke="midnightblue" points="67.1807,-54.4482 59.6781,-61.9289 70.2083,-60.7596 67.1807,-54.4482"/>
</g>
</g>
</svg>
