<?xml version="1.0" encoding="UTF-8" standalone="no"?>
<!DOCTYPE svg PUBLIC "-//W3C//DTD SVG 1.1//EN"
 "http://www.w3.org/Graphics/SVG/1.1/DTD/svg11.dtd">
<!-- Generated by graphviz version 2.36.0 (20140111.2315)
 -->
<!-- Title: Graphical Class Hierarchy Pages: 1 -->
<svg width="280pt" height="63pt"
 viewBox="0.00 0.00 280.00 63.00" xmlns="http://www.w3.org/2000/svg" xmlns:xlink="http://www.w3.org/1999/xlink">
<g id="graph0" class="graph" transform="scale(1 1) rotate(0) translate(4 59)">
<title>Graphical Class Hierarchy</title>
<!-- Node90 -->
<g id="node1" class="node"><title>Node90</title>
<polygon fill="none" stroke="#bfbfbf" points="0.5,-37 0.5,-55 95.5,-55 95.5,-37 0.5,-37"/>
<text text-anchor="middle" x="48" y="-43.8" font-family="Helvetica,sans-Serif" font-size="9.00">ApplicationAdapter</text>
</g>
<!-- Node0 -->
<g id="node2" class="node"><title>Node0</title>
<g id="a_node2"><a xlink:href="d9/d90/classorg_1_1lightjason_1_1trafficsimulation_1_1IBaseViewTest_1_1CScreen.htm" target="_top" xlink:title="screen class ">
<polygon fill="none" stroke="black" points="132,-13 132,-41 272,-41 272,-13 132,-13"/>
<text text-anchor="start" x="140" y="-29.8" font-family="Helvetica,sans-Serif" font-size="9.00">org.lightjason.trafficsimulation.</text>
<text text-anchor="middle" x="202" y="-19.8" font-family="Helvetica,sans-Serif" font-size="9.00">IBaseViewTest.CScreen</text>
</a>
</g>
</g>
<!-- Node90&#45;&gt;Node0 -->
<g id="edge1" class="edge"><title>Node90&#45;&gt;Node0</title>
<path fill="none" stroke="midnightblue" d="M105.984,-38.8771C114.457,-37.8178 123.268,-36.7164 131.957,-35.6304"/>
<polygon fill="midnightblue" stroke="midnightblue" points="105.334,-35.4309 95.8453,-40.1443 106.202,-42.3769 105.334,-35.4309"/>
</g>
<!-- Node65 -->
<g id="node3" class="node"><title>Node65</title>
<polygon fill="none" stroke="#bfbfbf" points="9,-0 9,-18 87,-18 87,-0 9,-0"/>
<text text-anchor="middle" x="48" y="-6.8" font-family="Helvetica,sans-Serif" font-size="9.00">InputProcessor</text>
</g>
<!-- Node65&#45;&gt;Node0 -->
<g id="edge2" class="edge"><title>Node65&#45;&gt;Node0</title>
<path fill="none" stroke="midnightblue" d="M97.5363,-14.7477C108.472,-16.0427 120.284,-17.4415 131.88,-18.8147"/>
<polygon fill="midnightblue" stroke="midnightblue" points="97.6983,-11.2425 87.356,-13.5422 96.875,-18.194 97.6983,-11.2425"/>
</g>
</g>
</svg>
