<?xml version="1.0" encoding="UTF-8" standalone="no"?>
<!DOCTYPE svg PUBLIC "-//W3C//DTD SVG 1.1//EN"
 "http://www.w3.org/Graphics/SVG/1.1/DTD/svg11.dtd">
<!-- Generated by graphviz version 2.36.0 (20140111.2315)
 -->
<!-- Title: Graphical Class Hierarchy Pages: 1 -->
<svg width="692pt" height="281pt"
 viewBox="0.00 0.00 692.00 281.00" xmlns="http://www.w3.org/2000/svg" xmlns:xlink="http://www.w3.org/1999/xlink">
<g id="graph0" class="graph" transform="scale(1 1) rotate(0) translate(4 277)">
<title>Graphical Class Hierarchy</title>
<!-- Node69 -->
<g id="node1" class="node"><title>Node69</title>
<polygon fill="none" stroke="#bfbfbf" points="0.5,-224 0.5,-242 105.5,-242 105.5,-224 0.5,-224"/>
<text text-anchor="middle" x="53" y="-230.8" font-family="Helvetica,sans-Serif" font-size="9.00">IBaseAgentGenerator</text>
</g>
<!-- Node70 -->
<g id="node2" class="node"><title>Node70</title>
<g id="a_node2"><a xlink:href="dc/dea/classorg_1_1lightjason_1_1trafficsimulation_1_1simulation_1_1environment_1_1IBaseEnvironmentGenerator.htm" target="_top" xlink:title="environment agent generator ">
<polygon fill="none" stroke="black" points="157,-245 157,-273 395,-273 395,-245 157,-245"/>
<text text-anchor="start" x="165" y="-261.8" font-family="Helvetica,sans-Serif" font-size="9.00">org.lightjason.trafficsimulation.simulation.environment.</text>
<text text-anchor="middle" x="276" y="-251.8" font-family="Helvetica,sans-Serif" font-size="9.00">IBaseEnvironmentGenerator</text>
</a>
</g>
</g>
<!-- Node69&#45;&gt;Node70 -->
<g id="edge1" class="edge"><title>Node69&#45;&gt;Node70</title>
<path fill="none" stroke="midnightblue" d="M115.659,-240.254C128.604,-241.777 142.668,-243.432 156.901,-245.106"/>
<polygon fill="midnightblue" stroke="midnightblue" points="115.876,-236.756 105.536,-239.063 115.058,-243.708 115.876,-236.756"/>
</g>
<!-- Node0 -->
<g id="node4" class="node"><title>Node0</title>
<g id="a_node4"><a xlink:href="dd/d6d/classorg_1_1lightjason_1_1trafficsimulation_1_1simulation_1_1IBaseObject_1_1IBaseGenerator.htm" target="_top" xlink:title="base agent generator ">
<polygon fill="none" stroke="black" points="182,-188 182,-226 370,-226 370,-188 182,-188"/>
<text text-anchor="start" x="190" y="-214.8" font-family="Helvetica,sans-Serif" font-size="9.00">org.lightjason.trafficsimulation.simulation.</text>
<text text-anchor="start" x="190" y="-204.8" font-family="Helvetica,sans-Serif" font-size="9.00">IBaseObject&lt; T extends IObject&lt;</text>
<text text-anchor="middle" x="276" y="-194.8" font-family="Helvetica,sans-Serif" font-size="9.00">?&gt;.IBaseGenerator&lt; T extends IObject&lt;?&gt;</text>
</a>
</g>
</g>
<!-- Node69&#45;&gt;Node0 -->
<g id="edge3" class="edge"><title>Node69&#45;&gt;Node0</title>
<path fill="none" stroke="midnightblue" d="M115.656,-225.746C136.132,-223.337 159.409,-220.599 181.725,-217.973"/>
<polygon fill="midnightblue" stroke="midnightblue" points="115.058,-222.292 105.536,-226.937 115.876,-229.244 115.058,-222.292"/>
</g>
<!-- Node71 -->
<g id="node3" class="node"><title>Node71</title>
<g id="a_node3"><a xlink:href="de/d7a/classorg_1_1lightjason_1_1trafficsimulation_1_1simulation_1_1environment_1_1CEnvironment_1_1CGenerator.htm" target="_top" xlink:title="generator of the environment ">
<polygon fill="none" stroke="black" points="446,-245 446,-273 684,-273 684,-245 446,-245"/>
<text text-anchor="start" x="454" y="-261.8" font-family="Helvetica,sans-Serif" font-size="9.00">org.lightjason.trafficsimulation.simulation.environment.</text>
<text text-anchor="middle" x="565" y="-251.8" font-family="Helvetica,sans-Serif" font-size="9.00">CEnvironment.CGenerator</text>
</a>
</g>
</g>
<!-- Node70&#45;&gt;Node71 -->
<g id="edge2" class="edge"><title>Node70&#45;&gt;Node71</title>
<path fill="none" stroke="midnightblue" d="M405.603,-259C419.012,-259 432.596,-259 445.881,-259"/>
<polygon fill="midnightblue" stroke="midnightblue" points="405.391,-255.5 395.391,-259 405.391,-262.5 405.391,-255.5"/>
</g>
<!-- Node21 -->
<g id="node5" class="node"><title>Node21</title>
<polygon fill="none" stroke="#bfbfbf" points="23,-99 23,-117 83,-117 83,-99 23,-99"/>
<text text-anchor="middle" x="53" y="-105.8" font-family="Helvetica,sans-Serif" font-size="9.00">IGenerator</text>
</g>
<!-- Node21&#45;&gt;Node0 -->
<g id="edge4" class="edge"><title>Node21&#45;&gt;Node0</title>
<path fill="none" stroke="midnightblue" d="M69.9888,-124.543C86.5168,-140.655 113.812,-164.615 142,-178 154.489,-183.93 168.215,-188.665 181.961,-192.44"/>
<polygon fill="midnightblue" stroke="midnightblue" points="72.3317,-121.937 62.7833,-117.345 67.3846,-126.889 72.3317,-121.937"/>
</g>
<!-- Node23 -->
<g id="node6" class="node"><title>Node23</title>
<g id="a_node6"><a xlink:href="d4/dc2/classorg_1_1lightjason_1_1trafficsimulation_1_1simulation_1_1movable_1_1CPedestrian_1_1CGenerator.htm" target="_top" xlink:title="generator class ">
<polygon fill="none" stroke="black" points="165,-141 165,-169 387,-169 387,-141 165,-141"/>
<text text-anchor="start" x="173" y="-157.8" font-family="Helvetica,sans-Serif" font-size="9.00">org.lightjason.trafficsimulation.simulation.movable.</text>
<text text-anchor="middle" x="276" y="-147.8" font-family="Helvetica,sans-Serif" font-size="9.00">CPedestrian.CGenerator</text>
</a>
</g>
</g>
<!-- Node21&#45;&gt;Node23 -->
<g id="edge5" class="edge"><title>Node21&#45;&gt;Node23</title>
<path fill="none" stroke="midnightblue" d="M93.2688,-118.955C108.432,-123.004 125.963,-127.463 142,-131 157.924,-134.512 175.005,-137.886 191.44,-140.939"/>
<polygon fill="midnightblue" stroke="midnightblue" points="93.7632,-115.464 83.1965,-116.235 91.9378,-122.221 93.7632,-115.464"/>
</g>
<!-- Node24 -->
<g id="node7" class="node"><title>Node24</title>
<g id="a_node7"><a xlink:href="d1/d80/classorg_1_1lightjason_1_1trafficsimulation_1_1simulation_1_1movable_1_1CVehicle_1_1CGenerator.htm" target="_top" xlink:title="generator class ">
<polygon fill="none" stroke="black" points="165,-94 165,-122 387,-122 387,-94 165,-94"/>
<text text-anchor="start" x="173" y="-110.8" font-family="Helvetica,sans-Serif" font-size="9.00">org.lightjason.trafficsimulation.simulation.movable.</text>
<text text-anchor="middle" x="276" y="-100.8" font-family="Helvetica,sans-Serif" font-size="9.00">CVehicle.CGenerator</text>
</a>
</g>
</g>
<!-- Node21&#45;&gt;Node24 -->
<g id="edge6" class="edge"><title>Node21&#45;&gt;Node24</title>
<path fill="none" stroke="midnightblue" d="M93.3716,-108C113.557,-108 139.25,-108 164.914,-108"/>
<polygon fill="midnightblue" stroke="midnightblue" points="93.3471,-104.5 83.3471,-108 93.3471,-111.5 93.3471,-104.5"/>
</g>
<!-- Node25 -->
<g id="node8" class="node"><title>Node25</title>
<g id="a_node8"><a xlink:href="d2/d46/classorg_1_1lightjason_1_1trafficsimulation_1_1simulation_1_1stationary_1_1trafficlight_1_1CTraf57597f79e966c65addca59c0281cfa21.htm" target="_top" xlink:title="generator of pedestrian traffic lights ">
<polygon fill="none" stroke="black" points="142,-47 142,-75 410,-75 410,-47 142,-47"/>
<text text-anchor="start" x="150" y="-63.8" font-family="Helvetica,sans-Serif" font-size="9.00">org.lightjason.trafficsimulation.simulation.stationary.trafficlight.</text>
<text text-anchor="middle" x="276" y="-53.8" font-family="Helvetica,sans-Serif" font-size="9.00">CTrafficLightPedestrian.CGenerator</text>
</a>
</g>
</g>
<!-- Node21&#45;&gt;Node25 -->
<g id="edge7" class="edge"><title>Node21&#45;&gt;Node25</title>
<path fill="none" stroke="midnightblue" d="M92.7903,-96.5666C108.048,-92.2941 125.769,-87.6083 142,-84 156.411,-80.7964 171.784,-77.7766 186.772,-75.0443"/>
<polygon fill="midnightblue" stroke="midnightblue" points="91.8248,-93.2023 83.1599,-99.299 93.7356,-99.9365 91.8248,-93.2023"/>
</g>
<!-- Node26 -->
<g id="node9" class="node"><title>Node26</title>
<g id="a_node9"><a xlink:href="dc/dc5/classorg_1_1lightjason_1_1trafficsimulation_1_1simulation_1_1stationary_1_1trafficlight_1_1CTrafficLightVehicle_1_1CGenerator.htm" target="_top" xlink:title="generator for vehicle traffic light agents ">
<polygon fill="none" stroke="black" points="142,-0 142,-28 410,-28 410,-0 142,-0"/>
<text text-anchor="start" x="150" y="-16.8" font-family="Helvetica,sans-Serif" font-size="9.00">org.lightjason.trafficsimulation.simulation.stationary.trafficlight.</text>
<text text-anchor="middle" x="276" y="-6.8" font-family="Helvetica,sans-Serif" font-size="9.00">CTrafficLightVehicle.CGenerator</text>
</a>
</g>
</g>
<!-- Node21&#45;&gt;Node26 -->
<g id="edge8" class="edge"><title>Node21&#45;&gt;Node26</title>
<path fill="none" stroke="midnightblue" d="M69.2952,-91.4819C85.6333,-74.928 113.107,-50.0786 142,-37 149.685,-33.5212 157.839,-30.566 166.178,-28.056"/>
<polygon fill="midnightblue" stroke="midnightblue" points="66.6165,-89.2182 62.2119,-98.8541 71.6642,-94.0681 66.6165,-89.2182"/>
</g>
</g>
</svg>
