<?xml version="1.0" encoding="UTF-8" standalone="no"?>
<!DOCTYPE svg PUBLIC "-//W3C//DTD SVG 1.1//EN"
 "http://www.w3.org/Graphics/SVG/1.1/DTD/svg11.dtd">
<!-- Generated by graphviz version 2.36.0 (20140111.2315)
 -->
<!-- Title: Graphical Class Hierarchy Pages: 1 -->
<svg width="282pt" height="83pt"
 viewBox="0.00 0.00 282.00 83.00" xmlns="http://www.w3.org/2000/svg" xmlns:xlink="http://www.w3.org/1999/xlink">
<g id="graph0" class="graph" transform="scale(1 1) rotate(0) translate(4 79)">
<title>Graphical Class Hierarchy</title>
<!-- Node74 -->
<g id="node1" class="node"><title>Node74</title>
<polygon fill="none" stroke="#bfbfbf" points="0.5,-28 0.5,-46 65.5,-46 65.5,-28 0.5,-28"/>
<text text-anchor="middle" x="33" y="-34.8" font-family="Helvetica,sans-Serif" font-size="9.00">IBaseAction</text>
</g>
<!-- Node0 -->
<g id="node2" class="node"><title>Node0</title>
<g id="a_node2"><a xlink:href="d6/d7a/classorg_1_1lightjason_1_1trafficsimulation_1_1actions_1_1CBroadcast.htm" target="_top" xlink:title="class broadcast ">
<polygon fill="none" stroke="black" points="102,-47 102,-75 274,-75 274,-47 102,-47"/>
<text text-anchor="start" x="110" y="-63.8" font-family="Helvetica,sans-Serif" font-size="9.00">org.lightjason.trafficsimulation.actions.</text>
<text text-anchor="middle" x="188" y="-53.8" font-family="Helvetica,sans-Serif" font-size="9.00">CBroadcast</text>
</a>
</g>
</g>
<!-- Node74&#45;&gt;Node0 -->
<g id="edge1" class="edge"><title>Node74&#45;&gt;Node0</title>
<path fill="none" stroke="midnightblue" d="M75.7342,-43.5465C83.9742,-44.8391 92.8976,-46.2388 101.983,-47.6641"/>
<polygon fill="midnightblue" stroke="midnightblue" points="76.1233,-40.0649 65.7017,-41.9728 75.0385,-46.9803 76.1233,-40.0649"/>
</g>
<!-- Node76 -->
<g id="node3" class="node"><title>Node76</title>
<g id="a_node3"><a xlink:href="d2/d94/classorg_1_1lightjason_1_1trafficsimulation_1_1actions_1_1CSend.htm" target="_top" xlink:title="send action ">
<polygon fill="none" stroke="black" points="102,-0 102,-28 274,-28 274,-0 102,-0"/>
<text text-anchor="start" x="110" y="-16.8" font-family="Helvetica,sans-Serif" font-size="9.00">org.lightjason.trafficsimulation.actions.</text>
<text text-anchor="middle" x="188" y="-6.8" font-family="Helvetica,sans-Serif" font-size="9.00">CSend</text>
</a>
</g>
</g>
<!-- Node74&#45;&gt;Node76 -->
<g id="edge2" class="edge"><title>Node74&#45;&gt;Node76</title>
<path fill="none" stroke="midnightblue" d="M75.7342,-30.7262C83.9742,-29.4875 92.8976,-28.1461 101.983,-26.7803"/>
<polygon fill="midnightblue" stroke="midnightblue" points="75.0703,-27.2866 65.7017,-32.2344 76.1109,-34.2088 75.0703,-27.2866"/>
</g>
</g>
</svg>
