<?xml version="1.0" encoding="UTF-8" standalone="no"?>
<!DOCTYPE svg PUBLIC "-//W3C//DTD SVG 1.1//EN"
 "http://www.w3.org/Graphics/SVG/1.1/DTD/svg11.dtd">
<!-- Generated by graphviz version 2.36.0 (20140111.2315)
 -->
<!-- Title: Graphical Class Hierarchy Pages: 1 -->
<svg width="464pt" height="83pt"
 viewBox="0.00 0.00 464.00 83.00" xmlns="http://www.w3.org/2000/svg" xmlns:xlink="http://www.w3.org/1999/xlink">
<g id="graph0" class="graph" transform="scale(1 1) rotate(0) translate(4 79)">
<title>Graphical Class Hierarchy</title>
<!-- Node44 -->
<g id="node1" class="node"><title>Node44</title>
<g id="a_node1"><a xlink:href="d5/d6f/classorg_1_1lightjason_1_1trafficsimulation_1_1simulation_1_1IBaseObject.htm" target="_top" xlink:title="org.lightjason.trafficsimulation.simulation.\lIBaseObject\&lt; CArea \&gt;">
<polygon fill="none" stroke="black" points="12.5,-47 12.5,-75 197.5,-75 197.5,-47 12.5,-47"/>
<text text-anchor="start" x="20.5" y="-63.8" font-family="Helvetica,sans-Serif" font-size="9.00">org.lightjason.trafficsimulation.simulation.</text>
<text text-anchor="middle" x="105" y="-53.8" font-family="Helvetica,sans-Serif" font-size="9.00">IBaseObject&lt; CArea &gt;</text>
</a>
</g>
</g>
<!-- Node1 -->
<g id="node2" class="node"><title>Node1</title>
<g id="a_node2"><a xlink:href="da/d5a/classorg_1_1lightjason_1_1trafficsimulation_1_1simulation_1_1virtual_01_1_1CArea.htm" target="_top" xlink:title="area class ">
<polygon fill="none" stroke="black" points="246.5,-23 246.5,-51 455.5,-51 455.5,-23 246.5,-23"/>
<text text-anchor="start" x="254.5" y="-39.8" font-family="Helvetica,sans-Serif" font-size="9.00">org.lightjason.trafficsimulation.simulation.virtual</text>
<text text-anchor="middle" x="351" y="-29.8" font-family="Helvetica,sans-Serif" font-size="9.00"> .CArea</text>
</a>
</g>
</g>
<!-- Node44&#45;&gt;Node1 -->
<g id="edge1" class="edge"><title>Node44&#45;&gt;Node1</title>
<path fill="none" stroke="midnightblue" d="M207.736,-50.9931C220.533,-49.7345 233.635,-48.4458 246.458,-47.1844"/>
<polygon fill="midnightblue" stroke="midnightblue" points="207.16,-47.5328 197.551,-51.995 207.845,-54.4992 207.16,-47.5328"/>
</g>
<!-- Node0 -->
<g id="node3" class="node"><title>Node0</title>
<g id="a_node3"><a xlink:href="d4/dd6/interfaceorg_1_1lightjason_1_1trafficsimulation_1_1simulation_1_1virtual_01_1_1IVirtual.htm" target="_top" xlink:title="org.lightjason.trafficsimulation.simulation.virtual\l .IVirtual\&lt; CArea \&gt;">
<polygon fill="none" stroke="black" points="0.5,-0 0.5,-28 209.5,-28 209.5,-0 0.5,-0"/>
<text text-anchor="start" x="8.5" y="-16.8" font-family="Helvetica,sans-Serif" font-size="9.00">org.lightjason.trafficsimulation.simulation.virtual</text>
<text text-anchor="middle" x="105" y="-6.8" font-family="Helvetica,sans-Serif" font-size="9.00"> .IVirtual&lt; CArea &gt;</text>
</a>
</g>
</g>
<!-- Node0&#45;&gt;Node1 -->
<g id="edge2" class="edge"><title>Node0&#45;&gt;Node1</title>
<path fill="none" stroke="midnightblue" d="M220.057,-24.7512C228.797,-25.5751 237.592,-26.4042 246.262,-27.2214"/>
<polygon fill="midnightblue" stroke="midnightblue" points="220.116,-21.2414 209.832,-23.7874 219.459,-28.2105 220.116,-21.2414"/>
</g>
</g>
</svg>
