<?xml version="1.0" encoding="UTF-8" standalone="no"?>
<!DOCTYPE svg PUBLIC "-//W3C//DTD SVG 1.1//EN"
 "http://www.w3.org/Graphics/SVG/1.1/DTD/svg11.dtd">
<!-- Generated by graphviz version 2.36.0 (20140111.2315)
 -->
<!-- Title: Graphical Class Hierarchy Pages: 1 -->
<svg width="332pt" height="73pt"
 viewBox="0.00 0.00 332.00 73.00" xmlns="http://www.w3.org/2000/svg" xmlns:xlink="http://www.w3.org/1999/xlink">
<g id="graph0" class="graph" transform="scale(1 1) rotate(0) translate(4 69)">
<title>Graphical Class Hierarchy</title>
<!-- Node89 -->
<g id="node1" class="node"><title>Node89</title>
<polygon fill="none" stroke="#bfbfbf" points="44.5,-47 44.5,-65 95.5,-65 95.5,-47 44.5,-47"/>
<text text-anchor="middle" x="70" y="-53.8" font-family="Helvetica,sans-Serif" font-size="9.00">Callable</text>
</g>
<!-- Node1 -->
<g id="node2" class="node"><title>Node1</title>
<g id="a_node2"><a xlink:href="d2/dbb/classorg_1_1lightjason_1_1trafficsimulation_1_1IBaseViewTest_1_1IBaseSprite.htm" target="_top" xlink:title="sprite wrapper object ">
<polygon fill="none" stroke="black" points="176.5,-21 176.5,-49 323.5,-49 323.5,-21 176.5,-21"/>
<text text-anchor="start" x="184.5" y="-37.8" font-family="Helvetica,sans-Serif" font-size="9.00">org.lightjason.trafficsimulation.</text>
<text text-anchor="middle" x="250" y="-27.8" font-family="Helvetica,sans-Serif" font-size="9.00">IBaseViewTest.IBaseSprite&lt; T &gt;</text>
</a>
</g>
</g>
<!-- Node89&#45;&gt;Node1 -->
<g id="edge1" class="edge"><title>Node89&#45;&gt;Node1</title>
<path fill="none" stroke="midnightblue" d="M105.696,-51.9067C125.84,-49.5301 151.992,-46.4447 176.432,-43.5614"/>
<polygon fill="midnightblue" stroke="midnightblue" points="105.271,-48.4324 95.7501,-53.08 106.091,-55.3842 105.271,-48.4324"/>
</g>
<!-- Node0 -->
<g id="node3" class="node"><title>Node0</title>
<g id="a_node3"><a xlink:href="d0/d8e/interfaceorg_1_1lightjason_1_1trafficsimulation_1_1IBaseViewTest_1_1ISprite.htm" target="_top" xlink:title="interface for visualization ">
<polygon fill="none" stroke="black" points="0,-0 0,-28 140,-28 140,-0 0,-0"/>
<text text-anchor="start" x="8" y="-16.8" font-family="Helvetica,sans-Serif" font-size="9.00">org.lightjason.trafficsimulation.</text>
<text text-anchor="middle" x="70" y="-6.8" font-family="Helvetica,sans-Serif" font-size="9.00">IBaseViewTest.ISprite&lt; T &gt;</text>
</a>
</g>
</g>
<!-- Node0&#45;&gt;Node1 -->
<g id="edge2" class="edge"><title>Node0&#45;&gt;Node1</title>
<path fill="none" stroke="midnightblue" d="M150.233,-23.3477C158.953,-24.3765 167.8,-25.4202 176.433,-26.4387"/>
<polygon fill="midnightblue" stroke="midnightblue" points="150.415,-19.845 140.074,-22.1492 149.595,-26.7968 150.415,-19.845"/>
</g>
</g>
</svg>
