<?xml version="1.0" encoding="UTF-8" standalone="no"?>
<!DOCTYPE svg PUBLIC "-//W3C//DTD SVG 1.1//EN"
 "http://www.w3.org/Graphics/SVG/1.1/DTD/svg11.dtd">
<!-- Generated by graphviz version 2.36.0 (20140111.2315)
 -->
<!-- Title: Graphical Class Hierarchy Pages: 1 -->
<svg width="1156pt" height="318pt"
 viewBox="0.00 0.00 1156.00 318.00" xmlns="http://www.w3.org/2000/svg" xmlns:xlink="http://www.w3.org/1999/xlink">
<g id="graph0" class="graph" transform="scale(1 1) rotate(0) translate(4 314)">
<title>Graphical Class Hierarchy</title>
<!-- Node79 -->
<g id="node1" class="node"><title>Node79</title>
<polygon fill="none" stroke="#bfbfbf" points="0.5,-240 0.5,-258 43.5,-258 43.5,-240 0.5,-240"/>
<text text-anchor="middle" x="22" y="-246.8" font-family="Helvetica,sans-Serif" font-size="9.00">IAgent</text>
</g>
<!-- Node80 -->
<g id="node2" class="node"><title>Node80</title>
<g id="a_node2"><a xlink:href="d5/dea/interfaceorg_1_1lightjason_1_1trafficsimulation_1_1simulation_1_1IObject.htm" target="_top" xlink:title="object interface ">
<polygon fill="none" stroke="black" points="80.5,-235 80.5,-263 265.5,-263 265.5,-235 80.5,-235"/>
<text text-anchor="start" x="88.5" y="-251.8" font-family="Helvetica,sans-Serif" font-size="9.00">org.lightjason.trafficsimulation.simulation.</text>
<text text-anchor="middle" x="173" y="-241.8" font-family="Helvetica,sans-Serif" font-size="9.00">IObject&lt; T extends IAgent&lt;?&gt;</text>
</a>
</g>
</g>
<!-- Node79&#45;&gt;Node80 -->
<g id="edge1" class="edge"><title>Node79&#45;&gt;Node80</title>
<path fill="none" stroke="midnightblue" d="M53.9259,-249C61.9263,-249 70.9606,-249 80.3808,-249"/>
<polygon fill="midnightblue" stroke="midnightblue" points="53.7178,-245.5 43.7178,-249 53.7178,-252.5 53.7178,-245.5"/>
</g>
<!-- Node81 -->
<g id="node3" class="node"><title>Node81</title>
<g id="a_node3"><a xlink:href="d5/d10/interfaceorg_1_1lightjason_1_1trafficsimulation_1_1simulation_1_1environment_1_1IEnvironment.htm" target="_top" xlink:title="environment interface ">
<polygon fill="none" stroke="black" points="302,-188 302,-216 540,-216 540,-188 302,-188"/>
<text text-anchor="start" x="310" y="-204.8" font-family="Helvetica,sans-Serif" font-size="9.00">org.lightjason.trafficsimulation.simulation.environment.</text>
<text text-anchor="middle" x="421" y="-194.8" font-family="Helvetica,sans-Serif" font-size="9.00">IEnvironment</text>
</a>
</g>
</g>
<!-- Node80&#45;&gt;Node81 -->
<g id="edge2" class="edge"><title>Node80&#45;&gt;Node81</title>
<path fill="none" stroke="midnightblue" d="M257.534,-233.04C286.389,-227.527 318.486,-221.395 346.479,-216.047"/>
<polygon fill="midnightblue" stroke="midnightblue" points="256.64,-229.648 247.475,-234.962 257.954,-236.523 256.64,-229.648"/>
</g>
<!-- Node82 -->
<g id="node5" class="node"><title>Node82</title>
<g id="a_node5"><a xlink:href="d6/d59/interfaceorg_1_1lightjason_1_1trafficsimulation_1_1simulation_1_1movable_1_1IMoveable.htm" target="_top" xlink:title="moveable interface ">
<polygon fill="none" stroke="black" points="310,-282 310,-310 532,-310 532,-282 310,-282"/>
<text text-anchor="start" x="318" y="-298.8" font-family="Helvetica,sans-Serif" font-size="9.00">org.lightjason.trafficsimulation.simulation.movable.</text>
<text text-anchor="middle" x="421" y="-288.8" font-family="Helvetica,sans-Serif" font-size="9.00">IMoveable&lt; T extends IMoveable&lt;?&gt;</text>
</a>
</g>
</g>
<!-- Node80&#45;&gt;Node82 -->
<g id="edge4" class="edge"><title>Node80&#45;&gt;Node82</title>
<path fill="none" stroke="midnightblue" d="M257.534,-264.96C286.389,-270.473 318.486,-276.605 346.479,-281.953"/>
<polygon fill="midnightblue" stroke="midnightblue" points="257.954,-261.477 247.475,-263.038 256.64,-268.352 257.954,-261.477"/>
</g>
<!-- Node83 -->
<g id="node6" class="node"><title>Node83</title>
<g id="a_node6"><a xlink:href="db/db5/interfaceorg_1_1lightjason_1_1trafficsimulation_1_1simulation_1_1stationary_1_1IStationary.htm" target="_top" xlink:title="static interface ">
<polygon fill="none" stroke="black" points="307.5,-235 307.5,-263 534.5,-263 534.5,-235 307.5,-235"/>
<text text-anchor="start" x="315.5" y="-251.8" font-family="Helvetica,sans-Serif" font-size="9.00">org.lightjason.trafficsimulation.simulation.stationary.</text>
<text text-anchor="middle" x="421" y="-241.8" font-family="Helvetica,sans-Serif" font-size="9.00">IStationary&lt; T extends IStationary&lt;?&gt;</text>
</a>
</g>
</g>
<!-- Node80&#45;&gt;Node83 -->
<g id="edge5" class="edge"><title>Node80&#45;&gt;Node83</title>
<path fill="none" stroke="midnightblue" d="M275.835,-249C286.148,-249 296.665,-249 307.085,-249"/>
<polygon fill="midnightblue" stroke="midnightblue" points="275.601,-245.5 265.601,-249 275.601,-252.5 275.601,-245.5"/>
</g>
<!-- Node73 -->
<g id="node4" class="node"><title>Node73</title>
<g id="a_node4"><a xlink:href="d4/d51/classorg_1_1lightjason_1_1trafficsimulation_1_1simulation_1_1environment_1_1CEnvironment.htm" target="_top" xlink:title="environment class ">
<polygon fill="none" stroke="black" points="591,-188 591,-216 829,-216 829,-188 591,-188"/>
<text text-anchor="start" x="599" y="-204.8" font-family="Helvetica,sans-Serif" font-size="9.00">org.lightjason.trafficsimulation.simulation.environment.</text>
<text text-anchor="middle" x="710" y="-194.8" font-family="Helvetica,sans-Serif" font-size="9.00">CEnvironment</text>
</a>
</g>
</g>
<!-- Node81&#45;&gt;Node73 -->
<g id="edge3" class="edge"><title>Node81&#45;&gt;Node73</title>
<path fill="none" stroke="midnightblue" d="M550.603,-202C564.012,-202 577.596,-202 590.881,-202"/>
<polygon fill="midnightblue" stroke="midnightblue" points="550.391,-198.5 540.391,-202 550.391,-205.5 550.391,-198.5"/>
</g>
<!-- Node84 -->
<g id="node7" class="node"><title>Node84</title>
<g id="a_node7"><a xlink:href="da/da0/interfaceorg_1_1lightjason_1_1trafficsimulation_1_1simulation_1_1stationary_1_1trafficlight_1_1ITrafficLight.htm" target="_top" xlink:title="traffic light interface ">
<polygon fill="none" stroke="black" points="576,-235 576,-263 844,-263 844,-235 576,-235"/>
<text text-anchor="start" x="584" y="-251.8" font-family="Helvetica,sans-Serif" font-size="9.00">org.lightjason.trafficsimulation.simulation.stationary.trafficlight.</text>
<text text-anchor="middle" x="710" y="-241.8" font-family="Helvetica,sans-Serif" font-size="9.00">ITrafficLight&lt; T extends ITrafficLight&lt;?&gt;</text>
</a>
</g>
</g>
<!-- Node83&#45;&gt;Node84 -->
<g id="edge6" class="edge"><title>Node83&#45;&gt;Node84</title>
<path fill="none" stroke="midnightblue" d="M544.799,-249C555.048,-249 565.441,-249 575.763,-249"/>
<polygon fill="midnightblue" stroke="midnightblue" points="544.606,-245.5 534.606,-249 544.606,-252.5 544.606,-245.5"/>
</g>
<!-- Node72 -->
<g id="node8" class="node"><title>Node72</title>
<polygon fill="none" stroke="#bfbfbf" points="389,-125 389,-143 453,-143 453,-125 389,-125"/>
<text text-anchor="middle" x="421" y="-131.8" font-family="Helvetica,sans-Serif" font-size="9.00">IBaseAgent</text>
</g>
<!-- Node72&#45;&gt;Node73 -->
<g id="edge7" class="edge"><title>Node72&#45;&gt;Node73</title>
<path fill="none" stroke="midnightblue" d="M460.395,-146.124C491.383,-155.629 536.215,-168.751 576,-178 591.426,-181.586 607.964,-184.95 623.955,-187.959"/>
<polygon fill="midnightblue" stroke="midnightblue" points="461.032,-142.658 450.444,-143.05 458.966,-149.346 461.032,-142.658"/>
</g>
<!-- Node16 -->
<g id="node9" class="node"><title>Node16</title>
<g id="a_node9"><a xlink:href="d5/d6f/classorg_1_1lightjason_1_1trafficsimulation_1_1simulation_1_1IBaseObject.htm" target="_top" xlink:title="base agent object ">
<polygon fill="none" stroke="black" points="617.5,-94 617.5,-122 802.5,-122 802.5,-94 617.5,-94"/>
<text text-anchor="start" x="625.5" y="-110.8" font-family="Helvetica,sans-Serif" font-size="9.00">org.lightjason.trafficsimulation.simulation.</text>
<text text-anchor="middle" x="710" y="-100.8" font-family="Helvetica,sans-Serif" font-size="9.00">IBaseObject&lt; T extends IObject&lt;?&gt;</text>
</a>
</g>
</g>
<!-- Node72&#45;&gt;Node16 -->
<g id="edge8" class="edge"><title>Node72&#45;&gt;Node16</title>
<path fill="none" stroke="midnightblue" d="M463.451,-130.245C503.514,-126.615 565.57,-120.994 617.271,-116.31"/>
<polygon fill="midnightblue" stroke="midnightblue" points="462.904,-126.78 453.26,-131.168 463.535,-133.751 462.904,-126.78"/>
</g>
<!-- Node17 -->
<g id="node10" class="node"><title>Node17</title>
<g id="a_node10"><a xlink:href="d5/df4/classorg_1_1lightjason_1_1trafficsimulation_1_1simulation_1_1movable_1_1IBaseMoveable.htm" target="_top" xlink:title="moveable object ">
<polygon fill="none" stroke="black" points="903,-130 903,-158 1125,-158 1125,-130 903,-130"/>
<text text-anchor="start" x="911" y="-146.8" font-family="Helvetica,sans-Serif" font-size="9.00">org.lightjason.trafficsimulation.simulation.movable.</text>
<text text-anchor="middle" x="1014" y="-136.8" font-family="Helvetica,sans-Serif" font-size="9.00">IBaseMoveable&lt; T extends IBaseMoveable&lt;?&gt;</text>
</a>
</g>
</g>
<!-- Node16&#45;&gt;Node17 -->
<g id="edge9" class="edge"><title>Node16&#45;&gt;Node17</title>
<path fill="none" stroke="midnightblue" d="M812.962,-120.154C841.92,-123.606 873.576,-127.38 902.988,-130.886"/>
<polygon fill="midnightblue" stroke="midnightblue" points="813.184,-116.656 802.84,-118.948 812.355,-123.607 813.184,-116.656"/>
</g>
<!-- Node1 -->
<g id="node11" class="node"><title>Node1</title>
<g id="a_node11"><a xlink:href="d7/df3/classorg_1_1lightjason_1_1trafficsimulation_1_1simulation_1_1stationary_1_1trafficlight_1_1IBaseTrafficLight.htm" target="_top" xlink:title="traffic light abstract class ">
<polygon fill="none" stroke="black" points="880,-52 880,-90 1148,-90 1148,-52 880,-52"/>
<text text-anchor="start" x="888" y="-78.8" font-family="Helvetica,sans-Serif" font-size="9.00">org.lightjason.trafficsimulation.simulation.stationary.trafficlight.</text>
<text text-anchor="start" x="888" y="-68.8" font-family="Helvetica,sans-Serif" font-size="9.00">IBaseTrafficLight&lt; T extends IBaseTrafficLight</text>
<text text-anchor="middle" x="1014" y="-58.8" font-family="Helvetica,sans-Serif" font-size="9.00">&lt;?, ?, L extends Enum&lt;?, &gt;</text>
</a>
</g>
</g>
<!-- Node16&#45;&gt;Node1 -->
<g id="edge10" class="edge"><title>Node16&#45;&gt;Node1</title>
<path fill="none" stroke="midnightblue" d="M812.933,-95.5115C834.428,-92.878 857.412,-90.0621 879.862,-87.3116"/>
<polygon fill="midnightblue" stroke="midnightblue" points="812.34,-92.0579 802.84,-96.7481 813.191,-99.0059 812.34,-92.0579"/>
</g>
<!-- Node20 -->
<g id="node12" class="node"><title>Node20</title>
<g id="a_node12"><a xlink:href="d6/d59/interfaceorg_1_1lightjason_1_1trafficsimulation_1_1simulation_1_1movable_1_1IMoveable.htm" target="_top" xlink:title="org.lightjason.trafficsimulation.simulation.movable.\lIMoveable\&lt; T \&gt;">
<polygon fill="none" stroke="black" points="599,-141 599,-169 821,-169 821,-141 599,-141"/>
<text text-anchor="start" x="607" y="-157.8" font-family="Helvetica,sans-Serif" font-size="9.00">org.lightjason.trafficsimulation.simulation.movable.</text>
<text text-anchor="middle" x="710" y="-147.8" font-family="Helvetica,sans-Serif" font-size="9.00">IMoveable&lt; T &gt;</text>
</a>
</g>
</g>
<!-- Node20&#45;&gt;Node17 -->
<g id="edge11" class="edge"><title>Node20&#45;&gt;Node17</title>
<path fill="none" stroke="midnightblue" d="M831.373,-150.616C855.016,-149.754 879.705,-148.855 902.988,-148.007"/>
<polygon fill="midnightblue" stroke="midnightblue" points="831.177,-147.12 821.311,-150.982 831.432,-154.116 831.177,-147.12"/>
</g>
<!-- Node15 -->
<g id="node13" class="node"><title>Node15</title>
<g id="a_node13"><a xlink:href="d5/dea/interfaceorg_1_1lightjason_1_1trafficsimulation_1_1simulation_1_1IObject.htm" target="_top" xlink:title="org.lightjason.trafficsimulation.simulation.\lIObject\&lt; T \&gt;">
<polygon fill="none" stroke="black" points="328.5,-26 328.5,-54 513.5,-54 513.5,-26 328.5,-26"/>
<text text-anchor="start" x="336.5" y="-42.8" font-family="Helvetica,sans-Serif" font-size="9.00">org.lightjason.trafficsimulation.simulation.</text>
<text text-anchor="middle" x="421" y="-32.8" font-family="Helvetica,sans-Serif" font-size="9.00">IObject&lt; T &gt;</text>
</a>
</g>
</g>
<!-- Node15&#45;&gt;Node16 -->
<g id="edge12" class="edge"><title>Node15&#45;&gt;Node16</title>
<path fill="none" stroke="midnightblue" d="M476.473,-56.9991C505.783,-65.7811 542.664,-76.2502 576,-84 591.426,-87.5862 607.964,-90.9498 623.955,-93.9588"/>
<polygon fill="midnightblue" stroke="midnightblue" points="477.424,-53.6303 466.84,-54.0919 475.402,-60.3318 477.424,-53.6303"/>
</g>
<!-- Node18 -->
<g id="node14" class="node"><title>Node18</title>
<g id="a_node14"><a xlink:href="d4/dd6/interfaceorg_1_1lightjason_1_1trafficsimulation_1_1simulation_1_1virtual_01_1_1IVirtual.htm" target="_top" xlink:title="virual interface ">
<polygon fill="none" stroke="black" points="605.5,-0 605.5,-28 814.5,-28 814.5,-0 605.5,-0"/>
<text text-anchor="start" x="613.5" y="-16.8" font-family="Helvetica,sans-Serif" font-size="9.00">org.lightjason.trafficsimulation.simulation.virtual</text>
<text text-anchor="middle" x="710" y="-6.8" font-family="Helvetica,sans-Serif" font-size="9.00"> .IVirtual&lt; T extends IVirtual&lt;?&gt;</text>
</a>
</g>
</g>
<!-- Node15&#45;&gt;Node18 -->
<g id="edge13" class="edge"><title>Node15&#45;&gt;Node18</title>
<path fill="none" stroke="midnightblue" d="M523.64,-30.7922C550.132,-28.3922 578.71,-25.8032 605.307,-23.3938"/>
<polygon fill="midnightblue" stroke="midnightblue" points="523.241,-27.3139 513.598,-31.702 523.873,-34.2854 523.241,-27.3139"/>
</g>
<!-- Node0 -->
<g id="node15" class="node"><title>Node0</title>
<g id="a_node15"><a xlink:href="da/da0/interfaceorg_1_1lightjason_1_1trafficsimulation_1_1simulation_1_1stationary_1_1trafficlight_1_1ITrafficLight.htm" target="_top" xlink:title="org.lightjason.trafficsimulation.simulation.stationary.trafficlight.\lITrafficLight\&lt; T \&gt;">
<polygon fill="none" stroke="black" points="576,-47 576,-75 844,-75 844,-47 576,-47"/>
<text text-anchor="start" x="584" y="-63.8" font-family="Helvetica,sans-Serif" font-size="9.00">org.lightjason.trafficsimulation.simulation.stationary.trafficlight.</text>
<text text-anchor="middle" x="710" y="-53.8" font-family="Helvetica,sans-Serif" font-size="9.00">ITrafficLight&lt; T &gt;</text>
</a>
</g>
</g>
<!-- Node0&#45;&gt;Node1 -->
<g id="edge14" class="edge"><title>Node0&#45;&gt;Node1</title>
<path fill="none" stroke="midnightblue" d="M854.51,-65.752C862.864,-66.0286 871.25,-66.3063 879.563,-66.5816"/>
<polygon fill="midnightblue" stroke="midnightblue" points="854.451,-62.2482 844.341,-65.4153 854.219,-69.2444 854.451,-62.2482"/>
</g>
</g>
</svg>
