<?xml version="1.0" encoding="UTF-8" standalone="no"?>
<!DOCTYPE svg PUBLIC "-//W3C//DTD SVG 1.1//EN"
 "http://www.w3.org/Graphics/SVG/1.1/DTD/svg11.dtd">
<!-- Generated by graphviz version 2.36.0 (20140111.2315)
 -->
<!-- Title: Graphical Class Hierarchy Pages: 1 -->
<svg width="710pt" height="318pt"
 viewBox="0.00 0.00 710.00 318.00" xmlns="http://www.w3.org/2000/svg" xmlns:xlink="http://www.w3.org/1999/xlink">
<g id="graph0" class="graph" transform="scale(1 1) rotate(0) translate(4 314)">
<title>Graphical Class Hierarchy</title>
<!-- Node0 -->
<g id="node1" class="node"><title>Node0</title>
<g id="a_node1"><a xlink:href="dd/d4d/classorg_1_1lightjason_1_1trafficsimulation_1_1IBaseTest.htm" target="_top" xlink:title="base test ">
<polygon fill="none" stroke="black" points="0,-141 0,-169 140,-169 140,-141 0,-141"/>
<text text-anchor="start" x="8" y="-157.8" font-family="Helvetica,sans-Serif" font-size="9.00">org.lightjason.trafficsimulation.</text>
<text text-anchor="middle" x="70" y="-147.8" font-family="Helvetica,sans-Serif" font-size="9.00">IBaseTest</text>
</a>
</g>
</g>
<!-- Node1 -->
<g id="node2" class="node"><title>Node1</title>
<g id="a_node2"><a xlink:href="d8/dbd/classorg_1_1lightjason_1_1trafficsimulation_1_1IBaseViewTest.htm" target="_top" xlink:title="test class with window ">
<polygon fill="none" stroke="black" points="240,-282 240,-310 380,-310 380,-282 240,-282"/>
<text text-anchor="start" x="248" y="-298.8" font-family="Helvetica,sans-Serif" font-size="9.00">org.lightjason.trafficsimulation.</text>
<text text-anchor="middle" x="310" y="-288.8" font-family="Helvetica,sans-Serif" font-size="9.00">IBaseViewTest</text>
</a>
</g>
</g>
<!-- Node0&#45;&gt;Node1 -->
<g id="edge1" class="edge"><title>Node0&#45;&gt;Node1</title>
<path fill="none" stroke="midnightblue" d="M84.6524,-177.75C102.202,-204.85 135.316,-249.298 176,-272 195.26,-282.747 218.308,-288.838 239.765,-292.242"/>
<polygon fill="midnightblue" stroke="midnightblue" points="87.6053,-175.871 79.309,-169.282 81.6852,-179.607 87.6053,-175.871"/>
</g>
<!-- Node3 -->
<g id="node4" class="node"><title>Node3</title>
<g id="a_node4"><a xlink:href="d0/d32/classorg_1_1lightjason_1_1trafficsimulation_1_1simulation_1_1environment_1_1TestCEnvironment.htm" target="_top" xlink:title="test environment ">
<polygon fill="none" stroke="black" points="191,-235 191,-263 429,-263 429,-235 191,-235"/>
<text text-anchor="start" x="199" y="-251.8" font-family="Helvetica,sans-Serif" font-size="9.00">org.lightjason.trafficsimulation.simulation.environment.</text>
<text text-anchor="middle" x="310" y="-241.8" font-family="Helvetica,sans-Serif" font-size="9.00">TestCEnvironment</text>
</a>
</g>
</g>
<!-- Node0&#45;&gt;Node3 -->
<g id="edge3" class="edge"><title>Node0&#45;&gt;Node3</title>
<path fill="none" stroke="midnightblue" d="M95.6514,-175.714C115.943,-191.663 146.131,-212.957 176,-225 185.684,-228.904 196.019,-232.177 206.488,-234.919"/>
<polygon fill="midnightblue" stroke="midnightblue" points="97.5813,-172.775 87.5907,-169.249 93.2014,-178.236 97.5813,-172.775"/>
</g>
<!-- Node4 -->
<g id="node5" class="node"><title>Node4</title>
<g id="a_node5"><a xlink:href="de/dc3/classorg_1_1lightjason_1_1trafficsimulation_1_1simulation_1_1movable_1_1TestCPedestrian.htm" target="_top" xlink:title="test pedestrians ">
<polygon fill="none" stroke="black" points="199,-188 199,-216 421,-216 421,-188 199,-188"/>
<text text-anchor="start" x="207" y="-204.8" font-family="Helvetica,sans-Serif" font-size="9.00">org.lightjason.trafficsimulation.simulation.movable.</text>
<text text-anchor="middle" x="310" y="-194.8" font-family="Helvetica,sans-Serif" font-size="9.00">TestCPedestrian</text>
</a>
</g>
</g>
<!-- Node0&#45;&gt;Node4 -->
<g id="edge4" class="edge"><title>Node0&#45;&gt;Node4</title>
<path fill="none" stroke="midnightblue" d="M143.119,-171.167C154.119,-173.526 165.352,-175.874 176,-178 192.912,-181.377 211.076,-184.793 228.379,-187.948"/>
<polygon fill="midnightblue" stroke="midnightblue" points="143.618,-167.694 133.104,-169.003 142.14,-174.536 143.618,-167.694"/>
</g>
<!-- Node5 -->
<g id="node6" class="node"><title>Node5</title>
<g id="a_node6"><a xlink:href="d8/d27/classorg_1_1lightjason_1_1trafficsimulation_1_1simulation_1_1movable_1_1TestCVehicle.htm" target="_top" xlink:title="test vehicle ">
<polygon fill="none" stroke="black" points="199,-141 199,-169 421,-169 421,-141 199,-141"/>
<text text-anchor="start" x="207" y="-157.8" font-family="Helvetica,sans-Serif" font-size="9.00">org.lightjason.trafficsimulation.simulation.movable.</text>
<text text-anchor="middle" x="310" y="-147.8" font-family="Helvetica,sans-Serif" font-size="9.00">TestCVehicle</text>
</a>
</g>
</g>
<!-- Node0&#45;&gt;Node5 -->
<g id="edge5" class="edge"><title>Node0&#45;&gt;Node5</title>
<path fill="none" stroke="midnightblue" d="M150.248,-155C165.845,-155 182.472,-155 198.873,-155"/>
<polygon fill="midnightblue" stroke="midnightblue" points="150.159,-151.5 140.159,-155 150.159,-158.5 150.159,-151.5"/>
</g>
<!-- Node6 -->
<g id="node7" class="node"><title>Node6</title>
<g id="a_node7"><a xlink:href="d4/dfb/classorg_1_1lightjason_1_1trafficsimulation_1_1simulation_1_1stationary_1_1trafficlight_1_1TestCTrafficLightPedestrian.htm" target="_top" xlink:title="test pedestrian traffic light ">
<polygon fill="none" stroke="black" points="176,-94 176,-122 444,-122 444,-94 176,-94"/>
<text text-anchor="start" x="184" y="-110.8" font-family="Helvetica,sans-Serif" font-size="9.00">org.lightjason.trafficsimulation.simulation.stationary.trafficlight.</text>
<text text-anchor="middle" x="310" y="-100.8" font-family="Helvetica,sans-Serif" font-size="9.00">TestCTrafficLightPedestrian</text>
</a>
</g>
</g>
<!-- Node0&#45;&gt;Node6 -->
<g id="edge6" class="edge"><title>Node0&#45;&gt;Node6</title>
<path fill="none" stroke="midnightblue" d="M143.119,-138.833C154.119,-136.474 165.352,-134.126 176,-132 192.912,-128.623 211.076,-125.207 228.379,-122.052"/>
<polygon fill="midnightblue" stroke="midnightblue" points="142.14,-135.464 133.104,-140.997 143.618,-142.306 142.14,-135.464"/>
</g>
<!-- Node7 -->
<g id="node8" class="node"><title>Node7</title>
<g id="a_node8"><a xlink:href="d5/d41/classorg_1_1lightjason_1_1trafficsimulation_1_1simulation_1_1stationary_1_1trafficlight_1_1TestCTrafficLightVehicle.htm" target="_top" xlink:title="test vehicles traffic light ">
<polygon fill="none" stroke="black" points="176,-47 176,-75 444,-75 444,-47 176,-47"/>
<text text-anchor="start" x="184" y="-63.8" font-family="Helvetica,sans-Serif" font-size="9.00">org.lightjason.trafficsimulation.simulation.stationary.trafficlight.</text>
<text text-anchor="middle" x="310" y="-53.8" font-family="Helvetica,sans-Serif" font-size="9.00">TestCTrafficLightVehicle</text>
</a>
</g>
</g>
<!-- Node0&#45;&gt;Node7 -->
<g id="edge7" class="edge"><title>Node0&#45;&gt;Node7</title>
<path fill="none" stroke="midnightblue" d="M95.6514,-134.286C115.943,-118.337 146.131,-97.0434 176,-85 185.684,-81.0955 196.019,-77.8233 206.488,-75.0814"/>
<polygon fill="midnightblue" stroke="midnightblue" points="93.2014,-131.764 87.5907,-140.751 97.5813,-137.225 93.2014,-131.764"/>
</g>
<!-- Node8 -->
<g id="node9" class="node"><title>Node8</title>
<g id="a_node9"><a xlink:href="d2/de9/classorg_1_1lightjason_1_1trafficsimulation_1_1simulation_1_1virtual_01_1_1TestCArea.htm" target="_top" xlink:title="test area ">
<polygon fill="none" stroke="black" points="205.5,-0 205.5,-28 414.5,-28 414.5,-0 205.5,-0"/>
<text text-anchor="start" x="213.5" y="-16.8" font-family="Helvetica,sans-Serif" font-size="9.00">org.lightjason.trafficsimulation.simulation.virtual</text>
<text text-anchor="middle" x="310" y="-6.8" font-family="Helvetica,sans-Serif" font-size="9.00"> .TestCArea</text>
</a>
</g>
</g>
<!-- Node0&#45;&gt;Node8 -->
<g id="edge8" class="edge"><title>Node0&#45;&gt;Node8</title>
<path fill="none" stroke="midnightblue" d="M84.6524,-132.25C102.202,-105.15 135.316,-60.702 176,-38 185.118,-32.9123 195.084,-28.8682 205.329,-25.6586"/>
<polygon fill="midnightblue" stroke="midnightblue" points="81.6852,-130.393 79.309,-140.718 87.6053,-134.129 81.6852,-130.393"/>
</g>
<!-- Node2 -->
<g id="node3" class="node"><title>Node2</title>
<g id="a_node3"><a xlink:href="dd/d76/classorg_1_1lightjason_1_1trafficsimulation_1_1simulation_1_1movable_1_1TestCViewPedstrian.htm" target="_top" xlink:title="test of driving a vehicle ">
<polygon fill="none" stroke="black" points="480,-282 480,-310 702,-310 702,-282 480,-282"/>
<text text-anchor="start" x="488" y="-298.8" font-family="Helvetica,sans-Serif" font-size="9.00">org.lightjason.trafficsimulation.simulation.movable.</text>
<text text-anchor="middle" x="591" y="-288.8" font-family="Helvetica,sans-Serif" font-size="9.00">TestCViewPedstrian</text>
</a>
</g>
</g>
<!-- Node1&#45;&gt;Node2 -->
<g id="edge2" class="edge"><title>Node1&#45;&gt;Node2</title>
<path fill="none" stroke="midnightblue" d="M390.374,-296C418.163,-296 449.888,-296 479.743,-296"/>
<polygon fill="midnightblue" stroke="midnightblue" points="390.325,-292.5 380.325,-296 390.325,-299.5 390.325,-292.5"/>
</g>
</g>
</svg>
