<?xml version="1.0" encoding="UTF-8" standalone="no"?>
<!DOCTYPE svg PUBLIC "-//W3C//DTD SVG 1.1//EN"
 "http://www.w3.org/Graphics/SVG/1.1/DTD/svg11.dtd">
<!-- Generated by graphviz version 2.36.0 (20140111.2315)
 -->
<!-- Title: org.lightjason.trafficsimulation.simulation.environment.CEnvironment.name Pages: 1 -->
<svg width="520pt" height="83pt"
 viewBox="0.00 0.00 520.00 83.00" xmlns="http://www.w3.org/2000/svg" xmlns:xlink="http://www.w3.org/1999/xlink">
<g id="graph0" class="graph" transform="scale(1 1) rotate(0) translate(4 79)">
<title>org.lightjason.trafficsimulation.simulation.environment.CEnvironment.name</title>
<!-- Node20 -->
<g id="node1" class="node"><title>Node20</title>
<polygon fill="#bfbfbf" stroke="black" points="0,-23 0,-51 238,-51 238,-23 0,-23"/>
<text text-anchor="start" x="8" y="-39.8" font-family="Helvetica,sans-Serif" font-size="9.00">org.lightjason.trafficsimulation.simulation.environment.</text>
<text text-anchor="middle" x="119" y="-29.8" font-family="Helvetica,sans-Serif" font-size="9.00">CEnvironment.name</text>
</g>
<!-- Node21 -->
<g id="node2" class="node"><title>Node21</title>
<g id="a_node2"><a xlink:href="../../d4/d51/classorg_1_1lightjason_1_1trafficsimulation_1_1simulation_1_1environment_1_1CEnvironment.htm#ae72f423711b347e4eb7cb30b06afa2e9" target="_top" xlink:title="add an area to the environment ">
<polygon fill="none" stroke="black" points="274,-47 274,-75 512,-75 512,-47 274,-47"/>
<text text-anchor="start" x="282" y="-63.8" font-family="Helvetica,sans-Serif" font-size="9.00">org.lightjason.trafficsimulation.simulation.environment.</text>
<text text-anchor="middle" x="393" y="-53.8" font-family="Helvetica,sans-Serif" font-size="9.00">CEnvironment.addarea</text>
</a>
</g>
</g>
<!-- Node20&#45;&gt;Node21 -->
<g id="edge1" class="edge"><title>Node20&#45;&gt;Node21</title>
<path fill="none" stroke="midnightblue" d="M248.348,-48.3248C256.759,-49.067 265.21,-49.8126 273.57,-50.5503"/>
<polygon fill="midnightblue" stroke="midnightblue" points="248.385,-44.8146 238.116,-47.422 247.77,-51.7875 248.385,-44.8146"/>
</g>
<!-- Node22 -->
<g id="node3" class="node"><title>Node22</title>
<g id="a_node3"><a xlink:href="../../d4/d51/classorg_1_1lightjason_1_1trafficsimulation_1_1simulation_1_1environment_1_1CEnvironment.htm#abeafbd3762bf3d000c5d77ee7ed3ca36" target="_top" xlink:title="position of the object ">
<polygon fill="none" stroke="black" points="274,-0 274,-28 512,-28 512,-0 274,-0"/>
<text text-anchor="start" x="282" y="-16.8" font-family="Helvetica,sans-Serif" font-size="9.00">org.lightjason.trafficsimulation.simulation.environment.</text>
<text text-anchor="middle" x="393" y="-6.8" font-family="Helvetica,sans-Serif" font-size="9.00">CEnvironment.position</text>
</a>
</g>
</g>
<!-- Node20&#45;&gt;Node22 -->
<g id="edge2" class="edge"><title>Node20&#45;&gt;Node22</title>
<path fill="none" stroke="midnightblue" d="M248.348,-26.147C256.759,-25.4358 265.21,-24.7212 273.57,-24.0143"/>
<polygon fill="midnightblue" stroke="midnightblue" points="247.786,-22.682 238.116,-27.0122 248.376,-29.6571 247.786,-22.682"/>
</g>
</g>
</svg>
