<?xml version="1.0" encoding="UTF-8" standalone="no"?>
<!DOCTYPE svg PUBLIC "-//W3C//DTD SVG 1.1//EN"
 "http://www.w3.org/Graphics/SVG/1.1/DTD/svg11.dtd">
<!-- Generated by graphviz version 2.36.0 (20140111.2315)
 -->
<!-- Title: org.lightjason.trafficsimulation.simulation.environment.CEnvironment.addarea Pages: 1 -->
<svg width="520pt" height="83pt"
 viewBox="0.00 0.00 520.00 83.00" xmlns="http://www.w3.org/2000/svg" xmlns:xlink="http://www.w3.org/1999/xlink">
<g id="graph0" class="graph" transform="scale(1 1) rotate(0) translate(4 79)">
<title>org.lightjason.trafficsimulation.simulation.environment.CEnvironment.addarea</title>
<!-- Node3 -->
<g id="node1" class="node"><title>Node3</title>
<polygon fill="#bfbfbf" stroke="black" points="0,-23 0,-51 238,-51 238,-23 0,-23"/>
<text text-anchor="start" x="8" y="-39.8" font-family="Helvetica,sans-Serif" font-size="9.00">org.lightjason.trafficsimulation.simulation.environment.</text>
<text text-anchor="middle" x="119" y="-29.8" font-family="Helvetica,sans-Serif" font-size="9.00">CEnvironment.addarea</text>
</g>
<!-- Node4 -->
<g id="node2" class="node"><title>Node4</title>
<g id="a_node2"><a xlink:href="../../d5/d6f/classorg_1_1lightjason_1_1trafficsimulation_1_1simulation_1_1IBaseObject.htm#a2891bb2cf030203afb398504b6e73a13" target="_top" xlink:title="org.lightjason.trafficsimulation.simulation.\lIBaseObject.name">
<polygon fill="none" stroke="black" points="300.5,-47 300.5,-75 485.5,-75 485.5,-47 300.5,-47"/>
<text text-anchor="start" x="308.5" y="-63.8" font-family="Helvetica,sans-Serif" font-size="9.00">org.lightjason.trafficsimulation.simulation.</text>
<text text-anchor="middle" x="393" y="-53.8" font-family="Helvetica,sans-Serif" font-size="9.00">IBaseObject.name</text>
</a>
</g>
</g>
<!-- Node3&#45;&gt;Node4 -->
<g id="edge1" class="edge"><title>Node3&#45;&gt;Node4</title>
<path fill="none" stroke="midnightblue" d="M238.116,-47.422C255.332,-48.9411 272.937,-50.4944 289.801,-51.9824"/>
<polygon fill="midnightblue" stroke="midnightblue" points="289.926,-55.507 300.195,-52.8996 290.542,-48.5341 289.926,-55.507"/>
</g>
<!-- Node5 -->
<g id="node3" class="node"><title>Node5</title>
<g id="a_node3"><a xlink:href="../../d4/d51/classorg_1_1lightjason_1_1trafficsimulation_1_1simulation_1_1environment_1_1CEnvironment.htm#a67b0dedd28bc288db9723b7c66952622" target="_top" xlink:title="name of the object ">
<polygon fill="none" stroke="black" points="274,-0 274,-28 512,-28 512,-0 274,-0"/>
<text text-anchor="start" x="282" y="-16.8" font-family="Helvetica,sans-Serif" font-size="9.00">org.lightjason.trafficsimulation.simulation.environment.</text>
<text text-anchor="middle" x="393" y="-6.8" font-family="Helvetica,sans-Serif" font-size="9.00">CEnvironment.name</text>
</a>
</g>
</g>
<!-- Node3&#45;&gt;Node5 -->
<g id="edge2" class="edge"><title>Node3&#45;&gt;Node5</title>
<path fill="none" stroke="midnightblue" d="M238.116,-27.0122C246.474,-26.3055 254.924,-25.591 263.336,-24.8797"/>
<polygon fill="midnightblue" stroke="midnightblue" points="263.9,-28.3445 273.57,-24.0143 263.311,-21.3694 263.9,-28.3445"/>
</g>
</g>
</svg>
