<?xml version="1.0" encoding="UTF-8" standalone="no"?>
<!DOCTYPE svg PUBLIC "-//W3C//DTD SVG 1.1//EN"
 "http://www.w3.org/Graphics/SVG/1.1/DTD/svg11.dtd">
<!-- Generated by graphviz version 2.36.0 (20140111.2315)
 -->
<!-- Title: org.lightjason.trafficsimulation.simulation.environment.CEnvironment.move Pages: 1 -->
<svg width="504pt" height="83pt"
 viewBox="0.00 0.00 504.00 83.00" xmlns="http://www.w3.org/2000/svg" xmlns:xlink="http://www.w3.org/1999/xlink">
<g id="graph0" class="graph" transform="scale(1 1) rotate(0) translate(4 79)">
<title>org.lightjason.trafficsimulation.simulation.environment.CEnvironment.move</title>
<!-- Node15 -->
<g id="node1" class="node"><title>Node15</title>
<polygon fill="#bfbfbf" stroke="black" points="0,-23 0,-51 238,-51 238,-23 0,-23"/>
<text text-anchor="start" x="8" y="-39.8" font-family="Helvetica,sans-Serif" font-size="9.00">org.lightjason.trafficsimulation.simulation.environment.</text>
<text text-anchor="middle" x="119" y="-29.8" font-family="Helvetica,sans-Serif" font-size="9.00">CEnvironment.move</text>
</g>
<!-- Node16 -->
<g id="node2" class="node"><title>Node16</title>
<g id="a_node2"><a xlink:href="../../d6/d59/interfaceorg_1_1lightjason_1_1trafficsimulation_1_1simulation_1_1movable_1_1IMoveable.htm#a3fc18a762cc9707496ad5b7f9146cd23" target="_top" xlink:title="move the object in the grid ">
<polygon fill="none" stroke="black" points="274,-47 274,-75 496,-75 496,-47 274,-47"/>
<text text-anchor="start" x="282" y="-63.8" font-family="Helvetica,sans-Serif" font-size="9.00">org.lightjason.trafficsimulation.simulation.movable.</text>
<text text-anchor="middle" x="385" y="-53.8" font-family="Helvetica,sans-Serif" font-size="9.00">IMoveable.move</text>
</a>
</g>
</g>
<!-- Node15&#45;&gt;Node16 -->
<g id="edge1" class="edge"><title>Node15&#45;&gt;Node16</title>
<path fill="none" stroke="midnightblue" d="M238.101,-47.7365C246.686,-48.5169 255.35,-49.3045 263.946,-50.086"/>
<polygon fill="midnightblue" stroke="midnightblue" points="263.721,-53.5799 273.997,-50.9997 264.355,-46.6086 263.721,-53.5799"/>
</g>
<!-- Node17 -->
<g id="node3" class="node"><title>Node17</title>
<g id="a_node3"><a xlink:href="../../d6/d59/interfaceorg_1_1lightjason_1_1trafficsimulation_1_1simulation_1_1movable_1_1IMoveable.htm#ab9d33543c9a28188a04f3b785ce63f96" target="_top" xlink:title="check if the object can move in the grid ">
<polygon fill="none" stroke="black" points="274,-0 274,-28 496,-28 496,-0 274,-0"/>
<text text-anchor="start" x="282" y="-16.8" font-family="Helvetica,sans-Serif" font-size="9.00">org.lightjason.trafficsimulation.simulation.movable.</text>
<text text-anchor="middle" x="385" y="-6.8" font-family="Helvetica,sans-Serif" font-size="9.00">IMoveable.moveable</text>
</a>
</g>
</g>
<!-- Node15&#45;&gt;Node17 -->
<g id="edge2" class="edge"><title>Node15&#45;&gt;Node17</title>
<path fill="none" stroke="midnightblue" d="M238.101,-26.7109C246.686,-25.963 255.35,-25.2082 263.946,-24.4593"/>
<polygon fill="midnightblue" stroke="midnightblue" points="264.338,-27.9384 273.997,-23.5836 263.731,-20.9648 264.338,-27.9384"/>
</g>
</g>
</svg>
