<?xml version="1.0" encoding="UTF-8" standalone="no"?>
<!DOCTYPE svg PUBLIC "-//W3C//DTD SVG 1.1//EN"
 "http://www.w3.org/Graphics/SVG/1.1/DTD/svg11.dtd">
<!-- Generated by graphviz version 2.36.0 (20140111.2315)
 -->
<!-- Title: org.lightjason.trafficsimulation.IBaseViewTest.ISprite&lt; T &gt; Pages: 1 -->
<svg width="162pt" height="226pt"
 viewBox="0.00 0.00 162.00 226.00" xmlns="http://www.w3.org/2000/svg" xmlns:xlink="http://www.w3.org/1999/xlink">
<g id="graph0" class="graph" transform="scale(1 1) rotate(0) translate(4 222)">
<title>org.lightjason.trafficsimulation.IBaseViewTest.ISprite&lt; T &gt;</title>
<!-- Node0 -->
<g id="node1" class="node"><title>Node0</title>
<polygon fill="#bfbfbf" stroke="black" points="7,-133 7,-217 147,-217 147,-133 7,-133"/>
<text text-anchor="start" x="15" y="-205.8" font-family="Helvetica,sans-Serif" font-size="9.00">org.lightjason.trafficsimulation.</text>
<text text-anchor="middle" x="77" y="-195.8" font-family="Helvetica,sans-Serif" font-size="9.00">IBaseViewTest.ISprite&lt; T &gt;</text>
<polyline fill="none" stroke="black" points="7,-189 147,-189 "/>
<text text-anchor="middle" x="77" y="-177.8" font-family="Helvetica,sans-Serif" font-size="9.00"> </text>
<polyline fill="none" stroke="black" points="7,-171 147,-171 "/>
<text text-anchor="start" x="15" y="-159.8" font-family="Helvetica,sans-Serif" font-size="9.00">+ raw()</text>
<text text-anchor="start" x="15" y="-149.8" font-family="Helvetica,sans-Serif" font-size="9.00">+ sprite()</text>
<text text-anchor="start" x="15" y="-139.8" font-family="Helvetica,sans-Serif" font-size="9.00">+ spriteinitialize()</text>
</g>
<!-- Node1 -->
<g id="node2" class="node"><title>Node1</title>
<g id="a_node2"><a xlink:href="../../d2/dbb/classorg_1_1lightjason_1_1trafficsimulation_1_1IBaseViewTest_1_1IBaseSprite.htm" target="_top" xlink:title="sprite wrapper object ">
<polygon fill="none" stroke="black" points="0,-1 0,-95 154,-95 154,-1 0,-1"/>
<text text-anchor="start" x="8" y="-83.8" font-family="Helvetica,sans-Serif" font-size="9.00">org::lightjason::trafficsimulation</text>
<text text-anchor="middle" x="77" y="-73.8" font-family="Helvetica,sans-Serif" font-size="9.00">::IBaseViewTest::IBaseSprite&lt; T &gt;</text>
<polyline fill="none" stroke="black" points="0,-67 154,-67 "/>
<text text-anchor="start" x="8" y="-55.8" font-family="Helvetica,sans-Serif" font-size="9.00"># m_sprite</text>
<text text-anchor="start" x="8" y="-45.8" font-family="Helvetica,sans-Serif" font-size="9.00"># m_wrapping</text>
<polyline fill="none" stroke="black" points="0,-39 154,-39 "/>
<text text-anchor="start" x="8" y="-27.8" font-family="Helvetica,sans-Serif" font-size="9.00">+ raw()</text>
<text text-anchor="start" x="8" y="-17.8" font-family="Helvetica,sans-Serif" font-size="9.00">+ sprite()</text>
<text text-anchor="start" x="8" y="-7.8" font-family="Helvetica,sans-Serif" font-size="9.00"># IBaseSprite()</text>
</a>
</g>
</g>
<!-- Node0&#45;&gt;Node1 -->
<g id="edge1" class="edge"><title>Node0&#45;&gt;Node1</title>
<path fill="none" stroke="midnightblue" d="M77,-122.702C77,-113.667 77,-104.31 77,-95.4177"/>
<polygon fill="none" stroke="midnightblue" points="73.5001,-122.724 77,-132.724 80.5001,-122.724 73.5001,-122.724"/>
</g>
</g>
</svg>
