<?xml version="1.0" encoding="UTF-8" standalone="no"?>
<!DOCTYPE svg PUBLIC "-//W3C//DTD SVG 1.1//EN"
 "http://www.w3.org/Graphics/SVG/1.1/DTD/svg11.dtd">
<!-- Generated by graphviz version 2.36.0 (20140111.2315)
 -->
<!-- Title: org.lightjason.trafficsimulation.simulation.algorithm.routing.CJPSPlus.addsuccessors Pages: 1 -->
<svg width="848pt" height="177pt"
 viewBox="0.00 0.00 848.00 177.00" xmlns="http://www.w3.org/2000/svg" xmlns:xlink="http://www.w3.org/1999/xlink">
<g id="graph0" class="graph" transform="scale(1 1) rotate(0) translate(4 173)">
<title>org.lightjason.trafficsimulation.simulation.algorithm.routing.CJPSPlus.addsuccessors</title>
<!-- Node0 -->
<g id="node1" class="node"><title>Node0</title>
<polygon fill="#bfbfbf" stroke="black" points="0,-94 0,-122 256,-122 256,-94 0,-94"/>
<text text-anchor="start" x="8" y="-110.8" font-family="Helvetica,sans-Serif" font-size="9.00">org.lightjason.trafficsimulation.simulation.algorithm.routing.</text>
<text text-anchor="middle" x="128" y="-100.8" font-family="Helvetica,sans-Serif" font-size="9.00">CJPSPlus.addsuccessors</text>
</g>
<!-- Node1 -->
<g id="node2" class="node"><title>Node1</title>
<g id="a_node2"><a xlink:href="../../dd/d58/classorg_1_1lightjason_1_1trafficsimulation_1_1simulation_1_1algorithm_1_1routing_1_1CJPSPlus.htm#ae68dd356032330275e2e621609c0cfe9" target="_top" xlink:title="Calculates the given node&#39;s score using the Manhattan distance formula. ">
<polygon fill="none" stroke="black" points="292,-94 292,-122 548,-122 548,-94 292,-94"/>
<text text-anchor="start" x="300" y="-110.8" font-family="Helvetica,sans-Serif" font-size="9.00">org.lightjason.trafficsimulation.simulation.algorithm.routing.</text>
<text text-anchor="middle" x="420" y="-100.8" font-family="Helvetica,sans-Serif" font-size="9.00">CJPSPlus.calculateScore</text>
</a>
</g>
</g>
<!-- Node0&#45;&gt;Node1 -->
<g id="edge1" class="edge"><title>Node0&#45;&gt;Node1</title>
<path fill="none" stroke="midnightblue" d="M256.198,-108C264.73,-108 273.346,-108 281.924,-108"/>
<polygon fill="midnightblue" stroke="midnightblue" points="281.97,-111.5 291.97,-108 281.97,-104.5 281.97,-111.5"/>
</g>
<!-- Node2 -->
<g id="node3" class="node"><title>Node2</title>
<g id="a_node3"><a xlink:href="../../d9/d71/classorg_1_1lightjason_1_1trafficsimulation_1_1simulation_1_1algorithm_1_1routing_1_1CJPSPlus_1_1CJumpPoint.htm#a6f129e7d96f6b1ee8b1f0bf0215838ec" target="_top" xlink:title="getter for coordinate ">
<polygon fill="none" stroke="black" points="584,-141 584,-169 840,-169 840,-141 584,-141"/>
<text text-anchor="start" x="592" y="-157.8" font-family="Helvetica,sans-Serif" font-size="9.00">org.lightjason.trafficsimulation.simulation.algorithm.routing.</text>
<text text-anchor="middle" x="712" y="-147.8" font-family="Helvetica,sans-Serif" font-size="9.00">CJPSPlus.CJumpPoint.coordinate</text>
</a>
</g>
</g>
<!-- Node0&#45;&gt;Node2 -->
<g id="edge6" class="edge"><title>Node0&#45;&gt;Node2</title>
<path fill="none" stroke="midnightblue" d="M218.942,-122.052C242.656,-125.384 268.253,-128.649 292,-131 385.792,-140.287 491.779,-146.317 573.689,-150.009"/>
<polygon fill="midnightblue" stroke="midnightblue" points="573.664,-153.512 583.81,-150.459 573.975,-146.518 573.664,-153.512"/>
</g>
<!-- Node6 -->
<g id="node7" class="node"><title>Node6</title>
<g id="a_node7"><a xlink:href="../../d9/d71/classorg_1_1lightjason_1_1trafficsimulation_1_1simulation_1_1algorithm_1_1routing_1_1CJPSPlus_1_1CJumpPoint.htm#ac73b394c44a56993d20a352b5c2b4e2f" target="_top" xlink:title="getter for f_score ">
<polygon fill="none" stroke="black" points="292,-47 292,-75 548,-75 548,-47 292,-47"/>
<text text-anchor="start" x="300" y="-63.8" font-family="Helvetica,sans-Serif" font-size="9.00">org.lightjason.trafficsimulation.simulation.algorithm.routing.</text>
<text text-anchor="middle" x="420" y="-53.8" font-family="Helvetica,sans-Serif" font-size="9.00">CJPSPlus.CJumpPoint.fscore</text>
</a>
</g>
</g>
<!-- Node0&#45;&gt;Node6 -->
<g id="edge7" class="edge"><title>Node0&#45;&gt;Node6</title>
<path fill="none" stroke="midnightblue" d="M215.617,-93.9621C249.264,-88.509 287.946,-82.2398 322.482,-76.6426"/>
<polygon fill="midnightblue" stroke="midnightblue" points="323.268,-80.061 332.579,-75.0061 322.148,-73.1511 323.268,-80.061"/>
</g>
<!-- Node1&#45;&gt;Node2 -->
<g id="edge2" class="edge"><title>Node1&#45;&gt;Node2</title>
<path fill="none" stroke="midnightblue" d="M507.617,-122.038C541.264,-127.491 579.946,-133.76 614.482,-139.357"/>
<polygon fill="midnightblue" stroke="midnightblue" points="614.148,-142.849 624.579,-140.994 615.268,-135.939 614.148,-142.849"/>
</g>
<!-- Node3 -->
<g id="node4" class="node"><title>Node3</title>
<g id="a_node4"><a xlink:href="../../d9/d71/classorg_1_1lightjason_1_1trafficsimulation_1_1simulation_1_1algorithm_1_1routing_1_1CJPSPlus_1_1CJumpPoint.htm#af92a57afa1b588ab9820bc324ff91f72" target="_top" xlink:title="setter for h_score ">
<polygon fill="none" stroke="black" points="584,-94 584,-122 840,-122 840,-94 584,-94"/>
<text text-anchor="start" x="592" y="-110.8" font-family="Helvetica,sans-Serif" font-size="9.00">org.lightjason.trafficsimulation.simulation.algorithm.routing.</text>
<text text-anchor="middle" x="712" y="-100.8" font-family="Helvetica,sans-Serif" font-size="9.00">CJPSPlus.CJumpPoint.hscore</text>
</a>
</g>
</g>
<!-- Node1&#45;&gt;Node3 -->
<g id="edge3" class="edge"><title>Node1&#45;&gt;Node3</title>
<path fill="none" stroke="midnightblue" d="M548.198,-108C556.73,-108 565.346,-108 573.924,-108"/>
<polygon fill="midnightblue" stroke="midnightblue" points="573.97,-111.5 583.97,-108 573.97,-104.5 573.97,-111.5"/>
</g>
<!-- Node4 -->
<g id="node5" class="node"><title>Node4</title>
<g id="a_node5"><a xlink:href="../../d9/d71/classorg_1_1lightjason_1_1trafficsimulation_1_1simulation_1_1algorithm_1_1routing_1_1CJPSPlus_1_1CJumpPoint.htm#a7ef896fc661b726f5245ea139ede8374" target="_top" xlink:title="getter for parent ">
<polygon fill="none" stroke="black" points="584,-47 584,-75 840,-75 840,-47 584,-47"/>
<text text-anchor="start" x="592" y="-63.8" font-family="Helvetica,sans-Serif" font-size="9.00">org.lightjason.trafficsimulation.simulation.algorithm.routing.</text>
<text text-anchor="middle" x="712" y="-53.8" font-family="Helvetica,sans-Serif" font-size="9.00">CJPSPlus.CJumpPoint.parent</text>
</a>
</g>
</g>
<!-- Node1&#45;&gt;Node4 -->
<g id="edge4" class="edge"><title>Node1&#45;&gt;Node4</title>
<path fill="none" stroke="midnightblue" d="M507.617,-93.9621C541.264,-88.509 579.946,-82.2398 614.482,-76.6426"/>
<polygon fill="midnightblue" stroke="midnightblue" points="615.268,-80.061 624.579,-75.0061 614.148,-73.1511 615.268,-80.061"/>
</g>
<!-- Node5 -->
<g id="node6" class="node"><title>Node5</title>
<g id="a_node6"><a xlink:href="../../d9/d71/classorg_1_1lightjason_1_1trafficsimulation_1_1simulation_1_1algorithm_1_1routing_1_1CJPSPlus_1_1CJumpPoint.htm#a52f4bef8c1eb1e4afd0d13ed3b96aaa9" target="_top" xlink:title="getter for g&#45;score ">
<polygon fill="none" stroke="black" points="584,-0 584,-28 840,-28 840,-0 584,-0"/>
<text text-anchor="start" x="592" y="-16.8" font-family="Helvetica,sans-Serif" font-size="9.00">org.lightjason.trafficsimulation.simulation.algorithm.routing.</text>
<text text-anchor="middle" x="712" y="-6.8" font-family="Helvetica,sans-Serif" font-size="9.00">CJPSPlus.CJumpPoint.gscore</text>
</a>
</g>
</g>
<!-- Node1&#45;&gt;Node5 -->
<g id="edge5" class="edge"><title>Node1&#45;&gt;Node5</title>
<path fill="none" stroke="midnightblue" d="M527.86,-93.9325C534.905,-91.1634 541.695,-87.8828 548,-84 570.405,-70.2027 561.543,-50.7119 584,-37 586.821,-35.2777 589.738,-33.6775 592.732,-32.191"/>
<polygon fill="midnightblue" stroke="midnightblue" points="594.231,-35.3543 601.92,-28.0646 591.363,-28.9687 594.231,-35.3543"/>
</g>
</g>
</svg>
