<?xml version="1.0" encoding="UTF-8" standalone="no"?>
<!DOCTYPE svg PUBLIC "-//W3C//DTD SVG 1.1//EN"
 "http://www.w3.org/Graphics/SVG/1.1/DTD/svg11.dtd">
<!-- Generated by graphviz version 2.36.0 (20140111.2315)
 -->
<!-- Title: org.lightjason.trafficsimulation.simulation.algorithm.routing.CJPSPlus.vertical Pages: 1 -->
<svg width="1140pt" height="83pt"
 viewBox="0.00 0.00 1140.00 83.00" xmlns="http://www.w3.org/2000/svg" xmlns:xlink="http://www.w3.org/1999/xlink">
<g id="graph0" class="graph" transform="scale(1 1) rotate(0) translate(4 79)">
<title>org.lightjason.trafficsimulation.simulation.algorithm.routing.CJPSPlus.vertical</title>
<!-- Node124 -->
<g id="node1" class="node"><title>Node124</title>
<polygon fill="#bfbfbf" stroke="black" points="0,-47 0,-75 256,-75 256,-47 0,-47"/>
<text text-anchor="start" x="8" y="-63.8" font-family="Helvetica,sans-Serif" font-size="9.00">org.lightjason.trafficsimulation.simulation.algorithm.routing.</text>
<text text-anchor="middle" x="128" y="-53.8" font-family="Helvetica,sans-Serif" font-size="9.00">CJPSPlus.vertical</text>
</g>
<!-- Node125 -->
<g id="node2" class="node"><title>Node125</title>
<g id="a_node2"><a xlink:href="../../dd/d58/classorg_1_1lightjason_1_1trafficsimulation_1_1simulation_1_1algorithm_1_1routing_1_1CJPSPlus.htm#a2e9e6b64161af027f7f03da312ab8006" target="_top" xlink:title="In order to identify individual jump point successors heading in a given direction (run recursively u...">
<polygon fill="none" stroke="black" points="292,-47 292,-75 548,-75 548,-47 292,-47"/>
<text text-anchor="start" x="300" y="-63.8" font-family="Helvetica,sans-Serif" font-size="9.00">org.lightjason.trafficsimulation.simulation.algorithm.routing.</text>
<text text-anchor="middle" x="420" y="-53.8" font-family="Helvetica,sans-Serif" font-size="9.00">CJPSPlus.jump</text>
</a>
</g>
</g>
<!-- Node124&#45;&gt;Node125 -->
<g id="edge1" class="edge"><title>Node124&#45;&gt;Node125</title>
<path fill="none" stroke="midnightblue" d="M266.245,-61C274.824,-61 283.439,-61 291.97,-61"/>
<polygon fill="midnightblue" stroke="midnightblue" points="266.198,-57.5001 256.198,-61 266.198,-64.5001 266.198,-57.5001"/>
</g>
<!-- Node126 -->
<g id="node3" class="node"><title>Node126</title>
<g id="a_node3"><a xlink:href="../../dd/d58/classorg_1_1lightjason_1_1trafficsimulation_1_1simulation_1_1algorithm_1_1routing_1_1CJPSPlus.htm#a3fe5a50404ebc64be3946811bfae657a" target="_top" xlink:title="In order to identify diagonal jump point. ">
<polygon fill="none" stroke="black" points="584,-47 584,-75 840,-75 840,-47 584,-47"/>
<text text-anchor="start" x="592" y="-63.8" font-family="Helvetica,sans-Serif" font-size="9.00">org.lightjason.trafficsimulation.simulation.algorithm.routing.</text>
<text text-anchor="middle" x="712" y="-53.8" font-family="Helvetica,sans-Serif" font-size="9.00">CJPSPlus.diagjump</text>
</a>
</g>
</g>
<!-- Node125&#45;&gt;Node126 -->
<g id="edge2" class="edge"><title>Node125&#45;&gt;Node126</title>
<path fill="none" stroke="midnightblue" d="M558.245,-54.2586C566.824,-54.2396 575.439,-54.2521 583.97,-54.2963"/>
<polygon fill="midnightblue" stroke="midnightblue" points="558.185,-50.7587 548.198,-54.2954 558.211,-57.7586 558.185,-50.7587"/>
</g>
<!-- Node127 -->
<g id="node4" class="node"><title>Node127</title>
<g id="a_node4"><a xlink:href="../../dd/d58/classorg_1_1lightjason_1_1trafficsimulation_1_1simulation_1_1algorithm_1_1routing_1_1CJPSPlus.htm#a3f4b1b068738b9a1607eadab094a5971" target="_top" xlink:title="individual jump point successors are identified ">
<polygon fill="none" stroke="black" points="584,-0 584,-28 840,-28 840,-0 584,-0"/>
<text text-anchor="start" x="592" y="-16.8" font-family="Helvetica,sans-Serif" font-size="9.00">org.lightjason.trafficsimulation.simulation.algorithm.routing.</text>
<text text-anchor="middle" x="712" y="-6.8" font-family="Helvetica,sans-Serif" font-size="9.00">CJPSPlus.successors</text>
</a>
</g>
</g>
<!-- Node125&#45;&gt;Node127 -->
<g id="edge4" class="edge"><title>Node125&#45;&gt;Node127</title>
<path fill="none" stroke="midnightblue" d="M517.719,-45.3248C552.271,-39.725 590.952,-33.4561 624.579,-28.0061"/>
<polygon fill="midnightblue" stroke="midnightblue" points="516.928,-41.9073 507.617,-46.9621 518.048,-48.8171 516.928,-41.9073"/>
</g>
<!-- Node126&#45;&gt;Node125 -->
<g id="edge3" class="edge"><title>Node126&#45;&gt;Node125</title>
<path fill="none" stroke="midnightblue" d="M573.924,-67.741C565.346,-67.7605 556.73,-67.7483 548.198,-67.7046"/>
<polygon fill="midnightblue" stroke="midnightblue" points="573.983,-71.2409 583.97,-67.7037 573.957,-64.241 573.983,-71.2409"/>
</g>
<!-- Node128 -->
<g id="node5" class="node"><title>Node128</title>
<g id="a_node5"><a xlink:href="../../dd/d58/classorg_1_1lightjason_1_1trafficsimulation_1_1simulation_1_1algorithm_1_1routing_1_1CJPSPlus.htm#aecb3e49cfae01851a9e000465c638567" target="_top" xlink:title="routing algorithm ">
<polygon fill="none" stroke="black" points="876,-0 876,-28 1132,-28 1132,-0 876,-0"/>
<text text-anchor="start" x="884" y="-16.8" font-family="Helvetica,sans-Serif" font-size="9.00">org.lightjason.trafficsimulation.simulation.algorithm.routing.</text>
<text text-anchor="middle" x="1004" y="-6.8" font-family="Helvetica,sans-Serif" font-size="9.00">CJPSPlus.route</text>
</a>
</g>
</g>
<!-- Node127&#45;&gt;Node128 -->
<g id="edge5" class="edge"><title>Node127&#45;&gt;Node128</title>
<path fill="none" stroke="midnightblue" d="M850.245,-14C858.824,-14 867.439,-14 875.97,-14"/>
<polygon fill="midnightblue" stroke="midnightblue" points="850.198,-10.5001 840.198,-14 850.198,-17.5001 850.198,-10.5001"/>
</g>
</g>
</svg>
