<?xml version="1.0" encoding="UTF-8" standalone="no"?>
<!DOCTYPE svg PUBLIC "-//W3C//DTD SVG 1.1//EN"
 "http://www.w3.org/Graphics/SVG/1.1/DTD/svg11.dtd">
<!-- Generated by graphviz version 2.36.0 (20140111.2315)
 -->
<!-- Title: org.lightjason.trafficsimulation.simulation.algorithm.routing.CJPSPlus.isOccupied Pages: 1 -->
<!--zoomable 183 -->
<svg id="main" version="1.1" xmlns="http://www.w3.org/2000/svg" xmlns:xlink="http://www.w3.org/1999/xlink" xml:space="preserve" onload="init(evt)">
<style type="text/css"><![CDATA[
.edge:hover path { stroke: red; }
.edge:hover polygon { stroke: red; fill: red; }
]]></style>
<script type="text/javascript"><![CDATA[
var edges = document.getElementsByTagName('g');
if (edges && edges.length) {
  for (var i=0;i<edges.length;i++) {
    if (edges[i].id.substr(0,4)=='edge') {
      edges[i].setAttribute('class','edge');
    }
  }
}
]]></script>
        <defs>
                <circle id="rim" cx="0" cy="0" r="7"/>
                <circle id="rim2" cx="0" cy="0" r="3.5"/>
                <g id="zoomPlus">
                        <use xlink:href="#rim" fill="#404040">
                                <set attributeName="fill" to="#808080" begin="zoomplus.mouseover" end="zoomplus.mouseout"/>
                        </use>
                        <path d="M-4,0h8M0,-4v8" fill="none" stroke="white" stroke-width="1.5" pointer-events="none"/>
                </g>
                <g id="zoomMin">
                        <use xlink:href="#rim" fill="#404040">
                                <set attributeName="fill" to="#808080" begin="zoomminus.mouseover" end="zoomminus.mouseout"/>
                        </use>
                        <path d="M-4,0h8" fill="none" stroke="white" stroke-width="1.5" pointer-events="none"/>
                </g>
                <g id="dirArrow">
                        <path fill="none" stroke="white" stroke-width="1.5" d="M0,-3.0v7 M-2.5,-0.5L0,-3.0L2.5,-0.5"/>
                </g>
               <g id="resetDef">
                       <use xlink:href="#rim2" fill="#404040">
                               <set attributeName="fill" to="#808080" begin="reset.mouseover" end="reset.mouseout"/>
                       </use>
               </g>
        </defs>

<script type="text/javascript">
var viewWidth = 1724;
var viewHeight = 183;
var sectionId = 'dynsection-15';
</script>
<script xlink:href="../../svgpan.js"/>
<svg id="graph" class="graph">
<g id="viewport">
<title>org.lightjason.trafficsimulation.simulation.algorithm.routing.CJPSPlus.isOccupied</title>
<!-- Node66 -->
<g id="node1" class="node"><title>Node66</title>
<polygon fill="#bfbfbf" stroke="black" points="0,-56.5331 0,-84.5331 256,-84.5331 256,-56.5331 0,-56.5331"/>
<text text-anchor="start" x="8" y="-73.3331" font-family="Helvetica,sans-Serif" font-size="9.00">org.lightjason.trafficsimulation.simulation.algorithm.routing.</text>
<text text-anchor="middle" x="128" y="-63.3331" font-family="Helvetica,sans-Serif" font-size="9.00">CJPSPlus.isOccupied</text>
</g>
<!-- Node67 -->
<g id="node2" class="node"><title>Node67</title>
<g id="a_node2"><a xlink:href="../../dd/d58/classorg_1_1lightjason_1_1trafficsimulation_1_1simulation_1_1algorithm_1_1routing_1_1CJPSPlus.htm#accdd1df4e9214e0336c31705152ff462" target="_top" xlink:title="Helper function to identify diagonal jump point. ">
<polygon fill="none" stroke="black" points="292,-99.5331 292,-127.533 548,-127.533 548,-99.5331 292,-99.5331"/>
<text text-anchor="start" x="300" y="-116.333" font-family="Helvetica,sans-Serif" font-size="9.00">org.lightjason.trafficsimulation.simulation.algorithm.routing.</text>
<text text-anchor="middle" x="420" y="-106.333" font-family="Helvetica,sans-Serif" font-size="9.00">CJPSPlus.diagonal</text>
</a>
</g>
</g>
<!-- Node66&#45;&gt;Node67 -->
<g id="edge1" class="edge"><title>Node66&#45;&gt;Node67</title>
<path fill="none" stroke="midnightblue" d="M233.537,-86.0334C263.273,-90.4425 295.476,-95.2174 324.573,-99.5318"/>
<polygon fill="midnightblue" stroke="midnightblue" points="233.961,-82.5581 223.556,-84.5534 232.934,-89.4824 233.961,-82.5581"/>
</g>
<!-- Node69 -->
<g id="node4" class="node"><title>Node69</title>
<g id="a_node4"><a xlink:href="../../dd/d58/classorg_1_1lightjason_1_1trafficsimulation_1_1simulation_1_1algorithm_1_1routing_1_1CJPSPlus.htm#a2e9e6b64161af027f7f03da312ab8006" target="_top" xlink:title="In order to identify individual jump point successors heading in a given direction (run recursively u...">
<polygon fill="none" stroke="black" points="876,-77.5331 876,-105.533 1132,-105.533 1132,-77.5331 876,-77.5331"/>
<text text-anchor="start" x="884" y="-94.3331" font-family="Helvetica,sans-Serif" font-size="9.00">org.lightjason.trafficsimulation.simulation.algorithm.routing.</text>
<text text-anchor="middle" x="1004" y="-84.3331" font-family="Helvetica,sans-Serif" font-size="9.00">CJPSPlus.jump</text>
</a>
</g>
</g>
<!-- Node66&#45;&gt;Node69 -->
<g id="edge9" class="edge"><title>Node66&#45;&gt;Node69</title>
<path fill="none" stroke="midnightblue" d="M266.184,-73.8293C433.281,-77.8442 713.298,-84.5723 875.76,-88.4758"/>
<polygon fill="midnightblue" stroke="midnightblue" points="266.168,-70.328 256.087,-73.5867 266,-77.326 266.168,-70.328"/>
</g>
<!-- Node70 -->
<g id="node5" class="node"><title>Node70</title>
<g id="a_node5"><a xlink:href="../../dd/d58/classorg_1_1lightjason_1_1trafficsimulation_1_1simulation_1_1algorithm_1_1routing_1_1CJPSPlus.htm#a3f4b1b068738b9a1607eadab094a5971" target="_top" xlink:title="individual jump point successors are identified ">
<polygon fill="none" stroke="black" points="1168,-13.5331 1168,-41.5331 1424,-41.5331 1424,-13.5331 1168,-13.5331"/>
<text text-anchor="start" x="1176" y="-30.3331" font-family="Helvetica,sans-Serif" font-size="9.00">org.lightjason.trafficsimulation.simulation.algorithm.routing.</text>
<text text-anchor="middle" x="1296" y="-20.3331" font-family="Helvetica,sans-Serif" font-size="9.00">CJPSPlus.successors</text>
</a>
</g>
</g>
<!-- Node66&#45;&gt;Node70 -->
<g id="edge10" class="edge"><title>Node66&#45;&gt;Node70</title>
<path fill="none" stroke="midnightblue" d="M197.244,-54.2508C226.319,-47.738 260.69,-40.5965 292,-35.5331 532.841,3.41601 596.114,2.89459 840,-3.53309 950.706,-6.45077 1076.4,-13.355 1167.59,-19.0128"/>
<polygon fill="midnightblue" stroke="midnightblue" points="196.176,-50.9039 187.194,-56.5239 197.72,-57.7315 196.176,-50.9039"/>
</g>
<!-- Node72 -->
<g id="node7" class="node"><title>Node72</title>
<g id="a_node7"><a xlink:href="../../dd/d58/classorg_1_1lightjason_1_1trafficsimulation_1_1simulation_1_1algorithm_1_1routing_1_1CJPSPlus.htm#a7c6c3a92142a6ba8640d785a6d81848a" target="_top" xlink:title="Helper function to identify horizontal jump point. ">
<polygon fill="none" stroke="black" points="584,-13.5331 584,-41.5331 840,-41.5331 840,-13.5331 584,-13.5331"/>
<text text-anchor="start" x="592" y="-30.3331" font-family="Helvetica,sans-Serif" font-size="9.00">org.lightjason.trafficsimulation.simulation.algorithm.routing.</text>
<text text-anchor="middle" x="712" y="-20.3331" font-family="Helvetica,sans-Serif" font-size="9.00">CJPSPlus.horizontal</text>
</a>
</g>
</g>
<!-- Node66&#45;&gt;Node72 -->
<g id="edge7" class="edge"><title>Node66&#45;&gt;Node72</title>
<path fill="none" stroke="midnightblue" d="M266.415,-58.567C275.072,-57.8638 283.655,-57.1802 292,-56.5331 389.962,-48.9366 500.885,-41.3024 583.983,-35.7749"/>
<polygon fill="midnightblue" stroke="midnightblue" points="265.91,-55.0965 256.229,-59.4005 266.481,-62.0732 265.91,-55.0965"/>
</g>
<!-- Node73 -->
<g id="node8" class="node"><title>Node73</title>
<g id="a_node8"><a xlink:href="../../dd/d58/classorg_1_1lightjason_1_1trafficsimulation_1_1simulation_1_1algorithm_1_1routing_1_1CJPSPlus.htm#af5c40dcbd9dafbb4b5589e057e967d03" target="_top" xlink:title="Helper function to identify vertical jump point. ">
<polygon fill="none" stroke="black" points="292,-146.533 292,-174.533 548,-174.533 548,-146.533 292,-146.533"/>
<text text-anchor="start" x="300" y="-163.333" font-family="Helvetica,sans-Serif" font-size="9.00">org.lightjason.trafficsimulation.simulation.algorithm.routing.</text>
<text text-anchor="middle" x="420" y="-153.333" font-family="Helvetica,sans-Serif" font-size="9.00">CJPSPlus.vertical</text>
</a>
</g>
</g>
<!-- Node66&#45;&gt;Node73 -->
<g id="edge11" class="edge"><title>Node66&#45;&gt;Node73</title>
<path fill="none" stroke="midnightblue" d="M167.873,-88.8206C200.419,-103.507 248.41,-123.727 292,-136.533 304.81,-140.296 318.525,-143.607 332.034,-146.472"/>
<polygon fill="midnightblue" stroke="midnightblue" points="169.257,-85.605 158.706,-84.6455 166.356,-91.9754 169.257,-85.605"/>
</g>
<!-- Node68 -->
<g id="node3" class="node"><title>Node68</title>
<g id="a_node3"><a xlink:href="../../dd/d58/classorg_1_1lightjason_1_1trafficsimulation_1_1simulation_1_1algorithm_1_1routing_1_1CJPSPlus.htm#a3fe5a50404ebc64be3946811bfae657a" target="_top" xlink:title="In order to identify diagonal jump point. ">
<polygon fill="none" stroke="black" points="584,-99.5331 584,-127.533 840,-127.533 840,-99.5331 584,-99.5331"/>
<text text-anchor="start" x="592" y="-116.333" font-family="Helvetica,sans-Serif" font-size="9.00">org.lightjason.trafficsimulation.simulation.algorithm.routing.</text>
<text text-anchor="middle" x="712" y="-106.333" font-family="Helvetica,sans-Serif" font-size="9.00">CJPSPlus.diagjump</text>
</a>
</g>
</g>
<!-- Node67&#45;&gt;Node68 -->
<g id="edge2" class="edge"><title>Node67&#45;&gt;Node68</title>
<path fill="none" stroke="midnightblue" d="M558.245,-113.533C566.824,-113.533 575.439,-113.533 583.97,-113.533"/>
<polygon fill="midnightblue" stroke="midnightblue" points="558.198,-110.033 548.198,-113.533 558.198,-117.033 558.198,-110.033"/>
</g>
<!-- Node68&#45;&gt;Node69 -->
<g id="edge3" class="edge"><title>Node68&#45;&gt;Node69</title>
<path fill="none" stroke="midnightblue" d="M822.899,-98.6249C840.202,-97.1326 858.214,-95.7218 875.868,-94.4734"/>
<polygon fill="midnightblue" stroke="midnightblue" points="822.457,-95.1502 812.802,-99.5123 823.07,-102.123 822.457,-95.1502"/>
</g>
<!-- Node69&#45;&gt;Node68 -->
<g id="edge6" class="edge"><title>Node69&#45;&gt;Node68</title>
<path fill="none" stroke="midnightblue" d="M893.251,-106.428C875.924,-107.924 857.882,-109.337 840.198,-110.588"/>
<polygon fill="midnightblue" stroke="midnightblue" points="893.707,-109.902 903.362,-105.539 893.094,-102.929 893.707,-109.902"/>
</g>
<!-- Node69&#45;&gt;Node70 -->
<g id="edge4" class="edge"><title>Node69&#45;&gt;Node70</title>
<path fill="none" stroke="midnightblue" d="M1078.5,-75.3124C1125.71,-64.8944 1186.4,-51.5 1231.51,-41.5454"/>
<polygon fill="midnightblue" stroke="midnightblue" points="1077.65,-71.9151 1068.64,-77.488 1079.16,-78.7507 1077.65,-71.9151"/>
</g>
<!-- Node71 -->
<g id="node6" class="node"><title>Node71</title>
<g id="a_node6"><a xlink:href="../../dd/d58/classorg_1_1lightjason_1_1trafficsimulation_1_1simulation_1_1algorithm_1_1routing_1_1CJPSPlus.htm#aecb3e49cfae01851a9e000465c638567" target="_top" xlink:title="routing algorithm ">
<polygon fill="none" stroke="black" points="1460,-13.5331 1460,-41.5331 1716,-41.5331 1716,-13.5331 1460,-13.5331"/>
<text text-anchor="start" x="1468" y="-30.3331" font-family="Helvetica,sans-Serif" font-size="9.00">org.lightjason.trafficsimulation.simulation.algorithm.routing.</text>
<text text-anchor="middle" x="1588" y="-20.3331" font-family="Helvetica,sans-Serif" font-size="9.00">CJPSPlus.route</text>
</a>
</g>
</g>
<!-- Node70&#45;&gt;Node71 -->
<g id="edge5" class="edge"><title>Node70&#45;&gt;Node71</title>
<path fill="none" stroke="midnightblue" d="M1434.25,-27.5331C1442.82,-27.5331 1451.44,-27.5331 1459.97,-27.5331"/>
<polygon fill="midnightblue" stroke="midnightblue" points="1434.2,-24.0332 1424.2,-27.5331 1434.2,-31.0332 1434.2,-24.0332"/>
</g>
<!-- Node72&#45;&gt;Node69 -->
<g id="edge8" class="edge"><title>Node72&#45;&gt;Node69</title>
<path fill="none" stroke="midnightblue" d="M786.5,-43.7538C833.707,-54.1718 894.4,-67.5661 939.507,-77.5208"/>
<polygon fill="midnightblue" stroke="midnightblue" points="787.161,-40.3155 776.642,-41.5782 785.652,-47.151 787.161,-40.3155"/>
</g>
<!-- Node73&#45;&gt;Node69 -->
<g id="edge12" class="edge"><title>Node73&#45;&gt;Node69</title>
<path fill="none" stroke="midnightblue" d="M558.438,-159.985C640.615,-157.843 746.83,-151.883 840,-136.533 882.147,-129.589 929.039,-116.002 961.667,-105.566"/>
<polygon fill="midnightblue" stroke="midnightblue" points="558.195,-156.49 548.284,-160.234 558.366,-163.488 558.195,-156.49"/>
</g>
</g>
</svg>
        <g id="navigator" transform="translate(0 0)" fill="#404254">
                <rect fill="#f2f5e9" fill-opacity="0.5" stroke="#606060" stroke-width=".5" x="0" y="0" width="60" height="60"/>
                <use id="zoomplus" xlink:href="#zoomPlus" x="17" y="9" onmousedown="handleZoom(evt,'in')"/>
                <use id="zoomminus" xlink:href="#zoomMin" x="42" y="9" onmousedown="handleZoom(evt,'out')"/>
                <use id="reset" xlink:href="#resetDef" x="30" y="36" onmousedown="handleReset()"/>
                <g id="arrowUp" xlink:href="#dirArrow" transform="translate(30 24)" onmousedown="handlePan(0,-1)">
                  <use xlink:href="#rim" fill="#404040">
                        <set attributeName="fill" to="#808080" begin="arrowUp.mouseover" end="arrowUp.mouseout"/>
                  </use>
                  <path fill="none" stroke="white" stroke-width="1.5" d="M0,-3.0v7 M-2.5,-0.5L0,-3.0L2.5,-0.5"/>
                </g>
                <g id="arrowRight" xlink:href="#dirArrow" transform="rotate(90) translate(36 -43)" onmousedown="handlePan(1,0)">
                  <use xlink:href="#rim" fill="#404040">
                        <set attributeName="fill" to="#808080" begin="arrowRight.mouseover" end="arrowRight.mouseout"/>
                  </use>
                  <path fill="none" stroke="white" stroke-width="1.5" d="M0,-3.0v7 M-2.5,-0.5L0,-3.0L2.5,-0.5"/>
                </g>
                <g id="arrowDown" xlink:href="#dirArrow" transform="rotate(180) translate(-30 -48)" onmousedown="handlePan(0,1)">
                  <use xlink:href="#rim" fill="#404040">
                        <set attributeName="fill" to="#808080" begin="arrowDown.mouseover" end="arrowDown.mouseout"/>
                  </use>
                  <path fill="none" stroke="white" stroke-width="1.5" d="M0,-3.0v7 M-2.5,-0.5L0,-3.0L2.5,-0.5"/>
                </g>
                <g id="arrowLeft" xlink:href="#dirArrow" transform="rotate(270) translate(-36 17)" onmousedown="handlePan(-1,0)">
                  <use xlink:href="#rim" fill="#404040">
                        <set attributeName="fill" to="#808080" begin="arrowLeft.mouseover" end="arrowLeft.mouseout"/>
                  </use>
                  <path fill="none" stroke="white" stroke-width="1.5" d="M0,-3.0v7 M-2.5,-0.5L0,-3.0L2.5,-0.5"/>
                </g>
        </g>
        <svg viewBox="0 0 15 15" width="100%" height="30px" preserveAspectRatio="xMaxYMin meet">
         <g id="arrow_out" transform="scale(0.3 0.3)">
          <a xlink:href="classorg_1_1lightjason_1_1trafficsimulation_1_1simulation_1_1algorithm_1_1routing_1_1CJPSPlus_a58d369906836b7640a4920b93e6cc139_icgraph_org.svg" target="_base">
           <rect id="button" ry="5" rx="5" y="6" x="6" height="38" width="38"
                fill="#f2f5e9" fill-opacity="0.5" stroke="#606060" stroke-width="1.0"/>
           <path id="arrow"
             d="M 11.500037,31.436501 C 11.940474,20.09759 22.043105,11.32322 32.158766,21.979434 L 37.068811,17.246167 C 37.068811,17.246167 37.088388,32 37.088388,32 L 22.160133,31.978069 C 22.160133,31.978069 26.997745,27.140456 26.997745,27.140456 C 18.528582,18.264221 13.291696,25.230495 11.500037,31.436501 z"
             style="fill:#404040;"/>
          </a>
         </g>
        </svg>
</svg>
