<?xml version="1.0" encoding="UTF-8" standalone="no"?>
<!DOCTYPE svg PUBLIC "-//W3C//DTD SVG 1.1//EN"
 "http://www.w3.org/Graphics/SVG/1.1/DTD/svg11.dtd">
<!-- Generated by graphviz version 2.36.0 (20140111.2315)
 -->
<!-- Title: org.lightjason.trafficsimulation.simulation.algorithm.routing.CJPSPlus.diagjump Pages: 1 -->
<svg width="1140pt" height="190pt"
 viewBox="0.00 0.00 1140.00 190.18" xmlns="http://www.w3.org/2000/svg" xmlns:xlink="http://www.w3.org/1999/xlink">
<g id="graph0" class="graph" transform="scale(1 1) rotate(0) translate(4 186.179)">
<title>org.lightjason.trafficsimulation.simulation.algorithm.routing.CJPSPlus.diagjump</title>
<!-- Node19 -->
<g id="node1" class="node"><title>Node19</title>
<polygon fill="#bfbfbf" stroke="black" points="0,-68.1793 0,-96.1793 256,-96.1793 256,-68.1793 0,-68.1793"/>
<text text-anchor="start" x="8" y="-84.9793" font-family="Helvetica,sans-Serif" font-size="9.00">org.lightjason.trafficsimulation.simulation.algorithm.routing.</text>
<text text-anchor="middle" x="128" y="-74.9793" font-family="Helvetica,sans-Serif" font-size="9.00">CJPSPlus.diagjump</text>
</g>
<!-- Node20 -->
<g id="node2" class="node"><title>Node20</title>
<g id="a_node2"><a xlink:href="../../dd/d58/classorg_1_1lightjason_1_1trafficsimulation_1_1simulation_1_1algorithm_1_1routing_1_1CJPSPlus.htm#accdd1df4e9214e0336c31705152ff462" target="_top" xlink:title="Helper function to identify diagonal jump point. ">
<polygon fill="none" stroke="black" points="584,-154.179 584,-182.179 840,-182.179 840,-154.179 584,-154.179"/>
<text text-anchor="start" x="592" y="-170.979" font-family="Helvetica,sans-Serif" font-size="9.00">org.lightjason.trafficsimulation.simulation.algorithm.routing.</text>
<text text-anchor="middle" x="712" y="-160.979" font-family="Helvetica,sans-Serif" font-size="9.00">CJPSPlus.diagonal</text>
</a>
</g>
</g>
<!-- Node19&#45;&gt;Node20 -->
<g id="edge1" class="edge"><title>Node19&#45;&gt;Node20</title>
<path fill="none" stroke="midnightblue" d="M223.804,-96.1881C328.754,-111.696 497.433,-136.621 606.227,-152.697"/>
<polygon fill="midnightblue" stroke="midnightblue" points="605.833,-156.177 616.237,-154.176 606.856,-149.252 605.833,-156.177"/>
</g>
<!-- Node23 -->
<g id="node5" class="node"><title>Node23</title>
<g id="a_node5"><a xlink:href="../../dd/d58/classorg_1_1lightjason_1_1trafficsimulation_1_1simulation_1_1algorithm_1_1routing_1_1CJPSPlus.htm#a2e9e6b64161af027f7f03da312ab8006" target="_top" xlink:title="In order to identify individual jump point successors heading in a given direction (run recursively u...">
<polygon fill="none" stroke="black" points="292,-68.1793 292,-96.1793 548,-96.1793 548,-68.1793 292,-68.1793"/>
<text text-anchor="start" x="300" y="-84.9793" font-family="Helvetica,sans-Serif" font-size="9.00">org.lightjason.trafficsimulation.simulation.algorithm.routing.</text>
<text text-anchor="middle" x="420" y="-74.9793" font-family="Helvetica,sans-Serif" font-size="9.00">CJPSPlus.jump</text>
</a>
</g>
</g>
<!-- Node19&#45;&gt;Node23 -->
<g id="edge4" class="edge"><title>Node19&#45;&gt;Node23</title>
<path fill="none" stroke="midnightblue" d="M256.198,-75.4747C264.73,-75.431 273.346,-75.4188 281.924,-75.4382"/>
<polygon fill="midnightblue" stroke="midnightblue" points="281.957,-78.9383 291.97,-75.4756 281.983,-71.9383 281.957,-78.9383"/>
</g>
<!-- Node21 -->
<g id="node3" class="node"><title>Node21</title>
<g id="a_node3"><a xlink:href="../../dd/d58/classorg_1_1lightjason_1_1trafficsimulation_1_1simulation_1_1algorithm_1_1routing_1_1CJPSPlus.htm#adf49a781926a9c9eb46d6bf852cbd2e4" target="_top" xlink:title="To check any point is in the grid environment or out of environment. ">
<polygon fill="none" stroke="black" points="876,-32.1793 876,-60.1793 1132,-60.1793 1132,-32.1793 876,-32.1793"/>
<text text-anchor="start" x="884" y="-48.9793" font-family="Helvetica,sans-Serif" font-size="9.00">org.lightjason.trafficsimulation.simulation.algorithm.routing.</text>
<text text-anchor="middle" x="1004" y="-38.9793" font-family="Helvetica,sans-Serif" font-size="9.00">CJPSPlus.isNotCoordinate</text>
</a>
</g>
</g>
<!-- Node20&#45;&gt;Node21 -->
<g id="edge2" class="edge"><title>Node20&#45;&gt;Node21</title>
<path fill="none" stroke="midnightblue" d="M740.595,-154.097C772.708,-137.954 827.532,-111.155 876,-91.1793 900.128,-81.2354 927.345,-71.4123 950.377,-63.4932"/>
<polygon fill="midnightblue" stroke="midnightblue" points="951.636,-66.7619 959.971,-60.2211 949.376,-60.1367 951.636,-66.7619"/>
</g>
<!-- Node22 -->
<g id="node4" class="node"><title>Node22</title>
<g id="a_node4"><a xlink:href="../../dd/d58/classorg_1_1lightjason_1_1trafficsimulation_1_1simulation_1_1algorithm_1_1routing_1_1CJPSPlus.htm#a58d369906836b7640a4920b93e6cc139" target="_top" xlink:title="To check any point in the grid environment is free or occupied. ">
<polygon fill="none" stroke="black" points="876,-100.179 876,-128.179 1132,-128.179 1132,-100.179 876,-100.179"/>
<text text-anchor="start" x="884" y="-116.979" font-family="Helvetica,sans-Serif" font-size="9.00">org.lightjason.trafficsimulation.simulation.algorithm.routing.</text>
<text text-anchor="middle" x="1004" y="-106.979" font-family="Helvetica,sans-Serif" font-size="9.00">CJPSPlus.isOccupied</text>
</a>
</g>
</g>
<!-- Node20&#45;&gt;Node22 -->
<g id="edge3" class="edge"><title>Node20&#45;&gt;Node22</title>
<path fill="none" stroke="midnightblue" d="M788.437,-154.132C828.05,-146.756 876.74,-137.69 917.719,-130.059"/>
<polygon fill="midnightblue" stroke="midnightblue" points="918.499,-133.474 927.689,-128.203 917.217,-126.592 918.499,-133.474"/>
</g>
<!-- Node23&#45;&gt;Node19 -->
<g id="edge7" class="edge"><title>Node23&#45;&gt;Node19</title>
<path fill="none" stroke="midnightblue" d="M291.97,-88.883C283.439,-88.9271 274.824,-88.9397 266.245,-88.9207"/>
<polygon fill="midnightblue" stroke="midnightblue" points="266.211,-85.4206 256.198,-88.8838 266.185,-92.4206 266.211,-85.4206"/>
</g>
<!-- Node23&#45;&gt;Node21 -->
<g id="edge6" class="edge"><title>Node23&#45;&gt;Node21</title>
<path fill="none" stroke="midnightblue" d="M444.806,-68.0633C475.663,-50.6659 531.723,-22.0705 584,-11.1793 708.51,14.761 857.624,-10.8209 940.176,-29.8092"/>
<polygon fill="midnightblue" stroke="midnightblue" points="939.617,-33.2729 950.152,-32.1465 941.214,-26.4574 939.617,-33.2729"/>
</g>
<!-- Node23&#45;&gt;Node22 -->
<g id="edge5" class="edge"><title>Node23&#45;&gt;Node22</title>
<path fill="none" stroke="midnightblue" d="M506.651,-96.2108C531.53,-99.7582 558.79,-103.137 584,-105.179 677.811,-112.778 783.797,-114.996 865.703,-115.33"/>
<polygon fill="midnightblue" stroke="midnightblue" points="865.812,-118.83 875.823,-115.362 865.834,-111.83 865.812,-118.83"/>
</g>
<!-- Node24 -->
<g id="node6" class="node"><title>Node24</title>
<g id="a_node6"><a xlink:href="../../dd/d58/classorg_1_1lightjason_1_1trafficsimulation_1_1simulation_1_1algorithm_1_1routing_1_1CJPSPlus.htm#a7c6c3a92142a6ba8640d785a6d81848a" target="_top" xlink:title="Helper function to identify horizontal jump point. ">
<polygon fill="none" stroke="black" points="584,-68.1793 584,-96.1793 840,-96.1793 840,-68.1793 584,-68.1793"/>
<text text-anchor="start" x="592" y="-84.9793" font-family="Helvetica,sans-Serif" font-size="9.00">org.lightjason.trafficsimulation.simulation.algorithm.routing.</text>
<text text-anchor="middle" x="712" y="-74.9793" font-family="Helvetica,sans-Serif" font-size="9.00">CJPSPlus.horizontal</text>
</a>
</g>
</g>
<!-- Node23&#45;&gt;Node24 -->
<g id="edge8" class="edge"><title>Node23&#45;&gt;Node24</title>
<path fill="none" stroke="midnightblue" d="M548.198,-82.1793C556.73,-82.1793 565.346,-82.1793 573.924,-82.1793"/>
<polygon fill="midnightblue" stroke="midnightblue" points="573.97,-85.6794 583.97,-82.1793 573.97,-78.6794 573.97,-85.6794"/>
</g>
<!-- Node25 -->
<g id="node7" class="node"><title>Node25</title>
<g id="a_node7"><a xlink:href="../../dd/d58/classorg_1_1lightjason_1_1trafficsimulation_1_1simulation_1_1algorithm_1_1routing_1_1CJPSPlus.htm#af5c40dcbd9dafbb4b5589e057e967d03" target="_top" xlink:title="Helper function to identify vertical jump point. ">
<polygon fill="none" stroke="black" points="584,-21.1793 584,-49.1793 840,-49.1793 840,-21.1793 584,-21.1793"/>
<text text-anchor="start" x="592" y="-37.9793" font-family="Helvetica,sans-Serif" font-size="9.00">org.lightjason.trafficsimulation.simulation.algorithm.routing.</text>
<text text-anchor="middle" x="712" y="-27.9793" font-family="Helvetica,sans-Serif" font-size="9.00">CJPSPlus.vertical</text>
</a>
</g>
</g>
<!-- Node23&#45;&gt;Node25 -->
<g id="edge11" class="edge"><title>Node23&#45;&gt;Node25</title>
<path fill="none" stroke="midnightblue" d="M507.617,-68.1414C541.264,-62.6882 579.946,-56.419 614.482,-50.8219"/>
<polygon fill="midnightblue" stroke="midnightblue" points="615.268,-54.2402 624.579,-49.1854 614.148,-47.3304 615.268,-54.2402"/>
</g>
<!-- Node24&#45;&gt;Node21 -->
<g id="edge9" class="edge"><title>Node24&#45;&gt;Node21</title>
<path fill="none" stroke="midnightblue" d="M825.952,-68.1576C843.501,-65.9792 861.709,-63.7189 879.477,-61.5132"/>
<polygon fill="midnightblue" stroke="midnightblue" points="880.387,-64.9272 889.879,-60.2218 879.524,-57.9805 880.387,-64.9272"/>
</g>
<!-- Node24&#45;&gt;Node22 -->
<g id="edge10" class="edge"><title>Node24&#45;&gt;Node22</title>
<path fill="none" stroke="midnightblue" d="M840.198,-96.2149C848.73,-97.1564 857.346,-98.1071 865.924,-99.0536"/>
<polygon fill="midnightblue" stroke="midnightblue" points="865.646,-102.544 875.97,-100.162 866.414,-95.5864 865.646,-102.544"/>
</g>
<!-- Node25&#45;&gt;Node21 -->
<g id="edge12" class="edge"><title>Node25&#45;&gt;Node21</title>
<path fill="none" stroke="midnightblue" d="M840.198,-40.004C848.73,-40.3277 857.346,-40.6544 865.924,-40.9798"/>
<polygon fill="midnightblue" stroke="midnightblue" points="865.844,-44.4792 875.97,-41.3609 866.11,-37.4843 865.844,-44.4792"/>
</g>
<!-- Node25&#45;&gt;Node22 -->
<g id="edge13" class="edge"><title>Node25&#45;&gt;Node22</title>
<path fill="none" stroke="midnightblue" d="M796.373,-49.2219C810.991,-52.1708 825.999,-55.5131 840,-59.1793 879.93,-69.6349 924.252,-84.8309 956.587,-96.6018"/>
<polygon fill="midnightblue" stroke="midnightblue" points="955.626,-99.9771 966.219,-100.136 958.037,-93.4054 955.626,-99.9771"/>
</g>
</g>
</svg>
