<?xml version="1.0" encoding="UTF-8" standalone="no"?>
<!DOCTYPE svg PUBLIC "-//W3C//DTD SVG 1.1//EN"
 "http://www.w3.org/Graphics/SVG/1.1/DTD/svg11.dtd">
<!-- Generated by graphviz version 2.36.0 (20140111.2315)
 -->
<!-- Title: org.lightjason.trafficsimulation.simulation.algorithm.routing.CJPSPlus.route Pages: 1 -->
<!--zoomable 520 -->
<svg id="main" version="1.1" xmlns="http://www.w3.org/2000/svg" xmlns:xlink="http://www.w3.org/1999/xlink" xml:space="preserve" onload="init(evt)">
<style type="text/css"><![CDATA[
.edge:hover path { stroke: red; }
.edge:hover polygon { stroke: red; fill: red; }
]]></style>
<script type="text/javascript"><![CDATA[
var edges = document.getElementsByTagName('g');
if (edges && edges.length) {
  for (var i=0;i<edges.length;i++) {
    if (edges[i].id.substr(0,4)=='edge') {
      edges[i].setAttribute('class','edge');
    }
  }
}
]]></script>
        <defs>
                <circle id="rim" cx="0" cy="0" r="7"/>
                <circle id="rim2" cx="0" cy="0" r="3.5"/>
                <g id="zoomPlus">
                        <use xlink:href="#rim" fill="#404040">
                                <set attributeName="fill" to="#808080" begin="zoomplus.mouseover" end="zoomplus.mouseout"/>
                        </use>
                        <path d="M-4,0h8M0,-4v8" fill="none" stroke="white" stroke-width="1.5" pointer-events="none"/>
                </g>
                <g id="zoomMin">
                        <use xlink:href="#rim" fill="#404040">
                                <set attributeName="fill" to="#808080" begin="zoomminus.mouseover" end="zoomminus.mouseout"/>
                        </use>
                        <path d="M-4,0h8" fill="none" stroke="white" stroke-width="1.5" pointer-events="none"/>
                </g>
                <g id="dirArrow">
                        <path fill="none" stroke="white" stroke-width="1.5" d="M0,-3.0v7 M-2.5,-0.5L0,-3.0L2.5,-0.5"/>
                </g>
               <g id="resetDef">
                       <use xlink:href="#rim2" fill="#404040">
                               <set attributeName="fill" to="#808080" begin="reset.mouseover" end="reset.mouseout"/>
                       </use>
               </g>
        </defs>

<script type="text/javascript">
var viewWidth = 1724;
var viewHeight = 520;
var sectionId = 'dynsection-18';
</script>
<script xlink:href="../../svgpan.js"/>
<svg id="graph" class="graph">
<g id="viewport">
<title>org.lightjason.trafficsimulation.simulation.algorithm.routing.CJPSPlus.route</title>
<!-- Node85 -->
<g id="node1" class="node"><title>Node85</title>
<polygon fill="#bfbfbf" stroke="black" points="0,-96 0,-124 256,-124 256,-96 0,-96"/>
<text text-anchor="start" x="8" y="-112.8" font-family="Helvetica,sans-Serif" font-size="9.00">org.lightjason.trafficsimulation.simulation.algorithm.routing.</text>
<text text-anchor="middle" x="128" y="-102.8" font-family="Helvetica,sans-Serif" font-size="9.00">CJPSPlus.route</text>
</g>
<!-- Node86 -->
<g id="node2" class="node"><title>Node86</title>
<g id="a_node2"><a xlink:href="../../d9/d71/classorg_1_1lightjason_1_1trafficsimulation_1_1simulation_1_1algorithm_1_1routing_1_1CJPSPlus_1_1CJumpPoint.htm#a6f129e7d96f6b1ee8b1f0bf0215838ec" target="_top" xlink:title="getter for coordinate ">
<polygon fill="none" stroke="black" points="1168,-141 1168,-169 1424,-169 1424,-141 1168,-141"/>
<text text-anchor="start" x="1176" y="-157.8" font-family="Helvetica,sans-Serif" font-size="9.00">org.lightjason.trafficsimulation.simulation.algorithm.routing.</text>
<text text-anchor="middle" x="1296" y="-147.8" font-family="Helvetica,sans-Serif" font-size="9.00">CJPSPlus.CJumpPoint.coordinate</text>
</a>
</g>
</g>
<!-- Node85&#45;&gt;Node86 -->
<g id="edge1" class="edge"><title>Node85&#45;&gt;Node86</title>
<path fill="none" stroke="midnightblue" d="M256.002,-114.901C476.861,-123.425 929.846,-140.907 1157.7,-149.701"/>
<polygon fill="midnightblue" stroke="midnightblue" points="1157.58,-153.199 1167.71,-150.088 1157.85,-146.204 1157.58,-153.199"/>
</g>
<!-- Node87 -->
<g id="node3" class="node"><title>Node87</title>
<g id="a_node3"><a xlink:href="../../d9/d71/classorg_1_1lightjason_1_1trafficsimulation_1_1simulation_1_1algorithm_1_1routing_1_1CJPSPlus_1_1CJumpPoint.htm#a7ef896fc661b726f5245ea139ede8374" target="_top" xlink:title="getter for parent ">
<polygon fill="none" stroke="black" points="1168,-0 1168,-28 1424,-28 1424,-0 1168,-0"/>
<text text-anchor="start" x="1176" y="-16.8" font-family="Helvetica,sans-Serif" font-size="9.00">org.lightjason.trafficsimulation.simulation.algorithm.routing.</text>
<text text-anchor="middle" x="1296" y="-6.8" font-family="Helvetica,sans-Serif" font-size="9.00">CJPSPlus.CJumpPoint.parent</text>
</a>
</g>
</g>
<!-- Node85&#45;&gt;Node87 -->
<g id="edge2" class="edge"><title>Node85&#45;&gt;Node87</title>
<path fill="none" stroke="midnightblue" d="M256.151,-97.8017C404.753,-83.7297 658.1,-60.3109 876,-43 970.025,-35.5302 1076.01,-28.205 1157.86,-22.7855"/>
<polygon fill="midnightblue" stroke="midnightblue" points="1158.23,-26.269 1167.97,-22.1174 1157.76,-19.2842 1158.23,-26.269"/>
</g>
<!-- Node88 -->
<g id="node4" class="node"><title>Node88</title>
<g id="a_node4"><a xlink:href="../../dd/d58/classorg_1_1lightjason_1_1trafficsimulation_1_1simulation_1_1algorithm_1_1routing_1_1CJPSPlus.htm#a3f4b1b068738b9a1607eadab094a5971" target="_top" xlink:title="individual jump point successors are identified ">
<polygon fill="none" stroke="black" points="292,-241 292,-269 548,-269 548,-241 292,-241"/>
<text text-anchor="start" x="300" y="-257.8" font-family="Helvetica,sans-Serif" font-size="9.00">org.lightjason.trafficsimulation.simulation.algorithm.routing.</text>
<text text-anchor="middle" x="420" y="-247.8" font-family="Helvetica,sans-Serif" font-size="9.00">CJPSPlus.successors</text>
</a>
</g>
</g>
<!-- Node85&#45;&gt;Node88 -->
<g id="edge3" class="edge"><title>Node85&#45;&gt;Node88</title>
<path fill="none" stroke="midnightblue" d="M157.07,-124.035C209.692,-150.346 323.151,-207.076 381.963,-236.481"/>
<polygon fill="midnightblue" stroke="midnightblue" points="380.405,-239.616 390.915,-240.957 383.536,-233.355 380.405,-239.616"/>
</g>
<!-- Node88&#45;&gt;Node86 -->
<g id="edge6" class="edge"><title>Node88&#45;&gt;Node86</title>
<path fill="none" stroke="midnightblue" d="M548.041,-252.083C721.725,-247.336 1024.05,-236.157 1132,-214 1175.28,-205.116 1222.53,-187.017 1254.96,-173.195"/>
<polygon fill="midnightblue" stroke="midnightblue" points="1256.74,-176.239 1264.53,-169.057 1253.96,-169.814 1256.74,-176.239"/>
</g>
<!-- Node89 -->
<g id="node5" class="node"><title>Node89</title>
<g id="a_node5"><a xlink:href="../../dd/d58/classorg_1_1lightjason_1_1trafficsimulation_1_1simulation_1_1algorithm_1_1routing_1_1CJPSPlus.htm#a17734a60539fcddb07630c5345d5e812" target="_top" xlink:title="Finds the non valid successors of any grid. ">
<polygon fill="none" stroke="black" points="584,-263 584,-291 840,-291 840,-263 584,-263"/>
<text text-anchor="start" x="592" y="-279.8" font-family="Helvetica,sans-Serif" font-size="9.00">org.lightjason.trafficsimulation.simulation.algorithm.routing.</text>
<text text-anchor="middle" x="712" y="-269.8" font-family="Helvetica,sans-Serif" font-size="9.00">CJPSPlus.isNotNeighbour</text>
</a>
</g>
</g>
<!-- Node88&#45;&gt;Node89 -->
<g id="edge4" class="edge"><title>Node88&#45;&gt;Node89</title>
<path fill="none" stroke="midnightblue" d="M548.198,-264.65C556.73,-265.297 565.346,-265.95 573.924,-266.601"/>
<polygon fill="midnightblue" stroke="midnightblue" points="573.734,-270.097 583.97,-267.363 574.263,-263.117 573.734,-270.097"/>
</g>
<!-- Node91 -->
<g id="node7" class="node"><title>Node91</title>
<g id="a_node7"><a xlink:href="../../dd/d58/classorg_1_1lightjason_1_1trafficsimulation_1_1simulation_1_1algorithm_1_1routing_1_1CJPSPlus.htm#a58d369906836b7640a4920b93e6cc139" target="_top" xlink:title="To check any point in the grid environment is free or occupied. ">
<polygon fill="none" stroke="black" points="1460,-433 1460,-461 1716,-461 1716,-433 1460,-433"/>
<text text-anchor="start" x="1468" y="-449.8" font-family="Helvetica,sans-Serif" font-size="9.00">org.lightjason.trafficsimulation.simulation.algorithm.routing.</text>
<text text-anchor="middle" x="1588" y="-439.8" font-family="Helvetica,sans-Serif" font-size="9.00">CJPSPlus.isOccupied</text>
</a>
</g>
</g>
<!-- Node88&#45;&gt;Node91 -->
<g id="edge7" class="edge"><title>Node88&#45;&gt;Node91</title>
<path fill="none" stroke="midnightblue" d="M436.465,-269.374C464.114,-294.4 524.698,-346.237 584,-377 705.144,-439.843 741.976,-446.258 876,-472 1115.33,-517.968 1182.41,-523.034 1424,-491 1462.71,-485.867 1505.27,-474.161 1537.19,-464.113"/>
<polygon fill="midnightblue" stroke="midnightblue" points="1538.29,-467.439 1546.74,-461.057 1536.15,-460.772 1538.29,-467.439"/>
</g>
<!-- Node92 -->
<g id="node8" class="node"><title>Node92</title>
<g id="a_node8"><a xlink:href="../../dd/d58/classorg_1_1lightjason_1_1trafficsimulation_1_1simulation_1_1algorithm_1_1routing_1_1CJPSPlus.htm#a2e9e6b64161af027f7f03da312ab8006" target="_top" xlink:title="In order to identify individual jump point successors heading in a given direction (run recursively u...">
<polygon fill="none" stroke="black" points="584,-340 584,-368 840,-368 840,-340 584,-340"/>
<text text-anchor="start" x="592" y="-356.8" font-family="Helvetica,sans-Serif" font-size="9.00">org.lightjason.trafficsimulation.simulation.algorithm.routing.</text>
<text text-anchor="middle" x="712" y="-346.8" font-family="Helvetica,sans-Serif" font-size="9.00">CJPSPlus.jump</text>
</a>
</g>
</g>
<!-- Node88&#45;&gt;Node92 -->
<g id="edge8" class="edge"><title>Node88&#45;&gt;Node92</title>
<path fill="none" stroke="midnightblue" d="M462.242,-269.079C514.316,-286.856 603.882,-317.432 660.142,-336.638"/>
<polygon fill="midnightblue" stroke="midnightblue" points="659.306,-340.051 669.9,-339.969 661.567,-333.426 659.306,-340.051"/>
</g>
<!-- Node97 -->
<g id="node13" class="node"><title>Node97</title>
<g id="a_node13"><a xlink:href="../../dd/d58/classorg_1_1lightjason_1_1trafficsimulation_1_1simulation_1_1algorithm_1_1routing_1_1CJPSPlus.htm#a1c2c171c870399017d9c774bdb59950d" target="_top" xlink:title="Validated successors are added to open list. ">
<polygon fill="none" stroke="black" points="584,-158 584,-186 840,-186 840,-158 584,-158"/>
<text text-anchor="start" x="592" y="-174.8" font-family="Helvetica,sans-Serif" font-size="9.00">org.lightjason.trafficsimulation.simulation.algorithm.routing.</text>
<text text-anchor="middle" x="712" y="-164.8" font-family="Helvetica,sans-Serif" font-size="9.00">CJPSPlus.addsuccessors</text>
</a>
</g>
</g>
<!-- Node88&#45;&gt;Node97 -->
<g id="edge22" class="edge"><title>Node88&#45;&gt;Node97</title>
<path fill="none" stroke="midnightblue" d="M470.195,-240.92C520.549,-226.508 598.806,-204.111 652.351,-188.786"/>
<polygon fill="midnightblue" stroke="midnightblue" points="653.398,-192.127 662.049,-186.01 651.472,-185.397 653.398,-192.127"/>
</g>
<!-- Node90 -->
<g id="node6" class="node"><title>Node90</title>
<g id="a_node6"><a xlink:href="../../dd/d58/classorg_1_1lightjason_1_1trafficsimulation_1_1simulation_1_1algorithm_1_1routing_1_1CJPSPlus.htm#adf49a781926a9c9eb46d6bf852cbd2e4" target="_top" xlink:title="To check any point is in the grid environment or out of environment. ">
<polygon fill="none" stroke="black" points="1460,-339 1460,-367 1716,-367 1716,-339 1460,-339"/>
<text text-anchor="start" x="1468" y="-355.8" font-family="Helvetica,sans-Serif" font-size="9.00">org.lightjason.trafficsimulation.simulation.algorithm.routing.</text>
<text text-anchor="middle" x="1588" y="-345.8" font-family="Helvetica,sans-Serif" font-size="9.00">CJPSPlus.isNotCoordinate</text>
</a>
</g>
</g>
<!-- Node89&#45;&gt;Node90 -->
<g id="edge5" class="edge"><title>Node89&#45;&gt;Node90</title>
<path fill="none" stroke="midnightblue" d="M840.219,-276.185C983.031,-276.95 1221.31,-283.274 1424,-313 1459.77,-318.246 1499.15,-327.802 1530.25,-336.259"/>
<polygon fill="midnightblue" stroke="midnightblue" points="1529.47,-339.674 1540.04,-338.959 1531.33,-332.926 1529.47,-339.674"/>
</g>
<!-- Node92&#45;&gt;Node90 -->
<g id="edge17" class="edge"><title>Node92&#45;&gt;Node90</title>
<path fill="none" stroke="midnightblue" d="M792.337,-339.999C818.85,-335.94 848.617,-332.052 876,-330 1118.87,-311.797 1181.09,-311.213 1424,-329 1447.96,-330.755 1473.75,-333.942 1497.58,-337.432"/>
<polygon fill="midnightblue" stroke="midnightblue" points="1497.26,-340.923 1507.67,-338.944 1498.3,-334 1497.26,-340.923"/>
</g>
<!-- Node92&#45;&gt;Node91 -->
<g id="edge18" class="edge"><title>Node92&#45;&gt;Node91</title>
<path fill="none" stroke="midnightblue" d="M736.347,-368.111C767.167,-386.038 823.659,-416.502 876,-432 1110.09,-501.313 1180.46,-487.098 1424,-470 1446.72,-468.405 1471.1,-465.573 1493.89,-462.43"/>
<polygon fill="midnightblue" stroke="midnightblue" points="1494.48,-465.881 1503.9,-461.017 1493.51,-458.95 1494.48,-465.881"/>
</g>
<!-- Node93 -->
<g id="node9" class="node"><title>Node93</title>
<g id="a_node9"><a xlink:href="../../dd/d58/classorg_1_1lightjason_1_1trafficsimulation_1_1simulation_1_1algorithm_1_1routing_1_1CJPSPlus.htm#a3fe5a50404ebc64be3946811bfae657a" target="_top" xlink:title="In order to identify diagonal jump point. ">
<polygon fill="none" stroke="black" points="876,-340 876,-368 1132,-368 1132,-340 876,-340"/>
<text text-anchor="start" x="884" y="-356.8" font-family="Helvetica,sans-Serif" font-size="9.00">org.lightjason.trafficsimulation.simulation.algorithm.routing.</text>
<text text-anchor="middle" x="1004" y="-346.8" font-family="Helvetica,sans-Serif" font-size="9.00">CJPSPlus.diagjump</text>
</a>
</g>
</g>
<!-- Node92&#45;&gt;Node93 -->
<g id="edge9" class="edge"><title>Node92&#45;&gt;Node93</title>
<path fill="none" stroke="midnightblue" d="M840.198,-347.295C848.73,-347.252 857.346,-347.24 865.924,-347.259"/>
<polygon fill="midnightblue" stroke="midnightblue" points="865.957,-350.759 875.97,-347.296 865.983,-343.759 865.957,-350.759"/>
</g>
<!-- Node95 -->
<g id="node11" class="node"><title>Node95</title>
<g id="a_node11"><a xlink:href="../../dd/d58/classorg_1_1lightjason_1_1trafficsimulation_1_1simulation_1_1algorithm_1_1routing_1_1CJPSPlus.htm#a7c6c3a92142a6ba8640d785a6d81848a" target="_top" xlink:title="Helper function to identify horizontal jump point. ">
<polygon fill="none" stroke="black" points="1168,-433 1168,-461 1424,-461 1424,-433 1168,-433"/>
<text text-anchor="start" x="1176" y="-449.8" font-family="Helvetica,sans-Serif" font-size="9.00">org.lightjason.trafficsimulation.simulation.algorithm.routing.</text>
<text text-anchor="middle" x="1296" y="-439.8" font-family="Helvetica,sans-Serif" font-size="9.00">CJPSPlus.horizontal</text>
</a>
</g>
</g>
<!-- Node92&#45;&gt;Node95 -->
<g id="edge14" class="edge"><title>Node92&#45;&gt;Node95</title>
<path fill="none" stroke="midnightblue" d="M755.438,-368.037C788.067,-378.325 834.448,-391.863 876,-400 969.094,-418.23 1075.31,-430.048 1157.51,-437.273"/>
<polygon fill="midnightblue" stroke="midnightblue" points="1157.4,-440.777 1167.66,-438.154 1158,-433.803 1157.4,-440.777"/>
</g>
<!-- Node96 -->
<g id="node12" class="node"><title>Node96</title>
<g id="a_node12"><a xlink:href="../../dd/d58/classorg_1_1lightjason_1_1trafficsimulation_1_1simulation_1_1algorithm_1_1routing_1_1CJPSPlus.htm#af5c40dcbd9dafbb4b5589e057e967d03" target="_top" xlink:title="Helper function to identify vertical jump point. ">
<polygon fill="none" stroke="black" points="1168,-386 1168,-414 1424,-414 1424,-386 1168,-386"/>
<text text-anchor="start" x="1176" y="-402.8" font-family="Helvetica,sans-Serif" font-size="9.00">org.lightjason.trafficsimulation.simulation.algorithm.routing.</text>
<text text-anchor="middle" x="1296" y="-392.8" font-family="Helvetica,sans-Serif" font-size="9.00">CJPSPlus.vertical</text>
</a>
</g>
</g>
<!-- Node92&#45;&gt;Node96 -->
<g id="edge19" class="edge"><title>Node92&#45;&gt;Node96</title>
<path fill="none" stroke="midnightblue" d="M802.512,-368.031C826.345,-371.383 852.108,-374.663 876,-377 969.791,-386.174 1075.78,-391.95 1157.69,-395.419"/>
<polygon fill="midnightblue" stroke="midnightblue" points="1157.67,-398.921 1167.81,-395.841 1157.96,-391.927 1157.67,-398.921"/>
</g>
<!-- Node93&#45;&gt;Node92 -->
<g id="edge13" class="edge"><title>Node93&#45;&gt;Node92</title>
<path fill="none" stroke="midnightblue" d="M875.97,-360.704C867.439,-360.748 858.824,-360.76 850.245,-360.741"/>
<polygon fill="midnightblue" stroke="midnightblue" points="850.211,-357.241 840.198,-360.705 850.185,-364.241 850.211,-357.241"/>
</g>
<!-- Node94 -->
<g id="node10" class="node"><title>Node94</title>
<g id="a_node10"><a xlink:href="../../dd/d58/classorg_1_1lightjason_1_1trafficsimulation_1_1simulation_1_1algorithm_1_1routing_1_1CJPSPlus.htm#accdd1df4e9214e0336c31705152ff462" target="_top" xlink:title="Helper function to identify diagonal jump point. ">
<polygon fill="none" stroke="black" points="1168,-339 1168,-367 1424,-367 1424,-339 1168,-339"/>
<text text-anchor="start" x="1176" y="-355.8" font-family="Helvetica,sans-Serif" font-size="9.00">org.lightjason.trafficsimulation.simulation.algorithm.routing.</text>
<text text-anchor="middle" x="1296" y="-345.8" font-family="Helvetica,sans-Serif" font-size="9.00">CJPSPlus.diagonal</text>
</a>
</g>
</g>
<!-- Node93&#45;&gt;Node94 -->
<g id="edge10" class="edge"><title>Node93&#45;&gt;Node94</title>
<path fill="none" stroke="midnightblue" d="M1132.2,-353.561C1140.73,-353.532 1149.35,-353.502 1157.92,-353.473"/>
<polygon fill="midnightblue" stroke="midnightblue" points="1157.98,-356.973 1167.97,-353.438 1157.96,-349.973 1157.98,-356.973"/>
</g>
<!-- Node94&#45;&gt;Node90 -->
<g id="edge11" class="edge"><title>Node94&#45;&gt;Node90</title>
<path fill="none" stroke="midnightblue" d="M1424.2,-353C1432.73,-353 1441.35,-353 1449.92,-353"/>
<polygon fill="midnightblue" stroke="midnightblue" points="1449.97,-356.5 1459.97,-353 1449.97,-349.5 1449.97,-356.5"/>
</g>
<!-- Node94&#45;&gt;Node91 -->
<g id="edge12" class="edge"><title>Node94&#45;&gt;Node91</title>
<path fill="none" stroke="midnightblue" d="M1388.83,-367.012C1400.76,-369.595 1412.74,-372.58 1424,-376 1469.16,-389.721 1518.52,-412.381 1550.96,-428.406"/>
<polygon fill="midnightblue" stroke="midnightblue" points="1549.54,-431.609 1560.05,-432.943 1552.66,-425.346 1549.54,-431.609"/>
</g>
<!-- Node95&#45;&gt;Node90 -->
<g id="edge15" class="edge"><title>Node95&#45;&gt;Node90</title>
<path fill="none" stroke="midnightblue" d="M1385.06,-432.955C1398.23,-430.108 1411.55,-426.799 1424,-423 1468.77,-409.336 1517.84,-387.221 1550.32,-371.507"/>
<polygon fill="midnightblue" stroke="midnightblue" points="1551.98,-374.59 1559.43,-367.055 1548.91,-368.3 1551.98,-374.59"/>
</g>
<!-- Node95&#45;&gt;Node91 -->
<g id="edge16" class="edge"><title>Node95&#45;&gt;Node91</title>
<path fill="none" stroke="midnightblue" d="M1424.2,-447C1432.73,-447 1441.35,-447 1449.92,-447"/>
<polygon fill="midnightblue" stroke="midnightblue" points="1449.97,-450.5 1459.97,-447 1449.97,-443.5 1449.97,-450.5"/>
</g>
<!-- Node96&#45;&gt;Node90 -->
<g id="edge20" class="edge"><title>Node96&#45;&gt;Node90</title>
<path fill="none" stroke="midnightblue" d="M1383.62,-385.962C1417.26,-380.509 1455.95,-374.24 1490.48,-368.643"/>
<polygon fill="midnightblue" stroke="midnightblue" points="1491.27,-372.061 1500.58,-367.006 1490.15,-365.151 1491.27,-372.061"/>
</g>
<!-- Node96&#45;&gt;Node91 -->
<g id="edge21" class="edge"><title>Node96&#45;&gt;Node91</title>
<path fill="none" stroke="midnightblue" d="M1383.62,-414.038C1417.26,-419.491 1455.95,-425.76 1490.48,-431.357"/>
<polygon fill="midnightblue" stroke="midnightblue" points="1490.15,-434.849 1500.58,-432.994 1491.27,-427.939 1490.15,-434.849"/>
</g>
<!-- Node97&#45;&gt;Node86 -->
<g id="edge28" class="edge"><title>Node97&#45;&gt;Node86</title>
<path fill="none" stroke="midnightblue" d="M840.245,-168.072C852.33,-167.706 864.397,-167.344 876,-167 969.824,-164.217 1075.47,-161.193 1157.2,-158.876"/>
<polygon fill="midnightblue" stroke="midnightblue" points="1157.66,-162.364 1167.56,-158.583 1157.46,-155.367 1157.66,-162.364"/>
</g>
<!-- Node98 -->
<g id="node14" class="node"><title>Node98</title>
<g id="a_node14"><a xlink:href="../../dd/d58/classorg_1_1lightjason_1_1trafficsimulation_1_1simulation_1_1algorithm_1_1routing_1_1CJPSPlus.htm#ae68dd356032330275e2e621609c0cfe9" target="_top" xlink:title="Calculates the given node&#39;s score using the Manhattan distance formula. ">
<polygon fill="none" stroke="black" points="876,-53 876,-81 1132,-81 1132,-53 876,-53"/>
<text text-anchor="start" x="884" y="-69.8" font-family="Helvetica,sans-Serif" font-size="9.00">org.lightjason.trafficsimulation.simulation.algorithm.routing.</text>
<text text-anchor="middle" x="1004" y="-59.8" font-family="Helvetica,sans-Serif" font-size="9.00">CJPSPlus.calculateScore</text>
</a>
</g>
</g>
<!-- Node97&#45;&gt;Node98 -->
<g id="edge23" class="edge"><title>Node97&#45;&gt;Node98</title>
<path fill="none" stroke="midnightblue" d="M751.81,-157.948C804.188,-138.984 897.488,-105.202 954.451,-84.5782"/>
<polygon fill="midnightblue" stroke="midnightblue" points="955.746,-87.8317 963.957,-81.1363 953.363,-81.2498 955.746,-87.8317"/>
</g>
<!-- Node101 -->
<g id="node17" class="node"><title>Node101</title>
<g id="a_node17"><a xlink:href="../../d9/d71/classorg_1_1lightjason_1_1trafficsimulation_1_1simulation_1_1algorithm_1_1routing_1_1CJPSPlus_1_1CJumpPoint.htm#ac73b394c44a56993d20a352b5c2b4e2f" target="_top" xlink:title="getter for f_score ">
<polygon fill="none" stroke="black" points="876,-177 876,-205 1132,-205 1132,-177 876,-177"/>
<text text-anchor="start" x="884" y="-193.8" font-family="Helvetica,sans-Serif" font-size="9.00">org.lightjason.trafficsimulation.simulation.algorithm.routing.</text>
<text text-anchor="middle" x="1004" y="-183.8" font-family="Helvetica,sans-Serif" font-size="9.00">CJPSPlus.CJumpPoint.fscore</text>
</a>
</g>
</g>
<!-- Node97&#45;&gt;Node101 -->
<g id="edge29" class="edge"><title>Node97&#45;&gt;Node101</title>
<path fill="none" stroke="midnightblue" d="M840.198,-180.334C848.73,-180.893 857.346,-181.457 865.924,-182.019"/>
<polygon fill="midnightblue" stroke="midnightblue" points="865.762,-185.516 875.97,-182.677 866.22,-178.531 865.762,-185.516"/>
</g>
<!-- Node98&#45;&gt;Node86 -->
<g id="edge24" class="edge"><title>Node98&#45;&gt;Node86</title>
<path fill="none" stroke="midnightblue" d="M1095.05,-81.066C1107.87,-84.9056 1120.57,-89.7893 1132,-96 1151.61,-106.658 1148.2,-120.714 1168,-131 1172.61,-133.395 1177.43,-135.553 1182.37,-137.498"/>
<polygon fill="midnightblue" stroke="midnightblue" points="1181.43,-140.878 1192.03,-140.98 1183.81,-134.294 1181.43,-140.878"/>
</g>
<!-- Node98&#45;&gt;Node87 -->
<g id="edge27" class="edge"><title>Node98&#45;&gt;Node87</title>
<path fill="none" stroke="midnightblue" d="M1080.87,-52.9893C1108.32,-47.9332 1139.55,-42.1938 1168,-37 1180.73,-34.6749 1194.19,-32.2279 1207.39,-29.8323"/>
<polygon fill="midnightblue" stroke="midnightblue" points="1208.21,-33.2417 1217.42,-28.0134 1206.96,-26.3541 1208.21,-33.2417"/>
</g>
<!-- Node99 -->
<g id="node15" class="node"><title>Node99</title>
<g id="a_node15"><a xlink:href="../../d9/d71/classorg_1_1lightjason_1_1trafficsimulation_1_1simulation_1_1algorithm_1_1routing_1_1CJPSPlus_1_1CJumpPoint.htm#a52f4bef8c1eb1e4afd0d13ed3b96aaa9" target="_top" xlink:title="getter for g&#45;score ">
<polygon fill="none" stroke="black" points="1168,-47 1168,-75 1424,-75 1424,-47 1168,-47"/>
<text text-anchor="start" x="1176" y="-63.8" font-family="Helvetica,sans-Serif" font-size="9.00">org.lightjason.trafficsimulation.simulation.algorithm.routing.</text>
<text text-anchor="middle" x="1296" y="-53.8" font-family="Helvetica,sans-Serif" font-size="9.00">CJPSPlus.CJumpPoint.gscore</text>
</a>
</g>
</g>
<!-- Node98&#45;&gt;Node99 -->
<g id="edge25" class="edge"><title>Node98&#45;&gt;Node99</title>
<path fill="none" stroke="midnightblue" d="M1132.2,-64.3683C1140.73,-64.1918 1149.35,-64.0135 1157.92,-63.8361"/>
<polygon fill="midnightblue" stroke="midnightblue" points="1158.04,-67.3344 1167.97,-63.6282 1157.9,-60.3359 1158.04,-67.3344"/>
</g>
<!-- Node100 -->
<g id="node16" class="node"><title>Node100</title>
<g id="a_node16"><a xlink:href="../../d9/d71/classorg_1_1lightjason_1_1trafficsimulation_1_1simulation_1_1algorithm_1_1routing_1_1CJPSPlus_1_1CJumpPoint.htm#af92a57afa1b588ab9820bc324ff91f72" target="_top" xlink:title="setter for h_score ">
<polygon fill="none" stroke="black" points="1168,-94 1168,-122 1424,-122 1424,-94 1168,-94"/>
<text text-anchor="start" x="1176" y="-110.8" font-family="Helvetica,sans-Serif" font-size="9.00">org.lightjason.trafficsimulation.simulation.algorithm.routing.</text>
<text text-anchor="middle" x="1296" y="-100.8" font-family="Helvetica,sans-Serif" font-size="9.00">CJPSPlus.CJumpPoint.hscore</text>
</a>
</g>
</g>
<!-- Node98&#45;&gt;Node100 -->
<g id="edge26" class="edge"><title>Node98&#45;&gt;Node100</title>
<path fill="none" stroke="midnightblue" d="M1104.4,-81.0525C1130.57,-84.7524 1158.94,-88.7643 1185.61,-92.5341"/>
<polygon fill="midnightblue" stroke="midnightblue" points="1185.34,-96.0314 1195.73,-93.9659 1186.32,-89.1004 1185.34,-96.0314"/>
</g>
</g>
</svg>
        <g id="navigator" transform="translate(0 0)" fill="#404254">
                <rect fill="#f2f5e9" fill-opacity="0.5" stroke="#606060" stroke-width=".5" x="0" y="0" width="60" height="60"/>
                <use id="zoomplus" xlink:href="#zoomPlus" x="17" y="9" onmousedown="handleZoom(evt,'in')"/>
                <use id="zoomminus" xlink:href="#zoomMin" x="42" y="9" onmousedown="handleZoom(evt,'out')"/>
                <use id="reset" xlink:href="#resetDef" x="30" y="36" onmousedown="handleReset()"/>
                <g id="arrowUp" xlink:href="#dirArrow" transform="translate(30 24)" onmousedown="handlePan(0,-1)">
                  <use xlink:href="#rim" fill="#404040">
                        <set attributeName="fill" to="#808080" begin="arrowUp.mouseover" end="arrowUp.mouseout"/>
                  </use>
                  <path fill="none" stroke="white" stroke-width="1.5" d="M0,-3.0v7 M-2.5,-0.5L0,-3.0L2.5,-0.5"/>
                </g>
                <g id="arrowRight" xlink:href="#dirArrow" transform="rotate(90) translate(36 -43)" onmousedown="handlePan(1,0)">
                  <use xlink:href="#rim" fill="#404040">
                        <set attributeName="fill" to="#808080" begin="arrowRight.mouseover" end="arrowRight.mouseout"/>
                  </use>
                  <path fill="none" stroke="white" stroke-width="1.5" d="M0,-3.0v7 M-2.5,-0.5L0,-3.0L2.5,-0.5"/>
                </g>
                <g id="arrowDown" xlink:href="#dirArrow" transform="rotate(180) translate(-30 -48)" onmousedown="handlePan(0,1)">
                  <use xlink:href="#rim" fill="#404040">
                        <set attributeName="fill" to="#808080" begin="arrowDown.mouseover" end="arrowDown.mouseout"/>
                  </use>
                  <path fill="none" stroke="white" stroke-width="1.5" d="M0,-3.0v7 M-2.5,-0.5L0,-3.0L2.5,-0.5"/>
                </g>
                <g id="arrowLeft" xlink:href="#dirArrow" transform="rotate(270) translate(-36 17)" onmousedown="handlePan(-1,0)">
                  <use xlink:href="#rim" fill="#404040">
                        <set attributeName="fill" to="#808080" begin="arrowLeft.mouseover" end="arrowLeft.mouseout"/>
                  </use>
                  <path fill="none" stroke="white" stroke-width="1.5" d="M0,-3.0v7 M-2.5,-0.5L0,-3.0L2.5,-0.5"/>
                </g>
        </g>
        <svg viewBox="0 0 15 15" width="100%" height="30px" preserveAspectRatio="xMaxYMin meet">
         <g id="arrow_out" transform="scale(0.3 0.3)">
          <a xlink:href="classorg_1_1lightjason_1_1trafficsimulation_1_1simulation_1_1algorithm_1_1routing_1_1CJPSPlus_aecb3e49cfae01851a9e000465c638567_cgraph_org.svg" target="_base">
           <rect id="button" ry="5" rx="5" y="6" x="6" height="38" width="38"
                fill="#f2f5e9" fill-opacity="0.5" stroke="#606060" stroke-width="1.0"/>
           <path id="arrow"
             d="M 11.500037,31.436501 C 11.940474,20.09759 22.043105,11.32322 32.158766,21.979434 L 37.068811,17.246167 C 37.068811,17.246167 37.088388,32 37.088388,32 L 22.160133,31.978069 C 22.160133,31.978069 26.997745,27.140456 26.997745,27.140456 C 18.528582,18.264221 13.291696,25.230495 11.500037,31.436501 z"
             style="fill:#404040;"/>
          </a>
         </g>
        </svg>
</svg>
