<?xml version="1.0" encoding="UTF-8" standalone="no"?>
<!DOCTYPE svg PUBLIC "-//W3C//DTD SVG 1.1//EN"
 "http://www.w3.org/Graphics/SVG/1.1/DTD/svg11.dtd">
<!-- Generated by graphviz version 2.36.0 (20140111.2315)
 -->
<!-- Title: org.lightjason.trafficsimulation.simulation.algorithm.routing.CJPSPlus.successors Pages: 1 -->
<!--zoomable 467 -->
<svg id="main" version="1.1" xmlns="http://www.w3.org/2000/svg" xmlns:xlink="http://www.w3.org/1999/xlink" xml:space="preserve" onload="init(evt)">
<style type="text/css"><![CDATA[
.edge:hover path { stroke: red; }
.edge:hover polygon { stroke: red; fill: red; }
]]></style>
<script type="text/javascript"><![CDATA[
var edges = document.getElementsByTagName('g');
if (edges && edges.length) {
  for (var i=0;i<edges.length;i++) {
    if (edges[i].id.substr(0,4)=='edge') {
      edges[i].setAttribute('class','edge');
    }
  }
}
]]></script>
        <defs>
                <circle id="rim" cx="0" cy="0" r="7"/>
                <circle id="rim2" cx="0" cy="0" r="3.5"/>
                <g id="zoomPlus">
                        <use xlink:href="#rim" fill="#404040">
                                <set attributeName="fill" to="#808080" begin="zoomplus.mouseover" end="zoomplus.mouseout"/>
                        </use>
                        <path d="M-4,0h8M0,-4v8" fill="none" stroke="white" stroke-width="1.5" pointer-events="none"/>
                </g>
                <g id="zoomMin">
                        <use xlink:href="#rim" fill="#404040">
                                <set attributeName="fill" to="#808080" begin="zoomminus.mouseover" end="zoomminus.mouseout"/>
                        </use>
                        <path d="M-4,0h8" fill="none" stroke="white" stroke-width="1.5" pointer-events="none"/>
                </g>
                <g id="dirArrow">
                        <path fill="none" stroke="white" stroke-width="1.5" d="M0,-3.0v7 M-2.5,-0.5L0,-3.0L2.5,-0.5"/>
                </g>
               <g id="resetDef">
                       <use xlink:href="#rim2" fill="#404040">
                               <set attributeName="fill" to="#808080" begin="reset.mouseover" end="reset.mouseout"/>
                       </use>
               </g>
        </defs>

<script type="text/javascript">
var viewWidth = 1432;
var viewHeight = 467;
var sectionId = 'dynsection-19';
</script>
<script xlink:href="../../svgpan.js"/>
<svg id="graph" class="graph">
<g id="viewport">
<title>org.lightjason.trafficsimulation.simulation.algorithm.routing.CJPSPlus.successors</title>
<!-- Node103 -->
<g id="node1" class="node"><title>Node103</title>
<polygon fill="#bfbfbf" stroke="black" points="0,-228.482 0,-256.482 256,-256.482 256,-228.482 0,-228.482"/>
<text text-anchor="start" x="8" y="-245.282" font-family="Helvetica,sans-Serif" font-size="9.00">org.lightjason.trafficsimulation.simulation.algorithm.routing.</text>
<text text-anchor="middle" x="128" y="-235.282" font-family="Helvetica,sans-Serif" font-size="9.00">CJPSPlus.successors</text>
</g>
<!-- Node104 -->
<g id="node2" class="node"><title>Node104</title>
<g id="a_node2"><a xlink:href="../../dd/d58/classorg_1_1lightjason_1_1trafficsimulation_1_1simulation_1_1algorithm_1_1routing_1_1CJPSPlus.htm#a1c2c171c870399017d9c774bdb59950d" target="_top" xlink:title="Validated successors are added to open list. ">
<polygon fill="none" stroke="black" points="292,-333.482 292,-361.482 548,-361.482 548,-333.482 292,-333.482"/>
<text text-anchor="start" x="300" y="-350.282" font-family="Helvetica,sans-Serif" font-size="9.00">org.lightjason.trafficsimulation.simulation.algorithm.routing.</text>
<text text-anchor="middle" x="420" y="-340.282" font-family="Helvetica,sans-Serif" font-size="9.00">CJPSPlus.addsuccessors</text>
</a>
</g>
</g>
<!-- Node103&#45;&gt;Node104 -->
<g id="edge1" class="edge"><title>Node103&#45;&gt;Node104</title>
<path fill="none" stroke="midnightblue" d="M167.81,-256.534C220.188,-275.498 313.488,-309.28 370.451,-329.904"/>
<polygon fill="midnightblue" stroke="midnightblue" points="369.363,-333.232 379.957,-333.346 371.746,-326.65 369.363,-333.232"/>
</g>
<!-- Node106 -->
<g id="node4" class="node"><title>Node106</title>
<g id="a_node4"><a xlink:href="../../d9/d71/classorg_1_1lightjason_1_1trafficsimulation_1_1simulation_1_1algorithm_1_1routing_1_1CJPSPlus_1_1CJumpPoint.htm#a6f129e7d96f6b1ee8b1f0bf0215838ec" target="_top" xlink:title="getter for coordinate ">
<polygon fill="none" stroke="black" points="876,-290.482 876,-318.482 1132,-318.482 1132,-290.482 876,-290.482"/>
<text text-anchor="start" x="884" y="-307.282" font-family="Helvetica,sans-Serif" font-size="9.00">org.lightjason.trafficsimulation.simulation.algorithm.routing.</text>
<text text-anchor="middle" x="1004" y="-297.282" font-family="Helvetica,sans-Serif" font-size="9.00">CJPSPlus.CJumpPoint.coordinate</text>
</a>
</g>
</g>
<!-- Node103&#45;&gt;Node106 -->
<g id="edge9" class="edge"><title>Node103&#45;&gt;Node106</title>
<path fill="none" stroke="midnightblue" d="M218.512,-256.514C242.345,-259.866 268.108,-263.145 292,-265.482 491.002,-284.944 722.361,-295.382 865.751,-300.429"/>
<polygon fill="midnightblue" stroke="midnightblue" points="865.806,-303.933 875.922,-300.784 866.049,-296.938 865.806,-303.933"/>
</g>
<!-- Node111 -->
<g id="node9" class="node"><title>Node111</title>
<g id="a_node9"><a xlink:href="../../dd/d58/classorg_1_1lightjason_1_1trafficsimulation_1_1simulation_1_1algorithm_1_1routing_1_1CJPSPlus.htm#a17734a60539fcddb07630c5345d5e812" target="_top" xlink:title="Finds the non valid successors of any grid. ">
<polygon fill="none" stroke="black" points="292,-228.482 292,-256.482 548,-256.482 548,-228.482 292,-228.482"/>
<text text-anchor="start" x="300" y="-245.282" font-family="Helvetica,sans-Serif" font-size="9.00">org.lightjason.trafficsimulation.simulation.algorithm.routing.</text>
<text text-anchor="middle" x="420" y="-235.282" font-family="Helvetica,sans-Serif" font-size="9.00">CJPSPlus.isNotNeighbour</text>
</a>
</g>
</g>
<!-- Node103&#45;&gt;Node111 -->
<g id="edge10" class="edge"><title>Node103&#45;&gt;Node111</title>
<path fill="none" stroke="midnightblue" d="M256.198,-242.482C264.73,-242.482 273.346,-242.482 281.924,-242.482"/>
<polygon fill="midnightblue" stroke="midnightblue" points="281.97,-245.982 291.97,-242.482 281.97,-238.982 281.97,-245.982"/>
</g>
<!-- Node113 -->
<g id="node11" class="node"><title>Node113</title>
<g id="a_node11"><a xlink:href="../../dd/d58/classorg_1_1lightjason_1_1trafficsimulation_1_1simulation_1_1algorithm_1_1routing_1_1CJPSPlus.htm#a58d369906836b7640a4920b93e6cc139" target="_top" xlink:title="To check any point in the grid environment is free or occupied. ">
<polygon fill="none" stroke="black" points="1168,-58.4821 1168,-86.4821 1424,-86.4821 1424,-58.4821 1168,-58.4821"/>
<text text-anchor="start" x="1176" y="-75.2821" font-family="Helvetica,sans-Serif" font-size="9.00">org.lightjason.trafficsimulation.simulation.algorithm.routing.</text>
<text text-anchor="middle" x="1296" y="-65.2821" font-family="Helvetica,sans-Serif" font-size="9.00">CJPSPlus.isOccupied</text>
</a>
</g>
</g>
<!-- Node103&#45;&gt;Node113 -->
<g id="edge12" class="edge"><title>Node103&#45;&gt;Node113</title>
<path fill="none" stroke="midnightblue" d="M148.841,-228.272C178.813,-207.227 237.891,-167.372 292,-140.482 416.332,-78.6948 447.489,-54.7951 584,-29.4821 823.474,14.9231 890.557,3.53236 1132,-28.4821 1170.71,-33.6148 1213.27,-45.3208 1245.19,-55.3688"/>
<polygon fill="midnightblue" stroke="midnightblue" points="1244.15,-58.7103 1254.74,-58.4248 1246.29,-52.0434 1244.15,-58.7103"/>
</g>
<!-- Node114 -->
<g id="node12" class="node"><title>Node114</title>
<g id="a_node12"><a xlink:href="../../dd/d58/classorg_1_1lightjason_1_1trafficsimulation_1_1simulation_1_1algorithm_1_1routing_1_1CJPSPlus.htm#a2e9e6b64161af027f7f03da312ab8006" target="_top" xlink:title="In order to identify individual jump point successors heading in a given direction (run recursively u...">
<polygon fill="none" stroke="black" points="292,-150.482 292,-178.482 548,-178.482 548,-150.482 292,-150.482"/>
<text text-anchor="start" x="300" y="-167.282" font-family="Helvetica,sans-Serif" font-size="9.00">org.lightjason.trafficsimulation.simulation.algorithm.routing.</text>
<text text-anchor="middle" x="420" y="-157.282" font-family="Helvetica,sans-Serif" font-size="9.00">CJPSPlus.jump</text>
</a>
</g>
</g>
<!-- Node103&#45;&gt;Node114 -->
<g id="edge13" class="edge"><title>Node103&#45;&gt;Node114</title>
<path fill="none" stroke="midnightblue" d="M181.181,-228.447C230.511,-215.179 304.567,-195.261 356.912,-181.182"/>
<polygon fill="midnightblue" stroke="midnightblue" points="358.002,-184.513 366.749,-178.536 356.184,-177.753 358.002,-184.513"/>
</g>
<!-- Node105 -->
<g id="node3" class="node"><title>Node105</title>
<g id="a_node3"><a xlink:href="../../dd/d58/classorg_1_1lightjason_1_1trafficsimulation_1_1simulation_1_1algorithm_1_1routing_1_1CJPSPlus.htm#ae68dd356032330275e2e621609c0cfe9" target="_top" xlink:title="Calculates the given node&#39;s score using the Manhattan distance formula. ">
<polygon fill="none" stroke="black" points="584,-352.482 584,-380.482 840,-380.482 840,-352.482 584,-352.482"/>
<text text-anchor="start" x="592" y="-369.282" font-family="Helvetica,sans-Serif" font-size="9.00">org.lightjason.trafficsimulation.simulation.algorithm.routing.</text>
<text text-anchor="middle" x="712" y="-359.282" font-family="Helvetica,sans-Serif" font-size="9.00">CJPSPlus.calculateScore</text>
</a>
</g>
</g>
<!-- Node104&#45;&gt;Node105 -->
<g id="edge2" class="edge"><title>Node104&#45;&gt;Node105</title>
<path fill="none" stroke="midnightblue" d="M548.198,-355.816C556.73,-356.375 565.346,-356.939 573.924,-357.501"/>
<polygon fill="midnightblue" stroke="midnightblue" points="573.762,-360.998 583.97,-358.159 574.22,-354.013 573.762,-360.998"/>
</g>
<!-- Node104&#45;&gt;Node106 -->
<g id="edge7" class="edge"><title>Node104&#45;&gt;Node106</title>
<path fill="none" stroke="midnightblue" d="M548.003,-338.099C641.845,-331.165 769.47,-321.736 865.673,-314.628"/>
<polygon fill="midnightblue" stroke="midnightblue" points="866.051,-318.11 875.766,-313.883 865.535,-311.129 866.051,-318.11"/>
</g>
<!-- Node110 -->
<g id="node8" class="node"><title>Node110</title>
<g id="a_node8"><a xlink:href="../../d9/d71/classorg_1_1lightjason_1_1trafficsimulation_1_1simulation_1_1algorithm_1_1routing_1_1CJPSPlus_1_1CJumpPoint.htm#ac73b394c44a56993d20a352b5c2b4e2f" target="_top" xlink:title="getter for f_score ">
<polygon fill="none" stroke="black" points="584,-399.482 584,-427.482 840,-427.482 840,-399.482 584,-399.482"/>
<text text-anchor="start" x="592" y="-416.282" font-family="Helvetica,sans-Serif" font-size="9.00">org.lightjason.trafficsimulation.simulation.algorithm.routing.</text>
<text text-anchor="middle" x="712" y="-406.282" font-family="Helvetica,sans-Serif" font-size="9.00">CJPSPlus.CJumpPoint.fscore</text>
</a>
</g>
</g>
<!-- Node104&#45;&gt;Node110 -->
<g id="edge8" class="edge"><title>Node104&#45;&gt;Node110</title>
<path fill="none" stroke="midnightblue" d="M471.818,-361.489C503.871,-370.097 546.208,-381.052 584,-389.482 596.391,-392.246 609.508,-394.961 622.425,-397.513"/>
<polygon fill="midnightblue" stroke="midnightblue" points="621.764,-400.949 632.249,-399.431 623.105,-394.079 621.764,-400.949"/>
</g>
<!-- Node105&#45;&gt;Node106 -->
<g id="edge3" class="edge"><title>Node105&#45;&gt;Node106</title>
<path fill="none" stroke="midnightblue" d="M777.096,-352.455C797.273,-347.877 819.609,-342.639 840,-337.482 856.099,-333.41 859.813,-331.188 876,-327.482 886.812,-325.007 898.191,-322.629 909.513,-320.403"/>
<polygon fill="midnightblue" stroke="midnightblue" points="910.278,-323.82 919.433,-318.488 908.951,-316.947 910.278,-323.82"/>
</g>
<!-- Node107 -->
<g id="node5" class="node"><title>Node107</title>
<g id="a_node5"><a xlink:href="../../d9/d71/classorg_1_1lightjason_1_1trafficsimulation_1_1simulation_1_1algorithm_1_1routing_1_1CJPSPlus_1_1CJumpPoint.htm#a52f4bef8c1eb1e4afd0d13ed3b96aaa9" target="_top" xlink:title="getter for g&#45;score ">
<polygon fill="none" stroke="black" points="876,-384.482 876,-412.482 1132,-412.482 1132,-384.482 876,-384.482"/>
<text text-anchor="start" x="884" y="-401.282" font-family="Helvetica,sans-Serif" font-size="9.00">org.lightjason.trafficsimulation.simulation.algorithm.routing.</text>
<text text-anchor="middle" x="1004" y="-391.282" font-family="Helvetica,sans-Serif" font-size="9.00">CJPSPlus.CJumpPoint.gscore</text>
</a>
</g>
</g>
<!-- Node105&#45;&gt;Node107 -->
<g id="edge4" class="edge"><title>Node105&#45;&gt;Node107</title>
<path fill="none" stroke="midnightblue" d="M840.198,-380.518C848.73,-381.459 857.346,-382.41 865.924,-383.356"/>
<polygon fill="midnightblue" stroke="midnightblue" points="865.646,-386.847 875.97,-384.465 866.414,-379.889 865.646,-386.847"/>
</g>
<!-- Node108 -->
<g id="node6" class="node"><title>Node108</title>
<g id="a_node6"><a xlink:href="../../d9/d71/classorg_1_1lightjason_1_1trafficsimulation_1_1simulation_1_1algorithm_1_1routing_1_1CJPSPlus_1_1CJumpPoint.htm#af92a57afa1b588ab9820bc324ff91f72" target="_top" xlink:title="setter for h_score ">
<polygon fill="none" stroke="black" points="876,-337.482 876,-365.482 1132,-365.482 1132,-337.482 876,-337.482"/>
<text text-anchor="start" x="884" y="-354.282" font-family="Helvetica,sans-Serif" font-size="9.00">org.lightjason.trafficsimulation.simulation.algorithm.routing.</text>
<text text-anchor="middle" x="1004" y="-344.282" font-family="Helvetica,sans-Serif" font-size="9.00">CJPSPlus.CJumpPoint.hscore</text>
</a>
</g>
</g>
<!-- Node105&#45;&gt;Node108 -->
<g id="edge5" class="edge"><title>Node105&#45;&gt;Node108</title>
<path fill="none" stroke="midnightblue" d="M840.198,-359.903C848.73,-359.462 857.346,-359.016 865.924,-358.572"/>
<polygon fill="midnightblue" stroke="midnightblue" points="866.164,-362.065 875.97,-358.053 865.802,-355.074 866.164,-362.065"/>
</g>
<!-- Node109 -->
<g id="node7" class="node"><title>Node109</title>
<g id="a_node7"><a xlink:href="../../d9/d71/classorg_1_1lightjason_1_1trafficsimulation_1_1simulation_1_1algorithm_1_1routing_1_1CJPSPlus_1_1CJumpPoint.htm#a7ef896fc661b726f5245ea139ede8374" target="_top" xlink:title="getter for parent ">
<polygon fill="none" stroke="black" points="876,-431.482 876,-459.482 1132,-459.482 1132,-431.482 876,-431.482"/>
<text text-anchor="start" x="884" y="-448.282" font-family="Helvetica,sans-Serif" font-size="9.00">org.lightjason.trafficsimulation.simulation.algorithm.routing.</text>
<text text-anchor="middle" x="1004" y="-438.282" font-family="Helvetica,sans-Serif" font-size="9.00">CJPSPlus.CJumpPoint.parent</text>
</a>
</g>
</g>
<!-- Node105&#45;&gt;Node109 -->
<g id="edge6" class="edge"><title>Node105&#45;&gt;Node109</title>
<path fill="none" stroke="midnightblue" d="M814.064,-380.487C823.037,-383.242 831.812,-386.539 840,-390.482 859.023,-399.644 856.977,-412.32 876,-421.482 881.245,-424.008 886.732,-426.269 892.357,-428.292"/>
<polygon fill="midnightblue" stroke="midnightblue" points="891.342,-431.643 901.936,-431.477 893.551,-425.001 891.342,-431.643"/>
</g>
<!-- Node112 -->
<g id="node10" class="node"><title>Node112</title>
<g id="a_node10"><a xlink:href="../../dd/d58/classorg_1_1lightjason_1_1trafficsimulation_1_1simulation_1_1algorithm_1_1routing_1_1CJPSPlus.htm#adf49a781926a9c9eb46d6bf852cbd2e4" target="_top" xlink:title="To check any point is in the grid environment or out of environment. ">
<polygon fill="none" stroke="black" points="1168,-152.482 1168,-180.482 1424,-180.482 1424,-152.482 1168,-152.482"/>
<text text-anchor="start" x="1176" y="-169.282" font-family="Helvetica,sans-Serif" font-size="9.00">org.lightjason.trafficsimulation.simulation.algorithm.routing.</text>
<text text-anchor="middle" x="1296" y="-159.282" font-family="Helvetica,sans-Serif" font-size="9.00">CJPSPlus.isNotCoordinate</text>
</a>
</g>
</g>
<!-- Node111&#45;&gt;Node112 -->
<g id="edge11" class="edge"><title>Node111&#45;&gt;Node112</title>
<path fill="none" stroke="midnightblue" d="M548.015,-245.09C690.898,-246.098 929.476,-241.985 1132,-210.482 1169.76,-204.608 1211.35,-193.303 1243.06,-183.623"/>
<polygon fill="midnightblue" stroke="midnightblue" points="1244.47,-186.849 1252.99,-180.547 1242.4,-180.163 1244.47,-186.849"/>
</g>
<!-- Node114&#45;&gt;Node112 -->
<g id="edge22" class="edge"><title>Node114&#45;&gt;Node112</title>
<path fill="none" stroke="midnightblue" d="M504.949,-178.509C530.278,-182.151 558.206,-185.582 584,-187.482 826.899,-205.371 889.041,-206.539 1132,-189.482 1154.72,-187.887 1179.1,-185.055 1201.89,-181.912"/>
<polygon fill="midnightblue" stroke="midnightblue" points="1202.48,-185.363 1211.9,-180.499 1201.51,-178.432 1202.48,-185.363"/>
</g>
<!-- Node114&#45;&gt;Node113 -->
<g id="edge23" class="edge"><title>Node114&#45;&gt;Node113</title>
<path fill="none" stroke="midnightblue" d="M442.642,-150.471C472.929,-131.61 530.288,-98.5694 584,-82.4821 817.764,-12.4673 888.628,-30.6611 1132,-48.4821 1155.96,-50.2367 1181.75,-53.4239 1205.58,-56.9145"/>
<polygon fill="midnightblue" stroke="midnightblue" points="1205.26,-60.4049 1215.67,-58.4258 1206.3,-53.4822 1205.26,-60.4049"/>
</g>
<!-- Node115 -->
<g id="node13" class="node"><title>Node115</title>
<g id="a_node13"><a xlink:href="../../dd/d58/classorg_1_1lightjason_1_1trafficsimulation_1_1simulation_1_1algorithm_1_1routing_1_1CJPSPlus.htm#a3fe5a50404ebc64be3946811bfae657a" target="_top" xlink:title="In order to identify diagonal jump point. ">
<polygon fill="none" stroke="black" points="584,-150.482 584,-178.482 840,-178.482 840,-150.482 584,-150.482"/>
<text text-anchor="start" x="592" y="-167.282" font-family="Helvetica,sans-Serif" font-size="9.00">org.lightjason.trafficsimulation.simulation.algorithm.routing.</text>
<text text-anchor="middle" x="712" y="-157.282" font-family="Helvetica,sans-Serif" font-size="9.00">CJPSPlus.diagjump</text>
</a>
</g>
</g>
<!-- Node114&#45;&gt;Node115 -->
<g id="edge14" class="edge"><title>Node114&#45;&gt;Node115</title>
<path fill="none" stroke="midnightblue" d="M548.198,-157.777C556.73,-157.734 565.346,-157.722 573.924,-157.741"/>
<polygon fill="midnightblue" stroke="midnightblue" points="573.957,-161.241 583.97,-157.778 573.983,-154.241 573.957,-161.241"/>
</g>
<!-- Node117 -->
<g id="node15" class="node"><title>Node117</title>
<g id="a_node15"><a xlink:href="../../dd/d58/classorg_1_1lightjason_1_1trafficsimulation_1_1simulation_1_1algorithm_1_1routing_1_1CJPSPlus.htm#a7c6c3a92142a6ba8640d785a6d81848a" target="_top" xlink:title="Helper function to identify horizontal jump point. ">
<polygon fill="none" stroke="black" points="876,-105.482 876,-133.482 1132,-133.482 1132,-105.482 876,-105.482"/>
<text text-anchor="start" x="884" y="-122.282" font-family="Helvetica,sans-Serif" font-size="9.00">org.lightjason.trafficsimulation.simulation.algorithm.routing.</text>
<text text-anchor="middle" x="1004" y="-112.282" font-family="Helvetica,sans-Serif" font-size="9.00">CJPSPlus.horizontal</text>
</a>
</g>
</g>
<!-- Node114&#45;&gt;Node117 -->
<g id="edge19" class="edge"><title>Node114&#45;&gt;Node117</title>
<path fill="none" stroke="midnightblue" d="M505.41,-150.477C530.629,-146.719 558.381,-143.004 584,-140.482 677.761,-131.251 783.748,-125.987 865.666,-123.038"/>
<polygon fill="midnightblue" stroke="midnightblue" points="865.918,-126.531 875.788,-122.681 865.671,-119.536 865.918,-126.531"/>
</g>
<!-- Node118 -->
<g id="node16" class="node"><title>Node118</title>
<g id="a_node16"><a xlink:href="../../dd/d58/classorg_1_1lightjason_1_1trafficsimulation_1_1simulation_1_1algorithm_1_1routing_1_1CJPSPlus.htm#af5c40dcbd9dafbb4b5589e057e967d03" target="_top" xlink:title="Helper function to identify vertical jump point. ">
<polygon fill="none" stroke="black" points="876,-58.4821 876,-86.4821 1132,-86.4821 1132,-58.4821 876,-58.4821"/>
<text text-anchor="start" x="884" y="-75.2821" font-family="Helvetica,sans-Serif" font-size="9.00">org.lightjason.trafficsimulation.simulation.algorithm.routing.</text>
<text text-anchor="middle" x="1004" y="-65.2821" font-family="Helvetica,sans-Serif" font-size="9.00">CJPSPlus.vertical</text>
</a>
</g>
</g>
<!-- Node114&#45;&gt;Node118 -->
<g id="edge24" class="edge"><title>Node114&#45;&gt;Node118</title>
<path fill="none" stroke="midnightblue" d="M465.898,-150.416C498.402,-140.712 543.55,-128.214 584,-120.482 677.201,-102.668 783.416,-90.5892 865.584,-83.0039"/>
<polygon fill="midnightblue" stroke="midnightblue" points="866.097,-86.4718 875.738,-82.0782 865.461,-79.5007 866.097,-86.4718"/>
</g>
<!-- Node115&#45;&gt;Node114 -->
<g id="edge18" class="edge"><title>Node115&#45;&gt;Node114</title>
<path fill="none" stroke="midnightblue" d="M583.97,-171.186C575.439,-171.23 566.824,-171.242 558.245,-171.223"/>
<polygon fill="midnightblue" stroke="midnightblue" points="558.211,-167.723 548.198,-171.187 558.185,-174.723 558.211,-167.723"/>
</g>
<!-- Node116 -->
<g id="node14" class="node"><title>Node116</title>
<g id="a_node14"><a xlink:href="../../dd/d58/classorg_1_1lightjason_1_1trafficsimulation_1_1simulation_1_1algorithm_1_1routing_1_1CJPSPlus.htm#accdd1df4e9214e0336c31705152ff462" target="_top" xlink:title="Helper function to identify diagonal jump point. ">
<polygon fill="none" stroke="black" points="876,-152.482 876,-180.482 1132,-180.482 1132,-152.482 876,-152.482"/>
<text text-anchor="start" x="884" y="-169.282" font-family="Helvetica,sans-Serif" font-size="9.00">org.lightjason.trafficsimulation.simulation.algorithm.routing.</text>
<text text-anchor="middle" x="1004" y="-159.282" font-family="Helvetica,sans-Serif" font-size="9.00">CJPSPlus.diagonal</text>
</a>
</g>
</g>
<!-- Node115&#45;&gt;Node116 -->
<g id="edge15" class="edge"><title>Node115&#45;&gt;Node116</title>
<path fill="none" stroke="midnightblue" d="M840.198,-165.359C848.73,-165.418 857.346,-165.478 865.924,-165.537"/>
<polygon fill="midnightblue" stroke="midnightblue" points="865.946,-169.037 875.97,-165.606 865.994,-162.037 865.946,-169.037"/>
</g>
<!-- Node116&#45;&gt;Node112 -->
<g id="edge16" class="edge"><title>Node116&#45;&gt;Node112</title>
<path fill="none" stroke="midnightblue" d="M1132.2,-166.482C1140.73,-166.482 1149.35,-166.482 1157.92,-166.482"/>
<polygon fill="midnightblue" stroke="midnightblue" points="1157.97,-169.982 1167.97,-166.482 1157.97,-162.982 1157.97,-169.982"/>
</g>
<!-- Node116&#45;&gt;Node113 -->
<g id="edge17" class="edge"><title>Node116&#45;&gt;Node113</title>
<path fill="none" stroke="midnightblue" d="M1093.06,-152.437C1106.23,-149.59 1119.55,-146.281 1132,-142.482 1176.77,-128.818 1225.84,-106.703 1258.32,-90.9895"/>
<polygon fill="midnightblue" stroke="midnightblue" points="1259.98,-94.0718 1267.43,-86.5375 1256.91,-87.7822 1259.98,-94.0718"/>
</g>
<!-- Node117&#45;&gt;Node112 -->
<g id="edge20" class="edge"><title>Node117&#45;&gt;Node112</title>
<path fill="none" stroke="midnightblue" d="M1091.62,-133.52C1125.26,-138.973 1163.95,-145.242 1198.48,-150.839"/>
<polygon fill="midnightblue" stroke="midnightblue" points="1198.15,-154.331 1208.58,-152.476 1199.27,-147.421 1198.15,-154.331"/>
</g>
<!-- Node117&#45;&gt;Node113 -->
<g id="edge21" class="edge"><title>Node117&#45;&gt;Node113</title>
<path fill="none" stroke="midnightblue" d="M1091.62,-105.444C1125.26,-99.991 1163.95,-93.7218 1198.48,-88.1247"/>
<polygon fill="midnightblue" stroke="midnightblue" points="1199.27,-91.543 1208.58,-86.4882 1198.15,-84.6332 1199.27,-91.543"/>
</g>
<!-- Node118&#45;&gt;Node112 -->
<g id="edge25" class="edge"><title>Node118&#45;&gt;Node112</title>
<path fill="none" stroke="midnightblue" d="M1096.83,-86.4936C1108.76,-89.0775 1120.74,-92.0621 1132,-95.4821 1177.16,-109.203 1226.52,-131.863 1258.96,-147.888"/>
<polygon fill="midnightblue" stroke="midnightblue" points="1257.54,-151.091 1268.05,-152.425 1260.66,-144.828 1257.54,-151.091"/>
</g>
<!-- Node118&#45;&gt;Node113 -->
<g id="edge26" class="edge"><title>Node118&#45;&gt;Node113</title>
<path fill="none" stroke="midnightblue" d="M1132.2,-72.4821C1140.73,-72.4821 1149.35,-72.4821 1157.92,-72.4821"/>
<polygon fill="midnightblue" stroke="midnightblue" points="1157.97,-75.9822 1167.97,-72.4821 1157.97,-68.9822 1157.97,-75.9822"/>
</g>
</g>
</svg>
        <g id="navigator" transform="translate(0 0)" fill="#404254">
                <rect fill="#f2f5e9" fill-opacity="0.5" stroke="#606060" stroke-width=".5" x="0" y="0" width="60" height="60"/>
                <use id="zoomplus" xlink:href="#zoomPlus" x="17" y="9" onmousedown="handleZoom(evt,'in')"/>
                <use id="zoomminus" xlink:href="#zoomMin" x="42" y="9" onmousedown="handleZoom(evt,'out')"/>
                <use id="reset" xlink:href="#resetDef" x="30" y="36" onmousedown="handleReset()"/>
                <g id="arrowUp" xlink:href="#dirArrow" transform="translate(30 24)" onmousedown="handlePan(0,-1)">
                  <use xlink:href="#rim" fill="#404040">
                        <set attributeName="fill" to="#808080" begin="arrowUp.mouseover" end="arrowUp.mouseout"/>
                  </use>
                  <path fill="none" stroke="white" stroke-width="1.5" d="M0,-3.0v7 M-2.5,-0.5L0,-3.0L2.5,-0.5"/>
                </g>
                <g id="arrowRight" xlink:href="#dirArrow" transform="rotate(90) translate(36 -43)" onmousedown="handlePan(1,0)">
                  <use xlink:href="#rim" fill="#404040">
                        <set attributeName="fill" to="#808080" begin="arrowRight.mouseover" end="arrowRight.mouseout"/>
                  </use>
                  <path fill="none" stroke="white" stroke-width="1.5" d="M0,-3.0v7 M-2.5,-0.5L0,-3.0L2.5,-0.5"/>
                </g>
                <g id="arrowDown" xlink:href="#dirArrow" transform="rotate(180) translate(-30 -48)" onmousedown="handlePan(0,1)">
                  <use xlink:href="#rim" fill="#404040">
                        <set attributeName="fill" to="#808080" begin="arrowDown.mouseover" end="arrowDown.mouseout"/>
                  </use>
                  <path fill="none" stroke="white" stroke-width="1.5" d="M0,-3.0v7 M-2.5,-0.5L0,-3.0L2.5,-0.5"/>
                </g>
                <g id="arrowLeft" xlink:href="#dirArrow" transform="rotate(270) translate(-36 17)" onmousedown="handlePan(-1,0)">
                  <use xlink:href="#rim" fill="#404040">
                        <set attributeName="fill" to="#808080" begin="arrowLeft.mouseover" end="arrowLeft.mouseout"/>
                  </use>
                  <path fill="none" stroke="white" stroke-width="1.5" d="M0,-3.0v7 M-2.5,-0.5L0,-3.0L2.5,-0.5"/>
                </g>
        </g>
        <svg viewBox="0 0 15 15" width="100%" height="30px" preserveAspectRatio="xMaxYMin meet">
         <g id="arrow_out" transform="scale(0.3 0.3)">
          <a xlink:href="classorg_1_1lightjason_1_1trafficsimulation_1_1simulation_1_1algorithm_1_1routing_1_1CJPSPlus_a3f4b1b068738b9a1607eadab094a5971_cgraph_org.svg" target="_base">
           <rect id="button" ry="5" rx="5" y="6" x="6" height="38" width="38"
                fill="#f2f5e9" fill-opacity="0.5" stroke="#606060" stroke-width="1.0"/>
           <path id="arrow"
             d="M 11.500037,31.436501 C 11.940474,20.09759 22.043105,11.32322 32.158766,21.979434 L 37.068811,17.246167 C 37.068811,17.246167 37.088388,32 37.088388,32 L 22.160133,31.978069 C 22.160133,31.978069 26.997745,27.140456 26.997745,27.140456 C 18.528582,18.264221 13.291696,25.230495 11.500037,31.436501 z"
             style="fill:#404040;"/>
          </a>
         </g>
        </svg>
</svg>
