<?xml version="1.0" encoding="UTF-8" standalone="no"?>
<!DOCTYPE svg PUBLIC "-//W3C//DTD SVG 1.1//EN"
 "http://www.w3.org/Graphics/SVG/1.1/DTD/svg11.dtd">
<!-- Generated by graphviz version 2.36.0 (20140111.2315)
 -->
<!-- Title: org.lightjason.trafficsimulation.simulation.algorithm.routing.CJPSPlus.jump Pages: 1 -->
<svg width="1140pt" height="183pt"
 viewBox="0.00 0.00 1140.00 182.84" xmlns="http://www.w3.org/2000/svg" xmlns:xlink="http://www.w3.org/1999/xlink">
<g id="graph0" class="graph" transform="scale(1 1) rotate(0) translate(4 178.836)">
<title>org.lightjason.trafficsimulation.simulation.algorithm.routing.CJPSPlus.jump</title>
<!-- Node74 -->
<g id="node1" class="node"><title>Node74</title>
<polygon fill="#bfbfbf" stroke="black" points="0,-91.2706 0,-119.271 256,-119.271 256,-91.2706 0,-91.2706"/>
<text text-anchor="start" x="8" y="-108.071" font-family="Helvetica,sans-Serif" font-size="9.00">org.lightjason.trafficsimulation.simulation.algorithm.routing.</text>
<text text-anchor="middle" x="128" y="-98.0706" font-family="Helvetica,sans-Serif" font-size="9.00">CJPSPlus.jump</text>
</g>
<!-- Node75 -->
<g id="node2" class="node"><title>Node75</title>
<g id="a_node2"><a xlink:href="../../dd/d58/classorg_1_1lightjason_1_1trafficsimulation_1_1simulation_1_1algorithm_1_1routing_1_1CJPSPlus.htm#a3fe5a50404ebc64be3946811bfae657a" target="_top" xlink:title="In order to identify diagonal jump point. ">
<polygon fill="none" stroke="black" points="292,-113.271 292,-141.271 548,-141.271 548,-113.271 292,-113.271"/>
<text text-anchor="start" x="300" y="-130.071" font-family="Helvetica,sans-Serif" font-size="9.00">org.lightjason.trafficsimulation.simulation.algorithm.routing.</text>
<text text-anchor="middle" x="420" y="-120.071" font-family="Helvetica,sans-Serif" font-size="9.00">CJPSPlus.diagjump</text>
</a>
</g>
</g>
<!-- Node74&#45;&gt;Node75 -->
<g id="edge1" class="edge"><title>Node74&#45;&gt;Node75</title>
<path fill="none" stroke="midnightblue" d="M256.198,-108.216C273.882,-109.466 291.924,-110.88 309.251,-112.375"/>
<polygon fill="midnightblue" stroke="midnightblue" points="309.094,-115.875 319.362,-113.264 309.707,-108.902 309.094,-115.875"/>
</g>
<!-- Node77 -->
<g id="node4" class="node"><title>Node77</title>
<g id="a_node4"><a xlink:href="../../dd/d58/classorg_1_1lightjason_1_1trafficsimulation_1_1simulation_1_1algorithm_1_1routing_1_1CJPSPlus.htm#adf49a781926a9c9eb46d6bf852cbd2e4" target="_top" xlink:title="To check any point is in the grid environment or out of environment. ">
<polygon fill="none" stroke="black" points="876,-105.271 876,-133.271 1132,-133.271 1132,-105.271 876,-105.271"/>
<text text-anchor="start" x="884" y="-122.071" font-family="Helvetica,sans-Serif" font-size="9.00">org.lightjason.trafficsimulation.simulation.algorithm.routing.</text>
<text text-anchor="middle" x="1004" y="-112.071" font-family="Helvetica,sans-Serif" font-size="9.00">CJPSPlus.isNotCoordinate</text>
</a>
</g>
</g>
<!-- Node74&#45;&gt;Node77 -->
<g id="edge9" class="edge"><title>Node74&#45;&gt;Node77</title>
<path fill="none" stroke="midnightblue" d="M168.918,-119.377C201.55,-130.154 249.131,-144.163 292,-150.271 533.127,-184.627 597.799,-179.981 840,-154.271 873.875,-150.675 911.055,-142.987 941.341,-135.731"/>
<polygon fill="midnightblue" stroke="midnightblue" points="942.448,-139.063 951.333,-133.293 940.788,-132.263 942.448,-139.063"/>
</g>
<!-- Node78 -->
<g id="node5" class="node"><title>Node78</title>
<g id="a_node5"><a xlink:href="../../dd/d58/classorg_1_1lightjason_1_1trafficsimulation_1_1simulation_1_1algorithm_1_1routing_1_1CJPSPlus.htm#a58d369906836b7640a4920b93e6cc139" target="_top" xlink:title="To check any point in the grid environment is free or occupied. ">
<polygon fill="none" stroke="black" points="876,-35.2706 876,-63.2706 1132,-63.2706 1132,-35.2706 876,-35.2706"/>
<text text-anchor="start" x="884" y="-52.0706" font-family="Helvetica,sans-Serif" font-size="9.00">org.lightjason.trafficsimulation.simulation.algorithm.routing.</text>
<text text-anchor="middle" x="1004" y="-42.0706" font-family="Helvetica,sans-Serif" font-size="9.00">CJPSPlus.isOccupied</text>
</a>
</g>
</g>
<!-- Node74&#45;&gt;Node78 -->
<g id="edge10" class="edge"><title>Node74&#45;&gt;Node78</title>
<path fill="none" stroke="midnightblue" d="M167.705,-91.1884C200.428,-79.7617 248.753,-64.0036 292,-54.2706 530.276,-0.645362 597.205,13.2219 840,-13.2706 874.425,-17.0269 912.226,-25.1199 942.752,-32.6828"/>
<polygon fill="midnightblue" stroke="midnightblue" points="942.257,-36.1676 952.809,-35.2203 943.969,-29.3803 942.257,-36.1676"/>
</g>
<!-- Node79 -->
<g id="node6" class="node"><title>Node79</title>
<g id="a_node6"><a xlink:href="../../dd/d58/classorg_1_1lightjason_1_1trafficsimulation_1_1simulation_1_1algorithm_1_1routing_1_1CJPSPlus.htm#a7c6c3a92142a6ba8640d785a6d81848a" target="_top" xlink:title="Helper function to identify horizontal jump point. ">
<polygon fill="none" stroke="black" points="584,-70.2706 584,-98.2706 840,-98.2706 840,-70.2706 584,-70.2706"/>
<text text-anchor="start" x="592" y="-87.0706" font-family="Helvetica,sans-Serif" font-size="9.00">org.lightjason.trafficsimulation.simulation.algorithm.routing.</text>
<text text-anchor="middle" x="712" y="-77.0706" font-family="Helvetica,sans-Serif" font-size="9.00">CJPSPlus.horizontal</text>
</a>
</g>
</g>
<!-- Node74&#45;&gt;Node79 -->
<g id="edge6" class="edge"><title>Node74&#45;&gt;Node79</title>
<path fill="none" stroke="midnightblue" d="M256.003,-100.688C349.845,-97.302 477.47,-92.697 573.673,-89.2257"/>
<polygon fill="midnightblue" stroke="midnightblue" points="573.899,-92.72 583.766,-88.8615 573.646,-85.7245 573.899,-92.72"/>
</g>
<!-- Node80 -->
<g id="node7" class="node"><title>Node80</title>
<g id="a_node7"><a xlink:href="../../dd/d58/classorg_1_1lightjason_1_1trafficsimulation_1_1simulation_1_1algorithm_1_1routing_1_1CJPSPlus.htm#af5c40dcbd9dafbb4b5589e057e967d03" target="_top" xlink:title="Helper function to identify vertical jump point. ">
<polygon fill="none" stroke="black" points="584,-23.2706 584,-51.2706 840,-51.2706 840,-23.2706 584,-23.2706"/>
<text text-anchor="start" x="592" y="-40.0706" font-family="Helvetica,sans-Serif" font-size="9.00">org.lightjason.trafficsimulation.simulation.algorithm.routing.</text>
<text text-anchor="middle" x="712" y="-30.0706" font-family="Helvetica,sans-Serif" font-size="9.00">CJPSPlus.vertical</text>
</a>
</g>
</g>
<!-- Node74&#45;&gt;Node80 -->
<g id="edge11" class="edge"><title>Node74&#45;&gt;Node80</title>
<path fill="none" stroke="midnightblue" d="M248.885,-91.2634C345.559,-79.9682 481.311,-64.1072 580.666,-52.4986"/>
<polygon fill="midnightblue" stroke="midnightblue" points="581.245,-55.9549 590.771,-51.318 580.433,-49.0022 581.245,-55.9549"/>
</g>
<!-- Node75&#45;&gt;Node74 -->
<g id="edge5" class="edge"><title>Node75&#45;&gt;Node74</title>
<path fill="none" stroke="midnightblue" d="M291.868,-124.33C274.214,-123.082 256.202,-121.671 238.899,-120.179"/>
<polygon fill="midnightblue" stroke="midnightblue" points="239.07,-116.68 228.802,-119.291 238.457,-123.654 239.07,-116.68"/>
</g>
<!-- Node76 -->
<g id="node3" class="node"><title>Node76</title>
<g id="a_node3"><a xlink:href="../../dd/d58/classorg_1_1lightjason_1_1trafficsimulation_1_1simulation_1_1algorithm_1_1routing_1_1CJPSPlus.htm#accdd1df4e9214e0336c31705152ff462" target="_top" xlink:title="Helper function to identify diagonal jump point. ">
<polygon fill="none" stroke="black" points="584,-117.271 584,-145.271 840,-145.271 840,-117.271 584,-117.271"/>
<text text-anchor="start" x="592" y="-134.071" font-family="Helvetica,sans-Serif" font-size="9.00">org.lightjason.trafficsimulation.simulation.algorithm.routing.</text>
<text text-anchor="middle" x="712" y="-124.071" font-family="Helvetica,sans-Serif" font-size="9.00">CJPSPlus.diagonal</text>
</a>
</g>
</g>
<!-- Node75&#45;&gt;Node76 -->
<g id="edge2" class="edge"><title>Node75&#45;&gt;Node76</title>
<path fill="none" stroke="midnightblue" d="M548.198,-129.025C556.73,-129.143 565.346,-129.262 573.924,-129.38"/>
<polygon fill="midnightblue" stroke="midnightblue" points="573.923,-132.88 583.97,-129.518 574.019,-125.881 573.923,-132.88"/>
</g>
<!-- Node76&#45;&gt;Node77 -->
<g id="edge3" class="edge"><title>Node76&#45;&gt;Node77</title>
<path fill="none" stroke="midnightblue" d="M840.198,-126.007C848.73,-125.654 857.346,-125.298 865.924,-124.943"/>
<polygon fill="midnightblue" stroke="midnightblue" points="866.123,-128.438 875.97,-124.527 865.834,-121.444 866.123,-128.438"/>
</g>
<!-- Node76&#45;&gt;Node78 -->
<g id="edge4" class="edge"><title>Node76&#45;&gt;Node78</title>
<path fill="none" stroke="midnightblue" d="M797.444,-117.213C811.734,-114.293 826.354,-110.964 840,-107.271 851.456,-104.17 910.894,-82.7914 954.702,-66.8851"/>
<polygon fill="midnightblue" stroke="midnightblue" points="956.142,-70.0856 964.346,-63.3803 953.751,-63.5065 956.142,-70.0856"/>
</g>
<!-- Node79&#45;&gt;Node77 -->
<g id="edge7" class="edge"><title>Node79&#45;&gt;Node77</title>
<path fill="none" stroke="midnightblue" d="M829.283,-98.3048C844.795,-100.177 860.763,-102.104 876.439,-103.996"/>
<polygon fill="midnightblue" stroke="midnightblue" points="876.343,-107.51 886.691,-105.233 877.182,-100.56 876.343,-107.51"/>
</g>
<!-- Node79&#45;&gt;Node78 -->
<g id="edge8" class="edge"><title>Node79&#45;&gt;Node78</title>
<path fill="none" stroke="midnightblue" d="M829.283,-70.2365C844.795,-68.3644 860.763,-66.4371 876.439,-64.5452"/>
<polygon fill="midnightblue" stroke="midnightblue" points="877.182,-67.981 886.691,-63.3079 876.343,-61.0314 877.182,-67.981"/>
</g>
<!-- Node80&#45;&gt;Node77 -->
<g id="edge12" class="edge"><title>Node80&#45;&gt;Node77</title>
<path fill="none" stroke="midnightblue" d="M801.56,-51.3333C814.531,-53.9637 827.668,-56.9473 840,-60.2706 851.549,-63.3829 911.614,-85.3827 955.484,-101.611"/>
<polygon fill="midnightblue" stroke="midnightblue" points="954.539,-104.994 965.132,-105.184 956.97,-98.4291 954.539,-104.994"/>
</g>
<!-- Node80&#45;&gt;Node78 -->
<g id="edge13" class="edge"><title>Node80&#45;&gt;Node78</title>
<path fill="none" stroke="midnightblue" d="M840.198,-42.534C848.73,-42.887 857.346,-43.2435 865.924,-43.5985"/>
<polygon fill="midnightblue" stroke="midnightblue" points="865.834,-47.0977 875.97,-44.0142 866.123,-40.1037 865.834,-47.0977"/>
</g>
</g>
</svg>
