<?xml version="1.0" encoding="UTF-8" standalone="no"?>
<!DOCTYPE svg PUBLIC "-//W3C//DTD SVG 1.1//EN"
 "http://www.w3.org/Graphics/SVG/1.1/DTD/svg11.dtd">
<!-- Generated by graphviz version 2.36.0 (20140111.2315)
 -->
<!-- Title: org.lightjason.trafficsimulation.simulation.algorithm.routing.CJPSPlus.calculateScore Pages: 1 -->
<svg width="556pt" height="177pt"
 viewBox="0.00 0.00 556.00 177.00" xmlns="http://www.w3.org/2000/svg" xmlns:xlink="http://www.w3.org/1999/xlink">
<g id="graph0" class="graph" transform="scale(1 1) rotate(0) translate(4 173)">
<title>org.lightjason.trafficsimulation.simulation.algorithm.routing.CJPSPlus.calculateScore</title>
<!-- Node10 -->
<g id="node1" class="node"><title>Node10</title>
<polygon fill="#bfbfbf" stroke="black" points="0,-70 0,-98 256,-98 256,-70 0,-70"/>
<text text-anchor="start" x="8" y="-86.8" font-family="Helvetica,sans-Serif" font-size="9.00">org.lightjason.trafficsimulation.simulation.algorithm.routing.</text>
<text text-anchor="middle" x="128" y="-76.8" font-family="Helvetica,sans-Serif" font-size="9.00">CJPSPlus.calculateScore</text>
</g>
<!-- Node11 -->
<g id="node2" class="node"><title>Node11</title>
<g id="a_node2"><a xlink:href="../../d9/d71/classorg_1_1lightjason_1_1trafficsimulation_1_1simulation_1_1algorithm_1_1routing_1_1CJPSPlus_1_1CJumpPoint.htm#a6f129e7d96f6b1ee8b1f0bf0215838ec" target="_top" xlink:title="getter for coordinate ">
<polygon fill="none" stroke="black" points="292,-141 292,-169 548,-169 548,-141 292,-141"/>
<text text-anchor="start" x="300" y="-157.8" font-family="Helvetica,sans-Serif" font-size="9.00">org.lightjason.trafficsimulation.simulation.algorithm.routing.</text>
<text text-anchor="middle" x="420" y="-147.8" font-family="Helvetica,sans-Serif" font-size="9.00">CJPSPlus.CJumpPoint.coordinate</text>
</a>
</g>
</g>
<!-- Node10&#45;&gt;Node11 -->
<g id="edge1" class="edge"><title>Node10&#45;&gt;Node11</title>
<path fill="none" stroke="midnightblue" d="M173.324,-98.0029C205.936,-108.006 251.459,-121.347 292,-131 303.799,-133.809 316.276,-136.502 328.621,-139.003"/>
<polygon fill="midnightblue" stroke="midnightblue" points="327.985,-142.445 338.476,-140.965 329.352,-135.579 327.985,-142.445"/>
</g>
<!-- Node12 -->
<g id="node3" class="node"><title>Node12</title>
<g id="a_node3"><a xlink:href="../../d9/d71/classorg_1_1lightjason_1_1trafficsimulation_1_1simulation_1_1algorithm_1_1routing_1_1CJPSPlus_1_1CJumpPoint.htm#a52f4bef8c1eb1e4afd0d13ed3b96aaa9" target="_top" xlink:title="getter for g&#45;score ">
<polygon fill="none" stroke="black" points="292,-94 292,-122 548,-122 548,-94 292,-94"/>
<text text-anchor="start" x="300" y="-110.8" font-family="Helvetica,sans-Serif" font-size="9.00">org.lightjason.trafficsimulation.simulation.algorithm.routing.</text>
<text text-anchor="middle" x="420" y="-100.8" font-family="Helvetica,sans-Serif" font-size="9.00">CJPSPlus.CJumpPoint.gscore</text>
</a>
</g>
</g>
<!-- Node10&#45;&gt;Node12 -->
<g id="edge2" class="edge"><title>Node10&#45;&gt;Node12</title>
<path fill="none" stroke="midnightblue" d="M256.198,-94.5267C264.73,-95.2328 273.346,-95.9458 281.924,-96.6558"/>
<polygon fill="midnightblue" stroke="midnightblue" points="281.715,-100.15 291.97,-97.4872 282.293,-93.1742 281.715,-100.15"/>
</g>
<!-- Node13 -->
<g id="node4" class="node"><title>Node13</title>
<g id="a_node4"><a xlink:href="../../d9/d71/classorg_1_1lightjason_1_1trafficsimulation_1_1simulation_1_1algorithm_1_1routing_1_1CJPSPlus_1_1CJumpPoint.htm#af92a57afa1b588ab9820bc324ff91f72" target="_top" xlink:title="setter for h_score ">
<polygon fill="none" stroke="black" points="292,-47 292,-75 548,-75 548,-47 292,-47"/>
<text text-anchor="start" x="300" y="-63.8" font-family="Helvetica,sans-Serif" font-size="9.00">org.lightjason.trafficsimulation.simulation.algorithm.routing.</text>
<text text-anchor="middle" x="420" y="-53.8" font-family="Helvetica,sans-Serif" font-size="9.00">CJPSPlus.CJumpPoint.hscore</text>
</a>
</g>
</g>
<!-- Node10&#45;&gt;Node13 -->
<g id="edge3" class="edge"><title>Node10&#45;&gt;Node13</title>
<path fill="none" stroke="midnightblue" d="M256.198,-73.9119C264.73,-73.2352 273.346,-72.5519 281.924,-71.8716"/>
<polygon fill="midnightblue" stroke="midnightblue" points="282.278,-75.3546 291.97,-71.0748 281.724,-68.3765 282.278,-75.3546"/>
</g>
<!-- Node14 -->
<g id="node5" class="node"><title>Node14</title>
<g id="a_node5"><a xlink:href="../../d9/d71/classorg_1_1lightjason_1_1trafficsimulation_1_1simulation_1_1algorithm_1_1routing_1_1CJPSPlus_1_1CJumpPoint.htm#a7ef896fc661b726f5245ea139ede8374" target="_top" xlink:title="getter for parent ">
<polygon fill="none" stroke="black" points="292,-0 292,-28 548,-28 548,-0 292,-0"/>
<text text-anchor="start" x="300" y="-16.8" font-family="Helvetica,sans-Serif" font-size="9.00">org.lightjason.trafficsimulation.simulation.algorithm.routing.</text>
<text text-anchor="middle" x="420" y="-6.8" font-family="Helvetica,sans-Serif" font-size="9.00">CJPSPlus.CJumpPoint.parent</text>
</a>
</g>
</g>
<!-- Node10&#45;&gt;Node14 -->
<g id="edge4" class="edge"><title>Node10&#45;&gt;Node14</title>
<path fill="none" stroke="midnightblue" d="M174.738,-69.9238C207.257,-60.2036 252.07,-47.3878 292,-38 303.893,-35.2039 316.471,-32.5116 328.906,-30.0054"/>
<polygon fill="midnightblue" stroke="midnightblue" points="329.703,-33.4155 338.831,-28.037 328.342,-26.5492 329.703,-33.4155"/>
</g>
</g>
</svg>
