<?xml version="1.0" encoding="UTF-8" standalone="no"?>
<!DOCTYPE svg PUBLIC "-//W3C//DTD SVG 1.1//EN"
 "http://www.w3.org/Graphics/SVG/1.1/DTD/svg11.dtd">
<!-- Generated by graphviz version 2.36.0 (20140111.2315)
 -->
<!-- Title: org.lightjason.trafficsimulation.simulation.algorithm.routing.CJPSPlus.diagjump Pages: 1 -->
<svg width="1140pt" height="36pt"
 viewBox="0.00 0.00 1140.00 36.00" xmlns="http://www.w3.org/2000/svg" xmlns:xlink="http://www.w3.org/1999/xlink">
<g id="graph0" class="graph" transform="scale(1 1) rotate(0) translate(4 32)">
<title>org.lightjason.trafficsimulation.simulation.algorithm.routing.CJPSPlus.diagjump</title>
<!-- Node26 -->
<g id="node1" class="node"><title>Node26</title>
<polygon fill="#bfbfbf" stroke="black" points="0,-0 0,-28 256,-28 256,-0 0,-0"/>
<text text-anchor="start" x="8" y="-16.8" font-family="Helvetica,sans-Serif" font-size="9.00">org.lightjason.trafficsimulation.simulation.algorithm.routing.</text>
<text text-anchor="middle" x="128" y="-6.8" font-family="Helvetica,sans-Serif" font-size="9.00">CJPSPlus.diagjump</text>
</g>
<!-- Node27 -->
<g id="node2" class="node"><title>Node27</title>
<g id="a_node2"><a xlink:href="../../dd/d58/classorg_1_1lightjason_1_1trafficsimulation_1_1simulation_1_1algorithm_1_1routing_1_1CJPSPlus.htm#a2e9e6b64161af027f7f03da312ab8006" target="_top" xlink:title="In order to identify individual jump point successors heading in a given direction (run recursively u...">
<polygon fill="none" stroke="black" points="292,-0 292,-28 548,-28 548,-0 292,-0"/>
<text text-anchor="start" x="300" y="-16.8" font-family="Helvetica,sans-Serif" font-size="9.00">org.lightjason.trafficsimulation.simulation.algorithm.routing.</text>
<text text-anchor="middle" x="420" y="-6.8" font-family="Helvetica,sans-Serif" font-size="9.00">CJPSPlus.jump</text>
</a>
</g>
</g>
<!-- Node26&#45;&gt;Node27 -->
<g id="edge1" class="edge"><title>Node26&#45;&gt;Node27</title>
<path fill="none" stroke="midnightblue" d="M266.245,-7.25859C274.824,-7.23957 283.439,-7.25214 291.97,-7.29629"/>
<polygon fill="midnightblue" stroke="midnightblue" points="266.185,-3.75868 256.198,-7.29542 266.211,-10.7586 266.185,-3.75868"/>
</g>
<!-- Node27&#45;&gt;Node26 -->
<g id="edge4" class="edge"><title>Node27&#45;&gt;Node26</title>
<path fill="none" stroke="midnightblue" d="M281.924,-20.741C273.346,-20.7605 264.73,-20.7483 256.198,-20.7046"/>
<polygon fill="midnightblue" stroke="midnightblue" points="281.983,-24.2409 291.97,-20.7037 281.957,-17.241 281.983,-24.2409"/>
</g>
<!-- Node28 -->
<g id="node3" class="node"><title>Node28</title>
<g id="a_node3"><a xlink:href="../../dd/d58/classorg_1_1lightjason_1_1trafficsimulation_1_1simulation_1_1algorithm_1_1routing_1_1CJPSPlus.htm#a3f4b1b068738b9a1607eadab094a5971" target="_top" xlink:title="individual jump point successors are identified ">
<polygon fill="none" stroke="black" points="584,-0 584,-28 840,-28 840,-0 584,-0"/>
<text text-anchor="start" x="592" y="-16.8" font-family="Helvetica,sans-Serif" font-size="9.00">org.lightjason.trafficsimulation.simulation.algorithm.routing.</text>
<text text-anchor="middle" x="712" y="-6.8" font-family="Helvetica,sans-Serif" font-size="9.00">CJPSPlus.successors</text>
</a>
</g>
</g>
<!-- Node27&#45;&gt;Node28 -->
<g id="edge2" class="edge"><title>Node27&#45;&gt;Node28</title>
<path fill="none" stroke="midnightblue" d="M558.245,-14C566.824,-14 575.439,-14 583.97,-14"/>
<polygon fill="midnightblue" stroke="midnightblue" points="558.198,-10.5001 548.198,-14 558.198,-17.5001 558.198,-10.5001"/>
</g>
<!-- Node29 -->
<g id="node4" class="node"><title>Node29</title>
<g id="a_node4"><a xlink:href="../../dd/d58/classorg_1_1lightjason_1_1trafficsimulation_1_1simulation_1_1algorithm_1_1routing_1_1CJPSPlus.htm#aecb3e49cfae01851a9e000465c638567" target="_top" xlink:title="routing algorithm ">
<polygon fill="none" stroke="black" points="876,-0 876,-28 1132,-28 1132,-0 876,-0"/>
<text text-anchor="start" x="884" y="-16.8" font-family="Helvetica,sans-Serif" font-size="9.00">org.lightjason.trafficsimulation.simulation.algorithm.routing.</text>
<text text-anchor="middle" x="1004" y="-6.8" font-family="Helvetica,sans-Serif" font-size="9.00">CJPSPlus.route</text>
</a>
</g>
</g>
<!-- Node28&#45;&gt;Node29 -->
<g id="edge3" class="edge"><title>Node28&#45;&gt;Node29</title>
<path fill="none" stroke="midnightblue" d="M850.245,-14C858.824,-14 867.439,-14 875.97,-14"/>
<polygon fill="midnightblue" stroke="midnightblue" points="850.198,-10.5001 840.198,-14 850.198,-17.5001 850.198,-10.5001"/>
</g>
</g>
</svg>
