<?xml version="1.0" encoding="UTF-8" standalone="no"?>
<!DOCTYPE svg PUBLIC "-//W3C//DTD SVG 1.1//EN"
 "http://www.w3.org/Graphics/SVG/1.1/DTD/svg11.dtd">
<!-- Generated by graphviz version 2.36.0 (20140111.2315)
 -->
<!-- Title: org.lightjason.trafficsimulation.simulation.algorithm.routing.ERoutingFactory Pages: 1 -->
<svg width="264pt" height="216pt"
 viewBox="0.00 0.00 264.00 216.00" xmlns="http://www.w3.org/2000/svg" xmlns:xlink="http://www.w3.org/1999/xlink">
<g id="graph0" class="graph" transform="scale(1 1) rotate(0) translate(4 212)">
<title>org.lightjason.trafficsimulation.simulation.algorithm.routing.ERoutingFactory</title>
<!-- Node1 -->
<g id="node1" class="node"><title>Node1</title>
<polygon fill="#bfbfbf" stroke="black" points="0,-1 0,-75 256,-75 256,-1 0,-1"/>
<text text-anchor="start" x="8" y="-63.8" font-family="Helvetica,sans-Serif" font-size="9.00">org.lightjason.trafficsimulation.simulation.algorithm.routing.</text>
<text text-anchor="middle" x="128" y="-53.8" font-family="Helvetica,sans-Serif" font-size="9.00">ERoutingFactory</text>
<polyline fill="none" stroke="black" points="0,-47 256,-47 "/>
<text text-anchor="start" x="8" y="-35.8" font-family="Helvetica,sans-Serif" font-size="9.00">+ JPSPLUS</text>
<polyline fill="none" stroke="black" points="0,-29 256,-29 "/>
<text text-anchor="start" x="8" y="-17.8" font-family="Helvetica,sans-Serif" font-size="9.00">+ ERoutingFactory()</text>
<text text-anchor="start" x="8" y="-7.8" font-family="Helvetica,sans-Serif" font-size="9.00">+ get()</text>
</g>
<!-- Node2 -->
<g id="node2" class="node"><title>Node2</title>
<g id="a_node2"><a xlink:href="../../d1/dd2/interfaceorg_1_1lightjason_1_1trafficsimulation_1_1simulation_1_1algorithm_1_1routing_1_1IRouting.htm" target="_top" xlink:title="routing interface ">
<polygon fill="none" stroke="black" points="0,-123 0,-207 256,-207 256,-123 0,-123"/>
<text text-anchor="start" x="8" y="-195.8" font-family="Helvetica,sans-Serif" font-size="9.00">org.lightjason.trafficsimulation.simulation.algorithm.routing.</text>
<text text-anchor="middle" x="128" y="-185.8" font-family="Helvetica,sans-Serif" font-size="9.00">IRouting</text>
<polyline fill="none" stroke="black" points="0,-179 256,-179 "/>
<text text-anchor="middle" x="128" y="-167.8" font-family="Helvetica,sans-Serif" font-size="9.00"> </text>
<polyline fill="none" stroke="black" points="0,-161 256,-161 "/>
<text text-anchor="start" x="8" y="-149.8" font-family="Helvetica,sans-Serif" font-size="9.00">+ estimatedtime()</text>
<text text-anchor="start" x="8" y="-139.8" font-family="Helvetica,sans-Serif" font-size="9.00">+ initialize()</text>
<text text-anchor="start" x="8" y="-129.8" font-family="Helvetica,sans-Serif" font-size="9.00">+ route()</text>
</a>
</g>
</g>
<!-- Node2&#45;&gt;Node1 -->
<g id="edge1" class="edge"><title>Node2&#45;&gt;Node1</title>
<path fill="none" stroke="#404040" d="M128,-122.724C128,-111.444 128,-99.1167 128,-87.4744"/>
<polygon fill="none" stroke="#404040" points="128,-87.1919 124,-81.1919 128,-75.1919 132,-81.1919 128,-87.1919"/>
<text text-anchor="middle" x="151.5" y="-96.8" font-family="Helvetica,sans-Serif" font-size="9.00"> &#45;m_routing</text>
</g>
</g>
</svg>
