<?xml version="1.0" encoding="UTF-8" standalone="no"?>
<!DOCTYPE svg PUBLIC "-//W3C//DTD SVG 1.1//EN"
 "http://www.w3.org/Graphics/SVG/1.1/DTD/svg11.dtd">
<!-- Generated by graphviz version 2.36.0 (20140111.2315)
 -->
<!-- Title: org.lightjason.trafficsimulation.simulation.movable.TestCPedestrian.main Pages: 1 -->
<svg width="758pt" height="83pt"
 viewBox="0.00 0.00 758.00 83.00" xmlns="http://www.w3.org/2000/svg" xmlns:xlink="http://www.w3.org/1999/xlink">
<g id="graph0" class="graph" transform="scale(1 1) rotate(0) translate(4 79)">
<title>org.lightjason.trafficsimulation.simulation.movable.TestCPedestrian.main</title>
<!-- Node5 -->
<g id="node1" class="node"><title>Node5</title>
<polygon fill="#bfbfbf" stroke="black" points="0,-23 0,-51 222,-51 222,-23 0,-23"/>
<text text-anchor="start" x="8" y="-39.8" font-family="Helvetica,sans-Serif" font-size="9.00">org.lightjason.trafficsimulation.simulation.movable.</text>
<text text-anchor="middle" x="111" y="-29.8" font-family="Helvetica,sans-Serif" font-size="9.00">TestCPedestrian.main</text>
</g>
<!-- Node6 -->
<g id="node2" class="node"><title>Node6</title>
<g id="a_node2"><a xlink:href="../../dd/d4d/classorg_1_1lightjason_1_1trafficsimulation_1_1IBaseTest.htm#a30660d966a228cd681a34edf531253ab" target="_top" xlink:title="invoke all test manually ">
<polygon fill="none" stroke="black" points="258,-23 258,-51 398,-51 398,-23 258,-23"/>
<text text-anchor="start" x="266" y="-39.8" font-family="Helvetica,sans-Serif" font-size="9.00">org.lightjason.trafficsimulation.</text>
<text text-anchor="middle" x="328" y="-29.8" font-family="Helvetica,sans-Serif" font-size="9.00">IBaseTest.invoketest</text>
</a>
</g>
</g>
<!-- Node5&#45;&gt;Node6 -->
<g id="edge1" class="edge"><title>Node5&#45;&gt;Node6</title>
<path fill="none" stroke="midnightblue" d="M222.019,-37C230.686,-37 239.332,-37 247.73,-37"/>
<polygon fill="midnightblue" stroke="midnightblue" points="247.836,-40.5001 257.836,-37 247.835,-33.5001 247.836,-40.5001"/>
</g>
<!-- Node7 -->
<g id="node3" class="node"><title>Node7</title>
<g id="a_node3"><a xlink:href="../../dd/d4d/classorg_1_1lightjason_1_1trafficsimulation_1_1IBaseTest.htm#a2ddcd9f229590c4aba0bb7f16cd46a78" target="_top" xlink:title="reads the before annotated methods ">
<polygon fill="none" stroke="black" points="434,-47 434,-75 574,-75 574,-47 434,-47"/>
<text text-anchor="start" x="442" y="-63.8" font-family="Helvetica,sans-Serif" font-size="9.00">org.lightjason.trafficsimulation.</text>
<text text-anchor="middle" x="504" y="-53.8" font-family="Helvetica,sans-Serif" font-size="9.00">IBaseTest.before</text>
</a>
</g>
</g>
<!-- Node6&#45;&gt;Node7 -->
<g id="edge2" class="edge"><title>Node6&#45;&gt;Node7</title>
<path fill="none" stroke="midnightblue" d="M398.019,-46.5199C406.476,-47.6863 415.169,-48.8854 423.761,-50.0704"/>
<polygon fill="midnightblue" stroke="midnightblue" points="423.395,-53.5531 433.779,-51.4523 424.352,-46.6187 423.395,-53.5531"/>
</g>
<!-- Node8 -->
<g id="node4" class="node"><title>Node8</title>
<g id="a_node4"><a xlink:href="../../dd/d4d/classorg_1_1lightjason_1_1trafficsimulation_1_1IBaseTest.htm#a3ddd0bcf774d2877cdfd068f7b74f121" target="_top" xlink:title="invoke method and read if possible the data&#45;provider ">
<polygon fill="none" stroke="black" points="434,-0 434,-28 574,-28 574,-0 434,-0"/>
<text text-anchor="start" x="442" y="-16.8" font-family="Helvetica,sans-Serif" font-size="9.00">org.lightjason.trafficsimulation.</text>
<text text-anchor="middle" x="504" y="-6.8" font-family="Helvetica,sans-Serif" font-size="9.00">IBaseTest.invoke</text>
</a>
</g>
</g>
<!-- Node6&#45;&gt;Node8 -->
<g id="edge3" class="edge"><title>Node6&#45;&gt;Node8</title>
<path fill="none" stroke="midnightblue" d="M398.019,-27.8768C406.476,-26.759 415.169,-25.6098 423.761,-24.4742"/>
<polygon fill="midnightblue" stroke="midnightblue" points="424.324,-27.9302 433.779,-23.1498 423.407,-20.9905 424.324,-27.9302"/>
</g>
<!-- Node9 -->
<g id="node5" class="node"><title>Node9</title>
<g id="a_node5"><a xlink:href="../../dd/d4d/classorg_1_1lightjason_1_1trafficsimulation_1_1IBaseTest.htm#a969ee3466db626521249bda39e8ae9f8" target="_top" xlink:title="invokes the method within the current object context ">
<polygon fill="none" stroke="black" points="610,-0 610,-28 750,-28 750,-0 610,-0"/>
<text text-anchor="start" x="618" y="-16.8" font-family="Helvetica,sans-Serif" font-size="9.00">org.lightjason.trafficsimulation.</text>
<text text-anchor="middle" x="680" y="-6.8" font-family="Helvetica,sans-Serif" font-size="9.00">IBaseTest.execute</text>
</a>
</g>
</g>
<!-- Node8&#45;&gt;Node9 -->
<g id="edge4" class="edge"><title>Node8&#45;&gt;Node9</title>
<path fill="none" stroke="midnightblue" d="M574.019,-14C582.476,-14 591.169,-14 599.761,-14"/>
<polygon fill="midnightblue" stroke="midnightblue" points="599.78,-17.5001 609.779,-14 599.779,-10.5001 599.78,-17.5001"/>
</g>
</g>
</svg>
