<?xml version="1.0" encoding="UTF-8" standalone="no"?>
<!DOCTYPE svg PUBLIC "-//W3C//DTD SVG 1.1//EN"
 "http://www.w3.org/Graphics/SVG/1.1/DTD/svg11.dtd">
<!-- Generated by graphviz version 2.36.0 (20140111.2315)
 -->
<!-- Title: org.lightjason.trafficsimulation.simulation.movable.TestCViewPedstrian Pages: 1 -->
<svg width="246pt" height="778pt"
 viewBox="0.00 0.00 246.00 778.00" xmlns="http://www.w3.org/2000/svg" xmlns:xlink="http://www.w3.org/1999/xlink">
<g id="graph0" class="graph" transform="scale(1 1) rotate(0) translate(4 774)">
<title>org.lightjason.trafficsimulation.simulation.movable.TestCViewPedstrian</title>
<!-- Node3 -->
<g id="node1" class="node"><title>Node3</title>
<polygon fill="#bfbfbf" stroke="black" points="8,-1 8,-145 230,-145 230,-1 8,-1"/>
<text text-anchor="start" x="16" y="-133.8" font-family="Helvetica,sans-Serif" font-size="9.00">org.lightjason.trafficsimulation.simulation.movable.</text>
<text text-anchor="middle" x="119" y="-123.8" font-family="Helvetica,sans-Serif" font-size="9.00">TestCViewPedstrian</text>
<polyline fill="none" stroke="black" points="8,-117 230,-117 "/>
<text text-anchor="start" x="16" y="-105.8" font-family="Helvetica,sans-Serif" font-size="9.00">&#45; m_pedestrian</text>
<text text-anchor="start" x="16" y="-95.8" font-family="Helvetica,sans-Serif" font-size="9.00">&#45; ENVCELL</text>
<text text-anchor="start" x="16" y="-85.8" font-family="Helvetica,sans-Serif" font-size="9.00">&#45; ENVHEIGHT</text>
<text text-anchor="start" x="16" y="-75.8" font-family="Helvetica,sans-Serif" font-size="9.00">&#45; ENVWIDTH</text>
<text text-anchor="start" x="16" y="-65.8" font-family="Helvetica,sans-Serif" font-size="9.00">&#45; s_screen</text>
<text text-anchor="start" x="16" y="-55.8" font-family="Helvetica,sans-Serif" font-size="9.00">&#45; WINDOWHEIGHT</text>
<text text-anchor="start" x="16" y="-45.8" font-family="Helvetica,sans-Serif" font-size="9.00">&#45; WINDOWWIDTH</text>
<polyline fill="none" stroke="black" points="8,-39 230,-39 "/>
<text text-anchor="start" x="16" y="-27.8" font-family="Helvetica,sans-Serif" font-size="9.00">+ initialize()</text>
<text text-anchor="start" x="16" y="-17.8" font-family="Helvetica,sans-Serif" font-size="9.00">+ showmoving()</text>
<text text-anchor="start" x="16" y="-7.8" font-family="Helvetica,sans-Serif" font-size="9.00">+ main()</text>
</g>
<!-- Node4 -->
<g id="node2" class="node"><title>Node4</title>
<g id="a_node2"><a xlink:href="../../d8/dbd/classorg_1_1lightjason_1_1trafficsimulation_1_1IBaseViewTest.htm" target="_top" xlink:title="test class with window ">
<polygon fill="none" stroke="black" points="49,-185 49,-259 189,-259 189,-185 49,-185"/>
<text text-anchor="start" x="57" y="-247.8" font-family="Helvetica,sans-Serif" font-size="9.00">org.lightjason.trafficsimulation.</text>
<text text-anchor="middle" x="119" y="-237.8" font-family="Helvetica,sans-Serif" font-size="9.00">IBaseViewTest</text>
<polyline fill="none" stroke="black" points="49,-231 189,-231 "/>
<text text-anchor="middle" x="119" y="-219.8" font-family="Helvetica,sans-Serif" font-size="9.00"> </text>
<polyline fill="none" stroke="black" points="49,-213 189,-213 "/>
<text text-anchor="start" x="57" y="-201.8" font-family="Helvetica,sans-Serif" font-size="9.00"># screen()</text>
<text text-anchor="start" x="57" y="-191.8" font-family="Helvetica,sans-Serif" font-size="9.00"># screen()</text>
</a>
</g>
</g>
<!-- Node4&#45;&gt;Node3 -->
<g id="edge1" class="edge"><title>Node4&#45;&gt;Node3</title>
<path fill="none" stroke="midnightblue" d="M119,-174.466C119,-165.148 119,-155.158 119,-145.224"/>
<polygon fill="none" stroke="midnightblue" points="115.5,-174.663 119,-184.663 122.5,-174.663 115.5,-174.663"/>
</g>
<!-- Node5 -->
<g id="node3" class="node"><title>Node5</title>
<g id="a_node3"><a xlink:href="../../dd/d4d/classorg_1_1lightjason_1_1trafficsimulation_1_1IBaseTest.htm" target="_top" xlink:title="base test ">
<polygon fill="none" stroke="black" points="49,-299 49,-473 189,-473 189,-299 49,-299"/>
<text text-anchor="start" x="57" y="-461.8" font-family="Helvetica,sans-Serif" font-size="9.00">org.lightjason.trafficsimulation.</text>
<text text-anchor="middle" x="119" y="-451.8" font-family="Helvetica,sans-Serif" font-size="9.00">IBaseTest</text>
<polyline fill="none" stroke="black" points="49,-445 189,-445 "/>
<text text-anchor="start" x="57" y="-433.8" font-family="Helvetica,sans-Serif" font-size="9.00">&#45; m_actions</text>
<text text-anchor="start" x="57" y="-423.8" font-family="Helvetica,sans-Serif" font-size="9.00">&#45; m_agents</text>
<polyline fill="none" stroke="black" points="49,-417 189,-417 "/>
<text text-anchor="start" x="57" y="-405.8" font-family="Helvetica,sans-Serif" font-size="9.00">+ loadconfiguration()</text>
<text text-anchor="start" x="57" y="-395.8" font-family="Helvetica,sans-Serif" font-size="9.00">~ [static initializer]()</text>
<text text-anchor="start" x="57" y="-385.8" font-family="Helvetica,sans-Serif" font-size="9.00"># generate()</text>
<text text-anchor="start" x="57" y="-375.8" font-family="Helvetica,sans-Serif" font-size="9.00"># generatemultiple()</text>
<text text-anchor="start" x="57" y="-365.8" font-family="Helvetica,sans-Serif" font-size="9.00"># initializeenvironment()</text>
<text text-anchor="start" x="57" y="-355.8" font-family="Helvetica,sans-Serif" font-size="9.00"># invoketest()</text>
<text text-anchor="start" x="57" y="-345.8" font-family="Helvetica,sans-Serif" font-size="9.00"># executeagent()</text>
<text text-anchor="start" x="57" y="-335.8" font-family="Helvetica,sans-Serif" font-size="9.00"># executeagent()</text>
<text text-anchor="start" x="57" y="-325.8" font-family="Helvetica,sans-Serif" font-size="9.00">&#45; before()</text>
<text text-anchor="start" x="57" y="-315.8" font-family="Helvetica,sans-Serif" font-size="9.00">&#45; execute()</text>
<text text-anchor="start" x="57" y="-305.8" font-family="Helvetica,sans-Serif" font-size="9.00">&#45; invoke()</text>
</a>
</g>
</g>
<!-- Node5&#45;&gt;Node4 -->
<g id="edge2" class="edge"><title>Node5&#45;&gt;Node4</title>
<path fill="none" stroke="midnightblue" d="M119,-288.74C119,-278.353 119,-268.313 119,-259.337"/>
<polygon fill="none" stroke="midnightblue" points="115.5,-288.782 119,-298.783 122.5,-288.783 115.5,-288.782"/>
</g>
<!-- Node6 -->
<g id="node4" class="node"><title>Node6</title>
<g id="a_node4"><a xlink:href="../../d5/d10/interfaceorg_1_1lightjason_1_1trafficsimulation_1_1simulation_1_1environment_1_1IEnvironment.htm" target="_top" xlink:title="environment interface ">
<polygon fill="none" stroke="black" points="0,-521 0,-635 238,-635 238,-521 0,-521"/>
<text text-anchor="start" x="8" y="-623.8" font-family="Helvetica,sans-Serif" font-size="9.00">org.lightjason.trafficsimulation.simulation.environment.</text>
<text text-anchor="middle" x="119" y="-613.8" font-family="Helvetica,sans-Serif" font-size="9.00">IEnvironment</text>
<polyline fill="none" stroke="black" points="0,-607 238,-607 "/>
<text text-anchor="middle" x="119" y="-595.8" font-family="Helvetica,sans-Serif" font-size="9.00"> </text>
<polyline fill="none" stroke="black" points="0,-589 238,-589 "/>
<text text-anchor="start" x="8" y="-577.8" font-family="Helvetica,sans-Serif" font-size="9.00">+ empty()</text>
<text text-anchor="start" x="8" y="-567.8" font-family="Helvetica,sans-Serif" font-size="9.00">+ get()</text>
<text text-anchor="start" x="8" y="-557.8" font-family="Helvetica,sans-Serif" font-size="9.00">+ move()</text>
<text text-anchor="start" x="8" y="-547.8" font-family="Helvetica,sans-Serif" font-size="9.00">+ remove()</text>
<text text-anchor="start" x="8" y="-537.8" font-family="Helvetica,sans-Serif" font-size="9.00">+ route()</text>
<text text-anchor="start" x="8" y="-527.8" font-family="Helvetica,sans-Serif" font-size="9.00">+ routestimatedtime()</text>
</a>
</g>
</g>
<!-- Node6&#45;&gt;Node5 -->
<g id="edge3" class="edge"><title>Node6&#45;&gt;Node5</title>
<path fill="none" stroke="#404040" d="M119,-520.765C119,-509.521 119,-497.403 119,-485.215"/>
<polygon fill="none" stroke="#404040" points="119,-485.032 115,-479.032 119,-473.032 123,-479.032 119,-485.032"/>
<text text-anchor="middle" x="155" y="-494.8" font-family="Helvetica,sans-Serif" font-size="9.00"> #m_environment</text>
</g>
<!-- Node7 -->
<g id="node5" class="node"><title>Node7</title>
<g id="a_node5"><a xlink:href="../../d5/dea/interfaceorg_1_1lightjason_1_1trafficsimulation_1_1simulation_1_1IObject.htm" target="_top" xlink:title="object interface ">
<polygon fill="none" stroke="black" points="36.5,-675 36.5,-769 201.5,-769 201.5,-675 36.5,-675"/>
<text text-anchor="start" x="44.5" y="-757.8" font-family="Helvetica,sans-Serif" font-size="9.00">org::lightjason::trafficsimulation</text>
<text text-anchor="middle" x="119" y="-747.8" font-family="Helvetica,sans-Serif" font-size="9.00">::simulation::IObject&lt; IEnvironment &gt;</text>
<polyline fill="none" stroke="black" points="36.5,-741 201.5,-741 "/>
<text text-anchor="middle" x="119" y="-729.8" font-family="Helvetica,sans-Serif" font-size="9.00"> </text>
<polyline fill="none" stroke="black" points="36.5,-723 201.5,-723 "/>
<text text-anchor="start" x="44.5" y="-711.8" font-family="Helvetica,sans-Serif" font-size="9.00">+ literal()</text>
<text text-anchor="start" x="44.5" y="-701.8" font-family="Helvetica,sans-Serif" font-size="9.00">+ literal()</text>
<text text-anchor="start" x="44.5" y="-691.8" font-family="Helvetica,sans-Serif" font-size="9.00">+ name()</text>
<text text-anchor="start" x="44.5" y="-681.8" font-family="Helvetica,sans-Serif" font-size="9.00">+ position()</text>
</a>
</g>
</g>
<!-- Node7&#45;&gt;Node6 -->
<g id="edge4" class="edge"><title>Node7&#45;&gt;Node6</title>
<path fill="none" stroke="midnightblue" d="M119,-664.853C119,-655.046 119,-644.843 119,-635.039"/>
<polygon fill="none" stroke="midnightblue" points="115.5,-664.897 119,-674.897 122.5,-664.897 115.5,-664.897"/>
</g>
</g>
</svg>
