<?xml version="1.0" encoding="UTF-8" standalone="no"?>
<!DOCTYPE svg PUBLIC "-//W3C//DTD SVG 1.1//EN"
 "http://www.w3.org/Graphics/SVG/1.1/DTD/svg11.dtd">
<!-- Generated by graphviz version 2.36.0 (20140111.2315)
 -->
<!-- Title: org.lightjason.trafficsimulation.simulation.movable.TestCViewPedstrian.main Pages: 1 -->
<svg width="758pt" height="106pt"
 viewBox="0.00 0.00 758.00 106.00" xmlns="http://www.w3.org/2000/svg" xmlns:xlink="http://www.w3.org/1999/xlink">
<g id="graph0" class="graph" transform="scale(1 1) rotate(0) translate(4 102)">
<title>org.lightjason.trafficsimulation.simulation.movable.TestCViewPedstrian.main</title>
<!-- Node5 -->
<g id="node1" class="node"><title>Node5</title>
<polygon fill="#bfbfbf" stroke="black" points="0,-23 0,-51 222,-51 222,-23 0,-23"/>
<text text-anchor="start" x="8" y="-39.8" font-family="Helvetica,sans-Serif" font-size="9.00">org.lightjason.trafficsimulation.simulation.movable.</text>
<text text-anchor="middle" x="111" y="-29.8" font-family="Helvetica,sans-Serif" font-size="9.00">TestCViewPedstrian.main</text>
</g>
<!-- Node6 -->
<g id="node2" class="node"><title>Node6</title>
<g id="a_node2"><a xlink:href="../../dd/d4d/classorg_1_1lightjason_1_1trafficsimulation_1_1IBaseTest.htm#a30660d966a228cd681a34edf531253ab" target="_top" xlink:title="invoke all test manually ">
<polygon fill="none" stroke="black" points="258,-47 258,-75 398,-75 398,-47 258,-47"/>
<text text-anchor="start" x="266" y="-63.8" font-family="Helvetica,sans-Serif" font-size="9.00">org.lightjason.trafficsimulation.</text>
<text text-anchor="middle" x="328" y="-53.8" font-family="Helvetica,sans-Serif" font-size="9.00">IBaseTest.invoketest</text>
</a>
</g>
</g>
<!-- Node5&#45;&gt;Node6 -->
<g id="edge1" class="edge"><title>Node5&#45;&gt;Node6</title>
<path fill="none" stroke="midnightblue" d="M222.019,-49.2812C230.686,-50.2487 239.332,-51.2138 247.73,-52.1512"/>
<polygon fill="midnightblue" stroke="midnightblue" points="247.509,-55.6482 257.836,-53.2793 248.286,-48.6914 247.509,-55.6482"/>
</g>
<!-- Node10 -->
<g id="node6" class="node"><title>Node10</title>
<g id="a_node6"><a xlink:href="../../d8/dbd/classorg_1_1lightjason_1_1trafficsimulation_1_1IBaseViewTest.htm#a508c8fee50ac3c635a173b3cb1ac8508" target="_top" xlink:title="executes the screen ">
<polygon fill="none" stroke="black" points="258,-0 258,-28 398,-28 398,-0 258,-0"/>
<text text-anchor="start" x="266" y="-16.8" font-family="Helvetica,sans-Serif" font-size="9.00">org.lightjason.trafficsimulation.</text>
<text text-anchor="middle" x="328" y="-6.8" font-family="Helvetica,sans-Serif" font-size="9.00">IBaseViewTest.screen</text>
</a>
</g>
</g>
<!-- Node5&#45;&gt;Node10 -->
<g id="edge5" class="edge"><title>Node5&#45;&gt;Node10</title>
<path fill="none" stroke="midnightblue" d="M222.019,-25.2305C230.686,-24.3033 239.332,-23.3785 247.73,-22.4801"/>
<polygon fill="midnightblue" stroke="midnightblue" points="248.265,-25.9429 257.836,-21.399 247.52,-18.9826 248.265,-25.9429"/>
</g>
<!-- Node7 -->
<g id="node3" class="node"><title>Node7</title>
<g id="a_node3"><a xlink:href="../../dd/d4d/classorg_1_1lightjason_1_1trafficsimulation_1_1IBaseTest.htm#a2ddcd9f229590c4aba0bb7f16cd46a78" target="_top" xlink:title="reads the before annotated methods ">
<polygon fill="none" stroke="black" points="434,-70 434,-98 574,-98 574,-70 434,-70"/>
<text text-anchor="start" x="442" y="-86.8" font-family="Helvetica,sans-Serif" font-size="9.00">org.lightjason.trafficsimulation.</text>
<text text-anchor="middle" x="504" y="-76.8" font-family="Helvetica,sans-Serif" font-size="9.00">IBaseTest.before</text>
</a>
</g>
</g>
<!-- Node6&#45;&gt;Node7 -->
<g id="edge2" class="edge"><title>Node6&#45;&gt;Node7</title>
<path fill="none" stroke="midnightblue" d="M398.019,-70.1232C406.476,-71.241 415.169,-72.3902 423.761,-73.5258"/>
<polygon fill="midnightblue" stroke="midnightblue" points="423.407,-77.0095 433.779,-74.8502 424.324,-70.0698 423.407,-77.0095"/>
</g>
<!-- Node8 -->
<g id="node4" class="node"><title>Node8</title>
<g id="a_node4"><a xlink:href="../../dd/d4d/classorg_1_1lightjason_1_1trafficsimulation_1_1IBaseTest.htm#a3ddd0bcf774d2877cdfd068f7b74f121" target="_top" xlink:title="invoke method and read if possible the data&#45;provider ">
<polygon fill="none" stroke="black" points="434,-23 434,-51 574,-51 574,-23 434,-23"/>
<text text-anchor="start" x="442" y="-39.8" font-family="Helvetica,sans-Serif" font-size="9.00">org.lightjason.trafficsimulation.</text>
<text text-anchor="middle" x="504" y="-29.8" font-family="Helvetica,sans-Serif" font-size="9.00">IBaseTest.invoke</text>
</a>
</g>
</g>
<!-- Node6&#45;&gt;Node8 -->
<g id="edge3" class="edge"><title>Node6&#45;&gt;Node8</title>
<path fill="none" stroke="midnightblue" d="M398.019,-51.4801C406.476,-50.3137 415.169,-49.1146 423.761,-47.9296"/>
<polygon fill="midnightblue" stroke="midnightblue" points="424.352,-51.3813 433.779,-46.5477 423.395,-44.4469 424.352,-51.3813"/>
</g>
<!-- Node9 -->
<g id="node5" class="node"><title>Node9</title>
<g id="a_node5"><a xlink:href="../../dd/d4d/classorg_1_1lightjason_1_1trafficsimulation_1_1IBaseTest.htm#a969ee3466db626521249bda39e8ae9f8" target="_top" xlink:title="invokes the method within the current object context ">
<polygon fill="none" stroke="black" points="610,-23 610,-51 750,-51 750,-23 610,-23"/>
<text text-anchor="start" x="618" y="-39.8" font-family="Helvetica,sans-Serif" font-size="9.00">org.lightjason.trafficsimulation.</text>
<text text-anchor="middle" x="680" y="-29.8" font-family="Helvetica,sans-Serif" font-size="9.00">IBaseTest.execute</text>
</a>
</g>
</g>
<!-- Node8&#45;&gt;Node9 -->
<g id="edge4" class="edge"><title>Node8&#45;&gt;Node9</title>
<path fill="none" stroke="midnightblue" d="M574.019,-37C582.476,-37 591.169,-37 599.761,-37"/>
<polygon fill="midnightblue" stroke="midnightblue" points="599.78,-40.5001 609.779,-37 599.779,-33.5001 599.78,-40.5001"/>
</g>
</g>
</svg>
