<?xml version="1.0" encoding="UTF-8" standalone="no"?>
<!DOCTYPE svg PUBLIC "-//W3C//DTD SVG 1.1//EN"
 "http://www.w3.org/Graphics/SVG/1.1/DTD/svg11.dtd">
<!-- Generated by graphviz version 2.36.0 (20140111.2315)
 -->
<!-- Title: org.lightjason.trafficsimulation.simulation.movable.TestCViewPedstrian.initialize Pages: 1 -->
<svg width="632pt" height="83pt"
 viewBox="0.00 0.00 632.00 83.00" xmlns="http://www.w3.org/2000/svg" xmlns:xlink="http://www.w3.org/1999/xlink">
<g id="graph0" class="graph" transform="scale(1 1) rotate(0) translate(4 79)">
<title>org.lightjason.trafficsimulation.simulation.movable.TestCViewPedstrian.initialize</title>
<!-- Node0 -->
<g id="node1" class="node"><title>Node0</title>
<polygon fill="#bfbfbf" stroke="black" points="0,-23 0,-51 222,-51 222,-23 0,-23"/>
<text text-anchor="start" x="8" y="-39.8" font-family="Helvetica,sans-Serif" font-size="9.00">org.lightjason.trafficsimulation.simulation.movable.</text>
<text text-anchor="middle" x="111" y="-29.8" font-family="Helvetica,sans-Serif" font-size="9.00">TestCViewPedstrian.initialize</text>
</g>
<!-- Node1 -->
<g id="node2" class="node"><title>Node1</title>
<g id="a_node2"><a xlink:href="../../dd/d4d/classorg_1_1lightjason_1_1trafficsimulation_1_1IBaseTest.htm#a26710acb5a3cbd91313269e982d38579" target="_top" xlink:title="runs the object generation proecess ">
<polygon fill="none" stroke="black" points="260,-47 260,-75 400,-75 400,-47 260,-47"/>
<text text-anchor="start" x="268" y="-63.8" font-family="Helvetica,sans-Serif" font-size="9.00">org.lightjason.trafficsimulation.</text>
<text text-anchor="middle" x="330" y="-53.8" font-family="Helvetica,sans-Serif" font-size="9.00">IBaseTest.generate</text>
</a>
</g>
</g>
<!-- Node0&#45;&gt;Node1 -->
<g id="edge1" class="edge"><title>Node0&#45;&gt;Node1</title>
<path fill="none" stroke="midnightblue" d="M222.089,-49.1758C231.465,-50.2127 240.825,-51.2479 249.889,-52.2504"/>
<polygon fill="midnightblue" stroke="midnightblue" points="249.657,-55.746 259.982,-53.3666 250.427,-48.7885 249.657,-55.746"/>
</g>
<!-- Node3 -->
<g id="node4" class="node"><title>Node3</title>
<g id="a_node4"><a xlink:href="../../dd/d4d/classorg_1_1lightjason_1_1trafficsimulation_1_1IBaseTest.htm#a327cb5c02aa81015b30852a9b4a9ec80" target="_top" xlink:title="initialize environment ">
<polygon fill="none" stroke="black" points="258,-0 258,-28 402,-28 402,-0 258,-0"/>
<text text-anchor="start" x="266" y="-16.8" font-family="Helvetica,sans-Serif" font-size="9.00">org.lightjason.trafficsimulation.</text>
<text text-anchor="middle" x="330" y="-6.8" font-family="Helvetica,sans-Serif" font-size="9.00">IBaseTest.initializeenvironment</text>
</a>
</g>
</g>
<!-- Node0&#45;&gt;Node3 -->
<g id="edge3" class="edge"><title>Node0&#45;&gt;Node3</title>
<path fill="none" stroke="midnightblue" d="M222.089,-25.3315C230.741,-24.4145 239.38,-23.4989 247.785,-22.6081"/>
<polygon fill="midnightblue" stroke="midnightblue" points="248.331,-26.0699 257.906,-21.5353 247.593,-19.1089 248.331,-26.0699"/>
</g>
<!-- Node2 -->
<g id="node3" class="node"><title>Node2</title>
<g id="a_node3"><a xlink:href="../../df/d31/enumorg_1_1lightjason_1_1trafficsimulation_1_1simulation_1_1EObjectFactory.htm#a7f649148ce89b9428f1ad535d8c71301" target="_top" xlink:title="generates a agent generator ">
<polygon fill="none" stroke="black" points="438.5,-47 438.5,-75 623.5,-75 623.5,-47 438.5,-47"/>
<text text-anchor="start" x="446.5" y="-63.8" font-family="Helvetica,sans-Serif" font-size="9.00">org.lightjason.trafficsimulation.simulation.</text>
<text text-anchor="middle" x="531" y="-53.8" font-family="Helvetica,sans-Serif" font-size="9.00">EObjectFactory.generate</text>
</a>
</g>
</g>
<!-- Node1&#45;&gt;Node2 -->
<g id="edge2" class="edge"><title>Node1&#45;&gt;Node2</title>
<path fill="none" stroke="midnightblue" d="M400.042,-61C409.11,-61 418.552,-61 428.024,-61"/>
<polygon fill="midnightblue" stroke="midnightblue" points="428.297,-64.5001 438.297,-61 428.297,-57.5001 428.297,-64.5001"/>
</g>
</g>
</svg>
