<?xml version="1.0" encoding="UTF-8" standalone="no"?>
<!DOCTYPE svg PUBLIC "-//W3C//DTD SVG 1.1//EN"
 "http://www.w3.org/Graphics/SVG/1.1/DTD/svg11.dtd">
<!-- Generated by graphviz version 2.36.0 (20140111.2315)
 -->
<!-- Title: org.lightjason.trafficsimulation.simulation.environment.TestCEnvironment Pages: 1 -->
<svg width="246pt" height="604pt"
 viewBox="0.00 0.00 246.00 604.00" xmlns="http://www.w3.org/2000/svg" xmlns:xlink="http://www.w3.org/1999/xlink">
<g id="graph0" class="graph" transform="scale(1 1) rotate(0) translate(4 600)">
<title>org.lightjason.trafficsimulation.simulation.environment.TestCEnvironment</title>
<!-- Node2 -->
<g id="node1" class="node"><title>Node2</title>
<polygon fill="#bfbfbf" stroke="black" points="0,-1 0,-85 238,-85 238,-1 0,-1"/>
<text text-anchor="start" x="8" y="-73.8" font-family="Helvetica,sans-Serif" font-size="9.00">org.lightjason.trafficsimulation.simulation.environment.</text>
<text text-anchor="middle" x="119" y="-63.8" font-family="Helvetica,sans-Serif" font-size="9.00">TestCEnvironment</text>
<polyline fill="none" stroke="black" points="0,-57 238,-57 "/>
<text text-anchor="middle" x="119" y="-45.8" font-family="Helvetica,sans-Serif" font-size="9.00"> </text>
<polyline fill="none" stroke="black" points="0,-39 238,-39 "/>
<text text-anchor="start" x="8" y="-27.8" font-family="Helvetica,sans-Serif" font-size="9.00">+ initilize()</text>
<text text-anchor="start" x="8" y="-17.8" font-family="Helvetica,sans-Serif" font-size="9.00">+ testEnvironmentCall()</text>
<text text-anchor="start" x="8" y="-7.8" font-family="Helvetica,sans-Serif" font-size="9.00">+ main()</text>
</g>
<!-- Node3 -->
<g id="node2" class="node"><title>Node3</title>
<g id="a_node2"><a xlink:href="../../dd/d4d/classorg_1_1lightjason_1_1trafficsimulation_1_1IBaseTest.htm" target="_top" xlink:title="base test ">
<polygon fill="none" stroke="black" points="49,-125 49,-299 189,-299 189,-125 49,-125"/>
<text text-anchor="start" x="57" y="-287.8" font-family="Helvetica,sans-Serif" font-size="9.00">org.lightjason.trafficsimulation.</text>
<text text-anchor="middle" x="119" y="-277.8" font-family="Helvetica,sans-Serif" font-size="9.00">IBaseTest</text>
<polyline fill="none" stroke="black" points="49,-271 189,-271 "/>
<text text-anchor="start" x="57" y="-259.8" font-family="Helvetica,sans-Serif" font-size="9.00">&#45; m_actions</text>
<text text-anchor="start" x="57" y="-249.8" font-family="Helvetica,sans-Serif" font-size="9.00">&#45; m_agents</text>
<polyline fill="none" stroke="black" points="49,-243 189,-243 "/>
<text text-anchor="start" x="57" y="-231.8" font-family="Helvetica,sans-Serif" font-size="9.00">+ loadconfiguration()</text>
<text text-anchor="start" x="57" y="-221.8" font-family="Helvetica,sans-Serif" font-size="9.00">~ [static initializer]()</text>
<text text-anchor="start" x="57" y="-211.8" font-family="Helvetica,sans-Serif" font-size="9.00"># generate()</text>
<text text-anchor="start" x="57" y="-201.8" font-family="Helvetica,sans-Serif" font-size="9.00"># generatemultiple()</text>
<text text-anchor="start" x="57" y="-191.8" font-family="Helvetica,sans-Serif" font-size="9.00"># initializeenvironment()</text>
<text text-anchor="start" x="57" y="-181.8" font-family="Helvetica,sans-Serif" font-size="9.00"># invoketest()</text>
<text text-anchor="start" x="57" y="-171.8" font-family="Helvetica,sans-Serif" font-size="9.00"># executeagent()</text>
<text text-anchor="start" x="57" y="-161.8" font-family="Helvetica,sans-Serif" font-size="9.00"># executeagent()</text>
<text text-anchor="start" x="57" y="-151.8" font-family="Helvetica,sans-Serif" font-size="9.00">&#45; before()</text>
<text text-anchor="start" x="57" y="-141.8" font-family="Helvetica,sans-Serif" font-size="9.00">&#45; execute()</text>
<text text-anchor="start" x="57" y="-131.8" font-family="Helvetica,sans-Serif" font-size="9.00">&#45; invoke()</text>
</a>
</g>
</g>
<!-- Node3&#45;&gt;Node2 -->
<g id="edge1" class="edge"><title>Node3&#45;&gt;Node2</title>
<path fill="none" stroke="midnightblue" d="M119,-114.341C119,-104.183 119,-94.2909 119,-85.2876"/>
<polygon fill="none" stroke="midnightblue" points="115.5,-114.565 119,-124.565 122.5,-114.565 115.5,-114.565"/>
</g>
<!-- Node4 -->
<g id="node3" class="node"><title>Node4</title>
<g id="a_node3"><a xlink:href="../../d5/d10/interfaceorg_1_1lightjason_1_1trafficsimulation_1_1simulation_1_1environment_1_1IEnvironment.htm" target="_top" xlink:title="environment interface ">
<polygon fill="none" stroke="black" points="0,-347 0,-461 238,-461 238,-347 0,-347"/>
<text text-anchor="start" x="8" y="-449.8" font-family="Helvetica,sans-Serif" font-size="9.00">org.lightjason.trafficsimulation.simulation.environment.</text>
<text text-anchor="middle" x="119" y="-439.8" font-family="Helvetica,sans-Serif" font-size="9.00">IEnvironment</text>
<polyline fill="none" stroke="black" points="0,-433 238,-433 "/>
<text text-anchor="middle" x="119" y="-421.8" font-family="Helvetica,sans-Serif" font-size="9.00"> </text>
<polyline fill="none" stroke="black" points="0,-415 238,-415 "/>
<text text-anchor="start" x="8" y="-403.8" font-family="Helvetica,sans-Serif" font-size="9.00">+ empty()</text>
<text text-anchor="start" x="8" y="-393.8" font-family="Helvetica,sans-Serif" font-size="9.00">+ get()</text>
<text text-anchor="start" x="8" y="-383.8" font-family="Helvetica,sans-Serif" font-size="9.00">+ move()</text>
<text text-anchor="start" x="8" y="-373.8" font-family="Helvetica,sans-Serif" font-size="9.00">+ remove()</text>
<text text-anchor="start" x="8" y="-363.8" font-family="Helvetica,sans-Serif" font-size="9.00">+ route()</text>
<text text-anchor="start" x="8" y="-353.8" font-family="Helvetica,sans-Serif" font-size="9.00">+ routestimatedtime()</text>
</a>
</g>
</g>
<!-- Node4&#45;&gt;Node3 -->
<g id="edge2" class="edge"><title>Node4&#45;&gt;Node3</title>
<path fill="none" stroke="#404040" d="M119,-346.765C119,-335.521 119,-323.403 119,-311.215"/>
<polygon fill="none" stroke="#404040" points="119,-311.032 115,-305.032 119,-299.032 123,-305.032 119,-311.032"/>
<text text-anchor="middle" x="155" y="-320.8" font-family="Helvetica,sans-Serif" font-size="9.00"> #m_environment</text>
</g>
<!-- Node5 -->
<g id="node4" class="node"><title>Node5</title>
<g id="a_node4"><a xlink:href="../../d5/dea/interfaceorg_1_1lightjason_1_1trafficsimulation_1_1simulation_1_1IObject.htm" target="_top" xlink:title="object interface ">
<polygon fill="none" stroke="black" points="36.5,-501 36.5,-595 201.5,-595 201.5,-501 36.5,-501"/>
<text text-anchor="start" x="44.5" y="-583.8" font-family="Helvetica,sans-Serif" font-size="9.00">org::lightjason::trafficsimulation</text>
<text text-anchor="middle" x="119" y="-573.8" font-family="Helvetica,sans-Serif" font-size="9.00">::simulation::IObject&lt; IEnvironment &gt;</text>
<polyline fill="none" stroke="black" points="36.5,-567 201.5,-567 "/>
<text text-anchor="middle" x="119" y="-555.8" font-family="Helvetica,sans-Serif" font-size="9.00"> </text>
<polyline fill="none" stroke="black" points="36.5,-549 201.5,-549 "/>
<text text-anchor="start" x="44.5" y="-537.8" font-family="Helvetica,sans-Serif" font-size="9.00">+ literal()</text>
<text text-anchor="start" x="44.5" y="-527.8" font-family="Helvetica,sans-Serif" font-size="9.00">+ literal()</text>
<text text-anchor="start" x="44.5" y="-517.8" font-family="Helvetica,sans-Serif" font-size="9.00">+ name()</text>
<text text-anchor="start" x="44.5" y="-507.8" font-family="Helvetica,sans-Serif" font-size="9.00">+ position()</text>
</a>
</g>
</g>
<!-- Node5&#45;&gt;Node4 -->
<g id="edge3" class="edge"><title>Node5&#45;&gt;Node4</title>
<path fill="none" stroke="midnightblue" d="M119,-490.853C119,-481.046 119,-470.843 119,-461.039"/>
<polygon fill="none" stroke="midnightblue" points="115.5,-490.897 119,-500.897 122.5,-490.897 115.5,-490.897"/>
</g>
</g>
</svg>
