<?xml version="1.0" encoding="UTF-8" standalone="no"?>
<!DOCTYPE svg PUBLIC "-//W3C//DTD SVG 1.1//EN"
 "http://www.w3.org/Graphics/SVG/1.1/DTD/svg11.dtd">
<!-- Generated by graphviz version 2.36.0 (20140111.2315)
 -->
<!-- Title: org.lightjason.trafficsimulation.ui.CHTTPServer Pages: 1 -->
<svg width="227pt" height="124pt"
 viewBox="0.00 0.00 227.00 124.00" xmlns="http://www.w3.org/2000/svg" xmlns:xlink="http://www.w3.org/1999/xlink">
<g id="graph0" class="graph" transform="scale(1 1) rotate(0) translate(4 120)">
<title>org.lightjason.trafficsimulation.ui.CHTTPServer</title>
<!-- Node1 -->
<g id="node1" class="node"><title>Node1</title>
<polygon fill="#bfbfbf" stroke="black" points="-1,-1 -1,-115 149,-115 149,-1 -1,-1"/>
<text text-anchor="start" x="7" y="-103.8" font-family="Helvetica,sans-Serif" font-size="9.00">org.lightjason.trafficsimulation.ui.</text>
<text text-anchor="middle" x="74" y="-93.8" font-family="Helvetica,sans-Serif" font-size="9.00">CHTTPServer</text>
<polyline fill="none" stroke="black" points="-1,-87 149,-87 "/>
<text text-anchor="start" x="7" y="-75.8" font-family="Helvetica,sans-Serif" font-size="9.00">&#45; m_restagent</text>
<text text-anchor="start" x="7" y="-65.8" font-family="Helvetica,sans-Serif" font-size="9.00">&#45; m_server</text>
<polyline fill="none" stroke="black" points="-1,-59 149,-59 "/>
<text text-anchor="start" x="7" y="-47.8" font-family="Helvetica,sans-Serif" font-size="9.00">+ execute()</text>
<text text-anchor="start" x="7" y="-37.8" font-family="Helvetica,sans-Serif" font-size="9.00">+ initialize()</text>
<text text-anchor="start" x="7" y="-27.8" font-family="Helvetica,sans-Serif" font-size="9.00">+ register()</text>
<text text-anchor="start" x="7" y="-17.8" font-family="Helvetica,sans-Serif" font-size="9.00">+ register()</text>
<text text-anchor="start" x="7" y="-7.8" font-family="Helvetica,sans-Serif" font-size="9.00">&#45; CHTTPServer()</text>
</g>
<!-- Node1&#45;&gt;Node1 -->
<g id="edge1" class="edge"><title>Node1&#45;&gt;Node1</title>
<path fill="none" stroke="#404040" d="M149.083,-76.9627C159.238,-73.7838 166,-67.4629 166,-58 166,-52.5293 163.74,-48.1087 159.871,-44.7382"/>
<polygon fill="none" stroke="#404040" points="159.692,-44.6439 152.519,-45.3772 149.083,-39.0373 156.256,-38.304 159.692,-44.6439"/>
<text text-anchor="middle" x="192" y="-55.8" font-family="Helvetica,sans-Serif" font-size="9.00"> &#45;INSTANCE</text>
</g>
</g>
</svg>
