<?xml version="1.0" encoding="UTF-8" standalone="no"?>
<!DOCTYPE svg PUBLIC "-//W3C//DTD SVG 1.1//EN"
 "http://www.w3.org/Graphics/SVG/1.1/DTD/svg11.dtd">
<!-- Generated by graphviz version 2.36.0 (20140111.2315)
 -->
<!-- Title: org.lightjason.trafficsimulation.simulation.IBaseObject.name Pages: 1 -->
<svg width="498pt" height="328pt"
 viewBox="0.00 0.00 498.00 328.00" xmlns="http://www.w3.org/2000/svg" xmlns:xlink="http://www.w3.org/1999/xlink">
<g id="graph0" class="graph" transform="scale(1 1) rotate(0) translate(4 324)">
<title>org.lightjason.trafficsimulation.simulation.IBaseObject.name</title>
<!-- Node15 -->
<g id="node1" class="node"><title>Node15</title>
<polygon fill="#bfbfbf" stroke="black" points="0.5,-141 0.5,-169 185.5,-169 185.5,-141 0.5,-141"/>
<text text-anchor="start" x="8.5" y="-157.8" font-family="Helvetica,sans-Serif" font-size="9.00">org.lightjason.trafficsimulation.simulation.</text>
<text text-anchor="middle" x="93" y="-147.8" font-family="Helvetica,sans-Serif" font-size="9.00">IBaseObject.name</text>
</g>
<!-- Node16 -->
<g id="node2" class="node"><title>Node16</title>
<g id="a_node2"><a xlink:href="../../d4/d51/classorg_1_1lightjason_1_1trafficsimulation_1_1simulation_1_1environment_1_1CEnvironment.htm#ae72f423711b347e4eb7cb30b06afa2e9" target="_top" xlink:title="add an area to the environment ">
<polygon fill="none" stroke="black" points="237,-292 237,-320 475,-320 475,-292 237,-292"/>
<text text-anchor="start" x="245" y="-308.8" font-family="Helvetica,sans-Serif" font-size="9.00">org.lightjason.trafficsimulation.simulation.environment.</text>
<text text-anchor="middle" x="356" y="-298.8" font-family="Helvetica,sans-Serif" font-size="9.00">CEnvironment.addarea</text>
</a>
</g>
</g>
<!-- Node15&#45;&gt;Node16 -->
<g id="edge1" class="edge"><title>Node15&#45;&gt;Node16</title>
<path fill="none" stroke="midnightblue" d="M109.775,-177.546C131.481,-206.698 173.434,-256.716 222,-282 229.492,-285.901 237.507,-289.179 245.75,-291.932"/>
<polygon fill="midnightblue" stroke="midnightblue" points="112.424,-175.238 103.704,-169.22 106.767,-179.362 112.424,-175.238"/>
</g>
<!-- Node17 -->
<g id="node3" class="node"><title>Node17</title>
<g id="a_node3"><a xlink:href="../../d5/df4/classorg_1_1lightjason_1_1trafficsimulation_1_1simulation_1_1movable_1_1IBaseMoveable.htm#aa004f32cbe727f6c43f3ce7d0a0117cf" target="_top" xlink:title="returns the goal&#45;position ">
<polygon fill="none" stroke="black" points="245,-245 245,-273 467,-273 467,-245 245,-245"/>
<text text-anchor="start" x="253" y="-261.8" font-family="Helvetica,sans-Serif" font-size="9.00">org.lightjason.trafficsimulation.simulation.movable.</text>
<text text-anchor="middle" x="356" y="-251.8" font-family="Helvetica,sans-Serif" font-size="9.00">IBaseMoveable&lt; CVehicle &gt;::goal</text>
</a>
</g>
</g>
<!-- Node15&#45;&gt;Node17 -->
<g id="edge2" class="edge"><title>Node15&#45;&gt;Node17</title>
<path fill="none" stroke="midnightblue" d="M120.046,-175.467C144.852,-193.906 183.951,-220.305 222,-235 232.178,-238.931 243.046,-242.225 254.019,-244.985"/>
<polygon fill="midnightblue" stroke="midnightblue" points="121.982,-172.543 111.893,-169.309 117.763,-178.129 121.982,-172.543"/>
</g>
<!-- Node18 -->
<g id="node4" class="node"><title>Node18</title>
<g id="a_node4"><a xlink:href="../../d7/df3/classorg_1_1lightjason_1_1trafficsimulation_1_1simulation_1_1stationary_1_1trafficlight_1_1IBaseTrafficLight.htm#a18657ee0898f613c32e56fc13f2811b8" target="_top" xlink:title="ctor ">
<polygon fill="none" stroke="black" points="222,-188 222,-226 490,-226 490,-188 222,-188"/>
<text text-anchor="start" x="230" y="-214.8" font-family="Helvetica,sans-Serif" font-size="9.00">org.lightjason.trafficsimulation.simulation.stationary.trafficlight.</text>
<text text-anchor="start" x="230" y="-204.8" font-family="Helvetica,sans-Serif" font-size="9.00">IBaseTrafficLight&lt; CTrafficLightVehicle, ELightColorVehicle</text>
<text text-anchor="middle" x="356" y="-194.8" font-family="Helvetica,sans-Serif" font-size="9.00"> &gt;::IBaseTrafficLight</text>
</a>
</g>
</g>
<!-- Node15&#45;&gt;Node18 -->
<g id="edge3" class="edge"><title>Node15&#45;&gt;Node18</title>
<path fill="none" stroke="midnightblue" d="M174.429,-171.024C201.35,-176.388 231.623,-182.419 259.577,-187.989"/>
<polygon fill="midnightblue" stroke="midnightblue" points="174.778,-167.525 164.287,-169.003 173.41,-174.39 174.778,-167.525"/>
</g>
<!-- Node19 -->
<g id="node5" class="node"><title>Node19</title>
<g id="a_node5"><a xlink:href="../../d5/df4/classorg_1_1lightjason_1_1trafficsimulation_1_1simulation_1_1movable_1_1IBaseMoveable.htm#af4386ba9f6961caea1d76615893df5c4" target="_top" xlink:title="route calculation and add landmarks at the end ">
<polygon fill="none" stroke="black" points="245,-141 245,-169 467,-169 467,-141 245,-141"/>
<text text-anchor="start" x="253" y="-157.8" font-family="Helvetica,sans-Serif" font-size="9.00">org.lightjason.trafficsimulation.simulation.movable.</text>
<text text-anchor="middle" x="356" y="-147.8" font-family="Helvetica,sans-Serif" font-size="9.00">IBaseMoveable&lt; CVehicle &gt;::routeatend</text>
</a>
</g>
</g>
<!-- Node15&#45;&gt;Node19 -->
<g id="edge4" class="edge"><title>Node15&#45;&gt;Node19</title>
<path fill="none" stroke="midnightblue" d="M196.053,-155C212.027,-155 228.6,-155 244.748,-155"/>
<polygon fill="midnightblue" stroke="midnightblue" points="195.652,-151.5 185.652,-155 195.652,-158.5 195.652,-151.5"/>
</g>
<!-- Node20 -->
<g id="node6" class="node"><title>Node20</title>
<g id="a_node6"><a xlink:href="../../d5/df4/classorg_1_1lightjason_1_1trafficsimulation_1_1simulation_1_1movable_1_1IBaseMoveable.htm#a5bc27095430cc23c2c55f343c824c00d" target="_top" xlink:title="route calculation and add landmarks at the beginning ">
<polygon fill="none" stroke="black" points="245,-94 245,-122 467,-122 467,-94 245,-94"/>
<text text-anchor="start" x="253" y="-110.8" font-family="Helvetica,sans-Serif" font-size="9.00">org.lightjason.trafficsimulation.simulation.movable.</text>
<text text-anchor="middle" x="356" y="-100.8" font-family="Helvetica,sans-Serif" font-size="9.00">IBaseMoveable&lt; CVehicle &gt;::routeatstart</text>
</a>
</g>
</g>
<!-- Node15&#45;&gt;Node20 -->
<g id="edge5" class="edge"><title>Node15&#45;&gt;Node20</title>
<path fill="none" stroke="midnightblue" d="M181.826,-139.185C212.647,-133.634 247.036,-127.442 276.996,-122.047"/>
<polygon fill="midnightblue" stroke="midnightblue" points="181.176,-135.745 171.955,-140.962 182.417,-142.634 181.176,-135.745"/>
</g>
<!-- Node21 -->
<g id="node7" class="node"><title>Node21</title>
<g id="a_node7"><a xlink:href="../../d5/df4/classorg_1_1lightjason_1_1trafficsimulation_1_1simulation_1_1movable_1_1IBaseMoveable.htm#a7ed17ed8ccfba476e53dc2a53c901007" target="_top" xlink:title="skips the current goal&#45;position of the routing queue ">
<polygon fill="none" stroke="black" points="245,-47 245,-75 467,-75 467,-47 245,-47"/>
<text text-anchor="start" x="253" y="-63.8" font-family="Helvetica,sans-Serif" font-size="9.00">org.lightjason.trafficsimulation.simulation.movable.</text>
<text text-anchor="middle" x="356" y="-53.8" font-family="Helvetica,sans-Serif" font-size="9.00">IBaseMoveable&lt; CVehicle &gt;::routenext</text>
</a>
</g>
</g>
<!-- Node15&#45;&gt;Node21 -->
<g id="edge6" class="edge"><title>Node15&#45;&gt;Node21</title>
<path fill="none" stroke="midnightblue" d="M123.426,-135.322C148.577,-119.4 186.266,-97.6199 222,-85 233.062,-81.0934 244.877,-77.7972 256.728,-75.0221"/>
<polygon fill="midnightblue" stroke="midnightblue" points="121.274,-132.545 114.753,-140.895 125.058,-138.433 121.274,-132.545"/>
</g>
<!-- Node22 -->
<g id="node8" class="node"><title>Node22</title>
<g id="a_node8"><a xlink:href="../../d5/df4/classorg_1_1lightjason_1_1trafficsimulation_1_1simulation_1_1movable_1_1IBaseMoveable.htm#a3ca8e1e1c06d905b35844b9ea215b57d" target="_top" xlink:title="skips the current n&#45;elements of the routing queue ">
<polygon fill="none" stroke="black" points="245,-0 245,-28 467,-28 467,-0 245,-0"/>
<text text-anchor="start" x="253" y="-16.8" font-family="Helvetica,sans-Serif" font-size="9.00">org.lightjason.trafficsimulation.simulation.movable.</text>
<text text-anchor="middle" x="356" y="-6.8" font-family="Helvetica,sans-Serif" font-size="9.00">IBaseMoveable&lt; CVehicle &gt;::routeskip</text>
</a>
</g>
</g>
<!-- Node15&#45;&gt;Node22 -->
<g id="edge7" class="edge"><title>Node15&#45;&gt;Node22</title>
<path fill="none" stroke="midnightblue" d="M111.236,-132.983C133.67,-105.986 175.538,-60.9926 222,-38 229.886,-34.0975 238.315,-30.8234 246.96,-28.0772"/>
<polygon fill="midnightblue" stroke="midnightblue" points="108.519,-130.776 104.913,-140.739 113.945,-135.199 108.519,-130.776"/>
</g>
</g>
</svg>
