<?xml version="1.0" encoding="UTF-8" standalone="no"?>
<!DOCTYPE svg PUBLIC "-//W3C//DTD SVG 1.1//EN"
 "http://www.w3.org/Graphics/SVG/1.1/DTD/svg11.dtd">
<!-- Generated by graphviz version 2.36.0 (20140111.2315)
 -->
<!-- Title: org.lightjason.trafficsimulation.simulation.movable.TestCVehicle Pages: 1 -->
<svg width="689pt" height="1434pt"
 viewBox="0.00 0.00 689.00 1434.00" xmlns="http://www.w3.org/2000/svg" xmlns:xlink="http://www.w3.org/1999/xlink">
<g id="graph0" class="graph" transform="scale(1 1) rotate(0) translate(4 1430)">
<title>org.lightjason.trafficsimulation.simulation.movable.TestCVehicle</title>
<!-- Node2 -->
<g id="node1" class="node"><title>Node2</title>
<polygon fill="#bfbfbf" stroke="black" points="363,-1 363,-95 585,-95 585,-1 363,-1"/>
<text text-anchor="start" x="371" y="-83.8" font-family="Helvetica,sans-Serif" font-size="9.00">org.lightjason.trafficsimulation.simulation.movable.</text>
<text text-anchor="middle" x="474" y="-73.8" font-family="Helvetica,sans-Serif" font-size="9.00">TestCVehicle</text>
<polyline fill="none" stroke="black" points="363,-67 585,-67 "/>
<text text-anchor="middle" x="474" y="-55.8" font-family="Helvetica,sans-Serif" font-size="9.00"> </text>
<polyline fill="none" stroke="black" points="363,-49 585,-49 "/>
<text text-anchor="start" x="371" y="-37.8" font-family="Helvetica,sans-Serif" font-size="9.00">+ initialize()</text>
<text text-anchor="start" x="371" y="-27.8" font-family="Helvetica,sans-Serif" font-size="9.00">+ test()</text>
<text text-anchor="start" x="371" y="-17.8" font-family="Helvetica,sans-Serif" font-size="9.00">+ testMoving()</text>
<text text-anchor="start" x="371" y="-7.8" font-family="Helvetica,sans-Serif" font-size="9.00">+ main()</text>
</g>
<!-- Node3 -->
<g id="node2" class="node"><title>Node3</title>
<g id="a_node2"><a xlink:href="../../dd/d4d/classorg_1_1lightjason_1_1trafficsimulation_1_1IBaseTest.htm" target="_top" xlink:title="base test ">
<polygon fill="none" stroke="black" points="466,-753 466,-927 606,-927 606,-753 466,-753"/>
<text text-anchor="start" x="474" y="-915.8" font-family="Helvetica,sans-Serif" font-size="9.00">org.lightjason.trafficsimulation.</text>
<text text-anchor="middle" x="536" y="-905.8" font-family="Helvetica,sans-Serif" font-size="9.00">IBaseTest</text>
<polyline fill="none" stroke="black" points="466,-899 606,-899 "/>
<text text-anchor="start" x="474" y="-887.8" font-family="Helvetica,sans-Serif" font-size="9.00">&#45; m_actions</text>
<text text-anchor="start" x="474" y="-877.8" font-family="Helvetica,sans-Serif" font-size="9.00">&#45; m_agents</text>
<polyline fill="none" stroke="black" points="466,-871 606,-871 "/>
<text text-anchor="start" x="474" y="-859.8" font-family="Helvetica,sans-Serif" font-size="9.00">+ loadconfiguration()</text>
<text text-anchor="start" x="474" y="-849.8" font-family="Helvetica,sans-Serif" font-size="9.00">~ [static initializer]()</text>
<text text-anchor="start" x="474" y="-839.8" font-family="Helvetica,sans-Serif" font-size="9.00"># generate()</text>
<text text-anchor="start" x="474" y="-829.8" font-family="Helvetica,sans-Serif" font-size="9.00"># generatemultiple()</text>
<text text-anchor="start" x="474" y="-819.8" font-family="Helvetica,sans-Serif" font-size="9.00"># initializeenvironment()</text>
<text text-anchor="start" x="474" y="-809.8" font-family="Helvetica,sans-Serif" font-size="9.00"># invoketest()</text>
<text text-anchor="start" x="474" y="-799.8" font-family="Helvetica,sans-Serif" font-size="9.00"># executeagent()</text>
<text text-anchor="start" x="474" y="-789.8" font-family="Helvetica,sans-Serif" font-size="9.00"># executeagent()</text>
<text text-anchor="start" x="474" y="-779.8" font-family="Helvetica,sans-Serif" font-size="9.00">&#45; before()</text>
<text text-anchor="start" x="474" y="-769.8" font-family="Helvetica,sans-Serif" font-size="9.00">&#45; execute()</text>
<text text-anchor="start" x="474" y="-759.8" font-family="Helvetica,sans-Serif" font-size="9.00">&#45; invoke()</text>
</a>
</g>
</g>
<!-- Node3&#45;&gt;Node2 -->
<g id="edge1" class="edge"><title>Node3&#45;&gt;Node2</title>
<path fill="none" stroke="midnightblue" d="M531.013,-742.887C528.103,-678.667 525,-592.294 525,-516 525,-516 525,-516 525,-199 525,-162.83 511.543,-124.24 498.454,-95.2603"/>
<polygon fill="none" stroke="midnightblue" points="527.523,-743.17 531.478,-752.999 534.515,-742.849 527.523,-743.17"/>
</g>
<!-- Node4 -->
<g id="node3" class="node"><title>Node4</title>
<g id="a_node3"><a xlink:href="../../d5/d10/interfaceorg_1_1lightjason_1_1trafficsimulation_1_1simulation_1_1environment_1_1IEnvironment.htm" target="_top" xlink:title="environment interface ">
<polygon fill="none" stroke="black" points="443,-1169 443,-1283 681,-1283 681,-1169 443,-1169"/>
<text text-anchor="start" x="451" y="-1271.8" font-family="Helvetica,sans-Serif" font-size="9.00">org.lightjason.trafficsimulation.simulation.environment.</text>
<text text-anchor="middle" x="562" y="-1261.8" font-family="Helvetica,sans-Serif" font-size="9.00">IEnvironment</text>
<polyline fill="none" stroke="black" points="443,-1255 681,-1255 "/>
<text text-anchor="middle" x="562" y="-1243.8" font-family="Helvetica,sans-Serif" font-size="9.00"> </text>
<polyline fill="none" stroke="black" points="443,-1237 681,-1237 "/>
<text text-anchor="start" x="451" y="-1225.8" font-family="Helvetica,sans-Serif" font-size="9.00">+ empty()</text>
<text text-anchor="start" x="451" y="-1215.8" font-family="Helvetica,sans-Serif" font-size="9.00">+ get()</text>
<text text-anchor="start" x="451" y="-1205.8" font-family="Helvetica,sans-Serif" font-size="9.00">+ move()</text>
<text text-anchor="start" x="451" y="-1195.8" font-family="Helvetica,sans-Serif" font-size="9.00">+ remove()</text>
<text text-anchor="start" x="451" y="-1185.8" font-family="Helvetica,sans-Serif" font-size="9.00">+ route()</text>
<text text-anchor="start" x="451" y="-1175.8" font-family="Helvetica,sans-Serif" font-size="9.00">+ routestimatedtime()</text>
</a>
</g>
</g>
<!-- Node4&#45;&gt;Node3 -->
<g id="edge2" class="edge"><title>Node4&#45;&gt;Node3</title>
<path fill="none" stroke="#404040" d="M558.192,-1168.75C554.125,-1108.69 547.601,-1012.34 542.677,-939.616"/>
<polygon fill="none" stroke="#404040" points="542.65,-939.216 538.254,-933.5 541.839,-927.243 546.236,-932.959 542.65,-939.216"/>
<text text-anchor="middle" x="593" y="-1142.8" font-family="Helvetica,sans-Serif" font-size="9.00"> #m_environment</text>
</g>
<!-- Node9 -->
<g id="node8" class="node"><title>Node9</title>
<g id="a_node8"><a xlink:href="../../d5/d6f/classorg_1_1lightjason_1_1trafficsimulation_1_1simulation_1_1IBaseObject.htm" target="_top" xlink:title="base agent object ">
<polygon fill="none" stroke="black" points="311.5,-947 311.5,-1121 454.5,-1121 454.5,-947 311.5,-947"/>
<text text-anchor="start" x="319.5" y="-1109.8" font-family="Helvetica,sans-Serif" font-size="9.00">org::lightjason::trafficsimulation</text>
<text text-anchor="middle" x="383" y="-1099.8" font-family="Helvetica,sans-Serif" font-size="9.00">::simulation::IBaseObject&lt; T &gt;</text>
<polyline fill="none" stroke="black" points="311.5,-1093 454.5,-1093 "/>
<text text-anchor="start" x="319.5" y="-1081.8" font-family="Helvetica,sans-Serif" font-size="9.00"># m_position</text>
<text text-anchor="start" x="319.5" y="-1071.8" font-family="Helvetica,sans-Serif" font-size="9.00">&#45; m_external</text>
<text text-anchor="start" x="319.5" y="-1061.8" font-family="Helvetica,sans-Serif" font-size="9.00">&#45; m_functor</text>
<text text-anchor="start" x="319.5" y="-1051.8" font-family="Helvetica,sans-Serif" font-size="9.00">&#45; m_name</text>
<text text-anchor="start" x="319.5" y="-1041.8" font-family="Helvetica,sans-Serif" font-size="9.00">&#45; serialVersionUID</text>
<polyline fill="none" stroke="black" points="311.5,-1035 454.5,-1035 "/>
<text text-anchor="start" x="319.5" y="-1023.8" font-family="Helvetica,sans-Serif" font-size="9.00">+ equals()</text>
<text text-anchor="start" x="319.5" y="-1013.8" font-family="Helvetica,sans-Serif" font-size="9.00">+ hashCode()</text>
<text text-anchor="start" x="319.5" y="-1003.8" font-family="Helvetica,sans-Serif" font-size="9.00">+ literal()</text>
<text text-anchor="start" x="319.5" y="-993.8" font-family="Helvetica,sans-Serif" font-size="9.00">+ literal()</text>
<text text-anchor="start" x="319.5" y="-983.8" font-family="Helvetica,sans-Serif" font-size="9.00">+ name()</text>
<text text-anchor="start" x="319.5" y="-973.8" font-family="Helvetica,sans-Serif" font-size="9.00">+ position()</text>
<text text-anchor="start" x="319.5" y="-963.8" font-family="Helvetica,sans-Serif" font-size="9.00"># IBaseObject()</text>
<text text-anchor="start" x="319.5" y="-953.8" font-family="Helvetica,sans-Serif" font-size="9.00"># individualliteral()</text>
</a>
</g>
</g>
<!-- Node4&#45;&gt;Node9 -->
<g id="edge10" class="edge"><title>Node4&#45;&gt;Node9</title>
<path fill="none" stroke="#404040" d="M484.97,-1168.9C477.974,-1162.79 471.198,-1156.44 465,-1150 459.098,-1143.86 453.288,-1137.28 447.655,-1130.48"/>
<polygon fill="none" stroke="#404040" points="447.62,-1130.43 440.741,-1128.27 440.09,-1121.09 446.97,-1123.25 447.62,-1130.43"/>
<text text-anchor="middle" x="501" y="-1142.8" font-family="Helvetica,sans-Serif" font-size="9.00"> #m_environment</text>
</g>
<!-- Node5 -->
<g id="node4" class="node"><title>Node5</title>
<g id="a_node4"><a xlink:href="../../d5/dea/interfaceorg_1_1lightjason_1_1trafficsimulation_1_1simulation_1_1IObject.htm" target="_top" xlink:title="object interface ">
<polygon fill="none" stroke="black" points="479.5,-1331 479.5,-1425 644.5,-1425 644.5,-1331 479.5,-1331"/>
<text text-anchor="start" x="487.5" y="-1413.8" font-family="Helvetica,sans-Serif" font-size="9.00">org::lightjason::trafficsimulation</text>
<text text-anchor="middle" x="562" y="-1403.8" font-family="Helvetica,sans-Serif" font-size="9.00">::simulation::IObject&lt; IEnvironment &gt;</text>
<polyline fill="none" stroke="black" points="479.5,-1397 644.5,-1397 "/>
<text text-anchor="middle" x="562" y="-1385.8" font-family="Helvetica,sans-Serif" font-size="9.00"> </text>
<polyline fill="none" stroke="black" points="479.5,-1379 644.5,-1379 "/>
<text text-anchor="start" x="487.5" y="-1367.8" font-family="Helvetica,sans-Serif" font-size="9.00">+ literal()</text>
<text text-anchor="start" x="487.5" y="-1357.8" font-family="Helvetica,sans-Serif" font-size="9.00">+ literal()</text>
<text text-anchor="start" x="487.5" y="-1347.8" font-family="Helvetica,sans-Serif" font-size="9.00">+ name()</text>
<text text-anchor="start" x="487.5" y="-1337.8" font-family="Helvetica,sans-Serif" font-size="9.00">+ position()</text>
</a>
</g>
</g>
<!-- Node5&#45;&gt;Node4 -->
<g id="edge3" class="edge"><title>Node5&#45;&gt;Node4</title>
<path fill="none" stroke="midnightblue" d="M562,-1320.65C562,-1308.37 562,-1295.38 562,-1283.11"/>
<polygon fill="none" stroke="midnightblue" points="558.5,-1320.77 562,-1330.77 565.5,-1320.77 558.5,-1320.77"/>
</g>
<!-- Node6 -->
<g id="node5" class="node"><title>Node6</title>
<g id="a_node5"><a xlink:href="../../d1/d6e/classorg_1_1lightjason_1_1trafficsimulation_1_1simulation_1_1movable_1_1CVehicle.htm" target="_top" xlink:title="vehicle class ">
<polygon fill="none" stroke="black" points="275,-143 275,-257 497,-257 497,-143 275,-143"/>
<text text-anchor="start" x="283" y="-245.8" font-family="Helvetica,sans-Serif" font-size="9.00">org.lightjason.trafficsimulation.simulation.movable.</text>
<text text-anchor="middle" x="386" y="-235.8" font-family="Helvetica,sans-Serif" font-size="9.00">CVehicle</text>
<polyline fill="none" stroke="black" points="275,-229 497,-229 "/>
<text text-anchor="start" x="283" y="-217.8" font-family="Helvetica,sans-Serif" font-size="9.00">&#45; COUNTER</text>
<text text-anchor="start" x="283" y="-207.8" font-family="Helvetica,sans-Serif" font-size="9.00">&#45; FUNCTOR</text>
<text text-anchor="start" x="283" y="-197.8" font-family="Helvetica,sans-Serif" font-size="9.00">&#45; serialVersionUID</text>
<polyline fill="none" stroke="black" points="275,-191 497,-191 "/>
<text text-anchor="start" x="283" y="-179.8" font-family="Helvetica,sans-Serif" font-size="9.00"># individualliteral()</text>
<text text-anchor="start" x="283" y="-169.8" font-family="Helvetica,sans-Serif" font-size="9.00">&#45; CVehicle()</text>
<text text-anchor="start" x="283" y="-159.8" font-family="Helvetica,sans-Serif" font-size="9.00">&#45; accelerate()</text>
<text text-anchor="start" x="283" y="-149.8" font-family="Helvetica,sans-Serif" font-size="9.00">&#45; deccelerate()</text>
</a>
</g>
</g>
<!-- Node6&#45;&gt;Node2 -->
<g id="edge4" class="edge"><title>Node6&#45;&gt;Node2</title>
<path fill="none" stroke="#404040" d="M419.018,-142.719C426.11,-130.631 433.608,-117.85 440.71,-105.745"/>
<polygon fill="none" stroke="#404040" points="440.756,-105.666 440.342,-98.4663 446.828,-95.3153 447.242,-102.514 440.756,-105.666"/>
<text text-anchor="middle" x="460" y="-116.8" font-family="Helvetica,sans-Serif" font-size="9.00"> &#45;m_vehicle</text>
</g>
<!-- Node7 -->
<g id="node6" class="node"><title>Node7</title>
<g id="a_node6"><a xlink:href="../../d5/df4/classorg_1_1lightjason_1_1trafficsimulation_1_1simulation_1_1movable_1_1IBaseMoveable.htm" target="_top" xlink:title="{org.lightjason.trafficsimulation.simulation.movable.\lIBaseMoveable\&lt; CVehicle \&gt;\n|# GROUP\l&#45; m_route\l&#45; m_speed\l&#45; serialVersionUID\l|+ move()\l+ moveable()\l# IBaseMoveable()\l&#45; cells()\l&#45; goal()\l&#45; route()\l&#45; routeatend()\l&#45; routeatstart()\l&#45; routeestimatedtime()\l&#45; routenext()\l&#45; routeskip()\l}">
<polygon fill="none" stroke="black" points="274,-297 274,-491 496,-491 496,-297 274,-297"/>
<text text-anchor="start" x="282" y="-479.8" font-family="Helvetica,sans-Serif" font-size="9.00">org.lightjason.trafficsimulation.simulation.movable.</text>
<text text-anchor="middle" x="385" y="-469.8" font-family="Helvetica,sans-Serif" font-size="9.00">IBaseMoveable&lt; CVehicle &gt;</text>
<polyline fill="none" stroke="black" points="274,-463 496,-463 "/>
<text text-anchor="start" x="282" y="-451.8" font-family="Helvetica,sans-Serif" font-size="9.00"># GROUP</text>
<text text-anchor="start" x="282" y="-441.8" font-family="Helvetica,sans-Serif" font-size="9.00">&#45; m_route</text>
<text text-anchor="start" x="282" y="-431.8" font-family="Helvetica,sans-Serif" font-size="9.00">&#45; m_speed</text>
<text text-anchor="start" x="282" y="-421.8" font-family="Helvetica,sans-Serif" font-size="9.00">&#45; serialVersionUID</text>
<polyline fill="none" stroke="black" points="274,-415 496,-415 "/>
<text text-anchor="start" x="282" y="-403.8" font-family="Helvetica,sans-Serif" font-size="9.00">+ move()</text>
<text text-anchor="start" x="282" y="-393.8" font-family="Helvetica,sans-Serif" font-size="9.00">+ moveable()</text>
<text text-anchor="start" x="282" y="-383.8" font-family="Helvetica,sans-Serif" font-size="9.00"># IBaseMoveable()</text>
<text text-anchor="start" x="282" y="-373.8" font-family="Helvetica,sans-Serif" font-size="9.00">&#45; cells()</text>
<text text-anchor="start" x="282" y="-363.8" font-family="Helvetica,sans-Serif" font-size="9.00">&#45; goal()</text>
<text text-anchor="start" x="282" y="-353.8" font-family="Helvetica,sans-Serif" font-size="9.00">&#45; route()</text>
<text text-anchor="start" x="282" y="-343.8" font-family="Helvetica,sans-Serif" font-size="9.00">&#45; routeatend()</text>
<text text-anchor="start" x="282" y="-333.8" font-family="Helvetica,sans-Serif" font-size="9.00">&#45; routeatstart()</text>
<text text-anchor="start" x="282" y="-323.8" font-family="Helvetica,sans-Serif" font-size="9.00">&#45; routeestimatedtime()</text>
<text text-anchor="start" x="282" y="-313.8" font-family="Helvetica,sans-Serif" font-size="9.00">&#45; routenext()</text>
<text text-anchor="start" x="282" y="-303.8" font-family="Helvetica,sans-Serif" font-size="9.00">&#45; routeskip()</text>
</a>
</g>
</g>
<!-- Node7&#45;&gt;Node6 -->
<g id="edge5" class="edge"><title>Node7&#45;&gt;Node6</title>
<path fill="none" stroke="midnightblue" d="M385.554,-286.562C385.607,-276.44 385.659,-266.475 385.708,-257.124"/>
<polygon fill="none" stroke="midnightblue" points="382.054,-286.701 385.501,-296.719 389.054,-286.737 382.054,-286.701"/>
</g>
<!-- Node8 -->
<g id="node7" class="node"><title>Node8</title>
<g id="a_node7"><a xlink:href="../../d5/df4/classorg_1_1lightjason_1_1trafficsimulation_1_1simulation_1_1movable_1_1IBaseMoveable.htm" target="_top" xlink:title="moveable object ">
<polygon fill="none" stroke="black" points="272,-539 272,-733 494,-733 494,-539 272,-539"/>
<text text-anchor="start" x="280" y="-721.8" font-family="Helvetica,sans-Serif" font-size="9.00">org.lightjason.trafficsimulation.simulation.movable.</text>
<text text-anchor="middle" x="383" y="-711.8" font-family="Helvetica,sans-Serif" font-size="9.00">IBaseMoveable&lt; T extends IBaseMoveable&lt;?&gt;</text>
<polyline fill="none" stroke="black" points="272,-705 494,-705 "/>
<text text-anchor="start" x="280" y="-693.8" font-family="Helvetica,sans-Serif" font-size="9.00"># GROUP</text>
<text text-anchor="start" x="280" y="-683.8" font-family="Helvetica,sans-Serif" font-size="9.00">&#45; m_route</text>
<text text-anchor="start" x="280" y="-673.8" font-family="Helvetica,sans-Serif" font-size="9.00">&#45; m_speed</text>
<text text-anchor="start" x="280" y="-663.8" font-family="Helvetica,sans-Serif" font-size="9.00">&#45; serialVersionUID</text>
<polyline fill="none" stroke="black" points="272,-657 494,-657 "/>
<text text-anchor="start" x="280" y="-645.8" font-family="Helvetica,sans-Serif" font-size="9.00">+ move()</text>
<text text-anchor="start" x="280" y="-635.8" font-family="Helvetica,sans-Serif" font-size="9.00">+ moveable()</text>
<text text-anchor="start" x="280" y="-625.8" font-family="Helvetica,sans-Serif" font-size="9.00"># IBaseMoveable()</text>
<text text-anchor="start" x="280" y="-615.8" font-family="Helvetica,sans-Serif" font-size="9.00">&#45; cells()</text>
<text text-anchor="start" x="280" y="-605.8" font-family="Helvetica,sans-Serif" font-size="9.00">&#45; goal()</text>
<text text-anchor="start" x="280" y="-595.8" font-family="Helvetica,sans-Serif" font-size="9.00">&#45; route()</text>
<text text-anchor="start" x="280" y="-585.8" font-family="Helvetica,sans-Serif" font-size="9.00">&#45; routeatend()</text>
<text text-anchor="start" x="280" y="-575.8" font-family="Helvetica,sans-Serif" font-size="9.00">&#45; routeatstart()</text>
<text text-anchor="start" x="280" y="-565.8" font-family="Helvetica,sans-Serif" font-size="9.00">&#45; routeestimatedtime()</text>
<text text-anchor="start" x="280" y="-555.8" font-family="Helvetica,sans-Serif" font-size="9.00">&#45; routenext()</text>
<text text-anchor="start" x="280" y="-545.8" font-family="Helvetica,sans-Serif" font-size="9.00">&#45; routeskip()</text>
</a>
</g>
</g>
<!-- Node8&#45;&gt;Node7 -->
<g id="edge6" class="edge"><title>Node8&#45;&gt;Node7</title>
<path fill="none" stroke="orange" d="M383.888,-528.427C383.991,-516.051 384.096,-503.482 384.198,-491.256"/>
<polygon fill="orange" stroke="orange" points="380.386,-528.737 383.802,-538.766 387.385,-528.795 380.386,-528.737"/>
<text text-anchor="middle" x="411.5" y="-512.8" font-family="Helvetica,sans-Serif" font-size="9.00"> &lt; CVehicle &gt;</text>
</g>
<!-- Node9&#45;&gt;Node8 -->
<g id="edge7" class="edge"><title>Node9&#45;&gt;Node8</title>
<path fill="none" stroke="midnightblue" d="M383,-936.451C383,-874.726 383,-794.978 383,-733.301"/>
<polygon fill="none" stroke="midnightblue" points="379.5,-936.585 383,-946.585 386.5,-936.585 379.5,-936.585"/>
</g>
<!-- Node10 -->
<g id="node9" class="node"><title>Node10</title>
<g id="a_node9"><a xlink:href="../../d5/dea/interfaceorg_1_1lightjason_1_1trafficsimulation_1_1simulation_1_1IObject.htm" target="_top" xlink:title="{org.lightjason.trafficsimulation.simulation.\lIObject\&lt; T \&gt;\n||+ literal()\l+ literal()\l+ name()\l+ position()\l}">
<polygon fill="none" stroke="black" points="239.5,-1179 239.5,-1273 424.5,-1273 424.5,-1179 239.5,-1179"/>
<text text-anchor="start" x="247.5" y="-1261.8" font-family="Helvetica,sans-Serif" font-size="9.00">org.lightjason.trafficsimulation.simulation.</text>
<text text-anchor="middle" x="332" y="-1251.8" font-family="Helvetica,sans-Serif" font-size="9.00">IObject&lt; T &gt;</text>
<polyline fill="none" stroke="black" points="239.5,-1245 424.5,-1245 "/>
<text text-anchor="middle" x="332" y="-1233.8" font-family="Helvetica,sans-Serif" font-size="9.00"> </text>
<polyline fill="none" stroke="black" points="239.5,-1227 424.5,-1227 "/>
<text text-anchor="start" x="247.5" y="-1215.8" font-family="Helvetica,sans-Serif" font-size="9.00">+ literal()</text>
<text text-anchor="start" x="247.5" y="-1205.8" font-family="Helvetica,sans-Serif" font-size="9.00">+ literal()</text>
<text text-anchor="start" x="247.5" y="-1195.8" font-family="Helvetica,sans-Serif" font-size="9.00">+ name()</text>
<text text-anchor="start" x="247.5" y="-1185.8" font-family="Helvetica,sans-Serif" font-size="9.00">+ position()</text>
</a>
</g>
</g>
<!-- Node10&#45;&gt;Node9 -->
<g id="edge8" class="edge"><title>Node10&#45;&gt;Node9</title>
<path fill="none" stroke="midnightblue" d="M347.174,-1168.47C351.175,-1153.56 355.584,-1137.14 359.9,-1121.06"/>
<polygon fill="none" stroke="midnightblue" points="343.688,-1167.96 344.476,-1178.52 350.449,-1169.77 343.688,-1167.96"/>
</g>
<!-- Node11 -->
<g id="node10" class="node"><title>Node11</title>
<g id="a_node10"><a xlink:href="../../d5/dea/interfaceorg_1_1lightjason_1_1trafficsimulation_1_1simulation_1_1IObject.htm" target="_top" xlink:title="object interface ">
<polygon fill="none" stroke="black" points="239.5,-1331 239.5,-1425 424.5,-1425 424.5,-1331 239.5,-1331"/>
<text text-anchor="start" x="247.5" y="-1413.8" font-family="Helvetica,sans-Serif" font-size="9.00">org.lightjason.trafficsimulation.simulation.</text>
<text text-anchor="middle" x="332" y="-1403.8" font-family="Helvetica,sans-Serif" font-size="9.00">IObject&lt; T extends IAgent&lt;?&gt;</text>
<polyline fill="none" stroke="black" points="239.5,-1397 424.5,-1397 "/>
<text text-anchor="middle" x="332" y="-1385.8" font-family="Helvetica,sans-Serif" font-size="9.00"> </text>
<polyline fill="none" stroke="black" points="239.5,-1379 424.5,-1379 "/>
<text text-anchor="start" x="247.5" y="-1367.8" font-family="Helvetica,sans-Serif" font-size="9.00">+ literal()</text>
<text text-anchor="start" x="247.5" y="-1357.8" font-family="Helvetica,sans-Serif" font-size="9.00">+ literal()</text>
<text text-anchor="start" x="247.5" y="-1347.8" font-family="Helvetica,sans-Serif" font-size="9.00">+ name()</text>
<text text-anchor="start" x="247.5" y="-1337.8" font-family="Helvetica,sans-Serif" font-size="9.00">+ position()</text>
</a>
</g>
</g>
<!-- Node11&#45;&gt;Node10 -->
<g id="edge9" class="edge"><title>Node11&#45;&gt;Node10</title>
<path fill="none" stroke="orange" d="M332,-1320.66C332,-1304.96 332,-1288.1 332,-1273.08"/>
<polygon fill="orange" stroke="orange" points="328.5,-1320.77 332,-1330.77 335.5,-1320.77 328.5,-1320.77"/>
<text text-anchor="middle" x="343.5" y="-1304.8" font-family="Helvetica,sans-Serif" font-size="9.00"> &lt; T &gt;</text>
</g>
<!-- Node12 -->
<g id="node11" class="node"><title>Node12</title>
<g id="a_node11"><a xlink:href="../../d6/d59/interfaceorg_1_1lightjason_1_1trafficsimulation_1_1simulation_1_1movable_1_1IMoveable.htm" target="_top" xlink:title="{org.lightjason.trafficsimulation.simulation.movable.\lIMoveable\&lt; T \&gt;\n||+ move()\l+ moveable()\l}">
<polygon fill="none" stroke="black" points="55,-997 55,-1071 277,-1071 277,-997 55,-997"/>
<text text-anchor="start" x="63" y="-1059.8" font-family="Helvetica,sans-Serif" font-size="9.00">org.lightjason.trafficsimulation.simulation.movable.</text>
<text text-anchor="middle" x="166" y="-1049.8" font-family="Helvetica,sans-Serif" font-size="9.00">IMoveable&lt; T &gt;</text>
<polyline fill="none" stroke="black" points="55,-1043 277,-1043 "/>
<text text-anchor="middle" x="166" y="-1031.8" font-family="Helvetica,sans-Serif" font-size="9.00"> </text>
<polyline fill="none" stroke="black" points="55,-1025 277,-1025 "/>
<text text-anchor="start" x="63" y="-1013.8" font-family="Helvetica,sans-Serif" font-size="9.00">+ move()</text>
<text text-anchor="start" x="63" y="-1003.8" font-family="Helvetica,sans-Serif" font-size="9.00">+ moveable()</text>
</a>
</g>
</g>
<!-- Node12&#45;&gt;Node8 -->
<g id="edge11" class="edge"><title>Node12&#45;&gt;Node8</title>
<path fill="none" stroke="midnightblue" d="M190.814,-987.718C224.612,-926.039 285.98,-814.05 330.292,-733.186"/>
<polygon fill="none" stroke="midnightblue" points="187.569,-986.356 185.833,-996.808 193.708,-989.72 187.569,-986.356"/>
</g>
<!-- Node13 -->
<g id="node12" class="node"><title>Node13</title>
<g id="a_node12"><a xlink:href="../../d6/d59/interfaceorg_1_1lightjason_1_1trafficsimulation_1_1simulation_1_1movable_1_1IMoveable.htm" target="_top" xlink:title="moveable interface ">
<polygon fill="none" stroke="black" points="0,-1189 0,-1263 222,-1263 222,-1189 0,-1189"/>
<text text-anchor="start" x="8" y="-1251.8" font-family="Helvetica,sans-Serif" font-size="9.00">org.lightjason.trafficsimulation.simulation.movable.</text>
<text text-anchor="middle" x="111" y="-1241.8" font-family="Helvetica,sans-Serif" font-size="9.00">IMoveable&lt; T extends IMoveable&lt;?&gt;</text>
<polyline fill="none" stroke="black" points="0,-1235 222,-1235 "/>
<text text-anchor="middle" x="111" y="-1223.8" font-family="Helvetica,sans-Serif" font-size="9.00"> </text>
<polyline fill="none" stroke="black" points="0,-1217 222,-1217 "/>
<text text-anchor="start" x="8" y="-1205.8" font-family="Helvetica,sans-Serif" font-size="9.00">+ move()</text>
<text text-anchor="start" x="8" y="-1195.8" font-family="Helvetica,sans-Serif" font-size="9.00">+ moveable()</text>
</a>
</g>
</g>
<!-- Node13&#45;&gt;Node12 -->
<g id="edge12" class="edge"><title>Node13&#45;&gt;Node12</title>
<path fill="none" stroke="orange" d="M124.344,-1178.9C133.944,-1145.74 146.707,-1101.65 155.564,-1071.05"/>
<polygon fill="orange" stroke="orange" points="120.893,-1178.24 121.475,-1188.82 127.617,-1180.18 120.893,-1178.24"/>
<text text-anchor="middle" x="147.5" y="-1142.8" font-family="Helvetica,sans-Serif" font-size="9.00"> &lt; T &gt;</text>
</g>
<!-- Node14 -->
<g id="node13" class="node"><title>Node14</title>
<g id="a_node13"><a xlink:href="../../d5/dea/interfaceorg_1_1lightjason_1_1trafficsimulation_1_1simulation_1_1IObject.htm" target="_top" xlink:title="object interface ">
<polygon fill="none" stroke="black" points="39.5,-1331 39.5,-1425 182.5,-1425 182.5,-1331 39.5,-1331"/>
<text text-anchor="start" x="47.5" y="-1413.8" font-family="Helvetica,sans-Serif" font-size="9.00">org::lightjason::trafficsimulation</text>
<text text-anchor="middle" x="111" y="-1403.8" font-family="Helvetica,sans-Serif" font-size="9.00">::simulation::IObject&lt; T &gt;</text>
<polyline fill="none" stroke="black" points="39.5,-1397 182.5,-1397 "/>
<text text-anchor="middle" x="111" y="-1385.8" font-family="Helvetica,sans-Serif" font-size="9.00"> </text>
<polyline fill="none" stroke="black" points="39.5,-1379 182.5,-1379 "/>
<text text-anchor="start" x="47.5" y="-1367.8" font-family="Helvetica,sans-Serif" font-size="9.00">+ literal()</text>
<text text-anchor="start" x="47.5" y="-1357.8" font-family="Helvetica,sans-Serif" font-size="9.00">+ literal()</text>
<text text-anchor="start" x="47.5" y="-1347.8" font-family="Helvetica,sans-Serif" font-size="9.00">+ name()</text>
<text text-anchor="start" x="47.5" y="-1337.8" font-family="Helvetica,sans-Serif" font-size="9.00">+ position()</text>
</a>
</g>
</g>
<!-- Node14&#45;&gt;Node13 -->
<g id="edge13" class="edge"><title>Node14&#45;&gt;Node13</title>
<path fill="none" stroke="midnightblue" d="M111,-1320.63C111,-1301.44 111,-1280.51 111,-1263.32"/>
<polygon fill="none" stroke="midnightblue" points="107.5,-1320.77 111,-1330.77 114.5,-1320.77 107.5,-1320.77"/>
</g>
</g>
</svg>
