<?xml version="1.0" encoding="UTF-8" standalone="no"?>
<!DOCTYPE svg PUBLIC "-//W3C//DTD SVG 1.1//EN"
 "http://www.w3.org/Graphics/SVG/1.1/DTD/svg11.dtd">
<!-- Generated by graphviz version 2.36.0 (20140111.2315)
 -->
<!-- Title: org.lightjason.trafficsimulation.simulation.movable.IBaseMoveable.route Pages: 1 -->
<svg width="488pt" height="83pt"
 viewBox="0.00 0.00 488.00 83.00" xmlns="http://www.w3.org/2000/svg" xmlns:xlink="http://www.w3.org/1999/xlink">
<g id="graph0" class="graph" transform="scale(1 1) rotate(0) translate(4 79)">
<title>org.lightjason.trafficsimulation.simulation.movable.IBaseMoveable.route</title>
<!-- Node13 -->
<g id="node1" class="node"><title>Node13</title>
<polygon fill="#bfbfbf" stroke="black" points="0,-23 0,-51 222,-51 222,-23 0,-23"/>
<text text-anchor="start" x="8" y="-39.8" font-family="Helvetica,sans-Serif" font-size="9.00">org.lightjason.trafficsimulation.simulation.movable.</text>
<text text-anchor="middle" x="111" y="-29.8" font-family="Helvetica,sans-Serif" font-size="9.00">IBaseMoveable.route</text>
</g>
<!-- Node14 -->
<g id="node2" class="node"><title>Node14</title>
<g id="a_node2"><a xlink:href="../../d5/df4/classorg_1_1lightjason_1_1trafficsimulation_1_1simulation_1_1movable_1_1IBaseMoveable.htm#af4386ba9f6961caea1d76615893df5c4" target="_top" xlink:title="route calculation and add landmarks at the end ">
<polygon fill="none" stroke="black" points="258,-47 258,-75 480,-75 480,-47 258,-47"/>
<text text-anchor="start" x="266" y="-63.8" font-family="Helvetica,sans-Serif" font-size="9.00">org.lightjason.trafficsimulation.simulation.movable.</text>
<text text-anchor="middle" x="369" y="-53.8" font-family="Helvetica,sans-Serif" font-size="9.00">IBaseMoveable&lt; CVehicle &gt;::routeatend</text>
</a>
</g>
</g>
<!-- Node13&#45;&gt;Node14 -->
<g id="edge1" class="edge"><title>Node13&#45;&gt;Node14</title>
<path fill="none" stroke="midnightblue" d="M232.041,-48.2538C240.575,-49.0539 249.157,-49.8585 257.634,-50.6531"/>
<polygon fill="midnightblue" stroke="midnightblue" points="232.336,-44.7662 222.053,-47.3174 231.682,-51.7357 232.336,-44.7662"/>
</g>
<!-- Node15 -->
<g id="node3" class="node"><title>Node15</title>
<g id="a_node3"><a xlink:href="../../d5/df4/classorg_1_1lightjason_1_1trafficsimulation_1_1simulation_1_1movable_1_1IBaseMoveable.htm#a5bc27095430cc23c2c55f343c824c00d" target="_top" xlink:title="route calculation and add landmarks at the beginning ">
<polygon fill="none" stroke="black" points="258,-0 258,-28 480,-28 480,-0 258,-0"/>
<text text-anchor="start" x="266" y="-16.8" font-family="Helvetica,sans-Serif" font-size="9.00">org.lightjason.trafficsimulation.simulation.movable.</text>
<text text-anchor="middle" x="369" y="-6.8" font-family="Helvetica,sans-Serif" font-size="9.00">IBaseMoveable&lt; CVehicle &gt;::routeatstart</text>
</a>
</g>
</g>
<!-- Node13&#45;&gt;Node15 -->
<g id="edge2" class="edge"><title>Node13&#45;&gt;Node15</title>
<path fill="none" stroke="midnightblue" d="M232.041,-26.2151C240.575,-25.4483 249.157,-24.6773 257.634,-23.9157"/>
<polygon fill="midnightblue" stroke="midnightblue" points="231.699,-22.7316 222.053,-27.1124 232.326,-29.7035 231.699,-22.7316"/>
</g>
</g>
</svg>
