<?xml version="1.0" encoding="UTF-8" standalone="no"?>
<!DOCTYPE svg PUBLIC "-//W3C//DTD SVG 1.1//EN"
 "http://www.w3.org/Graphics/SVG/1.1/DTD/svg11.dtd">
<!-- Generated by graphviz version 2.36.0 (20140111.2315)
 -->
<!-- Title: org.lightjason.trafficsimulation.simulation.movable.CPedestrian Pages: 1 -->
<svg width="688pt" height="1098pt"
 viewBox="0.00 0.00 688.00 1098.00" xmlns="http://www.w3.org/2000/svg" xmlns:xlink="http://www.w3.org/1999/xlink">
<g id="graph0" class="graph" transform="scale(1 1) rotate(0) translate(4 1094)">
<title>org.lightjason.trafficsimulation.simulation.movable.CPedestrian</title>
<!-- Node9 -->
<g id="node1" class="node"><title>Node9</title>
<polygon fill="#bfbfbf" stroke="black" points="341,-1 341,-95 563,-95 563,-1 341,-1"/>
<text text-anchor="start" x="349" y="-83.8" font-family="Helvetica,sans-Serif" font-size="9.00">org.lightjason.trafficsimulation.simulation.movable.</text>
<text text-anchor="middle" x="452" y="-73.8" font-family="Helvetica,sans-Serif" font-size="9.00">CPedestrian</text>
<polyline fill="none" stroke="black" points="341,-67 563,-67 "/>
<text text-anchor="start" x="349" y="-55.8" font-family="Helvetica,sans-Serif" font-size="9.00">&#45; COUNTER</text>
<text text-anchor="start" x="349" y="-45.8" font-family="Helvetica,sans-Serif" font-size="9.00">&#45; FUNCTOR</text>
<text text-anchor="start" x="349" y="-35.8" font-family="Helvetica,sans-Serif" font-size="9.00">&#45; serialVersionUID</text>
<polyline fill="none" stroke="black" points="341,-29 563,-29 "/>
<text text-anchor="start" x="349" y="-17.8" font-family="Helvetica,sans-Serif" font-size="9.00"># individualliteral()</text>
<text text-anchor="start" x="349" y="-7.8" font-family="Helvetica,sans-Serif" font-size="9.00">&#45; CPedestrian()</text>
</g>
<!-- Node10 -->
<g id="node2" class="node"><title>Node10</title>
<g id="a_node2"><a xlink:href="../../d5/df4/classorg_1_1lightjason_1_1trafficsimulation_1_1simulation_1_1movable_1_1IBaseMoveable.htm" target="_top" xlink:title="{org.lightjason.trafficsimulation.simulation.movable.\lIBaseMoveable\&lt; CPedestrian \&gt;\n|# GROUP\l&#45; m_route\l&#45; m_speed\l&#45; serialVersionUID\l|+ move()\l+ moveable()\l# IBaseMoveable()\l&#45; cells()\l&#45; goal()\l&#45; route()\l&#45; routeatend()\l&#45; routeatstart()\l&#45; routeestimatedtime()\l&#45; routenext()\l&#45; routeskip()\l}">
<polygon fill="none" stroke="black" points="341,-135 341,-329 563,-329 563,-135 341,-135"/>
<text text-anchor="start" x="349" y="-317.8" font-family="Helvetica,sans-Serif" font-size="9.00">org.lightjason.trafficsimulation.simulation.movable.</text>
<text text-anchor="middle" x="452" y="-307.8" font-family="Helvetica,sans-Serif" font-size="9.00">IBaseMoveable&lt; CPedestrian &gt;</text>
<polyline fill="none" stroke="black" points="341,-301 563,-301 "/>
<text text-anchor="start" x="349" y="-289.8" font-family="Helvetica,sans-Serif" font-size="9.00"># GROUP</text>
<text text-anchor="start" x="349" y="-279.8" font-family="Helvetica,sans-Serif" font-size="9.00">&#45; m_route</text>
<text text-anchor="start" x="349" y="-269.8" font-family="Helvetica,sans-Serif" font-size="9.00">&#45; m_speed</text>
<text text-anchor="start" x="349" y="-259.8" font-family="Helvetica,sans-Serif" font-size="9.00">&#45; serialVersionUID</text>
<polyline fill="none" stroke="black" points="341,-253 563,-253 "/>
<text text-anchor="start" x="349" y="-241.8" font-family="Helvetica,sans-Serif" font-size="9.00">+ move()</text>
<text text-anchor="start" x="349" y="-231.8" font-family="Helvetica,sans-Serif" font-size="9.00">+ moveable()</text>
<text text-anchor="start" x="349" y="-221.8" font-family="Helvetica,sans-Serif" font-size="9.00"># IBaseMoveable()</text>
<text text-anchor="start" x="349" y="-211.8" font-family="Helvetica,sans-Serif" font-size="9.00">&#45; cells()</text>
<text text-anchor="start" x="349" y="-201.8" font-family="Helvetica,sans-Serif" font-size="9.00">&#45; goal()</text>
<text text-anchor="start" x="349" y="-191.8" font-family="Helvetica,sans-Serif" font-size="9.00">&#45; route()</text>
<text text-anchor="start" x="349" y="-181.8" font-family="Helvetica,sans-Serif" font-size="9.00">&#45; routeatend()</text>
<text text-anchor="start" x="349" y="-171.8" font-family="Helvetica,sans-Serif" font-size="9.00">&#45; routeatstart()</text>
<text text-anchor="start" x="349" y="-161.8" font-family="Helvetica,sans-Serif" font-size="9.00">&#45; routeestimatedtime()</text>
<text text-anchor="start" x="349" y="-151.8" font-family="Helvetica,sans-Serif" font-size="9.00">&#45; routenext()</text>
<text text-anchor="start" x="349" y="-141.8" font-family="Helvetica,sans-Serif" font-size="9.00">&#45; routeskip()</text>
</a>
</g>
</g>
<!-- Node10&#45;&gt;Node9 -->
<g id="edge1" class="edge"><title>Node10&#45;&gt;Node9</title>
<path fill="none" stroke="midnightblue" d="M452,-124.925C452,-114.549 452,-104.442 452,-95.1643"/>
<polygon fill="none" stroke="midnightblue" points="448.5,-124.937 452,-134.937 455.5,-124.937 448.5,-124.937"/>
</g>
<!-- Node11 -->
<g id="node3" class="node"><title>Node11</title>
<g id="a_node3"><a xlink:href="../../d5/df4/classorg_1_1lightjason_1_1trafficsimulation_1_1simulation_1_1movable_1_1IBaseMoveable.htm" target="_top" xlink:title="moveable object ">
<polygon fill="none" stroke="black" points="341,-377 341,-571 563,-571 563,-377 341,-377"/>
<text text-anchor="start" x="349" y="-559.8" font-family="Helvetica,sans-Serif" font-size="9.00">org.lightjason.trafficsimulation.simulation.movable.</text>
<text text-anchor="middle" x="452" y="-549.8" font-family="Helvetica,sans-Serif" font-size="9.00">IBaseMoveable&lt; T extends IBaseMoveable&lt;?&gt;</text>
<polyline fill="none" stroke="black" points="341,-543 563,-543 "/>
<text text-anchor="start" x="349" y="-531.8" font-family="Helvetica,sans-Serif" font-size="9.00"># GROUP</text>
<text text-anchor="start" x="349" y="-521.8" font-family="Helvetica,sans-Serif" font-size="9.00">&#45; m_route</text>
<text text-anchor="start" x="349" y="-511.8" font-family="Helvetica,sans-Serif" font-size="9.00">&#45; m_speed</text>
<text text-anchor="start" x="349" y="-501.8" font-family="Helvetica,sans-Serif" font-size="9.00">&#45; serialVersionUID</text>
<polyline fill="none" stroke="black" points="341,-495 563,-495 "/>
<text text-anchor="start" x="349" y="-483.8" font-family="Helvetica,sans-Serif" font-size="9.00">+ move()</text>
<text text-anchor="start" x="349" y="-473.8" font-family="Helvetica,sans-Serif" font-size="9.00">+ moveable()</text>
<text text-anchor="start" x="349" y="-463.8" font-family="Helvetica,sans-Serif" font-size="9.00"># IBaseMoveable()</text>
<text text-anchor="start" x="349" y="-453.8" font-family="Helvetica,sans-Serif" font-size="9.00">&#45; cells()</text>
<text text-anchor="start" x="349" y="-443.8" font-family="Helvetica,sans-Serif" font-size="9.00">&#45; goal()</text>
<text text-anchor="start" x="349" y="-433.8" font-family="Helvetica,sans-Serif" font-size="9.00">&#45; route()</text>
<text text-anchor="start" x="349" y="-423.8" font-family="Helvetica,sans-Serif" font-size="9.00">&#45; routeatend()</text>
<text text-anchor="start" x="349" y="-413.8" font-family="Helvetica,sans-Serif" font-size="9.00">&#45; routeatstart()</text>
<text text-anchor="start" x="349" y="-403.8" font-family="Helvetica,sans-Serif" font-size="9.00">&#45; routeestimatedtime()</text>
<text text-anchor="start" x="349" y="-393.8" font-family="Helvetica,sans-Serif" font-size="9.00">&#45; routenext()</text>
<text text-anchor="start" x="349" y="-383.8" font-family="Helvetica,sans-Serif" font-size="9.00">&#45; routeskip()</text>
</a>
</g>
</g>
<!-- Node11&#45;&gt;Node10 -->
<g id="edge2" class="edge"><title>Node11&#45;&gt;Node10</title>
<path fill="none" stroke="orange" d="M452,-366.427C452,-354.051 452,-341.482 452,-329.256"/>
<polygon fill="orange" stroke="orange" points="448.5,-366.766 452,-376.766 455.5,-366.766 448.5,-366.766"/>
<text text-anchor="middle" x="486.5" y="-350.8" font-family="Helvetica,sans-Serif" font-size="9.00"> &lt; CPedestrian &gt;</text>
</g>
<!-- Node12 -->
<g id="node4" class="node"><title>Node12</title>
<g id="a_node4"><a xlink:href="../../d5/d6f/classorg_1_1lightjason_1_1trafficsimulation_1_1simulation_1_1IBaseObject.htm" target="_top" xlink:title="base agent object ">
<polygon fill="none" stroke="black" points="250.5,-611 250.5,-785 393.5,-785 393.5,-611 250.5,-611"/>
<text text-anchor="start" x="258.5" y="-773.8" font-family="Helvetica,sans-Serif" font-size="9.00">org::lightjason::trafficsimulation</text>
<text text-anchor="middle" x="322" y="-763.8" font-family="Helvetica,sans-Serif" font-size="9.00">::simulation::IBaseObject&lt; T &gt;</text>
<polyline fill="none" stroke="black" points="250.5,-757 393.5,-757 "/>
<text text-anchor="start" x="258.5" y="-745.8" font-family="Helvetica,sans-Serif" font-size="9.00"># m_position</text>
<text text-anchor="start" x="258.5" y="-735.8" font-family="Helvetica,sans-Serif" font-size="9.00">&#45; m_external</text>
<text text-anchor="start" x="258.5" y="-725.8" font-family="Helvetica,sans-Serif" font-size="9.00">&#45; m_functor</text>
<text text-anchor="start" x="258.5" y="-715.8" font-family="Helvetica,sans-Serif" font-size="9.00">&#45; m_name</text>
<text text-anchor="start" x="258.5" y="-705.8" font-family="Helvetica,sans-Serif" font-size="9.00">&#45; serialVersionUID</text>
<polyline fill="none" stroke="black" points="250.5,-699 393.5,-699 "/>
<text text-anchor="start" x="258.5" y="-687.8" font-family="Helvetica,sans-Serif" font-size="9.00">+ equals()</text>
<text text-anchor="start" x="258.5" y="-677.8" font-family="Helvetica,sans-Serif" font-size="9.00">+ hashCode()</text>
<text text-anchor="start" x="258.5" y="-667.8" font-family="Helvetica,sans-Serif" font-size="9.00">+ literal()</text>
<text text-anchor="start" x="258.5" y="-657.8" font-family="Helvetica,sans-Serif" font-size="9.00">+ literal()</text>
<text text-anchor="start" x="258.5" y="-647.8" font-family="Helvetica,sans-Serif" font-size="9.00">+ name()</text>
<text text-anchor="start" x="258.5" y="-637.8" font-family="Helvetica,sans-Serif" font-size="9.00">+ position()</text>
<text text-anchor="start" x="258.5" y="-627.8" font-family="Helvetica,sans-Serif" font-size="9.00"># IBaseObject()</text>
<text text-anchor="start" x="258.5" y="-617.8" font-family="Helvetica,sans-Serif" font-size="9.00"># individualliteral()</text>
</a>
</g>
</g>
<!-- Node12&#45;&gt;Node11 -->
<g id="edge3" class="edge"><title>Node12&#45;&gt;Node11</title>
<path fill="none" stroke="midnightblue" d="M377.676,-601.922C383.664,-591.697 389.759,-581.288 395.754,-571.052"/>
<polygon fill="none" stroke="midnightblue" points="374.48,-600.453 372.447,-610.851 380.521,-603.991 374.48,-600.453"/>
</g>
<!-- Node13 -->
<g id="node5" class="node"><title>Node13</title>
<g id="a_node5"><a xlink:href="../../d5/dea/interfaceorg_1_1lightjason_1_1trafficsimulation_1_1simulation_1_1IObject.htm" target="_top" xlink:title="{org.lightjason.trafficsimulation.simulation.\lIObject\&lt; T \&gt;\n||+ literal()\l+ literal()\l+ name()\l+ position()\l}">
<polygon fill="none" stroke="black" points="-0.5,-843 -0.5,-937 184.5,-937 184.5,-843 -0.5,-843"/>
<text text-anchor="start" x="7.5" y="-925.8" font-family="Helvetica,sans-Serif" font-size="9.00">org.lightjason.trafficsimulation.simulation.</text>
<text text-anchor="middle" x="92" y="-915.8" font-family="Helvetica,sans-Serif" font-size="9.00">IObject&lt; T &gt;</text>
<polyline fill="none" stroke="black" points="-0.5,-909 184.5,-909 "/>
<text text-anchor="middle" x="92" y="-897.8" font-family="Helvetica,sans-Serif" font-size="9.00"> </text>
<polyline fill="none" stroke="black" points="-0.5,-891 184.5,-891 "/>
<text text-anchor="start" x="7.5" y="-879.8" font-family="Helvetica,sans-Serif" font-size="9.00">+ literal()</text>
<text text-anchor="start" x="7.5" y="-869.8" font-family="Helvetica,sans-Serif" font-size="9.00">+ literal()</text>
<text text-anchor="start" x="7.5" y="-859.8" font-family="Helvetica,sans-Serif" font-size="9.00">+ name()</text>
<text text-anchor="start" x="7.5" y="-849.8" font-family="Helvetica,sans-Serif" font-size="9.00">+ position()</text>
</a>
</g>
</g>
<!-- Node13&#45;&gt;Node12 -->
<g id="edge4" class="edge"><title>Node13&#45;&gt;Node12</title>
<path fill="none" stroke="midnightblue" d="M155.712,-836.369C185.118,-812.076 220.152,-783.135 250.463,-758.096"/>
<polygon fill="none" stroke="midnightblue" points="153.451,-833.697 147.97,-842.764 157.909,-839.093 153.451,-833.697"/>
</g>
<!-- Node14 -->
<g id="node6" class="node"><title>Node14</title>
<g id="a_node6"><a xlink:href="../../d5/dea/interfaceorg_1_1lightjason_1_1trafficsimulation_1_1simulation_1_1IObject.htm" target="_top" xlink:title="object interface ">
<polygon fill="none" stroke="black" points="-0.5,-995 -0.5,-1089 184.5,-1089 184.5,-995 -0.5,-995"/>
<text text-anchor="start" x="7.5" y="-1077.8" font-family="Helvetica,sans-Serif" font-size="9.00">org.lightjason.trafficsimulation.simulation.</text>
<text text-anchor="middle" x="92" y="-1067.8" font-family="Helvetica,sans-Serif" font-size="9.00">IObject&lt; T extends IAgent&lt;?&gt;</text>
<polyline fill="none" stroke="black" points="-0.5,-1061 184.5,-1061 "/>
<text text-anchor="middle" x="92" y="-1049.8" font-family="Helvetica,sans-Serif" font-size="9.00"> </text>
<polyline fill="none" stroke="black" points="-0.5,-1043 184.5,-1043 "/>
<text text-anchor="start" x="7.5" y="-1031.8" font-family="Helvetica,sans-Serif" font-size="9.00">+ literal()</text>
<text text-anchor="start" x="7.5" y="-1021.8" font-family="Helvetica,sans-Serif" font-size="9.00">+ literal()</text>
<text text-anchor="start" x="7.5" y="-1011.8" font-family="Helvetica,sans-Serif" font-size="9.00">+ name()</text>
<text text-anchor="start" x="7.5" y="-1001.8" font-family="Helvetica,sans-Serif" font-size="9.00">+ position()</text>
</a>
</g>
</g>
<!-- Node14&#45;&gt;Node13 -->
<g id="edge5" class="edge"><title>Node14&#45;&gt;Node13</title>
<path fill="none" stroke="orange" d="M92,-984.657C92,-968.963 92,-952.105 92,-937.076"/>
<polygon fill="orange" stroke="orange" points="88.5001,-984.771 92,-994.771 95.5001,-984.771 88.5001,-984.771"/>
<text text-anchor="middle" x="103.5" y="-968.8" font-family="Helvetica,sans-Serif" font-size="9.00"> &lt; T &gt;</text>
</g>
<!-- Node15 -->
<g id="node7" class="node"><title>Node15</title>
<g id="a_node7"><a xlink:href="../../d5/d10/interfaceorg_1_1lightjason_1_1trafficsimulation_1_1simulation_1_1environment_1_1IEnvironment.htm" target="_top" xlink:title="environment interface ">
<polygon fill="none" stroke="black" points="203,-833 203,-947 441,-947 441,-833 203,-833"/>
<text text-anchor="start" x="211" y="-935.8" font-family="Helvetica,sans-Serif" font-size="9.00">org.lightjason.trafficsimulation.simulation.environment.</text>
<text text-anchor="middle" x="322" y="-925.8" font-family="Helvetica,sans-Serif" font-size="9.00">IEnvironment</text>
<polyline fill="none" stroke="black" points="203,-919 441,-919 "/>
<text text-anchor="middle" x="322" y="-907.8" font-family="Helvetica,sans-Serif" font-size="9.00"> </text>
<polyline fill="none" stroke="black" points="203,-901 441,-901 "/>
<text text-anchor="start" x="211" y="-889.8" font-family="Helvetica,sans-Serif" font-size="9.00">+ empty()</text>
<text text-anchor="start" x="211" y="-879.8" font-family="Helvetica,sans-Serif" font-size="9.00">+ get()</text>
<text text-anchor="start" x="211" y="-869.8" font-family="Helvetica,sans-Serif" font-size="9.00">+ move()</text>
<text text-anchor="start" x="211" y="-859.8" font-family="Helvetica,sans-Serif" font-size="9.00">+ remove()</text>
<text text-anchor="start" x="211" y="-849.8" font-family="Helvetica,sans-Serif" font-size="9.00">+ route()</text>
<text text-anchor="start" x="211" y="-839.8" font-family="Helvetica,sans-Serif" font-size="9.00">+ routestimatedtime()</text>
</a>
</g>
</g>
<!-- Node15&#45;&gt;Node12 -->
<g id="edge6" class="edge"><title>Node15&#45;&gt;Node12</title>
<path fill="none" stroke="#404040" d="M322,-832.765C322,-821.521 322,-809.403 322,-797.215"/>
<polygon fill="none" stroke="#404040" points="322,-797.032 318,-791.032 322,-785.032 326,-791.032 322,-797.032"/>
<text text-anchor="middle" x="358" y="-806.8" font-family="Helvetica,sans-Serif" font-size="9.00"> #m_environment</text>
</g>
<!-- Node16 -->
<g id="node8" class="node"><title>Node16</title>
<g id="a_node8"><a xlink:href="../../d5/dea/interfaceorg_1_1lightjason_1_1trafficsimulation_1_1simulation_1_1IObject.htm" target="_top" xlink:title="object interface ">
<polygon fill="none" stroke="black" points="239.5,-995 239.5,-1089 404.5,-1089 404.5,-995 239.5,-995"/>
<text text-anchor="start" x="247.5" y="-1077.8" font-family="Helvetica,sans-Serif" font-size="9.00">org::lightjason::trafficsimulation</text>
<text text-anchor="middle" x="322" y="-1067.8" font-family="Helvetica,sans-Serif" font-size="9.00">::simulation::IObject&lt; IEnvironment &gt;</text>
<polyline fill="none" stroke="black" points="239.5,-1061 404.5,-1061 "/>
<text text-anchor="middle" x="322" y="-1049.8" font-family="Helvetica,sans-Serif" font-size="9.00"> </text>
<polyline fill="none" stroke="black" points="239.5,-1043 404.5,-1043 "/>
<text text-anchor="start" x="247.5" y="-1031.8" font-family="Helvetica,sans-Serif" font-size="9.00">+ literal()</text>
<text text-anchor="start" x="247.5" y="-1021.8" font-family="Helvetica,sans-Serif" font-size="9.00">+ literal()</text>
<text text-anchor="start" x="247.5" y="-1011.8" font-family="Helvetica,sans-Serif" font-size="9.00">+ name()</text>
<text text-anchor="start" x="247.5" y="-1001.8" font-family="Helvetica,sans-Serif" font-size="9.00">+ position()</text>
</a>
</g>
</g>
<!-- Node16&#45;&gt;Node15 -->
<g id="edge7" class="edge"><title>Node16&#45;&gt;Node15</title>
<path fill="none" stroke="midnightblue" d="M322,-984.655C322,-972.374 322,-959.381 322,-947.11"/>
<polygon fill="none" stroke="midnightblue" points="318.5,-984.771 322,-994.771 325.5,-984.771 318.5,-984.771"/>
</g>
<!-- Node17 -->
<g id="node9" class="node"><title>Node17</title>
<g id="a_node9"><a xlink:href="../../d6/d59/interfaceorg_1_1lightjason_1_1trafficsimulation_1_1simulation_1_1movable_1_1IMoveable.htm" target="_top" xlink:title="{org.lightjason.trafficsimulation.simulation.movable.\lIMoveable\&lt; T \&gt;\n||+ move()\l+ moveable()\l}">
<polygon fill="none" stroke="black" points="424,-661 424,-735 646,-735 646,-661 424,-661"/>
<text text-anchor="start" x="432" y="-723.8" font-family="Helvetica,sans-Serif" font-size="9.00">org.lightjason.trafficsimulation.simulation.movable.</text>
<text text-anchor="middle" x="535" y="-713.8" font-family="Helvetica,sans-Serif" font-size="9.00">IMoveable&lt; T &gt;</text>
<polyline fill="none" stroke="black" points="424,-707 646,-707 "/>
<text text-anchor="middle" x="535" y="-695.8" font-family="Helvetica,sans-Serif" font-size="9.00"> </text>
<polyline fill="none" stroke="black" points="424,-689 646,-689 "/>
<text text-anchor="start" x="432" y="-677.8" font-family="Helvetica,sans-Serif" font-size="9.00">+ move()</text>
<text text-anchor="start" x="432" y="-667.8" font-family="Helvetica,sans-Serif" font-size="9.00">+ moveable()</text>
</a>
</g>
</g>
<!-- Node17&#45;&gt;Node11 -->
<g id="edge8" class="edge"><title>Node17&#45;&gt;Node11</title>
<path fill="none" stroke="midnightblue" d="M517.901,-651.265C509.216,-628.035 498.319,-598.89 487.902,-571.027"/>
<polygon fill="none" stroke="midnightblue" points="514.699,-652.697 521.48,-660.838 521.256,-650.245 514.699,-652.697"/>
</g>
<!-- Node18 -->
<g id="node10" class="node"><title>Node18</title>
<g id="a_node10"><a xlink:href="../../d6/d59/interfaceorg_1_1lightjason_1_1trafficsimulation_1_1simulation_1_1movable_1_1IMoveable.htm" target="_top" xlink:title="moveable interface ">
<polygon fill="none" stroke="black" points="459,-853 459,-927 681,-927 681,-853 459,-853"/>
<text text-anchor="start" x="467" y="-915.8" font-family="Helvetica,sans-Serif" font-size="9.00">org.lightjason.trafficsimulation.simulation.movable.</text>
<text text-anchor="middle" x="570" y="-905.8" font-family="Helvetica,sans-Serif" font-size="9.00">IMoveable&lt; T extends IMoveable&lt;?&gt;</text>
<polyline fill="none" stroke="black" points="459,-899 681,-899 "/>
<text text-anchor="middle" x="570" y="-887.8" font-family="Helvetica,sans-Serif" font-size="9.00"> </text>
<polyline fill="none" stroke="black" points="459,-881 681,-881 "/>
<text text-anchor="start" x="467" y="-869.8" font-family="Helvetica,sans-Serif" font-size="9.00">+ move()</text>
<text text-anchor="start" x="467" y="-859.8" font-family="Helvetica,sans-Serif" font-size="9.00">+ moveable()</text>
</a>
</g>
</g>
<!-- Node18&#45;&gt;Node17 -->
<g id="edge9" class="edge"><title>Node18&#45;&gt;Node17</title>
<path fill="none" stroke="orange" d="M561.508,-842.902C555.4,-809.74 547.277,-765.649 541.641,-735.05"/>
<polygon fill="orange" stroke="orange" points="558.081,-843.615 563.334,-852.815 564.965,-842.347 558.081,-843.615"/>
<text text-anchor="middle" x="567.5" y="-806.8" font-family="Helvetica,sans-Serif" font-size="9.00"> &lt; T &gt;</text>
</g>
<!-- Node19 -->
<g id="node11" class="node"><title>Node19</title>
<g id="a_node11"><a xlink:href="../../d5/dea/interfaceorg_1_1lightjason_1_1trafficsimulation_1_1simulation_1_1IObject.htm" target="_top" xlink:title="object interface ">
<polygon fill="none" stroke="black" points="498.5,-995 498.5,-1089 641.5,-1089 641.5,-995 498.5,-995"/>
<text text-anchor="start" x="506.5" y="-1077.8" font-family="Helvetica,sans-Serif" font-size="9.00">org::lightjason::trafficsimulation</text>
<text text-anchor="middle" x="570" y="-1067.8" font-family="Helvetica,sans-Serif" font-size="9.00">::simulation::IObject&lt; T &gt;</text>
<polyline fill="none" stroke="black" points="498.5,-1061 641.5,-1061 "/>
<text text-anchor="middle" x="570" y="-1049.8" font-family="Helvetica,sans-Serif" font-size="9.00"> </text>
<polyline fill="none" stroke="black" points="498.5,-1043 641.5,-1043 "/>
<text text-anchor="start" x="506.5" y="-1031.8" font-family="Helvetica,sans-Serif" font-size="9.00">+ literal()</text>
<text text-anchor="start" x="506.5" y="-1021.8" font-family="Helvetica,sans-Serif" font-size="9.00">+ literal()</text>
<text text-anchor="start" x="506.5" y="-1011.8" font-family="Helvetica,sans-Serif" font-size="9.00">+ name()</text>
<text text-anchor="start" x="506.5" y="-1001.8" font-family="Helvetica,sans-Serif" font-size="9.00">+ position()</text>
</a>
</g>
</g>
<!-- Node19&#45;&gt;Node18 -->
<g id="edge10" class="edge"><title>Node19&#45;&gt;Node18</title>
<path fill="none" stroke="midnightblue" d="M570,-984.625C570,-965.437 570,-944.512 570,-927.32"/>
<polygon fill="none" stroke="midnightblue" points="566.5,-984.771 570,-994.771 573.5,-984.771 566.5,-984.771"/>
</g>
</g>
</svg>
