<?xml version="1.0" encoding="UTF-8" standalone="no"?>
<!DOCTYPE svg PUBLIC "-//W3C//DTD SVG 1.1//EN"
 "http://www.w3.org/Graphics/SVG/1.1/DTD/svg11.dtd">
<!-- Generated by graphviz version 2.36.0 (20140111.2315)
 -->
<!-- Title: org.lightjason.trafficsimulation.simulation.IBaseObject&lt; T extends IObject&lt;?&gt; Pages: 1 -->
<svg width="449pt" height="488pt"
 viewBox="0.00 0.00 449.00 488.00" xmlns="http://www.w3.org/2000/svg" xmlns:xlink="http://www.w3.org/1999/xlink">
<g id="graph0" class="graph" transform="scale(1 1) rotate(0) translate(4 484)">
<title>org.lightjason.trafficsimulation.simulation.IBaseObject&lt; T extends IObject&lt;?&gt;</title>
<!-- Node16 -->
<g id="node1" class="node"><title>Node16</title>
<polygon fill="#bfbfbf" stroke="black" points="138.5,-1 138.5,-175 323.5,-175 323.5,-1 138.5,-1"/>
<text text-anchor="start" x="146.5" y="-163.8" font-family="Helvetica,sans-Serif" font-size="9.00">org.lightjason.trafficsimulation.simulation.</text>
<text text-anchor="middle" x="231" y="-153.8" font-family="Helvetica,sans-Serif" font-size="9.00">IBaseObject&lt; T extends IObject&lt;?&gt;</text>
<polyline fill="none" stroke="black" points="138.5,-147 323.5,-147 "/>
<text text-anchor="start" x="146.5" y="-135.8" font-family="Helvetica,sans-Serif" font-size="9.00"># m_position</text>
<text text-anchor="start" x="146.5" y="-125.8" font-family="Helvetica,sans-Serif" font-size="9.00">&#45; m_external</text>
<text text-anchor="start" x="146.5" y="-115.8" font-family="Helvetica,sans-Serif" font-size="9.00">&#45; m_functor</text>
<text text-anchor="start" x="146.5" y="-105.8" font-family="Helvetica,sans-Serif" font-size="9.00">&#45; m_name</text>
<text text-anchor="start" x="146.5" y="-95.8" font-family="Helvetica,sans-Serif" font-size="9.00">&#45; serialVersionUID</text>
<polyline fill="none" stroke="black" points="138.5,-89 323.5,-89 "/>
<text text-anchor="start" x="146.5" y="-77.8" font-family="Helvetica,sans-Serif" font-size="9.00">+ equals()</text>
<text text-anchor="start" x="146.5" y="-67.8" font-family="Helvetica,sans-Serif" font-size="9.00">+ hashCode()</text>
<text text-anchor="start" x="146.5" y="-57.8" font-family="Helvetica,sans-Serif" font-size="9.00">+ literal()</text>
<text text-anchor="start" x="146.5" y="-47.8" font-family="Helvetica,sans-Serif" font-size="9.00">+ literal()</text>
<text text-anchor="start" x="146.5" y="-37.8" font-family="Helvetica,sans-Serif" font-size="9.00">+ name()</text>
<text text-anchor="start" x="146.5" y="-27.8" font-family="Helvetica,sans-Serif" font-size="9.00">+ position()</text>
<text text-anchor="start" x="146.5" y="-17.8" font-family="Helvetica,sans-Serif" font-size="9.00"># IBaseObject()</text>
<text text-anchor="start" x="146.5" y="-7.8" font-family="Helvetica,sans-Serif" font-size="9.00"># individualliteral()</text>
</g>
<!-- Node17 -->
<g id="node2" class="node"><title>Node17</title>
<g id="a_node2"><a xlink:href="../../d5/dea/interfaceorg_1_1lightjason_1_1trafficsimulation_1_1simulation_1_1IObject.htm" target="_top" xlink:title="{org.lightjason.trafficsimulation.simulation.\lIObject\&lt; T \&gt;\n||+ literal()\l+ literal()\l+ name()\l+ position()\l}">
<polygon fill="none" stroke="black" points="-0.5,-233 -0.5,-327 184.5,-327 184.5,-233 -0.5,-233"/>
<text text-anchor="start" x="7.5" y="-315.8" font-family="Helvetica,sans-Serif" font-size="9.00">org.lightjason.trafficsimulation.simulation.</text>
<text text-anchor="middle" x="92" y="-305.8" font-family="Helvetica,sans-Serif" font-size="9.00">IObject&lt; T &gt;</text>
<polyline fill="none" stroke="black" points="-0.5,-299 184.5,-299 "/>
<text text-anchor="middle" x="92" y="-287.8" font-family="Helvetica,sans-Serif" font-size="9.00"> </text>
<polyline fill="none" stroke="black" points="-0.5,-281 184.5,-281 "/>
<text text-anchor="start" x="7.5" y="-269.8" font-family="Helvetica,sans-Serif" font-size="9.00">+ literal()</text>
<text text-anchor="start" x="7.5" y="-259.8" font-family="Helvetica,sans-Serif" font-size="9.00">+ literal()</text>
<text text-anchor="start" x="7.5" y="-249.8" font-family="Helvetica,sans-Serif" font-size="9.00">+ name()</text>
<text text-anchor="start" x="7.5" y="-239.8" font-family="Helvetica,sans-Serif" font-size="9.00">+ position()</text>
</a>
</g>
</g>
<!-- Node17&#45;&gt;Node16 -->
<g id="edge1" class="edge"><title>Node17&#45;&gt;Node16</title>
<path fill="none" stroke="midnightblue" d="M132.104,-224.181C143.337,-208.828 155.824,-191.758 168.04,-175.06"/>
<polygon fill="none" stroke="midnightblue" points="129.083,-222.383 126.003,-232.521 134.732,-226.517 129.083,-222.383"/>
</g>
<!-- Node18 -->
<g id="node3" class="node"><title>Node18</title>
<g id="a_node3"><a xlink:href="../../d5/dea/interfaceorg_1_1lightjason_1_1trafficsimulation_1_1simulation_1_1IObject.htm" target="_top" xlink:title="object interface ">
<polygon fill="none" stroke="black" points="-0.5,-385 -0.5,-479 184.5,-479 184.5,-385 -0.5,-385"/>
<text text-anchor="start" x="7.5" y="-467.8" font-family="Helvetica,sans-Serif" font-size="9.00">org.lightjason.trafficsimulation.simulation.</text>
<text text-anchor="middle" x="92" y="-457.8" font-family="Helvetica,sans-Serif" font-size="9.00">IObject&lt; T extends IAgent&lt;?&gt;</text>
<polyline fill="none" stroke="black" points="-0.5,-451 184.5,-451 "/>
<text text-anchor="middle" x="92" y="-439.8" font-family="Helvetica,sans-Serif" font-size="9.00"> </text>
<polyline fill="none" stroke="black" points="-0.5,-433 184.5,-433 "/>
<text text-anchor="start" x="7.5" y="-421.8" font-family="Helvetica,sans-Serif" font-size="9.00">+ literal()</text>
<text text-anchor="start" x="7.5" y="-411.8" font-family="Helvetica,sans-Serif" font-size="9.00">+ literal()</text>
<text text-anchor="start" x="7.5" y="-401.8" font-family="Helvetica,sans-Serif" font-size="9.00">+ name()</text>
<text text-anchor="start" x="7.5" y="-391.8" font-family="Helvetica,sans-Serif" font-size="9.00">+ position()</text>
</a>
</g>
</g>
<!-- Node18&#45;&gt;Node17 -->
<g id="edge2" class="edge"><title>Node18&#45;&gt;Node17</title>
<path fill="none" stroke="orange" d="M92,-374.657C92,-358.963 92,-342.105 92,-327.076"/>
<polygon fill="orange" stroke="orange" points="88.5001,-374.771 92,-384.771 95.5001,-374.771 88.5001,-374.771"/>
<text text-anchor="middle" x="103.5" y="-358.8" font-family="Helvetica,sans-Serif" font-size="9.00"> &lt; T &gt;</text>
</g>
<!-- Node19 -->
<g id="node4" class="node"><title>Node19</title>
<g id="a_node4"><a xlink:href="../../d5/d10/interfaceorg_1_1lightjason_1_1trafficsimulation_1_1simulation_1_1environment_1_1IEnvironment.htm" target="_top" xlink:title="environment interface ">
<polygon fill="none" stroke="black" points="203,-223 203,-337 441,-337 441,-223 203,-223"/>
<text text-anchor="start" x="211" y="-325.8" font-family="Helvetica,sans-Serif" font-size="9.00">org.lightjason.trafficsimulation.simulation.environment.</text>
<text text-anchor="middle" x="322" y="-315.8" font-family="Helvetica,sans-Serif" font-size="9.00">IEnvironment</text>
<polyline fill="none" stroke="black" points="203,-309 441,-309 "/>
<text text-anchor="middle" x="322" y="-297.8" font-family="Helvetica,sans-Serif" font-size="9.00"> </text>
<polyline fill="none" stroke="black" points="203,-291 441,-291 "/>
<text text-anchor="start" x="211" y="-279.8" font-family="Helvetica,sans-Serif" font-size="9.00">+ empty()</text>
<text text-anchor="start" x="211" y="-269.8" font-family="Helvetica,sans-Serif" font-size="9.00">+ get()</text>
<text text-anchor="start" x="211" y="-259.8" font-family="Helvetica,sans-Serif" font-size="9.00">+ move()</text>
<text text-anchor="start" x="211" y="-249.8" font-family="Helvetica,sans-Serif" font-size="9.00">+ remove()</text>
<text text-anchor="start" x="211" y="-239.8" font-family="Helvetica,sans-Serif" font-size="9.00">+ route()</text>
<text text-anchor="start" x="211" y="-229.8" font-family="Helvetica,sans-Serif" font-size="9.00">+ routestimatedtime()</text>
</a>
</g>
</g>
<!-- Node19&#45;&gt;Node16 -->
<g id="edge3" class="edge"><title>Node19&#45;&gt;Node16</title>
<path fill="none" stroke="#404040" d="M295.066,-222.765C289.513,-211.17 283.514,-198.645 277.492,-186.072"/>
<polygon fill="none" stroke="#404040" points="277.388,-185.855 271.189,-182.171 272.205,-175.032 278.404,-178.716 277.388,-185.855"/>
<text text-anchor="middle" x="321" y="-196.8" font-family="Helvetica,sans-Serif" font-size="9.00"> #m_environment</text>
</g>
<!-- Node20 -->
<g id="node5" class="node"><title>Node20</title>
<g id="a_node5"><a xlink:href="../../d5/dea/interfaceorg_1_1lightjason_1_1trafficsimulation_1_1simulation_1_1IObject.htm" target="_top" xlink:title="object interface ">
<polygon fill="none" stroke="black" points="239.5,-385 239.5,-479 404.5,-479 404.5,-385 239.5,-385"/>
<text text-anchor="start" x="247.5" y="-467.8" font-family="Helvetica,sans-Serif" font-size="9.00">org::lightjason::trafficsimulation</text>
<text text-anchor="middle" x="322" y="-457.8" font-family="Helvetica,sans-Serif" font-size="9.00">::simulation::IObject&lt; IEnvironment &gt;</text>
<polyline fill="none" stroke="black" points="239.5,-451 404.5,-451 "/>
<text text-anchor="middle" x="322" y="-439.8" font-family="Helvetica,sans-Serif" font-size="9.00"> </text>
<polyline fill="none" stroke="black" points="239.5,-433 404.5,-433 "/>
<text text-anchor="start" x="247.5" y="-421.8" font-family="Helvetica,sans-Serif" font-size="9.00">+ literal()</text>
<text text-anchor="start" x="247.5" y="-411.8" font-family="Helvetica,sans-Serif" font-size="9.00">+ literal()</text>
<text text-anchor="start" x="247.5" y="-401.8" font-family="Helvetica,sans-Serif" font-size="9.00">+ name()</text>
<text text-anchor="start" x="247.5" y="-391.8" font-family="Helvetica,sans-Serif" font-size="9.00">+ position()</text>
</a>
</g>
</g>
<!-- Node20&#45;&gt;Node19 -->
<g id="edge4" class="edge"><title>Node20&#45;&gt;Node19</title>
<path fill="none" stroke="midnightblue" d="M322,-374.655C322,-362.374 322,-349.381 322,-337.11"/>
<polygon fill="none" stroke="midnightblue" points="318.5,-374.771 322,-384.771 325.5,-374.771 318.5,-374.771"/>
</g>
</g>
</svg>
