<?xml version="1.0" encoding="UTF-8" standalone="no"?>
<!DOCTYPE svg PUBLIC "-//W3C//DTD SVG 1.1//EN"
 "http://www.w3.org/Graphics/SVG/1.1/DTD/svg11.dtd">
<!-- Generated by graphviz version 2.36.0 (20140111.2315)
 -->
<!-- Title: org.lightjason.trafficsimulation.simulation.environment.CEnvironment.CGenerator Pages: 1 -->
<svg width="246pt" height="206pt"
 viewBox="0.00 0.00 246.00 206.00" xmlns="http://www.w3.org/2000/svg" xmlns:xlink="http://www.w3.org/1999/xlink">
<g id="graph0" class="graph" transform="scale(1 1) rotate(0) translate(4 202)">
<title>org.lightjason.trafficsimulation.simulation.environment.CEnvironment.CGenerator</title>
<!-- Node2 -->
<g id="node1" class="node"><title>Node2</title>
<polygon fill="#bfbfbf" stroke="black" points="0,-1 0,-75 238,-75 238,-1 0,-1"/>
<text text-anchor="start" x="8" y="-63.8" font-family="Helvetica,sans-Serif" font-size="9.00">org.lightjason.trafficsimulation.simulation.environment.</text>
<text text-anchor="middle" x="119" y="-53.8" font-family="Helvetica,sans-Serif" font-size="9.00">CEnvironment.CGenerator</text>
<polyline fill="none" stroke="black" points="0,-47 238,-47 "/>
<text text-anchor="middle" x="119" y="-35.8" font-family="Helvetica,sans-Serif" font-size="9.00"> </text>
<polyline fill="none" stroke="black" points="0,-29 238,-29 "/>
<text text-anchor="start" x="8" y="-17.8" font-family="Helvetica,sans-Serif" font-size="9.00">+ CGenerator()</text>
<text text-anchor="start" x="8" y="-7.8" font-family="Helvetica,sans-Serif" font-size="9.00"># generate()</text>
</g>
<!-- Node3 -->
<g id="node2" class="node"><title>Node3</title>
<g id="a_node2"><a xlink:href="../../dc/dea/classorg_1_1lightjason_1_1trafficsimulation_1_1simulation_1_1environment_1_1IBaseEnvironmentGenerator.htm" target="_top" xlink:title="environment agent generator ">
<polygon fill="none" stroke="black" points="0,-113 0,-197 238,-197 238,-113 0,-113"/>
<text text-anchor="start" x="8" y="-185.8" font-family="Helvetica,sans-Serif" font-size="9.00">org.lightjason.trafficsimulation.simulation.environment.</text>
<text text-anchor="middle" x="119" y="-175.8" font-family="Helvetica,sans-Serif" font-size="9.00">IBaseEnvironmentGenerator</text>
<polyline fill="none" stroke="black" points="0,-169 238,-169 "/>
<text text-anchor="middle" x="119" y="-157.8" font-family="Helvetica,sans-Serif" font-size="9.00"> </text>
<polyline fill="none" stroke="black" points="0,-151 238,-151 "/>
<text text-anchor="start" x="8" y="-139.8" font-family="Helvetica,sans-Serif" font-size="9.00">+ IBaseEnvironmentGenerator()</text>
<text text-anchor="start" x="8" y="-129.8" font-family="Helvetica,sans-Serif" font-size="9.00">+ generatesingle()</text>
<text text-anchor="start" x="8" y="-119.8" font-family="Helvetica,sans-Serif" font-size="9.00"># generate()</text>
</a>
</g>
</g>
<!-- Node3&#45;&gt;Node2 -->
<g id="edge1" class="edge"><title>Node3&#45;&gt;Node2</title>
<path fill="none" stroke="midnightblue" d="M119,-102.572C119,-93.3822 119,-83.9836 119,-75.3287"/>
<polygon fill="none" stroke="midnightblue" points="115.5,-102.807 119,-112.807 122.5,-102.807 115.5,-102.807"/>
</g>
</g>
</svg>
