<?xml version="1.0" encoding="UTF-8" standalone="no"?>
<!DOCTYPE svg PUBLIC "-//W3C//DTD SVG 1.1//EN"
 "http://www.w3.org/Graphics/SVG/1.1/DTD/svg11.dtd">
<!-- Generated by graphviz version 2.36.0 (20140111.2315)
 -->
<!-- Title: org.lightjason.trafficsimulation.simulation.virtual .IVirtual&lt; T extends IVirtual&lt;?&gt; Pages: 1 -->
<svg width="216pt" height="676pt"
 viewBox="0.00 0.00 216.00 676.00" xmlns="http://www.w3.org/2000/svg" xmlns:xlink="http://www.w3.org/1999/xlink">
<g id="graph0" class="graph" transform="scale(1 1) rotate(0) translate(4 672)">
<title>org.lightjason.trafficsimulation.simulation.virtual .IVirtual&lt; T extends IVirtual&lt;?&gt;</title>
<!-- Node0 -->
<g id="node1" class="node"><title>Node0</title>
<polygon fill="#bfbfbf" stroke="black" points="-0.5,-327 -0.5,-391 208.5,-391 208.5,-327 -0.5,-327"/>
<text text-anchor="start" x="7.5" y="-379.8" font-family="Helvetica,sans-Serif" font-size="9.00">org.lightjason.trafficsimulation.simulation.virtual</text>
<text text-anchor="middle" x="104" y="-369.8" font-family="Helvetica,sans-Serif" font-size="9.00"> .IVirtual&lt; T extends IVirtual&lt;?&gt;</text>
<polyline fill="none" stroke="black" points="-0.5,-363 208.5,-363 "/>
<text text-anchor="middle" x="104" y="-351.8" font-family="Helvetica,sans-Serif" font-size="9.00"> </text>
<polyline fill="none" stroke="black" points="-0.5,-345 208.5,-345 "/>
<text text-anchor="middle" x="104" y="-333.8" font-family="Helvetica,sans-Serif" font-size="9.00"> </text>
</g>
<!-- Node3 -->
<g id="node4" class="node"><title>Node3</title>
<g id="a_node4"><a xlink:href="../../d4/dd6/interfaceorg_1_1lightjason_1_1trafficsimulation_1_1simulation_1_1virtual_01_1_1IVirtual.htm" target="_top" xlink:title="{org.lightjason.trafficsimulation.simulation.virtual\l .IVirtual\&lt; CArea \&gt;\n||}">
<polygon fill="none" stroke="black" points="-0.5,-215 -0.5,-279 208.5,-279 208.5,-215 -0.5,-215"/>
<text text-anchor="start" x="7.5" y="-267.8" font-family="Helvetica,sans-Serif" font-size="9.00">org.lightjason.trafficsimulation.simulation.virtual</text>
<text text-anchor="middle" x="104" y="-257.8" font-family="Helvetica,sans-Serif" font-size="9.00"> .IVirtual&lt; CArea &gt;</text>
<polyline fill="none" stroke="black" points="-0.5,-251 208.5,-251 "/>
<text text-anchor="middle" x="104" y="-239.8" font-family="Helvetica,sans-Serif" font-size="9.00"> </text>
<polyline fill="none" stroke="black" points="-0.5,-233 208.5,-233 "/>
<text text-anchor="middle" x="104" y="-221.8" font-family="Helvetica,sans-Serif" font-size="9.00"> </text>
</a>
</g>
</g>
<!-- Node0&#45;&gt;Node3 -->
<g id="edge3" class="edge"><title>Node0&#45;&gt;Node3</title>
<path fill="none" stroke="orange" d="M104,-316.667C104,-304.289 104,-290.925 104,-279.305"/>
<polygon fill="orange" stroke="orange" points="100.5,-316.773 104,-326.773 107.5,-316.773 100.5,-316.773"/>
<text text-anchor="middle" x="126" y="-300.8" font-family="Helvetica,sans-Serif" font-size="9.00"> &lt; CArea &gt;</text>
</g>
<!-- Node1 -->
<g id="node2" class="node"><title>Node1</title>
<g id="a_node2"><a xlink:href="../../d5/dea/interfaceorg_1_1lightjason_1_1trafficsimulation_1_1simulation_1_1IObject.htm" target="_top" xlink:title="{org.lightjason.trafficsimulation.simulation.\lIObject\&lt; T \&gt;\n||+ literal()\l+ literal()\l+ name()\l+ position()\l}">
<polygon fill="none" stroke="black" points="11.5,-431 11.5,-525 196.5,-525 196.5,-431 11.5,-431"/>
<text text-anchor="start" x="19.5" y="-513.8" font-family="Helvetica,sans-Serif" font-size="9.00">org.lightjason.trafficsimulation.simulation.</text>
<text text-anchor="middle" x="104" y="-503.8" font-family="Helvetica,sans-Serif" font-size="9.00">IObject&lt; T &gt;</text>
<polyline fill="none" stroke="black" points="11.5,-497 196.5,-497 "/>
<text text-anchor="middle" x="104" y="-485.8" font-family="Helvetica,sans-Serif" font-size="9.00"> </text>
<polyline fill="none" stroke="black" points="11.5,-479 196.5,-479 "/>
<text text-anchor="start" x="19.5" y="-467.8" font-family="Helvetica,sans-Serif" font-size="9.00">+ literal()</text>
<text text-anchor="start" x="19.5" y="-457.8" font-family="Helvetica,sans-Serif" font-size="9.00">+ literal()</text>
<text text-anchor="start" x="19.5" y="-447.8" font-family="Helvetica,sans-Serif" font-size="9.00">+ name()</text>
<text text-anchor="start" x="19.5" y="-437.8" font-family="Helvetica,sans-Serif" font-size="9.00">+ position()</text>
</a>
</g>
</g>
<!-- Node1&#45;&gt;Node0 -->
<g id="edge1" class="edge"><title>Node1&#45;&gt;Node0</title>
<path fill="none" stroke="midnightblue" d="M104,-420.674C104,-410.515 104,-400.268 104,-391.162"/>
<polygon fill="none" stroke="midnightblue" points="100.5,-420.758 104,-430.759 107.5,-420.759 100.5,-420.758"/>
</g>
<!-- Node2 -->
<g id="node3" class="node"><title>Node2</title>
<g id="a_node3"><a xlink:href="../../d5/dea/interfaceorg_1_1lightjason_1_1trafficsimulation_1_1simulation_1_1IObject.htm" target="_top" xlink:title="object interface ">
<polygon fill="none" stroke="black" points="11.5,-573 11.5,-667 196.5,-667 196.5,-573 11.5,-573"/>
<text text-anchor="start" x="19.5" y="-655.8" font-family="Helvetica,sans-Serif" font-size="9.00">org.lightjason.trafficsimulation.simulation.</text>
<text text-anchor="middle" x="104" y="-645.8" font-family="Helvetica,sans-Serif" font-size="9.00">IObject&lt; T extends IAgent&lt;?&gt;</text>
<polyline fill="none" stroke="black" points="11.5,-639 196.5,-639 "/>
<text text-anchor="middle" x="104" y="-627.8" font-family="Helvetica,sans-Serif" font-size="9.00"> </text>
<polyline fill="none" stroke="black" points="11.5,-621 196.5,-621 "/>
<text text-anchor="start" x="19.5" y="-609.8" font-family="Helvetica,sans-Serif" font-size="9.00">+ literal()</text>
<text text-anchor="start" x="19.5" y="-599.8" font-family="Helvetica,sans-Serif" font-size="9.00">+ literal()</text>
<text text-anchor="start" x="19.5" y="-589.8" font-family="Helvetica,sans-Serif" font-size="9.00">+ name()</text>
<text text-anchor="start" x="19.5" y="-579.8" font-family="Helvetica,sans-Serif" font-size="9.00">+ position()</text>
</a>
</g>
</g>
<!-- Node2&#45;&gt;Node1 -->
<g id="edge2" class="edge"><title>Node2&#45;&gt;Node1</title>
<path fill="none" stroke="orange" d="M104,-562.525C104,-550.119 104,-537.125 104,-525.181"/>
<polygon fill="orange" stroke="orange" points="100.5,-562.771 104,-572.771 107.5,-562.771 100.5,-562.771"/>
<text text-anchor="middle" x="115.5" y="-546.8" font-family="Helvetica,sans-Serif" font-size="9.00"> &lt; T &gt;</text>
</g>
<!-- Node4 -->
<g id="node5" class="node"><title>Node4</title>
<g id="a_node5"><a xlink:href="../../da/d5a/classorg_1_1lightjason_1_1trafficsimulation_1_1simulation_1_1virtual_01_1_1CArea.htm" target="_top" xlink:title="area class ">
<polygon fill="none" stroke="black" points="-0.5,-1 -0.5,-175 208.5,-175 208.5,-1 -0.5,-1"/>
<text text-anchor="start" x="7.5" y="-163.8" font-family="Helvetica,sans-Serif" font-size="9.00">org.lightjason.trafficsimulation.simulation.virtual</text>
<text text-anchor="middle" x="104" y="-153.8" font-family="Helvetica,sans-Serif" font-size="9.00"> .CArea</text>
<polyline fill="none" stroke="black" points="-0.5,-147 208.5,-147 "/>
<text text-anchor="start" x="7.5" y="-135.8" font-family="Helvetica,sans-Serif" font-size="9.00">&#45; m_directions</text>
<text text-anchor="start" x="7.5" y="-125.8" font-family="Helvetica,sans-Serif" font-size="9.00">&#45; m_passable</text>
<text text-anchor="start" x="7.5" y="-115.8" font-family="Helvetica,sans-Serif" font-size="9.00">&#45; m_physical</text>
<text text-anchor="start" x="7.5" y="-105.8" font-family="Helvetica,sans-Serif" font-size="9.00">&#45; m_type</text>
<text text-anchor="start" x="7.5" y="-95.8" font-family="Helvetica,sans-Serif" font-size="9.00">&#45; COUNTER</text>
<text text-anchor="start" x="7.5" y="-85.8" font-family="Helvetica,sans-Serif" font-size="9.00">&#45; FUNCTOR</text>
<text text-anchor="start" x="7.5" y="-75.8" font-family="Helvetica,sans-Serif" font-size="9.00">&#45; serialVersionUID</text>
<polyline fill="none" stroke="black" points="-0.5,-69 208.5,-69 "/>
<text text-anchor="start" x="7.5" y="-57.8" font-family="Helvetica,sans-Serif" font-size="9.00">+ addPhysical()</text>
<text text-anchor="start" x="7.5" y="-47.8" font-family="Helvetica,sans-Serif" font-size="9.00">+ call()</text>
<text text-anchor="start" x="7.5" y="-37.8" font-family="Helvetica,sans-Serif" font-size="9.00">+ isInside()</text>
<text text-anchor="start" x="7.5" y="-27.8" font-family="Helvetica,sans-Serif" font-size="9.00">+ type()</text>
<text text-anchor="start" x="7.5" y="-17.8" font-family="Helvetica,sans-Serif" font-size="9.00"># individualliteral()</text>
<text text-anchor="start" x="7.5" y="-7.8" font-family="Helvetica,sans-Serif" font-size="9.00">&#45; CArea()</text>
</a>
</g>
</g>
<!-- Node3&#45;&gt;Node4 -->
<g id="edge4" class="edge"><title>Node3&#45;&gt;Node4</title>
<path fill="none" stroke="midnightblue" d="M104,-204.912C104,-195.614 104,-185.402 104,-175.013"/>
<polygon fill="none" stroke="midnightblue" points="100.5,-204.982 104,-214.982 107.5,-204.982 100.5,-204.982"/>
</g>
</g>
</svg>
