<?xml version="1.0" encoding="UTF-8" standalone="no"?>
<!DOCTYPE svg PUBLIC "-//W3C//DTD SVG 1.1//EN"
 "http://www.w3.org/Graphics/SVG/1.1/DTD/svg11.dtd">
<!-- Generated by graphviz version 2.36.0 (20140111.2315)
 -->
<!-- Title: org.lightjason.trafficsimulation.simulation.algorithm.routing.CJPSPlus.CJumpPoint.gscore Pages: 1 -->
<svg width="1432pt" height="36pt"
 viewBox="0.00 0.00 1432.00 36.00" xmlns="http://www.w3.org/2000/svg" xmlns:xlink="http://www.w3.org/1999/xlink">
<g id="graph0" class="graph" transform="scale(1 1) rotate(0) translate(4 32)">
<title>org.lightjason.trafficsimulation.simulation.algorithm.routing.CJPSPlus.CJumpPoint.gscore</title>
<!-- Node17 -->
<g id="node1" class="node"><title>Node17</title>
<polygon fill="#bfbfbf" stroke="black" points="0,-0 0,-28 256,-28 256,-0 0,-0"/>
<text text-anchor="start" x="8" y="-16.8" font-family="Helvetica,sans-Serif" font-size="9.00">org.lightjason.trafficsimulation.simulation.algorithm.routing.</text>
<text text-anchor="middle" x="128" y="-6.8" font-family="Helvetica,sans-Serif" font-size="9.00">CJPSPlus.CJumpPoint.gscore</text>
</g>
<!-- Node18 -->
<g id="node2" class="node"><title>Node18</title>
<g id="a_node2"><a xlink:href="../../dd/d58/classorg_1_1lightjason_1_1trafficsimulation_1_1simulation_1_1algorithm_1_1routing_1_1CJPSPlus.htm#ae68dd356032330275e2e621609c0cfe9" target="_top" xlink:title="Calculates the given node&#39;s score using the Manhattan distance formula. ">
<polygon fill="none" stroke="black" points="292,-0 292,-28 548,-28 548,-0 292,-0"/>
<text text-anchor="start" x="300" y="-16.8" font-family="Helvetica,sans-Serif" font-size="9.00">org.lightjason.trafficsimulation.simulation.algorithm.routing.</text>
<text text-anchor="middle" x="420" y="-6.8" font-family="Helvetica,sans-Serif" font-size="9.00">CJPSPlus.calculateScore</text>
</a>
</g>
</g>
<!-- Node17&#45;&gt;Node18 -->
<g id="edge1" class="edge"><title>Node17&#45;&gt;Node18</title>
<path fill="none" stroke="midnightblue" d="M266.245,-14C274.824,-14 283.439,-14 291.97,-14"/>
<polygon fill="midnightblue" stroke="midnightblue" points="266.198,-10.5001 256.198,-14 266.198,-17.5001 266.198,-10.5001"/>
</g>
<!-- Node19 -->
<g id="node3" class="node"><title>Node19</title>
<g id="a_node3"><a xlink:href="../../dd/d58/classorg_1_1lightjason_1_1trafficsimulation_1_1simulation_1_1algorithm_1_1routing_1_1CJPSPlus.htm#a1c2c171c870399017d9c774bdb59950d" target="_top" xlink:title="Validated successors are added to open list. ">
<polygon fill="none" stroke="black" points="584,-0 584,-28 840,-28 840,-0 584,-0"/>
<text text-anchor="start" x="592" y="-16.8" font-family="Helvetica,sans-Serif" font-size="9.00">org.lightjason.trafficsimulation.simulation.algorithm.routing.</text>
<text text-anchor="middle" x="712" y="-6.8" font-family="Helvetica,sans-Serif" font-size="9.00">CJPSPlus.addsuccessors</text>
</a>
</g>
</g>
<!-- Node18&#45;&gt;Node19 -->
<g id="edge2" class="edge"><title>Node18&#45;&gt;Node19</title>
<path fill="none" stroke="midnightblue" d="M558.245,-14C566.824,-14 575.439,-14 583.97,-14"/>
<polygon fill="midnightblue" stroke="midnightblue" points="558.198,-10.5001 548.198,-14 558.198,-17.5001 558.198,-10.5001"/>
</g>
<!-- Node20 -->
<g id="node4" class="node"><title>Node20</title>
<g id="a_node4"><a xlink:href="../../dd/d58/classorg_1_1lightjason_1_1trafficsimulation_1_1simulation_1_1algorithm_1_1routing_1_1CJPSPlus.htm#a3f4b1b068738b9a1607eadab094a5971" target="_top" xlink:title="individual jump point successors are identified ">
<polygon fill="none" stroke="black" points="876,-0 876,-28 1132,-28 1132,-0 876,-0"/>
<text text-anchor="start" x="884" y="-16.8" font-family="Helvetica,sans-Serif" font-size="9.00">org.lightjason.trafficsimulation.simulation.algorithm.routing.</text>
<text text-anchor="middle" x="1004" y="-6.8" font-family="Helvetica,sans-Serif" font-size="9.00">CJPSPlus.successors</text>
</a>
</g>
</g>
<!-- Node19&#45;&gt;Node20 -->
<g id="edge3" class="edge"><title>Node19&#45;&gt;Node20</title>
<path fill="none" stroke="midnightblue" d="M850.245,-14C858.824,-14 867.439,-14 875.97,-14"/>
<polygon fill="midnightblue" stroke="midnightblue" points="850.198,-10.5001 840.198,-14 850.198,-17.5001 850.198,-10.5001"/>
</g>
<!-- Node21 -->
<g id="node5" class="node"><title>Node21</title>
<g id="a_node5"><a xlink:href="../../dd/d58/classorg_1_1lightjason_1_1trafficsimulation_1_1simulation_1_1algorithm_1_1routing_1_1CJPSPlus.htm#aecb3e49cfae01851a9e000465c638567" target="_top" xlink:title="routing algorithm ">
<polygon fill="none" stroke="black" points="1168,-0 1168,-28 1424,-28 1424,-0 1168,-0"/>
<text text-anchor="start" x="1176" y="-16.8" font-family="Helvetica,sans-Serif" font-size="9.00">org.lightjason.trafficsimulation.simulation.algorithm.routing.</text>
<text text-anchor="middle" x="1296" y="-6.8" font-family="Helvetica,sans-Serif" font-size="9.00">CJPSPlus.route</text>
</a>
</g>
</g>
<!-- Node20&#45;&gt;Node21 -->
<g id="edge4" class="edge"><title>Node20&#45;&gt;Node21</title>
<path fill="none" stroke="midnightblue" d="M1142.25,-14C1150.82,-14 1159.44,-14 1167.97,-14"/>
<polygon fill="midnightblue" stroke="midnightblue" points="1142.2,-10.5001 1132.2,-14 1142.2,-17.5001 1142.2,-10.5001"/>
</g>
</g>
</svg>
