<?xml version="1.0" encoding="UTF-8" standalone="no"?>
<!DOCTYPE svg PUBLIC "-//W3C//DTD SVG 1.1//EN"
 "http://www.w3.org/Graphics/SVG/1.1/DTD/svg11.dtd">
<!-- Generated by graphviz version 2.36.0 (20140111.2315)
 -->
<!-- Title: org.lightjason.trafficsimulation.simulation.algorithm.routing.CJPSPlus.CJumpPoint.parent Pages: 1 -->
<svg width="1432pt" height="58pt"
 viewBox="0.00 0.00 1432.00 58.00" xmlns="http://www.w3.org/2000/svg" xmlns:xlink="http://www.w3.org/1999/xlink">
<g id="graph0" class="graph" transform="scale(1 1) rotate(0) translate(4 54)">
<title>org.lightjason.trafficsimulation.simulation.algorithm.routing.CJPSPlus.CJumpPoint.parent</title>
<!-- Node31 -->
<g id="node1" class="node"><title>Node31</title>
<polygon fill="#bfbfbf" stroke="black" points="0,-0 0,-28 256,-28 256,-0 0,-0"/>
<text text-anchor="start" x="8" y="-16.8" font-family="Helvetica,sans-Serif" font-size="9.00">org.lightjason.trafficsimulation.simulation.algorithm.routing.</text>
<text text-anchor="middle" x="128" y="-6.8" font-family="Helvetica,sans-Serif" font-size="9.00">CJPSPlus.CJumpPoint.parent</text>
</g>
<!-- Node32 -->
<g id="node2" class="node"><title>Node32</title>
<g id="a_node2"><a xlink:href="../../dd/d58/classorg_1_1lightjason_1_1trafficsimulation_1_1simulation_1_1algorithm_1_1routing_1_1CJPSPlus.htm#ae68dd356032330275e2e621609c0cfe9" target="_top" xlink:title="Calculates the given node&#39;s score using the Manhattan distance formula. ">
<polygon fill="none" stroke="black" points="292,-22 292,-50 548,-50 548,-22 292,-22"/>
<text text-anchor="start" x="300" y="-38.8" font-family="Helvetica,sans-Serif" font-size="9.00">org.lightjason.trafficsimulation.simulation.algorithm.routing.</text>
<text text-anchor="middle" x="420" y="-28.8" font-family="Helvetica,sans-Serif" font-size="9.00">CJPSPlus.calculateScore</text>
</a>
</g>
</g>
<!-- Node31&#45;&gt;Node32 -->
<g id="edge1" class="edge"><title>Node31&#45;&gt;Node32</title>
<path fill="none" stroke="midnightblue" d="M266.245,-24.4117C274.824,-25.0625 283.439,-25.7161 291.97,-26.3632"/>
<polygon fill="midnightblue" stroke="midnightblue" points="266.434,-20.9161 256.198,-23.6495 265.905,-27.896 266.434,-20.9161"/>
</g>
<!-- Node35 -->
<g id="node5" class="node"><title>Node35</title>
<g id="a_node5"><a xlink:href="../../dd/d58/classorg_1_1lightjason_1_1trafficsimulation_1_1simulation_1_1algorithm_1_1routing_1_1CJPSPlus.htm#aecb3e49cfae01851a9e000465c638567" target="_top" xlink:title="routing algorithm ">
<polygon fill="none" stroke="black" points="1168,-0 1168,-28 1424,-28 1424,-0 1168,-0"/>
<text text-anchor="start" x="1176" y="-16.8" font-family="Helvetica,sans-Serif" font-size="9.00">org.lightjason.trafficsimulation.simulation.algorithm.routing.</text>
<text text-anchor="middle" x="1296" y="-6.8" font-family="Helvetica,sans-Serif" font-size="9.00">CJPSPlus.route</text>
</a>
</g>
</g>
<!-- Node31&#45;&gt;Node35 -->
<g id="edge5" class="edge"><title>Node31&#45;&gt;Node35</title>
<path fill="none" stroke="midnightblue" d="M266.427,-12.1936C275.081,-12.117 283.66,-12.0512 292,-12 665.326,-9.70974 758.674,-9.70974 1132,-12 1143.6,-12.0712 1155.67,-12.1709 1167.76,-12.2881"/>
<polygon fill="midnightblue" stroke="midnightblue" points="266.211,-8.69534 256.244,-12.2881 266.276,-15.695 266.211,-8.69534"/>
</g>
<!-- Node33 -->
<g id="node3" class="node"><title>Node33</title>
<g id="a_node3"><a xlink:href="../../dd/d58/classorg_1_1lightjason_1_1trafficsimulation_1_1simulation_1_1algorithm_1_1routing_1_1CJPSPlus.htm#a1c2c171c870399017d9c774bdb59950d" target="_top" xlink:title="Validated successors are added to open list. ">
<polygon fill="none" stroke="black" points="584,-22 584,-50 840,-50 840,-22 584,-22"/>
<text text-anchor="start" x="592" y="-38.8" font-family="Helvetica,sans-Serif" font-size="9.00">org.lightjason.trafficsimulation.simulation.algorithm.routing.</text>
<text text-anchor="middle" x="712" y="-28.8" font-family="Helvetica,sans-Serif" font-size="9.00">CJPSPlus.addsuccessors</text>
</a>
</g>
</g>
<!-- Node32&#45;&gt;Node33 -->
<g id="edge2" class="edge"><title>Node32&#45;&gt;Node33</title>
<path fill="none" stroke="midnightblue" d="M558.245,-36C566.824,-36 575.439,-36 583.97,-36"/>
<polygon fill="midnightblue" stroke="midnightblue" points="558.198,-32.5001 548.198,-36 558.198,-39.5001 558.198,-32.5001"/>
</g>
<!-- Node34 -->
<g id="node4" class="node"><title>Node34</title>
<g id="a_node4"><a xlink:href="../../dd/d58/classorg_1_1lightjason_1_1trafficsimulation_1_1simulation_1_1algorithm_1_1routing_1_1CJPSPlus.htm#a3f4b1b068738b9a1607eadab094a5971" target="_top" xlink:title="individual jump point successors are identified ">
<polygon fill="none" stroke="black" points="876,-22 876,-50 1132,-50 1132,-22 876,-22"/>
<text text-anchor="start" x="884" y="-38.8" font-family="Helvetica,sans-Serif" font-size="9.00">org.lightjason.trafficsimulation.simulation.algorithm.routing.</text>
<text text-anchor="middle" x="1004" y="-28.8" font-family="Helvetica,sans-Serif" font-size="9.00">CJPSPlus.successors</text>
</a>
</g>
</g>
<!-- Node33&#45;&gt;Node34 -->
<g id="edge3" class="edge"><title>Node33&#45;&gt;Node34</title>
<path fill="none" stroke="midnightblue" d="M850.245,-36C858.824,-36 867.439,-36 875.97,-36"/>
<polygon fill="midnightblue" stroke="midnightblue" points="850.198,-32.5001 840.198,-36 850.198,-39.5001 850.198,-32.5001"/>
</g>
<!-- Node34&#45;&gt;Node35 -->
<g id="edge4" class="edge"><title>Node34&#45;&gt;Node35</title>
<path fill="none" stroke="midnightblue" d="M1142.25,-25.5883C1150.82,-24.9375 1159.44,-24.2839 1167.97,-23.6368"/>
<polygon fill="midnightblue" stroke="midnightblue" points="1141.9,-22.104 1132.2,-26.3505 1142.43,-29.0839 1141.9,-22.104"/>
</g>
</g>
</svg>
