<?xml version="1.0" encoding="UTF-8" standalone="no"?>
<!DOCTYPE svg PUBLIC "-//W3C//DTD SVG 1.1//EN"
 "http://www.w3.org/Graphics/SVG/1.1/DTD/svg11.dtd">
<!-- Generated by graphviz version 2.36.0 (20140111.2315)
 -->
<!-- Title: org.lightjason.trafficsimulation.simulation.algorithm.routing.CJPSPlus.CJumpPoint.coordinate Pages: 1 -->
<svg width="1432pt" height="113pt"
 viewBox="0.00 0.00 1432.00 112.65" xmlns="http://www.w3.org/2000/svg" xmlns:xlink="http://www.w3.org/1999/xlink">
<g id="graph0" class="graph" transform="scale(1 1) rotate(0) translate(4 108.651)">
<title>org.lightjason.trafficsimulation.simulation.algorithm.routing.CJPSPlus.CJumpPoint.coordinate</title>
<!-- Node5 -->
<g id="node1" class="node"><title>Node5</title>
<polygon fill="#bfbfbf" stroke="black" points="0,-38 0,-66 256,-66 256,-38 0,-38"/>
<text text-anchor="start" x="8" y="-54.8" font-family="Helvetica,sans-Serif" font-size="9.00">org.lightjason.trafficsimulation.simulation.algorithm.routing.</text>
<text text-anchor="middle" x="128" y="-44.8" font-family="Helvetica,sans-Serif" font-size="9.00">CJPSPlus.CJumpPoint.coordinate</text>
</g>
<!-- Node6 -->
<g id="node2" class="node"><title>Node6</title>
<g id="a_node2"><a xlink:href="../../dd/d58/classorg_1_1lightjason_1_1trafficsimulation_1_1simulation_1_1algorithm_1_1routing_1_1CJPSPlus.htm#a1c2c171c870399017d9c774bdb59950d" target="_top" xlink:title="Validated successors are added to open list. ">
<polygon fill="none" stroke="black" points="584,-60 584,-88 840,-88 840,-60 584,-60"/>
<text text-anchor="start" x="592" y="-76.8" font-family="Helvetica,sans-Serif" font-size="9.00">org.lightjason.trafficsimulation.simulation.algorithm.routing.</text>
<text text-anchor="middle" x="712" y="-66.8" font-family="Helvetica,sans-Serif" font-size="9.00">CJPSPlus.addsuccessors</text>
</a>
</g>
</g>
<!-- Node5&#45;&gt;Node6 -->
<g id="edge1" class="edge"><title>Node5&#45;&gt;Node6</title>
<path fill="none" stroke="midnightblue" d="M177.8,-69.1868C209.815,-79.5316 252.849,-91.695 292,-97 406.967,-112.578 541.04,-99.8747 625.959,-88.0474"/>
<polygon fill="midnightblue" stroke="midnightblue" points="178.828,-65.8403 168.235,-66.0443 176.643,-72.4906 178.828,-65.8403"/>
</g>
<!-- Node7 -->
<g id="node3" class="node"><title>Node7</title>
<g id="a_node3"><a xlink:href="../../dd/d58/classorg_1_1lightjason_1_1trafficsimulation_1_1simulation_1_1algorithm_1_1routing_1_1CJPSPlus.htm#a3f4b1b068738b9a1607eadab094a5971" target="_top" xlink:title="individual jump point successors are identified ">
<polygon fill="none" stroke="black" points="876,-22 876,-50 1132,-50 1132,-22 876,-22"/>
<text text-anchor="start" x="884" y="-38.8" font-family="Helvetica,sans-Serif" font-size="9.00">org.lightjason.trafficsimulation.simulation.algorithm.routing.</text>
<text text-anchor="middle" x="1004" y="-28.8" font-family="Helvetica,sans-Serif" font-size="9.00">CJPSPlus.successors</text>
</a>
</g>
</g>
<!-- Node5&#45;&gt;Node7 -->
<g id="edge7" class="edge"><title>Node5&#45;&gt;Node7</title>
<path fill="none" stroke="midnightblue" d="M266.184,-49.4886C433.281,-46.4296 713.298,-41.3035 875.76,-38.3293"/>
<polygon fill="midnightblue" stroke="midnightblue" points="266.021,-45.9909 256.087,-49.6735 266.15,-52.9897 266.021,-45.9909"/>
</g>
<!-- Node8 -->
<g id="node4" class="node"><title>Node8</title>
<g id="a_node4"><a xlink:href="../../dd/d58/classorg_1_1lightjason_1_1trafficsimulation_1_1simulation_1_1algorithm_1_1routing_1_1CJPSPlus.htm#aecb3e49cfae01851a9e000465c638567" target="_top" xlink:title="routing algorithm ">
<polygon fill="none" stroke="black" points="1168,-0 1168,-28 1424,-28 1424,-0 1168,-0"/>
<text text-anchor="start" x="1176" y="-16.8" font-family="Helvetica,sans-Serif" font-size="9.00">org.lightjason.trafficsimulation.simulation.algorithm.routing.</text>
<text text-anchor="middle" x="1296" y="-6.8" font-family="Helvetica,sans-Serif" font-size="9.00">CJPSPlus.route</text>
</a>
</g>
</g>
<!-- Node5&#45;&gt;Node8 -->
<g id="edge6" class="edge"><title>Node5&#45;&gt;Node8</title>
<path fill="none" stroke="midnightblue" d="M266.417,-42.5517C275.073,-42.0106 283.656,-41.4887 292,-41 551.431,-25.8061 616.205,-18.4464 876,-12 989.743,-9.17765 1018.22,-11.302 1132,-12 1143.6,-12.0712 1155.67,-12.1709 1167.76,-12.2881"/>
<polygon fill="midnightblue" stroke="midnightblue" points="265.991,-39.0715 256.232,-43.1947 266.432,-46.0576 265.991,-39.0715"/>
</g>
<!-- Node9 -->
<g id="node5" class="node"><title>Node9</title>
<g id="a_node5"><a xlink:href="../../dd/d58/classorg_1_1lightjason_1_1trafficsimulation_1_1simulation_1_1algorithm_1_1routing_1_1CJPSPlus.htm#ae68dd356032330275e2e621609c0cfe9" target="_top" xlink:title="Calculates the given node&#39;s score using the Manhattan distance formula. ">
<polygon fill="none" stroke="black" points="292,-60 292,-88 548,-88 548,-60 292,-60"/>
<text text-anchor="start" x="300" y="-76.8" font-family="Helvetica,sans-Serif" font-size="9.00">org.lightjason.trafficsimulation.simulation.algorithm.routing.</text>
<text text-anchor="middle" x="420" y="-66.8" font-family="Helvetica,sans-Serif" font-size="9.00">CJPSPlus.calculateScore</text>
</a>
</g>
</g>
<!-- Node5&#45;&gt;Node9 -->
<g id="edge4" class="edge"><title>Node5&#45;&gt;Node9</title>
<path fill="none" stroke="midnightblue" d="M266.245,-62.4117C274.824,-63.0625 283.439,-63.7161 291.97,-64.3632"/>
<polygon fill="midnightblue" stroke="midnightblue" points="266.434,-58.9161 256.198,-61.6495 265.905,-65.896 266.434,-58.9161"/>
</g>
<!-- Node6&#45;&gt;Node7 -->
<g id="edge2" class="edge"><title>Node6&#45;&gt;Node7</title>
<path fill="none" stroke="midnightblue" d="M830.367,-58.6209C851.999,-55.7864 874.482,-52.8402 895.795,-50.0475"/>
<polygon fill="midnightblue" stroke="midnightblue" points="829.622,-55.1885 820.161,-59.9582 830.531,-62.1292 829.622,-55.1885"/>
</g>
<!-- Node7&#45;&gt;Node8 -->
<g id="edge3" class="edge"><title>Node7&#45;&gt;Node8</title>
<path fill="none" stroke="midnightblue" d="M1142.25,-25.5883C1150.82,-24.9375 1159.44,-24.2839 1167.97,-23.6368"/>
<polygon fill="midnightblue" stroke="midnightblue" points="1141.9,-22.104 1132.2,-26.3505 1142.43,-29.0839 1141.9,-22.104"/>
</g>
<!-- Node9&#45;&gt;Node6 -->
<g id="edge5" class="edge"><title>Node9&#45;&gt;Node6</title>
<path fill="none" stroke="midnightblue" d="M558.245,-74C566.824,-74 575.439,-74 583.97,-74"/>
<polygon fill="midnightblue" stroke="midnightblue" points="558.198,-70.5001 548.198,-74 558.198,-77.5001 558.198,-70.5001"/>
</g>
</g>
</svg>
