<?xml version="1.0" encoding="UTF-8" standalone="no"?>
<!DOCTYPE svg PUBLIC "-//W3C//DTD SVG 1.1//EN"
 "http://www.w3.org/Graphics/SVG/1.1/DTD/svg11.dtd">
<!-- Generated by graphviz version 2.36.0 (20140111.2315)
 -->
<!-- Title: org.lightjason.trafficsimulation.CConfiguration.orDefaultPath Pages: 1 -->
<svg width="500pt" height="83pt"
 viewBox="0.00 0.00 500.00 83.00" xmlns="http://www.w3.org/2000/svg" xmlns:xlink="http://www.w3.org/1999/xlink">
<g id="graph0" class="graph" transform="scale(1 1) rotate(0) translate(4 79)">
<title>org.lightjason.trafficsimulation.CConfiguration.orDefaultPath</title>
<!-- Node32 -->
<g id="node1" class="node"><title>Node32</title>
<polygon fill="#bfbfbf" stroke="black" points="0,-23 0,-51 140,-51 140,-23 0,-23"/>
<text text-anchor="start" x="8" y="-39.8" font-family="Helvetica,sans-Serif" font-size="9.00">org.lightjason.trafficsimulation.</text>
<text text-anchor="middle" x="70" y="-29.8" font-family="Helvetica,sans-Serif" font-size="9.00">CConfiguration.orDefaultPath</text>
</g>
<!-- Node33 -->
<g id="node2" class="node"><title>Node33</title>
<g id="a_node2"><a xlink:href="../../df/df4/classorg_1_1lightjason_1_1trafficsimulation_1_1CConfiguration.htm#aca440795cab5c2fe246ffb7edc27d43d" target="_top" xlink:title="loads the configuration ">
<polygon fill="none" stroke="black" points="176,-23 176,-51 316,-51 316,-23 176,-23"/>
<text text-anchor="start" x="184" y="-39.8" font-family="Helvetica,sans-Serif" font-size="9.00">org.lightjason.trafficsimulation.</text>
<text text-anchor="middle" x="246" y="-29.8" font-family="Helvetica,sans-Serif" font-size="9.00">CConfiguration.loadfile</text>
</a>
</g>
</g>
<!-- Node32&#45;&gt;Node33 -->
<g id="edge1" class="edge"><title>Node32&#45;&gt;Node33</title>
<path fill="none" stroke="midnightblue" d="M150.035,-37C158.625,-37 167.319,-37 175.779,-37"/>
<polygon fill="midnightblue" stroke="midnightblue" points="150.019,-33.5001 140.019,-37 150.019,-40.5001 150.019,-33.5001"/>
</g>
<!-- Node34 -->
<g id="node3" class="node"><title>Node34</title>
<g id="a_node3"><a xlink:href="../../dd/d4d/classorg_1_1lightjason_1_1trafficsimulation_1_1IBaseTest.htm#a37ea7abc5d3b336ba50db37ff397b8ba" target="_top" xlink:title="load configuration from yaml file ">
<polygon fill="none" stroke="black" points="352,-47 352,-75 492,-75 492,-47 352,-47"/>
<text text-anchor="start" x="360" y="-63.8" font-family="Helvetica,sans-Serif" font-size="9.00">org.lightjason.trafficsimulation.</text>
<text text-anchor="middle" x="422" y="-53.8" font-family="Helvetica,sans-Serif" font-size="9.00">IBaseTest.loadconfiguration</text>
</a>
</g>
</g>
<!-- Node33&#45;&gt;Node34 -->
<g id="edge2" class="edge"><title>Node33&#45;&gt;Node34</title>
<path fill="none" stroke="midnightblue" d="M326.035,-47.9014C334.625,-49.0862 343.319,-50.2854 351.779,-51.4523"/>
<polygon fill="midnightblue" stroke="midnightblue" points="326.404,-44.4192 316.019,-46.5199 325.447,-51.3535 326.404,-44.4192"/>
</g>
<!-- Node35 -->
<g id="node4" class="node"><title>Node35</title>
<g id="a_node4"><a xlink:href="../../dc/db0/classorg_1_1lightjason_1_1trafficsimulation_1_1CMain.htm#aaf6bdcdd91dd49017270a959901d8ec3" target="_top" xlink:title="main method ">
<polygon fill="none" stroke="black" points="352,-0 352,-28 492,-28 492,-0 352,-0"/>
<text text-anchor="start" x="360" y="-16.8" font-family="Helvetica,sans-Serif" font-size="9.00">org.lightjason.trafficsimulation.</text>
<text text-anchor="middle" x="422" y="-6.8" font-family="Helvetica,sans-Serif" font-size="9.00">CMain.main</text>
</a>
</g>
</g>
<!-- Node33&#45;&gt;Node35 -->
<g id="edge3" class="edge"><title>Node33&#45;&gt;Node35</title>
<path fill="none" stroke="midnightblue" d="M326.035,-26.5529C334.625,-25.4174 343.319,-24.2681 351.779,-23.1498"/>
<polygon fill="midnightblue" stroke="midnightblue" points="325.474,-23.0964 316.019,-27.8768 326.392,-30.036 325.474,-23.0964"/>
</g>
</g>
</svg>
