<?xml version="1.0" encoding="UTF-8" standalone="no"?>
<!DOCTYPE svg PUBLIC "-//W3C//DTD SVG 1.1//EN"
 "http://www.w3.org/Graphics/SVG/1.1/DTD/svg11.dtd">
<!-- Generated by graphviz version 2.36.0 (20140111.2315)
 -->
<!-- Title: org.lightjason.trafficsimulation.CConfiguration.equals Pages: 1 -->
<svg width="328pt" height="83pt"
 viewBox="0.00 0.00 328.00 83.00" xmlns="http://www.w3.org/2000/svg" xmlns:xlink="http://www.w3.org/1999/xlink">
<g id="graph0" class="graph" transform="scale(1 1) rotate(0) translate(4 79)">
<title>org.lightjason.trafficsimulation.CConfiguration.equals</title>
<!-- Node6 -->
<g id="node1" class="node"><title>Node6</title>
<polygon fill="#bfbfbf" stroke="black" points="0,-23 0,-51 140,-51 140,-23 0,-23"/>
<text text-anchor="start" x="8" y="-39.8" font-family="Helvetica,sans-Serif" font-size="9.00">org.lightjason.trafficsimulation.</text>
<text text-anchor="middle" x="70" y="-29.8" font-family="Helvetica,sans-Serif" font-size="9.00">CConfiguration.equals</text>
</g>
<!-- Node7 -->
<g id="node2" class="node"><title>Node7</title>
<g id="a_node2"><a xlink:href="../../df/df4/classorg_1_1lightjason_1_1trafficsimulation_1_1CConfiguration.htm#ad555ad7588eb59026a5f82589e932f52" target="_top" xlink:title="ctor ">
<polygon fill="none" stroke="black" points="176.5,-47 176.5,-75 319.5,-75 319.5,-47 176.5,-47"/>
<text text-anchor="start" x="184.5" y="-63.8" font-family="Helvetica,sans-Serif" font-size="9.00">org.lightjason.trafficsimulation.</text>
<text text-anchor="middle" x="248" y="-53.8" font-family="Helvetica,sans-Serif" font-size="9.00">CConfiguration.CConfiguration</text>
</a>
</g>
</g>
<!-- Node6&#45;&gt;Node7 -->
<g id="edge1" class="edge"><title>Node6&#45;&gt;Node7</title>
<path fill="none" stroke="midnightblue" d="M140.055,-46.4166C148.731,-47.5997 157.665,-48.818 166.498,-50.0225"/>
<polygon fill="midnightblue" stroke="midnightblue" points="166.027,-53.4906 176.408,-51.3739 166.973,-46.5547 166.027,-53.4906"/>
</g>
<!-- Node8 -->
<g id="node3" class="node"><title>Node8</title>
<g id="a_node3"><a xlink:href="../../df/df4/classorg_1_1lightjason_1_1trafficsimulation_1_1CConfiguration.htm#adf36a8cd83f48a5c316274897e6c99b7" target="_top" xlink:title="org.lightjason.trafficsimulation.\lCConfiguration.hashCode">
<polygon fill="none" stroke="black" points="178,-0 178,-28 318,-28 318,-0 178,-0"/>
<text text-anchor="start" x="186" y="-16.8" font-family="Helvetica,sans-Serif" font-size="9.00">org.lightjason.trafficsimulation.</text>
<text text-anchor="middle" x="248" y="-6.8" font-family="Helvetica,sans-Serif" font-size="9.00">CConfiguration.hashCode</text>
</a>
</g>
</g>
<!-- Node6&#45;&gt;Node8 -->
<g id="edge2" class="edge"><title>Node6&#45;&gt;Node8</title>
<path fill="none" stroke="midnightblue" d="M140.055,-27.9758C149.178,-26.7836 158.586,-25.554 167.862,-24.3419"/>
<polygon fill="midnightblue" stroke="midnightblue" points="168.393,-27.8023 177.856,-23.0359 167.486,-20.8613 168.393,-27.8023"/>
</g>
</g>
</svg>
