<?xml version="1.0" encoding="UTF-8" standalone="no"?>
<!DOCTYPE svg PUBLIC "-//W3C//DTD SVG 1.1//EN"
 "http://www.w3.org/Graphics/SVG/1.1/DTD/svg11.dtd">
<!-- Generated by graphviz version 2.36.0 (20140111.2315)
 -->
<!-- Title: org.lightjason.trafficsimulation.CConfiguration.recursivedescent Pages: 1 -->
<svg width="336pt" height="83pt"
 viewBox="0.00 0.00 336.00 83.00" xmlns="http://www.w3.org/2000/svg" xmlns:xlink="http://www.w3.org/1999/xlink">
<g id="graph0" class="graph" transform="scale(1 1) rotate(0) translate(4 79)">
<title>org.lightjason.trafficsimulation.CConfiguration.recursivedescent</title>
<!-- Node37 -->
<g id="node1" class="node"><title>Node37</title>
<polygon fill="#bfbfbf" stroke="black" points="0.5,-23 0.5,-51 151.5,-51 151.5,-23 0.5,-23"/>
<text text-anchor="start" x="8.5" y="-39.8" font-family="Helvetica,sans-Serif" font-size="9.00">org.lightjason.trafficsimulation.</text>
<text text-anchor="middle" x="76" y="-29.8" font-family="Helvetica,sans-Serif" font-size="9.00">CConfiguration.recursivedescent</text>
</g>
<!-- Node38 -->
<g id="node2" class="node"><title>Node38</title>
<g id="a_node2"><a xlink:href="../../df/df4/classorg_1_1lightjason_1_1trafficsimulation_1_1CConfiguration.htm#a80faa5da030befff3f4cf3ebd187e80f" target="_top" xlink:title="returns a configuration value ">
<polygon fill="none" stroke="black" points="188,-47 188,-75 328,-75 328,-47 188,-47"/>
<text text-anchor="start" x="196" y="-63.8" font-family="Helvetica,sans-Serif" font-size="9.00">org.lightjason.trafficsimulation.</text>
<text text-anchor="middle" x="258" y="-53.8" font-family="Helvetica,sans-Serif" font-size="9.00">CConfiguration.get</text>
</a>
</g>
</g>
<!-- Node37&#45;&gt;Node38 -->
<g id="edge1" class="edge"><title>Node37&#45;&gt;Node38</title>
<path fill="none" stroke="midnightblue" d="M161.701,-48.2935C170.424,-49.4565 179.213,-50.6284 187.739,-51.7652"/>
<polygon fill="midnightblue" stroke="midnightblue" points="161.887,-44.7874 151.512,-46.935 160.962,-51.726 161.887,-44.7874"/>
</g>
<!-- Node39 -->
<g id="node3" class="node"><title>Node39</title>
<g id="a_node3"><a xlink:href="../../df/df4/classorg_1_1lightjason_1_1trafficsimulation_1_1CConfiguration.htm#a11a8b27eb5ef5a6b0cc2acae06bf2540" target="_top" xlink:title="returns a configuration value or on not existing the default value ">
<polygon fill="none" stroke="black" points="188,-0 188,-28 328,-28 328,-0 188,-0"/>
<text text-anchor="start" x="196" y="-16.8" font-family="Helvetica,sans-Serif" font-size="9.00">org.lightjason.trafficsimulation.</text>
<text text-anchor="middle" x="258" y="-6.8" font-family="Helvetica,sans-Serif" font-size="9.00">CConfiguration.getOrDefault</text>
</a>
</g>
</g>
<!-- Node37&#45;&gt;Node39 -->
<g id="edge2" class="edge"><title>Node37&#45;&gt;Node39</title>
<path fill="none" stroke="midnightblue" d="M161.701,-26.1771C170.424,-25.0625 179.213,-23.9395 187.739,-22.85"/>
<polygon fill="midnightblue" stroke="midnightblue" points="160.988,-22.7397 151.512,-27.479 161.875,-29.6832 160.988,-22.7397"/>
</g>
</g>
</svg>
