<?xml version="1.0" encoding="UTF-8" standalone="no"?>
<!DOCTYPE svg PUBLIC "-//W3C//DTD SVG 1.1//EN"
 "http://www.w3.org/Graphics/SVG/1.1/DTD/svg11.dtd">
<!-- Generated by graphviz version 2.36.0 (20140111.2315)
 -->
<!-- Title: org.lightjason.trafficsimulation.CConfiguration.loadfile Pages: 1 -->
<svg width="324pt" height="83pt"
 viewBox="0.00 0.00 324.00 83.00" xmlns="http://www.w3.org/2000/svg" xmlns:xlink="http://www.w3.org/1999/xlink">
<g id="graph0" class="graph" transform="scale(1 1) rotate(0) translate(4 79)">
<title>org.lightjason.trafficsimulation.CConfiguration.loadfile</title>
<!-- Node21 -->
<g id="node1" class="node"><title>Node21</title>
<polygon fill="#bfbfbf" stroke="black" points="0,-23 0,-51 140,-51 140,-23 0,-23"/>
<text text-anchor="start" x="8" y="-39.8" font-family="Helvetica,sans-Serif" font-size="9.00">org.lightjason.trafficsimulation.</text>
<text text-anchor="middle" x="70" y="-29.8" font-family="Helvetica,sans-Serif" font-size="9.00">CConfiguration.loadfile</text>
</g>
<!-- Node22 -->
<g id="node2" class="node"><title>Node22</title>
<g id="a_node2"><a xlink:href="../../dd/d4d/classorg_1_1lightjason_1_1trafficsimulation_1_1IBaseTest.htm#a37ea7abc5d3b336ba50db37ff397b8ba" target="_top" xlink:title="load configuration from yaml file ">
<polygon fill="none" stroke="black" points="176,-47 176,-75 316,-75 316,-47 176,-47"/>
<text text-anchor="start" x="184" y="-63.8" font-family="Helvetica,sans-Serif" font-size="9.00">org.lightjason.trafficsimulation.</text>
<text text-anchor="middle" x="246" y="-53.8" font-family="Helvetica,sans-Serif" font-size="9.00">IBaseTest.loadconfiguration</text>
</a>
</g>
</g>
<!-- Node21&#45;&gt;Node22 -->
<g id="edge1" class="edge"><title>Node21&#45;&gt;Node22</title>
<path fill="none" stroke="midnightblue" d="M150.035,-47.9014C158.625,-49.0862 167.319,-50.2854 175.779,-51.4523"/>
<polygon fill="midnightblue" stroke="midnightblue" points="150.404,-44.4192 140.019,-46.5199 149.447,-51.3535 150.404,-44.4192"/>
</g>
<!-- Node23 -->
<g id="node3" class="node"><title>Node23</title>
<g id="a_node3"><a xlink:href="../../dc/db0/classorg_1_1lightjason_1_1trafficsimulation_1_1CMain.htm#aaf6bdcdd91dd49017270a959901d8ec3" target="_top" xlink:title="main method ">
<polygon fill="none" stroke="black" points="176,-0 176,-28 316,-28 316,-0 176,-0"/>
<text text-anchor="start" x="184" y="-16.8" font-family="Helvetica,sans-Serif" font-size="9.00">org.lightjason.trafficsimulation.</text>
<text text-anchor="middle" x="246" y="-6.8" font-family="Helvetica,sans-Serif" font-size="9.00">CMain.main</text>
</a>
</g>
</g>
<!-- Node21&#45;&gt;Node23 -->
<g id="edge2" class="edge"><title>Node21&#45;&gt;Node23</title>
<path fill="none" stroke="midnightblue" d="M150.035,-26.5529C158.625,-25.4174 167.319,-24.2681 175.779,-23.1498"/>
<polygon fill="midnightblue" stroke="midnightblue" points="149.474,-23.0964 140.019,-27.8768 150.392,-30.036 149.474,-23.0964"/>
</g>
</g>
</svg>
