<?xml version="1.0" encoding="UTF-8" standalone="no"?>
<!DOCTYPE svg PUBLIC "-//W3C//DTD SVG 1.1//EN"
 "http://www.w3.org/Graphics/SVG/1.1/DTD/svg11.dtd">
<!-- Generated by graphviz version 2.36.0 (20140111.2315)
 -->
<!-- Title: org.lightjason.trafficsimulation.IBaseViewTest.IBaseSprite&lt; T &gt; Pages: 1 -->
<svg width="154pt" height="226pt"
 viewBox="0.00 0.00 154.00 226.00" xmlns="http://www.w3.org/2000/svg" xmlns:xlink="http://www.w3.org/1999/xlink">
<g id="graph0" class="graph" transform="scale(1 1) rotate(0) translate(4 222)">
<title>org.lightjason.trafficsimulation.IBaseViewTest.IBaseSprite&lt; T &gt;</title>
<!-- Node2 -->
<g id="node1" class="node"><title>Node2</title>
<polygon fill="#bfbfbf" stroke="black" points="-0.5,-1 -0.5,-95 146.5,-95 146.5,-1 -0.5,-1"/>
<text text-anchor="start" x="7.5" y="-83.8" font-family="Helvetica,sans-Serif" font-size="9.00">org.lightjason.trafficsimulation.</text>
<text text-anchor="middle" x="73" y="-73.8" font-family="Helvetica,sans-Serif" font-size="9.00">IBaseViewTest.IBaseSprite&lt; T &gt;</text>
<polyline fill="none" stroke="black" points="-0.5,-67 146.5,-67 "/>
<text text-anchor="start" x="7.5" y="-55.8" font-family="Helvetica,sans-Serif" font-size="9.00"># m_sprite</text>
<text text-anchor="start" x="7.5" y="-45.8" font-family="Helvetica,sans-Serif" font-size="9.00"># m_wrapping</text>
<polyline fill="none" stroke="black" points="-0.5,-39 146.5,-39 "/>
<text text-anchor="start" x="7.5" y="-27.8" font-family="Helvetica,sans-Serif" font-size="9.00">+ raw()</text>
<text text-anchor="start" x="7.5" y="-17.8" font-family="Helvetica,sans-Serif" font-size="9.00">+ sprite()</text>
<text text-anchor="start" x="7.5" y="-7.8" font-family="Helvetica,sans-Serif" font-size="9.00"># IBaseSprite()</text>
</g>
<!-- Node3 -->
<g id="node2" class="node"><title>Node3</title>
<g id="a_node2"><a xlink:href="../../d0/d8e/interfaceorg_1_1lightjason_1_1trafficsimulation_1_1IBaseViewTest_1_1ISprite.htm" target="_top" xlink:title="interface for visualization ">
<polygon fill="none" stroke="black" points="1.5,-133 1.5,-217 144.5,-217 144.5,-133 1.5,-133"/>
<text text-anchor="start" x="9.5" y="-205.8" font-family="Helvetica,sans-Serif" font-size="9.00">org::lightjason::trafficsimulation</text>
<text text-anchor="middle" x="73" y="-195.8" font-family="Helvetica,sans-Serif" font-size="9.00">::IBaseViewTest::ISprite&lt; T &gt;</text>
<polyline fill="none" stroke="black" points="1.5,-189 144.5,-189 "/>
<text text-anchor="middle" x="73" y="-177.8" font-family="Helvetica,sans-Serif" font-size="9.00"> </text>
<polyline fill="none" stroke="black" points="1.5,-171 144.5,-171 "/>
<text text-anchor="start" x="9.5" y="-159.8" font-family="Helvetica,sans-Serif" font-size="9.00">+ raw()</text>
<text text-anchor="start" x="9.5" y="-149.8" font-family="Helvetica,sans-Serif" font-size="9.00">+ sprite()</text>
<text text-anchor="start" x="9.5" y="-139.8" font-family="Helvetica,sans-Serif" font-size="9.00">+ spriteinitialize()</text>
</a>
</g>
</g>
<!-- Node3&#45;&gt;Node2 -->
<g id="edge1" class="edge"><title>Node3&#45;&gt;Node2</title>
<path fill="none" stroke="midnightblue" d="M73,-122.702C73,-113.667 73,-104.31 73,-95.4177"/>
<polygon fill="none" stroke="midnightblue" points="69.5001,-122.724 73,-132.724 76.5001,-122.724 69.5001,-122.724"/>
</g>
</g>
</svg>
