<?xml version="1.0" encoding="UTF-8" standalone="no"?>
<!DOCTYPE svg PUBLIC "-//W3C//DTD SVG 1.1//EN"
 "http://www.w3.org/Graphics/SVG/1.1/DTD/svg11.dtd">
<!-- Generated by graphviz version 2.36.0 (20140111.2315)
 -->
<!-- Title: org.lightjason.trafficsimulation.IBaseTest.invoketest Pages: 1 -->
<svg width="452pt" height="318pt"
 viewBox="0.00 0.00 452.00 318.00" xmlns="http://www.w3.org/2000/svg" xmlns:xlink="http://www.w3.org/1999/xlink">
<g id="graph0" class="graph" transform="scale(1 1) rotate(0) translate(4 314)">
<title>org.lightjason.trafficsimulation.IBaseTest.invoketest</title>
<!-- Node63 -->
<g id="node1" class="node"><title>Node63</title>
<polygon fill="#bfbfbf" stroke="black" points="0,-141 0,-169 140,-169 140,-141 0,-141"/>
<text text-anchor="start" x="8" y="-157.8" font-family="Helvetica,sans-Serif" font-size="9.00">org.lightjason.trafficsimulation.</text>
<text text-anchor="middle" x="70" y="-147.8" font-family="Helvetica,sans-Serif" font-size="9.00">IBaseTest.invoketest</text>
</g>
<!-- Node64 -->
<g id="node2" class="node"><title>Node64</title>
<g id="a_node2"><a xlink:href="../../d2/de9/classorg_1_1lightjason_1_1trafficsimulation_1_1simulation_1_1virtual_01_1_1TestCArea.htm#aefd6ed04c3900df3a4ca1fa9e8c9ec94" target="_top" xlink:title="test call ">
<polygon fill="none" stroke="black" points="205.5,-282 205.5,-310 414.5,-310 414.5,-282 205.5,-282"/>
<text text-anchor="start" x="213.5" y="-298.8" font-family="Helvetica,sans-Serif" font-size="9.00">org.lightjason.trafficsimulation.simulation.virtual</text>
<text text-anchor="middle" x="310" y="-288.8" font-family="Helvetica,sans-Serif" font-size="9.00"> .TestCArea.main</text>
</a>
</g>
</g>
<!-- Node63&#45;&gt;Node64 -->
<g id="edge1" class="edge"><title>Node63&#45;&gt;Node64</title>
<path fill="none" stroke="midnightblue" d="M84.6524,-177.75C102.202,-204.85 135.316,-249.298 176,-272 185.118,-277.088 195.084,-281.132 205.329,-284.341"/>
<polygon fill="midnightblue" stroke="midnightblue" points="87.6053,-175.871 79.309,-169.282 81.6852,-179.607 87.6053,-175.871"/>
</g>
<!-- Node65 -->
<g id="node3" class="node"><title>Node65</title>
<g id="a_node3"><a xlink:href="../../d0/d32/classorg_1_1lightjason_1_1trafficsimulation_1_1simulation_1_1environment_1_1TestCEnvironment.htm#a97ec30c652ce2bb523b29a40a02b77e6" target="_top" xlink:title="test call ">
<polygon fill="none" stroke="black" points="191,-235 191,-263 429,-263 429,-235 191,-235"/>
<text text-anchor="start" x="199" y="-251.8" font-family="Helvetica,sans-Serif" font-size="9.00">org.lightjason.trafficsimulation.simulation.environment.</text>
<text text-anchor="middle" x="310" y="-241.8" font-family="Helvetica,sans-Serif" font-size="9.00">TestCEnvironment.main</text>
</a>
</g>
</g>
<!-- Node63&#45;&gt;Node65 -->
<g id="edge2" class="edge"><title>Node63&#45;&gt;Node65</title>
<path fill="none" stroke="midnightblue" d="M95.6514,-175.714C115.943,-191.663 146.131,-212.957 176,-225 185.684,-228.904 196.019,-232.177 206.488,-234.919"/>
<polygon fill="midnightblue" stroke="midnightblue" points="97.5813,-172.775 87.5907,-169.249 93.2014,-178.236 97.5813,-172.775"/>
</g>
<!-- Node66 -->
<g id="node4" class="node"><title>Node66</title>
<g id="a_node4"><a xlink:href="../../d5/d41/classorg_1_1lightjason_1_1trafficsimulation_1_1simulation_1_1stationary_1_1trafficlight_1_1TestCTrafficLightVehicle.htm#ae97407511116519bd4b6806c6827a9d5" target="_top" xlink:title="main method ">
<polygon fill="none" stroke="black" points="176,-188 176,-216 444,-216 444,-188 176,-188"/>
<text text-anchor="start" x="184" y="-204.8" font-family="Helvetica,sans-Serif" font-size="9.00">org.lightjason.trafficsimulation.simulation.stationary.trafficlight.</text>
<text text-anchor="middle" x="310" y="-194.8" font-family="Helvetica,sans-Serif" font-size="9.00">TestCTrafficLightVehicle.main</text>
</a>
</g>
</g>
<!-- Node63&#45;&gt;Node66 -->
<g id="edge3" class="edge"><title>Node63&#45;&gt;Node66</title>
<path fill="none" stroke="midnightblue" d="M143.119,-171.167C154.119,-173.526 165.352,-175.874 176,-178 192.912,-181.377 211.076,-184.793 228.379,-187.948"/>
<polygon fill="midnightblue" stroke="midnightblue" points="143.618,-167.694 133.104,-169.003 142.14,-174.536 143.618,-167.694"/>
</g>
<!-- Node67 -->
<g id="node5" class="node"><title>Node67</title>
<g id="a_node5"><a xlink:href="../../d4/dfb/classorg_1_1lightjason_1_1trafficsimulation_1_1simulation_1_1stationary_1_1trafficlight_1_1TestCTrafficLightPedestrian.htm#a49d9e9afb1e4c87f54144c7a236363a7" target="_top" xlink:title="main method ">
<polygon fill="none" stroke="black" points="176,-141 176,-169 444,-169 444,-141 176,-141"/>
<text text-anchor="start" x="184" y="-157.8" font-family="Helvetica,sans-Serif" font-size="9.00">org.lightjason.trafficsimulation.simulation.stationary.trafficlight.</text>
<text text-anchor="middle" x="310" y="-147.8" font-family="Helvetica,sans-Serif" font-size="9.00">TestCTrafficLightPedestrian.main</text>
</a>
</g>
</g>
<!-- Node63&#45;&gt;Node67 -->
<g id="edge4" class="edge"><title>Node63&#45;&gt;Node67</title>
<path fill="none" stroke="midnightblue" d="M150.361,-155C158.545,-155 167.011,-155 175.578,-155"/>
<polygon fill="midnightblue" stroke="midnightblue" points="150.159,-151.5 140.159,-155 150.159,-158.5 150.159,-151.5"/>
</g>
<!-- Node68 -->
<g id="node6" class="node"><title>Node68</title>
<g id="a_node6"><a xlink:href="../../de/dc3/classorg_1_1lightjason_1_1trafficsimulation_1_1simulation_1_1movable_1_1TestCPedestrian.htm#a1b8758222587d12393071ef8eda960e7" target="_top" xlink:title="test call ">
<polygon fill="none" stroke="black" points="199,-94 199,-122 421,-122 421,-94 199,-94"/>
<text text-anchor="start" x="207" y="-110.8" font-family="Helvetica,sans-Serif" font-size="9.00">org.lightjason.trafficsimulation.simulation.movable.</text>
<text text-anchor="middle" x="310" y="-100.8" font-family="Helvetica,sans-Serif" font-size="9.00">TestCPedestrian.main</text>
</a>
</g>
</g>
<!-- Node63&#45;&gt;Node68 -->
<g id="edge5" class="edge"><title>Node63&#45;&gt;Node68</title>
<path fill="none" stroke="midnightblue" d="M143.119,-138.833C154.119,-136.474 165.352,-134.126 176,-132 192.912,-128.623 211.076,-125.207 228.379,-122.052"/>
<polygon fill="midnightblue" stroke="midnightblue" points="142.14,-135.464 133.104,-140.997 143.618,-142.306 142.14,-135.464"/>
</g>
<!-- Node69 -->
<g id="node7" class="node"><title>Node69</title>
<g id="a_node7"><a xlink:href="../../d8/d27/classorg_1_1lightjason_1_1trafficsimulation_1_1simulation_1_1movable_1_1TestCVehicle.htm#aed654a3bc0422a3614f44fb01fb744d9" target="_top" xlink:title="main method ">
<polygon fill="none" stroke="black" points="199,-47 199,-75 421,-75 421,-47 199,-47"/>
<text text-anchor="start" x="207" y="-63.8" font-family="Helvetica,sans-Serif" font-size="9.00">org.lightjason.trafficsimulation.simulation.movable.</text>
<text text-anchor="middle" x="310" y="-53.8" font-family="Helvetica,sans-Serif" font-size="9.00">TestCVehicle.main</text>
</a>
</g>
</g>
<!-- Node63&#45;&gt;Node69 -->
<g id="edge6" class="edge"><title>Node63&#45;&gt;Node69</title>
<path fill="none" stroke="midnightblue" d="M95.6514,-134.286C115.943,-118.337 146.131,-97.0434 176,-85 185.684,-81.0955 196.019,-77.8233 206.488,-75.0814"/>
<polygon fill="midnightblue" stroke="midnightblue" points="93.2014,-131.764 87.5907,-140.751 97.5813,-137.225 93.2014,-131.764"/>
</g>
<!-- Node70 -->
<g id="node8" class="node"><title>Node70</title>
<g id="a_node8"><a xlink:href="../../dd/d76/classorg_1_1lightjason_1_1trafficsimulation_1_1simulation_1_1movable_1_1TestCViewPedstrian.htm#a63044054953010704a032dd67471ecd9" target="_top" xlink:title="test call ">
<polygon fill="none" stroke="black" points="199,-0 199,-28 421,-28 421,-0 199,-0"/>
<text text-anchor="start" x="207" y="-16.8" font-family="Helvetica,sans-Serif" font-size="9.00">org.lightjason.trafficsimulation.simulation.movable.</text>
<text text-anchor="middle" x="310" y="-6.8" font-family="Helvetica,sans-Serif" font-size="9.00">TestCViewPedstrian.main</text>
</a>
</g>
</g>
<!-- Node63&#45;&gt;Node70 -->
<g id="edge7" class="edge"><title>Node63&#45;&gt;Node70</title>
<path fill="none" stroke="midnightblue" d="M84.6524,-132.25C102.202,-105.15 135.316,-60.702 176,-38 183.171,-33.9985 190.868,-30.6425 198.812,-27.8303"/>
<polygon fill="midnightblue" stroke="midnightblue" points="81.6852,-130.393 79.309,-140.718 87.6053,-134.129 81.6852,-130.393"/>
</g>
</g>
</svg>
