<?xml version="1.0" encoding="UTF-8" standalone="no"?>
<!DOCTYPE svg PUBLIC "-//W3C//DTD SVG 1.1//EN"
 "http://www.w3.org/Graphics/SVG/1.1/DTD/svg11.dtd">
<!-- Generated by graphviz version 2.36.0 (20140111.2315)
 -->
<!-- Title: org.lightjason.trafficsimulation.IBaseTest.generate Pages: 1 -->
<svg width="452pt" height="224pt"
 viewBox="0.00 0.00 452.00 224.00" xmlns="http://www.w3.org/2000/svg" xmlns:xlink="http://www.w3.org/1999/xlink">
<g id="graph0" class="graph" transform="scale(1 1) rotate(0) translate(4 220)">
<title>org.lightjason.trafficsimulation.IBaseTest.generate</title>
<!-- Node31 -->
<g id="node1" class="node"><title>Node31</title>
<polygon fill="#bfbfbf" stroke="black" points="0,-94 0,-122 140,-122 140,-94 0,-94"/>
<text text-anchor="start" x="8" y="-110.8" font-family="Helvetica,sans-Serif" font-size="9.00">org.lightjason.trafficsimulation.</text>
<text text-anchor="middle" x="70" y="-100.8" font-family="Helvetica,sans-Serif" font-size="9.00">IBaseTest.generate</text>
</g>
<!-- Node32 -->
<g id="node2" class="node"><title>Node32</title>
<g id="a_node2"><a xlink:href="../../d4/dfb/classorg_1_1lightjason_1_1trafficsimulation_1_1simulation_1_1stationary_1_1trafficlight_1_1TestCTrafficLightPedestrian.htm#ac8bd9ca0c2f39d4f3ccef89bb9c14a12" target="_top" xlink:title="initialize traffic light ">
<polygon fill="none" stroke="black" points="176,-188 176,-216 444,-216 444,-188 176,-188"/>
<text text-anchor="start" x="184" y="-204.8" font-family="Helvetica,sans-Serif" font-size="9.00">org.lightjason.trafficsimulation.simulation.stationary.trafficlight.</text>
<text text-anchor="middle" x="310" y="-194.8" font-family="Helvetica,sans-Serif" font-size="9.00">TestCTrafficLightPedestrian.initialize</text>
</a>
</g>
</g>
<!-- Node31&#45;&gt;Node32 -->
<g id="edge1" class="edge"><title>Node31&#45;&gt;Node32</title>
<path fill="none" stroke="midnightblue" d="M95.6514,-128.714C115.943,-144.663 146.131,-165.957 176,-178 185.684,-181.904 196.019,-185.177 206.488,-187.919"/>
<polygon fill="midnightblue" stroke="midnightblue" points="97.5813,-125.775 87.5907,-122.249 93.2014,-131.236 97.5813,-125.775"/>
</g>
<!-- Node33 -->
<g id="node3" class="node"><title>Node33</title>
<g id="a_node3"><a xlink:href="../../d5/d41/classorg_1_1lightjason_1_1trafficsimulation_1_1simulation_1_1stationary_1_1trafficlight_1_1TestCTrafficLightVehicle.htm#a1aac29f9074106d96629a16efdb27f8c" target="_top" xlink:title="initialize vehicle light ">
<polygon fill="none" stroke="black" points="176,-141 176,-169 444,-169 444,-141 176,-141"/>
<text text-anchor="start" x="184" y="-157.8" font-family="Helvetica,sans-Serif" font-size="9.00">org.lightjason.trafficsimulation.simulation.stationary.trafficlight.</text>
<text text-anchor="middle" x="310" y="-147.8" font-family="Helvetica,sans-Serif" font-size="9.00">TestCTrafficLightVehicle.initialize</text>
</a>
</g>
</g>
<!-- Node31&#45;&gt;Node33 -->
<g id="edge2" class="edge"><title>Node31&#45;&gt;Node33</title>
<path fill="none" stroke="midnightblue" d="M143.119,-124.167C154.119,-126.526 165.352,-128.874 176,-131 192.912,-134.377 211.076,-137.793 228.379,-140.948"/>
<polygon fill="midnightblue" stroke="midnightblue" points="143.618,-120.694 133.104,-122.003 142.14,-127.536 143.618,-120.694"/>
</g>
<!-- Node34 -->
<g id="node4" class="node"><title>Node34</title>
<g id="a_node4"><a xlink:href="../../d8/d27/classorg_1_1lightjason_1_1trafficsimulation_1_1simulation_1_1movable_1_1TestCVehicle.htm#ae6b2423717b6f3100250b9162e92d8ba" target="_top" xlink:title="initialize vehicle ">
<polygon fill="none" stroke="black" points="199,-94 199,-122 421,-122 421,-94 199,-94"/>
<text text-anchor="start" x="207" y="-110.8" font-family="Helvetica,sans-Serif" font-size="9.00">org.lightjason.trafficsimulation.simulation.movable.</text>
<text text-anchor="middle" x="310" y="-100.8" font-family="Helvetica,sans-Serif" font-size="9.00">TestCVehicle.initialize</text>
</a>
</g>
</g>
<!-- Node31&#45;&gt;Node34 -->
<g id="edge3" class="edge"><title>Node31&#45;&gt;Node34</title>
<path fill="none" stroke="midnightblue" d="M150.248,-108C165.845,-108 182.472,-108 198.873,-108"/>
<polygon fill="midnightblue" stroke="midnightblue" points="150.159,-104.5 140.159,-108 150.159,-111.5 150.159,-104.5"/>
</g>
<!-- Node35 -->
<g id="node5" class="node"><title>Node35</title>
<g id="a_node5"><a xlink:href="../../de/dc3/classorg_1_1lightjason_1_1trafficsimulation_1_1simulation_1_1movable_1_1TestCPedestrian.htm#a6c1baa655732545e62037a5bb0d8bc6c" target="_top" xlink:title="initialize pedestrian ">
<polygon fill="none" stroke="black" points="199,-47 199,-75 421,-75 421,-47 199,-47"/>
<text text-anchor="start" x="207" y="-63.8" font-family="Helvetica,sans-Serif" font-size="9.00">org.lightjason.trafficsimulation.simulation.movable.</text>
<text text-anchor="middle" x="310" y="-53.8" font-family="Helvetica,sans-Serif" font-size="9.00">TestCPedestrian.initialize</text>
</a>
</g>
</g>
<!-- Node31&#45;&gt;Node35 -->
<g id="edge4" class="edge"><title>Node31&#45;&gt;Node35</title>
<path fill="none" stroke="midnightblue" d="M143.119,-91.8332C154.119,-89.4742 165.352,-87.1262 176,-85 192.912,-81.6231 211.076,-78.207 228.379,-75.0524"/>
<polygon fill="midnightblue" stroke="midnightblue" points="142.14,-88.4638 133.104,-93.9966 143.618,-95.3059 142.14,-88.4638"/>
</g>
<!-- Node36 -->
<g id="node6" class="node"><title>Node36</title>
<g id="a_node6"><a xlink:href="../../dd/d76/classorg_1_1lightjason_1_1trafficsimulation_1_1simulation_1_1movable_1_1TestCViewPedstrian.htm#a9550f8573d56bb6058cbf764284d4e9f" target="_top" xlink:title="initialize pedestrian ">
<polygon fill="none" stroke="black" points="199,-0 199,-28 421,-28 421,-0 199,-0"/>
<text text-anchor="start" x="207" y="-16.8" font-family="Helvetica,sans-Serif" font-size="9.00">org.lightjason.trafficsimulation.simulation.movable.</text>
<text text-anchor="middle" x="310" y="-6.8" font-family="Helvetica,sans-Serif" font-size="9.00">TestCViewPedstrian.initialize</text>
</a>
</g>
</g>
<!-- Node31&#45;&gt;Node36 -->
<g id="edge5" class="edge"><title>Node31&#45;&gt;Node36</title>
<path fill="none" stroke="midnightblue" d="M95.6514,-87.2858C115.943,-71.3366 146.131,-50.0434 176,-38 185.684,-34.0955 196.019,-30.8233 206.488,-28.0814"/>
<polygon fill="midnightblue" stroke="midnightblue" points="93.2014,-84.7641 87.5907,-93.7514 97.5813,-90.2246 93.2014,-84.7641"/>
</g>
</g>
</svg>
