<?xml version="1.0" encoding="UTF-8" standalone="no"?>
<!DOCTYPE svg PUBLIC "-//W3C//DTD SVG 1.1//EN"
 "http://www.w3.org/Graphics/SVG/1.1/DTD/svg11.dtd">
<!-- Generated by graphviz version 2.36.0 (20140111.2315)
 -->
<!-- Title: org.lightjason.trafficsimulation.IBaseTest.loadconfiguration Pages: 1 -->
<svg width="500pt" height="36pt"
 viewBox="0.00 0.00 500.00 36.00" xmlns="http://www.w3.org/2000/svg" xmlns:xlink="http://www.w3.org/1999/xlink">
<g id="graph0" class="graph" transform="scale(1 1) rotate(0) translate(4 32)">
<title>org.lightjason.trafficsimulation.IBaseTest.loadconfiguration</title>
<!-- Node71 -->
<g id="node1" class="node"><title>Node71</title>
<polygon fill="#bfbfbf" stroke="black" points="0,-0 0,-28 140,-28 140,-0 0,-0"/>
<text text-anchor="start" x="8" y="-16.8" font-family="Helvetica,sans-Serif" font-size="9.00">org.lightjason.trafficsimulation.</text>
<text text-anchor="middle" x="70" y="-6.8" font-family="Helvetica,sans-Serif" font-size="9.00">IBaseTest.loadconfiguration</text>
</g>
<!-- Node72 -->
<g id="node2" class="node"><title>Node72</title>
<g id="a_node2"><a xlink:href="../../df/df4/classorg_1_1lightjason_1_1trafficsimulation_1_1CConfiguration.htm#aca440795cab5c2fe246ffb7edc27d43d" target="_top" xlink:title="loads the configuration ">
<polygon fill="none" stroke="black" points="176,-0 176,-28 316,-28 316,-0 176,-0"/>
<text text-anchor="start" x="184" y="-16.8" font-family="Helvetica,sans-Serif" font-size="9.00">org.lightjason.trafficsimulation.</text>
<text text-anchor="middle" x="246" y="-6.8" font-family="Helvetica,sans-Serif" font-size="9.00">CConfiguration.loadfile</text>
</a>
</g>
</g>
<!-- Node71&#45;&gt;Node72 -->
<g id="edge1" class="edge"><title>Node71&#45;&gt;Node72</title>
<path fill="none" stroke="midnightblue" d="M140.019,-14C148.476,-14 157.169,-14 165.761,-14"/>
<polygon fill="midnightblue" stroke="midnightblue" points="165.78,-17.5001 175.779,-14 165.779,-10.5001 165.78,-17.5001"/>
</g>
<!-- Node73 -->
<g id="node3" class="node"><title>Node73</title>
<g id="a_node3"><a xlink:href="../../df/df4/classorg_1_1lightjason_1_1trafficsimulation_1_1CConfiguration.htm#a102a5d6124bbf608128f89c4260e1ef9" target="_top" xlink:title="set default path ">
<polygon fill="none" stroke="black" points="352,-0 352,-28 492,-28 492,-0 352,-0"/>
<text text-anchor="start" x="360" y="-16.8" font-family="Helvetica,sans-Serif" font-size="9.00">org.lightjason.trafficsimulation.</text>
<text text-anchor="middle" x="422" y="-6.8" font-family="Helvetica,sans-Serif" font-size="9.00">CConfiguration.orDefaultPath</text>
</a>
</g>
</g>
<!-- Node72&#45;&gt;Node73 -->
<g id="edge2" class="edge"><title>Node72&#45;&gt;Node73</title>
<path fill="none" stroke="midnightblue" d="M316.019,-14C324.476,-14 333.169,-14 341.761,-14"/>
<polygon fill="midnightblue" stroke="midnightblue" points="341.78,-17.5001 351.779,-14 341.779,-10.5001 341.78,-17.5001"/>
</g>
</g>
</svg>
