<?xml version="1.0" encoding="UTF-8" standalone="no"?>
<!DOCTYPE svg PUBLIC "-//W3C//DTD SVG 1.1//EN"
 "http://www.w3.org/Graphics/SVG/1.1/DTD/svg11.dtd">
<!-- Generated by graphviz version 2.36.0 (20140111.2315)
 -->
<!-- Title: org.lightjason.trafficsimulation.IBaseTest.invoke Pages: 1 -->
<svg width="628pt" height="318pt"
 viewBox="0.00 0.00 628.00 318.00" xmlns="http://www.w3.org/2000/svg" xmlns:xlink="http://www.w3.org/1999/xlink">
<g id="graph0" class="graph" transform="scale(1 1) rotate(0) translate(4 314)">
<title>org.lightjason.trafficsimulation.IBaseTest.invoke</title>
<!-- Node50 -->
<g id="node1" class="node"><title>Node50</title>
<polygon fill="#bfbfbf" stroke="black" points="0,-141 0,-169 140,-169 140,-141 0,-141"/>
<text text-anchor="start" x="8" y="-157.8" font-family="Helvetica,sans-Serif" font-size="9.00">org.lightjason.trafficsimulation.</text>
<text text-anchor="middle" x="70" y="-147.8" font-family="Helvetica,sans-Serif" font-size="9.00">IBaseTest.invoke</text>
</g>
<!-- Node51 -->
<g id="node2" class="node"><title>Node51</title>
<g id="a_node2"><a xlink:href="../../dd/d4d/classorg_1_1lightjason_1_1trafficsimulation_1_1IBaseTest.htm#a30660d966a228cd681a34edf531253ab" target="_top" xlink:title="invoke all test manually ">
<polygon fill="none" stroke="black" points="176,-141 176,-169 316,-169 316,-141 176,-141"/>
<text text-anchor="start" x="184" y="-157.8" font-family="Helvetica,sans-Serif" font-size="9.00">org.lightjason.trafficsimulation.</text>
<text text-anchor="middle" x="246" y="-147.8" font-family="Helvetica,sans-Serif" font-size="9.00">IBaseTest.invoketest</text>
</a>
</g>
</g>
<!-- Node50&#45;&gt;Node51 -->
<g id="edge1" class="edge"><title>Node50&#45;&gt;Node51</title>
<path fill="none" stroke="midnightblue" d="M150.035,-155C158.625,-155 167.319,-155 175.779,-155"/>
<polygon fill="midnightblue" stroke="midnightblue" points="150.019,-151.5 140.019,-155 150.019,-158.5 150.019,-151.5"/>
</g>
<!-- Node52 -->
<g id="node3" class="node"><title>Node52</title>
<g id="a_node3"><a xlink:href="../../d2/de9/classorg_1_1lightjason_1_1trafficsimulation_1_1simulation_1_1virtual_01_1_1TestCArea.htm#aefd6ed04c3900df3a4ca1fa9e8c9ec94" target="_top" xlink:title="test call ">
<polygon fill="none" stroke="black" points="381.5,-282 381.5,-310 590.5,-310 590.5,-282 381.5,-282"/>
<text text-anchor="start" x="389.5" y="-298.8" font-family="Helvetica,sans-Serif" font-size="9.00">org.lightjason.trafficsimulation.simulation.virtual</text>
<text text-anchor="middle" x="486" y="-288.8" font-family="Helvetica,sans-Serif" font-size="9.00"> .TestCArea.main</text>
</a>
</g>
</g>
<!-- Node51&#45;&gt;Node52 -->
<g id="edge2" class="edge"><title>Node51&#45;&gt;Node52</title>
<path fill="none" stroke="midnightblue" d="M260.652,-177.75C278.202,-204.85 311.316,-249.298 352,-272 361.118,-277.088 371.084,-281.132 381.329,-284.341"/>
<polygon fill="midnightblue" stroke="midnightblue" points="263.605,-175.871 255.309,-169.282 257.685,-179.607 263.605,-175.871"/>
</g>
<!-- Node53 -->
<g id="node4" class="node"><title>Node53</title>
<g id="a_node4"><a xlink:href="../../d0/d32/classorg_1_1lightjason_1_1trafficsimulation_1_1simulation_1_1environment_1_1TestCEnvironment.htm#a97ec30c652ce2bb523b29a40a02b77e6" target="_top" xlink:title="test call ">
<polygon fill="none" stroke="black" points="367,-235 367,-263 605,-263 605,-235 367,-235"/>
<text text-anchor="start" x="375" y="-251.8" font-family="Helvetica,sans-Serif" font-size="9.00">org.lightjason.trafficsimulation.simulation.environment.</text>
<text text-anchor="middle" x="486" y="-241.8" font-family="Helvetica,sans-Serif" font-size="9.00">TestCEnvironment.main</text>
</a>
</g>
</g>
<!-- Node51&#45;&gt;Node53 -->
<g id="edge3" class="edge"><title>Node51&#45;&gt;Node53</title>
<path fill="none" stroke="midnightblue" d="M271.651,-175.714C291.943,-191.663 322.131,-212.957 352,-225 361.684,-228.904 372.019,-232.177 382.488,-234.919"/>
<polygon fill="midnightblue" stroke="midnightblue" points="273.581,-172.775 263.591,-169.249 269.201,-178.236 273.581,-172.775"/>
</g>
<!-- Node54 -->
<g id="node5" class="node"><title>Node54</title>
<g id="a_node5"><a xlink:href="../../de/dc3/classorg_1_1lightjason_1_1trafficsimulation_1_1simulation_1_1movable_1_1TestCPedestrian.htm#a1b8758222587d12393071ef8eda960e7" target="_top" xlink:title="test call ">
<polygon fill="none" stroke="black" points="375,-188 375,-216 597,-216 597,-188 375,-188"/>
<text text-anchor="start" x="383" y="-204.8" font-family="Helvetica,sans-Serif" font-size="9.00">org.lightjason.trafficsimulation.simulation.movable.</text>
<text text-anchor="middle" x="486" y="-194.8" font-family="Helvetica,sans-Serif" font-size="9.00">TestCPedestrian.main</text>
</a>
</g>
</g>
<!-- Node51&#45;&gt;Node54 -->
<g id="edge4" class="edge"><title>Node51&#45;&gt;Node54</title>
<path fill="none" stroke="midnightblue" d="M319.119,-171.167C330.119,-173.526 341.352,-175.874 352,-178 368.912,-181.377 387.076,-184.793 404.379,-187.948"/>
<polygon fill="midnightblue" stroke="midnightblue" points="319.618,-167.694 309.104,-169.003 318.14,-174.536 319.618,-167.694"/>
</g>
<!-- Node55 -->
<g id="node6" class="node"><title>Node55</title>
<g id="a_node6"><a xlink:href="../../d4/dfb/classorg_1_1lightjason_1_1trafficsimulation_1_1simulation_1_1stationary_1_1trafficlight_1_1TestCTrafficLightPedestrian.htm#a49d9e9afb1e4c87f54144c7a236363a7" target="_top" xlink:title="main method ">
<polygon fill="none" stroke="black" points="352,-141 352,-169 620,-169 620,-141 352,-141"/>
<text text-anchor="start" x="360" y="-157.8" font-family="Helvetica,sans-Serif" font-size="9.00">org.lightjason.trafficsimulation.simulation.stationary.trafficlight.</text>
<text text-anchor="middle" x="486" y="-147.8" font-family="Helvetica,sans-Serif" font-size="9.00">TestCTrafficLightPedestrian.main</text>
</a>
</g>
</g>
<!-- Node51&#45;&gt;Node55 -->
<g id="edge5" class="edge"><title>Node51&#45;&gt;Node55</title>
<path fill="none" stroke="midnightblue" d="M326.361,-155C334.545,-155 343.011,-155 351.578,-155"/>
<polygon fill="midnightblue" stroke="midnightblue" points="326.159,-151.5 316.159,-155 326.159,-158.5 326.159,-151.5"/>
</g>
<!-- Node56 -->
<g id="node7" class="node"><title>Node56</title>
<g id="a_node7"><a xlink:href="../../d5/d41/classorg_1_1lightjason_1_1trafficsimulation_1_1simulation_1_1stationary_1_1trafficlight_1_1TestCTrafficLightVehicle.htm#ae97407511116519bd4b6806c6827a9d5" target="_top" xlink:title="main method ">
<polygon fill="none" stroke="black" points="352,-94 352,-122 620,-122 620,-94 352,-94"/>
<text text-anchor="start" x="360" y="-110.8" font-family="Helvetica,sans-Serif" font-size="9.00">org.lightjason.trafficsimulation.simulation.stationary.trafficlight.</text>
<text text-anchor="middle" x="486" y="-100.8" font-family="Helvetica,sans-Serif" font-size="9.00">TestCTrafficLightVehicle.main</text>
</a>
</g>
</g>
<!-- Node51&#45;&gt;Node56 -->
<g id="edge6" class="edge"><title>Node51&#45;&gt;Node56</title>
<path fill="none" stroke="midnightblue" d="M319.119,-138.833C330.119,-136.474 341.352,-134.126 352,-132 368.912,-128.623 387.076,-125.207 404.379,-122.052"/>
<polygon fill="midnightblue" stroke="midnightblue" points="318.14,-135.464 309.104,-140.997 319.618,-142.306 318.14,-135.464"/>
</g>
<!-- Node57 -->
<g id="node8" class="node"><title>Node57</title>
<g id="a_node8"><a xlink:href="../../d8/d27/classorg_1_1lightjason_1_1trafficsimulation_1_1simulation_1_1movable_1_1TestCVehicle.htm#aed654a3bc0422a3614f44fb01fb744d9" target="_top" xlink:title="main method ">
<polygon fill="none" stroke="black" points="375,-47 375,-75 597,-75 597,-47 375,-47"/>
<text text-anchor="start" x="383" y="-63.8" font-family="Helvetica,sans-Serif" font-size="9.00">org.lightjason.trafficsimulation.simulation.movable.</text>
<text text-anchor="middle" x="486" y="-53.8" font-family="Helvetica,sans-Serif" font-size="9.00">TestCVehicle.main</text>
</a>
</g>
</g>
<!-- Node51&#45;&gt;Node57 -->
<g id="edge7" class="edge"><title>Node51&#45;&gt;Node57</title>
<path fill="none" stroke="midnightblue" d="M271.651,-134.286C291.943,-118.337 322.131,-97.0434 352,-85 361.684,-81.0955 372.019,-77.8233 382.488,-75.0814"/>
<polygon fill="midnightblue" stroke="midnightblue" points="269.201,-131.764 263.591,-140.751 273.581,-137.225 269.201,-131.764"/>
</g>
<!-- Node58 -->
<g id="node9" class="node"><title>Node58</title>
<g id="a_node9"><a xlink:href="../../dd/d76/classorg_1_1lightjason_1_1trafficsimulation_1_1simulation_1_1movable_1_1TestCViewPedstrian.htm#a63044054953010704a032dd67471ecd9" target="_top" xlink:title="test call ">
<polygon fill="none" stroke="black" points="375,-0 375,-28 597,-28 597,-0 375,-0"/>
<text text-anchor="start" x="383" y="-16.8" font-family="Helvetica,sans-Serif" font-size="9.00">org.lightjason.trafficsimulation.simulation.movable.</text>
<text text-anchor="middle" x="486" y="-6.8" font-family="Helvetica,sans-Serif" font-size="9.00">TestCViewPedstrian.main</text>
</a>
</g>
</g>
<!-- Node51&#45;&gt;Node58 -->
<g id="edge8" class="edge"><title>Node51&#45;&gt;Node58</title>
<path fill="none" stroke="midnightblue" d="M260.652,-132.25C278.202,-105.15 311.316,-60.702 352,-38 359.171,-33.9985 366.868,-30.6425 374.812,-27.8303"/>
<polygon fill="midnightblue" stroke="midnightblue" points="257.685,-130.393 255.309,-140.718 263.605,-134.129 257.685,-130.393"/>
</g>
</g>
</svg>
