<?xml version="1.0" encoding="UTF-8" standalone="no"?>
<!DOCTYPE svg PUBLIC "-//W3C//DTD SVG 1.1//EN"
 "http://www.w3.org/Graphics/SVG/1.1/DTD/svg11.dtd">
<!-- Generated by graphviz version 2.36.0 (20140111.2315)
 -->
<!-- Title: org.lightjason.trafficsimulation.IBaseTest.initializeenvironment Pages: 1 -->
<svg width="456pt" height="271pt"
 viewBox="0.00 0.00 456.00 271.00" xmlns="http://www.w3.org/2000/svg" xmlns:xlink="http://www.w3.org/1999/xlink">
<g id="graph0" class="graph" transform="scale(1 1) rotate(0) translate(4 267)">
<title>org.lightjason.trafficsimulation.IBaseTest.initializeenvironment</title>
<!-- Node41 -->
<g id="node1" class="node"><title>Node41</title>
<polygon fill="#bfbfbf" stroke="black" points="0,-117 0,-145 144,-145 144,-117 0,-117"/>
<text text-anchor="start" x="8" y="-133.8" font-family="Helvetica,sans-Serif" font-size="9.00">org.lightjason.trafficsimulation.</text>
<text text-anchor="middle" x="72" y="-123.8" font-family="Helvetica,sans-Serif" font-size="9.00">IBaseTest.initializeenvironment</text>
</g>
<!-- Node42 -->
<g id="node2" class="node"><title>Node42</title>
<g id="a_node2"><a xlink:href="../../d4/dfb/classorg_1_1lightjason_1_1trafficsimulation_1_1simulation_1_1stationary_1_1trafficlight_1_1TestCTrafficLightPedestrian.htm#ac8bd9ca0c2f39d4f3ccef89bb9c14a12" target="_top" xlink:title="initialize traffic light ">
<polygon fill="none" stroke="black" points="180,-235 180,-263 448,-263 448,-235 180,-235"/>
<text text-anchor="start" x="188" y="-251.8" font-family="Helvetica,sans-Serif" font-size="9.00">org.lightjason.trafficsimulation.simulation.stationary.trafficlight.</text>
<text text-anchor="middle" x="314" y="-241.8" font-family="Helvetica,sans-Serif" font-size="9.00">TestCTrafficLightPedestrian.initialize</text>
</a>
</g>
</g>
<!-- Node41&#45;&gt;Node42 -->
<g id="edge1" class="edge"><title>Node41&#45;&gt;Node42</title>
<path fill="none" stroke="midnightblue" d="M91.3175,-152.922C110.913,-174.822 144.062,-207.655 180,-225 188.135,-228.927 196.832,-232.215 205.737,-234.968"/>
<polygon fill="midnightblue" stroke="midnightblue" points="93.7113,-150.342 84.4936,-145.119 88.4419,-154.951 93.7113,-150.342"/>
</g>
<!-- Node43 -->
<g id="node3" class="node"><title>Node43</title>
<g id="a_node3"><a xlink:href="../../d5/d41/classorg_1_1lightjason_1_1trafficsimulation_1_1simulation_1_1stationary_1_1trafficlight_1_1TestCTrafficLightVehicle.htm#a1aac29f9074106d96629a16efdb27f8c" target="_top" xlink:title="initialize vehicle light ">
<polygon fill="none" stroke="black" points="180,-188 180,-216 448,-216 448,-188 180,-188"/>
<text text-anchor="start" x="188" y="-204.8" font-family="Helvetica,sans-Serif" font-size="9.00">org.lightjason.trafficsimulation.simulation.stationary.trafficlight.</text>
<text text-anchor="middle" x="314" y="-194.8" font-family="Helvetica,sans-Serif" font-size="9.00">TestCTrafficLightVehicle.initialize</text>
</a>
</g>
</g>
<!-- Node41&#45;&gt;Node43 -->
<g id="edge2" class="edge"><title>Node41&#45;&gt;Node43</title>
<path fill="none" stroke="midnightblue" d="M109.239,-149.47C129.59,-159.186 155.709,-170.587 180,-178 192.567,-181.835 206,-185.141 219.32,-187.966"/>
<polygon fill="midnightblue" stroke="midnightblue" points="110.559,-146.22 100.034,-145.002 107.502,-152.517 110.559,-146.22"/>
</g>
<!-- Node44 -->
<g id="node4" class="node"><title>Node44</title>
<g id="a_node4"><a xlink:href="../../d8/d27/classorg_1_1lightjason_1_1trafficsimulation_1_1simulation_1_1movable_1_1TestCVehicle.htm#ae6b2423717b6f3100250b9162e92d8ba" target="_top" xlink:title="initialize vehicle ">
<polygon fill="none" stroke="black" points="203,-141 203,-169 425,-169 425,-141 203,-141"/>
<text text-anchor="start" x="211" y="-157.8" font-family="Helvetica,sans-Serif" font-size="9.00">org.lightjason.trafficsimulation.simulation.movable.</text>
<text text-anchor="middle" x="314" y="-147.8" font-family="Helvetica,sans-Serif" font-size="9.00">TestCVehicle.initialize</text>
</a>
</g>
</g>
<!-- Node41&#45;&gt;Node44 -->
<g id="edge3" class="edge"><title>Node41&#45;&gt;Node44</title>
<path fill="none" stroke="midnightblue" d="M154.187,-139.119C169.875,-140.688 186.555,-142.355 202.983,-143.998"/>
<polygon fill="midnightblue" stroke="midnightblue" points="154.332,-135.616 144.034,-138.103 153.636,-142.581 154.332,-135.616"/>
</g>
<!-- Node45 -->
<g id="node5" class="node"><title>Node45</title>
<g id="a_node5"><a xlink:href="../../de/dc3/classorg_1_1lightjason_1_1trafficsimulation_1_1simulation_1_1movable_1_1TestCPedestrian.htm#a6c1baa655732545e62037a5bb0d8bc6c" target="_top" xlink:title="initialize pedestrian ">
<polygon fill="none" stroke="black" points="203,-94 203,-122 425,-122 425,-94 203,-94"/>
<text text-anchor="start" x="211" y="-110.8" font-family="Helvetica,sans-Serif" font-size="9.00">org.lightjason.trafficsimulation.simulation.movable.</text>
<text text-anchor="middle" x="314" y="-100.8" font-family="Helvetica,sans-Serif" font-size="9.00">TestCPedestrian.initialize</text>
</a>
</g>
</g>
<!-- Node41&#45;&gt;Node45 -->
<g id="edge4" class="edge"><title>Node41&#45;&gt;Node45</title>
<path fill="none" stroke="midnightblue" d="M154.187,-123.22C169.875,-121.716 186.555,-120.118 202.983,-118.543"/>
<polygon fill="midnightblue" stroke="midnightblue" points="153.654,-119.755 144.034,-124.193 154.322,-126.723 153.654,-119.755"/>
</g>
<!-- Node46 -->
<g id="node6" class="node"><title>Node46</title>
<g id="a_node6"><a xlink:href="../../dd/d76/classorg_1_1lightjason_1_1trafficsimulation_1_1simulation_1_1movable_1_1TestCViewPedstrian.htm#a9550f8573d56bb6058cbf764284d4e9f" target="_top" xlink:title="initialize pedestrian ">
<polygon fill="none" stroke="black" points="203,-47 203,-75 425,-75 425,-47 203,-47"/>
<text text-anchor="start" x="211" y="-63.8" font-family="Helvetica,sans-Serif" font-size="9.00">org.lightjason.trafficsimulation.simulation.movable.</text>
<text text-anchor="middle" x="314" y="-53.8" font-family="Helvetica,sans-Serif" font-size="9.00">TestCViewPedstrian.initialize</text>
</a>
</g>
</g>
<!-- Node41&#45;&gt;Node46 -->
<g id="edge5" class="edge"><title>Node41&#45;&gt;Node46</title>
<path fill="none" stroke="midnightblue" d="M110.127,-112.559C130.365,-103.145 156.097,-92.1923 180,-85 192.695,-81.1803 206.264,-77.8776 219.704,-75.0498"/>
<polygon fill="midnightblue" stroke="midnightblue" points="108.499,-109.457 100.954,-116.894 111.491,-115.785 108.499,-109.457"/>
</g>
<!-- Node47 -->
<g id="node7" class="node"><title>Node47</title>
<g id="a_node7"><a xlink:href="../../d0/d32/classorg_1_1lightjason_1_1trafficsimulation_1_1simulation_1_1environment_1_1TestCEnvironment.htm#aa21513ffd2e8b9289e3544ce61e8f12d" target="_top" xlink:title="initialize ">
<polygon fill="none" stroke="black" points="195,-0 195,-28 433,-28 433,-0 195,-0"/>
<text text-anchor="start" x="203" y="-16.8" font-family="Helvetica,sans-Serif" font-size="9.00">org.lightjason.trafficsimulation.simulation.environment.</text>
<text text-anchor="middle" x="314" y="-6.8" font-family="Helvetica,sans-Serif" font-size="9.00">TestCEnvironment.initilize</text>
</a>
</g>
</g>
<!-- Node41&#45;&gt;Node47 -->
<g id="edge6" class="edge"><title>Node41&#45;&gt;Node47</title>
<path fill="none" stroke="midnightblue" d="M91.6917,-108.957C111.366,-87.2945 144.38,-55.0759 180,-38 188.146,-34.0951 196.849,-30.8218 205.759,-28.0786"/>
<polygon fill="midnightblue" stroke="midnightblue" points="88.8489,-106.887 84.8267,-116.689 94.0834,-111.535 88.8489,-106.887"/>
</g>
</g>
</svg>
