<?xml version="1.0" encoding="UTF-8" standalone="no"?>
<!DOCTYPE svg PUBLIC "-//W3C//DTD SVG 1.1//EN"
 "http://www.w3.org/Graphics/SVG/1.1/DTD/svg11.dtd">
<!-- Generated by graphviz version 2.36.0 (20140111.2315)
 -->
<!-- Title: org.lightjason.trafficsimulation.IBaseTest.executeagent Pages: 1 -->
<svg width="406pt" height="83pt"
 viewBox="0.00 0.00 406.00 83.00" xmlns="http://www.w3.org/2000/svg" xmlns:xlink="http://www.w3.org/1999/xlink">
<g id="graph0" class="graph" transform="scale(1 1) rotate(0) translate(4 79)">
<title>org.lightjason.trafficsimulation.IBaseTest.executeagent</title>
<!-- Node24 -->
<g id="node1" class="node"><title>Node24</title>
<polygon fill="#bfbfbf" stroke="black" points="0,-23 0,-51 140,-51 140,-23 0,-23"/>
<text text-anchor="start" x="8" y="-39.8" font-family="Helvetica,sans-Serif" font-size="9.00">org.lightjason.trafficsimulation.</text>
<text text-anchor="middle" x="70" y="-29.8" font-family="Helvetica,sans-Serif" font-size="9.00">IBaseTest.executeagent</text>
</g>
<!-- Node25 -->
<g id="node2" class="node"><title>Node25</title>
<g id="a_node2"><a xlink:href="../../d8/d27/classorg_1_1lightjason_1_1trafficsimulation_1_1simulation_1_1movable_1_1TestCVehicle.htm#a09f6a420120a7efc088d2135770bec8f" target="_top" xlink:title="vehicle test ">
<polygon fill="none" stroke="black" points="176,-47 176,-75 398,-75 398,-47 176,-47"/>
<text text-anchor="start" x="184" y="-63.8" font-family="Helvetica,sans-Serif" font-size="9.00">org.lightjason.trafficsimulation.simulation.movable.</text>
<text text-anchor="middle" x="287" y="-53.8" font-family="Helvetica,sans-Serif" font-size="9.00">TestCVehicle.test</text>
</a>
</g>
</g>
<!-- Node24&#45;&gt;Node25 -->
<g id="edge1" class="edge"><title>Node24&#45;&gt;Node25</title>
<path fill="none" stroke="midnightblue" d="M150.262,-45.8479C158.614,-46.7802 167.211,-47.7398 175.831,-48.702"/>
<polygon fill="midnightblue" stroke="midnightblue" points="150.537,-42.3569 140.211,-44.7259 149.761,-49.3137 150.537,-42.3569"/>
</g>
<!-- Node26 -->
<g id="node3" class="node"><title>Node26</title>
<g id="a_node3"><a xlink:href="../../de/dc3/classorg_1_1lightjason_1_1trafficsimulation_1_1simulation_1_1movable_1_1TestCPedestrian.htm#a8a69b007e76e3ce51ec2b03341b9b36b" target="_top" xlink:title="test pedestrian call ">
<polygon fill="none" stroke="black" points="176,-0 176,-28 398,-28 398,-0 176,-0"/>
<text text-anchor="start" x="184" y="-16.8" font-family="Helvetica,sans-Serif" font-size="9.00">org.lightjason.trafficsimulation.simulation.movable.</text>
<text text-anchor="middle" x="287" y="-6.8" font-family="Helvetica,sans-Serif" font-size="9.00">TestCPedestrian.testagentcall</text>
</a>
</g>
</g>
<!-- Node24&#45;&gt;Node26 -->
<g id="edge2" class="edge"><title>Node24&#45;&gt;Node26</title>
<path fill="none" stroke="midnightblue" d="M150.262,-28.5208C158.614,-27.6273 167.211,-26.7077 175.831,-25.7856"/>
<polygon fill="midnightblue" stroke="midnightblue" points="149.782,-25.0521 140.211,-29.5961 150.526,-32.0124 149.782,-25.0521"/>
</g>
</g>
</svg>
