<?xml version="1.0" encoding="UTF-8" standalone="no"?>
<!DOCTYPE svg PUBLIC "-//W3C//DTD SVG 1.1//EN"
 "http://www.w3.org/Graphics/SVG/1.1/DTD/svg11.dtd">
<!-- Generated by graphviz version 2.36.0 (20140111.2315)
 -->
<!-- Title: org.lightjason.trafficsimulation.IBaseTest.execute Pages: 1 -->
<svg width="804pt" height="318pt"
 viewBox="0.00 0.00 804.00 318.00" xmlns="http://www.w3.org/2000/svg" xmlns:xlink="http://www.w3.org/1999/xlink">
<g id="graph0" class="graph" transform="scale(1 1) rotate(0) translate(4 314)">
<title>org.lightjason.trafficsimulation.IBaseTest.execute</title>
<!-- Node13 -->
<g id="node1" class="node"><title>Node13</title>
<polygon fill="#bfbfbf" stroke="black" points="0,-141 0,-169 140,-169 140,-141 0,-141"/>
<text text-anchor="start" x="8" y="-157.8" font-family="Helvetica,sans-Serif" font-size="9.00">org.lightjason.trafficsimulation.</text>
<text text-anchor="middle" x="70" y="-147.8" font-family="Helvetica,sans-Serif" font-size="9.00">IBaseTest.execute</text>
</g>
<!-- Node14 -->
<g id="node2" class="node"><title>Node14</title>
<g id="a_node2"><a xlink:href="../../dd/d4d/classorg_1_1lightjason_1_1trafficsimulation_1_1IBaseTest.htm#a3ddd0bcf774d2877cdfd068f7b74f121" target="_top" xlink:title="invoke method and read if possible the data&#45;provider ">
<polygon fill="none" stroke="black" points="176,-141 176,-169 316,-169 316,-141 176,-141"/>
<text text-anchor="start" x="184" y="-157.8" font-family="Helvetica,sans-Serif" font-size="9.00">org.lightjason.trafficsimulation.</text>
<text text-anchor="middle" x="246" y="-147.8" font-family="Helvetica,sans-Serif" font-size="9.00">IBaseTest.invoke</text>
</a>
</g>
</g>
<!-- Node13&#45;&gt;Node14 -->
<g id="edge1" class="edge"><title>Node13&#45;&gt;Node14</title>
<path fill="none" stroke="midnightblue" d="M150.035,-155C158.625,-155 167.319,-155 175.779,-155"/>
<polygon fill="midnightblue" stroke="midnightblue" points="150.019,-151.5 140.019,-155 150.019,-158.5 150.019,-151.5"/>
</g>
<!-- Node15 -->
<g id="node3" class="node"><title>Node15</title>
<g id="a_node3"><a xlink:href="../../dd/d4d/classorg_1_1lightjason_1_1trafficsimulation_1_1IBaseTest.htm#a30660d966a228cd681a34edf531253ab" target="_top" xlink:title="invoke all test manually ">
<polygon fill="none" stroke="black" points="352,-141 352,-169 492,-169 492,-141 352,-141"/>
<text text-anchor="start" x="360" y="-157.8" font-family="Helvetica,sans-Serif" font-size="9.00">org.lightjason.trafficsimulation.</text>
<text text-anchor="middle" x="422" y="-147.8" font-family="Helvetica,sans-Serif" font-size="9.00">IBaseTest.invoketest</text>
</a>
</g>
</g>
<!-- Node14&#45;&gt;Node15 -->
<g id="edge2" class="edge"><title>Node14&#45;&gt;Node15</title>
<path fill="none" stroke="midnightblue" d="M326.035,-155C334.625,-155 343.319,-155 351.779,-155"/>
<polygon fill="midnightblue" stroke="midnightblue" points="326.019,-151.5 316.019,-155 326.019,-158.5 326.019,-151.5"/>
</g>
<!-- Node16 -->
<g id="node4" class="node"><title>Node16</title>
<g id="a_node4"><a xlink:href="../../d2/de9/classorg_1_1lightjason_1_1trafficsimulation_1_1simulation_1_1virtual_01_1_1TestCArea.htm#aefd6ed04c3900df3a4ca1fa9e8c9ec94" target="_top" xlink:title="test call ">
<polygon fill="none" stroke="black" points="557.5,-282 557.5,-310 766.5,-310 766.5,-282 557.5,-282"/>
<text text-anchor="start" x="565.5" y="-298.8" font-family="Helvetica,sans-Serif" font-size="9.00">org.lightjason.trafficsimulation.simulation.virtual</text>
<text text-anchor="middle" x="662" y="-288.8" font-family="Helvetica,sans-Serif" font-size="9.00"> .TestCArea.main</text>
</a>
</g>
</g>
<!-- Node15&#45;&gt;Node16 -->
<g id="edge3" class="edge"><title>Node15&#45;&gt;Node16</title>
<path fill="none" stroke="midnightblue" d="M436.652,-177.75C454.202,-204.85 487.316,-249.298 528,-272 537.118,-277.088 547.084,-281.132 557.329,-284.341"/>
<polygon fill="midnightblue" stroke="midnightblue" points="439.605,-175.871 431.309,-169.282 433.685,-179.607 439.605,-175.871"/>
</g>
<!-- Node17 -->
<g id="node5" class="node"><title>Node17</title>
<g id="a_node5"><a xlink:href="../../d0/d32/classorg_1_1lightjason_1_1trafficsimulation_1_1simulation_1_1environment_1_1TestCEnvironment.htm#a97ec30c652ce2bb523b29a40a02b77e6" target="_top" xlink:title="test call ">
<polygon fill="none" stroke="black" points="543,-235 543,-263 781,-263 781,-235 543,-235"/>
<text text-anchor="start" x="551" y="-251.8" font-family="Helvetica,sans-Serif" font-size="9.00">org.lightjason.trafficsimulation.simulation.environment.</text>
<text text-anchor="middle" x="662" y="-241.8" font-family="Helvetica,sans-Serif" font-size="9.00">TestCEnvironment.main</text>
</a>
</g>
</g>
<!-- Node15&#45;&gt;Node17 -->
<g id="edge4" class="edge"><title>Node15&#45;&gt;Node17</title>
<path fill="none" stroke="midnightblue" d="M447.651,-175.714C467.943,-191.663 498.131,-212.957 528,-225 537.684,-228.904 548.019,-232.177 558.488,-234.919"/>
<polygon fill="midnightblue" stroke="midnightblue" points="449.581,-172.775 439.591,-169.249 445.201,-178.236 449.581,-172.775"/>
</g>
<!-- Node18 -->
<g id="node6" class="node"><title>Node18</title>
<g id="a_node6"><a xlink:href="../../de/dc3/classorg_1_1lightjason_1_1trafficsimulation_1_1simulation_1_1movable_1_1TestCPedestrian.htm#a1b8758222587d12393071ef8eda960e7" target="_top" xlink:title="test call ">
<polygon fill="none" stroke="black" points="551,-188 551,-216 773,-216 773,-188 551,-188"/>
<text text-anchor="start" x="559" y="-204.8" font-family="Helvetica,sans-Serif" font-size="9.00">org.lightjason.trafficsimulation.simulation.movable.</text>
<text text-anchor="middle" x="662" y="-194.8" font-family="Helvetica,sans-Serif" font-size="9.00">TestCPedestrian.main</text>
</a>
</g>
</g>
<!-- Node15&#45;&gt;Node18 -->
<g id="edge5" class="edge"><title>Node15&#45;&gt;Node18</title>
<path fill="none" stroke="midnightblue" d="M495.119,-171.167C506.119,-173.526 517.352,-175.874 528,-178 544.912,-181.377 563.076,-184.793 580.379,-187.948"/>
<polygon fill="midnightblue" stroke="midnightblue" points="495.618,-167.694 485.104,-169.003 494.14,-174.536 495.618,-167.694"/>
</g>
<!-- Node19 -->
<g id="node7" class="node"><title>Node19</title>
<g id="a_node7"><a xlink:href="../../d4/dfb/classorg_1_1lightjason_1_1trafficsimulation_1_1simulation_1_1stationary_1_1trafficlight_1_1TestCTrafficLightPedestrian.htm#a49d9e9afb1e4c87f54144c7a236363a7" target="_top" xlink:title="main method ">
<polygon fill="none" stroke="black" points="528,-141 528,-169 796,-169 796,-141 528,-141"/>
<text text-anchor="start" x="536" y="-157.8" font-family="Helvetica,sans-Serif" font-size="9.00">org.lightjason.trafficsimulation.simulation.stationary.trafficlight.</text>
<text text-anchor="middle" x="662" y="-147.8" font-family="Helvetica,sans-Serif" font-size="9.00">TestCTrafficLightPedestrian.main</text>
</a>
</g>
</g>
<!-- Node15&#45;&gt;Node19 -->
<g id="edge6" class="edge"><title>Node15&#45;&gt;Node19</title>
<path fill="none" stroke="midnightblue" d="M502.361,-155C510.545,-155 519.011,-155 527.578,-155"/>
<polygon fill="midnightblue" stroke="midnightblue" points="502.159,-151.5 492.159,-155 502.159,-158.5 502.159,-151.5"/>
</g>
<!-- Node20 -->
<g id="node8" class="node"><title>Node20</title>
<g id="a_node8"><a xlink:href="../../d5/d41/classorg_1_1lightjason_1_1trafficsimulation_1_1simulation_1_1stationary_1_1trafficlight_1_1TestCTrafficLightVehicle.htm#ae97407511116519bd4b6806c6827a9d5" target="_top" xlink:title="main method ">
<polygon fill="none" stroke="black" points="528,-94 528,-122 796,-122 796,-94 528,-94"/>
<text text-anchor="start" x="536" y="-110.8" font-family="Helvetica,sans-Serif" font-size="9.00">org.lightjason.trafficsimulation.simulation.stationary.trafficlight.</text>
<text text-anchor="middle" x="662" y="-100.8" font-family="Helvetica,sans-Serif" font-size="9.00">TestCTrafficLightVehicle.main</text>
</a>
</g>
</g>
<!-- Node15&#45;&gt;Node20 -->
<g id="edge7" class="edge"><title>Node15&#45;&gt;Node20</title>
<path fill="none" stroke="midnightblue" d="M495.119,-138.833C506.119,-136.474 517.352,-134.126 528,-132 544.912,-128.623 563.076,-125.207 580.379,-122.052"/>
<polygon fill="midnightblue" stroke="midnightblue" points="494.14,-135.464 485.104,-140.997 495.618,-142.306 494.14,-135.464"/>
</g>
<!-- Node21 -->
<g id="node9" class="node"><title>Node21</title>
<g id="a_node9"><a xlink:href="../../d8/d27/classorg_1_1lightjason_1_1trafficsimulation_1_1simulation_1_1movable_1_1TestCVehicle.htm#aed654a3bc0422a3614f44fb01fb744d9" target="_top" xlink:title="main method ">
<polygon fill="none" stroke="black" points="551,-47 551,-75 773,-75 773,-47 551,-47"/>
<text text-anchor="start" x="559" y="-63.8" font-family="Helvetica,sans-Serif" font-size="9.00">org.lightjason.trafficsimulation.simulation.movable.</text>
<text text-anchor="middle" x="662" y="-53.8" font-family="Helvetica,sans-Serif" font-size="9.00">TestCVehicle.main</text>
</a>
</g>
</g>
<!-- Node15&#45;&gt;Node21 -->
<g id="edge8" class="edge"><title>Node15&#45;&gt;Node21</title>
<path fill="none" stroke="midnightblue" d="M447.651,-134.286C467.943,-118.337 498.131,-97.0434 528,-85 537.684,-81.0955 548.019,-77.8233 558.488,-75.0814"/>
<polygon fill="midnightblue" stroke="midnightblue" points="445.201,-131.764 439.591,-140.751 449.581,-137.225 445.201,-131.764"/>
</g>
<!-- Node22 -->
<g id="node10" class="node"><title>Node22</title>
<g id="a_node10"><a xlink:href="../../dd/d76/classorg_1_1lightjason_1_1trafficsimulation_1_1simulation_1_1movable_1_1TestCViewPedstrian.htm#a63044054953010704a032dd67471ecd9" target="_top" xlink:title="test call ">
<polygon fill="none" stroke="black" points="551,-0 551,-28 773,-28 773,-0 551,-0"/>
<text text-anchor="start" x="559" y="-16.8" font-family="Helvetica,sans-Serif" font-size="9.00">org.lightjason.trafficsimulation.simulation.movable.</text>
<text text-anchor="middle" x="662" y="-6.8" font-family="Helvetica,sans-Serif" font-size="9.00">TestCViewPedstrian.main</text>
</a>
</g>
</g>
<!-- Node15&#45;&gt;Node22 -->
<g id="edge9" class="edge"><title>Node15&#45;&gt;Node22</title>
<path fill="none" stroke="midnightblue" d="M436.652,-132.25C454.202,-105.15 487.316,-60.702 528,-38 535.171,-33.9985 542.868,-30.6425 550.812,-27.8303"/>
<polygon fill="midnightblue" stroke="midnightblue" points="433.685,-130.393 431.309,-140.718 439.605,-134.129 433.685,-130.393"/>
</g>
</g>
</svg>
