<?xml version="1.0" encoding="UTF-8" standalone="no"?>
<!DOCTYPE svg PUBLIC "-//W3C//DTD SVG 1.1//EN"
 "http://www.w3.org/Graphics/SVG/1.1/DTD/svg11.dtd">
<!-- Generated by graphviz version 2.36.0 (20140111.2315)
 -->
<!-- Title: org.lightjason.trafficsimulation.IBaseTest.invoketest Pages: 1 -->
<svg width="500pt" height="83pt"
 viewBox="0.00 0.00 500.00 83.00" xmlns="http://www.w3.org/2000/svg" xmlns:xlink="http://www.w3.org/1999/xlink">
<g id="graph0" class="graph" transform="scale(1 1) rotate(0) translate(4 79)">
<title>org.lightjason.trafficsimulation.IBaseTest.invoketest</title>
<!-- Node59 -->
<g id="node1" class="node"><title>Node59</title>
<polygon fill="#bfbfbf" stroke="black" points="0,-23 0,-51 140,-51 140,-23 0,-23"/>
<text text-anchor="start" x="8" y="-39.8" font-family="Helvetica,sans-Serif" font-size="9.00">org.lightjason.trafficsimulation.</text>
<text text-anchor="middle" x="70" y="-29.8" font-family="Helvetica,sans-Serif" font-size="9.00">IBaseTest.invoketest</text>
</g>
<!-- Node60 -->
<g id="node2" class="node"><title>Node60</title>
<g id="a_node2"><a xlink:href="../../dd/d4d/classorg_1_1lightjason_1_1trafficsimulation_1_1IBaseTest.htm#a2ddcd9f229590c4aba0bb7f16cd46a78" target="_top" xlink:title="reads the before annotated methods ">
<polygon fill="none" stroke="black" points="176,-47 176,-75 316,-75 316,-47 176,-47"/>
<text text-anchor="start" x="184" y="-63.8" font-family="Helvetica,sans-Serif" font-size="9.00">org.lightjason.trafficsimulation.</text>
<text text-anchor="middle" x="246" y="-53.8" font-family="Helvetica,sans-Serif" font-size="9.00">IBaseTest.before</text>
</a>
</g>
</g>
<!-- Node59&#45;&gt;Node60 -->
<g id="edge1" class="edge"><title>Node59&#45;&gt;Node60</title>
<path fill="none" stroke="midnightblue" d="M140.019,-46.5199C148.476,-47.6863 157.169,-48.8854 165.761,-50.0704"/>
<polygon fill="midnightblue" stroke="midnightblue" points="165.395,-53.5531 175.779,-51.4523 166.352,-46.6187 165.395,-53.5531"/>
</g>
<!-- Node61 -->
<g id="node3" class="node"><title>Node61</title>
<g id="a_node3"><a xlink:href="../../dd/d4d/classorg_1_1lightjason_1_1trafficsimulation_1_1IBaseTest.htm#a3ddd0bcf774d2877cdfd068f7b74f121" target="_top" xlink:title="invoke method and read if possible the data&#45;provider ">
<polygon fill="none" stroke="black" points="176,-0 176,-28 316,-28 316,-0 176,-0"/>
<text text-anchor="start" x="184" y="-16.8" font-family="Helvetica,sans-Serif" font-size="9.00">org.lightjason.trafficsimulation.</text>
<text text-anchor="middle" x="246" y="-6.8" font-family="Helvetica,sans-Serif" font-size="9.00">IBaseTest.invoke</text>
</a>
</g>
</g>
<!-- Node59&#45;&gt;Node61 -->
<g id="edge2" class="edge"><title>Node59&#45;&gt;Node61</title>
<path fill="none" stroke="midnightblue" d="M140.019,-27.8768C148.476,-26.759 157.169,-25.6098 165.761,-24.4742"/>
<polygon fill="midnightblue" stroke="midnightblue" points="166.324,-27.9302 175.779,-23.1498 165.407,-20.9905 166.324,-27.9302"/>
</g>
<!-- Node62 -->
<g id="node4" class="node"><title>Node62</title>
<g id="a_node4"><a xlink:href="../../dd/d4d/classorg_1_1lightjason_1_1trafficsimulation_1_1IBaseTest.htm#a969ee3466db626521249bda39e8ae9f8" target="_top" xlink:title="invokes the method within the current object context ">
<polygon fill="none" stroke="black" points="352,-0 352,-28 492,-28 492,-0 352,-0"/>
<text text-anchor="start" x="360" y="-16.8" font-family="Helvetica,sans-Serif" font-size="9.00">org.lightjason.trafficsimulation.</text>
<text text-anchor="middle" x="422" y="-6.8" font-family="Helvetica,sans-Serif" font-size="9.00">IBaseTest.execute</text>
</a>
</g>
</g>
<!-- Node61&#45;&gt;Node62 -->
<g id="edge3" class="edge"><title>Node61&#45;&gt;Node62</title>
<path fill="none" stroke="midnightblue" d="M316.019,-14C324.476,-14 333.169,-14 341.761,-14"/>
<polygon fill="midnightblue" stroke="midnightblue" points="341.78,-17.5001 351.779,-14 341.779,-10.5001 341.78,-17.5001"/>
</g>
</g>
</svg>
