<?xml version="1.0" encoding="UTF-8" standalone="no"?>
<!DOCTYPE svg PUBLIC "-//W3C//DTD SVG 1.1//EN"
 "http://www.w3.org/Graphics/SVG/1.1/DTD/svg11.dtd">
<!-- Generated by graphviz version 2.36.0 (20140111.2315)
 -->
<!-- Title: org.lightjason.trafficsimulation.simulation.stationary.trafficlight.TestCTrafficLightVehicle.main Pages: 1 -->
<svg width="804pt" height="83pt"
 viewBox="0.00 0.00 804.00 83.00" xmlns="http://www.w3.org/2000/svg" xmlns:xlink="http://www.w3.org/1999/xlink">
<g id="graph0" class="graph" transform="scale(1 1) rotate(0) translate(4 79)">
<title>org.lightjason.trafficsimulation.simulation.stationary.trafficlight.TestCTrafficLightVehicle.main</title>
<!-- Node5 -->
<g id="node1" class="node"><title>Node5</title>
<polygon fill="#bfbfbf" stroke="black" points="0,-23 0,-51 268,-51 268,-23 0,-23"/>
<text text-anchor="start" x="8" y="-39.8" font-family="Helvetica,sans-Serif" font-size="9.00">org.lightjason.trafficsimulation.simulation.stationary.trafficlight.</text>
<text text-anchor="middle" x="134" y="-29.8" font-family="Helvetica,sans-Serif" font-size="9.00">TestCTrafficLightVehicle.main</text>
</g>
<!-- Node6 -->
<g id="node2" class="node"><title>Node6</title>
<g id="a_node2"><a xlink:href="../../dd/d4d/classorg_1_1lightjason_1_1trafficsimulation_1_1IBaseTest.htm#a30660d966a228cd681a34edf531253ab" target="_top" xlink:title="invoke all test manually ">
<polygon fill="none" stroke="black" points="304,-23 304,-51 444,-51 444,-23 304,-23"/>
<text text-anchor="start" x="312" y="-39.8" font-family="Helvetica,sans-Serif" font-size="9.00">org.lightjason.trafficsimulation.</text>
<text text-anchor="middle" x="374" y="-29.8" font-family="Helvetica,sans-Serif" font-size="9.00">IBaseTest.invoketest</text>
</a>
</g>
</g>
<!-- Node5&#45;&gt;Node6 -->
<g id="edge1" class="edge"><title>Node5&#45;&gt;Node6</title>
<path fill="none" stroke="midnightblue" d="M268.263,-37C276.852,-37 285.341,-37 293.546,-37"/>
<polygon fill="midnightblue" stroke="midnightblue" points="293.774,-40.5001 303.774,-37 293.774,-33.5001 293.774,-40.5001"/>
</g>
<!-- Node7 -->
<g id="node3" class="node"><title>Node7</title>
<g id="a_node3"><a xlink:href="../../dd/d4d/classorg_1_1lightjason_1_1trafficsimulation_1_1IBaseTest.htm#a2ddcd9f229590c4aba0bb7f16cd46a78" target="_top" xlink:title="reads the before annotated methods ">
<polygon fill="none" stroke="black" points="480,-47 480,-75 620,-75 620,-47 480,-47"/>
<text text-anchor="start" x="488" y="-63.8" font-family="Helvetica,sans-Serif" font-size="9.00">org.lightjason.trafficsimulation.</text>
<text text-anchor="middle" x="550" y="-53.8" font-family="Helvetica,sans-Serif" font-size="9.00">IBaseTest.before</text>
</a>
</g>
</g>
<!-- Node6&#45;&gt;Node7 -->
<g id="edge2" class="edge"><title>Node6&#45;&gt;Node7</title>
<path fill="none" stroke="midnightblue" d="M444.019,-46.5199C452.476,-47.6863 461.169,-48.8854 469.761,-50.0704"/>
<polygon fill="midnightblue" stroke="midnightblue" points="469.395,-53.5531 479.779,-51.4523 470.352,-46.6187 469.395,-53.5531"/>
</g>
<!-- Node8 -->
<g id="node4" class="node"><title>Node8</title>
<g id="a_node4"><a xlink:href="../../dd/d4d/classorg_1_1lightjason_1_1trafficsimulation_1_1IBaseTest.htm#a3ddd0bcf774d2877cdfd068f7b74f121" target="_top" xlink:title="invoke method and read if possible the data&#45;provider ">
<polygon fill="none" stroke="black" points="480,-0 480,-28 620,-28 620,-0 480,-0"/>
<text text-anchor="start" x="488" y="-16.8" font-family="Helvetica,sans-Serif" font-size="9.00">org.lightjason.trafficsimulation.</text>
<text text-anchor="middle" x="550" y="-6.8" font-family="Helvetica,sans-Serif" font-size="9.00">IBaseTest.invoke</text>
</a>
</g>
</g>
<!-- Node6&#45;&gt;Node8 -->
<g id="edge3" class="edge"><title>Node6&#45;&gt;Node8</title>
<path fill="none" stroke="midnightblue" d="M444.019,-27.8768C452.476,-26.759 461.169,-25.6098 469.761,-24.4742"/>
<polygon fill="midnightblue" stroke="midnightblue" points="470.324,-27.9302 479.779,-23.1498 469.407,-20.9905 470.324,-27.9302"/>
</g>
<!-- Node9 -->
<g id="node5" class="node"><title>Node9</title>
<g id="a_node5"><a xlink:href="../../dd/d4d/classorg_1_1lightjason_1_1trafficsimulation_1_1IBaseTest.htm#a969ee3466db626521249bda39e8ae9f8" target="_top" xlink:title="invokes the method within the current object context ">
<polygon fill="none" stroke="black" points="656,-0 656,-28 796,-28 796,-0 656,-0"/>
<text text-anchor="start" x="664" y="-16.8" font-family="Helvetica,sans-Serif" font-size="9.00">org.lightjason.trafficsimulation.</text>
<text text-anchor="middle" x="726" y="-6.8" font-family="Helvetica,sans-Serif" font-size="9.00">IBaseTest.execute</text>
</a>
</g>
</g>
<!-- Node8&#45;&gt;Node9 -->
<g id="edge4" class="edge"><title>Node8&#45;&gt;Node9</title>
<path fill="none" stroke="midnightblue" d="M620.019,-14C628.476,-14 637.169,-14 645.761,-14"/>
<polygon fill="midnightblue" stroke="midnightblue" points="645.78,-17.5001 655.779,-14 645.779,-10.5001 645.78,-17.5001"/>
</g>
</g>
</svg>
