<?xml version="1.0" encoding="UTF-8" standalone="no"?>
<!DOCTYPE svg PUBLIC "-//W3C//DTD SVG 1.1//EN"
 "http://www.w3.org/Graphics/SVG/1.1/DTD/svg11.dtd">
<!-- Generated by graphviz version 2.36.0 (20140111.2315)
 -->
<!-- Title: org.lightjason.trafficsimulation.simulation.stationary.trafficlight.TestCTrafficLightVehicle.initialize Pages: 1 -->
<svg width="678pt" height="83pt"
 viewBox="0.00 0.00 678.00 83.00" xmlns="http://www.w3.org/2000/svg" xmlns:xlink="http://www.w3.org/1999/xlink">
<g id="graph0" class="graph" transform="scale(1 1) rotate(0) translate(4 79)">
<title>org.lightjason.trafficsimulation.simulation.stationary.trafficlight.TestCTrafficLightVehicle.initialize</title>
<!-- Node0 -->
<g id="node1" class="node"><title>Node0</title>
<polygon fill="#bfbfbf" stroke="black" points="0,-23 0,-51 268,-51 268,-23 0,-23"/>
<text text-anchor="start" x="8" y="-39.8" font-family="Helvetica,sans-Serif" font-size="9.00">org.lightjason.trafficsimulation.simulation.stationary.trafficlight.</text>
<text text-anchor="middle" x="134" y="-29.8" font-family="Helvetica,sans-Serif" font-size="9.00">TestCTrafficLightVehicle.initialize</text>
</g>
<!-- Node1 -->
<g id="node2" class="node"><title>Node1</title>
<g id="a_node2"><a xlink:href="../../dd/d4d/classorg_1_1lightjason_1_1trafficsimulation_1_1IBaseTest.htm#a26710acb5a3cbd91313269e982d38579" target="_top" xlink:title="runs the object generation proecess ">
<polygon fill="none" stroke="black" points="306,-47 306,-75 446,-75 446,-47 306,-47"/>
<text text-anchor="start" x="314" y="-63.8" font-family="Helvetica,sans-Serif" font-size="9.00">org.lightjason.trafficsimulation.</text>
<text text-anchor="middle" x="376" y="-53.8" font-family="Helvetica,sans-Serif" font-size="9.00">IBaseTest.generate</text>
</a>
</g>
</g>
<!-- Node0&#45;&gt;Node1 -->
<g id="edge1" class="edge"><title>Node0&#45;&gt;Node1</title>
<path fill="none" stroke="midnightblue" d="M268.335,-50.3335C277.641,-51.2641 286.838,-52.1838 295.699,-53.0699"/>
<polygon fill="midnightblue" stroke="midnightblue" points="295.636,-56.5809 305.934,-54.0934 296.332,-49.6157 295.636,-56.5809"/>
</g>
<!-- Node3 -->
<g id="node4" class="node"><title>Node3</title>
<g id="a_node4"><a xlink:href="../../dd/d4d/classorg_1_1lightjason_1_1trafficsimulation_1_1IBaseTest.htm#a327cb5c02aa81015b30852a9b4a9ec80" target="_top" xlink:title="initialize environment ">
<polygon fill="none" stroke="black" points="304,-0 304,-28 448,-28 448,-0 304,-0"/>
<text text-anchor="start" x="312" y="-16.8" font-family="Helvetica,sans-Serif" font-size="9.00">org.lightjason.trafficsimulation.</text>
<text text-anchor="middle" x="376" y="-6.8" font-family="Helvetica,sans-Serif" font-size="9.00">IBaseTest.initializeenvironment</text>
</a>
</g>
</g>
<!-- Node0&#45;&gt;Node3 -->
<g id="edge3" class="edge"><title>Node0&#45;&gt;Node3</title>
<path fill="none" stroke="midnightblue" d="M268.335,-24.2221C277.002,-23.3914 285.576,-22.5698 293.872,-21.7748"/>
<polygon fill="midnightblue" stroke="midnightblue" points="294.22,-25.2575 303.841,-20.8194 293.553,-18.2894 294.22,-25.2575"/>
</g>
<!-- Node2 -->
<g id="node3" class="node"><title>Node2</title>
<g id="a_node3"><a xlink:href="../../df/d31/enumorg_1_1lightjason_1_1trafficsimulation_1_1simulation_1_1EObjectFactory.htm#a7f649148ce89b9428f1ad535d8c71301" target="_top" xlink:title="generates a agent generator ">
<polygon fill="none" stroke="black" points="484.5,-47 484.5,-75 669.5,-75 669.5,-47 484.5,-47"/>
<text text-anchor="start" x="492.5" y="-63.8" font-family="Helvetica,sans-Serif" font-size="9.00">org.lightjason.trafficsimulation.simulation.</text>
<text text-anchor="middle" x="577" y="-53.8" font-family="Helvetica,sans-Serif" font-size="9.00">EObjectFactory.generate</text>
</a>
</g>
</g>
<!-- Node1&#45;&gt;Node2 -->
<g id="edge2" class="edge"><title>Node1&#45;&gt;Node2</title>
<path fill="none" stroke="midnightblue" d="M446.042,-61C455.11,-61 464.552,-61 474.024,-61"/>
<polygon fill="midnightblue" stroke="midnightblue" points="474.297,-64.5001 484.297,-61 474.297,-57.5001 474.297,-64.5001"/>
</g>
</g>
</svg>
