<?xml version="1.0" encoding="UTF-8" standalone="no"?>
<!DOCTYPE svg PUBLIC "-//W3C//DTD SVG 1.1//EN"
 "http://www.w3.org/Graphics/SVG/1.1/DTD/svg11.dtd">
<!-- Generated by graphviz version 2.36.0 (20140111.2315)
 -->
<!-- Title: org.lightjason.trafficsimulation.simulation.movable.CVehicle Pages: 1 -->
<svg width="688pt" height="1118pt"
 viewBox="0.00 0.00 688.00 1118.00" xmlns="http://www.w3.org/2000/svg" xmlns:xlink="http://www.w3.org/1999/xlink">
<g id="graph0" class="graph" transform="scale(1 1) rotate(0) translate(4 1114)">
<title>org.lightjason.trafficsimulation.simulation.movable.CVehicle</title>
<!-- Node9 -->
<g id="node1" class="node"><title>Node9</title>
<polygon fill="#bfbfbf" stroke="black" points="341,-1 341,-115 563,-115 563,-1 341,-1"/>
<text text-anchor="start" x="349" y="-103.8" font-family="Helvetica,sans-Serif" font-size="9.00">org.lightjason.trafficsimulation.simulation.movable.</text>
<text text-anchor="middle" x="452" y="-93.8" font-family="Helvetica,sans-Serif" font-size="9.00">CVehicle</text>
<polyline fill="none" stroke="black" points="341,-87 563,-87 "/>
<text text-anchor="start" x="349" y="-75.8" font-family="Helvetica,sans-Serif" font-size="9.00">&#45; COUNTER</text>
<text text-anchor="start" x="349" y="-65.8" font-family="Helvetica,sans-Serif" font-size="9.00">&#45; FUNCTOR</text>
<text text-anchor="start" x="349" y="-55.8" font-family="Helvetica,sans-Serif" font-size="9.00">&#45; serialVersionUID</text>
<polyline fill="none" stroke="black" points="341,-49 563,-49 "/>
<text text-anchor="start" x="349" y="-37.8" font-family="Helvetica,sans-Serif" font-size="9.00"># individualliteral()</text>
<text text-anchor="start" x="349" y="-27.8" font-family="Helvetica,sans-Serif" font-size="9.00">&#45; CVehicle()</text>
<text text-anchor="start" x="349" y="-17.8" font-family="Helvetica,sans-Serif" font-size="9.00">&#45; accelerate()</text>
<text text-anchor="start" x="349" y="-7.8" font-family="Helvetica,sans-Serif" font-size="9.00">&#45; deccelerate()</text>
</g>
<!-- Node10 -->
<g id="node2" class="node"><title>Node10</title>
<g id="a_node2"><a xlink:href="../../d5/df4/classorg_1_1lightjason_1_1trafficsimulation_1_1simulation_1_1movable_1_1IBaseMoveable.htm" target="_top" xlink:title="{org.lightjason.trafficsimulation.simulation.movable.\lIBaseMoveable\&lt; CVehicle \&gt;\n|# GROUP\l&#45; m_route\l&#45; m_speed\l&#45; serialVersionUID\l|+ move()\l+ moveable()\l# IBaseMoveable()\l&#45; cells()\l&#45; goal()\l&#45; route()\l&#45; routeatend()\l&#45; routeatstart()\l&#45; routeestimatedtime()\l&#45; routenext()\l&#45; routeskip()\l}">
<polygon fill="none" stroke="black" points="341,-155 341,-349 563,-349 563,-155 341,-155"/>
<text text-anchor="start" x="349" y="-337.8" font-family="Helvetica,sans-Serif" font-size="9.00">org.lightjason.trafficsimulation.simulation.movable.</text>
<text text-anchor="middle" x="452" y="-327.8" font-family="Helvetica,sans-Serif" font-size="9.00">IBaseMoveable&lt; CVehicle &gt;</text>
<polyline fill="none" stroke="black" points="341,-321 563,-321 "/>
<text text-anchor="start" x="349" y="-309.8" font-family="Helvetica,sans-Serif" font-size="9.00"># GROUP</text>
<text text-anchor="start" x="349" y="-299.8" font-family="Helvetica,sans-Serif" font-size="9.00">&#45; m_route</text>
<text text-anchor="start" x="349" y="-289.8" font-family="Helvetica,sans-Serif" font-size="9.00">&#45; m_speed</text>
<text text-anchor="start" x="349" y="-279.8" font-family="Helvetica,sans-Serif" font-size="9.00">&#45; serialVersionUID</text>
<polyline fill="none" stroke="black" points="341,-273 563,-273 "/>
<text text-anchor="start" x="349" y="-261.8" font-family="Helvetica,sans-Serif" font-size="9.00">+ move()</text>
<text text-anchor="start" x="349" y="-251.8" font-family="Helvetica,sans-Serif" font-size="9.00">+ moveable()</text>
<text text-anchor="start" x="349" y="-241.8" font-family="Helvetica,sans-Serif" font-size="9.00"># IBaseMoveable()</text>
<text text-anchor="start" x="349" y="-231.8" font-family="Helvetica,sans-Serif" font-size="9.00">&#45; cells()</text>
<text text-anchor="start" x="349" y="-221.8" font-family="Helvetica,sans-Serif" font-size="9.00">&#45; goal()</text>
<text text-anchor="start" x="349" y="-211.8" font-family="Helvetica,sans-Serif" font-size="9.00">&#45; route()</text>
<text text-anchor="start" x="349" y="-201.8" font-family="Helvetica,sans-Serif" font-size="9.00">&#45; routeatend()</text>
<text text-anchor="start" x="349" y="-191.8" font-family="Helvetica,sans-Serif" font-size="9.00">&#45; routeatstart()</text>
<text text-anchor="start" x="349" y="-181.8" font-family="Helvetica,sans-Serif" font-size="9.00">&#45; routeestimatedtime()</text>
<text text-anchor="start" x="349" y="-171.8" font-family="Helvetica,sans-Serif" font-size="9.00">&#45; routenext()</text>
<text text-anchor="start" x="349" y="-161.8" font-family="Helvetica,sans-Serif" font-size="9.00">&#45; routeskip()</text>
</a>
</g>
</g>
<!-- Node10&#45;&gt;Node9 -->
<g id="edge1" class="edge"><title>Node10&#45;&gt;Node9</title>
<path fill="none" stroke="midnightblue" d="M452,-144.562C452,-134.44 452,-124.475 452,-115.124"/>
<polygon fill="none" stroke="midnightblue" points="448.5,-144.719 452,-154.719 455.5,-144.719 448.5,-144.719"/>
</g>
<!-- Node11 -->
<g id="node3" class="node"><title>Node11</title>
<g id="a_node3"><a xlink:href="../../d5/df4/classorg_1_1lightjason_1_1trafficsimulation_1_1simulation_1_1movable_1_1IBaseMoveable.htm" target="_top" xlink:title="moveable object ">
<polygon fill="none" stroke="black" points="341,-397 341,-591 563,-591 563,-397 341,-397"/>
<text text-anchor="start" x="349" y="-579.8" font-family="Helvetica,sans-Serif" font-size="9.00">org.lightjason.trafficsimulation.simulation.movable.</text>
<text text-anchor="middle" x="452" y="-569.8" font-family="Helvetica,sans-Serif" font-size="9.00">IBaseMoveable&lt; T extends IBaseMoveable&lt;?&gt;</text>
<polyline fill="none" stroke="black" points="341,-563 563,-563 "/>
<text text-anchor="start" x="349" y="-551.8" font-family="Helvetica,sans-Serif" font-size="9.00"># GROUP</text>
<text text-anchor="start" x="349" y="-541.8" font-family="Helvetica,sans-Serif" font-size="9.00">&#45; m_route</text>
<text text-anchor="start" x="349" y="-531.8" font-family="Helvetica,sans-Serif" font-size="9.00">&#45; m_speed</text>
<text text-anchor="start" x="349" y="-521.8" font-family="Helvetica,sans-Serif" font-size="9.00">&#45; serialVersionUID</text>
<polyline fill="none" stroke="black" points="341,-515 563,-515 "/>
<text text-anchor="start" x="349" y="-503.8" font-family="Helvetica,sans-Serif" font-size="9.00">+ move()</text>
<text text-anchor="start" x="349" y="-493.8" font-family="Helvetica,sans-Serif" font-size="9.00">+ moveable()</text>
<text text-anchor="start" x="349" y="-483.8" font-family="Helvetica,sans-Serif" font-size="9.00"># IBaseMoveable()</text>
<text text-anchor="start" x="349" y="-473.8" font-family="Helvetica,sans-Serif" font-size="9.00">&#45; cells()</text>
<text text-anchor="start" x="349" y="-463.8" font-family="Helvetica,sans-Serif" font-size="9.00">&#45; goal()</text>
<text text-anchor="start" x="349" y="-453.8" font-family="Helvetica,sans-Serif" font-size="9.00">&#45; route()</text>
<text text-anchor="start" x="349" y="-443.8" font-family="Helvetica,sans-Serif" font-size="9.00">&#45; routeatend()</text>
<text text-anchor="start" x="349" y="-433.8" font-family="Helvetica,sans-Serif" font-size="9.00">&#45; routeatstart()</text>
<text text-anchor="start" x="349" y="-423.8" font-family="Helvetica,sans-Serif" font-size="9.00">&#45; routeestimatedtime()</text>
<text text-anchor="start" x="349" y="-413.8" font-family="Helvetica,sans-Serif" font-size="9.00">&#45; routenext()</text>
<text text-anchor="start" x="349" y="-403.8" font-family="Helvetica,sans-Serif" font-size="9.00">&#45; routeskip()</text>
</a>
</g>
</g>
<!-- Node11&#45;&gt;Node10 -->
<g id="edge2" class="edge"><title>Node11&#45;&gt;Node10</title>
<path fill="none" stroke="orange" d="M452,-386.427C452,-374.051 452,-361.482 452,-349.256"/>
<polygon fill="orange" stroke="orange" points="448.5,-386.766 452,-396.766 455.5,-386.766 448.5,-386.766"/>
<text text-anchor="middle" x="479.5" y="-370.8" font-family="Helvetica,sans-Serif" font-size="9.00"> &lt; CVehicle &gt;</text>
</g>
<!-- Node12 -->
<g id="node4" class="node"><title>Node12</title>
<g id="a_node4"><a xlink:href="../../d5/d6f/classorg_1_1lightjason_1_1trafficsimulation_1_1simulation_1_1IBaseObject.htm" target="_top" xlink:title="base agent object ">
<polygon fill="none" stroke="black" points="250.5,-631 250.5,-805 393.5,-805 393.5,-631 250.5,-631"/>
<text text-anchor="start" x="258.5" y="-793.8" font-family="Helvetica,sans-Serif" font-size="9.00">org::lightjason::trafficsimulation</text>
<text text-anchor="middle" x="322" y="-783.8" font-family="Helvetica,sans-Serif" font-size="9.00">::simulation::IBaseObject&lt; T &gt;</text>
<polyline fill="none" stroke="black" points="250.5,-777 393.5,-777 "/>
<text text-anchor="start" x="258.5" y="-765.8" font-family="Helvetica,sans-Serif" font-size="9.00"># m_position</text>
<text text-anchor="start" x="258.5" y="-755.8" font-family="Helvetica,sans-Serif" font-size="9.00">&#45; m_external</text>
<text text-anchor="start" x="258.5" y="-745.8" font-family="Helvetica,sans-Serif" font-size="9.00">&#45; m_functor</text>
<text text-anchor="start" x="258.5" y="-735.8" font-family="Helvetica,sans-Serif" font-size="9.00">&#45; m_name</text>
<text text-anchor="start" x="258.5" y="-725.8" font-family="Helvetica,sans-Serif" font-size="9.00">&#45; serialVersionUID</text>
<polyline fill="none" stroke="black" points="250.5,-719 393.5,-719 "/>
<text text-anchor="start" x="258.5" y="-707.8" font-family="Helvetica,sans-Serif" font-size="9.00">+ equals()</text>
<text text-anchor="start" x="258.5" y="-697.8" font-family="Helvetica,sans-Serif" font-size="9.00">+ hashCode()</text>
<text text-anchor="start" x="258.5" y="-687.8" font-family="Helvetica,sans-Serif" font-size="9.00">+ literal()</text>
<text text-anchor="start" x="258.5" y="-677.8" font-family="Helvetica,sans-Serif" font-size="9.00">+ literal()</text>
<text text-anchor="start" x="258.5" y="-667.8" font-family="Helvetica,sans-Serif" font-size="9.00">+ name()</text>
<text text-anchor="start" x="258.5" y="-657.8" font-family="Helvetica,sans-Serif" font-size="9.00">+ position()</text>
<text text-anchor="start" x="258.5" y="-647.8" font-family="Helvetica,sans-Serif" font-size="9.00"># IBaseObject()</text>
<text text-anchor="start" x="258.5" y="-637.8" font-family="Helvetica,sans-Serif" font-size="9.00"># individualliteral()</text>
</a>
</g>
</g>
<!-- Node12&#45;&gt;Node11 -->
<g id="edge3" class="edge"><title>Node12&#45;&gt;Node11</title>
<path fill="none" stroke="midnightblue" d="M377.676,-621.922C383.664,-611.697 389.759,-601.288 395.754,-591.052"/>
<polygon fill="none" stroke="midnightblue" points="374.48,-620.453 372.447,-630.851 380.521,-623.991 374.48,-620.453"/>
</g>
<!-- Node13 -->
<g id="node5" class="node"><title>Node13</title>
<g id="a_node5"><a xlink:href="../../d5/dea/interfaceorg_1_1lightjason_1_1trafficsimulation_1_1simulation_1_1IObject.htm" target="_top" xlink:title="{org.lightjason.trafficsimulation.simulation.\lIObject\&lt; T \&gt;\n||+ literal()\l+ literal()\l+ name()\l+ position()\l}">
<polygon fill="none" stroke="black" points="-0.5,-863 -0.5,-957 184.5,-957 184.5,-863 -0.5,-863"/>
<text text-anchor="start" x="7.5" y="-945.8" font-family="Helvetica,sans-Serif" font-size="9.00">org.lightjason.trafficsimulation.simulation.</text>
<text text-anchor="middle" x="92" y="-935.8" font-family="Helvetica,sans-Serif" font-size="9.00">IObject&lt; T &gt;</text>
<polyline fill="none" stroke="black" points="-0.5,-929 184.5,-929 "/>
<text text-anchor="middle" x="92" y="-917.8" font-family="Helvetica,sans-Serif" font-size="9.00"> </text>
<polyline fill="none" stroke="black" points="-0.5,-911 184.5,-911 "/>
<text text-anchor="start" x="7.5" y="-899.8" font-family="Helvetica,sans-Serif" font-size="9.00">+ literal()</text>
<text text-anchor="start" x="7.5" y="-889.8" font-family="Helvetica,sans-Serif" font-size="9.00">+ literal()</text>
<text text-anchor="start" x="7.5" y="-879.8" font-family="Helvetica,sans-Serif" font-size="9.00">+ name()</text>
<text text-anchor="start" x="7.5" y="-869.8" font-family="Helvetica,sans-Serif" font-size="9.00">+ position()</text>
</a>
</g>
</g>
<!-- Node13&#45;&gt;Node12 -->
<g id="edge4" class="edge"><title>Node13&#45;&gt;Node12</title>
<path fill="none" stroke="midnightblue" d="M155.712,-856.369C185.118,-832.076 220.152,-803.135 250.463,-778.096"/>
<polygon fill="none" stroke="midnightblue" points="153.451,-853.697 147.97,-862.764 157.909,-859.093 153.451,-853.697"/>
</g>
<!-- Node14 -->
<g id="node6" class="node"><title>Node14</title>
<g id="a_node6"><a xlink:href="../../d5/dea/interfaceorg_1_1lightjason_1_1trafficsimulation_1_1simulation_1_1IObject.htm" target="_top" xlink:title="object interface ">
<polygon fill="none" stroke="black" points="-0.5,-1015 -0.5,-1109 184.5,-1109 184.5,-1015 -0.5,-1015"/>
<text text-anchor="start" x="7.5" y="-1097.8" font-family="Helvetica,sans-Serif" font-size="9.00">org.lightjason.trafficsimulation.simulation.</text>
<text text-anchor="middle" x="92" y="-1087.8" font-family="Helvetica,sans-Serif" font-size="9.00">IObject&lt; T extends IAgent&lt;?&gt;</text>
<polyline fill="none" stroke="black" points="-0.5,-1081 184.5,-1081 "/>
<text text-anchor="middle" x="92" y="-1069.8" font-family="Helvetica,sans-Serif" font-size="9.00"> </text>
<polyline fill="none" stroke="black" points="-0.5,-1063 184.5,-1063 "/>
<text text-anchor="start" x="7.5" y="-1051.8" font-family="Helvetica,sans-Serif" font-size="9.00">+ literal()</text>
<text text-anchor="start" x="7.5" y="-1041.8" font-family="Helvetica,sans-Serif" font-size="9.00">+ literal()</text>
<text text-anchor="start" x="7.5" y="-1031.8" font-family="Helvetica,sans-Serif" font-size="9.00">+ name()</text>
<text text-anchor="start" x="7.5" y="-1021.8" font-family="Helvetica,sans-Serif" font-size="9.00">+ position()</text>
</a>
</g>
</g>
<!-- Node14&#45;&gt;Node13 -->
<g id="edge5" class="edge"><title>Node14&#45;&gt;Node13</title>
<path fill="none" stroke="orange" d="M92,-1004.66C92,-988.963 92,-972.105 92,-957.076"/>
<polygon fill="orange" stroke="orange" points="88.5001,-1004.77 92,-1014.77 95.5001,-1004.77 88.5001,-1004.77"/>
<text text-anchor="middle" x="103.5" y="-988.8" font-family="Helvetica,sans-Serif" font-size="9.00"> &lt; T &gt;</text>
</g>
<!-- Node15 -->
<g id="node7" class="node"><title>Node15</title>
<g id="a_node7"><a xlink:href="../../d5/d10/interfaceorg_1_1lightjason_1_1trafficsimulation_1_1simulation_1_1environment_1_1IEnvironment.htm" target="_top" xlink:title="environment interface ">
<polygon fill="none" stroke="black" points="203,-853 203,-967 441,-967 441,-853 203,-853"/>
<text text-anchor="start" x="211" y="-955.8" font-family="Helvetica,sans-Serif" font-size="9.00">org.lightjason.trafficsimulation.simulation.environment.</text>
<text text-anchor="middle" x="322" y="-945.8" font-family="Helvetica,sans-Serif" font-size="9.00">IEnvironment</text>
<polyline fill="none" stroke="black" points="203,-939 441,-939 "/>
<text text-anchor="middle" x="322" y="-927.8" font-family="Helvetica,sans-Serif" font-size="9.00"> </text>
<polyline fill="none" stroke="black" points="203,-921 441,-921 "/>
<text text-anchor="start" x="211" y="-909.8" font-family="Helvetica,sans-Serif" font-size="9.00">+ empty()</text>
<text text-anchor="start" x="211" y="-899.8" font-family="Helvetica,sans-Serif" font-size="9.00">+ get()</text>
<text text-anchor="start" x="211" y="-889.8" font-family="Helvetica,sans-Serif" font-size="9.00">+ move()</text>
<text text-anchor="start" x="211" y="-879.8" font-family="Helvetica,sans-Serif" font-size="9.00">+ remove()</text>
<text text-anchor="start" x="211" y="-869.8" font-family="Helvetica,sans-Serif" font-size="9.00">+ route()</text>
<text text-anchor="start" x="211" y="-859.8" font-family="Helvetica,sans-Serif" font-size="9.00">+ routestimatedtime()</text>
</a>
</g>
</g>
<!-- Node15&#45;&gt;Node12 -->
<g id="edge6" class="edge"><title>Node15&#45;&gt;Node12</title>
<path fill="none" stroke="#404040" d="M322,-852.765C322,-841.521 322,-829.403 322,-817.215"/>
<polygon fill="none" stroke="#404040" points="322,-817.032 318,-811.032 322,-805.032 326,-811.032 322,-817.032"/>
<text text-anchor="middle" x="358" y="-826.8" font-family="Helvetica,sans-Serif" font-size="9.00"> #m_environment</text>
</g>
<!-- Node16 -->
<g id="node8" class="node"><title>Node16</title>
<g id="a_node8"><a xlink:href="../../d5/dea/interfaceorg_1_1lightjason_1_1trafficsimulation_1_1simulation_1_1IObject.htm" target="_top" xlink:title="object interface ">
<polygon fill="none" stroke="black" points="239.5,-1015 239.5,-1109 404.5,-1109 404.5,-1015 239.5,-1015"/>
<text text-anchor="start" x="247.5" y="-1097.8" font-family="Helvetica,sans-Serif" font-size="9.00">org::lightjason::trafficsimulation</text>
<text text-anchor="middle" x="322" y="-1087.8" font-family="Helvetica,sans-Serif" font-size="9.00">::simulation::IObject&lt; IEnvironment &gt;</text>
<polyline fill="none" stroke="black" points="239.5,-1081 404.5,-1081 "/>
<text text-anchor="middle" x="322" y="-1069.8" font-family="Helvetica,sans-Serif" font-size="9.00"> </text>
<polyline fill="none" stroke="black" points="239.5,-1063 404.5,-1063 "/>
<text text-anchor="start" x="247.5" y="-1051.8" font-family="Helvetica,sans-Serif" font-size="9.00">+ literal()</text>
<text text-anchor="start" x="247.5" y="-1041.8" font-family="Helvetica,sans-Serif" font-size="9.00">+ literal()</text>
<text text-anchor="start" x="247.5" y="-1031.8" font-family="Helvetica,sans-Serif" font-size="9.00">+ name()</text>
<text text-anchor="start" x="247.5" y="-1021.8" font-family="Helvetica,sans-Serif" font-size="9.00">+ position()</text>
</a>
</g>
</g>
<!-- Node16&#45;&gt;Node15 -->
<g id="edge7" class="edge"><title>Node16&#45;&gt;Node15</title>
<path fill="none" stroke="midnightblue" d="M322,-1004.65C322,-992.374 322,-979.381 322,-967.11"/>
<polygon fill="none" stroke="midnightblue" points="318.5,-1004.77 322,-1014.77 325.5,-1004.77 318.5,-1004.77"/>
</g>
<!-- Node17 -->
<g id="node9" class="node"><title>Node17</title>
<g id="a_node9"><a xlink:href="../../d6/d59/interfaceorg_1_1lightjason_1_1trafficsimulation_1_1simulation_1_1movable_1_1IMoveable.htm" target="_top" xlink:title="{org.lightjason.trafficsimulation.simulation.movable.\lIMoveable\&lt; T \&gt;\n||+ move()\l+ moveable()\l}">
<polygon fill="none" stroke="black" points="424,-681 424,-755 646,-755 646,-681 424,-681"/>
<text text-anchor="start" x="432" y="-743.8" font-family="Helvetica,sans-Serif" font-size="9.00">org.lightjason.trafficsimulation.simulation.movable.</text>
<text text-anchor="middle" x="535" y="-733.8" font-family="Helvetica,sans-Serif" font-size="9.00">IMoveable&lt; T &gt;</text>
<polyline fill="none" stroke="black" points="424,-727 646,-727 "/>
<text text-anchor="middle" x="535" y="-715.8" font-family="Helvetica,sans-Serif" font-size="9.00"> </text>
<polyline fill="none" stroke="black" points="424,-709 646,-709 "/>
<text text-anchor="start" x="432" y="-697.8" font-family="Helvetica,sans-Serif" font-size="9.00">+ move()</text>
<text text-anchor="start" x="432" y="-687.8" font-family="Helvetica,sans-Serif" font-size="9.00">+ moveable()</text>
</a>
</g>
</g>
<!-- Node17&#45;&gt;Node11 -->
<g id="edge8" class="edge"><title>Node17&#45;&gt;Node11</title>
<path fill="none" stroke="midnightblue" d="M517.901,-671.265C509.216,-648.035 498.319,-618.89 487.902,-591.027"/>
<polygon fill="none" stroke="midnightblue" points="514.699,-672.697 521.48,-680.838 521.256,-670.245 514.699,-672.697"/>
</g>
<!-- Node18 -->
<g id="node10" class="node"><title>Node18</title>
<g id="a_node10"><a xlink:href="../../d6/d59/interfaceorg_1_1lightjason_1_1trafficsimulation_1_1simulation_1_1movable_1_1IMoveable.htm" target="_top" xlink:title="moveable interface ">
<polygon fill="none" stroke="black" points="459,-873 459,-947 681,-947 681,-873 459,-873"/>
<text text-anchor="start" x="467" y="-935.8" font-family="Helvetica,sans-Serif" font-size="9.00">org.lightjason.trafficsimulation.simulation.movable.</text>
<text text-anchor="middle" x="570" y="-925.8" font-family="Helvetica,sans-Serif" font-size="9.00">IMoveable&lt; T extends IMoveable&lt;?&gt;</text>
<polyline fill="none" stroke="black" points="459,-919 681,-919 "/>
<text text-anchor="middle" x="570" y="-907.8" font-family="Helvetica,sans-Serif" font-size="9.00"> </text>
<polyline fill="none" stroke="black" points="459,-901 681,-901 "/>
<text text-anchor="start" x="467" y="-889.8" font-family="Helvetica,sans-Serif" font-size="9.00">+ move()</text>
<text text-anchor="start" x="467" y="-879.8" font-family="Helvetica,sans-Serif" font-size="9.00">+ moveable()</text>
</a>
</g>
</g>
<!-- Node18&#45;&gt;Node17 -->
<g id="edge9" class="edge"><title>Node18&#45;&gt;Node17</title>
<path fill="none" stroke="orange" d="M561.508,-862.902C555.4,-829.74 547.277,-785.649 541.641,-755.05"/>
<polygon fill="orange" stroke="orange" points="558.081,-863.615 563.334,-872.815 564.965,-862.347 558.081,-863.615"/>
<text text-anchor="middle" x="567.5" y="-826.8" font-family="Helvetica,sans-Serif" font-size="9.00"> &lt; T &gt;</text>
</g>
<!-- Node19 -->
<g id="node11" class="node"><title>Node19</title>
<g id="a_node11"><a xlink:href="../../d5/dea/interfaceorg_1_1lightjason_1_1trafficsimulation_1_1simulation_1_1IObject.htm" target="_top" xlink:title="object interface ">
<polygon fill="none" stroke="black" points="498.5,-1015 498.5,-1109 641.5,-1109 641.5,-1015 498.5,-1015"/>
<text text-anchor="start" x="506.5" y="-1097.8" font-family="Helvetica,sans-Serif" font-size="9.00">org::lightjason::trafficsimulation</text>
<text text-anchor="middle" x="570" y="-1087.8" font-family="Helvetica,sans-Serif" font-size="9.00">::simulation::IObject&lt; T &gt;</text>
<polyline fill="none" stroke="black" points="498.5,-1081 641.5,-1081 "/>
<text text-anchor="middle" x="570" y="-1069.8" font-family="Helvetica,sans-Serif" font-size="9.00"> </text>
<polyline fill="none" stroke="black" points="498.5,-1063 641.5,-1063 "/>
<text text-anchor="start" x="506.5" y="-1051.8" font-family="Helvetica,sans-Serif" font-size="9.00">+ literal()</text>
<text text-anchor="start" x="506.5" y="-1041.8" font-family="Helvetica,sans-Serif" font-size="9.00">+ literal()</text>
<text text-anchor="start" x="506.5" y="-1031.8" font-family="Helvetica,sans-Serif" font-size="9.00">+ name()</text>
<text text-anchor="start" x="506.5" y="-1021.8" font-family="Helvetica,sans-Serif" font-size="9.00">+ position()</text>
</a>
</g>
</g>
<!-- Node19&#45;&gt;Node18 -->
<g id="edge10" class="edge"><title>Node19&#45;&gt;Node18</title>
<path fill="none" stroke="midnightblue" d="M570,-1004.63C570,-985.437 570,-964.512 570,-947.32"/>
<polygon fill="none" stroke="midnightblue" points="566.5,-1004.77 570,-1014.77 573.5,-1004.77 566.5,-1004.77"/>
</g>
</g>
</svg>
