<?xml version="1.0" encoding="UTF-8" standalone="no"?>
<!DOCTYPE svg PUBLIC "-//W3C//DTD SVG 1.1//EN"
 "http://www.w3.org/Graphics/SVG/1.1/DTD/svg11.dtd">
<!-- Generated by graphviz version 2.36.0 (20140111.2315)
 -->
<!-- Title: org.lightjason.trafficsimulation.simulation.environment.CEnvironment.CGenerator.generate Pages: 1 -->
<svg width="520pt" height="83pt"
 viewBox="0.00 0.00 520.00 83.00" xmlns="http://www.w3.org/2000/svg" xmlns:xlink="http://www.w3.org/1999/xlink">
<g id="graph0" class="graph" transform="scale(1 1) rotate(0) translate(4 79)">
<title>org.lightjason.trafficsimulation.simulation.environment.CEnvironment.CGenerator.generate</title>
<!-- Node2 -->
<g id="node1" class="node"><title>Node2</title>
<polygon fill="#bfbfbf" stroke="black" points="0,-23 0,-51 238,-51 238,-23 0,-23"/>
<text text-anchor="start" x="8" y="-39.8" font-family="Helvetica,sans-Serif" font-size="9.00">org.lightjason.trafficsimulation.simulation.environment.</text>
<text text-anchor="middle" x="119" y="-29.8" font-family="Helvetica,sans-Serif" font-size="9.00">CEnvironment.CGenerator.generate</text>
</g>
<!-- Node3 -->
<g id="node2" class="node"><title>Node3</title>
<g id="a_node2"><a xlink:href="../../d4/d51/classorg_1_1lightjason_1_1trafficsimulation_1_1simulation_1_1environment_1_1CEnvironment.htm#aa1f50d99b32842221bd1747524943288" target="_top" xlink:title="ctor ">
<polygon fill="none" stroke="black" points="274,-47 274,-75 512,-75 512,-47 274,-47"/>
<text text-anchor="start" x="282" y="-63.8" font-family="Helvetica,sans-Serif" font-size="9.00">org.lightjason.trafficsimulation.simulation.environment.</text>
<text text-anchor="middle" x="393" y="-53.8" font-family="Helvetica,sans-Serif" font-size="9.00">CEnvironment.CEnvironment</text>
</a>
</g>
</g>
<!-- Node2&#45;&gt;Node3 -->
<g id="edge1" class="edge"><title>Node2&#45;&gt;Node3</title>
<path fill="none" stroke="midnightblue" d="M238.116,-47.422C246.474,-48.1595 254.924,-48.9051 263.336,-49.6473"/>
<polygon fill="midnightblue" stroke="midnightblue" points="263.301,-53.1577 273.57,-50.5503 263.916,-46.1848 263.301,-53.1577"/>
</g>
<!-- Node4 -->
<g id="node3" class="node"><title>Node4</title>
<g id="a_node3"><a xlink:href="../../df/df4/classorg_1_1lightjason_1_1trafficsimulation_1_1CConfiguration.htm#a3d80115506e50879157019ceb3bef77e" target="_top" xlink:title="returns a beliefbase view ">
<polygon fill="none" stroke="black" points="323,-0 323,-28 463,-28 463,-0 323,-0"/>
<text text-anchor="start" x="331" y="-16.8" font-family="Helvetica,sans-Serif" font-size="9.00">org.lightjason.trafficsimulation.</text>
<text text-anchor="middle" x="393" y="-6.8" font-family="Helvetica,sans-Serif" font-size="9.00">CConfiguration.view</text>
</a>
</g>
</g>
<!-- Node2&#45;&gt;Node4 -->
<g id="edge2" class="edge"><title>Node2&#45;&gt;Node4</title>
<path fill="none" stroke="midnightblue" d="M238.116,-27.0122C263.344,-24.879 289.407,-22.6752 312.751,-20.7012"/>
<polygon fill="midnightblue" stroke="midnightblue" points="313.255,-24.1712 322.925,-19.8409 312.665,-17.196 313.255,-24.1712"/>
</g>
</g>
</svg>
