<?xml version="1.0" encoding="UTF-8" standalone="no"?>
<!DOCTYPE svg PUBLIC "-//W3C//DTD SVG 1.1//EN"
 "http://www.w3.org/Graphics/SVG/1.1/DTD/svg11.dtd">
<!-- Generated by graphviz version 2.36.0 (20140111.2315)
 -->
<!-- Title: org.lightjason.trafficsimulation.simulation.stationary.trafficlight.ITrafficLightColor&lt; T extends Enum&lt;?&gt; Pages: 1 -->
<svg width="562pt" height="340pt"
 viewBox="0.00 0.00 562.00 340.00" xmlns="http://www.w3.org/2000/svg" xmlns:xlink="http://www.w3.org/1999/xlink">
<g id="graph0" class="graph" transform="scale(1 1) rotate(0) translate(4 336)">
<title>org.lightjason.trafficsimulation.simulation.stationary.trafficlight.ITrafficLightColor&lt; T extends Enum&lt;?&gt;</title>
<!-- Node0 -->
<g id="node1" class="node"><title>Node0</title>
<polygon fill="#bfbfbf" stroke="black" points="162,-257 162,-331 430,-331 430,-257 162,-257"/>
<text text-anchor="start" x="170" y="-319.8" font-family="Helvetica,sans-Serif" font-size="9.00">org.lightjason.trafficsimulation.simulation.stationary.trafficlight.</text>
<text text-anchor="middle" x="296" y="-309.8" font-family="Helvetica,sans-Serif" font-size="9.00">ITrafficLightColor&lt; T extends Enum&lt;?&gt;</text>
<polyline fill="none" stroke="black" points="162,-303 430,-303 "/>
<text text-anchor="middle" x="296" y="-291.8" font-family="Helvetica,sans-Serif" font-size="9.00"> </text>
<polyline fill="none" stroke="black" points="162,-285 430,-285 "/>
<text text-anchor="start" x="170" y="-273.8" font-family="Helvetica,sans-Serif" font-size="9.00">+ next()</text>
<text text-anchor="start" x="170" y="-263.8" font-family="Helvetica,sans-Serif" font-size="9.00">+ path()</text>
</g>
<!-- Node1 -->
<g id="node2" class="node"><title>Node1</title>
<g id="a_node2"><a xlink:href="../../d7/dcc/interfaceorg_1_1lightjason_1_1trafficsimulation_1_1simulation_1_1stationary_1_1trafficlight_1_1ITrafficLightColor.htm" target="_top" xlink:title="{org.lightjason.trafficsimulation.simulation.stationary.trafficlight.\lITrafficLightColor\&lt; ELightColorPedestrian \&gt;\n||+ next()\l+ path()\l}">
<polygon fill="none" stroke="black" points="0,-135 0,-209 268,-209 268,-135 0,-135"/>
<text text-anchor="start" x="8" y="-197.8" font-family="Helvetica,sans-Serif" font-size="9.00">org.lightjason.trafficsimulation.simulation.stationary.trafficlight.</text>
<text text-anchor="middle" x="134" y="-187.8" font-family="Helvetica,sans-Serif" font-size="9.00">ITrafficLightColor&lt; ELightColorPedestrian &gt;</text>
<polyline fill="none" stroke="black" points="0,-181 268,-181 "/>
<text text-anchor="middle" x="134" y="-169.8" font-family="Helvetica,sans-Serif" font-size="9.00"> </text>
<polyline fill="none" stroke="black" points="0,-163 268,-163 "/>
<text text-anchor="start" x="8" y="-151.8" font-family="Helvetica,sans-Serif" font-size="9.00">+ next()</text>
<text text-anchor="start" x="8" y="-141.8" font-family="Helvetica,sans-Serif" font-size="9.00">+ path()</text>
</a>
</g>
</g>
<!-- Node0&#45;&gt;Node1 -->
<g id="edge1" class="edge"><title>Node0&#45;&gt;Node1</title>
<path fill="none" stroke="orange" d="M239.104,-250.855C220.747,-237.257 200.573,-222.314 182.851,-209.186"/>
<polygon fill="orange" stroke="orange" points="237.276,-253.856 247.395,-256.996 241.442,-248.231 237.276,-253.856"/>
<text text-anchor="middle" x="275.5" y="-230.8" font-family="Helvetica,sans-Serif" font-size="9.00"> &lt; ELightColorPedestrian &gt;</text>
</g>
<!-- Node3 -->
<g id="node4" class="node"><title>Node3</title>
<g id="a_node4"><a xlink:href="../../d7/dcc/interfaceorg_1_1lightjason_1_1trafficsimulation_1_1simulation_1_1stationary_1_1trafficlight_1_1ITrafficLightColor.htm" target="_top" xlink:title="{org.lightjason.trafficsimulation.simulation.stationary.trafficlight.\lITrafficLightColor\&lt; ELightColorVehicle \&gt;\n||+ next()\l+ path()\l}">
<polygon fill="none" stroke="black" points="286,-135 286,-209 554,-209 554,-135 286,-135"/>
<text text-anchor="start" x="294" y="-197.8" font-family="Helvetica,sans-Serif" font-size="9.00">org.lightjason.trafficsimulation.simulation.stationary.trafficlight.</text>
<text text-anchor="middle" x="420" y="-187.8" font-family="Helvetica,sans-Serif" font-size="9.00">ITrafficLightColor&lt; ELightColorVehicle &gt;</text>
<polyline fill="none" stroke="black" points="286,-181 554,-181 "/>
<text text-anchor="middle" x="420" y="-169.8" font-family="Helvetica,sans-Serif" font-size="9.00"> </text>
<polyline fill="none" stroke="black" points="286,-163 554,-163 "/>
<text text-anchor="start" x="294" y="-151.8" font-family="Helvetica,sans-Serif" font-size="9.00">+ next()</text>
<text text-anchor="start" x="294" y="-141.8" font-family="Helvetica,sans-Serif" font-size="9.00">+ path()</text>
</a>
</g>
</g>
<!-- Node0&#45;&gt;Node3 -->
<g id="edge3" class="edge"><title>Node0&#45;&gt;Node3</title>
<path fill="none" stroke="orange" d="M340.658,-249.783C354.335,-236.547 369.236,-222.126 382.394,-209.393"/>
<polygon fill="orange" stroke="orange" points="337.956,-247.527 333.204,-256.996 342.824,-252.557 337.956,-247.527"/>
<text text-anchor="middle" x="410.5" y="-230.8" font-family="Helvetica,sans-Serif" font-size="9.00"> &lt; ELightColorVehicle &gt;</text>
</g>
<!-- Node2 -->
<g id="node3" class="node"><title>Node2</title>
<g id="a_node3"><a xlink:href="../../d8/de4/enumorg_1_1lightjason_1_1trafficsimulation_1_1simulation_1_1stationary_1_1trafficlight_1_1ELightColorPedestrian.htm" target="_top" xlink:title="pedestrian traffic light enumeration ">
<polygon fill="none" stroke="black" points="0,-11 0,-85 268,-85 268,-11 0,-11"/>
<text text-anchor="start" x="8" y="-73.8" font-family="Helvetica,sans-Serif" font-size="9.00">org.lightjason.trafficsimulation.simulation.stationary.trafficlight.</text>
<text text-anchor="middle" x="134" y="-63.8" font-family="Helvetica,sans-Serif" font-size="9.00">ELightColorPedestrian</text>
<polyline fill="none" stroke="black" points="0,-57 268,-57 "/>
<text text-anchor="start" x="8" y="-45.8" font-family="Helvetica,sans-Serif" font-size="9.00">+ RED</text>
<polyline fill="none" stroke="black" points="0,-39 268,-39 "/>
<text text-anchor="start" x="8" y="-27.8" font-family="Helvetica,sans-Serif" font-size="9.00">+ next()</text>
<text text-anchor="start" x="8" y="-17.8" font-family="Helvetica,sans-Serif" font-size="9.00">+ path()</text>
</a>
</g>
</g>
<!-- Node1&#45;&gt;Node2 -->
<g id="edge2" class="edge"><title>Node1&#45;&gt;Node2</title>
<path fill="none" stroke="midnightblue" d="M134,-124.561C134,-111.575 134,-97.6547 134,-85.3446"/>
<polygon fill="none" stroke="midnightblue" points="130.5,-124.726 134,-134.726 137.5,-124.726 130.5,-124.726"/>
</g>
<!-- Node4 -->
<g id="node5" class="node"><title>Node4</title>
<g id="a_node5"><a xlink:href="../../d6/d90/enumorg_1_1lightjason_1_1trafficsimulation_1_1simulation_1_1stationary_1_1trafficlight_1_1ELightColorVehicle.htm" target="_top" xlink:title="vehicle traffic light enumeration ">
<polygon fill="none" stroke="black" points="286,-1 286,-95 554,-95 554,-1 286,-1"/>
<text text-anchor="start" x="294" y="-83.8" font-family="Helvetica,sans-Serif" font-size="9.00">org.lightjason.trafficsimulation.simulation.stationary.trafficlight.</text>
<text text-anchor="middle" x="420" y="-73.8" font-family="Helvetica,sans-Serif" font-size="9.00">ELightColorVehicle</text>
<polyline fill="none" stroke="black" points="286,-67 554,-67 "/>
<text text-anchor="start" x="294" y="-55.8" font-family="Helvetica,sans-Serif" font-size="9.00">+ GREEN</text>
<text text-anchor="start" x="294" y="-45.8" font-family="Helvetica,sans-Serif" font-size="9.00">+ RED</text>
<text text-anchor="start" x="294" y="-35.8" font-family="Helvetica,sans-Serif" font-size="9.00">+ REDYELLOW</text>
<polyline fill="none" stroke="black" points="286,-29 554,-29 "/>
<text text-anchor="start" x="294" y="-17.8" font-family="Helvetica,sans-Serif" font-size="9.00">+ next()</text>
<text text-anchor="start" x="294" y="-7.8" font-family="Helvetica,sans-Serif" font-size="9.00">+ path()</text>
</a>
</g>
</g>
<!-- Node3&#45;&gt;Node4 -->
<g id="edge4" class="edge"><title>Node3&#45;&gt;Node4</title>
<path fill="none" stroke="midnightblue" d="M420,-124.578C420,-114.998 420,-104.907 420,-95.3296"/>
<polygon fill="none" stroke="midnightblue" points="416.5,-124.726 420,-134.726 423.5,-124.726 416.5,-124.726"/>
</g>
</g>
</svg>
