<?xml version="1.0" encoding="UTF-8" standalone="no"?>
<!DOCTYPE svg PUBLIC "-//W3C//DTD SVG 1.1//EN"
 "http://www.w3.org/Graphics/SVG/1.1/DTD/svg11.dtd">
<!-- Generated by graphviz version 2.36.0 (20140111.2315)
 -->
<!-- Title: org.lightjason.trafficsimulation.IBaseTest Pages: 1 -->
<svg width="246pt" height="480pt"
 viewBox="0.00 0.00 246.00 480.00" xmlns="http://www.w3.org/2000/svg" xmlns:xlink="http://www.w3.org/1999/xlink">
<g id="graph0" class="graph" transform="scale(1 1) rotate(0) translate(4 476)">
<title>org.lightjason.trafficsimulation.IBaseTest</title>
<!-- Node9 -->
<g id="node1" class="node"><title>Node9</title>
<polygon fill="#bfbfbf" stroke="black" points="49,-1 49,-175 189,-175 189,-1 49,-1"/>
<text text-anchor="start" x="57" y="-163.8" font-family="Helvetica,sans-Serif" font-size="9.00">org.lightjason.trafficsimulation.</text>
<text text-anchor="middle" x="119" y="-153.8" font-family="Helvetica,sans-Serif" font-size="9.00">IBaseTest</text>
<polyline fill="none" stroke="black" points="49,-147 189,-147 "/>
<text text-anchor="start" x="57" y="-135.8" font-family="Helvetica,sans-Serif" font-size="9.00">&#45; m_actions</text>
<text text-anchor="start" x="57" y="-125.8" font-family="Helvetica,sans-Serif" font-size="9.00">&#45; m_agents</text>
<polyline fill="none" stroke="black" points="49,-119 189,-119 "/>
<text text-anchor="start" x="57" y="-107.8" font-family="Helvetica,sans-Serif" font-size="9.00">+ loadconfiguration()</text>
<text text-anchor="start" x="57" y="-97.8" font-family="Helvetica,sans-Serif" font-size="9.00">~ [static initializer]()</text>
<text text-anchor="start" x="57" y="-87.8" font-family="Helvetica,sans-Serif" font-size="9.00"># generate()</text>
<text text-anchor="start" x="57" y="-77.8" font-family="Helvetica,sans-Serif" font-size="9.00"># generatemultiple()</text>
<text text-anchor="start" x="57" y="-67.8" font-family="Helvetica,sans-Serif" font-size="9.00"># initializeenvironment()</text>
<text text-anchor="start" x="57" y="-57.8" font-family="Helvetica,sans-Serif" font-size="9.00"># invoketest()</text>
<text text-anchor="start" x="57" y="-47.8" font-family="Helvetica,sans-Serif" font-size="9.00"># executeagent()</text>
<text text-anchor="start" x="57" y="-37.8" font-family="Helvetica,sans-Serif" font-size="9.00"># executeagent()</text>
<text text-anchor="start" x="57" y="-27.8" font-family="Helvetica,sans-Serif" font-size="9.00">&#45; before()</text>
<text text-anchor="start" x="57" y="-17.8" font-family="Helvetica,sans-Serif" font-size="9.00">&#45; execute()</text>
<text text-anchor="start" x="57" y="-7.8" font-family="Helvetica,sans-Serif" font-size="9.00">&#45; invoke()</text>
</g>
<!-- Node10 -->
<g id="node2" class="node"><title>Node10</title>
<g id="a_node2"><a xlink:href="../../d5/d10/interfaceorg_1_1lightjason_1_1trafficsimulation_1_1simulation_1_1environment_1_1IEnvironment.htm" target="_top" xlink:title="environment interface ">
<polygon fill="none" stroke="black" points="0,-223 0,-337 238,-337 238,-223 0,-223"/>
<text text-anchor="start" x="8" y="-325.8" font-family="Helvetica,sans-Serif" font-size="9.00">org.lightjason.trafficsimulation.simulation.environment.</text>
<text text-anchor="middle" x="119" y="-315.8" font-family="Helvetica,sans-Serif" font-size="9.00">IEnvironment</text>
<polyline fill="none" stroke="black" points="0,-309 238,-309 "/>
<text text-anchor="middle" x="119" y="-297.8" font-family="Helvetica,sans-Serif" font-size="9.00"> </text>
<polyline fill="none" stroke="black" points="0,-291 238,-291 "/>
<text text-anchor="start" x="8" y="-279.8" font-family="Helvetica,sans-Serif" font-size="9.00">+ empty()</text>
<text text-anchor="start" x="8" y="-269.8" font-family="Helvetica,sans-Serif" font-size="9.00">+ get()</text>
<text text-anchor="start" x="8" y="-259.8" font-family="Helvetica,sans-Serif" font-size="9.00">+ move()</text>
<text text-anchor="start" x="8" y="-249.8" font-family="Helvetica,sans-Serif" font-size="9.00">+ remove()</text>
<text text-anchor="start" x="8" y="-239.8" font-family="Helvetica,sans-Serif" font-size="9.00">+ route()</text>
<text text-anchor="start" x="8" y="-229.8" font-family="Helvetica,sans-Serif" font-size="9.00">+ routestimatedtime()</text>
</a>
</g>
</g>
<!-- Node10&#45;&gt;Node9 -->
<g id="edge1" class="edge"><title>Node10&#45;&gt;Node9</title>
<path fill="none" stroke="#404040" d="M119,-222.765C119,-211.521 119,-199.403 119,-187.215"/>
<polygon fill="none" stroke="#404040" points="119,-187.032 115,-181.032 119,-175.032 123,-181.032 119,-187.032"/>
<text text-anchor="middle" x="155" y="-196.8" font-family="Helvetica,sans-Serif" font-size="9.00"> #m_environment</text>
</g>
<!-- Node11 -->
<g id="node3" class="node"><title>Node11</title>
<g id="a_node3"><a xlink:href="../../d5/dea/interfaceorg_1_1lightjason_1_1trafficsimulation_1_1simulation_1_1IObject.htm" target="_top" xlink:title="object interface ">
<polygon fill="none" stroke="black" points="36.5,-377 36.5,-471 201.5,-471 201.5,-377 36.5,-377"/>
<text text-anchor="start" x="44.5" y="-459.8" font-family="Helvetica,sans-Serif" font-size="9.00">org::lightjason::trafficsimulation</text>
<text text-anchor="middle" x="119" y="-449.8" font-family="Helvetica,sans-Serif" font-size="9.00">::simulation::IObject&lt; IEnvironment &gt;</text>
<polyline fill="none" stroke="black" points="36.5,-443 201.5,-443 "/>
<text text-anchor="middle" x="119" y="-431.8" font-family="Helvetica,sans-Serif" font-size="9.00"> </text>
<polyline fill="none" stroke="black" points="36.5,-425 201.5,-425 "/>
<text text-anchor="start" x="44.5" y="-413.8" font-family="Helvetica,sans-Serif" font-size="9.00">+ literal()</text>
<text text-anchor="start" x="44.5" y="-403.8" font-family="Helvetica,sans-Serif" font-size="9.00">+ literal()</text>
<text text-anchor="start" x="44.5" y="-393.8" font-family="Helvetica,sans-Serif" font-size="9.00">+ name()</text>
<text text-anchor="start" x="44.5" y="-383.8" font-family="Helvetica,sans-Serif" font-size="9.00">+ position()</text>
</a>
</g>
</g>
<!-- Node11&#45;&gt;Node10 -->
<g id="edge2" class="edge"><title>Node11&#45;&gt;Node10</title>
<path fill="none" stroke="midnightblue" d="M119,-366.853C119,-357.046 119,-346.843 119,-337.039"/>
<polygon fill="none" stroke="midnightblue" points="115.5,-366.897 119,-376.897 122.5,-366.897 115.5,-366.897"/>
</g>
</g>
</svg>
