<?xml version="1.0" encoding="UTF-8" standalone="no"?>
<!DOCTYPE svg PUBLIC "-//W3C//DTD SVG 1.1//EN"
 "http://www.w3.org/Graphics/SVG/1.1/DTD/svg11.dtd">
<!-- Generated by graphviz version 2.36.0 (20140111.2315)
 -->
<!-- Title: org.lightjason.trafficsimulation.simulation.virtual .TestCArea Pages: 1 -->
<svg width="246pt" height="584pt"
 viewBox="0.00 0.00 246.00 584.00" xmlns="http://www.w3.org/2000/svg" xmlns:xlink="http://www.w3.org/1999/xlink">
<g id="graph0" class="graph" transform="scale(1 1) rotate(0) translate(4 580)">
<title>org.lightjason.trafficsimulation.simulation.virtual .TestCArea</title>
<!-- Node2 -->
<g id="node1" class="node"><title>Node2</title>
<polygon fill="#bfbfbf" stroke="black" points="14.5,-1 14.5,-65 223.5,-65 223.5,-1 14.5,-1"/>
<text text-anchor="start" x="22.5" y="-53.8" font-family="Helvetica,sans-Serif" font-size="9.00">org.lightjason.trafficsimulation.simulation.virtual</text>
<text text-anchor="middle" x="119" y="-43.8" font-family="Helvetica,sans-Serif" font-size="9.00"> .TestCArea</text>
<polyline fill="none" stroke="black" points="14.5,-37 223.5,-37 "/>
<text text-anchor="middle" x="119" y="-25.8" font-family="Helvetica,sans-Serif" font-size="9.00"> </text>
<polyline fill="none" stroke="black" points="14.5,-19 223.5,-19 "/>
<text text-anchor="start" x="22.5" y="-7.8" font-family="Helvetica,sans-Serif" font-size="9.00">+ main()</text>
</g>
<!-- Node3 -->
<g id="node2" class="node"><title>Node3</title>
<g id="a_node2"><a xlink:href="../../dd/d4d/classorg_1_1lightjason_1_1trafficsimulation_1_1IBaseTest.htm" target="_top" xlink:title="base test ">
<polygon fill="none" stroke="black" points="49,-105 49,-279 189,-279 189,-105 49,-105"/>
<text text-anchor="start" x="57" y="-267.8" font-family="Helvetica,sans-Serif" font-size="9.00">org.lightjason.trafficsimulation.</text>
<text text-anchor="middle" x="119" y="-257.8" font-family="Helvetica,sans-Serif" font-size="9.00">IBaseTest</text>
<polyline fill="none" stroke="black" points="49,-251 189,-251 "/>
<text text-anchor="start" x="57" y="-239.8" font-family="Helvetica,sans-Serif" font-size="9.00">&#45; m_actions</text>
<text text-anchor="start" x="57" y="-229.8" font-family="Helvetica,sans-Serif" font-size="9.00">&#45; m_agents</text>
<polyline fill="none" stroke="black" points="49,-223 189,-223 "/>
<text text-anchor="start" x="57" y="-211.8" font-family="Helvetica,sans-Serif" font-size="9.00">+ loadconfiguration()</text>
<text text-anchor="start" x="57" y="-201.8" font-family="Helvetica,sans-Serif" font-size="9.00">~ [static initializer]()</text>
<text text-anchor="start" x="57" y="-191.8" font-family="Helvetica,sans-Serif" font-size="9.00"># generate()</text>
<text text-anchor="start" x="57" y="-181.8" font-family="Helvetica,sans-Serif" font-size="9.00"># generatemultiple()</text>
<text text-anchor="start" x="57" y="-171.8" font-family="Helvetica,sans-Serif" font-size="9.00"># initializeenvironment()</text>
<text text-anchor="start" x="57" y="-161.8" font-family="Helvetica,sans-Serif" font-size="9.00"># invoketest()</text>
<text text-anchor="start" x="57" y="-151.8" font-family="Helvetica,sans-Serif" font-size="9.00"># executeagent()</text>
<text text-anchor="start" x="57" y="-141.8" font-family="Helvetica,sans-Serif" font-size="9.00"># executeagent()</text>
<text text-anchor="start" x="57" y="-131.8" font-family="Helvetica,sans-Serif" font-size="9.00">&#45; before()</text>
<text text-anchor="start" x="57" y="-121.8" font-family="Helvetica,sans-Serif" font-size="9.00">&#45; execute()</text>
<text text-anchor="start" x="57" y="-111.8" font-family="Helvetica,sans-Serif" font-size="9.00">&#45; invoke()</text>
</a>
</g>
</g>
<!-- Node3&#45;&gt;Node2 -->
<g id="edge1" class="edge"><title>Node3&#45;&gt;Node2</title>
<path fill="none" stroke="midnightblue" d="M119,-94.5276C119,-84.043 119,-74.0105 119,-65.2338"/>
<polygon fill="none" stroke="midnightblue" points="115.5,-94.6921 119,-104.692 122.5,-94.6922 115.5,-94.6921"/>
</g>
<!-- Node4 -->
<g id="node3" class="node"><title>Node4</title>
<g id="a_node3"><a xlink:href="../../d5/d10/interfaceorg_1_1lightjason_1_1trafficsimulation_1_1simulation_1_1environment_1_1IEnvironment.htm" target="_top" xlink:title="environment interface ">
<polygon fill="none" stroke="black" points="0,-327 0,-441 238,-441 238,-327 0,-327"/>
<text text-anchor="start" x="8" y="-429.8" font-family="Helvetica,sans-Serif" font-size="9.00">org.lightjason.trafficsimulation.simulation.environment.</text>
<text text-anchor="middle" x="119" y="-419.8" font-family="Helvetica,sans-Serif" font-size="9.00">IEnvironment</text>
<polyline fill="none" stroke="black" points="0,-413 238,-413 "/>
<text text-anchor="middle" x="119" y="-401.8" font-family="Helvetica,sans-Serif" font-size="9.00"> </text>
<polyline fill="none" stroke="black" points="0,-395 238,-395 "/>
<text text-anchor="start" x="8" y="-383.8" font-family="Helvetica,sans-Serif" font-size="9.00">+ empty()</text>
<text text-anchor="start" x="8" y="-373.8" font-family="Helvetica,sans-Serif" font-size="9.00">+ get()</text>
<text text-anchor="start" x="8" y="-363.8" font-family="Helvetica,sans-Serif" font-size="9.00">+ move()</text>
<text text-anchor="start" x="8" y="-353.8" font-family="Helvetica,sans-Serif" font-size="9.00">+ remove()</text>
<text text-anchor="start" x="8" y="-343.8" font-family="Helvetica,sans-Serif" font-size="9.00">+ route()</text>
<text text-anchor="start" x="8" y="-333.8" font-family="Helvetica,sans-Serif" font-size="9.00">+ routestimatedtime()</text>
</a>
</g>
</g>
<!-- Node4&#45;&gt;Node3 -->
<g id="edge2" class="edge"><title>Node4&#45;&gt;Node3</title>
<path fill="none" stroke="#404040" d="M119,-326.765C119,-315.521 119,-303.403 119,-291.215"/>
<polygon fill="none" stroke="#404040" points="119,-291.032 115,-285.032 119,-279.032 123,-285.032 119,-291.032"/>
<text text-anchor="middle" x="155" y="-300.8" font-family="Helvetica,sans-Serif" font-size="9.00"> #m_environment</text>
</g>
<!-- Node5 -->
<g id="node4" class="node"><title>Node5</title>
<g id="a_node4"><a xlink:href="../../d5/dea/interfaceorg_1_1lightjason_1_1trafficsimulation_1_1simulation_1_1IObject.htm" target="_top" xlink:title="object interface ">
<polygon fill="none" stroke="black" points="36.5,-481 36.5,-575 201.5,-575 201.5,-481 36.5,-481"/>
<text text-anchor="start" x="44.5" y="-563.8" font-family="Helvetica,sans-Serif" font-size="9.00">org::lightjason::trafficsimulation</text>
<text text-anchor="middle" x="119" y="-553.8" font-family="Helvetica,sans-Serif" font-size="9.00">::simulation::IObject&lt; IEnvironment &gt;</text>
<polyline fill="none" stroke="black" points="36.5,-547 201.5,-547 "/>
<text text-anchor="middle" x="119" y="-535.8" font-family="Helvetica,sans-Serif" font-size="9.00"> </text>
<polyline fill="none" stroke="black" points="36.5,-529 201.5,-529 "/>
<text text-anchor="start" x="44.5" y="-517.8" font-family="Helvetica,sans-Serif" font-size="9.00">+ literal()</text>
<text text-anchor="start" x="44.5" y="-507.8" font-family="Helvetica,sans-Serif" font-size="9.00">+ literal()</text>
<text text-anchor="start" x="44.5" y="-497.8" font-family="Helvetica,sans-Serif" font-size="9.00">+ name()</text>
<text text-anchor="start" x="44.5" y="-487.8" font-family="Helvetica,sans-Serif" font-size="9.00">+ position()</text>
</a>
</g>
</g>
<!-- Node5&#45;&gt;Node4 -->
<g id="edge3" class="edge"><title>Node5&#45;&gt;Node4</title>
<path fill="none" stroke="midnightblue" d="M119,-470.853C119,-461.046 119,-450.843 119,-441.039"/>
<polygon fill="none" stroke="midnightblue" points="115.5,-470.897 119,-480.897 122.5,-470.897 115.5,-470.897"/>
</g>
</g>
</svg>
