<?xml version="1.0" encoding="UTF-8" standalone="no"?>
<!DOCTYPE svg PUBLIC "-//W3C//DTD SVG 1.1//EN"
 "http://www.w3.org/Graphics/SVG/1.1/DTD/svg11.dtd">
<!-- Generated by graphviz version 2.36.0 (20140111.2315)
 -->
<!-- Title: org.lightjason.trafficsimulation.runtime.CRuntime Pages: 1 -->
<svg width="252pt" height="104pt"
 viewBox="0.00 0.00 252.00 104.00" xmlns="http://www.w3.org/2000/svg" xmlns:xlink="http://www.w3.org/1999/xlink">
<g id="graph0" class="graph" transform="scale(1 1) rotate(0) translate(4 100)">
<title>org.lightjason.trafficsimulation.runtime.CRuntime</title>
<!-- Node1 -->
<g id="node1" class="node"><title>Node1</title>
<polygon fill="#bfbfbf" stroke="black" points="-0.5,-1 -0.5,-95 172.5,-95 172.5,-1 -0.5,-1"/>
<text text-anchor="start" x="7.5" y="-83.8" font-family="Helvetica,sans-Serif" font-size="9.00">org.lightjason.trafficsimulation.runtime.</text>
<text text-anchor="middle" x="86" y="-73.8" font-family="Helvetica,sans-Serif" font-size="9.00">CRuntime</text>
<polyline fill="none" stroke="black" points="-0.5,-67 172.5,-67 "/>
<text text-anchor="middle" x="86" y="-55.8" font-family="Helvetica,sans-Serif" font-size="9.00"> </text>
<polyline fill="none" stroke="black" points="-0.5,-49 172.5,-49 "/>
<text text-anchor="start" x="7.5" y="-37.8" font-family="Helvetica,sans-Serif" font-size="9.00">+ execute()</text>
<text text-anchor="start" x="7.5" y="-27.8" font-family="Helvetica,sans-Serif" font-size="9.00">&#45; CRuntime()</text>
<text text-anchor="start" x="7.5" y="-17.8" font-family="Helvetica,sans-Serif" font-size="9.00">&#45; executewithlogging()</text>
<text text-anchor="start" x="7.5" y="-7.8" font-family="Helvetica,sans-Serif" font-size="9.00">&#45; parallel()</text>
</g>
<!-- Node1&#45;&gt;Node1 -->
<g id="edge1" class="edge"><title>Node1&#45;&gt;Node1</title>
<path fill="none" stroke="#404040" d="M172.861,-63.1465C183.229,-60.3926 190,-55.3438 190,-48 190,-43.8691 187.858,-40.4644 184.138,-37.7858"/>
<polygon fill="none" stroke="#404040" points="183.856,-37.6624 176.756,-38.9227 172.861,-32.8535 179.961,-31.5932 183.856,-37.6624"/>
<text text-anchor="middle" x="217" y="-45.8" font-family="Helvetica,sans-Serif" font-size="9.00"> +INSTANCE</text>
</g>
</g>
</svg>
