<?xml version="1.0" encoding="UTF-8" standalone="no"?>
<!DOCTYPE svg PUBLIC "-//W3C//DTD SVG 1.1//EN"
 "http://www.w3.org/Graphics/SVG/1.1/DTD/svg11.dtd">
<!-- Generated by graphviz version 2.36.0 (20140111.2315)
 -->
<!-- Title: org.lightjason.trafficsimulation.simulation.virtual .CArea.call Pages: 1 -->
<svg width="464pt" height="54pt"
 viewBox="0.00 0.00 464.00 54.00" xmlns="http://www.w3.org/2000/svg" xmlns:xlink="http://www.w3.org/1999/xlink">
<g id="graph0" class="graph" transform="scale(1 1) rotate(0) translate(4 50)">
<title>org.lightjason.trafficsimulation.simulation.virtual .CArea.call</title>
<!-- Node6 -->
<g id="node1" class="node"><title>Node6</title>
<polygon fill="#bfbfbf" stroke="black" points="0.5,-0 0.5,-28 209.5,-28 209.5,-0 0.5,-0"/>
<text text-anchor="start" x="8.5" y="-16.8" font-family="Helvetica,sans-Serif" font-size="9.00">org.lightjason.trafficsimulation.simulation.virtual</text>
<text text-anchor="middle" x="105" y="-6.8" font-family="Helvetica,sans-Serif" font-size="9.00"> .CArea.call</text>
</g>
<!-- Node6&#45;&gt;Node6 -->
<g id="edge1" class="edge"><title>Node6&#45;&gt;Node6</title>
<path fill="none" stroke="midnightblue" d="M62.5236,-28.1476C51.4427,-37.2448 65.6016,-46 105,-46 129.008,-46 143.644,-42.7489 148.908,-38.1504"/>
<polygon fill="midnightblue" stroke="midnightblue" points="152.358,-37.5508 147.476,-28.1476 145.429,-38.5426 152.358,-37.5508"/>
</g>
<!-- Node7 -->
<g id="node2" class="node"><title>Node7</title>
<g id="a_node2"><a xlink:href="../../da/d5a/classorg_1_1lightjason_1_1trafficsimulation_1_1simulation_1_1virtual_01_1_1CArea.htm#a548b91ee0718f108247ff18cde572a8c" target="_top" xlink:title="check if a position is inside the area ">
<polygon fill="none" stroke="black" points="246.5,-0 246.5,-28 455.5,-28 455.5,-0 246.5,-0"/>
<text text-anchor="start" x="254.5" y="-16.8" font-family="Helvetica,sans-Serif" font-size="9.00">org.lightjason.trafficsimulation.simulation.virtual</text>
<text text-anchor="middle" x="351" y="-6.8" font-family="Helvetica,sans-Serif" font-size="9.00"> .CArea.isInside</text>
</a>
</g>
</g>
<!-- Node6&#45;&gt;Node7 -->
<g id="edge2" class="edge"><title>Node6&#45;&gt;Node7</title>
<path fill="none" stroke="midnightblue" d="M209.832,-14C218.502,-14 227.297,-14 236.038,-14"/>
<polygon fill="midnightblue" stroke="midnightblue" points="236.262,-17.5001 246.262,-14 236.261,-10.5001 236.262,-17.5001"/>
</g>
</g>
</svg>
