<?xml version="1.0" encoding="UTF-8" standalone="no"?>
<!DOCTYPE svg PUBLIC "-//W3C//DTD SVG 1.1//EN"
 "http://www.w3.org/Graphics/SVG/1.1/DTD/svg11.dtd">
<!-- Generated by graphviz version 2.36.0 (20140111.2315)
 -->
<!-- Title: org.lightjason.trafficsimulation.simulation.virtual .CArea.isInside Pages: 1 -->
<svg width="464pt" height="101pt"
 viewBox="0.00 0.00 464.00 101.00" xmlns="http://www.w3.org/2000/svg" xmlns:xlink="http://www.w3.org/1999/xlink">
<g id="graph0" class="graph" transform="scale(1 1) rotate(0) translate(4 97)">
<title>org.lightjason.trafficsimulation.simulation.virtual .CArea.isInside</title>
<!-- Node12 -->
<g id="node1" class="node"><title>Node12</title>
<polygon fill="#bfbfbf" stroke="black" points="0.5,-32 0.5,-60 209.5,-60 209.5,-32 0.5,-32"/>
<text text-anchor="start" x="8.5" y="-48.8" font-family="Helvetica,sans-Serif" font-size="9.00">org.lightjason.trafficsimulation.simulation.virtual</text>
<text text-anchor="middle" x="105" y="-38.8" font-family="Helvetica,sans-Serif" font-size="9.00"> .CArea.isInside</text>
</g>
<!-- Node13 -->
<g id="node2" class="node"><title>Node13</title>
<g id="a_node2"><a xlink:href="../../da/d5a/classorg_1_1lightjason_1_1trafficsimulation_1_1simulation_1_1virtual_01_1_1CArea.htm#aeb61f483303e07f76ea6fac477d9fa94" target="_top" xlink:title="add a physical agent to the area ">
<polygon fill="none" stroke="black" points="246.5,-65 246.5,-93 455.5,-93 455.5,-65 246.5,-65"/>
<text text-anchor="start" x="254.5" y="-81.8" font-family="Helvetica,sans-Serif" font-size="9.00">org.lightjason.trafficsimulation.simulation.virtual</text>
<text text-anchor="middle" x="351" y="-71.8" font-family="Helvetica,sans-Serif" font-size="9.00"> .CArea.addPhysical</text>
</a>
</g>
</g>
<!-- Node12&#45;&gt;Node13 -->
<g id="edge1" class="edge"><title>Node12&#45;&gt;Node13</title>
<path fill="none" stroke="midnightblue" d="M219.772,-61.3871C228.606,-62.5819 237.498,-63.7846 246.262,-64.9698"/>
<polygon fill="midnightblue" stroke="midnightblue" points="220.211,-57.9147 209.832,-60.0428 219.272,-64.8516 220.211,-57.9147"/>
</g>
<!-- Node14 -->
<g id="node3" class="node"><title>Node14</title>
<g id="a_node3"><a xlink:href="../../da/d5a/classorg_1_1lightjason_1_1trafficsimulation_1_1simulation_1_1virtual_01_1_1CArea.htm#a81b8b46b481463f445644f817d85d8ee" target="_top" xlink:title="org.lightjason.trafficsimulation.simulation.virtual\l .CArea.call">
<polygon fill="none" stroke="black" points="246.5,-0 246.5,-28 455.5,-28 455.5,-0 246.5,-0"/>
<text text-anchor="start" x="254.5" y="-16.8" font-family="Helvetica,sans-Serif" font-size="9.00">org.lightjason.trafficsimulation.simulation.virtual</text>
<text text-anchor="middle" x="351" y="-6.8" font-family="Helvetica,sans-Serif" font-size="9.00"> .CArea.call</text>
</a>
</g>
</g>
<!-- Node12&#45;&gt;Node14 -->
<g id="edge2" class="edge"><title>Node12&#45;&gt;Node14</title>
<path fill="none" stroke="midnightblue" d="M219.772,-31.0791C228.606,-29.9205 237.498,-28.7544 246.262,-27.605"/>
<polygon fill="midnightblue" stroke="midnightblue" points="219.292,-27.612 209.832,-32.3827 220.202,-34.5526 219.292,-27.612"/>
</g>
<!-- Node14&#45;&gt;Node14 -->
<g id="edge3" class="edge"><title>Node14&#45;&gt;Node14</title>
<path fill="none" stroke="midnightblue" d="M307.092,-38.1504C312.356,-42.7489 326.992,-46 351,-46 390.398,-46 404.557,-37.2448 393.476,-28.1476"/>
<polygon fill="midnightblue" stroke="midnightblue" points="310.571,-38.5426 308.524,-28.1476 303.642,-37.5508 310.571,-38.5426"/>
</g>
</g>
</svg>
