<?xml version="1.0" encoding="UTF-8" standalone="no"?>
<!DOCTYPE svg PUBLIC "-//W3C//DTD SVG 1.1//EN"
 "http://www.w3.org/Graphics/SVG/1.1/DTD/svg11.dtd">
<!-- Generated by graphviz version 2.36.0 (20140111.2315)
 -->
<!-- Title: org.lightjason.trafficsimulation.simulation.environment.TestCEnvironment.main Pages: 1 -->
<svg width="774pt" height="83pt"
 viewBox="0.00 0.00 774.00 83.00" xmlns="http://www.w3.org/2000/svg" xmlns:xlink="http://www.w3.org/1999/xlink">
<g id="graph0" class="graph" transform="scale(1 1) rotate(0) translate(4 79)">
<title>org.lightjason.trafficsimulation.simulation.environment.TestCEnvironment.main</title>
<!-- Node3 -->
<g id="node1" class="node"><title>Node3</title>
<polygon fill="#bfbfbf" stroke="black" points="0,-23 0,-51 238,-51 238,-23 0,-23"/>
<text text-anchor="start" x="8" y="-39.8" font-family="Helvetica,sans-Serif" font-size="9.00">org.lightjason.trafficsimulation.simulation.environment.</text>
<text text-anchor="middle" x="119" y="-29.8" font-family="Helvetica,sans-Serif" font-size="9.00">TestCEnvironment.main</text>
</g>
<!-- Node4 -->
<g id="node2" class="node"><title>Node4</title>
<g id="a_node2"><a xlink:href="../../dd/d4d/classorg_1_1lightjason_1_1trafficsimulation_1_1IBaseTest.htm#a30660d966a228cd681a34edf531253ab" target="_top" xlink:title="invoke all test manually ">
<polygon fill="none" stroke="black" points="274,-23 274,-51 414,-51 414,-23 274,-23"/>
<text text-anchor="start" x="282" y="-39.8" font-family="Helvetica,sans-Serif" font-size="9.00">org.lightjason.trafficsimulation.</text>
<text text-anchor="middle" x="344" y="-29.8" font-family="Helvetica,sans-Serif" font-size="9.00">IBaseTest.invoketest</text>
</a>
</g>
</g>
<!-- Node3&#45;&gt;Node4 -->
<g id="edge1" class="edge"><title>Node3&#45;&gt;Node4</title>
<path fill="none" stroke="midnightblue" d="M238.03,-37C246.72,-37 255.357,-37 263.729,-37"/>
<polygon fill="midnightblue" stroke="midnightblue" points="263.795,-40.5001 273.795,-37 263.795,-33.5001 263.795,-40.5001"/>
</g>
<!-- Node5 -->
<g id="node3" class="node"><title>Node5</title>
<g id="a_node3"><a xlink:href="../../dd/d4d/classorg_1_1lightjason_1_1trafficsimulation_1_1IBaseTest.htm#a2ddcd9f229590c4aba0bb7f16cd46a78" target="_top" xlink:title="reads the before annotated methods ">
<polygon fill="none" stroke="black" points="450,-47 450,-75 590,-75 590,-47 450,-47"/>
<text text-anchor="start" x="458" y="-63.8" font-family="Helvetica,sans-Serif" font-size="9.00">org.lightjason.trafficsimulation.</text>
<text text-anchor="middle" x="520" y="-53.8" font-family="Helvetica,sans-Serif" font-size="9.00">IBaseTest.before</text>
</a>
</g>
</g>
<!-- Node4&#45;&gt;Node5 -->
<g id="edge2" class="edge"><title>Node4&#45;&gt;Node5</title>
<path fill="none" stroke="midnightblue" d="M414.019,-46.5199C422.476,-47.6863 431.169,-48.8854 439.761,-50.0704"/>
<polygon fill="midnightblue" stroke="midnightblue" points="439.395,-53.5531 449.779,-51.4523 440.352,-46.6187 439.395,-53.5531"/>
</g>
<!-- Node6 -->
<g id="node4" class="node"><title>Node6</title>
<g id="a_node4"><a xlink:href="../../dd/d4d/classorg_1_1lightjason_1_1trafficsimulation_1_1IBaseTest.htm#a3ddd0bcf774d2877cdfd068f7b74f121" target="_top" xlink:title="invoke method and read if possible the data&#45;provider ">
<polygon fill="none" stroke="black" points="450,-0 450,-28 590,-28 590,-0 450,-0"/>
<text text-anchor="start" x="458" y="-16.8" font-family="Helvetica,sans-Serif" font-size="9.00">org.lightjason.trafficsimulation.</text>
<text text-anchor="middle" x="520" y="-6.8" font-family="Helvetica,sans-Serif" font-size="9.00">IBaseTest.invoke</text>
</a>
</g>
</g>
<!-- Node4&#45;&gt;Node6 -->
<g id="edge3" class="edge"><title>Node4&#45;&gt;Node6</title>
<path fill="none" stroke="midnightblue" d="M414.019,-27.8768C422.476,-26.759 431.169,-25.6098 439.761,-24.4742"/>
<polygon fill="midnightblue" stroke="midnightblue" points="440.324,-27.9302 449.779,-23.1498 439.407,-20.9905 440.324,-27.9302"/>
</g>
<!-- Node7 -->
<g id="node5" class="node"><title>Node7</title>
<g id="a_node5"><a xlink:href="../../dd/d4d/classorg_1_1lightjason_1_1trafficsimulation_1_1IBaseTest.htm#a969ee3466db626521249bda39e8ae9f8" target="_top" xlink:title="invokes the method within the current object context ">
<polygon fill="none" stroke="black" points="626,-0 626,-28 766,-28 766,-0 626,-0"/>
<text text-anchor="start" x="634" y="-16.8" font-family="Helvetica,sans-Serif" font-size="9.00">org.lightjason.trafficsimulation.</text>
<text text-anchor="middle" x="696" y="-6.8" font-family="Helvetica,sans-Serif" font-size="9.00">IBaseTest.execute</text>
</a>
</g>
</g>
<!-- Node6&#45;&gt;Node7 -->
<g id="edge4" class="edge"><title>Node6&#45;&gt;Node7</title>
<path fill="none" stroke="midnightblue" d="M590.019,-14C598.476,-14 607.169,-14 615.761,-14"/>
<polygon fill="midnightblue" stroke="midnightblue" points="615.78,-17.5001 625.779,-14 615.779,-10.5001 615.78,-17.5001"/>
</g>
</g>
</svg>
