<?xml version="1.0" encoding="UTF-8" standalone="no"?>
<!DOCTYPE svg PUBLIC "-//W3C//DTD SVG 1.1//EN"
 "http://www.w3.org/Graphics/SVG/1.1/DTD/svg11.dtd">
<!-- Generated by graphviz version 2.36.0 (20140111.2315)
 -->
<!-- Title: org.lightjason.trafficsimulation.runtime.CRuntime.execute Pages: 1 -->
<svg width="392pt" height="224pt"
 viewBox="0.00 0.00 392.00 224.00" xmlns="http://www.w3.org/2000/svg" xmlns:xlink="http://www.w3.org/1999/xlink">
<g id="graph0" class="graph" transform="scale(1 1) rotate(0) translate(4 220)">
<title>org.lightjason.trafficsimulation.runtime.CRuntime.execute</title>
<!-- Node2 -->
<g id="node1" class="node"><title>Node2</title>
<polygon fill="#bfbfbf" stroke="black" points="0.5,-94 0.5,-122 173.5,-122 173.5,-94 0.5,-94"/>
<text text-anchor="start" x="8.5" y="-110.8" font-family="Helvetica,sans-Serif" font-size="9.00">org.lightjason.trafficsimulation.runtime.</text>
<text text-anchor="middle" x="87" y="-100.8" font-family="Helvetica,sans-Serif" font-size="9.00">CRuntime.execute</text>
</g>
<!-- Node3 -->
<g id="node2" class="node"><title>Node3</title>
<g id="a_node2"><a xlink:href="../../dc/d37/interfaceorg_1_1lightjason_1_1trafficsimulation_1_1runtime_1_1IExperiment.htm#a49ffcffa26fa6316481985ae70b3d033" target="_top" xlink:title="returns a stream of the agents ">
<polygon fill="none" stroke="black" points="210.5,-188 210.5,-216 383.5,-216 383.5,-188 210.5,-188"/>
<text text-anchor="start" x="218.5" y="-204.8" font-family="Helvetica,sans-Serif" font-size="9.00">org.lightjason.trafficsimulation.runtime.</text>
<text text-anchor="middle" x="297" y="-194.8" font-family="Helvetica,sans-Serif" font-size="9.00">IExperiment.agents</text>
</a>
</g>
</g>
<!-- Node2&#45;&gt;Node3 -->
<g id="edge1" class="edge"><title>Node2&#45;&gt;Node3</title>
<path fill="none" stroke="midnightblue" d="M108.77,-122.067C132.412,-137.559 172.609,-162.344 210,-178 215.818,-180.436 221.958,-182.704 228.173,-184.795"/>
<polygon fill="midnightblue" stroke="midnightblue" points="227.371,-188.214 237.962,-187.936 229.51,-181.549 227.371,-188.214"/>
</g>
<!-- Node4 -->
<g id="node3" class="node"><title>Node4</title>
<g id="a_node3"><a xlink:href="../../d5/d03/classorg_1_1lightjason_1_1trafficsimulation_1_1runtime_1_1CRuntime.htm#ae2e13fed2e95a14621805c8d2b995fb7" target="_top" xlink:title="executs a callable object and logs the errors ">
<polygon fill="none" stroke="black" points="210.5,-141 210.5,-169 383.5,-169 383.5,-141 210.5,-141"/>
<text text-anchor="start" x="218.5" y="-157.8" font-family="Helvetica,sans-Serif" font-size="9.00">org.lightjason.trafficsimulation.runtime.</text>
<text text-anchor="middle" x="297" y="-147.8" font-family="Helvetica,sans-Serif" font-size="9.00">CRuntime.executewithlogging</text>
</a>
</g>
</g>
<!-- Node2&#45;&gt;Node4 -->
<g id="edge2" class="edge"><title>Node2&#45;&gt;Node4</title>
<path fill="none" stroke="midnightblue" d="M150.125,-122.038C173.377,-127.292 199.981,-133.303 224.048,-138.742"/>
<polygon fill="midnightblue" stroke="midnightblue" points="223.31,-142.163 233.836,-140.953 224.853,-135.335 223.31,-142.163"/>
</g>
<!-- Node5 -->
<g id="node4" class="node"><title>Node5</title>
<g id="a_node4"><a xlink:href="../../dc/d37/interfaceorg_1_1lightjason_1_1trafficsimulation_1_1runtime_1_1IExperiment.htm#accc0a1638c38bc6d769fbc4bbaf72196" target="_top" xlink:title="execute agents in parallel ">
<polygon fill="none" stroke="black" points="210.5,-94 210.5,-122 383.5,-122 383.5,-94 210.5,-94"/>
<text text-anchor="start" x="218.5" y="-110.8" font-family="Helvetica,sans-Serif" font-size="9.00">org.lightjason.trafficsimulation.runtime.</text>
<text text-anchor="middle" x="297" y="-100.8" font-family="Helvetica,sans-Serif" font-size="9.00">IExperiment.parallel</text>
</a>
</g>
</g>
<!-- Node2&#45;&gt;Node5 -->
<g id="edge3" class="edge"><title>Node2&#45;&gt;Node5</title>
<path fill="none" stroke="midnightblue" d="M173.502,-108C182.376,-108 191.435,-108 200.411,-108"/>
<polygon fill="midnightblue" stroke="midnightblue" points="200.494,-111.5 210.494,-108 200.494,-104.5 200.494,-111.5"/>
</g>
<!-- Node6 -->
<g id="node5" class="node"><title>Node6</title>
<g id="a_node5"><a xlink:href="../../d5/d03/classorg_1_1lightjason_1_1trafficsimulation_1_1runtime_1_1CRuntime.htm#a39ced4ade235f6efa8a5a4589240de87" target="_top" xlink:title="executes a stream in parallel ">
<polygon fill="none" stroke="black" points="210.5,-47 210.5,-75 383.5,-75 383.5,-47 210.5,-47"/>
<text text-anchor="start" x="218.5" y="-63.8" font-family="Helvetica,sans-Serif" font-size="9.00">org.lightjason.trafficsimulation.runtime.</text>
<text text-anchor="middle" x="297" y="-53.8" font-family="Helvetica,sans-Serif" font-size="9.00">CRuntime.parallel</text>
</a>
</g>
</g>
<!-- Node2&#45;&gt;Node6 -->
<g id="edge4" class="edge"><title>Node2&#45;&gt;Node6</title>
<path fill="none" stroke="midnightblue" d="M150.125,-93.9621C173.377,-88.7081 199.981,-82.6965 224.048,-77.2583"/>
<polygon fill="midnightblue" stroke="midnightblue" points="224.853,-80.6648 233.836,-75.0467 223.31,-73.8369 224.853,-80.6648"/>
</g>
<!-- Node7 -->
<g id="node6" class="node"><title>Node7</title>
<g id="a_node6"><a xlink:href="../../dc/d37/interfaceorg_1_1lightjason_1_1trafficsimulation_1_1runtime_1_1IExperiment.htm#adefbbedce911b374a61b01a8263f1db6" target="_top" xlink:title="maximum simulation steps ">
<polygon fill="none" stroke="black" points="210.5,-0 210.5,-28 383.5,-28 383.5,-0 210.5,-0"/>
<text text-anchor="start" x="218.5" y="-16.8" font-family="Helvetica,sans-Serif" font-size="9.00">org.lightjason.trafficsimulation.runtime.</text>
<text text-anchor="middle" x="297" y="-6.8" font-family="Helvetica,sans-Serif" font-size="9.00">IExperiment.simulationsteps</text>
</a>
</g>
</g>
<!-- Node2&#45;&gt;Node7 -->
<g id="edge5" class="edge"><title>Node2&#45;&gt;Node7</title>
<path fill="none" stroke="midnightblue" d="M108.77,-93.933C132.412,-78.441 172.609,-53.6558 210,-38 215.818,-35.5641 221.958,-33.2963 228.173,-31.2046"/>
<polygon fill="midnightblue" stroke="midnightblue" points="229.51,-34.4515 237.962,-28.0639 227.371,-27.7861 229.51,-34.4515"/>
</g>
</g>
</svg>
