<?xml version="1.0" encoding="UTF-8" standalone="no"?>
<!DOCTYPE svg PUBLIC "-//W3C//DTD SVG 1.1//EN"
 "http://www.w3.org/Graphics/SVG/1.1/DTD/svg11.dtd">
<!-- Generated by graphviz version 2.36.0 (20140111.2315)
 -->
<!-- Title: org.lightjason.trafficsimulation.simulation.virtual .CArea Pages: 1 -->
<svg width="419pt" height="916pt"
 viewBox="0.00 0.00 419.00 916.00" xmlns="http://www.w3.org/2000/svg" xmlns:xlink="http://www.w3.org/1999/xlink">
<g id="graph0" class="graph" transform="scale(1 1) rotate(0) translate(4 912)">
<title>org.lightjason.trafficsimulation.simulation.virtual .CArea</title>
<!-- Node0 -->
<g id="node1" class="node"><title>Node0</title>
<polygon fill="#bfbfbf" stroke="black" points="118.5,-1 118.5,-175 327.5,-175 327.5,-1 118.5,-1"/>
<text text-anchor="start" x="126.5" y="-163.8" font-family="Helvetica,sans-Serif" font-size="9.00">org.lightjason.trafficsimulation.simulation.virtual</text>
<text text-anchor="middle" x="223" y="-153.8" font-family="Helvetica,sans-Serif" font-size="9.00"> .CArea</text>
<polyline fill="none" stroke="black" points="118.5,-147 327.5,-147 "/>
<text text-anchor="start" x="126.5" y="-135.8" font-family="Helvetica,sans-Serif" font-size="9.00">&#45; m_directions</text>
<text text-anchor="start" x="126.5" y="-125.8" font-family="Helvetica,sans-Serif" font-size="9.00">&#45; m_passable</text>
<text text-anchor="start" x="126.5" y="-115.8" font-family="Helvetica,sans-Serif" font-size="9.00">&#45; m_physical</text>
<text text-anchor="start" x="126.5" y="-105.8" font-family="Helvetica,sans-Serif" font-size="9.00">&#45; m_type</text>
<text text-anchor="start" x="126.5" y="-95.8" font-family="Helvetica,sans-Serif" font-size="9.00">&#45; COUNTER</text>
<text text-anchor="start" x="126.5" y="-85.8" font-family="Helvetica,sans-Serif" font-size="9.00">&#45; FUNCTOR</text>
<text text-anchor="start" x="126.5" y="-75.8" font-family="Helvetica,sans-Serif" font-size="9.00">&#45; serialVersionUID</text>
<polyline fill="none" stroke="black" points="118.5,-69 327.5,-69 "/>
<text text-anchor="start" x="126.5" y="-57.8" font-family="Helvetica,sans-Serif" font-size="9.00">+ addPhysical()</text>
<text text-anchor="start" x="126.5" y="-47.8" font-family="Helvetica,sans-Serif" font-size="9.00">+ call()</text>
<text text-anchor="start" x="126.5" y="-37.8" font-family="Helvetica,sans-Serif" font-size="9.00">+ isInside()</text>
<text text-anchor="start" x="126.5" y="-27.8" font-family="Helvetica,sans-Serif" font-size="9.00">+ type()</text>
<text text-anchor="start" x="126.5" y="-17.8" font-family="Helvetica,sans-Serif" font-size="9.00"># individualliteral()</text>
<text text-anchor="start" x="126.5" y="-7.8" font-family="Helvetica,sans-Serif" font-size="9.00">&#45; CArea()</text>
</g>
<!-- Node1 -->
<g id="node2" class="node"><title>Node1</title>
<g id="a_node2"><a xlink:href="../../d5/d6f/classorg_1_1lightjason_1_1trafficsimulation_1_1simulation_1_1IBaseObject.htm" target="_top" xlink:title="{org.lightjason.trafficsimulation.simulation.\lIBaseObject\&lt; CArea \&gt;\n|# m_environment\l# m_position\l&#45; m_external\l&#45; m_functor\l&#45; m_name\l&#45; serialVersionUID\l|+ equals()\l+ hashCode()\l+ literal()\l+ literal()\l+ name()\l+ position()\l# IBaseObject()\l# individualliteral()\l}">
<polygon fill="none" stroke="black" points="-0.5,-215 -0.5,-399 184.5,-399 184.5,-215 -0.5,-215"/>
<text text-anchor="start" x="7.5" y="-387.8" font-family="Helvetica,sans-Serif" font-size="9.00">org.lightjason.trafficsimulation.simulation.</text>
<text text-anchor="middle" x="92" y="-377.8" font-family="Helvetica,sans-Serif" font-size="9.00">IBaseObject&lt; CArea &gt;</text>
<polyline fill="none" stroke="black" points="-0.5,-371 184.5,-371 "/>
<text text-anchor="start" x="7.5" y="-359.8" font-family="Helvetica,sans-Serif" font-size="9.00"># m_environment</text>
<text text-anchor="start" x="7.5" y="-349.8" font-family="Helvetica,sans-Serif" font-size="9.00"># m_position</text>
<text text-anchor="start" x="7.5" y="-339.8" font-family="Helvetica,sans-Serif" font-size="9.00">&#45; m_external</text>
<text text-anchor="start" x="7.5" y="-329.8" font-family="Helvetica,sans-Serif" font-size="9.00">&#45; m_functor</text>
<text text-anchor="start" x="7.5" y="-319.8" font-family="Helvetica,sans-Serif" font-size="9.00">&#45; m_name</text>
<text text-anchor="start" x="7.5" y="-309.8" font-family="Helvetica,sans-Serif" font-size="9.00">&#45; serialVersionUID</text>
<polyline fill="none" stroke="black" points="-0.5,-303 184.5,-303 "/>
<text text-anchor="start" x="7.5" y="-291.8" font-family="Helvetica,sans-Serif" font-size="9.00">+ equals()</text>
<text text-anchor="start" x="7.5" y="-281.8" font-family="Helvetica,sans-Serif" font-size="9.00">+ hashCode()</text>
<text text-anchor="start" x="7.5" y="-271.8" font-family="Helvetica,sans-Serif" font-size="9.00">+ literal()</text>
<text text-anchor="start" x="7.5" y="-261.8" font-family="Helvetica,sans-Serif" font-size="9.00">+ literal()</text>
<text text-anchor="start" x="7.5" y="-251.8" font-family="Helvetica,sans-Serif" font-size="9.00">+ name()</text>
<text text-anchor="start" x="7.5" y="-241.8" font-family="Helvetica,sans-Serif" font-size="9.00">+ position()</text>
<text text-anchor="start" x="7.5" y="-231.8" font-family="Helvetica,sans-Serif" font-size="9.00"># IBaseObject()</text>
<text text-anchor="start" x="7.5" y="-221.8" font-family="Helvetica,sans-Serif" font-size="9.00"># individualliteral()</text>
</a>
</g>
</g>
<!-- Node1&#45;&gt;Node0 -->
<g id="edge1" class="edge"><title>Node1&#45;&gt;Node0</title>
<path fill="none" stroke="midnightblue" d="M152.204,-206.273C158.439,-195.944 164.739,-185.509 170.875,-175.344"/>
<polygon fill="none" stroke="midnightblue" points="149.158,-204.546 146.986,-214.916 155.151,-208.164 149.158,-204.546"/>
</g>
<!-- Node2 -->
<g id="node3" class="node"><title>Node2</title>
<g id="a_node3"><a xlink:href="../../d5/d6f/classorg_1_1lightjason_1_1trafficsimulation_1_1simulation_1_1IBaseObject.htm" target="_top" xlink:title="base agent object ">
<polygon fill="none" stroke="black" points="-0.5,-447 -0.5,-631 184.5,-631 184.5,-447 -0.5,-447"/>
<text text-anchor="start" x="7.5" y="-619.8" font-family="Helvetica,sans-Serif" font-size="9.00">org.lightjason.trafficsimulation.simulation.</text>
<text text-anchor="middle" x="92" y="-609.8" font-family="Helvetica,sans-Serif" font-size="9.00">IBaseObject&lt; T extends IObject&lt;?&gt;</text>
<polyline fill="none" stroke="black" points="-0.5,-603 184.5,-603 "/>
<text text-anchor="start" x="7.5" y="-591.8" font-family="Helvetica,sans-Serif" font-size="9.00"># m_environment</text>
<text text-anchor="start" x="7.5" y="-581.8" font-family="Helvetica,sans-Serif" font-size="9.00"># m_position</text>
<text text-anchor="start" x="7.5" y="-571.8" font-family="Helvetica,sans-Serif" font-size="9.00">&#45; m_external</text>
<text text-anchor="start" x="7.5" y="-561.8" font-family="Helvetica,sans-Serif" font-size="9.00">&#45; m_functor</text>
<text text-anchor="start" x="7.5" y="-551.8" font-family="Helvetica,sans-Serif" font-size="9.00">&#45; m_name</text>
<text text-anchor="start" x="7.5" y="-541.8" font-family="Helvetica,sans-Serif" font-size="9.00">&#45; serialVersionUID</text>
<polyline fill="none" stroke="black" points="-0.5,-535 184.5,-535 "/>
<text text-anchor="start" x="7.5" y="-523.8" font-family="Helvetica,sans-Serif" font-size="9.00">+ equals()</text>
<text text-anchor="start" x="7.5" y="-513.8" font-family="Helvetica,sans-Serif" font-size="9.00">+ hashCode()</text>
<text text-anchor="start" x="7.5" y="-503.8" font-family="Helvetica,sans-Serif" font-size="9.00">+ literal()</text>
<text text-anchor="start" x="7.5" y="-493.8" font-family="Helvetica,sans-Serif" font-size="9.00">+ literal()</text>
<text text-anchor="start" x="7.5" y="-483.8" font-family="Helvetica,sans-Serif" font-size="9.00">+ name()</text>
<text text-anchor="start" x="7.5" y="-473.8" font-family="Helvetica,sans-Serif" font-size="9.00">+ position()</text>
<text text-anchor="start" x="7.5" y="-463.8" font-family="Helvetica,sans-Serif" font-size="9.00"># IBaseObject()</text>
<text text-anchor="start" x="7.5" y="-453.8" font-family="Helvetica,sans-Serif" font-size="9.00"># individualliteral()</text>
</a>
</g>
</g>
<!-- Node2&#45;&gt;Node1 -->
<g id="edge2" class="edge"><title>Node2&#45;&gt;Node1</title>
<path fill="none" stroke="orange" d="M92,-436.404C92,-423.991 92,-411.368 92,-399.122"/>
<polygon fill="orange" stroke="orange" points="88.5001,-436.768 92,-446.768 95.5001,-436.768 88.5001,-436.768"/>
<text text-anchor="middle" x="114" y="-420.8" font-family="Helvetica,sans-Serif" font-size="9.00"> &lt; CArea &gt;</text>
</g>
<!-- Node3 -->
<g id="node4" class="node"><title>Node3</title>
<g id="a_node4"><a xlink:href="../../d5/dea/interfaceorg_1_1lightjason_1_1trafficsimulation_1_1simulation_1_1IObject.htm" target="_top" xlink:title="{org.lightjason.trafficsimulation.simulation.\lIObject\&lt; T \&gt;\n||+ literal()\l+ literal()\l+ name()\l+ position()\l}">
<polygon fill="none" stroke="black" points="58.5,-671 58.5,-765 243.5,-765 243.5,-671 58.5,-671"/>
<text text-anchor="start" x="66.5" y="-753.8" font-family="Helvetica,sans-Serif" font-size="9.00">org.lightjason.trafficsimulation.simulation.</text>
<text text-anchor="middle" x="151" y="-743.8" font-family="Helvetica,sans-Serif" font-size="9.00">IObject&lt; T &gt;</text>
<polyline fill="none" stroke="black" points="58.5,-737 243.5,-737 "/>
<text text-anchor="middle" x="151" y="-725.8" font-family="Helvetica,sans-Serif" font-size="9.00"> </text>
<polyline fill="none" stroke="black" points="58.5,-719 243.5,-719 "/>
<text text-anchor="start" x="66.5" y="-707.8" font-family="Helvetica,sans-Serif" font-size="9.00">+ literal()</text>
<text text-anchor="start" x="66.5" y="-697.8" font-family="Helvetica,sans-Serif" font-size="9.00">+ literal()</text>
<text text-anchor="start" x="66.5" y="-687.8" font-family="Helvetica,sans-Serif" font-size="9.00">+ name()</text>
<text text-anchor="start" x="66.5" y="-677.8" font-family="Helvetica,sans-Serif" font-size="9.00">+ position()</text>
</a>
</g>
</g>
<!-- Node3&#45;&gt;Node2 -->
<g id="edge3" class="edge"><title>Node3&#45;&gt;Node2</title>
<path fill="none" stroke="midnightblue" d="M132.396,-661.188C129.195,-651.584 125.794,-641.382 122.378,-631.133"/>
<polygon fill="none" stroke="midnightblue" points="129.17,-662.577 135.652,-670.957 135.811,-660.364 129.17,-662.577"/>
</g>
<!-- Node6 -->
<g id="node7" class="node"><title>Node6</title>
<g id="a_node7"><a xlink:href="../../d4/dd6/interfaceorg_1_1lightjason_1_1trafficsimulation_1_1simulation_1_1virtual_01_1_1IVirtual.htm" target="_top" xlink:title="virual interface ">
<polygon fill="none" stroke="black" points="202.5,-507 202.5,-571 411.5,-571 411.5,-507 202.5,-507"/>
<text text-anchor="start" x="210.5" y="-559.8" font-family="Helvetica,sans-Serif" font-size="9.00">org.lightjason.trafficsimulation.simulation.virtual</text>
<text text-anchor="middle" x="307" y="-549.8" font-family="Helvetica,sans-Serif" font-size="9.00"> .IVirtual&lt; T extends IVirtual&lt;?&gt;</text>
<polyline fill="none" stroke="black" points="202.5,-543 411.5,-543 "/>
<text text-anchor="middle" x="307" y="-531.8" font-family="Helvetica,sans-Serif" font-size="9.00"> </text>
<polyline fill="none" stroke="black" points="202.5,-525 411.5,-525 "/>
<text text-anchor="middle" x="307" y="-513.8" font-family="Helvetica,sans-Serif" font-size="9.00"> </text>
</a>
</g>
</g>
<!-- Node3&#45;&gt;Node6 -->
<g id="edge7" class="edge"><title>Node3&#45;&gt;Node6</title>
<path fill="none" stroke="midnightblue" d="M198.217,-663.426C224.845,-633.214 257.174,-596.533 279.636,-571.047"/>
<polygon fill="none" stroke="midnightblue" points="195.566,-661.141 191.58,-670.957 200.818,-665.769 195.566,-661.141"/>
</g>
<!-- Node4 -->
<g id="node5" class="node"><title>Node4</title>
<g id="a_node5"><a xlink:href="../../d5/dea/interfaceorg_1_1lightjason_1_1trafficsimulation_1_1simulation_1_1IObject.htm" target="_top" xlink:title="object interface ">
<polygon fill="none" stroke="black" points="58.5,-813 58.5,-907 243.5,-907 243.5,-813 58.5,-813"/>
<text text-anchor="start" x="66.5" y="-895.8" font-family="Helvetica,sans-Serif" font-size="9.00">org.lightjason.trafficsimulation.simulation.</text>
<text text-anchor="middle" x="151" y="-885.8" font-family="Helvetica,sans-Serif" font-size="9.00">IObject&lt; T extends IAgent&lt;?&gt;</text>
<polyline fill="none" stroke="black" points="58.5,-879 243.5,-879 "/>
<text text-anchor="middle" x="151" y="-867.8" font-family="Helvetica,sans-Serif" font-size="9.00"> </text>
<polyline fill="none" stroke="black" points="58.5,-861 243.5,-861 "/>
<text text-anchor="start" x="66.5" y="-849.8" font-family="Helvetica,sans-Serif" font-size="9.00">+ literal()</text>
<text text-anchor="start" x="66.5" y="-839.8" font-family="Helvetica,sans-Serif" font-size="9.00">+ literal()</text>
<text text-anchor="start" x="66.5" y="-829.8" font-family="Helvetica,sans-Serif" font-size="9.00">+ name()</text>
<text text-anchor="start" x="66.5" y="-819.8" font-family="Helvetica,sans-Serif" font-size="9.00">+ position()</text>
</a>
</g>
</g>
<!-- Node4&#45;&gt;Node3 -->
<g id="edge4" class="edge"><title>Node4&#45;&gt;Node3</title>
<path fill="none" stroke="orange" d="M151,-802.525C151,-790.119 151,-777.125 151,-765.181"/>
<polygon fill="orange" stroke="orange" points="147.5,-802.771 151,-812.771 154.5,-802.771 147.5,-802.771"/>
<text text-anchor="middle" x="162.5" y="-786.8" font-family="Helvetica,sans-Serif" font-size="9.00"> &lt; T &gt;</text>
</g>
<!-- Node5 -->
<g id="node6" class="node"><title>Node5</title>
<g id="a_node6"><a xlink:href="../../d4/dd6/interfaceorg_1_1lightjason_1_1trafficsimulation_1_1simulation_1_1virtual_01_1_1IVirtual.htm" target="_top" xlink:title="{org.lightjason.trafficsimulation.simulation.virtual\l .IVirtual\&lt; CArea \&gt;\n||}">
<polygon fill="none" stroke="black" points="202.5,-275 202.5,-339 411.5,-339 411.5,-275 202.5,-275"/>
<text text-anchor="start" x="210.5" y="-327.8" font-family="Helvetica,sans-Serif" font-size="9.00">org.lightjason.trafficsimulation.simulation.virtual</text>
<text text-anchor="middle" x="307" y="-317.8" font-family="Helvetica,sans-Serif" font-size="9.00"> .IVirtual&lt; CArea &gt;</text>
<polyline fill="none" stroke="black" points="202.5,-311 411.5,-311 "/>
<text text-anchor="middle" x="307" y="-299.8" font-family="Helvetica,sans-Serif" font-size="9.00"> </text>
<polyline fill="none" stroke="black" points="202.5,-293 411.5,-293 "/>
<text text-anchor="middle" x="307" y="-281.8" font-family="Helvetica,sans-Serif" font-size="9.00"> </text>
</a>
</g>
</g>
<!-- Node5&#45;&gt;Node0 -->
<g id="edge5" class="edge"><title>Node5&#45;&gt;Node0</title>
<path fill="none" stroke="midnightblue" d="M291.236,-265.277C281.427,-239.935 268.432,-206.365 256.416,-175.324"/>
<polygon fill="none" stroke="midnightblue" points="288.091,-266.847 294.965,-274.909 294.619,-264.32 288.091,-266.847"/>
</g>
<!-- Node6&#45;&gt;Node5 -->
<g id="edge6" class="edge"><title>Node6&#45;&gt;Node5</title>
<path fill="none" stroke="orange" d="M307,-496.929C307,-451.738 307,-380.109 307,-339.262"/>
<polygon fill="orange" stroke="orange" points="303.5,-496.981 307,-506.981 310.5,-496.981 303.5,-496.981"/>
<text text-anchor="middle" x="329" y="-420.8" font-family="Helvetica,sans-Serif" font-size="9.00"> &lt; CArea &gt;</text>
</g>
</g>
</svg>
