<?xml version="1.0" encoding="UTF-8" standalone="no"?>
<!DOCTYPE svg PUBLIC "-//W3C//DTD SVG 1.1//EN"
 "http://www.w3.org/Graphics/SVG/1.1/DTD/svg11.dtd">
<!-- Generated by graphviz version 2.36.0 (20140111.2315)
 -->
<!-- Title: org.lightjason.trafficsimulation.simulation.virtual .CArea Pages: 1 -->
<svg width="461pt" height="934pt"
 viewBox="0.00 0.00 461.00 934.00" xmlns="http://www.w3.org/2000/svg" xmlns:xlink="http://www.w3.org/1999/xlink">
<g id="graph0" class="graph" transform="scale(1 1) rotate(0) translate(4 930)">
<title>org.lightjason.trafficsimulation.simulation.virtual .CArea</title>
<!-- Node7 -->
<g id="node1" class="node"><title>Node7</title>
<polygon fill="#bfbfbf" stroke="black" points="130.5,-1 130.5,-175 339.5,-175 339.5,-1 130.5,-1"/>
<text text-anchor="start" x="138.5" y="-163.8" font-family="Helvetica,sans-Serif" font-size="9.00">org.lightjason.trafficsimulation.simulation.virtual</text>
<text text-anchor="middle" x="235" y="-153.8" font-family="Helvetica,sans-Serif" font-size="9.00"> .CArea</text>
<polyline fill="none" stroke="black" points="130.5,-147 339.5,-147 "/>
<text text-anchor="start" x="138.5" y="-135.8" font-family="Helvetica,sans-Serif" font-size="9.00">&#45; m_directions</text>
<text text-anchor="start" x="138.5" y="-125.8" font-family="Helvetica,sans-Serif" font-size="9.00">&#45; m_passable</text>
<text text-anchor="start" x="138.5" y="-115.8" font-family="Helvetica,sans-Serif" font-size="9.00">&#45; m_physical</text>
<text text-anchor="start" x="138.5" y="-105.8" font-family="Helvetica,sans-Serif" font-size="9.00">&#45; m_type</text>
<text text-anchor="start" x="138.5" y="-95.8" font-family="Helvetica,sans-Serif" font-size="9.00">&#45; COUNTER</text>
<text text-anchor="start" x="138.5" y="-85.8" font-family="Helvetica,sans-Serif" font-size="9.00">&#45; FUNCTOR</text>
<text text-anchor="start" x="138.5" y="-75.8" font-family="Helvetica,sans-Serif" font-size="9.00">&#45; serialVersionUID</text>
<polyline fill="none" stroke="black" points="130.5,-69 339.5,-69 "/>
<text text-anchor="start" x="138.5" y="-57.8" font-family="Helvetica,sans-Serif" font-size="9.00">+ addPhysical()</text>
<text text-anchor="start" x="138.5" y="-47.8" font-family="Helvetica,sans-Serif" font-size="9.00">+ call()</text>
<text text-anchor="start" x="138.5" y="-37.8" font-family="Helvetica,sans-Serif" font-size="9.00">+ isInside()</text>
<text text-anchor="start" x="138.5" y="-27.8" font-family="Helvetica,sans-Serif" font-size="9.00">+ type()</text>
<text text-anchor="start" x="138.5" y="-17.8" font-family="Helvetica,sans-Serif" font-size="9.00"># individualliteral()</text>
<text text-anchor="start" x="138.5" y="-7.8" font-family="Helvetica,sans-Serif" font-size="9.00">&#45; CArea()</text>
</g>
<!-- Node8 -->
<g id="node2" class="node"><title>Node8</title>
<g id="a_node2"><a xlink:href="../../d5/d6f/classorg_1_1lightjason_1_1trafficsimulation_1_1simulation_1_1IBaseObject.htm" target="_top" xlink:title="{org.lightjason.trafficsimulation.simulation.\lIBaseObject\&lt; CArea \&gt;\n|# m_environment\l# m_position\l&#45; m_external\l&#45; m_functor\l&#45; m_name\l&#45; serialVersionUID\l|+ equals()\l+ hashCode()\l+ literal()\l+ literal()\l+ name()\l+ position()\l# IBaseObject()\l# individualliteral()\l}">
<polygon fill="none" stroke="black" points="226.5,-215 226.5,-399 411.5,-399 411.5,-215 226.5,-215"/>
<text text-anchor="start" x="234.5" y="-387.8" font-family="Helvetica,sans-Serif" font-size="9.00">org.lightjason.trafficsimulation.simulation.</text>
<text text-anchor="middle" x="319" y="-377.8" font-family="Helvetica,sans-Serif" font-size="9.00">IBaseObject&lt; CArea &gt;</text>
<polyline fill="none" stroke="black" points="226.5,-371 411.5,-371 "/>
<text text-anchor="start" x="234.5" y="-359.8" font-family="Helvetica,sans-Serif" font-size="9.00"># m_environment</text>
<text text-anchor="start" x="234.5" y="-349.8" font-family="Helvetica,sans-Serif" font-size="9.00"># m_position</text>
<text text-anchor="start" x="234.5" y="-339.8" font-family="Helvetica,sans-Serif" font-size="9.00">&#45; m_external</text>
<text text-anchor="start" x="234.5" y="-329.8" font-family="Helvetica,sans-Serif" font-size="9.00">&#45; m_functor</text>
<text text-anchor="start" x="234.5" y="-319.8" font-family="Helvetica,sans-Serif" font-size="9.00">&#45; m_name</text>
<text text-anchor="start" x="234.5" y="-309.8" font-family="Helvetica,sans-Serif" font-size="9.00">&#45; serialVersionUID</text>
<polyline fill="none" stroke="black" points="226.5,-303 411.5,-303 "/>
<text text-anchor="start" x="234.5" y="-291.8" font-family="Helvetica,sans-Serif" font-size="9.00">+ equals()</text>
<text text-anchor="start" x="234.5" y="-281.8" font-family="Helvetica,sans-Serif" font-size="9.00">+ hashCode()</text>
<text text-anchor="start" x="234.5" y="-271.8" font-family="Helvetica,sans-Serif" font-size="9.00">+ literal()</text>
<text text-anchor="start" x="234.5" y="-261.8" font-family="Helvetica,sans-Serif" font-size="9.00">+ literal()</text>
<text text-anchor="start" x="234.5" y="-251.8" font-family="Helvetica,sans-Serif" font-size="9.00">+ name()</text>
<text text-anchor="start" x="234.5" y="-241.8" font-family="Helvetica,sans-Serif" font-size="9.00">+ position()</text>
<text text-anchor="start" x="234.5" y="-231.8" font-family="Helvetica,sans-Serif" font-size="9.00"># IBaseObject()</text>
<text text-anchor="start" x="234.5" y="-221.8" font-family="Helvetica,sans-Serif" font-size="9.00"># individualliteral()</text>
</a>
</g>
</g>
<!-- Node8&#45;&gt;Node7 -->
<g id="edge1" class="edge"><title>Node8&#45;&gt;Node7</title>
<path fill="none" stroke="midnightblue" d="M280.036,-205.343C276.156,-195.318 272.24,-185.204 268.424,-175.344"/>
<polygon fill="none" stroke="midnightblue" points="276.868,-206.853 283.742,-214.916 283.396,-204.326 276.868,-206.853"/>
</g>
<!-- Node9 -->
<g id="node3" class="node"><title>Node9</title>
<g id="a_node3"><a xlink:href="../../d5/d6f/classorg_1_1lightjason_1_1trafficsimulation_1_1simulation_1_1IBaseObject.htm" target="_top" xlink:title="base agent object ">
<polygon fill="none" stroke="black" points="226.5,-447 226.5,-621 411.5,-621 411.5,-447 226.5,-447"/>
<text text-anchor="start" x="234.5" y="-609.8" font-family="Helvetica,sans-Serif" font-size="9.00">org.lightjason.trafficsimulation.simulation.</text>
<text text-anchor="middle" x="319" y="-599.8" font-family="Helvetica,sans-Serif" font-size="9.00">IBaseObject&lt; T extends IObject&lt;?&gt;</text>
<polyline fill="none" stroke="black" points="226.5,-593 411.5,-593 "/>
<text text-anchor="start" x="234.5" y="-581.8" font-family="Helvetica,sans-Serif" font-size="9.00"># m_position</text>
<text text-anchor="start" x="234.5" y="-571.8" font-family="Helvetica,sans-Serif" font-size="9.00">&#45; m_external</text>
<text text-anchor="start" x="234.5" y="-561.8" font-family="Helvetica,sans-Serif" font-size="9.00">&#45; m_functor</text>
<text text-anchor="start" x="234.5" y="-551.8" font-family="Helvetica,sans-Serif" font-size="9.00">&#45; m_name</text>
<text text-anchor="start" x="234.5" y="-541.8" font-family="Helvetica,sans-Serif" font-size="9.00">&#45; serialVersionUID</text>
<polyline fill="none" stroke="black" points="226.5,-535 411.5,-535 "/>
<text text-anchor="start" x="234.5" y="-523.8" font-family="Helvetica,sans-Serif" font-size="9.00">+ equals()</text>
<text text-anchor="start" x="234.5" y="-513.8" font-family="Helvetica,sans-Serif" font-size="9.00">+ hashCode()</text>
<text text-anchor="start" x="234.5" y="-503.8" font-family="Helvetica,sans-Serif" font-size="9.00">+ literal()</text>
<text text-anchor="start" x="234.5" y="-493.8" font-family="Helvetica,sans-Serif" font-size="9.00">+ literal()</text>
<text text-anchor="start" x="234.5" y="-483.8" font-family="Helvetica,sans-Serif" font-size="9.00">+ name()</text>
<text text-anchor="start" x="234.5" y="-473.8" font-family="Helvetica,sans-Serif" font-size="9.00">+ position()</text>
<text text-anchor="start" x="234.5" y="-463.8" font-family="Helvetica,sans-Serif" font-size="9.00"># IBaseObject()</text>
<text text-anchor="start" x="234.5" y="-453.8" font-family="Helvetica,sans-Serif" font-size="9.00"># individualliteral()</text>
</a>
</g>
</g>
<!-- Node9&#45;&gt;Node8 -->
<g id="edge2" class="edge"><title>Node9&#45;&gt;Node8</title>
<path fill="none" stroke="orange" d="M319,-436.626C319,-424.215 319,-411.537 319,-399.213"/>
<polygon fill="orange" stroke="orange" points="315.5,-436.974 319,-446.974 322.5,-436.974 315.5,-436.974"/>
<text text-anchor="middle" x="341" y="-420.8" font-family="Helvetica,sans-Serif" font-size="9.00"> &lt; CArea &gt;</text>
</g>
<!-- Node10 -->
<g id="node4" class="node"><title>Node10</title>
<g id="a_node4"><a xlink:href="../../d5/dea/interfaceorg_1_1lightjason_1_1trafficsimulation_1_1simulation_1_1IObject.htm" target="_top" xlink:title="{org.lightjason.trafficsimulation.simulation.\lIObject\&lt; T \&gt;\n||+ literal()\l+ literal()\l+ name()\l+ position()\l}">
<polygon fill="none" stroke="black" points="11.5,-679 11.5,-773 196.5,-773 196.5,-679 11.5,-679"/>
<text text-anchor="start" x="19.5" y="-761.8" font-family="Helvetica,sans-Serif" font-size="9.00">org.lightjason.trafficsimulation.simulation.</text>
<text text-anchor="middle" x="104" y="-751.8" font-family="Helvetica,sans-Serif" font-size="9.00">IObject&lt; T &gt;</text>
<polyline fill="none" stroke="black" points="11.5,-745 196.5,-745 "/>
<text text-anchor="middle" x="104" y="-733.8" font-family="Helvetica,sans-Serif" font-size="9.00"> </text>
<polyline fill="none" stroke="black" points="11.5,-727 196.5,-727 "/>
<text text-anchor="start" x="19.5" y="-715.8" font-family="Helvetica,sans-Serif" font-size="9.00">+ literal()</text>
<text text-anchor="start" x="19.5" y="-705.8" font-family="Helvetica,sans-Serif" font-size="9.00">+ literal()</text>
<text text-anchor="start" x="19.5" y="-695.8" font-family="Helvetica,sans-Serif" font-size="9.00">+ name()</text>
<text text-anchor="start" x="19.5" y="-685.8" font-family="Helvetica,sans-Serif" font-size="9.00">+ position()</text>
</a>
</g>
</g>
<!-- Node10&#45;&gt;Node9 -->
<g id="edge3" class="edge"><title>Node10&#45;&gt;Node9</title>
<path fill="none" stroke="midnightblue" d="M163.902,-672.064C183.304,-654.918 205.298,-635.481 226.499,-616.746"/>
<polygon fill="none" stroke="midnightblue" points="161.496,-669.519 156.32,-678.764 166.131,-674.764 161.496,-669.519"/>
</g>
<!-- Node15 -->
<g id="node9" class="node"><title>Node15</title>
<g id="a_node9"><a xlink:href="../../d4/dd6/interfaceorg_1_1lightjason_1_1trafficsimulation_1_1simulation_1_1virtual_01_1_1IVirtual.htm" target="_top" xlink:title="virual interface ">
<polygon fill="none" stroke="black" points="-0.5,-502 -0.5,-566 208.5,-566 208.5,-502 -0.5,-502"/>
<text text-anchor="start" x="7.5" y="-554.8" font-family="Helvetica,sans-Serif" font-size="9.00">org.lightjason.trafficsimulation.simulation.virtual</text>
<text text-anchor="middle" x="104" y="-544.8" font-family="Helvetica,sans-Serif" font-size="9.00"> .IVirtual&lt; T extends IVirtual&lt;?&gt;</text>
<polyline fill="none" stroke="black" points="-0.5,-538 208.5,-538 "/>
<text text-anchor="middle" x="104" y="-526.8" font-family="Helvetica,sans-Serif" font-size="9.00"> </text>
<polyline fill="none" stroke="black" points="-0.5,-520 208.5,-520 "/>
<text text-anchor="middle" x="104" y="-508.8" font-family="Helvetica,sans-Serif" font-size="9.00"> </text>
</a>
</g>
</g>
<!-- Node10&#45;&gt;Node15 -->
<g id="edge9" class="edge"><title>Node10&#45;&gt;Node15</title>
<path fill="none" stroke="midnightblue" d="M104,-668.403C104,-634.934 104,-593.82 104,-566.154"/>
<polygon fill="none" stroke="midnightblue" points="100.5,-668.521 104,-678.521 107.5,-668.521 100.5,-668.521"/>
</g>
<!-- Node11 -->
<g id="node5" class="node"><title>Node11</title>
<g id="a_node5"><a xlink:href="../../d5/dea/interfaceorg_1_1lightjason_1_1trafficsimulation_1_1simulation_1_1IObject.htm" target="_top" xlink:title="object interface ">
<polygon fill="none" stroke="black" points="11.5,-831 11.5,-925 196.5,-925 196.5,-831 11.5,-831"/>
<text text-anchor="start" x="19.5" y="-913.8" font-family="Helvetica,sans-Serif" font-size="9.00">org.lightjason.trafficsimulation.simulation.</text>
<text text-anchor="middle" x="104" y="-903.8" font-family="Helvetica,sans-Serif" font-size="9.00">IObject&lt; T extends IAgent&lt;?&gt;</text>
<polyline fill="none" stroke="black" points="11.5,-897 196.5,-897 "/>
<text text-anchor="middle" x="104" y="-885.8" font-family="Helvetica,sans-Serif" font-size="9.00"> </text>
<polyline fill="none" stroke="black" points="11.5,-879 196.5,-879 "/>
<text text-anchor="start" x="19.5" y="-867.8" font-family="Helvetica,sans-Serif" font-size="9.00">+ literal()</text>
<text text-anchor="start" x="19.5" y="-857.8" font-family="Helvetica,sans-Serif" font-size="9.00">+ literal()</text>
<text text-anchor="start" x="19.5" y="-847.8" font-family="Helvetica,sans-Serif" font-size="9.00">+ name()</text>
<text text-anchor="start" x="19.5" y="-837.8" font-family="Helvetica,sans-Serif" font-size="9.00">+ position()</text>
</a>
</g>
</g>
<!-- Node11&#45;&gt;Node10 -->
<g id="edge4" class="edge"><title>Node11&#45;&gt;Node10</title>
<path fill="none" stroke="orange" d="M104,-820.657C104,-804.963 104,-788.105 104,-773.076"/>
<polygon fill="orange" stroke="orange" points="100.5,-820.771 104,-830.771 107.5,-820.771 100.5,-820.771"/>
<text text-anchor="middle" x="115.5" y="-804.8" font-family="Helvetica,sans-Serif" font-size="9.00"> &lt; T &gt;</text>
</g>
<!-- Node12 -->
<g id="node6" class="node"><title>Node12</title>
<g id="a_node6"><a xlink:href="../../d5/d10/interfaceorg_1_1lightjason_1_1trafficsimulation_1_1simulation_1_1environment_1_1IEnvironment.htm" target="_top" xlink:title="environment interface ">
<polygon fill="none" stroke="black" points="215,-669 215,-783 453,-783 453,-669 215,-669"/>
<text text-anchor="start" x="223" y="-771.8" font-family="Helvetica,sans-Serif" font-size="9.00">org.lightjason.trafficsimulation.simulation.environment.</text>
<text text-anchor="middle" x="334" y="-761.8" font-family="Helvetica,sans-Serif" font-size="9.00">IEnvironment</text>
<polyline fill="none" stroke="black" points="215,-755 453,-755 "/>
<text text-anchor="middle" x="334" y="-743.8" font-family="Helvetica,sans-Serif" font-size="9.00"> </text>
<polyline fill="none" stroke="black" points="215,-737 453,-737 "/>
<text text-anchor="start" x="223" y="-725.8" font-family="Helvetica,sans-Serif" font-size="9.00">+ empty()</text>
<text text-anchor="start" x="223" y="-715.8" font-family="Helvetica,sans-Serif" font-size="9.00">+ get()</text>
<text text-anchor="start" x="223" y="-705.8" font-family="Helvetica,sans-Serif" font-size="9.00">+ move()</text>
<text text-anchor="start" x="223" y="-695.8" font-family="Helvetica,sans-Serif" font-size="9.00">+ remove()</text>
<text text-anchor="start" x="223" y="-685.8" font-family="Helvetica,sans-Serif" font-size="9.00">+ route()</text>
<text text-anchor="start" x="223" y="-675.8" font-family="Helvetica,sans-Serif" font-size="9.00">+ routestimatedtime()</text>
</a>
</g>
</g>
<!-- Node12&#45;&gt;Node9 -->
<g id="edge5" class="edge"><title>Node12&#45;&gt;Node9</title>
<path fill="none" stroke="#404040" d="M329.56,-668.765C328.673,-657.521 327.716,-645.403 326.754,-633.215"/>
<polygon fill="none" stroke="#404040" points="326.737,-632.995 322.277,-627.328 325.792,-621.032 330.252,-626.699 326.737,-632.995"/>
<text text-anchor="middle" x="364" y="-642.8" font-family="Helvetica,sans-Serif" font-size="9.00"> #m_environment</text>
</g>
<!-- Node13 -->
<g id="node7" class="node"><title>Node13</title>
<g id="a_node7"><a xlink:href="../../d5/dea/interfaceorg_1_1lightjason_1_1trafficsimulation_1_1simulation_1_1IObject.htm" target="_top" xlink:title="object interface ">
<polygon fill="none" stroke="black" points="251.5,-831 251.5,-925 416.5,-925 416.5,-831 251.5,-831"/>
<text text-anchor="start" x="259.5" y="-913.8" font-family="Helvetica,sans-Serif" font-size="9.00">org::lightjason::trafficsimulation</text>
<text text-anchor="middle" x="334" y="-903.8" font-family="Helvetica,sans-Serif" font-size="9.00">::simulation::IObject&lt; IEnvironment &gt;</text>
<polyline fill="none" stroke="black" points="251.5,-897 416.5,-897 "/>
<text text-anchor="middle" x="334" y="-885.8" font-family="Helvetica,sans-Serif" font-size="9.00"> </text>
<polyline fill="none" stroke="black" points="251.5,-879 416.5,-879 "/>
<text text-anchor="start" x="259.5" y="-867.8" font-family="Helvetica,sans-Serif" font-size="9.00">+ literal()</text>
<text text-anchor="start" x="259.5" y="-857.8" font-family="Helvetica,sans-Serif" font-size="9.00">+ literal()</text>
<text text-anchor="start" x="259.5" y="-847.8" font-family="Helvetica,sans-Serif" font-size="9.00">+ name()</text>
<text text-anchor="start" x="259.5" y="-837.8" font-family="Helvetica,sans-Serif" font-size="9.00">+ position()</text>
</a>
</g>
</g>
<!-- Node13&#45;&gt;Node12 -->
<g id="edge6" class="edge"><title>Node13&#45;&gt;Node12</title>
<path fill="none" stroke="midnightblue" d="M334,-820.655C334,-808.374 334,-795.381 334,-783.11"/>
<polygon fill="none" stroke="midnightblue" points="330.5,-820.771 334,-830.771 337.5,-820.771 330.5,-820.771"/>
</g>
<!-- Node14 -->
<g id="node8" class="node"><title>Node14</title>
<g id="a_node8"><a xlink:href="../../d4/dd6/interfaceorg_1_1lightjason_1_1trafficsimulation_1_1simulation_1_1virtual_01_1_1IVirtual.htm" target="_top" xlink:title="{org.lightjason.trafficsimulation.simulation.virtual\l .IVirtual\&lt; CArea \&gt;\n||}">
<polygon fill="none" stroke="black" points="-0.5,-275 -0.5,-339 208.5,-339 208.5,-275 -0.5,-275"/>
<text text-anchor="start" x="7.5" y="-327.8" font-family="Helvetica,sans-Serif" font-size="9.00">org.lightjason.trafficsimulation.simulation.virtual</text>
<text text-anchor="middle" x="104" y="-317.8" font-family="Helvetica,sans-Serif" font-size="9.00"> .IVirtual&lt; CArea &gt;</text>
<polyline fill="none" stroke="black" points="-0.5,-311 208.5,-311 "/>
<text text-anchor="middle" x="104" y="-299.8" font-family="Helvetica,sans-Serif" font-size="9.00"> </text>
<polyline fill="none" stroke="black" points="-0.5,-293 208.5,-293 "/>
<text text-anchor="middle" x="104" y="-281.8" font-family="Helvetica,sans-Serif" font-size="9.00"> </text>
</a>
</g>
</g>
<!-- Node14&#45;&gt;Node7 -->
<g id="edge7" class="edge"><title>Node14&#45;&gt;Node7</title>
<path fill="none" stroke="midnightblue" d="M127.977,-266.282C143.344,-240.827 163.899,-206.777 182.887,-175.324"/>
<polygon fill="none" stroke="midnightblue" points="124.941,-264.539 122.769,-274.909 130.934,-268.157 124.941,-264.539"/>
</g>
<!-- Node15&#45;&gt;Node14 -->
<g id="edge8" class="edge"><title>Node15&#45;&gt;Node14</title>
<path fill="none" stroke="orange" d="M104,-491.611C104,-447.506 104,-378.686 104,-339.02"/>
<polygon fill="orange" stroke="orange" points="100.5,-491.715 104,-501.715 107.5,-491.715 100.5,-491.715"/>
<text text-anchor="middle" x="126" y="-420.8" font-family="Helvetica,sans-Serif" font-size="9.00"> &lt; CArea &gt;</text>
</g>
</g>
</svg>
