<?xml version="1.0" encoding="UTF-8" standalone="no"?>
<!DOCTYPE svg PUBLIC "-//W3C//DTD SVG 1.1//EN"
 "http://www.w3.org/Graphics/SVG/1.1/DTD/svg11.dtd">
<!-- Generated by graphviz version 2.36.0 (20140111.2315)
 -->
<!-- Title: org.lightjason.trafficsimulation.simulation.stationary.trafficlight.ITrafficLight&lt; T extends ITrafficLight&lt;?&gt; Pages: 1 -->
<svg width="562pt" height="884pt"
 viewBox="0.00 0.00 562.00 884.00" xmlns="http://www.w3.org/2000/svg" xmlns:xlink="http://www.w3.org/1999/xlink">
<g id="graph0" class="graph" transform="scale(1 1) rotate(0) translate(4 880)">
<title>org.lightjason.trafficsimulation.simulation.stationary.trafficlight.ITrafficLight&lt; T extends ITrafficLight&lt;?&gt;</title>
<!-- Node0 -->
<g id="node1" class="node"><title>Node0</title>
<polygon fill="#bfbfbf" stroke="black" points="104,-573 104,-637 372,-637 372,-573 104,-573"/>
<text text-anchor="start" x="112" y="-625.8" font-family="Helvetica,sans-Serif" font-size="9.00">org.lightjason.trafficsimulation.simulation.stationary.trafficlight.</text>
<text text-anchor="middle" x="238" y="-615.8" font-family="Helvetica,sans-Serif" font-size="9.00">ITrafficLight&lt; T extends ITrafficLight&lt;?&gt;</text>
<polyline fill="none" stroke="black" points="104,-609 372,-609 "/>
<text text-anchor="middle" x="238" y="-597.8" font-family="Helvetica,sans-Serif" font-size="9.00"> </text>
<polyline fill="none" stroke="black" points="104,-591 372,-591 "/>
<text text-anchor="middle" x="238" y="-579.8" font-family="Helvetica,sans-Serif" font-size="9.00"> </text>
</g>
<!-- Node3 -->
<g id="node4" class="node"><title>Node3</title>
<g id="a_node4"><a xlink:href="../../da/da0/interfaceorg_1_1lightjason_1_1trafficsimulation_1_1simulation_1_1stationary_1_1trafficlight_1_1ITrafficLight.htm" target="_top" xlink:title="{org.lightjason.trafficsimulation.simulation.stationary.trafficlight.\lITrafficLight\&lt; T \&gt;\n||}">
<polygon fill="none" stroke="black" points="104,-461 104,-525 372,-525 372,-461 104,-461"/>
<text text-anchor="start" x="112" y="-513.8" font-family="Helvetica,sans-Serif" font-size="9.00">org.lightjason.trafficsimulation.simulation.stationary.trafficlight.</text>
<text text-anchor="middle" x="238" y="-503.8" font-family="Helvetica,sans-Serif" font-size="9.00">ITrafficLight&lt; T &gt;</text>
<polyline fill="none" stroke="black" points="104,-497 372,-497 "/>
<text text-anchor="middle" x="238" y="-485.8" font-family="Helvetica,sans-Serif" font-size="9.00"> </text>
<polyline fill="none" stroke="black" points="104,-479 372,-479 "/>
<text text-anchor="middle" x="238" y="-467.8" font-family="Helvetica,sans-Serif" font-size="9.00"> </text>
</a>
</g>
</g>
<!-- Node0&#45;&gt;Node3 -->
<g id="edge3" class="edge"><title>Node0&#45;&gt;Node3</title>
<path fill="none" stroke="orange" d="M238,-562.667C238,-550.289 238,-536.925 238,-525.305"/>
<polygon fill="orange" stroke="orange" points="234.5,-562.773 238,-572.773 241.5,-562.773 234.5,-562.773"/>
<text text-anchor="middle" x="249.5" y="-546.8" font-family="Helvetica,sans-Serif" font-size="9.00"> &lt; T &gt;</text>
</g>
<!-- Node1 -->
<g id="node2" class="node"><title>Node1</title>
<g id="a_node2"><a xlink:href="../../db/db5/interfaceorg_1_1lightjason_1_1trafficsimulation_1_1simulation_1_1stationary_1_1IStationary.htm" target="_top" xlink:title="static interface ">
<polygon fill="none" stroke="black" points="150,-677 150,-741 326,-741 326,-677 150,-677"/>
<text text-anchor="start" x="158" y="-729.8" font-family="Helvetica,sans-Serif" font-size="9.00">org::lightjason::trafficsimulation</text>
<text text-anchor="middle" x="238" y="-719.8" font-family="Helvetica,sans-Serif" font-size="9.00">::simulation::stationary::IStationary&lt; T &gt;</text>
<polyline fill="none" stroke="black" points="150,-713 326,-713 "/>
<text text-anchor="middle" x="238" y="-701.8" font-family="Helvetica,sans-Serif" font-size="9.00"> </text>
<polyline fill="none" stroke="black" points="150,-695 326,-695 "/>
<text text-anchor="middle" x="238" y="-683.8" font-family="Helvetica,sans-Serif" font-size="9.00"> </text>
</a>
</g>
</g>
<!-- Node1&#45;&gt;Node0 -->
<g id="edge1" class="edge"><title>Node1&#45;&gt;Node0</title>
<path fill="none" stroke="midnightblue" d="M238,-666.832C238,-656.988 238,-646.635 238,-637.318"/>
<polygon fill="none" stroke="midnightblue" points="234.5,-666.842 238,-676.842 241.5,-666.842 234.5,-666.842"/>
</g>
<!-- Node2 -->
<g id="node3" class="node"><title>Node2</title>
<g id="a_node3"><a xlink:href="../../d5/dea/interfaceorg_1_1lightjason_1_1trafficsimulation_1_1simulation_1_1IObject.htm" target="_top" xlink:title="object interface ">
<polygon fill="none" stroke="black" points="166.5,-781 166.5,-875 309.5,-875 309.5,-781 166.5,-781"/>
<text text-anchor="start" x="174.5" y="-863.8" font-family="Helvetica,sans-Serif" font-size="9.00">org::lightjason::trafficsimulation</text>
<text text-anchor="middle" x="238" y="-853.8" font-family="Helvetica,sans-Serif" font-size="9.00">::simulation::IObject&lt; T &gt;</text>
<polyline fill="none" stroke="black" points="166.5,-847 309.5,-847 "/>
<text text-anchor="middle" x="238" y="-835.8" font-family="Helvetica,sans-Serif" font-size="9.00"> </text>
<polyline fill="none" stroke="black" points="166.5,-829 309.5,-829 "/>
<text text-anchor="start" x="174.5" y="-817.8" font-family="Helvetica,sans-Serif" font-size="9.00">+ literal()</text>
<text text-anchor="start" x="174.5" y="-807.8" font-family="Helvetica,sans-Serif" font-size="9.00">+ literal()</text>
<text text-anchor="start" x="174.5" y="-797.8" font-family="Helvetica,sans-Serif" font-size="9.00">+ name()</text>
<text text-anchor="start" x="174.5" y="-787.8" font-family="Helvetica,sans-Serif" font-size="9.00">+ position()</text>
</a>
</g>
</g>
<!-- Node2&#45;&gt;Node1 -->
<g id="edge2" class="edge"><title>Node2&#45;&gt;Node1</title>
<path fill="none" stroke="midnightblue" d="M238,-770.674C238,-760.515 238,-750.268 238,-741.162"/>
<polygon fill="none" stroke="midnightblue" points="234.5,-770.758 238,-780.759 241.5,-770.759 234.5,-770.758"/>
</g>
<!-- Node4 -->
<g id="node5" class="node"><title>Node4</title>
<g id="a_node5"><a xlink:href="../../d7/df3/classorg_1_1lightjason_1_1trafficsimulation_1_1simulation_1_1stationary_1_1trafficlight_1_1IBaseTrafficLight.htm" target="_top" xlink:title="traffic light abstract class ">
<polygon fill="none" stroke="black" points="104,-307 104,-421 372,-421 372,-307 104,-307"/>
<text text-anchor="start" x="112" y="-409.8" font-family="Helvetica,sans-Serif" font-size="9.00">org.lightjason.trafficsimulation.simulation.stationary.trafficlight.</text>
<text text-anchor="start" x="112" y="-399.8" font-family="Helvetica,sans-Serif" font-size="9.00">IBaseTrafficLight&lt; T extends IBaseTrafficLight</text>
<text text-anchor="middle" x="238" y="-389.8" font-family="Helvetica,sans-Serif" font-size="9.00">&lt;?, ?, L extends Enum&lt;?, &gt;</text>
<polyline fill="none" stroke="black" points="104,-383 372,-383 "/>
<text text-anchor="start" x="112" y="-371.8" font-family="Helvetica,sans-Serif" font-size="9.00"># GROUP</text>
<text text-anchor="start" x="112" y="-361.8" font-family="Helvetica,sans-Serif" font-size="9.00">&#45; m_color</text>
<text text-anchor="start" x="112" y="-351.8" font-family="Helvetica,sans-Serif" font-size="9.00">&#45; m_rotation</text>
<text text-anchor="start" x="112" y="-341.8" font-family="Helvetica,sans-Serif" font-size="9.00">&#45; serialVersionUID</text>
<polyline fill="none" stroke="black" points="104,-335 372,-335 "/>
<text text-anchor="start" x="112" y="-323.8" font-family="Helvetica,sans-Serif" font-size="9.00"># IBaseTrafficLight()</text>
<text text-anchor="start" x="112" y="-313.8" font-family="Helvetica,sans-Serif" font-size="9.00">&#45; nextstate()</text>
</a>
</g>
</g>
<!-- Node3&#45;&gt;Node4 -->
<g id="edge4" class="edge"><title>Node3&#45;&gt;Node4</title>
<path fill="none" stroke="midnightblue" d="M238,-450.629C238,-441.175 238,-430.972 238,-421.019"/>
<polygon fill="none" stroke="midnightblue" points="234.5,-450.932 238,-460.932 241.5,-450.932 234.5,-450.932"/>
</g>
<!-- Node5 -->
<g id="node6" class="node"><title>Node5</title>
<g id="a_node6"><a xlink:href="../../d7/df3/classorg_1_1lightjason_1_1trafficsimulation_1_1simulation_1_1stationary_1_1trafficlight_1_1IBaseTrafficLight.htm" target="_top" xlink:title="{org.lightjason.trafficsimulation.simulation.stationary.trafficlight.\lIBaseTrafficLight\&lt; CTrafficLightPedestrian,\l ELightColorPedestrian \&gt;\n|# GROUP\l&#45; m_color\l&#45; m_rotation\l&#45; serialVersionUID\l|# IBaseTrafficLight()\l&#45; nextstate()\l}">
<polygon fill="none" stroke="black" points="0,-135 0,-249 268,-249 268,-135 0,-135"/>
<text text-anchor="start" x="8" y="-237.8" font-family="Helvetica,sans-Serif" font-size="9.00">org.lightjason.trafficsimulation.simulation.stationary.trafficlight.</text>
<text text-anchor="start" x="8" y="-227.8" font-family="Helvetica,sans-Serif" font-size="9.00">IBaseTrafficLight&lt; CTrafficLightPedestrian,</text>
<text text-anchor="middle" x="134" y="-217.8" font-family="Helvetica,sans-Serif" font-size="9.00"> ELightColorPedestrian &gt;</text>
<polyline fill="none" stroke="black" points="0,-211 268,-211 "/>
<text text-anchor="start" x="8" y="-199.8" font-family="Helvetica,sans-Serif" font-size="9.00"># GROUP</text>
<text text-anchor="start" x="8" y="-189.8" font-family="Helvetica,sans-Serif" font-size="9.00">&#45; m_color</text>
<text text-anchor="start" x="8" y="-179.8" font-family="Helvetica,sans-Serif" font-size="9.00">&#45; m_rotation</text>
<text text-anchor="start" x="8" y="-169.8" font-family="Helvetica,sans-Serif" font-size="9.00">&#45; serialVersionUID</text>
<polyline fill="none" stroke="black" points="0,-163 268,-163 "/>
<text text-anchor="start" x="8" y="-151.8" font-family="Helvetica,sans-Serif" font-size="9.00"># IBaseTrafficLight()</text>
<text text-anchor="start" x="8" y="-141.8" font-family="Helvetica,sans-Serif" font-size="9.00">&#45; nextstate()</text>
</a>
</g>
</g>
<!-- Node4&#45;&gt;Node5 -->
<g id="edge5" class="edge"><title>Node4&#45;&gt;Node5</title>
<path fill="none" stroke="orange" d="M198.25,-298.023C188.381,-281.892 177.888,-264.74 168.306,-249.077"/>
<polygon fill="orange" stroke="orange" points="195.454,-300.161 203.658,-306.865 201.425,-296.508 195.454,-300.161"/>
<text text-anchor="start" x="190" y="-280.8" font-family="Helvetica,sans-Serif" font-size="9.00"> &lt; CTrafficLightPedestrian,</text>
<text text-anchor="middle" x="244.5" y="-270.8" font-family="Helvetica,sans-Serif" font-size="9.00"> ELightColorPedestrian &gt;</text>
</g>
<!-- Node7 -->
<g id="node8" class="node"><title>Node7</title>
<g id="a_node8"><a xlink:href="../../d7/df3/classorg_1_1lightjason_1_1trafficsimulation_1_1simulation_1_1stationary_1_1trafficlight_1_1IBaseTrafficLight.htm" target="_top" xlink:title="{org.lightjason.trafficsimulation.simulation.stationary.trafficlight.\lIBaseTrafficLight\&lt; CTrafficLightVehicle, ELightColorVehicle \&gt;\n|# GROUP\l&#45; m_color\l&#45; m_rotation\l&#45; serialVersionUID\l|# IBaseTrafficLight()\l&#45; nextstate()\l}">
<polygon fill="none" stroke="black" points="286,-140 286,-244 554,-244 554,-140 286,-140"/>
<text text-anchor="start" x="294" y="-232.8" font-family="Helvetica,sans-Serif" font-size="9.00">org.lightjason.trafficsimulation.simulation.stationary.trafficlight.</text>
<text text-anchor="middle" x="420" y="-222.8" font-family="Helvetica,sans-Serif" font-size="9.00">IBaseTrafficLight&lt; CTrafficLightVehicle, ELightColorVehicle &gt;</text>
<polyline fill="none" stroke="black" points="286,-216 554,-216 "/>
<text text-anchor="start" x="294" y="-204.8" font-family="Helvetica,sans-Serif" font-size="9.00"># GROUP</text>
<text text-anchor="start" x="294" y="-194.8" font-family="Helvetica,sans-Serif" font-size="9.00">&#45; m_color</text>
<text text-anchor="start" x="294" y="-184.8" font-family="Helvetica,sans-Serif" font-size="9.00">&#45; m_rotation</text>
<text text-anchor="start" x="294" y="-174.8" font-family="Helvetica,sans-Serif" font-size="9.00">&#45; serialVersionUID</text>
<polyline fill="none" stroke="black" points="286,-168 554,-168 "/>
<text text-anchor="start" x="294" y="-156.8" font-family="Helvetica,sans-Serif" font-size="9.00"># IBaseTrafficLight()</text>
<text text-anchor="start" x="294" y="-146.8" font-family="Helvetica,sans-Serif" font-size="9.00">&#45; nextstate()</text>
</a>
</g>
</g>
<!-- Node4&#45;&gt;Node7 -->
<g id="edge7" class="edge"><title>Node4&#45;&gt;Node7</title>
<path fill="none" stroke="orange" d="M305.546,-299.908C325.2,-281.549 346.421,-261.728 365.189,-244.197"/>
<polygon fill="orange" stroke="orange" points="303.017,-297.481 298.098,-306.865 307.795,-302.596 303.017,-297.481"/>
<text text-anchor="start" x="334" y="-280.8" font-family="Helvetica,sans-Serif" font-size="9.00"> &lt; CTrafficLightVehicle,</text>
<text text-anchor="middle" x="381.5" y="-270.8" font-family="Helvetica,sans-Serif" font-size="9.00"> ELightColorVehicle &gt;</text>
</g>
<!-- Node6 -->
<g id="node7" class="node"><title>Node6</title>
<g id="a_node7"><a xlink:href="../../d2/d17/classorg_1_1lightjason_1_1trafficsimulation_1_1simulation_1_1stationary_1_1trafficlight_1_1CTrafficLightPedestrian.htm" target="_top" xlink:title="pedestrian traffic light class ">
<polygon fill="none" stroke="black" points="0,-1 0,-95 268,-95 268,-1 0,-1"/>
<text text-anchor="start" x="8" y="-83.8" font-family="Helvetica,sans-Serif" font-size="9.00">org.lightjason.trafficsimulation.simulation.stationary.trafficlight.</text>
<text text-anchor="middle" x="134" y="-73.8" font-family="Helvetica,sans-Serif" font-size="9.00">CTrafficLightPedestrian</text>
<polyline fill="none" stroke="black" points="0,-67 268,-67 "/>
<text text-anchor="start" x="8" y="-55.8" font-family="Helvetica,sans-Serif" font-size="9.00">&#45; COUNTER</text>
<text text-anchor="start" x="8" y="-45.8" font-family="Helvetica,sans-Serif" font-size="9.00">&#45; FUNCTOR</text>
<text text-anchor="start" x="8" y="-35.8" font-family="Helvetica,sans-Serif" font-size="9.00">&#45; serialVersionUID</text>
<polyline fill="none" stroke="black" points="0,-29 268,-29 "/>
<text text-anchor="start" x="8" y="-17.8" font-family="Helvetica,sans-Serif" font-size="9.00"># individualliteral()</text>
<text text-anchor="start" x="8" y="-7.8" font-family="Helvetica,sans-Serif" font-size="9.00">&#45; CTrafficLightPedestrian()</text>
</a>
</g>
</g>
<!-- Node5&#45;&gt;Node6 -->
<g id="edge6" class="edge"><title>Node5&#45;&gt;Node6</title>
<path fill="none" stroke="midnightblue" d="M134,-124.575C134,-114.615 134,-104.535 134,-95.1217"/>
<polygon fill="none" stroke="midnightblue" points="130.5,-124.878 134,-134.878 137.5,-124.878 130.5,-124.878"/>
</g>
<!-- Node8 -->
<g id="node9" class="node"><title>Node8</title>
<g id="a_node9"><a xlink:href="../../d6/dd4/classorg_1_1lightjason_1_1trafficsimulation_1_1simulation_1_1stationary_1_1trafficlight_1_1CTrafficLightVehicle.htm" target="_top" xlink:title="vehicles traffic light class ">
<polygon fill="none" stroke="black" points="286,-1 286,-95 554,-95 554,-1 286,-1"/>
<text text-anchor="start" x="294" y="-83.8" font-family="Helvetica,sans-Serif" font-size="9.00">org.lightjason.trafficsimulation.simulation.stationary.trafficlight.</text>
<text text-anchor="middle" x="420" y="-73.8" font-family="Helvetica,sans-Serif" font-size="9.00">CTrafficLightVehicle</text>
<polyline fill="none" stroke="black" points="286,-67 554,-67 "/>
<text text-anchor="start" x="294" y="-55.8" font-family="Helvetica,sans-Serif" font-size="9.00">&#45; COUNTER</text>
<text text-anchor="start" x="294" y="-45.8" font-family="Helvetica,sans-Serif" font-size="9.00">&#45; FUNCTOR</text>
<text text-anchor="start" x="294" y="-35.8" font-family="Helvetica,sans-Serif" font-size="9.00">&#45; serialVersionUID</text>
<polyline fill="none" stroke="black" points="286,-29 554,-29 "/>
<text text-anchor="start" x="294" y="-17.8" font-family="Helvetica,sans-Serif" font-size="9.00"># individualliteral()</text>
<text text-anchor="start" x="294" y="-7.8" font-family="Helvetica,sans-Serif" font-size="9.00">&#45; CTrafficLightVehicle()</text>
</a>
</g>
</g>
<!-- Node7&#45;&gt;Node8 -->
<g id="edge8" class="edge"><title>Node7&#45;&gt;Node8</title>
<path fill="none" stroke="midnightblue" d="M420,-129.645C420,-118.024 420,-106.052 420,-95.0053"/>
<polygon fill="none" stroke="midnightblue" points="416.5,-129.735 420,-139.735 423.5,-129.735 416.5,-129.735"/>
</g>
</g>
</svg>
