<?xml version="1.0" encoding="UTF-8" standalone="no"?>
<!DOCTYPE svg PUBLIC "-//W3C//DTD SVG 1.1//EN"
 "http://www.w3.org/Graphics/SVG/1.1/DTD/svg11.dtd">
<!-- Generated by graphviz version 2.36.0 (20140111.2315)
 -->
<!-- Title: org.lightjason.trafficsimulation.IBaseTest Pages: 1 -->
<!--zoomable 508 -->
<svg id="main" version="1.1" xmlns="http://www.w3.org/2000/svg" xmlns:xlink="http://www.w3.org/1999/xlink" xml:space="preserve" onload="init(evt)">
<style type="text/css"><![CDATA[
.edge:hover path { stroke: red; }
.edge:hover polygon { stroke: red; fill: red; }
]]></style>
<script type="text/javascript"><![CDATA[
var edges = document.getElementsByTagName('g');
if (edges && edges.length) {
  for (var i=0;i<edges.length;i++) {
    if (edges[i].id.substr(0,4)=='edge') {
      edges[i].setAttribute('class','edge');
    }
  }
}
]]></script>
        <defs>
                <circle id="rim" cx="0" cy="0" r="7"/>
                <circle id="rim2" cx="0" cy="0" r="3.5"/>
                <g id="zoomPlus">
                        <use xlink:href="#rim" fill="#404040">
                                <set attributeName="fill" to="#808080" begin="zoomplus.mouseover" end="zoomplus.mouseout"/>
                        </use>
                        <path d="M-4,0h8M0,-4v8" fill="none" stroke="white" stroke-width="1.5" pointer-events="none"/>
                </g>
                <g id="zoomMin">
                        <use xlink:href="#rim" fill="#404040">
                                <set attributeName="fill" to="#808080" begin="zoomminus.mouseover" end="zoomminus.mouseout"/>
                        </use>
                        <path d="M-4,0h8" fill="none" stroke="white" stroke-width="1.5" pointer-events="none"/>
                </g>
                <g id="dirArrow">
                        <path fill="none" stroke="white" stroke-width="1.5" d="M0,-3.0v7 M-2.5,-0.5L0,-3.0L2.5,-0.5"/>
                </g>
               <g id="resetDef">
                       <use xlink:href="#rim2" fill="#404040">
                               <set attributeName="fill" to="#808080" begin="reset.mouseover" end="reset.mouseout"/>
                       </use>
               </g>
        </defs>

<script type="text/javascript">
var viewWidth = 1723;
var viewHeight = 508;
var sectionId = 'dynsection-0';
</script>
<script xlink:href="../../svgpan.js"/>
<svg id="graph" class="graph">
<g id="viewport">
<title>org.lightjason.trafficsimulation.IBaseTest</title>
<!-- Node0 -->
<g id="node1" class="node"><title>Node0</title>
<polygon fill="#bfbfbf" stroke="black" points="735,-315 735,-499 875,-499 875,-315 735,-315"/>
<text text-anchor="start" x="743" y="-487.8" font-family="Helvetica,sans-Serif" font-size="9.00">org.lightjason.trafficsimulation.</text>
<text text-anchor="middle" x="805" y="-477.8" font-family="Helvetica,sans-Serif" font-size="9.00">IBaseTest</text>
<polyline fill="none" stroke="black" points="735,-471 875,-471 "/>
<text text-anchor="start" x="743" y="-459.8" font-family="Helvetica,sans-Serif" font-size="9.00"># m_environment</text>
<text text-anchor="start" x="743" y="-449.8" font-family="Helvetica,sans-Serif" font-size="9.00">&#45; m_actions</text>
<text text-anchor="start" x="743" y="-439.8" font-family="Helvetica,sans-Serif" font-size="9.00">&#45; m_agents</text>
<polyline fill="none" stroke="black" points="735,-433 875,-433 "/>
<text text-anchor="start" x="743" y="-421.8" font-family="Helvetica,sans-Serif" font-size="9.00">+ loadconfiguration()</text>
<text text-anchor="start" x="743" y="-411.8" font-family="Helvetica,sans-Serif" font-size="9.00">~ [static initializer]()</text>
<text text-anchor="start" x="743" y="-401.8" font-family="Helvetica,sans-Serif" font-size="9.00"># generate()</text>
<text text-anchor="start" x="743" y="-391.8" font-family="Helvetica,sans-Serif" font-size="9.00"># generatemultiple()</text>
<text text-anchor="start" x="743" y="-381.8" font-family="Helvetica,sans-Serif" font-size="9.00"># initializeenvironment()</text>
<text text-anchor="start" x="743" y="-371.8" font-family="Helvetica,sans-Serif" font-size="9.00"># invoketest()</text>
<text text-anchor="start" x="743" y="-361.8" font-family="Helvetica,sans-Serif" font-size="9.00"># executeagent()</text>
<text text-anchor="start" x="743" y="-351.8" font-family="Helvetica,sans-Serif" font-size="9.00"># executeagent()</text>
<text text-anchor="start" x="743" y="-341.8" font-family="Helvetica,sans-Serif" font-size="9.00">&#45; before()</text>
<text text-anchor="start" x="743" y="-331.8" font-family="Helvetica,sans-Serif" font-size="9.00">&#45; execute()</text>
<text text-anchor="start" x="743" y="-321.8" font-family="Helvetica,sans-Serif" font-size="9.00">&#45; invoke()</text>
</g>
<!-- Node1 -->
<g id="node2" class="node"><title>Node1</title>
<g id="a_node2"><a xlink:href="../../d8/dbd/classorg_1_1lightjason_1_1trafficsimulation_1_1IBaseViewTest.htm" target="_top" xlink:title="test class with window ">
<polygon fill="none" stroke="black" points="40,-193 40,-267 180,-267 180,-193 40,-193"/>
<text text-anchor="start" x="48" y="-255.8" font-family="Helvetica,sans-Serif" font-size="9.00">org.lightjason.trafficsimulation.</text>
<text text-anchor="middle" x="110" y="-245.8" font-family="Helvetica,sans-Serif" font-size="9.00">IBaseViewTest</text>
<polyline fill="none" stroke="black" points="40,-239 180,-239 "/>
<text text-anchor="middle" x="110" y="-227.8" font-family="Helvetica,sans-Serif" font-size="9.00"> </text>
<polyline fill="none" stroke="black" points="40,-221 180,-221 "/>
<text text-anchor="start" x="48" y="-209.8" font-family="Helvetica,sans-Serif" font-size="9.00"># screen()</text>
<text text-anchor="start" x="48" y="-199.8" font-family="Helvetica,sans-Serif" font-size="9.00"># screen()</text>
</a>
</g>
</g>
<!-- Node0&#45;&gt;Node1 -->
<g id="edge1" class="edge"><title>Node0&#45;&gt;Node1</title>
<path fill="none" stroke="midnightblue" d="M724.763,-397.919C604.841,-383.952 373.244,-349.627 189,-278 181.117,-274.935 173.111,-271.125 165.372,-267.009"/>
<polygon fill="none" stroke="midnightblue" points="724.627,-401.426 734.96,-399.088 725.424,-394.471 724.627,-401.426"/>
</g>
<!-- Node3 -->
<g id="node4" class="node"><title>Node3</title>
<g id="a_node4"><a xlink:href="../../d0/d32/classorg_1_1lightjason_1_1trafficsimulation_1_1simulation_1_1environment_1_1TestCEnvironment.htm" target="_top" xlink:title="test environment ">
<polygon fill="none" stroke="black" points="198,-188 198,-272 436,-272 436,-188 198,-188"/>
<text text-anchor="start" x="206" y="-260.8" font-family="Helvetica,sans-Serif" font-size="9.00">org.lightjason.trafficsimulation.simulation.environment.</text>
<text text-anchor="middle" x="317" y="-250.8" font-family="Helvetica,sans-Serif" font-size="9.00">TestCEnvironment</text>
<polyline fill="none" stroke="black" points="198,-244 436,-244 "/>
<text text-anchor="middle" x="317" y="-232.8" font-family="Helvetica,sans-Serif" font-size="9.00"> </text>
<polyline fill="none" stroke="black" points="198,-226 436,-226 "/>
<text text-anchor="start" x="206" y="-214.8" font-family="Helvetica,sans-Serif" font-size="9.00">+ initilize()</text>
<text text-anchor="start" x="206" y="-204.8" font-family="Helvetica,sans-Serif" font-size="9.00">+ testEnvironmentCall()</text>
<text text-anchor="start" x="206" y="-194.8" font-family="Helvetica,sans-Serif" font-size="9.00">+ main()</text>
</a>
</g>
</g>
<!-- Node0&#45;&gt;Node3 -->
<g id="edge3" class="edge"><title>Node0&#45;&gt;Node3</title>
<path fill="none" stroke="midnightblue" d="M725.301,-377.927C652.296,-352.149 541.273,-312.789 445,-278 439.657,-276.069 434.19,-274.087 428.671,-272.081"/>
<polygon fill="none" stroke="midnightblue" points="724.305,-381.287 734.9,-381.316 726.635,-374.686 724.305,-381.287"/>
</g>
<!-- Node4 -->
<g id="node5" class="node"><title>Node4</title>
<g id="a_node5"><a xlink:href="../../de/dc3/classorg_1_1lightjason_1_1trafficsimulation_1_1simulation_1_1movable_1_1TestCPedestrian.htm" target="_top" xlink:title="test pedestrians ">
<polygon fill="none" stroke="black" points="454,-188 454,-272 676,-272 676,-188 454,-188"/>
<text text-anchor="start" x="462" y="-260.8" font-family="Helvetica,sans-Serif" font-size="9.00">org.lightjason.trafficsimulation.simulation.movable.</text>
<text text-anchor="middle" x="565" y="-250.8" font-family="Helvetica,sans-Serif" font-size="9.00">TestCPedestrian</text>
<polyline fill="none" stroke="black" points="454,-244 676,-244 "/>
<text text-anchor="start" x="462" y="-232.8" font-family="Helvetica,sans-Serif" font-size="9.00">&#45; m_pedestrian</text>
<polyline fill="none" stroke="black" points="454,-226 676,-226 "/>
<text text-anchor="start" x="462" y="-214.8" font-family="Helvetica,sans-Serif" font-size="9.00">+ initialize()</text>
<text text-anchor="start" x="462" y="-204.8" font-family="Helvetica,sans-Serif" font-size="9.00">+ testagentcall()</text>
<text text-anchor="start" x="462" y="-194.8" font-family="Helvetica,sans-Serif" font-size="9.00">+ main()</text>
</a>
</g>
</g>
<!-- Node0&#45;&gt;Node4 -->
<g id="edge4" class="edge"><title>Node0&#45;&gt;Node4</title>
<path fill="none" stroke="midnightblue" d="M726.782,-348.966C692.428,-323.916 652.853,-295.059 621.443,-272.157"/>
<polygon fill="none" stroke="midnightblue" points="724.795,-351.849 734.937,-354.912 728.919,-346.193 724.795,-351.849"/>
</g>
<!-- Node5 -->
<g id="node6" class="node"><title>Node5</title>
<g id="a_node6"><a xlink:href="../../d8/d27/classorg_1_1lightjason_1_1trafficsimulation_1_1simulation_1_1movable_1_1TestCVehicle.htm" target="_top" xlink:title="test vehicle ">
<polygon fill="none" stroke="black" points="694,-183 694,-277 916,-277 916,-183 694,-183"/>
<text text-anchor="start" x="702" y="-265.8" font-family="Helvetica,sans-Serif" font-size="9.00">org.lightjason.trafficsimulation.simulation.movable.</text>
<text text-anchor="middle" x="805" y="-255.8" font-family="Helvetica,sans-Serif" font-size="9.00">TestCVehicle</text>
<polyline fill="none" stroke="black" points="694,-249 916,-249 "/>
<text text-anchor="start" x="702" y="-237.8" font-family="Helvetica,sans-Serif" font-size="9.00">&#45; m_vehicle</text>
<polyline fill="none" stroke="black" points="694,-231 916,-231 "/>
<text text-anchor="start" x="702" y="-219.8" font-family="Helvetica,sans-Serif" font-size="9.00">+ initialize()</text>
<text text-anchor="start" x="702" y="-209.8" font-family="Helvetica,sans-Serif" font-size="9.00">+ test()</text>
<text text-anchor="start" x="702" y="-199.8" font-family="Helvetica,sans-Serif" font-size="9.00">+ testMoving()</text>
<text text-anchor="start" x="702" y="-189.8" font-family="Helvetica,sans-Serif" font-size="9.00">+ main()</text>
</a>
</g>
</g>
<!-- Node0&#45;&gt;Node5 -->
<g id="edge5" class="edge"><title>Node0&#45;&gt;Node5</title>
<path fill="none" stroke="midnightblue" d="M805,-304.805C805,-295.165 805,-285.753 805,-277.052"/>
<polygon fill="none" stroke="midnightblue" points="801.5,-304.912 805,-314.912 808.5,-304.912 801.5,-304.912"/>
</g>
<!-- Node6 -->
<g id="node7" class="node"><title>Node6</title>
<g id="a_node7"><a xlink:href="../../d4/dfb/classorg_1_1lightjason_1_1trafficsimulation_1_1simulation_1_1stationary_1_1trafficlight_1_1TestCTrafficLightPedestrian.htm" target="_top" xlink:title="test pedestrian traffic light ">
<polygon fill="none" stroke="black" points="934,-188 934,-272 1202,-272 1202,-188 934,-188"/>
<text text-anchor="start" x="942" y="-260.8" font-family="Helvetica,sans-Serif" font-size="9.00">org.lightjason.trafficsimulation.simulation.stationary.trafficlight.</text>
<text text-anchor="middle" x="1068" y="-250.8" font-family="Helvetica,sans-Serif" font-size="9.00">TestCTrafficLightPedestrian</text>
<polyline fill="none" stroke="black" points="934,-244 1202,-244 "/>
<text text-anchor="start" x="942" y="-232.8" font-family="Helvetica,sans-Serif" font-size="9.00">&#45; m_pedestrianlight</text>
<polyline fill="none" stroke="black" points="934,-226 1202,-226 "/>
<text text-anchor="start" x="942" y="-214.8" font-family="Helvetica,sans-Serif" font-size="9.00">+ initialize()</text>
<text text-anchor="start" x="942" y="-204.8" font-family="Helvetica,sans-Serif" font-size="9.00">+ test()</text>
<text text-anchor="start" x="942" y="-194.8" font-family="Helvetica,sans-Serif" font-size="9.00">+ main()</text>
</a>
</g>
</g>
<!-- Node0&#45;&gt;Node6 -->
<g id="edge6" class="edge"><title>Node0&#45;&gt;Node6</title>
<path fill="none" stroke="midnightblue" d="M883.879,-353.514C923.019,-327.47 969.608,-296.47 1006.13,-272.17"/>
<polygon fill="none" stroke="midnightblue" points="881.52,-350.879 875.134,-359.333 885.398,-356.707 881.52,-350.879"/>
</g>
<!-- Node7 -->
<g id="node8" class="node"><title>Node7</title>
<g id="a_node8"><a xlink:href="../../d5/d41/classorg_1_1lightjason_1_1trafficsimulation_1_1simulation_1_1stationary_1_1trafficlight_1_1TestCTrafficLightVehicle.htm" target="_top" xlink:title="test vehicles traffic light ">
<polygon fill="none" stroke="black" points="1220,-188 1220,-272 1488,-272 1488,-188 1220,-188"/>
<text text-anchor="start" x="1228" y="-260.8" font-family="Helvetica,sans-Serif" font-size="9.00">org.lightjason.trafficsimulation.simulation.stationary.trafficlight.</text>
<text text-anchor="middle" x="1354" y="-250.8" font-family="Helvetica,sans-Serif" font-size="9.00">TestCTrafficLightVehicle</text>
<polyline fill="none" stroke="black" points="1220,-244 1488,-244 "/>
<text text-anchor="start" x="1228" y="-232.8" font-family="Helvetica,sans-Serif" font-size="9.00">&#45; m_vehiclelight</text>
<polyline fill="none" stroke="black" points="1220,-226 1488,-226 "/>
<text text-anchor="start" x="1228" y="-214.8" font-family="Helvetica,sans-Serif" font-size="9.00">+ initialize()</text>
<text text-anchor="start" x="1228" y="-204.8" font-family="Helvetica,sans-Serif" font-size="9.00">+ test()</text>
<text text-anchor="start" x="1228" y="-194.8" font-family="Helvetica,sans-Serif" font-size="9.00">+ main()</text>
</a>
</g>
</g>
<!-- Node0&#45;&gt;Node7 -->
<g id="edge7" class="edge"><title>Node0&#45;&gt;Node7</title>
<path fill="none" stroke="midnightblue" d="M884.875,-381.132C966.817,-355.547 1097.94,-314.402 1211,-278 1216.97,-276.078 1223.08,-274.103 1229.24,-272.102"/>
<polygon fill="none" stroke="midnightblue" points="883.634,-377.853 875.131,-384.173 885.72,-384.535 883.634,-377.853"/>
</g>
<!-- Node8 -->
<g id="node9" class="node"><title>Node8</title>
<g id="a_node9"><a xlink:href="../../d2/de9/classorg_1_1lightjason_1_1trafficsimulation_1_1simulation_1_1virtual_01_1_1TestCArea.htm" target="_top" xlink:title="test area ">
<polygon fill="none" stroke="black" points="1506.5,-198 1506.5,-262 1715.5,-262 1715.5,-198 1506.5,-198"/>
<text text-anchor="start" x="1514.5" y="-250.8" font-family="Helvetica,sans-Serif" font-size="9.00">org.lightjason.trafficsimulation.simulation.virtual</text>
<text text-anchor="middle" x="1611" y="-240.8" font-family="Helvetica,sans-Serif" font-size="9.00"> .TestCArea</text>
<polyline fill="none" stroke="black" points="1506.5,-234 1715.5,-234 "/>
<text text-anchor="middle" x="1611" y="-222.8" font-family="Helvetica,sans-Serif" font-size="9.00"> </text>
<polyline fill="none" stroke="black" points="1506.5,-216 1715.5,-216 "/>
<text text-anchor="start" x="1514.5" y="-204.8" font-family="Helvetica,sans-Serif" font-size="9.00">+ main()</text>
</a>
</g>
</g>
<!-- Node0&#45;&gt;Node8 -->
<g id="edge8" class="edge"><title>Node0&#45;&gt;Node8</title>
<path fill="none" stroke="midnightblue" d="M885.413,-396.653C1015.74,-380.279 1280.37,-341.932 1497,-278 1511.89,-273.607 1527.48,-267.932 1542.2,-262.055"/>
<polygon fill="none" stroke="midnightblue" points="884.614,-393.225 875.124,-397.935 885.48,-400.171 884.614,-393.225"/>
</g>
<!-- Node2 -->
<g id="node3" class="node"><title>Node2</title>
<g id="a_node3"><a xlink:href="../../dd/d76/classorg_1_1lightjason_1_1trafficsimulation_1_1simulation_1_1movable_1_1TestCViewPedstrian.htm" target="_top" xlink:title="test of driving a vehicle ">
<polygon fill="none" stroke="black" points="-1,-1 -1,-145 221,-145 221,-1 -1,-1"/>
<text text-anchor="start" x="7" y="-133.8" font-family="Helvetica,sans-Serif" font-size="9.00">org.lightjason.trafficsimulation.simulation.movable.</text>
<text text-anchor="middle" x="110" y="-123.8" font-family="Helvetica,sans-Serif" font-size="9.00">TestCViewPedstrian</text>
<polyline fill="none" stroke="black" points="-1,-117 221,-117 "/>
<text text-anchor="start" x="7" y="-105.8" font-family="Helvetica,sans-Serif" font-size="9.00">&#45; m_pedestrian</text>
<text text-anchor="start" x="7" y="-95.8" font-family="Helvetica,sans-Serif" font-size="9.00">&#45; ENVCELL</text>
<text text-anchor="start" x="7" y="-85.8" font-family="Helvetica,sans-Serif" font-size="9.00">&#45; ENVHEIGHT</text>
<text text-anchor="start" x="7" y="-75.8" font-family="Helvetica,sans-Serif" font-size="9.00">&#45; ENVWIDTH</text>
<text text-anchor="start" x="7" y="-65.8" font-family="Helvetica,sans-Serif" font-size="9.00">&#45; s_screen</text>
<text text-anchor="start" x="7" y="-55.8" font-family="Helvetica,sans-Serif" font-size="9.00">&#45; WINDOWHEIGHT</text>
<text text-anchor="start" x="7" y="-45.8" font-family="Helvetica,sans-Serif" font-size="9.00">&#45; WINDOWWIDTH</text>
<polyline fill="none" stroke="black" points="-1,-39 221,-39 "/>
<text text-anchor="start" x="7" y="-27.8" font-family="Helvetica,sans-Serif" font-size="9.00">+ initialize()</text>
<text text-anchor="start" x="7" y="-17.8" font-family="Helvetica,sans-Serif" font-size="9.00">+ showmoving()</text>
<text text-anchor="start" x="7" y="-7.8" font-family="Helvetica,sans-Serif" font-size="9.00">+ main()</text>
</a>
</g>
</g>
<!-- Node1&#45;&gt;Node2 -->
<g id="edge2" class="edge"><title>Node1&#45;&gt;Node2</title>
<path fill="none" stroke="midnightblue" d="M110,-182.623C110,-170.824 110,-157.871 110,-145.148"/>
<polygon fill="none" stroke="midnightblue" points="106.5,-182.659 110,-192.659 113.5,-182.659 106.5,-182.659"/>
</g>
</g>
</svg>
        <g id="navigator" transform="translate(0 0)" fill="#404254">
                <rect fill="#f2f5e9" fill-opacity="0.5" stroke="#606060" stroke-width=".5" x="0" y="0" width="60" height="60"/>
                <use id="zoomplus" xlink:href="#zoomPlus" x="17" y="9" onmousedown="handleZoom(evt,'in')"/>
                <use id="zoomminus" xlink:href="#zoomMin" x="42" y="9" onmousedown="handleZoom(evt,'out')"/>
                <use id="reset" xlink:href="#resetDef" x="30" y="36" onmousedown="handleReset()"/>
                <g id="arrowUp" xlink:href="#dirArrow" transform="translate(30 24)" onmousedown="handlePan(0,-1)">
                  <use xlink:href="#rim" fill="#404040">
                        <set attributeName="fill" to="#808080" begin="arrowUp.mouseover" end="arrowUp.mouseout"/>
                  </use>
                  <path fill="none" stroke="white" stroke-width="1.5" d="M0,-3.0v7 M-2.5,-0.5L0,-3.0L2.5,-0.5"/>
                </g>
                <g id="arrowRight" xlink:href="#dirArrow" transform="rotate(90) translate(36 -43)" onmousedown="handlePan(1,0)">
                  <use xlink:href="#rim" fill="#404040">
                        <set attributeName="fill" to="#808080" begin="arrowRight.mouseover" end="arrowRight.mouseout"/>
                  </use>
                  <path fill="none" stroke="white" stroke-width="1.5" d="M0,-3.0v7 M-2.5,-0.5L0,-3.0L2.5,-0.5"/>
                </g>
                <g id="arrowDown" xlink:href="#dirArrow" transform="rotate(180) translate(-30 -48)" onmousedown="handlePan(0,1)">
                  <use xlink:href="#rim" fill="#404040">
                        <set attributeName="fill" to="#808080" begin="arrowDown.mouseover" end="arrowDown.mouseout"/>
                  </use>
                  <path fill="none" stroke="white" stroke-width="1.5" d="M0,-3.0v7 M-2.5,-0.5L0,-3.0L2.5,-0.5"/>
                </g>
                <g id="arrowLeft" xlink:href="#dirArrow" transform="rotate(270) translate(-36 17)" onmousedown="handlePan(-1,0)">
                  <use xlink:href="#rim" fill="#404040">
                        <set attributeName="fill" to="#808080" begin="arrowLeft.mouseover" end="arrowLeft.mouseout"/>
                  </use>
                  <path fill="none" stroke="white" stroke-width="1.5" d="M0,-3.0v7 M-2.5,-0.5L0,-3.0L2.5,-0.5"/>
                </g>
        </g>
        <svg viewBox="0 0 15 15" width="100%" height="30px" preserveAspectRatio="xMaxYMin meet">
         <g id="arrow_out" transform="scale(0.3 0.3)">
          <a xlink:href="classorg_1_1lightjason_1_1trafficsimulation_1_1IBaseTest__inherit__graph_org.svg" target="_base">
           <rect id="button" ry="5" rx="5" y="6" x="6" height="38" width="38"
                fill="#f2f5e9" fill-opacity="0.5" stroke="#606060" stroke-width="1.0"/>
           <path id="arrow"
             d="M 11.500037,31.436501 C 11.940474,20.09759 22.043105,11.32322 32.158766,21.979434 L 37.068811,17.246167 C 37.068811,17.246167 37.088388,32 37.088388,32 L 22.160133,31.978069 C 22.160133,31.978069 26.997745,27.140456 26.997745,27.140456 C 18.528582,18.264221 13.291696,25.230495 11.500037,31.436501 z"
             style="fill:#404040;"/>
          </a>
         </g>
        </svg>
</svg>
