<?xml version="1.0" encoding="UTF-8" standalone="no"?>
<!DOCTYPE svg PUBLIC "-//W3C//DTD SVG 1.1//EN"
 "http://www.w3.org/Graphics/SVG/1.1/DTD/svg11.dtd">
<!-- Generated by graphviz version 2.36.0 (20140111.2315)
 -->
<!-- Title: org.lightjason.trafficsimulation.simulation.stationary.trafficlight.IBaseTrafficLight&lt; T extends IBaseTrafficLight&lt;?, ?, L extends Enum&lt;?, &gt; Pages: 1 -->
<svg width="735pt" height="776pt"
 viewBox="0.00 0.00 735.00 776.00" xmlns="http://www.w3.org/2000/svg" xmlns:xlink="http://www.w3.org/1999/xlink">
<g id="graph0" class="graph" transform="scale(1 1) rotate(0) translate(4 772)">
<title>org.lightjason.trafficsimulation.simulation.stationary.trafficlight.IBaseTrafficLight&lt; T extends IBaseTrafficLight&lt;?, ?, L extends Enum&lt;?, &gt;</title>
<!-- Node12 -->
<g id="node1" class="node"><title>Node12</title>
<polygon fill="#bfbfbf" stroke="black" points="332,-1 332,-115 600,-115 600,-1 332,-1"/>
<text text-anchor="start" x="340" y="-103.8" font-family="Helvetica,sans-Serif" font-size="9.00">org.lightjason.trafficsimulation.simulation.stationary.trafficlight.</text>
<text text-anchor="start" x="340" y="-93.8" font-family="Helvetica,sans-Serif" font-size="9.00">IBaseTrafficLight&lt; T extends IBaseTrafficLight</text>
<text text-anchor="middle" x="466" y="-83.8" font-family="Helvetica,sans-Serif" font-size="9.00">&lt;?, ?, L extends Enum&lt;?, &gt;</text>
<polyline fill="none" stroke="black" points="332,-77 600,-77 "/>
<text text-anchor="start" x="340" y="-65.8" font-family="Helvetica,sans-Serif" font-size="9.00"># GROUP</text>
<text text-anchor="start" x="340" y="-55.8" font-family="Helvetica,sans-Serif" font-size="9.00">&#45; m_color</text>
<text text-anchor="start" x="340" y="-45.8" font-family="Helvetica,sans-Serif" font-size="9.00">&#45; m_rotation</text>
<text text-anchor="start" x="340" y="-35.8" font-family="Helvetica,sans-Serif" font-size="9.00">&#45; serialVersionUID</text>
<polyline fill="none" stroke="black" points="332,-29 600,-29 "/>
<text text-anchor="start" x="340" y="-17.8" font-family="Helvetica,sans-Serif" font-size="9.00"># IBaseTrafficLight()</text>
<text text-anchor="start" x="340" y="-7.8" font-family="Helvetica,sans-Serif" font-size="9.00">&#45; nextstate()</text>
</g>
<!-- Node13 -->
<g id="node2" class="node"><title>Node13</title>
<g id="a_node2"><a xlink:href="../../d5/d6f/classorg_1_1lightjason_1_1trafficsimulation_1_1simulation_1_1IBaseObject.htm" target="_top" xlink:title="base agent object ">
<polygon fill="none" stroke="black" points="250.5,-155 250.5,-329 393.5,-329 393.5,-155 250.5,-155"/>
<text text-anchor="start" x="258.5" y="-317.8" font-family="Helvetica,sans-Serif" font-size="9.00">org::lightjason::trafficsimulation</text>
<text text-anchor="middle" x="322" y="-307.8" font-family="Helvetica,sans-Serif" font-size="9.00">::simulation::IBaseObject&lt; T &gt;</text>
<polyline fill="none" stroke="black" points="250.5,-301 393.5,-301 "/>
<text text-anchor="start" x="258.5" y="-289.8" font-family="Helvetica,sans-Serif" font-size="9.00"># m_position</text>
<text text-anchor="start" x="258.5" y="-279.8" font-family="Helvetica,sans-Serif" font-size="9.00">&#45; m_external</text>
<text text-anchor="start" x="258.5" y="-269.8" font-family="Helvetica,sans-Serif" font-size="9.00">&#45; m_functor</text>
<text text-anchor="start" x="258.5" y="-259.8" font-family="Helvetica,sans-Serif" font-size="9.00">&#45; m_name</text>
<text text-anchor="start" x="258.5" y="-249.8" font-family="Helvetica,sans-Serif" font-size="9.00">&#45; serialVersionUID</text>
<polyline fill="none" stroke="black" points="250.5,-243 393.5,-243 "/>
<text text-anchor="start" x="258.5" y="-231.8" font-family="Helvetica,sans-Serif" font-size="9.00">+ equals()</text>
<text text-anchor="start" x="258.5" y="-221.8" font-family="Helvetica,sans-Serif" font-size="9.00">+ hashCode()</text>
<text text-anchor="start" x="258.5" y="-211.8" font-family="Helvetica,sans-Serif" font-size="9.00">+ literal()</text>
<text text-anchor="start" x="258.5" y="-201.8" font-family="Helvetica,sans-Serif" font-size="9.00">+ literal()</text>
<text text-anchor="start" x="258.5" y="-191.8" font-family="Helvetica,sans-Serif" font-size="9.00">+ name()</text>
<text text-anchor="start" x="258.5" y="-181.8" font-family="Helvetica,sans-Serif" font-size="9.00">+ position()</text>
<text text-anchor="start" x="258.5" y="-171.8" font-family="Helvetica,sans-Serif" font-size="9.00"># IBaseObject()</text>
<text text-anchor="start" x="258.5" y="-161.8" font-family="Helvetica,sans-Serif" font-size="9.00"># individualliteral()</text>
</a>
</g>
</g>
<!-- Node13&#45;&gt;Node12 -->
<g id="edge1" class="edge"><title>Node13&#45;&gt;Node12</title>
<path fill="none" stroke="midnightblue" d="M396.472,-146.876C405.077,-136 413.635,-125.184 421.653,-115.049"/>
<polygon fill="none" stroke="midnightblue" points="393.665,-144.783 390.205,-154.797 399.154,-149.126 393.665,-144.783"/>
</g>
<!-- Node14 -->
<g id="node3" class="node"><title>Node14</title>
<g id="a_node3"><a xlink:href="../../d5/dea/interfaceorg_1_1lightjason_1_1trafficsimulation_1_1simulation_1_1IObject.htm" target="_top" xlink:title="{org.lightjason.trafficsimulation.simulation.\lIObject\&lt; T \&gt;\n||+ literal()\l+ literal()\l+ name()\l+ position()\l}">
<polygon fill="none" stroke="black" points="-0.5,-387 -0.5,-481 184.5,-481 184.5,-387 -0.5,-387"/>
<text text-anchor="start" x="7.5" y="-469.8" font-family="Helvetica,sans-Serif" font-size="9.00">org.lightjason.trafficsimulation.simulation.</text>
<text text-anchor="middle" x="92" y="-459.8" font-family="Helvetica,sans-Serif" font-size="9.00">IObject&lt; T &gt;</text>
<polyline fill="none" stroke="black" points="-0.5,-453 184.5,-453 "/>
<text text-anchor="middle" x="92" y="-441.8" font-family="Helvetica,sans-Serif" font-size="9.00"> </text>
<polyline fill="none" stroke="black" points="-0.5,-435 184.5,-435 "/>
<text text-anchor="start" x="7.5" y="-423.8" font-family="Helvetica,sans-Serif" font-size="9.00">+ literal()</text>
<text text-anchor="start" x="7.5" y="-413.8" font-family="Helvetica,sans-Serif" font-size="9.00">+ literal()</text>
<text text-anchor="start" x="7.5" y="-403.8" font-family="Helvetica,sans-Serif" font-size="9.00">+ name()</text>
<text text-anchor="start" x="7.5" y="-393.8" font-family="Helvetica,sans-Serif" font-size="9.00">+ position()</text>
</a>
</g>
</g>
<!-- Node14&#45;&gt;Node13 -->
<g id="edge2" class="edge"><title>Node14&#45;&gt;Node13</title>
<path fill="none" stroke="midnightblue" d="M155.712,-380.369C185.118,-356.076 220.152,-327.135 250.463,-302.096"/>
<polygon fill="none" stroke="midnightblue" points="153.451,-377.697 147.97,-386.764 157.909,-383.093 153.451,-377.697"/>
</g>
<!-- Node15 -->
<g id="node4" class="node"><title>Node15</title>
<g id="a_node4"><a xlink:href="../../d5/dea/interfaceorg_1_1lightjason_1_1trafficsimulation_1_1simulation_1_1IObject.htm" target="_top" xlink:title="object interface ">
<polygon fill="none" stroke="black" points="-0.5,-539 -0.5,-633 184.5,-633 184.5,-539 -0.5,-539"/>
<text text-anchor="start" x="7.5" y="-621.8" font-family="Helvetica,sans-Serif" font-size="9.00">org.lightjason.trafficsimulation.simulation.</text>
<text text-anchor="middle" x="92" y="-611.8" font-family="Helvetica,sans-Serif" font-size="9.00">IObject&lt; T extends IAgent&lt;?&gt;</text>
<polyline fill="none" stroke="black" points="-0.5,-605 184.5,-605 "/>
<text text-anchor="middle" x="92" y="-593.8" font-family="Helvetica,sans-Serif" font-size="9.00"> </text>
<polyline fill="none" stroke="black" points="-0.5,-587 184.5,-587 "/>
<text text-anchor="start" x="7.5" y="-575.8" font-family="Helvetica,sans-Serif" font-size="9.00">+ literal()</text>
<text text-anchor="start" x="7.5" y="-565.8" font-family="Helvetica,sans-Serif" font-size="9.00">+ literal()</text>
<text text-anchor="start" x="7.5" y="-555.8" font-family="Helvetica,sans-Serif" font-size="9.00">+ name()</text>
<text text-anchor="start" x="7.5" y="-545.8" font-family="Helvetica,sans-Serif" font-size="9.00">+ position()</text>
</a>
</g>
</g>
<!-- Node15&#45;&gt;Node14 -->
<g id="edge3" class="edge"><title>Node15&#45;&gt;Node14</title>
<path fill="none" stroke="orange" d="M92,-528.657C92,-512.963 92,-496.105 92,-481.076"/>
<polygon fill="orange" stroke="orange" points="88.5001,-528.771 92,-538.771 95.5001,-528.771 88.5001,-528.771"/>
<text text-anchor="middle" x="103.5" y="-512.8" font-family="Helvetica,sans-Serif" font-size="9.00"> &lt; T &gt;</text>
</g>
<!-- Node16 -->
<g id="node5" class="node"><title>Node16</title>
<g id="a_node5"><a xlink:href="../../d5/d10/interfaceorg_1_1lightjason_1_1trafficsimulation_1_1simulation_1_1environment_1_1IEnvironment.htm" target="_top" xlink:title="environment interface ">
<polygon fill="none" stroke="black" points="203,-377 203,-491 441,-491 441,-377 203,-377"/>
<text text-anchor="start" x="211" y="-479.8" font-family="Helvetica,sans-Serif" font-size="9.00">org.lightjason.trafficsimulation.simulation.environment.</text>
<text text-anchor="middle" x="322" y="-469.8" font-family="Helvetica,sans-Serif" font-size="9.00">IEnvironment</text>
<polyline fill="none" stroke="black" points="203,-463 441,-463 "/>
<text text-anchor="middle" x="322" y="-451.8" font-family="Helvetica,sans-Serif" font-size="9.00"> </text>
<polyline fill="none" stroke="black" points="203,-445 441,-445 "/>
<text text-anchor="start" x="211" y="-433.8" font-family="Helvetica,sans-Serif" font-size="9.00">+ empty()</text>
<text text-anchor="start" x="211" y="-423.8" font-family="Helvetica,sans-Serif" font-size="9.00">+ get()</text>
<text text-anchor="start" x="211" y="-413.8" font-family="Helvetica,sans-Serif" font-size="9.00">+ move()</text>
<text text-anchor="start" x="211" y="-403.8" font-family="Helvetica,sans-Serif" font-size="9.00">+ remove()</text>
<text text-anchor="start" x="211" y="-393.8" font-family="Helvetica,sans-Serif" font-size="9.00">+ route()</text>
<text text-anchor="start" x="211" y="-383.8" font-family="Helvetica,sans-Serif" font-size="9.00">+ routestimatedtime()</text>
</a>
</g>
</g>
<!-- Node16&#45;&gt;Node13 -->
<g id="edge4" class="edge"><title>Node16&#45;&gt;Node13</title>
<path fill="none" stroke="#404040" d="M322,-376.765C322,-365.521 322,-353.403 322,-341.215"/>
<polygon fill="none" stroke="#404040" points="322,-341.032 318,-335.032 322,-329.032 326,-335.032 322,-341.032"/>
<text text-anchor="middle" x="358" y="-350.8" font-family="Helvetica,sans-Serif" font-size="9.00"> #m_environment</text>
</g>
<!-- Node17 -->
<g id="node6" class="node"><title>Node17</title>
<g id="a_node6"><a xlink:href="../../d5/dea/interfaceorg_1_1lightjason_1_1trafficsimulation_1_1simulation_1_1IObject.htm" target="_top" xlink:title="object interface ">
<polygon fill="none" stroke="black" points="239.5,-539 239.5,-633 404.5,-633 404.5,-539 239.5,-539"/>
<text text-anchor="start" x="247.5" y="-621.8" font-family="Helvetica,sans-Serif" font-size="9.00">org::lightjason::trafficsimulation</text>
<text text-anchor="middle" x="322" y="-611.8" font-family="Helvetica,sans-Serif" font-size="9.00">::simulation::IObject&lt; IEnvironment &gt;</text>
<polyline fill="none" stroke="black" points="239.5,-605 404.5,-605 "/>
<text text-anchor="middle" x="322" y="-593.8" font-family="Helvetica,sans-Serif" font-size="9.00"> </text>
<polyline fill="none" stroke="black" points="239.5,-587 404.5,-587 "/>
<text text-anchor="start" x="247.5" y="-575.8" font-family="Helvetica,sans-Serif" font-size="9.00">+ literal()</text>
<text text-anchor="start" x="247.5" y="-565.8" font-family="Helvetica,sans-Serif" font-size="9.00">+ literal()</text>
<text text-anchor="start" x="247.5" y="-555.8" font-family="Helvetica,sans-Serif" font-size="9.00">+ name()</text>
<text text-anchor="start" x="247.5" y="-545.8" font-family="Helvetica,sans-Serif" font-size="9.00">+ position()</text>
</a>
</g>
</g>
<!-- Node17&#45;&gt;Node16 -->
<g id="edge5" class="edge"><title>Node17&#45;&gt;Node16</title>
<path fill="none" stroke="midnightblue" d="M322,-528.655C322,-516.374 322,-503.381 322,-491.11"/>
<polygon fill="none" stroke="midnightblue" points="318.5,-528.771 322,-538.771 325.5,-528.771 318.5,-528.771"/>
</g>
<!-- Node18 -->
<g id="node7" class="node"><title>Node18</title>
<g id="a_node7"><a xlink:href="../../da/da0/interfaceorg_1_1lightjason_1_1trafficsimulation_1_1simulation_1_1stationary_1_1trafficlight_1_1ITrafficLight.htm" target="_top" xlink:title="{org.lightjason.trafficsimulation.simulation.stationary.trafficlight.\lITrafficLight\&lt; T \&gt;\n||}">
<polygon fill="none" stroke="black" points="424,-210 424,-274 692,-274 692,-210 424,-210"/>
<text text-anchor="start" x="432" y="-262.8" font-family="Helvetica,sans-Serif" font-size="9.00">org.lightjason.trafficsimulation.simulation.stationary.trafficlight.</text>
<text text-anchor="middle" x="558" y="-252.8" font-family="Helvetica,sans-Serif" font-size="9.00">ITrafficLight&lt; T &gt;</text>
<polyline fill="none" stroke="black" points="424,-246 692,-246 "/>
<text text-anchor="middle" x="558" y="-234.8" font-family="Helvetica,sans-Serif" font-size="9.00"> </text>
<polyline fill="none" stroke="black" points="424,-228 692,-228 "/>
<text text-anchor="middle" x="558" y="-216.8" font-family="Helvetica,sans-Serif" font-size="9.00"> </text>
</a>
</g>
</g>
<!-- Node18&#45;&gt;Node12 -->
<g id="edge6" class="edge"><title>Node18&#45;&gt;Node12</title>
<path fill="none" stroke="midnightblue" d="M537.52,-200.486C524.832,-175.386 508.354,-142.787 494.413,-115.208"/>
<polygon fill="none" stroke="midnightblue" points="534.55,-202.367 542.185,-209.713 540.797,-199.21 534.55,-202.367"/>
</g>
<!-- Node19 -->
<g id="node8" class="node"><title>Node19</title>
<g id="a_node8"><a xlink:href="../../da/da0/interfaceorg_1_1lightjason_1_1trafficsimulation_1_1simulation_1_1stationary_1_1trafficlight_1_1ITrafficLight.htm" target="_top" xlink:title="traffic light interface ">
<polygon fill="none" stroke="black" points="459,-402 459,-466 727,-466 727,-402 459,-402"/>
<text text-anchor="start" x="467" y="-454.8" font-family="Helvetica,sans-Serif" font-size="9.00">org.lightjason.trafficsimulation.simulation.stationary.trafficlight.</text>
<text text-anchor="middle" x="593" y="-444.8" font-family="Helvetica,sans-Serif" font-size="9.00">ITrafficLight&lt; T extends ITrafficLight&lt;?&gt;</text>
<polyline fill="none" stroke="black" points="459,-438 727,-438 "/>
<text text-anchor="middle" x="593" y="-426.8" font-family="Helvetica,sans-Serif" font-size="9.00"> </text>
<polyline fill="none" stroke="black" points="459,-420 727,-420 "/>
<text text-anchor="middle" x="593" y="-408.8" font-family="Helvetica,sans-Serif" font-size="9.00"> </text>
</a>
</g>
</g>
<!-- Node19&#45;&gt;Node18 -->
<g id="edge7" class="edge"><title>Node19&#45;&gt;Node18</title>
<path fill="none" stroke="orange" d="M585.376,-391.614C578.861,-356.248 569.631,-306.142 563.73,-274.105"/>
<polygon fill="orange" stroke="orange" points="581.967,-392.425 587.22,-401.625 588.851,-391.157 581.967,-392.425"/>
<text text-anchor="middle" x="589.5" y="-350.8" font-family="Helvetica,sans-Serif" font-size="9.00"> &lt; T &gt;</text>
</g>
<!-- Node20 -->
<g id="node9" class="node"><title>Node20</title>
<g id="a_node9"><a xlink:href="../../db/db5/interfaceorg_1_1lightjason_1_1trafficsimulation_1_1simulation_1_1stationary_1_1IStationary.htm" target="_top" xlink:title="static interface ">
<polygon fill="none" stroke="black" points="505,-554 505,-618 681,-618 681,-554 505,-554"/>
<text text-anchor="start" x="513" y="-606.8" font-family="Helvetica,sans-Serif" font-size="9.00">org::lightjason::trafficsimulation</text>
<text text-anchor="middle" x="593" y="-596.8" font-family="Helvetica,sans-Serif" font-size="9.00">::simulation::stationary::IStationary&lt; T &gt;</text>
<polyline fill="none" stroke="black" points="505,-590 681,-590 "/>
<text text-anchor="middle" x="593" y="-578.8" font-family="Helvetica,sans-Serif" font-size="9.00"> </text>
<polyline fill="none" stroke="black" points="505,-572 681,-572 "/>
<text text-anchor="middle" x="593" y="-560.8" font-family="Helvetica,sans-Serif" font-size="9.00"> </text>
</a>
</g>
</g>
<!-- Node20&#45;&gt;Node19 -->
<g id="edge8" class="edge"><title>Node20&#45;&gt;Node19</title>
<path fill="none" stroke="midnightblue" d="M593,-543.808C593,-519.242 593,-488.556 593,-466.04"/>
<polygon fill="none" stroke="midnightblue" points="589.5,-543.92 593,-553.92 596.5,-543.92 589.5,-543.92"/>
</g>
<!-- Node21 -->
<g id="node10" class="node"><title>Node21</title>
<g id="a_node10"><a xlink:href="../../d5/dea/interfaceorg_1_1lightjason_1_1trafficsimulation_1_1simulation_1_1IObject.htm" target="_top" xlink:title="object interface ">
<polygon fill="none" stroke="black" points="521.5,-673 521.5,-767 664.5,-767 664.5,-673 521.5,-673"/>
<text text-anchor="start" x="529.5" y="-755.8" font-family="Helvetica,sans-Serif" font-size="9.00">org::lightjason::trafficsimulation</text>
<text text-anchor="middle" x="593" y="-745.8" font-family="Helvetica,sans-Serif" font-size="9.00">::simulation::IObject&lt; T &gt;</text>
<polyline fill="none" stroke="black" points="521.5,-739 664.5,-739 "/>
<text text-anchor="middle" x="593" y="-727.8" font-family="Helvetica,sans-Serif" font-size="9.00"> </text>
<polyline fill="none" stroke="black" points="521.5,-721 664.5,-721 "/>
<text text-anchor="start" x="529.5" y="-709.8" font-family="Helvetica,sans-Serif" font-size="9.00">+ literal()</text>
<text text-anchor="start" x="529.5" y="-699.8" font-family="Helvetica,sans-Serif" font-size="9.00">+ literal()</text>
<text text-anchor="start" x="529.5" y="-689.8" font-family="Helvetica,sans-Serif" font-size="9.00">+ name()</text>
<text text-anchor="start" x="529.5" y="-679.8" font-family="Helvetica,sans-Serif" font-size="9.00">+ position()</text>
</a>
</g>
</g>
<!-- Node21&#45;&gt;Node20 -->
<g id="edge9" class="edge"><title>Node21&#45;&gt;Node20</title>
<path fill="none" stroke="midnightblue" d="M593,-662.437C593,-647.205 593,-631.287 593,-618.021"/>
<polygon fill="none" stroke="midnightblue" points="589.5,-662.833 593,-672.833 596.5,-662.833 589.5,-662.833"/>
</g>
</g>
</svg>
