<?xml version="1.0" encoding="UTF-8" standalone="no"?>
<!DOCTYPE svg PUBLIC "-//W3C//DTD SVG 1.1//EN"
 "http://www.w3.org/Graphics/SVG/1.1/DTD/svg11.dtd">
<!-- Generated by graphviz version 2.36.0 (20140111.2315)
 -->
<!-- Title: org.lightjason.trafficsimulation.simulation.stationary.trafficlight.CTrafficLightVehicle Pages: 1 -->
<svg width="735pt" height="1072pt"
 viewBox="0.00 0.00 735.00 1072.00" xmlns="http://www.w3.org/2000/svg" xmlns:xlink="http://www.w3.org/1999/xlink">
<g id="graph0" class="graph" transform="scale(1 1) rotate(0) translate(4 1068)">
<title>org.lightjason.trafficsimulation.simulation.stationary.trafficlight.CTrafficLightVehicle</title>
<!-- Node10 -->
<g id="node1" class="node"><title>Node10</title>
<polygon fill="#bfbfbf" stroke="black" points="332,-1 332,-95 600,-95 600,-1 332,-1"/>
<text text-anchor="start" x="340" y="-83.8" font-family="Helvetica,sans-Serif" font-size="9.00">org.lightjason.trafficsimulation.simulation.stationary.trafficlight.</text>
<text text-anchor="middle" x="466" y="-73.8" font-family="Helvetica,sans-Serif" font-size="9.00">CTrafficLightVehicle</text>
<polyline fill="none" stroke="black" points="332,-67 600,-67 "/>
<text text-anchor="start" x="340" y="-55.8" font-family="Helvetica,sans-Serif" font-size="9.00">&#45; COUNTER</text>
<text text-anchor="start" x="340" y="-45.8" font-family="Helvetica,sans-Serif" font-size="9.00">&#45; FUNCTOR</text>
<text text-anchor="start" x="340" y="-35.8" font-family="Helvetica,sans-Serif" font-size="9.00">&#45; serialVersionUID</text>
<polyline fill="none" stroke="black" points="332,-29 600,-29 "/>
<text text-anchor="start" x="340" y="-17.8" font-family="Helvetica,sans-Serif" font-size="9.00"># individualliteral()</text>
<text text-anchor="start" x="340" y="-7.8" font-family="Helvetica,sans-Serif" font-size="9.00">&#45; CTrafficLightVehicle()</text>
</g>
<!-- Node11 -->
<g id="node2" class="node"><title>Node11</title>
<g id="a_node2"><a xlink:href="../../d7/df3/classorg_1_1lightjason_1_1trafficsimulation_1_1simulation_1_1stationary_1_1trafficlight_1_1IBaseTrafficLight.htm" target="_top" xlink:title="{org.lightjason.trafficsimulation.simulation.stationary.trafficlight.\lIBaseTrafficLight\&lt; CTrafficLightVehicle, ELightColorVehicle \&gt;\n|# GROUP\l&#45; m_color\l&#45; m_rotation\l&#45; serialVersionUID\l|# IBaseTrafficLight()\l&#45; nextstate()\l}">
<polygon fill="none" stroke="black" points="332,-135 332,-239 600,-239 600,-135 332,-135"/>
<text text-anchor="start" x="340" y="-227.8" font-family="Helvetica,sans-Serif" font-size="9.00">org.lightjason.trafficsimulation.simulation.stationary.trafficlight.</text>
<text text-anchor="middle" x="466" y="-217.8" font-family="Helvetica,sans-Serif" font-size="9.00">IBaseTrafficLight&lt; CTrafficLightVehicle, ELightColorVehicle &gt;</text>
<polyline fill="none" stroke="black" points="332,-211 600,-211 "/>
<text text-anchor="start" x="340" y="-199.8" font-family="Helvetica,sans-Serif" font-size="9.00"># GROUP</text>
<text text-anchor="start" x="340" y="-189.8" font-family="Helvetica,sans-Serif" font-size="9.00">&#45; m_color</text>
<text text-anchor="start" x="340" y="-179.8" font-family="Helvetica,sans-Serif" font-size="9.00">&#45; m_rotation</text>
<text text-anchor="start" x="340" y="-169.8" font-family="Helvetica,sans-Serif" font-size="9.00">&#45; serialVersionUID</text>
<polyline fill="none" stroke="black" points="332,-163 600,-163 "/>
<text text-anchor="start" x="340" y="-151.8" font-family="Helvetica,sans-Serif" font-size="9.00"># IBaseTrafficLight()</text>
<text text-anchor="start" x="340" y="-141.8" font-family="Helvetica,sans-Serif" font-size="9.00">&#45; nextstate()</text>
</a>
</g>
</g>
<!-- Node11&#45;&gt;Node10 -->
<g id="edge1" class="edge"><title>Node11&#45;&gt;Node10</title>
<path fill="none" stroke="midnightblue" d="M466,-124.72C466,-114.762 466,-104.599 466,-95.0836"/>
<polygon fill="none" stroke="midnightblue" points="462.5,-124.986 466,-134.986 469.5,-124.986 462.5,-124.986"/>
</g>
<!-- Node12 -->
<g id="node3" class="node"><title>Node12</title>
<g id="a_node3"><a xlink:href="../../d7/df3/classorg_1_1lightjason_1_1trafficsimulation_1_1simulation_1_1stationary_1_1trafficlight_1_1IBaseTrafficLight.htm" target="_top" xlink:title="traffic light abstract class ">
<polygon fill="none" stroke="black" points="332,-297 332,-411 600,-411 600,-297 332,-297"/>
<text text-anchor="start" x="340" y="-399.8" font-family="Helvetica,sans-Serif" font-size="9.00">org.lightjason.trafficsimulation.simulation.stationary.trafficlight.</text>
<text text-anchor="start" x="340" y="-389.8" font-family="Helvetica,sans-Serif" font-size="9.00">IBaseTrafficLight&lt; T extends IBaseTrafficLight</text>
<text text-anchor="middle" x="466" y="-379.8" font-family="Helvetica,sans-Serif" font-size="9.00">&lt;?, ?, L extends Enum&lt;?, &gt;</text>
<polyline fill="none" stroke="black" points="332,-373 600,-373 "/>
<text text-anchor="start" x="340" y="-361.8" font-family="Helvetica,sans-Serif" font-size="9.00"># GROUP</text>
<text text-anchor="start" x="340" y="-351.8" font-family="Helvetica,sans-Serif" font-size="9.00">&#45; m_color</text>
<text text-anchor="start" x="340" y="-341.8" font-family="Helvetica,sans-Serif" font-size="9.00">&#45; m_rotation</text>
<text text-anchor="start" x="340" y="-331.8" font-family="Helvetica,sans-Serif" font-size="9.00">&#45; serialVersionUID</text>
<polyline fill="none" stroke="black" points="332,-325 600,-325 "/>
<text text-anchor="start" x="340" y="-313.8" font-family="Helvetica,sans-Serif" font-size="9.00"># IBaseTrafficLight()</text>
<text text-anchor="start" x="340" y="-303.8" font-family="Helvetica,sans-Serif" font-size="9.00">&#45; nextstate()</text>
</a>
</g>
</g>
<!-- Node12&#45;&gt;Node11 -->
<g id="edge2" class="edge"><title>Node12&#45;&gt;Node11</title>
<path fill="none" stroke="orange" d="M466,-286.445C466,-270.657 466,-254.059 466,-239.084"/>
<polygon fill="orange" stroke="orange" points="462.5,-286.678 466,-296.678 469.5,-286.678 462.5,-286.678"/>
<text text-anchor="start" x="466" y="-270.8" font-family="Helvetica,sans-Serif" font-size="9.00"> &lt; CTrafficLightVehicle,</text>
<text text-anchor="middle" x="513.5" y="-260.8" font-family="Helvetica,sans-Serif" font-size="9.00"> ELightColorVehicle &gt;</text>
</g>
<!-- Node13 -->
<g id="node4" class="node"><title>Node13</title>
<g id="a_node4"><a xlink:href="../../d5/d6f/classorg_1_1lightjason_1_1trafficsimulation_1_1simulation_1_1IBaseObject.htm" target="_top" xlink:title="base agent object ">
<polygon fill="none" stroke="black" points="250.5,-451 250.5,-625 393.5,-625 393.5,-451 250.5,-451"/>
<text text-anchor="start" x="258.5" y="-613.8" font-family="Helvetica,sans-Serif" font-size="9.00">org::lightjason::trafficsimulation</text>
<text text-anchor="middle" x="322" y="-603.8" font-family="Helvetica,sans-Serif" font-size="9.00">::simulation::IBaseObject&lt; T &gt;</text>
<polyline fill="none" stroke="black" points="250.5,-597 393.5,-597 "/>
<text text-anchor="start" x="258.5" y="-585.8" font-family="Helvetica,sans-Serif" font-size="9.00"># m_position</text>
<text text-anchor="start" x="258.5" y="-575.8" font-family="Helvetica,sans-Serif" font-size="9.00">&#45; m_external</text>
<text text-anchor="start" x="258.5" y="-565.8" font-family="Helvetica,sans-Serif" font-size="9.00">&#45; m_functor</text>
<text text-anchor="start" x="258.5" y="-555.8" font-family="Helvetica,sans-Serif" font-size="9.00">&#45; m_name</text>
<text text-anchor="start" x="258.5" y="-545.8" font-family="Helvetica,sans-Serif" font-size="9.00">&#45; serialVersionUID</text>
<polyline fill="none" stroke="black" points="250.5,-539 393.5,-539 "/>
<text text-anchor="start" x="258.5" y="-527.8" font-family="Helvetica,sans-Serif" font-size="9.00">+ equals()</text>
<text text-anchor="start" x="258.5" y="-517.8" font-family="Helvetica,sans-Serif" font-size="9.00">+ hashCode()</text>
<text text-anchor="start" x="258.5" y="-507.8" font-family="Helvetica,sans-Serif" font-size="9.00">+ literal()</text>
<text text-anchor="start" x="258.5" y="-497.8" font-family="Helvetica,sans-Serif" font-size="9.00">+ literal()</text>
<text text-anchor="start" x="258.5" y="-487.8" font-family="Helvetica,sans-Serif" font-size="9.00">+ name()</text>
<text text-anchor="start" x="258.5" y="-477.8" font-family="Helvetica,sans-Serif" font-size="9.00">+ position()</text>
<text text-anchor="start" x="258.5" y="-467.8" font-family="Helvetica,sans-Serif" font-size="9.00"># IBaseObject()</text>
<text text-anchor="start" x="258.5" y="-457.8" font-family="Helvetica,sans-Serif" font-size="9.00"># individualliteral()</text>
</a>
</g>
</g>
<!-- Node13&#45;&gt;Node12 -->
<g id="edge3" class="edge"><title>Node13&#45;&gt;Node12</title>
<path fill="none" stroke="midnightblue" d="M396.472,-442.876C405.077,-432 413.635,-421.184 421.653,-411.049"/>
<polygon fill="none" stroke="midnightblue" points="393.665,-440.783 390.205,-450.797 399.154,-445.126 393.665,-440.783"/>
</g>
<!-- Node14 -->
<g id="node5" class="node"><title>Node14</title>
<g id="a_node5"><a xlink:href="../../d5/dea/interfaceorg_1_1lightjason_1_1trafficsimulation_1_1simulation_1_1IObject.htm" target="_top" xlink:title="{org.lightjason.trafficsimulation.simulation.\lIObject\&lt; T \&gt;\n||+ literal()\l+ literal()\l+ name()\l+ position()\l}">
<polygon fill="none" stroke="black" points="-0.5,-683 -0.5,-777 184.5,-777 184.5,-683 -0.5,-683"/>
<text text-anchor="start" x="7.5" y="-765.8" font-family="Helvetica,sans-Serif" font-size="9.00">org.lightjason.trafficsimulation.simulation.</text>
<text text-anchor="middle" x="92" y="-755.8" font-family="Helvetica,sans-Serif" font-size="9.00">IObject&lt; T &gt;</text>
<polyline fill="none" stroke="black" points="-0.5,-749 184.5,-749 "/>
<text text-anchor="middle" x="92" y="-737.8" font-family="Helvetica,sans-Serif" font-size="9.00"> </text>
<polyline fill="none" stroke="black" points="-0.5,-731 184.5,-731 "/>
<text text-anchor="start" x="7.5" y="-719.8" font-family="Helvetica,sans-Serif" font-size="9.00">+ literal()</text>
<text text-anchor="start" x="7.5" y="-709.8" font-family="Helvetica,sans-Serif" font-size="9.00">+ literal()</text>
<text text-anchor="start" x="7.5" y="-699.8" font-family="Helvetica,sans-Serif" font-size="9.00">+ name()</text>
<text text-anchor="start" x="7.5" y="-689.8" font-family="Helvetica,sans-Serif" font-size="9.00">+ position()</text>
</a>
</g>
</g>
<!-- Node14&#45;&gt;Node13 -->
<g id="edge4" class="edge"><title>Node14&#45;&gt;Node13</title>
<path fill="none" stroke="midnightblue" d="M155.712,-676.369C185.118,-652.076 220.152,-623.135 250.463,-598.096"/>
<polygon fill="none" stroke="midnightblue" points="153.451,-673.697 147.97,-682.764 157.909,-679.093 153.451,-673.697"/>
</g>
<!-- Node15 -->
<g id="node6" class="node"><title>Node15</title>
<g id="a_node6"><a xlink:href="../../d5/dea/interfaceorg_1_1lightjason_1_1trafficsimulation_1_1simulation_1_1IObject.htm" target="_top" xlink:title="object interface ">
<polygon fill="none" stroke="black" points="-0.5,-835 -0.5,-929 184.5,-929 184.5,-835 -0.5,-835"/>
<text text-anchor="start" x="7.5" y="-917.8" font-family="Helvetica,sans-Serif" font-size="9.00">org.lightjason.trafficsimulation.simulation.</text>
<text text-anchor="middle" x="92" y="-907.8" font-family="Helvetica,sans-Serif" font-size="9.00">IObject&lt; T extends IAgent&lt;?&gt;</text>
<polyline fill="none" stroke="black" points="-0.5,-901 184.5,-901 "/>
<text text-anchor="middle" x="92" y="-889.8" font-family="Helvetica,sans-Serif" font-size="9.00"> </text>
<polyline fill="none" stroke="black" points="-0.5,-883 184.5,-883 "/>
<text text-anchor="start" x="7.5" y="-871.8" font-family="Helvetica,sans-Serif" font-size="9.00">+ literal()</text>
<text text-anchor="start" x="7.5" y="-861.8" font-family="Helvetica,sans-Serif" font-size="9.00">+ literal()</text>
<text text-anchor="start" x="7.5" y="-851.8" font-family="Helvetica,sans-Serif" font-size="9.00">+ name()</text>
<text text-anchor="start" x="7.5" y="-841.8" font-family="Helvetica,sans-Serif" font-size="9.00">+ position()</text>
</a>
</g>
</g>
<!-- Node15&#45;&gt;Node14 -->
<g id="edge5" class="edge"><title>Node15&#45;&gt;Node14</title>
<path fill="none" stroke="orange" d="M92,-824.657C92,-808.963 92,-792.105 92,-777.076"/>
<polygon fill="orange" stroke="orange" points="88.5001,-824.771 92,-834.771 95.5001,-824.771 88.5001,-824.771"/>
<text text-anchor="middle" x="103.5" y="-808.8" font-family="Helvetica,sans-Serif" font-size="9.00"> &lt; T &gt;</text>
</g>
<!-- Node16 -->
<g id="node7" class="node"><title>Node16</title>
<g id="a_node7"><a xlink:href="../../d5/d10/interfaceorg_1_1lightjason_1_1trafficsimulation_1_1simulation_1_1environment_1_1IEnvironment.htm" target="_top" xlink:title="environment interface ">
<polygon fill="none" stroke="black" points="203,-673 203,-787 441,-787 441,-673 203,-673"/>
<text text-anchor="start" x="211" y="-775.8" font-family="Helvetica,sans-Serif" font-size="9.00">org.lightjason.trafficsimulation.simulation.environment.</text>
<text text-anchor="middle" x="322" y="-765.8" font-family="Helvetica,sans-Serif" font-size="9.00">IEnvironment</text>
<polyline fill="none" stroke="black" points="203,-759 441,-759 "/>
<text text-anchor="middle" x="322" y="-747.8" font-family="Helvetica,sans-Serif" font-size="9.00"> </text>
<polyline fill="none" stroke="black" points="203,-741 441,-741 "/>
<text text-anchor="start" x="211" y="-729.8" font-family="Helvetica,sans-Serif" font-size="9.00">+ empty()</text>
<text text-anchor="start" x="211" y="-719.8" font-family="Helvetica,sans-Serif" font-size="9.00">+ get()</text>
<text text-anchor="start" x="211" y="-709.8" font-family="Helvetica,sans-Serif" font-size="9.00">+ move()</text>
<text text-anchor="start" x="211" y="-699.8" font-family="Helvetica,sans-Serif" font-size="9.00">+ remove()</text>
<text text-anchor="start" x="211" y="-689.8" font-family="Helvetica,sans-Serif" font-size="9.00">+ route()</text>
<text text-anchor="start" x="211" y="-679.8" font-family="Helvetica,sans-Serif" font-size="9.00">+ routestimatedtime()</text>
</a>
</g>
</g>
<!-- Node16&#45;&gt;Node13 -->
<g id="edge6" class="edge"><title>Node16&#45;&gt;Node13</title>
<path fill="none" stroke="#404040" d="M322,-672.765C322,-661.521 322,-649.403 322,-637.215"/>
<polygon fill="none" stroke="#404040" points="322,-637.032 318,-631.032 322,-625.032 326,-631.032 322,-637.032"/>
<text text-anchor="middle" x="358" y="-646.8" font-family="Helvetica,sans-Serif" font-size="9.00"> #m_environment</text>
</g>
<!-- Node17 -->
<g id="node8" class="node"><title>Node17</title>
<g id="a_node8"><a xlink:href="../../d5/dea/interfaceorg_1_1lightjason_1_1trafficsimulation_1_1simulation_1_1IObject.htm" target="_top" xlink:title="object interface ">
<polygon fill="none" stroke="black" points="239.5,-835 239.5,-929 404.5,-929 404.5,-835 239.5,-835"/>
<text text-anchor="start" x="247.5" y="-917.8" font-family="Helvetica,sans-Serif" font-size="9.00">org::lightjason::trafficsimulation</text>
<text text-anchor="middle" x="322" y="-907.8" font-family="Helvetica,sans-Serif" font-size="9.00">::simulation::IObject&lt; IEnvironment &gt;</text>
<polyline fill="none" stroke="black" points="239.5,-901 404.5,-901 "/>
<text text-anchor="middle" x="322" y="-889.8" font-family="Helvetica,sans-Serif" font-size="9.00"> </text>
<polyline fill="none" stroke="black" points="239.5,-883 404.5,-883 "/>
<text text-anchor="start" x="247.5" y="-871.8" font-family="Helvetica,sans-Serif" font-size="9.00">+ literal()</text>
<text text-anchor="start" x="247.5" y="-861.8" font-family="Helvetica,sans-Serif" font-size="9.00">+ literal()</text>
<text text-anchor="start" x="247.5" y="-851.8" font-family="Helvetica,sans-Serif" font-size="9.00">+ name()</text>
<text text-anchor="start" x="247.5" y="-841.8" font-family="Helvetica,sans-Serif" font-size="9.00">+ position()</text>
</a>
</g>
</g>
<!-- Node17&#45;&gt;Node16 -->
<g id="edge7" class="edge"><title>Node17&#45;&gt;Node16</title>
<path fill="none" stroke="midnightblue" d="M322,-824.655C322,-812.374 322,-799.381 322,-787.11"/>
<polygon fill="none" stroke="midnightblue" points="318.5,-824.771 322,-834.771 325.5,-824.771 318.5,-824.771"/>
</g>
<!-- Node18 -->
<g id="node9" class="node"><title>Node18</title>
<g id="a_node9"><a xlink:href="../../da/da0/interfaceorg_1_1lightjason_1_1trafficsimulation_1_1simulation_1_1stationary_1_1trafficlight_1_1ITrafficLight.htm" target="_top" xlink:title="{org.lightjason.trafficsimulation.simulation.stationary.trafficlight.\lITrafficLight\&lt; T \&gt;\n||}">
<polygon fill="none" stroke="black" points="424,-506 424,-570 692,-570 692,-506 424,-506"/>
<text text-anchor="start" x="432" y="-558.8" font-family="Helvetica,sans-Serif" font-size="9.00">org.lightjason.trafficsimulation.simulation.stationary.trafficlight.</text>
<text text-anchor="middle" x="558" y="-548.8" font-family="Helvetica,sans-Serif" font-size="9.00">ITrafficLight&lt; T &gt;</text>
<polyline fill="none" stroke="black" points="424,-542 692,-542 "/>
<text text-anchor="middle" x="558" y="-530.8" font-family="Helvetica,sans-Serif" font-size="9.00"> </text>
<polyline fill="none" stroke="black" points="424,-524 692,-524 "/>
<text text-anchor="middle" x="558" y="-512.8" font-family="Helvetica,sans-Serif" font-size="9.00"> </text>
</a>
</g>
</g>
<!-- Node18&#45;&gt;Node12 -->
<g id="edge8" class="edge"><title>Node18&#45;&gt;Node12</title>
<path fill="none" stroke="midnightblue" d="M537.52,-496.486C524.832,-471.386 508.354,-438.787 494.413,-411.208"/>
<polygon fill="none" stroke="midnightblue" points="534.55,-498.367 542.185,-505.713 540.797,-495.21 534.55,-498.367"/>
</g>
<!-- Node19 -->
<g id="node10" class="node"><title>Node19</title>
<g id="a_node10"><a xlink:href="../../da/da0/interfaceorg_1_1lightjason_1_1trafficsimulation_1_1simulation_1_1stationary_1_1trafficlight_1_1ITrafficLight.htm" target="_top" xlink:title="traffic light interface ">
<polygon fill="none" stroke="black" points="459,-698 459,-762 727,-762 727,-698 459,-698"/>
<text text-anchor="start" x="467" y="-750.8" font-family="Helvetica,sans-Serif" font-size="9.00">org.lightjason.trafficsimulation.simulation.stationary.trafficlight.</text>
<text text-anchor="middle" x="593" y="-740.8" font-family="Helvetica,sans-Serif" font-size="9.00">ITrafficLight&lt; T extends ITrafficLight&lt;?&gt;</text>
<polyline fill="none" stroke="black" points="459,-734 727,-734 "/>
<text text-anchor="middle" x="593" y="-722.8" font-family="Helvetica,sans-Serif" font-size="9.00"> </text>
<polyline fill="none" stroke="black" points="459,-716 727,-716 "/>
<text text-anchor="middle" x="593" y="-704.8" font-family="Helvetica,sans-Serif" font-size="9.00"> </text>
</a>
</g>
</g>
<!-- Node19&#45;&gt;Node18 -->
<g id="edge9" class="edge"><title>Node19&#45;&gt;Node18</title>
<path fill="none" stroke="orange" d="M585.376,-687.614C578.861,-652.248 569.631,-602.142 563.73,-570.105"/>
<polygon fill="orange" stroke="orange" points="581.967,-688.425 587.22,-697.625 588.851,-687.157 581.967,-688.425"/>
<text text-anchor="middle" x="589.5" y="-646.8" font-family="Helvetica,sans-Serif" font-size="9.00"> &lt; T &gt;</text>
</g>
<!-- Node20 -->
<g id="node11" class="node"><title>Node20</title>
<g id="a_node11"><a xlink:href="../../db/db5/interfaceorg_1_1lightjason_1_1trafficsimulation_1_1simulation_1_1stationary_1_1IStationary.htm" target="_top" xlink:title="static interface ">
<polygon fill="none" stroke="black" points="505,-850 505,-914 681,-914 681,-850 505,-850"/>
<text text-anchor="start" x="513" y="-902.8" font-family="Helvetica,sans-Serif" font-size="9.00">org::lightjason::trafficsimulation</text>
<text text-anchor="middle" x="593" y="-892.8" font-family="Helvetica,sans-Serif" font-size="9.00">::simulation::stationary::IStationary&lt; T &gt;</text>
<polyline fill="none" stroke="black" points="505,-886 681,-886 "/>
<text text-anchor="middle" x="593" y="-874.8" font-family="Helvetica,sans-Serif" font-size="9.00"> </text>
<polyline fill="none" stroke="black" points="505,-868 681,-868 "/>
<text text-anchor="middle" x="593" y="-856.8" font-family="Helvetica,sans-Serif" font-size="9.00"> </text>
</a>
</g>
</g>
<!-- Node20&#45;&gt;Node19 -->
<g id="edge10" class="edge"><title>Node20&#45;&gt;Node19</title>
<path fill="none" stroke="midnightblue" d="M593,-839.808C593,-815.242 593,-784.556 593,-762.04"/>
<polygon fill="none" stroke="midnightblue" points="589.5,-839.92 593,-849.92 596.5,-839.92 589.5,-839.92"/>
</g>
<!-- Node21 -->
<g id="node12" class="node"><title>Node21</title>
<g id="a_node12"><a xlink:href="../../d5/dea/interfaceorg_1_1lightjason_1_1trafficsimulation_1_1simulation_1_1IObject.htm" target="_top" xlink:title="object interface ">
<polygon fill="none" stroke="black" points="521.5,-969 521.5,-1063 664.5,-1063 664.5,-969 521.5,-969"/>
<text text-anchor="start" x="529.5" y="-1051.8" font-family="Helvetica,sans-Serif" font-size="9.00">org::lightjason::trafficsimulation</text>
<text text-anchor="middle" x="593" y="-1041.8" font-family="Helvetica,sans-Serif" font-size="9.00">::simulation::IObject&lt; T &gt;</text>
<polyline fill="none" stroke="black" points="521.5,-1035 664.5,-1035 "/>
<text text-anchor="middle" x="593" y="-1023.8" font-family="Helvetica,sans-Serif" font-size="9.00"> </text>
<polyline fill="none" stroke="black" points="521.5,-1017 664.5,-1017 "/>
<text text-anchor="start" x="529.5" y="-1005.8" font-family="Helvetica,sans-Serif" font-size="9.00">+ literal()</text>
<text text-anchor="start" x="529.5" y="-995.8" font-family="Helvetica,sans-Serif" font-size="9.00">+ literal()</text>
<text text-anchor="start" x="529.5" y="-985.8" font-family="Helvetica,sans-Serif" font-size="9.00">+ name()</text>
<text text-anchor="start" x="529.5" y="-975.8" font-family="Helvetica,sans-Serif" font-size="9.00">+ position()</text>
</a>
</g>
</g>
<!-- Node21&#45;&gt;Node20 -->
<g id="edge11" class="edge"><title>Node21&#45;&gt;Node20</title>
<path fill="none" stroke="midnightblue" d="M593,-958.437C593,-943.205 593,-927.287 593,-914.021"/>
<polygon fill="none" stroke="midnightblue" points="589.5,-958.833 593,-968.833 596.5,-958.833 589.5,-958.833"/>
</g>
</g>
</svg>
