<?xml version="1.0" encoding="UTF-8" standalone="no"?>
<!DOCTYPE svg PUBLIC "-//W3C//DTD SVG 1.1//EN"
 "http://www.w3.org/Graphics/SVG/1.1/DTD/svg11.dtd">
<!-- Generated by graphviz version 2.36.0 (20140111.2315)
 -->
<!-- Title: org.lightjason.trafficsimulation.simulation.stationary.trafficlight.ITrafficLight&lt; T extends ITrafficLight&lt;?&gt; Pages: 1 -->
<svg width="276pt" height="308pt"
 viewBox="0.00 0.00 276.00 308.00" xmlns="http://www.w3.org/2000/svg" xmlns:xlink="http://www.w3.org/1999/xlink">
<g id="graph0" class="graph" transform="scale(1 1) rotate(0) translate(4 304)">
<title>org.lightjason.trafficsimulation.simulation.stationary.trafficlight.ITrafficLight&lt; T extends ITrafficLight&lt;?&gt;</title>
<!-- Node9 -->
<g id="node1" class="node"><title>Node9</title>
<polygon fill="#bfbfbf" stroke="black" points="0,-1 0,-65 268,-65 268,-1 0,-1"/>
<text text-anchor="start" x="8" y="-53.8" font-family="Helvetica,sans-Serif" font-size="9.00">org.lightjason.trafficsimulation.simulation.stationary.trafficlight.</text>
<text text-anchor="middle" x="134" y="-43.8" font-family="Helvetica,sans-Serif" font-size="9.00">ITrafficLight&lt; T extends ITrafficLight&lt;?&gt;</text>
<polyline fill="none" stroke="black" points="0,-37 268,-37 "/>
<text text-anchor="middle" x="134" y="-25.8" font-family="Helvetica,sans-Serif" font-size="9.00"> </text>
<polyline fill="none" stroke="black" points="0,-19 268,-19 "/>
<text text-anchor="middle" x="134" y="-7.8" font-family="Helvetica,sans-Serif" font-size="9.00"> </text>
</g>
<!-- Node10 -->
<g id="node2" class="node"><title>Node10</title>
<g id="a_node2"><a xlink:href="../../db/db5/interfaceorg_1_1lightjason_1_1trafficsimulation_1_1simulation_1_1stationary_1_1IStationary.htm" target="_top" xlink:title="static interface ">
<polygon fill="none" stroke="black" points="46,-103 46,-167 222,-167 222,-103 46,-103"/>
<text text-anchor="start" x="54" y="-155.8" font-family="Helvetica,sans-Serif" font-size="9.00">org::lightjason::trafficsimulation</text>
<text text-anchor="middle" x="134" y="-145.8" font-family="Helvetica,sans-Serif" font-size="9.00">::simulation::stationary::IStationary&lt; T &gt;</text>
<polyline fill="none" stroke="black" points="46,-139 222,-139 "/>
<text text-anchor="middle" x="134" y="-127.8" font-family="Helvetica,sans-Serif" font-size="9.00"> </text>
<polyline fill="none" stroke="black" points="46,-121 222,-121 "/>
<text text-anchor="middle" x="134" y="-109.8" font-family="Helvetica,sans-Serif" font-size="9.00"> </text>
</a>
</g>
</g>
<!-- Node10&#45;&gt;Node9 -->
<g id="edge1" class="edge"><title>Node10&#45;&gt;Node9</title>
<path fill="none" stroke="midnightblue" d="M134,-92.7162C134,-83.4731 134,-73.8199 134,-65.0732"/>
<polygon fill="none" stroke="midnightblue" points="130.5,-92.9075 134,-102.908 137.5,-92.9076 130.5,-92.9075"/>
</g>
<!-- Node11 -->
<g id="node3" class="node"><title>Node11</title>
<g id="a_node3"><a xlink:href="../../d5/dea/interfaceorg_1_1lightjason_1_1trafficsimulation_1_1simulation_1_1IObject.htm" target="_top" xlink:title="object interface ">
<polygon fill="none" stroke="black" points="62.5,-205 62.5,-299 205.5,-299 205.5,-205 62.5,-205"/>
<text text-anchor="start" x="70.5" y="-287.8" font-family="Helvetica,sans-Serif" font-size="9.00">org::lightjason::trafficsimulation</text>
<text text-anchor="middle" x="134" y="-277.8" font-family="Helvetica,sans-Serif" font-size="9.00">::simulation::IObject&lt; T &gt;</text>
<polyline fill="none" stroke="black" points="62.5,-271 205.5,-271 "/>
<text text-anchor="middle" x="134" y="-259.8" font-family="Helvetica,sans-Serif" font-size="9.00"> </text>
<polyline fill="none" stroke="black" points="62.5,-253 205.5,-253 "/>
<text text-anchor="start" x="70.5" y="-241.8" font-family="Helvetica,sans-Serif" font-size="9.00">+ literal()</text>
<text text-anchor="start" x="70.5" y="-231.8" font-family="Helvetica,sans-Serif" font-size="9.00">+ literal()</text>
<text text-anchor="start" x="70.5" y="-221.8" font-family="Helvetica,sans-Serif" font-size="9.00">+ name()</text>
<text text-anchor="start" x="70.5" y="-211.8" font-family="Helvetica,sans-Serif" font-size="9.00">+ position()</text>
</a>
</g>
</g>
<!-- Node11&#45;&gt;Node10 -->
<g id="edge2" class="edge"><title>Node11&#45;&gt;Node10</title>
<path fill="none" stroke="midnightblue" d="M134,-194.716C134,-185.281 134,-175.804 134,-167.298"/>
<polygon fill="none" stroke="midnightblue" points="130.5,-194.888 134,-204.888 137.5,-194.888 130.5,-194.888"/>
</g>
</g>
</svg>
