<?xml version="1.0" encoding="UTF-8" standalone="no"?>
<!DOCTYPE svg PUBLIC "-//W3C//DTD SVG 1.1//EN"
 "http://www.w3.org/Graphics/SVG/1.1/DTD/svg11.dtd">
<!-- Generated by graphviz version 2.36.0 (20140111.2315)
 -->
<!-- Title: org.lightjason.trafficsimulation.simulation.movable.IBaseMoveable&lt; T extends IBaseMoveable&lt;?&gt; Pages: 1 -->
<!--zoomable 722 -->
<svg id="main" version="1.1" xmlns="http://www.w3.org/2000/svg" xmlns:xlink="http://www.w3.org/1999/xlink" xml:space="preserve" onload="init(evt)">
<style type="text/css"><![CDATA[
.edge:hover path { stroke: red; }
.edge:hover polygon { stroke: red; fill: red; }
]]></style>
<script type="text/javascript"><![CDATA[
var edges = document.getElementsByTagName('g');
if (edges && edges.length) {
  for (var i=0;i<edges.length;i++) {
    if (edges[i].id.substr(0,4)=='edge') {
      edges[i].setAttribute('class','edge');
    }
  }
}
]]></script>
        <defs>
                <circle id="rim" cx="0" cy="0" r="7"/>
                <circle id="rim2" cx="0" cy="0" r="3.5"/>
                <g id="zoomPlus">
                        <use xlink:href="#rim" fill="#404040">
                                <set attributeName="fill" to="#808080" begin="zoomplus.mouseover" end="zoomplus.mouseout"/>
                        </use>
                        <path d="M-4,0h8M0,-4v8" fill="none" stroke="white" stroke-width="1.5" pointer-events="none"/>
                </g>
                <g id="zoomMin">
                        <use xlink:href="#rim" fill="#404040">
                                <set attributeName="fill" to="#808080" begin="zoomminus.mouseover" end="zoomminus.mouseout"/>
                        </use>
                        <path d="M-4,0h8" fill="none" stroke="white" stroke-width="1.5" pointer-events="none"/>
                </g>
                <g id="dirArrow">
                        <path fill="none" stroke="white" stroke-width="1.5" d="M0,-3.0v7 M-2.5,-0.5L0,-3.0L2.5,-0.5"/>
                </g>
               <g id="resetDef">
                       <use xlink:href="#rim2" fill="#404040">
                               <set attributeName="fill" to="#808080" begin="reset.mouseover" end="reset.mouseout"/>
                       </use>
               </g>
        </defs>

<script type="text/javascript">
var viewWidth = 688;
var viewHeight = 722;
var sectionId = 'dynsection-1';
</script>
<script xlink:href="../../svgpan.js"/>
<svg id="graph" class="graph">
<g id="viewport">
<title>org.lightjason.trafficsimulation.simulation.movable.IBaseMoveable&lt; T extends IBaseMoveable&lt;?&gt;</title>
<!-- Node11 -->
<g id="node1" class="node"><title>Node11</title>
<polygon fill="#bfbfbf" stroke="black" points="341,-1 341,-195 563,-195 563,-1 341,-1"/>
<text text-anchor="start" x="349" y="-183.8" font-family="Helvetica,sans-Serif" font-size="9.00">org.lightjason.trafficsimulation.simulation.movable.</text>
<text text-anchor="middle" x="452" y="-173.8" font-family="Helvetica,sans-Serif" font-size="9.00">IBaseMoveable&lt; T extends IBaseMoveable&lt;?&gt;</text>
<polyline fill="none" stroke="black" points="341,-167 563,-167 "/>
<text text-anchor="start" x="349" y="-155.8" font-family="Helvetica,sans-Serif" font-size="9.00"># GROUP</text>
<text text-anchor="start" x="349" y="-145.8" font-family="Helvetica,sans-Serif" font-size="9.00">&#45; m_route</text>
<text text-anchor="start" x="349" y="-135.8" font-family="Helvetica,sans-Serif" font-size="9.00">&#45; m_speed</text>
<text text-anchor="start" x="349" y="-125.8" font-family="Helvetica,sans-Serif" font-size="9.00">&#45; serialVersionUID</text>
<polyline fill="none" stroke="black" points="341,-119 563,-119 "/>
<text text-anchor="start" x="349" y="-107.8" font-family="Helvetica,sans-Serif" font-size="9.00">+ move()</text>
<text text-anchor="start" x="349" y="-97.8" font-family="Helvetica,sans-Serif" font-size="9.00">+ moveable()</text>
<text text-anchor="start" x="349" y="-87.8" font-family="Helvetica,sans-Serif" font-size="9.00"># IBaseMoveable()</text>
<text text-anchor="start" x="349" y="-77.8" font-family="Helvetica,sans-Serif" font-size="9.00">&#45; cells()</text>
<text text-anchor="start" x="349" y="-67.8" font-family="Helvetica,sans-Serif" font-size="9.00">&#45; goal()</text>
<text text-anchor="start" x="349" y="-57.8" font-family="Helvetica,sans-Serif" font-size="9.00">&#45; route()</text>
<text text-anchor="start" x="349" y="-47.8" font-family="Helvetica,sans-Serif" font-size="9.00">&#45; routeatend()</text>
<text text-anchor="start" x="349" y="-37.8" font-family="Helvetica,sans-Serif" font-size="9.00">&#45; routeatstart()</text>
<text text-anchor="start" x="349" y="-27.8" font-family="Helvetica,sans-Serif" font-size="9.00">&#45; routeestimatedtime()</text>
<text text-anchor="start" x="349" y="-17.8" font-family="Helvetica,sans-Serif" font-size="9.00">&#45; routenext()</text>
<text text-anchor="start" x="349" y="-7.8" font-family="Helvetica,sans-Serif" font-size="9.00">&#45; routeskip()</text>
</g>
<!-- Node12 -->
<g id="node2" class="node"><title>Node12</title>
<g id="a_node2"><a xlink:href="../../d5/d6f/classorg_1_1lightjason_1_1trafficsimulation_1_1simulation_1_1IBaseObject.htm" target="_top" xlink:title="base agent object ">
<polygon fill="none" stroke="black" points="250.5,-235 250.5,-409 393.5,-409 393.5,-235 250.5,-235"/>
<text text-anchor="start" x="258.5" y="-397.8" font-family="Helvetica,sans-Serif" font-size="9.00">org::lightjason::trafficsimulation</text>
<text text-anchor="middle" x="322" y="-387.8" font-family="Helvetica,sans-Serif" font-size="9.00">::simulation::IBaseObject&lt; T &gt;</text>
<polyline fill="none" stroke="black" points="250.5,-381 393.5,-381 "/>
<text text-anchor="start" x="258.5" y="-369.8" font-family="Helvetica,sans-Serif" font-size="9.00"># m_position</text>
<text text-anchor="start" x="258.5" y="-359.8" font-family="Helvetica,sans-Serif" font-size="9.00">&#45; m_external</text>
<text text-anchor="start" x="258.5" y="-349.8" font-family="Helvetica,sans-Serif" font-size="9.00">&#45; m_functor</text>
<text text-anchor="start" x="258.5" y="-339.8" font-family="Helvetica,sans-Serif" font-size="9.00">&#45; m_name</text>
<text text-anchor="start" x="258.5" y="-329.8" font-family="Helvetica,sans-Serif" font-size="9.00">&#45; serialVersionUID</text>
<polyline fill="none" stroke="black" points="250.5,-323 393.5,-323 "/>
<text text-anchor="start" x="258.5" y="-311.8" font-family="Helvetica,sans-Serif" font-size="9.00">+ equals()</text>
<text text-anchor="start" x="258.5" y="-301.8" font-family="Helvetica,sans-Serif" font-size="9.00">+ hashCode()</text>
<text text-anchor="start" x="258.5" y="-291.8" font-family="Helvetica,sans-Serif" font-size="9.00">+ literal()</text>
<text text-anchor="start" x="258.5" y="-281.8" font-family="Helvetica,sans-Serif" font-size="9.00">+ literal()</text>
<text text-anchor="start" x="258.5" y="-271.8" font-family="Helvetica,sans-Serif" font-size="9.00">+ name()</text>
<text text-anchor="start" x="258.5" y="-261.8" font-family="Helvetica,sans-Serif" font-size="9.00">+ position()</text>
<text text-anchor="start" x="258.5" y="-251.8" font-family="Helvetica,sans-Serif" font-size="9.00"># IBaseObject()</text>
<text text-anchor="start" x="258.5" y="-241.8" font-family="Helvetica,sans-Serif" font-size="9.00"># individualliteral()</text>
</a>
</g>
</g>
<!-- Node12&#45;&gt;Node11 -->
<g id="edge1" class="edge"><title>Node12&#45;&gt;Node11</title>
<path fill="none" stroke="midnightblue" d="M377.676,-225.922C383.664,-215.697 389.759,-205.288 395.754,-195.052"/>
<polygon fill="none" stroke="midnightblue" points="374.48,-224.453 372.447,-234.851 380.521,-227.991 374.48,-224.453"/>
</g>
<!-- Node13 -->
<g id="node3" class="node"><title>Node13</title>
<g id="a_node3"><a xlink:href="../../d5/dea/interfaceorg_1_1lightjason_1_1trafficsimulation_1_1simulation_1_1IObject.htm" target="_top" xlink:title="{org.lightjason.trafficsimulation.simulation.\lIObject\&lt; T \&gt;\n||+ literal()\l+ literal()\l+ name()\l+ position()\l}">
<polygon fill="none" stroke="black" points="-0.5,-467 -0.5,-561 184.5,-561 184.5,-467 -0.5,-467"/>
<text text-anchor="start" x="7.5" y="-549.8" font-family="Helvetica,sans-Serif" font-size="9.00">org.lightjason.trafficsimulation.simulation.</text>
<text text-anchor="middle" x="92" y="-539.8" font-family="Helvetica,sans-Serif" font-size="9.00">IObject&lt; T &gt;</text>
<polyline fill="none" stroke="black" points="-0.5,-533 184.5,-533 "/>
<text text-anchor="middle" x="92" y="-521.8" font-family="Helvetica,sans-Serif" font-size="9.00"> </text>
<polyline fill="none" stroke="black" points="-0.5,-515 184.5,-515 "/>
<text text-anchor="start" x="7.5" y="-503.8" font-family="Helvetica,sans-Serif" font-size="9.00">+ literal()</text>
<text text-anchor="start" x="7.5" y="-493.8" font-family="Helvetica,sans-Serif" font-size="9.00">+ literal()</text>
<text text-anchor="start" x="7.5" y="-483.8" font-family="Helvetica,sans-Serif" font-size="9.00">+ name()</text>
<text text-anchor="start" x="7.5" y="-473.8" font-family="Helvetica,sans-Serif" font-size="9.00">+ position()</text>
</a>
</g>
</g>
<!-- Node13&#45;&gt;Node12 -->
<g id="edge2" class="edge"><title>Node13&#45;&gt;Node12</title>
<path fill="none" stroke="midnightblue" d="M155.712,-460.369C185.118,-436.076 220.152,-407.135 250.463,-382.096"/>
<polygon fill="none" stroke="midnightblue" points="153.451,-457.697 147.97,-466.764 157.909,-463.093 153.451,-457.697"/>
</g>
<!-- Node14 -->
<g id="node4" class="node"><title>Node14</title>
<g id="a_node4"><a xlink:href="../../d5/dea/interfaceorg_1_1lightjason_1_1trafficsimulation_1_1simulation_1_1IObject.htm" target="_top" xlink:title="object interface ">
<polygon fill="none" stroke="black" points="-0.5,-619 -0.5,-713 184.5,-713 184.5,-619 -0.5,-619"/>
<text text-anchor="start" x="7.5" y="-701.8" font-family="Helvetica,sans-Serif" font-size="9.00">org.lightjason.trafficsimulation.simulation.</text>
<text text-anchor="middle" x="92" y="-691.8" font-family="Helvetica,sans-Serif" font-size="9.00">IObject&lt; T extends IAgent&lt;?&gt;</text>
<polyline fill="none" stroke="black" points="-0.5,-685 184.5,-685 "/>
<text text-anchor="middle" x="92" y="-673.8" font-family="Helvetica,sans-Serif" font-size="9.00"> </text>
<polyline fill="none" stroke="black" points="-0.5,-667 184.5,-667 "/>
<text text-anchor="start" x="7.5" y="-655.8" font-family="Helvetica,sans-Serif" font-size="9.00">+ literal()</text>
<text text-anchor="start" x="7.5" y="-645.8" font-family="Helvetica,sans-Serif" font-size="9.00">+ literal()</text>
<text text-anchor="start" x="7.5" y="-635.8" font-family="Helvetica,sans-Serif" font-size="9.00">+ name()</text>
<text text-anchor="start" x="7.5" y="-625.8" font-family="Helvetica,sans-Serif" font-size="9.00">+ position()</text>
</a>
</g>
</g>
<!-- Node14&#45;&gt;Node13 -->
<g id="edge3" class="edge"><title>Node14&#45;&gt;Node13</title>
<path fill="none" stroke="orange" d="M92,-608.657C92,-592.963 92,-576.105 92,-561.076"/>
<polygon fill="orange" stroke="orange" points="88.5001,-608.771 92,-618.771 95.5001,-608.771 88.5001,-608.771"/>
<text text-anchor="middle" x="103.5" y="-592.8" font-family="Helvetica,sans-Serif" font-size="9.00"> &lt; T &gt;</text>
</g>
<!-- Node15 -->
<g id="node5" class="node"><title>Node15</title>
<g id="a_node5"><a xlink:href="../../d5/d10/interfaceorg_1_1lightjason_1_1trafficsimulation_1_1simulation_1_1environment_1_1IEnvironment.htm" target="_top" xlink:title="environment interface ">
<polygon fill="none" stroke="black" points="203,-457 203,-571 441,-571 441,-457 203,-457"/>
<text text-anchor="start" x="211" y="-559.8" font-family="Helvetica,sans-Serif" font-size="9.00">org.lightjason.trafficsimulation.simulation.environment.</text>
<text text-anchor="middle" x="322" y="-549.8" font-family="Helvetica,sans-Serif" font-size="9.00">IEnvironment</text>
<polyline fill="none" stroke="black" points="203,-543 441,-543 "/>
<text text-anchor="middle" x="322" y="-531.8" font-family="Helvetica,sans-Serif" font-size="9.00"> </text>
<polyline fill="none" stroke="black" points="203,-525 441,-525 "/>
<text text-anchor="start" x="211" y="-513.8" font-family="Helvetica,sans-Serif" font-size="9.00">+ empty()</text>
<text text-anchor="start" x="211" y="-503.8" font-family="Helvetica,sans-Serif" font-size="9.00">+ get()</text>
<text text-anchor="start" x="211" y="-493.8" font-family="Helvetica,sans-Serif" font-size="9.00">+ move()</text>
<text text-anchor="start" x="211" y="-483.8" font-family="Helvetica,sans-Serif" font-size="9.00">+ remove()</text>
<text text-anchor="start" x="211" y="-473.8" font-family="Helvetica,sans-Serif" font-size="9.00">+ route()</text>
<text text-anchor="start" x="211" y="-463.8" font-family="Helvetica,sans-Serif" font-size="9.00">+ routestimatedtime()</text>
</a>
</g>
</g>
<!-- Node15&#45;&gt;Node12 -->
<g id="edge4" class="edge"><title>Node15&#45;&gt;Node12</title>
<path fill="none" stroke="#404040" d="M322,-456.765C322,-445.521 322,-433.403 322,-421.215"/>
<polygon fill="none" stroke="#404040" points="322,-421.032 318,-415.032 322,-409.032 326,-415.032 322,-421.032"/>
<text text-anchor="middle" x="358" y="-430.8" font-family="Helvetica,sans-Serif" font-size="9.00"> #m_environment</text>
</g>
<!-- Node16 -->
<g id="node6" class="node"><title>Node16</title>
<g id="a_node6"><a xlink:href="../../d5/dea/interfaceorg_1_1lightjason_1_1trafficsimulation_1_1simulation_1_1IObject.htm" target="_top" xlink:title="object interface ">
<polygon fill="none" stroke="black" points="239.5,-619 239.5,-713 404.5,-713 404.5,-619 239.5,-619"/>
<text text-anchor="start" x="247.5" y="-701.8" font-family="Helvetica,sans-Serif" font-size="9.00">org::lightjason::trafficsimulation</text>
<text text-anchor="middle" x="322" y="-691.8" font-family="Helvetica,sans-Serif" font-size="9.00">::simulation::IObject&lt; IEnvironment &gt;</text>
<polyline fill="none" stroke="black" points="239.5,-685 404.5,-685 "/>
<text text-anchor="middle" x="322" y="-673.8" font-family="Helvetica,sans-Serif" font-size="9.00"> </text>
<polyline fill="none" stroke="black" points="239.5,-667 404.5,-667 "/>
<text text-anchor="start" x="247.5" y="-655.8" font-family="Helvetica,sans-Serif" font-size="9.00">+ literal()</text>
<text text-anchor="start" x="247.5" y="-645.8" font-family="Helvetica,sans-Serif" font-size="9.00">+ literal()</text>
<text text-anchor="start" x="247.5" y="-635.8" font-family="Helvetica,sans-Serif" font-size="9.00">+ name()</text>
<text text-anchor="start" x="247.5" y="-625.8" font-family="Helvetica,sans-Serif" font-size="9.00">+ position()</text>
</a>
</g>
</g>
<!-- Node16&#45;&gt;Node15 -->
<g id="edge5" class="edge"><title>Node16&#45;&gt;Node15</title>
<path fill="none" stroke="midnightblue" d="M322,-608.655C322,-596.374 322,-583.381 322,-571.11"/>
<polygon fill="none" stroke="midnightblue" points="318.5,-608.771 322,-618.771 325.5,-608.771 318.5,-608.771"/>
</g>
<!-- Node17 -->
<g id="node7" class="node"><title>Node17</title>
<g id="a_node7"><a xlink:href="../../d6/d59/interfaceorg_1_1lightjason_1_1trafficsimulation_1_1simulation_1_1movable_1_1IMoveable.htm" target="_top" xlink:title="{org.lightjason.trafficsimulation.simulation.movable.\lIMoveable\&lt; T \&gt;\n||+ move()\l+ moveable()\l}">
<polygon fill="none" stroke="black" points="424,-285 424,-359 646,-359 646,-285 424,-285"/>
<text text-anchor="start" x="432" y="-347.8" font-family="Helvetica,sans-Serif" font-size="9.00">org.lightjason.trafficsimulation.simulation.movable.</text>
<text text-anchor="middle" x="535" y="-337.8" font-family="Helvetica,sans-Serif" font-size="9.00">IMoveable&lt; T &gt;</text>
<polyline fill="none" stroke="black" points="424,-331 646,-331 "/>
<text text-anchor="middle" x="535" y="-319.8" font-family="Helvetica,sans-Serif" font-size="9.00"> </text>
<polyline fill="none" stroke="black" points="424,-313 646,-313 "/>
<text text-anchor="start" x="432" y="-301.8" font-family="Helvetica,sans-Serif" font-size="9.00">+ move()</text>
<text text-anchor="start" x="432" y="-291.8" font-family="Helvetica,sans-Serif" font-size="9.00">+ moveable()</text>
</a>
</g>
</g>
<!-- Node17&#45;&gt;Node11 -->
<g id="edge6" class="edge"><title>Node17&#45;&gt;Node11</title>
<path fill="none" stroke="midnightblue" d="M517.901,-275.265C509.216,-252.035 498.319,-222.89 487.902,-195.027"/>
<polygon fill="none" stroke="midnightblue" points="514.699,-276.697 521.48,-284.838 521.256,-274.245 514.699,-276.697"/>
</g>
<!-- Node18 -->
<g id="node8" class="node"><title>Node18</title>
<g id="a_node8"><a xlink:href="../../d6/d59/interfaceorg_1_1lightjason_1_1trafficsimulation_1_1simulation_1_1movable_1_1IMoveable.htm" target="_top" xlink:title="moveable interface ">
<polygon fill="none" stroke="black" points="459,-477 459,-551 681,-551 681,-477 459,-477"/>
<text text-anchor="start" x="467" y="-539.8" font-family="Helvetica,sans-Serif" font-size="9.00">org.lightjason.trafficsimulation.simulation.movable.</text>
<text text-anchor="middle" x="570" y="-529.8" font-family="Helvetica,sans-Serif" font-size="9.00">IMoveable&lt; T extends IMoveable&lt;?&gt;</text>
<polyline fill="none" stroke="black" points="459,-523 681,-523 "/>
<text text-anchor="middle" x="570" y="-511.8" font-family="Helvetica,sans-Serif" font-size="9.00"> </text>
<polyline fill="none" stroke="black" points="459,-505 681,-505 "/>
<text text-anchor="start" x="467" y="-493.8" font-family="Helvetica,sans-Serif" font-size="9.00">+ move()</text>
<text text-anchor="start" x="467" y="-483.8" font-family="Helvetica,sans-Serif" font-size="9.00">+ moveable()</text>
</a>
</g>
</g>
<!-- Node18&#45;&gt;Node17 -->
<g id="edge7" class="edge"><title>Node18&#45;&gt;Node17</title>
<path fill="none" stroke="orange" d="M561.508,-466.902C555.4,-433.74 547.277,-389.649 541.641,-359.05"/>
<polygon fill="orange" stroke="orange" points="558.081,-467.615 563.334,-476.815 564.965,-466.347 558.081,-467.615"/>
<text text-anchor="middle" x="567.5" y="-430.8" font-family="Helvetica,sans-Serif" font-size="9.00"> &lt; T &gt;</text>
</g>
<!-- Node19 -->
<g id="node9" class="node"><title>Node19</title>
<g id="a_node9"><a xlink:href="../../d5/dea/interfaceorg_1_1lightjason_1_1trafficsimulation_1_1simulation_1_1IObject.htm" target="_top" xlink:title="object interface ">
<polygon fill="none" stroke="black" points="498.5,-619 498.5,-713 641.5,-713 641.5,-619 498.5,-619"/>
<text text-anchor="start" x="506.5" y="-701.8" font-family="Helvetica,sans-Serif" font-size="9.00">org::lightjason::trafficsimulation</text>
<text text-anchor="middle" x="570" y="-691.8" font-family="Helvetica,sans-Serif" font-size="9.00">::simulation::IObject&lt; T &gt;</text>
<polyline fill="none" stroke="black" points="498.5,-685 641.5,-685 "/>
<text text-anchor="middle" x="570" y="-673.8" font-family="Helvetica,sans-Serif" font-size="9.00"> </text>
<polyline fill="none" stroke="black" points="498.5,-667 641.5,-667 "/>
<text text-anchor="start" x="506.5" y="-655.8" font-family="Helvetica,sans-Serif" font-size="9.00">+ literal()</text>
<text text-anchor="start" x="506.5" y="-645.8" font-family="Helvetica,sans-Serif" font-size="9.00">+ literal()</text>
<text text-anchor="start" x="506.5" y="-635.8" font-family="Helvetica,sans-Serif" font-size="9.00">+ name()</text>
<text text-anchor="start" x="506.5" y="-625.8" font-family="Helvetica,sans-Serif" font-size="9.00">+ position()</text>
</a>
</g>
</g>
<!-- Node19&#45;&gt;Node18 -->
<g id="edge8" class="edge"><title>Node19&#45;&gt;Node18</title>
<path fill="none" stroke="midnightblue" d="M570,-608.625C570,-589.437 570,-568.512 570,-551.32"/>
<polygon fill="none" stroke="midnightblue" points="566.5,-608.771 570,-618.771 573.5,-608.771 566.5,-608.771"/>
</g>
</g>
</svg>
        <g id="navigator" transform="translate(0 0)" fill="#404254">
                <rect fill="#f2f5e9" fill-opacity="0.5" stroke="#606060" stroke-width=".5" x="0" y="0" width="60" height="60"/>
                <use id="zoomplus" xlink:href="#zoomPlus" x="17" y="9" onmousedown="handleZoom(evt,'in')"/>
                <use id="zoomminus" xlink:href="#zoomMin" x="42" y="9" onmousedown="handleZoom(evt,'out')"/>
                <use id="reset" xlink:href="#resetDef" x="30" y="36" onmousedown="handleReset()"/>
                <g id="arrowUp" xlink:href="#dirArrow" transform="translate(30 24)" onmousedown="handlePan(0,-1)">
                  <use xlink:href="#rim" fill="#404040">
                        <set attributeName="fill" to="#808080" begin="arrowUp.mouseover" end="arrowUp.mouseout"/>
                  </use>
                  <path fill="none" stroke="white" stroke-width="1.5" d="M0,-3.0v7 M-2.5,-0.5L0,-3.0L2.5,-0.5"/>
                </g>
                <g id="arrowRight" xlink:href="#dirArrow" transform="rotate(90) translate(36 -43)" onmousedown="handlePan(1,0)">
                  <use xlink:href="#rim" fill="#404040">
                        <set attributeName="fill" to="#808080" begin="arrowRight.mouseover" end="arrowRight.mouseout"/>
                  </use>
                  <path fill="none" stroke="white" stroke-width="1.5" d="M0,-3.0v7 M-2.5,-0.5L0,-3.0L2.5,-0.5"/>
                </g>
                <g id="arrowDown" xlink:href="#dirArrow" transform="rotate(180) translate(-30 -48)" onmousedown="handlePan(0,1)">
                  <use xlink:href="#rim" fill="#404040">
                        <set attributeName="fill" to="#808080" begin="arrowDown.mouseover" end="arrowDown.mouseout"/>
                  </use>
                  <path fill="none" stroke="white" stroke-width="1.5" d="M0,-3.0v7 M-2.5,-0.5L0,-3.0L2.5,-0.5"/>
                </g>
                <g id="arrowLeft" xlink:href="#dirArrow" transform="rotate(270) translate(-36 17)" onmousedown="handlePan(-1,0)">
                  <use xlink:href="#rim" fill="#404040">
                        <set attributeName="fill" to="#808080" begin="arrowLeft.mouseover" end="arrowLeft.mouseout"/>
                  </use>
                  <path fill="none" stroke="white" stroke-width="1.5" d="M0,-3.0v7 M-2.5,-0.5L0,-3.0L2.5,-0.5"/>
                </g>
        </g>
        <svg viewBox="0 0 15 15" width="100%" height="30px" preserveAspectRatio="xMaxYMin meet">
         <g id="arrow_out" transform="scale(0.3 0.3)">
          <a xlink:href="classorg_1_1lightjason_1_1trafficsimulation_1_1simulation_1_1movable_1_1IBaseMoveable__coll__graph_org.svg" target="_base">
           <rect id="button" ry="5" rx="5" y="6" x="6" height="38" width="38"
                fill="#f2f5e9" fill-opacity="0.5" stroke="#606060" stroke-width="1.0"/>
           <path id="arrow"
             d="M 11.500037,31.436501 C 11.940474,20.09759 22.043105,11.32322 32.158766,21.979434 L 37.068811,17.246167 C 37.068811,17.246167 37.088388,32 37.088388,32 L 22.160133,31.978069 C 22.160133,31.978069 26.997745,27.140456 26.997745,27.140456 C 18.528582,18.264221 13.291696,25.230495 11.500037,31.436501 z"
             style="fill:#404040;"/>
          </a>
         </g>
        </svg>
</svg>
