<?xml version="1.0" encoding="UTF-8" standalone="no"?>
<!DOCTYPE svg PUBLIC "-//W3C//DTD SVG 1.1//EN"
 "http://www.w3.org/Graphics/SVG/1.1/DTD/svg11.dtd">
<!-- Generated by graphviz version 2.36.0 (20140111.2315)
 -->
<!-- Title: org.lightjason.trafficsimulation.simulation.stationary.trafficlight.ELightColorVehicle Pages: 1 -->
<svg width="276pt" height="340pt"
 viewBox="0.00 0.00 276.00 340.00" xmlns="http://www.w3.org/2000/svg" xmlns:xlink="http://www.w3.org/1999/xlink">
<g id="graph0" class="graph" transform="scale(1 1) rotate(0) translate(4 336)">
<title>org.lightjason.trafficsimulation.simulation.stationary.trafficlight.ELightColorVehicle</title>
<!-- Node0 -->
<g id="node1" class="node"><title>Node0</title>
<polygon fill="#bfbfbf" stroke="black" points="0,-1 0,-95 268,-95 268,-1 0,-1"/>
<text text-anchor="start" x="8" y="-83.8" font-family="Helvetica,sans-Serif" font-size="9.00">org.lightjason.trafficsimulation.simulation.stationary.trafficlight.</text>
<text text-anchor="middle" x="134" y="-73.8" font-family="Helvetica,sans-Serif" font-size="9.00">ELightColorVehicle</text>
<polyline fill="none" stroke="black" points="0,-67 268,-67 "/>
<text text-anchor="start" x="8" y="-55.8" font-family="Helvetica,sans-Serif" font-size="9.00">+ GREEN</text>
<text text-anchor="start" x="8" y="-45.8" font-family="Helvetica,sans-Serif" font-size="9.00">+ RED</text>
<text text-anchor="start" x="8" y="-35.8" font-family="Helvetica,sans-Serif" font-size="9.00">+ REDYELLOW</text>
<polyline fill="none" stroke="black" points="0,-29 268,-29 "/>
<text text-anchor="start" x="8" y="-17.8" font-family="Helvetica,sans-Serif" font-size="9.00">+ next()</text>
<text text-anchor="start" x="8" y="-7.8" font-family="Helvetica,sans-Serif" font-size="9.00">+ path()</text>
</g>
<!-- Node1 -->
<g id="node2" class="node"><title>Node1</title>
<g id="a_node2"><a xlink:href="../../d7/dcc/interfaceorg_1_1lightjason_1_1trafficsimulation_1_1simulation_1_1stationary_1_1trafficlight_1_1ITrafficLightColor.htm" target="_top" xlink:title="{org.lightjason.trafficsimulation.simulation.stationary.trafficlight.\lITrafficLightColor\&lt; ELightColorVehicle \&gt;\n||+ next()\l+ path()\l}">
<polygon fill="none" stroke="black" points="0,-135 0,-209 268,-209 268,-135 0,-135"/>
<text text-anchor="start" x="8" y="-197.8" font-family="Helvetica,sans-Serif" font-size="9.00">org.lightjason.trafficsimulation.simulation.stationary.trafficlight.</text>
<text text-anchor="middle" x="134" y="-187.8" font-family="Helvetica,sans-Serif" font-size="9.00">ITrafficLightColor&lt; ELightColorVehicle &gt;</text>
<polyline fill="none" stroke="black" points="0,-181 268,-181 "/>
<text text-anchor="middle" x="134" y="-169.8" font-family="Helvetica,sans-Serif" font-size="9.00"> </text>
<polyline fill="none" stroke="black" points="0,-163 268,-163 "/>
<text text-anchor="start" x="8" y="-151.8" font-family="Helvetica,sans-Serif" font-size="9.00">+ next()</text>
<text text-anchor="start" x="8" y="-141.8" font-family="Helvetica,sans-Serif" font-size="9.00">+ path()</text>
</a>
</g>
</g>
<!-- Node1&#45;&gt;Node0 -->
<g id="edge1" class="edge"><title>Node1&#45;&gt;Node0</title>
<path fill="none" stroke="midnightblue" d="M134,-124.578C134,-114.998 134,-104.907 134,-95.3296"/>
<polygon fill="none" stroke="midnightblue" points="130.5,-124.726 134,-134.726 137.5,-124.726 130.5,-124.726"/>
</g>
<!-- Node2 -->
<g id="node3" class="node"><title>Node2</title>
<g id="a_node3"><a xlink:href="../../d7/dcc/interfaceorg_1_1lightjason_1_1trafficsimulation_1_1simulation_1_1stationary_1_1trafficlight_1_1ITrafficLightColor.htm" target="_top" xlink:title="traffic light enumeration interface ">
<polygon fill="none" stroke="black" points="0,-257 0,-331 268,-331 268,-257 0,-257"/>
<text text-anchor="start" x="8" y="-319.8" font-family="Helvetica,sans-Serif" font-size="9.00">org.lightjason.trafficsimulation.simulation.stationary.trafficlight.</text>
<text text-anchor="middle" x="134" y="-309.8" font-family="Helvetica,sans-Serif" font-size="9.00">ITrafficLightColor&lt; T extends Enum&lt;?&gt;</text>
<polyline fill="none" stroke="black" points="0,-303 268,-303 "/>
<text text-anchor="middle" x="134" y="-291.8" font-family="Helvetica,sans-Serif" font-size="9.00"> </text>
<polyline fill="none" stroke="black" points="0,-285 268,-285 "/>
<text text-anchor="start" x="8" y="-273.8" font-family="Helvetica,sans-Serif" font-size="9.00">+ next()</text>
<text text-anchor="start" x="8" y="-263.8" font-family="Helvetica,sans-Serif" font-size="9.00">+ path()</text>
</a>
</g>
</g>
<!-- Node2&#45;&gt;Node1 -->
<g id="edge2" class="edge"><title>Node2&#45;&gt;Node1</title>
<path fill="none" stroke="orange" d="M134,-246.823C134,-234.42 134,-221.183 134,-209.393"/>
<polygon fill="orange" stroke="orange" points="130.5,-246.996 134,-256.996 137.5,-246.996 130.5,-246.996"/>
<text text-anchor="middle" x="182.5" y="-230.8" font-family="Helvetica,sans-Serif" font-size="9.00"> &lt; ELightColorVehicle &gt;</text>
</g>
</g>
</svg>
